%FSLAX23Y23*%
%MOIN*%
G70*
G01*
G75*
G04 Layer_Color=8388736*
%ADD10C,0.150*%
%ADD11R,0.050X0.055*%
%ADD12R,0.118X0.118*%
%ADD13R,0.010X0.041*%
%ADD14R,0.041X0.010*%
%ADD15R,0.094X0.071*%
%ADD16R,0.035X0.049*%
%ADD17R,0.055X0.022*%
%ADD18R,0.022X0.055*%
%ADD19R,0.049X0.035*%
%ADD20R,0.033X0.024*%
%ADD21R,0.047X0.024*%
%ADD22R,0.012X0.035*%
%ADD23R,0.025X0.050*%
%ADD24R,0.063X0.012*%
%ADD25R,0.012X0.063*%
%ADD26R,0.055X0.065*%
%ADD27R,0.055X0.050*%
%ADD28R,0.087X0.024*%
%ADD29R,0.065X0.055*%
%ADD30R,0.037X0.035*%
%ADD31R,0.089X0.024*%
%ADD32R,0.102X0.094*%
%ADD33R,0.100X0.100*%
%ADD34R,0.050X0.110*%
%ADD35C,0.050*%
%ADD36R,0.037X0.035*%
%ADD37R,0.087X0.024*%
%ADD38R,0.100X0.100*%
%ADD39R,0.217X0.079*%
%ADD40R,0.160X0.080*%
%ADD41R,0.450X0.450*%
%ADD42R,0.110X0.115*%
%ADD43R,0.410X0.425*%
%ADD44R,0.085X0.036*%
%ADD45R,0.217X0.280*%
%ADD46R,0.039X0.063*%
%ADD47R,0.059X0.051*%
%ADD48R,0.079X0.126*%
%ADD49R,0.079X0.126*%
%ADD50R,0.140X0.060*%
%ADD51R,0.330X0.420*%
%ADD52R,0.022X0.057*%
%ADD53R,0.022X0.057*%
%ADD54R,0.081X0.024*%
%ADD55R,0.039X0.069*%
%ADD56R,0.069X0.039*%
%ADD57R,0.012X0.063*%
%ADD58R,0.031X0.033*%
%ADD59R,0.033X0.031*%
%ADD60C,0.020*%
%ADD61C,0.010*%
%ADD62C,0.040*%
%ADD63C,0.035*%
%ADD64C,0.100*%
%ADD65C,0.075*%
%ADD66C,0.050*%
%ADD67C,0.025*%
%ADD68C,0.015*%
%ADD69C,0.016*%
%ADD70C,0.004*%
%ADD71C,0.008*%
%ADD72R,0.169X0.169*%
%ADD73C,0.200*%
%ADD74C,0.150*%
%ADD75C,0.125*%
%ADD76C,0.250*%
%ADD77C,0.169*%
%ADD78C,0.070*%
%ADD79C,0.100*%
%ADD80C,0.390*%
%ADD81C,0.065*%
%ADD82R,0.065X0.065*%
%ADD83C,0.150*%
%ADD84C,0.024*%
%ADD85C,0.028*%
%ADD86C,0.034*%
%ADD87C,0.025*%
%ADD88C,0.165*%
%ADD89C,0.290*%
%ADD90C,0.209*%
%ADD91C,0.085*%
%ADD92C,0.102*%
%ADD93C,0.430*%
%ADD94C,0.080*%
%ADD95C,0.131*%
%ADD96C,0.052*%
%ADD97C,0.055*%
%ADD98C,0.090*%
%ADD99C,0.068*%
%ADD100C,0.074*%
G04:AMPARAMS|DCode=101|XSize=43mil|YSize=59mil|CornerRadius=0mil|HoleSize=0mil|Usage=FLASHONLY|Rotation=240.000|XOffset=0mil|YOffset=0mil|HoleType=Round|Shape=Rectangle|*
%AMROTATEDRECTD101*
4,1,4,-0.015,0.034,0.036,0.004,0.015,-0.034,-0.036,-0.004,-0.015,0.034,0.0*
%
%ADD101ROTATEDRECTD101*%

G04:AMPARAMS|DCode=102|XSize=43mil|YSize=59mil|CornerRadius=0mil|HoleSize=0mil|Usage=FLASHONLY|Rotation=255.000|XOffset=0mil|YOffset=0mil|HoleType=Round|Shape=Rectangle|*
%AMROTATEDRECTD102*
4,1,4,-0.023,0.029,0.034,0.013,0.023,-0.029,-0.034,-0.013,-0.023,0.029,0.0*
%
%ADD102ROTATEDRECTD102*%

G04:AMPARAMS|DCode=103|XSize=43mil|YSize=59mil|CornerRadius=0mil|HoleSize=0mil|Usage=FLASHONLY|Rotation=210.000|XOffset=0mil|YOffset=0mil|HoleType=Round|Shape=Rectangle|*
%AMROTATEDRECTD103*
4,1,4,0.004,0.036,0.034,-0.015,-0.004,-0.036,-0.034,0.015,0.004,0.036,0.0*
%
%ADD103ROTATEDRECTD103*%

G04:AMPARAMS|DCode=104|XSize=43mil|YSize=59mil|CornerRadius=0mil|HoleSize=0mil|Usage=FLASHONLY|Rotation=225.000|XOffset=0mil|YOffset=0mil|HoleType=Round|Shape=Rectangle|*
%AMROTATEDRECTD104*
4,1,4,-0.006,0.036,0.036,-0.006,0.006,-0.036,-0.036,0.006,-0.006,0.036,0.0*
%
%ADD104ROTATEDRECTD104*%

%ADD105R,0.043X0.059*%
G04:AMPARAMS|DCode=106|XSize=43mil|YSize=59mil|CornerRadius=0mil|HoleSize=0mil|Usage=FLASHONLY|Rotation=195.000|XOffset=0mil|YOffset=0mil|HoleType=Round|Shape=Rectangle|*
%AMROTATEDRECTD106*
4,1,4,0.013,0.034,0.029,-0.023,-0.013,-0.034,-0.029,0.023,0.013,0.034,0.0*
%
%ADD106ROTATEDRECTD106*%

G04:AMPARAMS|DCode=107|XSize=43mil|YSize=59mil|CornerRadius=0mil|HoleSize=0mil|Usage=FLASHONLY|Rotation=150.000|XOffset=0mil|YOffset=0mil|HoleType=Round|Shape=Rectangle|*
%AMROTATEDRECTD107*
4,1,4,0.034,0.015,0.004,-0.036,-0.034,-0.015,-0.004,0.036,0.034,0.015,0.0*
%
%ADD107ROTATEDRECTD107*%

G04:AMPARAMS|DCode=108|XSize=43mil|YSize=59mil|CornerRadius=0mil|HoleSize=0mil|Usage=FLASHONLY|Rotation=165.000|XOffset=0mil|YOffset=0mil|HoleType=Round|Shape=Rectangle|*
%AMROTATEDRECTD108*
4,1,4,0.029,0.023,0.013,-0.034,-0.029,-0.023,-0.013,0.034,0.029,0.023,0.0*
%
%ADD108ROTATEDRECTD108*%

G04:AMPARAMS|DCode=109|XSize=43mil|YSize=59mil|CornerRadius=0mil|HoleSize=0mil|Usage=FLASHONLY|Rotation=120.000|XOffset=0mil|YOffset=0mil|HoleType=Round|Shape=Rectangle|*
%AMROTATEDRECTD109*
4,1,4,0.036,-0.004,-0.015,-0.034,-0.036,0.004,0.015,0.034,0.036,-0.004,0.0*
%
%ADD109ROTATEDRECTD109*%

G04:AMPARAMS|DCode=110|XSize=43mil|YSize=59mil|CornerRadius=0mil|HoleSize=0mil|Usage=FLASHONLY|Rotation=135.000|XOffset=0mil|YOffset=0mil|HoleType=Round|Shape=Rectangle|*
%AMROTATEDRECTD110*
4,1,4,0.036,0.006,-0.006,-0.036,-0.036,-0.006,0.006,0.036,0.036,0.006,0.0*
%
%ADD110ROTATEDRECTD110*%

%ADD111R,0.059X0.043*%
G04:AMPARAMS|DCode=112|XSize=43mil|YSize=59mil|CornerRadius=0mil|HoleSize=0mil|Usage=FLASHONLY|Rotation=105.000|XOffset=0mil|YOffset=0mil|HoleType=Round|Shape=Rectangle|*
%AMROTATEDRECTD112*
4,1,4,0.034,-0.013,-0.023,-0.029,-0.034,0.013,0.023,0.029,0.034,-0.013,0.0*
%
%ADD112ROTATEDRECTD112*%

G04:AMPARAMS|DCode=113|XSize=43mil|YSize=59mil|CornerRadius=0mil|HoleSize=0mil|Usage=FLASHONLY|Rotation=262.500|XOffset=0mil|YOffset=0mil|HoleType=Round|Shape=Rectangle|*
%AMROTATEDRECTD113*
4,1,4,-0.026,0.025,0.032,0.018,0.026,-0.025,-0.032,-0.018,-0.026,0.025,0.0*
%
%ADD113ROTATEDRECTD113*%

G04:AMPARAMS|DCode=114|XSize=43mil|YSize=59mil|CornerRadius=0mil|HoleSize=0mil|Usage=FLASHONLY|Rotation=247.500|XOffset=0mil|YOffset=0mil|HoleType=Round|Shape=Rectangle|*
%AMROTATEDRECTD114*
4,1,4,-0.019,0.031,0.036,0.009,0.019,-0.031,-0.036,-0.009,-0.019,0.031,0.0*
%
%ADD114ROTATEDRECTD114*%

G04:AMPARAMS|DCode=115|XSize=43mil|YSize=59mil|CornerRadius=0mil|HoleSize=0mil|Usage=FLASHONLY|Rotation=232.500|XOffset=0mil|YOffset=0mil|HoleType=Round|Shape=Rectangle|*
%AMROTATEDRECTD115*
4,1,4,-0.010,0.035,0.037,-0.001,0.010,-0.035,-0.037,0.001,-0.010,0.035,0.0*
%
%ADD115ROTATEDRECTD115*%

G04:AMPARAMS|DCode=116|XSize=43mil|YSize=59mil|CornerRadius=0mil|HoleSize=0mil|Usage=FLASHONLY|Rotation=217.500|XOffset=0mil|YOffset=0mil|HoleType=Round|Shape=Rectangle|*
%AMROTATEDRECTD116*
4,1,4,-0.001,0.037,0.035,-0.010,0.001,-0.037,-0.035,0.010,-0.001,0.037,0.0*
%
%ADD116ROTATEDRECTD116*%

G04:AMPARAMS|DCode=117|XSize=43mil|YSize=59mil|CornerRadius=0mil|HoleSize=0mil|Usage=FLASHONLY|Rotation=202.500|XOffset=0mil|YOffset=0mil|HoleType=Round|Shape=Rectangle|*
%AMROTATEDRECTD117*
4,1,4,0.009,0.036,0.031,-0.019,-0.009,-0.036,-0.031,0.019,0.009,0.036,0.0*
%
%ADD117ROTATEDRECTD117*%

G04:AMPARAMS|DCode=118|XSize=43mil|YSize=59mil|CornerRadius=0mil|HoleSize=0mil|Usage=FLASHONLY|Rotation=187.500|XOffset=0mil|YOffset=0mil|HoleType=Round|Shape=Rectangle|*
%AMROTATEDRECTD118*
4,1,4,0.018,0.032,0.025,-0.026,-0.018,-0.032,-0.025,0.026,0.018,0.032,0.0*
%
%ADD118ROTATEDRECTD118*%

G04:AMPARAMS|DCode=119|XSize=43mil|YSize=59mil|CornerRadius=0mil|HoleSize=0mil|Usage=FLASHONLY|Rotation=172.500|XOffset=0mil|YOffset=0mil|HoleType=Round|Shape=Rectangle|*
%AMROTATEDRECTD119*
4,1,4,0.025,0.026,0.018,-0.032,-0.025,-0.026,-0.018,0.032,0.025,0.026,0.0*
%
%ADD119ROTATEDRECTD119*%

G04:AMPARAMS|DCode=120|XSize=43mil|YSize=59mil|CornerRadius=0mil|HoleSize=0mil|Usage=FLASHONLY|Rotation=157.500|XOffset=0mil|YOffset=0mil|HoleType=Round|Shape=Rectangle|*
%AMROTATEDRECTD120*
4,1,4,0.031,0.019,0.009,-0.036,-0.031,-0.019,-0.009,0.036,0.031,0.019,0.0*
%
%ADD120ROTATEDRECTD120*%

G04:AMPARAMS|DCode=121|XSize=43mil|YSize=59mil|CornerRadius=0mil|HoleSize=0mil|Usage=FLASHONLY|Rotation=142.500|XOffset=0mil|YOffset=0mil|HoleType=Round|Shape=Rectangle|*
%AMROTATEDRECTD121*
4,1,4,0.035,0.010,-0.001,-0.037,-0.035,-0.010,0.001,0.037,0.035,0.010,0.0*
%
%ADD121ROTATEDRECTD121*%

G04:AMPARAMS|DCode=122|XSize=43mil|YSize=59mil|CornerRadius=0mil|HoleSize=0mil|Usage=FLASHONLY|Rotation=127.500|XOffset=0mil|YOffset=0mil|HoleType=Round|Shape=Rectangle|*
%AMROTATEDRECTD122*
4,1,4,0.037,0.001,-0.010,-0.035,-0.037,-0.001,0.010,0.035,0.037,0.001,0.0*
%
%ADD122ROTATEDRECTD122*%

G04:AMPARAMS|DCode=123|XSize=43mil|YSize=59mil|CornerRadius=0mil|HoleSize=0mil|Usage=FLASHONLY|Rotation=112.500|XOffset=0mil|YOffset=0mil|HoleType=Round|Shape=Rectangle|*
%AMROTATEDRECTD123*
4,1,4,0.036,-0.009,-0.019,-0.031,-0.036,0.009,0.019,0.031,0.036,-0.009,0.0*
%
%ADD123ROTATEDRECTD123*%

G04:AMPARAMS|DCode=124|XSize=43mil|YSize=59mil|CornerRadius=0mil|HoleSize=0mil|Usage=FLASHONLY|Rotation=97.500|XOffset=0mil|YOffset=0mil|HoleType=Round|Shape=Rectangle|*
%AMROTATEDRECTD124*
4,1,4,0.032,-0.018,-0.026,-0.025,-0.032,0.018,0.026,0.025,0.032,-0.018,0.0*
%
%ADD124ROTATEDRECTD124*%

%ADD125C,0.006*%
%ADD126C,0.010*%
%ADD127C,0.005*%
%ADD128C,0.008*%
%ADD129C,0.002*%
%ADD130C,0.008*%
%ADD131C,0.006*%
%ADD132R,0.058X0.063*%
%ADD133R,0.126X0.126*%
%ADD134R,0.018X0.049*%
%ADD135R,0.049X0.018*%
%ADD136R,0.102X0.079*%
%ADD137R,0.043X0.057*%
%ADD138R,0.063X0.030*%
%ADD139R,0.030X0.063*%
%ADD140R,0.057X0.043*%
%ADD141R,0.041X0.032*%
%ADD142R,0.055X0.032*%
%ADD143R,0.020X0.043*%
%ADD144R,0.033X0.058*%
%ADD145R,0.071X0.020*%
%ADD146R,0.020X0.071*%
%ADD147R,0.063X0.073*%
%ADD148R,0.063X0.058*%
%ADD149R,0.095X0.032*%
%ADD150R,0.073X0.063*%
%ADD151R,0.045X0.043*%
%ADD152R,0.097X0.032*%
%ADD153R,0.110X0.102*%
%ADD154R,0.108X0.108*%
%ADD155R,0.058X0.118*%
%ADD156R,0.045X0.043*%
%ADD157R,0.095X0.032*%
%ADD158R,0.108X0.108*%
%ADD159R,0.225X0.087*%
%ADD160R,0.168X0.088*%
%ADD161R,0.458X0.458*%
%ADD162R,0.118X0.123*%
%ADD163R,0.418X0.433*%
%ADD164R,0.093X0.044*%
%ADD165R,0.225X0.288*%
%ADD166R,0.047X0.071*%
%ADD167R,0.067X0.059*%
%ADD168R,0.087X0.134*%
%ADD169R,0.087X0.134*%
%ADD170R,0.148X0.068*%
%ADD171R,0.338X0.428*%
%ADD172R,0.030X0.065*%
%ADD173R,0.030X0.065*%
%ADD174R,0.089X0.032*%
%ADD175R,0.047X0.077*%
%ADD176R,0.077X0.047*%
%ADD177R,0.020X0.071*%
%ADD178R,0.039X0.041*%
%ADD179R,0.041X0.039*%
%ADD180R,0.177X0.177*%
%ADD181C,0.208*%
%ADD182C,0.175*%
%ADD183C,0.258*%
%ADD184C,0.133*%
%ADD185C,0.177*%
%ADD186C,0.078*%
%ADD187C,0.108*%
%ADD188C,0.398*%
%ADD189C,0.073*%
%ADD190R,0.073X0.073*%
%ADD191C,0.158*%
%ADD192C,0.058*%
%ADD193C,0.032*%
%ADD194C,0.036*%
%ADD195C,0.042*%
%ADD196C,0.033*%
D70*
X702Y-1880D02*
X718D01*
X710Y-1888D02*
Y-1872D01*
D71*
X-2750Y-2750D02*
Y2485D01*
X-2485Y2750D02*
X2460D01*
X2750Y-2600D02*
Y2460D01*
X-2750Y-2750D02*
X2600D01*
X-2750Y2485D02*
X-2485Y2750D01*
X2460D02*
X2750Y2460D01*
X2600Y-2750D02*
X2750Y-2600D01*
D73*
X-2660Y1340D02*
D03*
D98*
X2600Y-2600D02*
D03*
X-2000Y2600D02*
D03*
X2600Y2450D02*
D03*
X-2260Y-500D02*
D03*
D132*
X703Y2060D02*
D03*
X777D02*
D03*
X1933Y730D02*
D03*
X1943Y360D02*
D03*
X1113Y2590D02*
D03*
X1187D02*
D03*
X97Y2690D02*
D03*
X23D02*
D03*
X2017Y360D02*
D03*
X-857Y2120D02*
D03*
X-783D02*
D03*
X2463Y-920D02*
D03*
X2537D02*
D03*
X2500Y-180D02*
D03*
X2574D02*
D03*
X2473Y890D02*
D03*
X2547D02*
D03*
X2617Y-1470D02*
D03*
X2543D02*
D03*
X2273Y890D02*
D03*
X2347D02*
D03*
X2383Y-2600D02*
D03*
X2457D02*
D03*
X2007Y730D02*
D03*
X1127Y1650D02*
D03*
X1233Y1550D02*
D03*
X1307D02*
D03*
X1053Y1650D02*
D03*
X1127Y1550D02*
D03*
X1053D02*
D03*
Y1450D02*
D03*
Y1350D02*
D03*
X1233Y1450D02*
D03*
X1307D02*
D03*
X1127D02*
D03*
Y1350D02*
D03*
X-2313Y230D02*
D03*
X-2387D02*
D03*
X2463Y-1620D02*
D03*
X2537Y-820D02*
D03*
X2463D02*
D03*
X2537Y-1620D02*
D03*
X2553Y2310D02*
D03*
X2627D02*
D03*
X2493Y1950D02*
D03*
X2567D02*
D03*
X1307Y1650D02*
D03*
X1233D02*
D03*
X-2313Y320D02*
D03*
X-2387D02*
D03*
X557Y2700D02*
D03*
X483D02*
D03*
X403Y1630D02*
D03*
X477D02*
D03*
D133*
X2400Y-2350D02*
D03*
D134*
X2341Y-2252D02*
D03*
X2361D02*
D03*
X2380D02*
D03*
X2400D02*
D03*
X2420D02*
D03*
X2439D02*
D03*
X2459D02*
D03*
Y-2448D02*
D03*
X2439D02*
D03*
X2420D02*
D03*
X2400D02*
D03*
X2380D02*
D03*
X2361D02*
D03*
X2341D02*
D03*
D135*
X2498Y-2291D02*
D03*
Y-2311D02*
D03*
Y-2330D02*
D03*
Y-2350D02*
D03*
Y-2370D02*
D03*
Y-2389D02*
D03*
Y-2409D02*
D03*
X2302D02*
D03*
Y-2389D02*
D03*
Y-2370D02*
D03*
Y-2350D02*
D03*
Y-2330D02*
D03*
Y-2311D02*
D03*
Y-2291D02*
D03*
D136*
X791Y-1880D02*
D03*
X629D02*
D03*
D137*
X1817Y-1520D02*
D03*
X1883D02*
D03*
X1476Y-1314D02*
D03*
X1410D02*
D03*
X1327Y-1900D02*
D03*
X1393D02*
D03*
X1157Y-1770D02*
D03*
X1223D02*
D03*
X1273Y-1680D02*
D03*
X1207D02*
D03*
X1547Y-1310D02*
D03*
X1613D02*
D03*
X1797Y-1600D02*
D03*
X1863D02*
D03*
X1843Y-1770D02*
D03*
X1777D02*
D03*
X1237Y1820D02*
D03*
X1303D02*
D03*
X1237Y1350D02*
D03*
X1303D02*
D03*
X377Y2300D02*
D03*
X443D02*
D03*
X-117Y2180D02*
D03*
X-183D02*
D03*
X377Y2380D02*
D03*
X443D02*
D03*
D138*
X1359Y-1700D02*
D03*
Y-1669D02*
D03*
Y-1637D02*
D03*
Y-1606D02*
D03*
Y-1574D02*
D03*
Y-1543D02*
D03*
Y-1511D02*
D03*
Y-1480D02*
D03*
X1681Y-1480D02*
D03*
Y-1511D02*
D03*
Y-1543D02*
D03*
Y-1574D02*
D03*
Y-1606D02*
D03*
Y-1637D02*
D03*
Y-1669D02*
D03*
Y-1700D02*
D03*
D139*
X1410Y-1429D02*
D03*
X1441D02*
D03*
X1473D02*
D03*
X1504D02*
D03*
X1536D02*
D03*
X1567D02*
D03*
X1599D02*
D03*
X1630D02*
D03*
X1630Y-1751D02*
D03*
X1599D02*
D03*
X1567D02*
D03*
X1536D02*
D03*
X1504D02*
D03*
X1473D02*
D03*
X1441D02*
D03*
X1410D02*
D03*
D140*
X1480Y-1923D02*
D03*
Y-1857D02*
D03*
X1600D02*
D03*
Y-1923D02*
D03*
X140Y2103D02*
D03*
Y2037D02*
D03*
X70Y2037D02*
D03*
Y2103D02*
D03*
X930Y-1783D02*
D03*
Y-1717D02*
D03*
X-200Y2317D02*
D03*
Y2383D02*
D03*
X300Y2357D02*
D03*
Y2423D02*
D03*
D141*
X210Y2187D02*
D03*
Y2150D02*
D03*
Y2113D02*
D03*
X290D02*
D03*
Y2187D02*
D03*
X70Y2257D02*
D03*
Y2183D02*
D03*
X-10D02*
D03*
Y2220D02*
D03*
Y2257D02*
D03*
D142*
X1015Y-1713D02*
D03*
Y-1787D02*
D03*
X1085Y-1750D02*
D03*
D143*
X428Y2193D02*
D03*
X454D02*
D03*
Y2107D02*
D03*
X428D02*
D03*
X403D02*
D03*
X479D02*
D03*
Y2193D02*
D03*
X403D02*
D03*
D144*
X1490Y2000D02*
D03*
X1440D02*
D03*
X1390D02*
D03*
X1490Y1850D02*
D03*
X1440D02*
D03*
X1390D02*
D03*
D145*
X1790Y1969D02*
D03*
Y1989D02*
D03*
Y2048D02*
D03*
Y2067D02*
D03*
Y1713D02*
D03*
Y1752D02*
D03*
X2310Y1989D02*
D03*
X1790Y1831D02*
D03*
X2310Y1752D02*
D03*
Y1772D02*
D03*
Y1792D02*
D03*
Y1811D02*
D03*
Y1910D02*
D03*
Y1930D02*
D03*
Y1969D02*
D03*
Y2008D02*
D03*
Y2067D02*
D03*
Y2087D02*
D03*
X1790Y1733D02*
D03*
Y1772D02*
D03*
Y1792D02*
D03*
Y1811D02*
D03*
Y1851D02*
D03*
Y1870D02*
D03*
Y1890D02*
D03*
Y1910D02*
D03*
Y2087D02*
D03*
Y1949D02*
D03*
Y2028D02*
D03*
X2310D02*
D03*
Y2048D02*
D03*
X1790Y2008D02*
D03*
X2310Y1733D02*
D03*
Y1831D02*
D03*
Y1851D02*
D03*
Y1870D02*
D03*
Y1890D02*
D03*
Y1949D02*
D03*
X1790Y1930D02*
D03*
X2310Y1713D02*
D03*
D146*
X2139Y2160D02*
D03*
X249Y2667D02*
D03*
X230Y2667D02*
D03*
X210Y2667D02*
D03*
X171D02*
D03*
X230Y2505D02*
D03*
X210D02*
D03*
X190D02*
D03*
X171D02*
D03*
X190Y2667D02*
D03*
X1863Y1640D02*
D03*
X2020D02*
D03*
X1922D02*
D03*
X1942D02*
D03*
X2060D02*
D03*
X2080D02*
D03*
X2099D02*
D03*
X2119D02*
D03*
X1902Y2160D02*
D03*
X2001D02*
D03*
X2020D02*
D03*
X2040D02*
D03*
X2060D02*
D03*
X2080D02*
D03*
X2099D02*
D03*
X2158D02*
D03*
X2178D02*
D03*
X2198D02*
D03*
X1981D02*
D03*
X1961D02*
D03*
X1922D02*
D03*
X1902Y1640D02*
D03*
X1942Y2160D02*
D03*
X1883Y1640D02*
D03*
X1863Y2160D02*
D03*
X1883D02*
D03*
X2178Y1640D02*
D03*
X2158D02*
D03*
X2139D02*
D03*
X2217Y2160D02*
D03*
X2119D02*
D03*
X1961Y1640D02*
D03*
X1981D02*
D03*
X2001D02*
D03*
X2040D02*
D03*
X2217D02*
D03*
X2237D02*
D03*
X2198D02*
D03*
X2237Y2160D02*
D03*
D147*
X888Y-827D02*
D03*
X998D02*
D03*
X986Y-696D02*
D03*
X-1060Y-550D02*
D03*
X-1175Y150D02*
D03*
X-980Y691D02*
D03*
X1067Y554D02*
D03*
X1195Y-80D02*
D03*
X1131Y-402D02*
D03*
X805Y-950D02*
D03*
X-881Y-821D02*
D03*
X-1145Y-330D02*
D03*
X-1121Y399D02*
D03*
X-815Y950D02*
D03*
X995Y840D02*
D03*
X1170Y245D02*
D03*
X1096Y-696D02*
D03*
X1241Y-402D02*
D03*
X915Y-950D02*
D03*
X-1170Y-550D02*
D03*
X-991Y-821D02*
D03*
X-1285Y150D02*
D03*
X-1255Y-330D02*
D03*
X-1090Y691D02*
D03*
X-1231Y399D02*
D03*
X-925Y950D02*
D03*
X1177Y554D02*
D03*
X1105Y840D02*
D03*
X1305Y-80D02*
D03*
X1280Y245D02*
D03*
X1242Y403D02*
D03*
X1096Y695D02*
D03*
X-991Y821D02*
D03*
X-1171Y550D02*
D03*
X-1275Y280D02*
D03*
X-1285Y30D02*
D03*
X-1089Y-691D02*
D03*
X-915Y-950D02*
D03*
X1179Y-554D02*
D03*
X1281Y-244D02*
D03*
X1132Y403D02*
D03*
X986Y695D02*
D03*
X-881Y821D02*
D03*
X-1061Y550D02*
D03*
X-1165Y280D02*
D03*
X-1175Y30D02*
D03*
X-1124Y-430D02*
D03*
X-979Y-691D02*
D03*
X-805Y-950D02*
D03*
X1069Y-554D02*
D03*
X1171Y-244D02*
D03*
X-1234Y-430D02*
D03*
X1195Y82D02*
D03*
X1305D02*
D03*
D148*
X130Y1803D02*
D03*
X710D02*
D03*
X130Y1877D02*
D03*
X1650Y2223D02*
D03*
Y2297D02*
D03*
X710Y1877D02*
D03*
X-2165Y1413D02*
D03*
Y1753D02*
D03*
Y1827D02*
D03*
X-670Y2123D02*
D03*
Y2197D02*
D03*
X-2165Y1487D02*
D03*
Y1583D02*
D03*
Y1657D02*
D03*
X1750Y2297D02*
D03*
Y2223D02*
D03*
X390Y2547D02*
D03*
Y2473D02*
D03*
D149*
X1802Y725D02*
D03*
X1598Y575D02*
D03*
Y625D02*
D03*
Y675D02*
D03*
Y725D02*
D03*
X1802Y625D02*
D03*
Y675D02*
D03*
Y255D02*
D03*
Y305D02*
D03*
X1598Y355D02*
D03*
Y305D02*
D03*
Y255D02*
D03*
Y205D02*
D03*
X1802Y355D02*
D03*
D150*
X554Y-1068D02*
D03*
X-82Y-1190D02*
D03*
X-692Y-980D02*
D03*
X-550Y1060D02*
D03*
X82Y1190D02*
D03*
X655Y985D02*
D03*
X244Y-1171D02*
D03*
X-401Y-1126D02*
D03*
X-243Y1167D02*
D03*
X401Y1126D02*
D03*
X554Y-1178D02*
D03*
X-82Y-1300D02*
D03*
X244Y-1281D02*
D03*
X-692Y-1090D02*
D03*
X-401Y-1236D02*
D03*
X-550Y1170D02*
D03*
X82Y1300D02*
D03*
X-243Y1277D02*
D03*
X655Y1095D02*
D03*
X401Y1236D02*
D03*
X760Y1095D02*
D03*
X553Y1176D02*
D03*
X244Y1279D02*
D03*
X-80Y1300D02*
D03*
X-400Y1232D02*
D03*
X-690Y1088D02*
D03*
X-551Y-1173D02*
D03*
X-243Y-1278D02*
D03*
X82Y-1299D02*
D03*
X402Y-1238D02*
D03*
X695Y-1095D02*
D03*
X760Y985D02*
D03*
X553Y1066D02*
D03*
X244Y1169D02*
D03*
X-80Y1190D02*
D03*
X-400Y1122D02*
D03*
X-690Y978D02*
D03*
X-551Y-1063D02*
D03*
X-243Y-1168D02*
D03*
X82Y-1189D02*
D03*
X402Y-1128D02*
D03*
X695Y-985D02*
D03*
X1065Y2390D02*
D03*
Y2280D02*
D03*
D151*
X2076Y-2533D02*
D03*
Y-2343D02*
D03*
Y-2153D02*
D03*
D152*
X2250Y-1015D02*
D03*
Y-1065D02*
D03*
Y-1115D02*
D03*
Y-1165D02*
D03*
Y-1215D02*
D03*
Y-1265D02*
D03*
Y-1315D02*
D03*
Y-1365D02*
D03*
X2610Y-1015D02*
D03*
Y-1065D02*
D03*
Y-1115D02*
D03*
Y-1165D02*
D03*
Y-1215D02*
D03*
Y-1265D02*
D03*
Y-1315D02*
D03*
Y-1365D02*
D03*
X2250Y-1705D02*
D03*
Y-1755D02*
D03*
Y-1805D02*
D03*
Y-1855D02*
D03*
Y-1905D02*
D03*
Y-1955D02*
D03*
Y-2005D02*
D03*
Y-2055D02*
D03*
X2610Y-1705D02*
D03*
Y-1755D02*
D03*
Y-1805D02*
D03*
Y-1855D02*
D03*
Y-1905D02*
D03*
Y-1955D02*
D03*
Y-2005D02*
D03*
Y-2055D02*
D03*
Y-625D02*
D03*
Y-575D02*
D03*
Y-525D02*
D03*
Y-475D02*
D03*
Y-425D02*
D03*
Y-375D02*
D03*
Y-325D02*
D03*
Y-275D02*
D03*
X2250Y-625D02*
D03*
Y-575D02*
D03*
Y-525D02*
D03*
Y-475D02*
D03*
Y-425D02*
D03*
Y-375D02*
D03*
Y-325D02*
D03*
Y-275D02*
D03*
X2610Y445D02*
D03*
Y495D02*
D03*
Y545D02*
D03*
Y595D02*
D03*
Y645D02*
D03*
Y695D02*
D03*
Y745D02*
D03*
Y795D02*
D03*
X2250Y445D02*
D03*
Y495D02*
D03*
Y545D02*
D03*
Y595D02*
D03*
Y645D02*
D03*
Y695D02*
D03*
Y745D02*
D03*
Y795D02*
D03*
D153*
X-2354Y1160D02*
D03*
X-2606D02*
D03*
Y950D02*
D03*
X-2354D02*
D03*
D154*
X-2630Y1745D02*
D03*
X-2380D02*
D03*
Y1530D02*
D03*
X-2630D02*
D03*
X2400Y2565D02*
D03*
D155*
X-420Y2645D02*
D03*
Y2505D02*
D03*
D156*
X2076Y-2607D02*
D03*
Y-2417D02*
D03*
X1984Y-2570D02*
D03*
Y-2380D02*
D03*
Y-2190D02*
D03*
X2076Y-2227D02*
D03*
D157*
X1802Y575D02*
D03*
Y205D02*
D03*
D158*
X-490Y1375D02*
D03*
Y1625D02*
D03*
X-690D02*
D03*
Y1375D02*
D03*
D159*
X2367Y2380D02*
D03*
X1993D02*
D03*
D160*
X-1975Y2100D02*
D03*
Y2300D02*
D03*
D161*
X-1600Y2200D02*
D03*
D162*
X-2395Y1997D02*
D03*
Y2602D02*
D03*
X-1100Y1692D02*
D03*
Y1087D02*
D03*
D163*
X-1690Y1660D02*
D03*
X-1810Y380D02*
D03*
D164*
X-2018Y1810D02*
D03*
Y1760D02*
D03*
Y1710D02*
D03*
Y1660D02*
D03*
Y1610D02*
D03*
Y1560D02*
D03*
Y1510D02*
D03*
X-2138Y480D02*
D03*
Y530D02*
D03*
Y430D02*
D03*
Y380D02*
D03*
Y330D02*
D03*
Y280D02*
D03*
Y230D02*
D03*
D165*
X-670Y2570D02*
D03*
D166*
X-760Y2300D02*
D03*
X-580D02*
D03*
D167*
X-2370Y527D02*
D03*
Y453D02*
D03*
D168*
X-2630Y710D02*
D03*
D169*
X-2370D02*
D03*
D170*
X-1325Y850D02*
D03*
Y1050D02*
D03*
D171*
X-1770Y950D02*
D03*
D172*
X513Y2448D02*
D03*
D173*
X550Y2448D02*
D03*
X587D02*
D03*
Y2532D02*
D03*
X513D02*
D03*
D174*
X1210Y2400D02*
D03*
X1420Y2250D02*
D03*
Y2350D02*
D03*
Y2400D02*
D03*
X1210Y2250D02*
D03*
X1420Y2300D02*
D03*
X1210D02*
D03*
Y2350D02*
D03*
X525Y1735D02*
D03*
X315Y1885D02*
D03*
Y1785D02*
D03*
Y1735D02*
D03*
X525Y1885D02*
D03*
X315Y1835D02*
D03*
X525D02*
D03*
Y1785D02*
D03*
D175*
X1302Y-1399D02*
D03*
X1192D02*
D03*
X1145Y-1500D02*
D03*
X1035D02*
D03*
X1145Y-1590D02*
D03*
X1035D02*
D03*
X1915Y-1300D02*
D03*
X1805D02*
D03*
X1915Y-1420D02*
D03*
X1805D02*
D03*
X95Y2500D02*
D03*
X-15D02*
D03*
X135Y2400D02*
D03*
X25D02*
D03*
D176*
X1730Y-1305D02*
D03*
Y-1195D02*
D03*
X1590Y1985D02*
D03*
Y1875D02*
D03*
D177*
X249Y2505D02*
D03*
D178*
X2218Y-2430D02*
D03*
X2162D02*
D03*
X2422Y1810D02*
D03*
X2478D02*
D03*
X1838Y-1680D02*
D03*
X1782D02*
D03*
X52Y2610D02*
D03*
X108D02*
D03*
X68Y2320D02*
D03*
X12D02*
D03*
X-118Y2330D02*
D03*
X-62D02*
D03*
X1268Y-1570D02*
D03*
X1212D02*
D03*
X1268Y-1500D02*
D03*
X1212D02*
D03*
X1532Y2370D02*
D03*
X1588D02*
D03*
X-2278Y600D02*
D03*
X-2222D02*
D03*
X-82Y2260D02*
D03*
X-138D02*
D03*
X-808Y2210D02*
D03*
X-752D02*
D03*
D179*
X2420Y1928D02*
D03*
Y1872D02*
D03*
X-500Y2142D02*
D03*
Y2198D02*
D03*
X10Y2088D02*
D03*
Y2032D02*
D03*
X230Y2362D02*
D03*
Y2418D02*
D03*
X1290Y-1762D02*
D03*
Y-1818D02*
D03*
D180*
X1520Y-1590D02*
D03*
D181*
X815Y-291D02*
D03*
X670Y-548D02*
D03*
X-148Y-850D02*
D03*
X-815Y-291D02*
D03*
X-670Y547D02*
D03*
X-148Y850D02*
D03*
X148Y-850D02*
D03*
X-670Y-547D02*
D03*
X-815Y291D02*
D03*
X148Y850D02*
D03*
X670Y547D02*
D03*
X815Y291D02*
D03*
X-1560Y2620D02*
D03*
D182*
X-2480Y390D02*
D03*
D183*
X0Y-2600D02*
D03*
X800D02*
D03*
X1540D02*
D03*
X1800D02*
D03*
X2040Y-1650D02*
D03*
X830Y2510D02*
D03*
X-2200Y-1090D02*
D03*
Y-790D02*
D03*
X-2500D02*
D03*
Y-490D02*
D03*
D184*
X2000Y-1900D02*
D03*
X-380Y2180D02*
D03*
X-950Y2280D02*
D03*
X-870Y1080D02*
D03*
X1420Y0D02*
D03*
X840Y-1090D02*
D03*
X-490Y-1400D02*
D03*
X-320Y-1440D02*
D03*
X-160D02*
D03*
X0D02*
D03*
X160D02*
D03*
X330D02*
D03*
X500Y-1330D02*
D03*
X680Y-1250D02*
D03*
X-1330Y-700D02*
D03*
X-840Y570D02*
D03*
X-780Y710D02*
D03*
X2330Y220D02*
D03*
X1480Y-360D02*
D03*
X1070Y1140D02*
D03*
X500Y1330D02*
D03*
X-990Y-250D02*
D03*
X-750Y1220D02*
D03*
X-160Y1420D02*
D03*
X160D02*
D03*
X0D02*
D03*
X-2120Y2600D02*
D03*
D185*
X700Y2310D02*
D03*
X1950Y1500D02*
D03*
X-1040Y-970D02*
D03*
X-670Y-1300D02*
D03*
X-830Y-1150D02*
D03*
X1500Y1580D02*
D03*
X1950Y1260D02*
D03*
X2400Y1610D02*
D03*
X-2312Y0D02*
D03*
X-1156Y-2003D02*
D03*
X1156D02*
D03*
X2312Y0D02*
D03*
X1164Y2015D02*
D03*
X-1156Y2003D02*
D03*
D186*
X2040Y-860D02*
D03*
Y-960D02*
D03*
Y-1220D02*
D03*
Y-1120D02*
D03*
D187*
X1400Y2565D02*
D03*
X1600D02*
D03*
X1800D02*
D03*
X2000D02*
D03*
X2200D02*
D03*
D188*
X-2549Y-1189D02*
D03*
X1189Y-2549D02*
D03*
X2549Y1189D02*
D03*
X-1189Y2549D02*
D03*
D189*
X347Y-2331D02*
D03*
Y-2429D02*
D03*
X473D02*
D03*
D190*
Y-2331D02*
D03*
D191*
X367Y-2143D02*
D03*
Y-2617D02*
D03*
D192*
X1473Y-1637D02*
D03*
X1567D02*
D03*
X1570Y-1541D02*
D03*
X1471Y-1541D02*
D03*
D193*
X-550Y2185D02*
D03*
X-807Y2190D02*
D03*
X1141Y-1129D02*
D03*
X-1371Y656D02*
D03*
X-2098Y1897D02*
D03*
X-2102Y1763D02*
D03*
X2395Y-2538D02*
D03*
X2663Y-2223D02*
D03*
X1030Y1240D02*
D03*
X630Y2000D02*
D03*
X930Y2150D02*
D03*
X820D02*
D03*
X1670Y1860D02*
D03*
X1730Y1940D02*
D03*
X830Y-90D02*
D03*
X790Y800D02*
D03*
Y640D02*
D03*
X830Y800D02*
D03*
Y640D02*
D03*
X870D02*
D03*
Y800D02*
D03*
X2190Y1720D02*
D03*
X2680Y2310D02*
D03*
X2045Y430D02*
D03*
X1933Y798D02*
D03*
X2590Y-2160D02*
D03*
X2250Y-250D02*
D03*
X2010Y1980D02*
D03*
X1860Y1830D02*
D03*
X1740Y1700D02*
D03*
X1990Y1910D02*
D03*
X2000Y1720D02*
D03*
X1740Y1740D02*
D03*
X1695Y2370D02*
D03*
X1940Y1700D02*
D03*
X1740Y2370D02*
D03*
X1850Y1900D02*
D03*
X1740D02*
D03*
X-2700Y800D02*
D03*
X2366Y-2194D02*
D03*
X2410Y-2160D02*
D03*
X2099Y2111D02*
D03*
X-2165Y1325D02*
D03*
X-2240D02*
D03*
X-2310D02*
D03*
X-2484Y1326D02*
D03*
X-2670Y1030D02*
D03*
X-2218Y1413D02*
D03*
X-2630Y2200D02*
D03*
Y2100D02*
D03*
Y2300D02*
D03*
Y1900D02*
D03*
Y1645D02*
D03*
Y2000D02*
D03*
Y2400D02*
D03*
X-2075Y1510D02*
D03*
X-2380Y1655D02*
D03*
X-2427Y1383D02*
D03*
X-2540Y1270D02*
D03*
X-2255Y2100D02*
D03*
X-2315Y2160D02*
D03*
X-2465D02*
D03*
X-2525Y2100D02*
D03*
X-420Y2405D02*
D03*
X-495Y2300D02*
D03*
X-930Y2630D02*
D03*
X-365Y2645D02*
D03*
X2590Y-720D02*
D03*
X2330Y-2600D02*
D03*
X2251Y-2409D02*
D03*
X2610Y-1670D02*
D03*
Y830D02*
D03*
Y-240D02*
D03*
Y-980D02*
D03*
X2590Y-920D02*
D03*
X2580Y-130D02*
D03*
X2373Y-1517D02*
D03*
X2250Y-1670D02*
D03*
X2273Y833D02*
D03*
X2250Y-980D02*
D03*
X2320Y-2005D02*
D03*
X2350Y-2055D02*
D03*
Y-1365D02*
D03*
X2320Y-1315D02*
D03*
Y-575D02*
D03*
X2350Y-625D02*
D03*
X2320Y495D02*
D03*
X2350Y445D02*
D03*
X2090Y1750D02*
D03*
Y1710D02*
D03*
X2110Y1270D02*
D03*
X2210Y1550D02*
D03*
X-503Y2123D02*
D03*
X2130Y1200D02*
D03*
X2260Y1910D02*
D03*
X2370Y1930D02*
D03*
X2567Y2007D02*
D03*
X2250Y1120D02*
D03*
X2280Y1100D02*
D03*
X2160Y1970D02*
D03*
X2600Y2180D02*
D03*
X2140Y970D02*
D03*
X2660Y2130D02*
D03*
Y2220D02*
D03*
X2537Y-1573D02*
D03*
X2547Y940D02*
D03*
X2610D02*
D03*
X2220Y1747D02*
D03*
X2150Y1140D02*
D03*
X2130Y1100D02*
D03*
X2050Y2090D02*
D03*
X1820Y2370D02*
D03*
X1780D02*
D03*
X2181Y881D02*
D03*
X-2100Y920D02*
D03*
Y950D02*
D03*
Y980D02*
D03*
Y1010D02*
D03*
Y1040D02*
D03*
X-450Y2405D02*
D03*
X-480D02*
D03*
X-510D02*
D03*
X-540D02*
D03*
X2120Y-2240D02*
D03*
Y-2430D02*
D03*
Y-2620D02*
D03*
X-2230Y550D02*
D03*
X-2420Y530D02*
D03*
X-2200Y430D02*
D03*
X-2420Y450D02*
D03*
X-1170Y200D02*
D03*
X-1070Y-330D02*
D03*
X80Y1370D02*
D03*
X-80Y1350D02*
D03*
X-240Y1330D02*
D03*
X-400Y1280D02*
D03*
X-550Y1210D02*
D03*
X-690Y1130D02*
D03*
X-980Y950D02*
D03*
X-1040Y820D02*
D03*
X-1140Y690D02*
D03*
X-1220Y550D02*
D03*
X-1279Y399D02*
D03*
X-1300Y330D02*
D03*
X-1290Y200D02*
D03*
X-1280Y-30D02*
D03*
X-1310Y-350D02*
D03*
X-1280Y-430D02*
D03*
X-1220Y-550D02*
D03*
X-1150Y-690D02*
D03*
X-1040Y-820D02*
D03*
X-910Y-1000D02*
D03*
X-690Y-1160D02*
D03*
X-550Y-1240D02*
D03*
X-400Y-1290D02*
D03*
X-240Y-1330D02*
D03*
X-80Y-1340D02*
D03*
X80D02*
D03*
X240Y-1330D02*
D03*
X400Y-1290D02*
D03*
X560Y-1230D02*
D03*
X690Y-1150D02*
D03*
X910Y-1020D02*
D03*
X1240Y-550D02*
D03*
X1290Y-400D02*
D03*
X1350Y-80D02*
D03*
X1330Y-240D02*
D03*
X1360Y80D02*
D03*
X1290Y400D02*
D03*
X1330Y240D02*
D03*
X1230Y550D02*
D03*
X1150Y740D02*
D03*
X550Y1220D02*
D03*
X400Y1280D02*
D03*
X240Y1330D02*
D03*
X-1170Y460D02*
D03*
X-1020Y640D02*
D03*
X-810Y890D02*
D03*
X-610Y1050D02*
D03*
X-300Y1150D02*
D03*
X20D02*
D03*
X340D02*
D03*
X930Y830D02*
D03*
X1070Y610D02*
D03*
X1170Y300D02*
D03*
Y-10D02*
D03*
Y-340D02*
D03*
X1020Y-630D02*
D03*
X770Y-990D02*
D03*
X490Y-1140D02*
D03*
X180D02*
D03*
X-150D02*
D03*
X-350D02*
D03*
X-750Y-1020D02*
D03*
X-920Y-780D02*
D03*
X-1110Y-600D02*
D03*
X1690Y1790D02*
D03*
X1700Y1760D02*
D03*
X2260Y1750D02*
D03*
X2370Y1760D02*
D03*
X1360Y1650D02*
D03*
X1580Y1350D02*
D03*
X1420Y2110D02*
D03*
Y2180D02*
D03*
X660Y1190D02*
D03*
X760Y1160D02*
D03*
X610Y1010D02*
D03*
X1120Y-830D02*
D03*
X1140Y-690D02*
D03*
X-490Y1540D02*
D03*
X-690Y1510D02*
D03*
X-2220Y230D02*
D03*
X1530Y1750D02*
D03*
X1740Y1610D02*
D03*
X1110Y910D02*
D03*
X1400Y530D02*
D03*
Y560D02*
D03*
Y590D02*
D03*
Y620D02*
D03*
X1720Y1210D02*
D03*
X-410Y1520D02*
D03*
X-80Y1640D02*
D03*
X330Y1610D02*
D03*
X730Y1470D02*
D03*
X1360Y880D02*
D03*
X1340Y320D02*
D03*
X1610Y30D02*
D03*
X1570Y-390D02*
D03*
X1416Y-790D02*
D03*
X830Y-1410D02*
D03*
X420Y-1600D02*
D03*
X-20Y-1660D02*
D03*
X-430Y-1620D02*
D03*
X-840Y-1470D02*
D03*
X-1200Y-1200D02*
D03*
X-1480Y-860D02*
D03*
X-1650Y-460D02*
D03*
X-1700Y-30D02*
D03*
X-1270Y1140D02*
D03*
X-920Y1420D02*
D03*
X-590Y1380D02*
D03*
X840Y1220D02*
D03*
X990Y1000D02*
D03*
X-220Y1530D02*
D03*
X140Y1540D02*
D03*
X500Y1450D02*
D03*
X750Y1290D02*
D03*
X1180Y990D02*
D03*
X-1010Y1210D02*
D03*
X-1185Y860D02*
D03*
X-1370Y480D02*
D03*
Y250D02*
D03*
X-1500Y-90D02*
D03*
X-1440D02*
D03*
X-1520Y-400D02*
D03*
Y-660D02*
D03*
X-1260Y-930D02*
D03*
X-940Y-1250D02*
D03*
X-640Y-1540D02*
D03*
X-190Y-1570D02*
D03*
X220D02*
D03*
X618Y-1479D02*
D03*
X900Y-1190D02*
D03*
X1100Y-990D02*
D03*
X1230Y-800D02*
D03*
X1440Y-570D02*
D03*
Y-160D02*
D03*
X1470Y110D02*
D03*
X1310Y570D02*
D03*
X1540Y2240D02*
D03*
X1070Y2590D02*
D03*
X1540Y2430D02*
D03*
X1100Y-120D02*
D03*
X1360Y-190D02*
D03*
X1550Y-210D02*
D03*
X2005Y-440D02*
D03*
X-1310Y990D02*
D03*
X2410Y-820D02*
D03*
X630Y2530D02*
D03*
X550Y2570D02*
D03*
X630Y2670D02*
D03*
X462Y2532D02*
D03*
X590Y2380D02*
D03*
X620Y2720D02*
D03*
X-2192Y630D02*
D03*
X155Y2568D02*
D03*
X164Y2321D02*
D03*
X-54Y2498D02*
D03*
X-15Y2406D02*
D03*
X-3Y2332D02*
D03*
X-69Y2226D02*
D03*
X-58Y2096D02*
D03*
X146Y2187D02*
D03*
X422Y2057D02*
D03*
X333Y2198D02*
D03*
X220Y2339D02*
D03*
X278Y2317D02*
D03*
X-156Y2447D02*
D03*
X14Y2610D02*
D03*
X-26Y2686D02*
D03*
X350Y2065D02*
D03*
X437Y2248D02*
D03*
X491Y2301D02*
D03*
X1230Y2583D02*
D03*
X1299Y2598D02*
D03*
X2220Y2273D02*
D03*
X1718Y2111D02*
D03*
X1674Y2088D02*
D03*
X1703Y2035D02*
D03*
X1594Y1955D02*
D03*
X1591Y1854D02*
D03*
X1710Y1989D02*
D03*
X1440Y1913D02*
D03*
X1381Y1810D02*
D03*
X578Y2203D02*
D03*
X527Y2246D02*
D03*
X787Y2200D02*
D03*
X637Y2172D02*
D03*
X584Y2115D02*
D03*
X710Y2000D02*
D03*
X640Y2060D02*
D03*
X1177Y1824D02*
D03*
X2409Y1872D02*
D03*
X2376Y1825D02*
D03*
X1874Y2072D02*
D03*
X1885Y1910D02*
D03*
X1902Y1732D02*
D03*
X2168Y760D02*
D03*
X2425Y596D02*
D03*
X2469Y467D02*
D03*
X2460Y-578D02*
D03*
X2506Y-484D02*
D03*
X2393Y-325D02*
D03*
X2498Y-1320D02*
D03*
X2497Y-1911D02*
D03*
X2500Y-2006D02*
D03*
X1678Y-1367D02*
D03*
X1682Y-1431D02*
D03*
X1884Y-1566D02*
D03*
X1859Y-1655D02*
D03*
X1762Y-1467D02*
D03*
X1958Y-1420D02*
D03*
X1967Y-1311D02*
D03*
X1886Y-1775D02*
D03*
X1766Y-1888D02*
D03*
X1779Y-1711D02*
D03*
X1511Y-1956D02*
D03*
X1208Y-1710D02*
D03*
X1798Y-1145D02*
D03*
X780Y-859D02*
D03*
X918Y-731D02*
D03*
X1273Y-1844D02*
D03*
X1345Y-1955D02*
D03*
X1660Y1300D02*
D03*
X1690Y1350D02*
D03*
X1720Y1325D02*
D03*
X1630Y1250D02*
D03*
X1690Y1390D02*
D03*
X1728Y1448D02*
D03*
X1437Y1728D02*
D03*
X1140Y1730D02*
D03*
X2347Y-2117D02*
D03*
X2495Y-1470D02*
D03*
X2420Y-1293D02*
D03*
X2389Y-1578D02*
D03*
X2528Y1741D02*
D03*
X2521Y1827D02*
D03*
X990Y-1835D02*
D03*
X1570Y2341D02*
D03*
D194*
X2437Y-2387D02*
D03*
X2364D02*
D03*
X2434Y-2316D02*
D03*
X2366D02*
D03*
D195*
X2400Y-2350D02*
D03*
D196*
X865Y1220D02*
D03*
X815D02*
D03*
X840Y1195D02*
D03*
Y1245D02*
D03*
X-1465Y-90D02*
D03*
X-1415D02*
D03*
X-1440Y-115D02*
D03*
Y-65D02*
D03*
X1125Y-990D02*
D03*
X1075D02*
D03*
X1100Y-1015D02*
D03*
Y-965D02*
D03*
X1230Y-825D02*
D03*
X1255Y-800D02*
D03*
X1230Y-775D02*
D03*
X1205Y-800D02*
D03*
X960Y1000D02*
D03*
X1020D02*
D03*
X990Y970D02*
D03*
Y1030D02*
D03*
X-1450Y1850D02*
D03*
Y1820D02*
D03*
Y1790D02*
D03*
Y1760D02*
D03*
Y1730D02*
D03*
Y1700D02*
D03*
Y1670D02*
D03*
Y1640D02*
D03*
Y1610D02*
D03*
Y1580D02*
D03*
X1700Y2650D02*
D03*
X1290Y2270D02*
D03*
X2600Y340D02*
D03*
X-530Y1540D02*
D03*
X-660Y1510D02*
D03*
X-630D02*
D03*
X-1310Y380D02*
D03*
X-1520Y-440D02*
D03*
X-1540Y-420D02*
D03*
X-1500D02*
D03*
X2040Y670D02*
D03*
Y640D02*
D03*
Y610D02*
D03*
Y580D02*
D03*
Y550D02*
D03*
Y520D02*
D03*
Y300D02*
D03*
Y270D02*
D03*
Y240D02*
D03*
Y210D02*
D03*
Y180D02*
D03*
X-1550Y430D02*
D03*
Y290D02*
D03*
Y250D02*
D03*
Y140D02*
D03*
X-1590Y120D02*
D03*
X-1630D02*
D03*
X-1670D02*
D03*
X-1550Y580D02*
D03*
X-1340Y930D02*
D03*
X-1310D02*
D03*
X-1340Y960D02*
D03*
X-1310D02*
D03*
X-1340Y990D02*
D03*
M02*
