M48
;Layer_Color=9474304
;FILE_FORMAT=2:3
INCH,LZ
;TYPE=PLATED
T1F00S00C0.012
T2F00S00C0.015
T3F00S00C0.028
T4F00S00C0.034
T5F00S00C0.040
T6F00S00C0.045
T7F00S00C0.050
T8F00S00C0.062
T9F00S00C0.091
T10F00S00C0.125
T11F00S00C0.169
;TYPE=NON_PLATED
T12F00S00C0.125
T13F00S00C0.169
T14F00S00C0.250
T15F00S00C0.390
%
T01
X0212Y-0262
Y-0243
X02251Y-02409
X0233Y-026
X02395Y-02538
X02366Y-02194
X0241Y-0216
X02347Y-02117
X0235Y-02055
X0232Y-02005
X025Y-02006
X02497Y-01911
X0259Y-0216
X02663Y-02223
X0212Y-0224
X01886Y-01775
X01859Y-01655
X01884Y-01566
X01958Y-0142
X01762Y-01467
X01779Y-01711
X01766Y-01888
X0225Y-0167
X02389Y-01578
X02373Y-01517
X02495Y-0147
X02537Y-01573
X0261Y-0167
X01682Y-01431
X01511Y-01956
X01345Y-01955
X01273Y-01844
X01208Y-0171
X0099Y-01835
X0083Y-0141
X00618Y-01479
X0042Y-016
X0022Y-0157
X-0002Y-0166
X-0019Y-0157
X-0043Y-0162
X-0064Y-0154
X-0084Y-0147
X-0148Y-0086
X-0152Y-0066
Y-004
X-0165Y-0046
X-017Y-0003
X-015Y-0009
X-0144
X-0128Y-0003
X-0131Y-0035
X-0128Y-0043
X-0122Y-0055
X-0111Y-006
X-0115Y-0069
X-0104Y-0082
X-0092Y-0078
X-0091Y-01
X-0075Y-0102
X-0069Y-0116
X-0055Y-0124
X-004Y-0129
X-0024Y-0133
X-0008Y-0134
X0008
X-0015Y-0114
X-0035
X-0094Y-0125
X-012Y-012
X-0126Y-0093
X-0107Y-0033
X0018Y-0114
X0024Y-0133
X004Y-0129
X0056Y-0123
X0049Y-0114
X0069Y-0115
X0077Y-0099
X0078Y-00859
X00918Y-00731
X0102Y-0063
X0114Y-0069
X0112Y-0083
X0123Y-008
X01416Y-0079
X0144Y-0057
X0124Y-0055
X0129Y-004
X0117Y-0034
X0133Y-0024
X0136Y-0019
X0144Y-0016
X0155Y-0021
X0157Y-0039
X0161Y0003
X0147Y0011
X0136Y0008
X0135Y-0008
X0117Y-0001
X011Y-0012
X0083Y-0009
X0091Y-0102
X009Y-0119
X01141Y-01129
X011Y-0099
X01678Y-01367
X01798Y-01145
X01967Y-01311
X0232Y-01315
X0235Y-01365
X0242Y-01293
X02498Y-0132
X0261Y-0098
X0259Y-0092
Y-0072
X0246Y-00578
X02506Y-00484
X02393Y-00325
X0225Y-0025
X0261Y-0024
X0258Y-0013
X0232Y-00575
X0235Y-00625
X0241Y-0082
X0225Y-0098
X02005Y-0044
X02045Y0043
X0235Y00445
X0232Y00495
X02469Y00467
X02425Y00596
X02273Y00833
X02181Y00881
X0214Y0097
X0213Y011
X0215Y0114
X0213Y012
X0211Y0127
X0225Y0112
X0228Y011
X02547Y0094
X0261
X0261Y0083
X02168Y0076
X01933Y00798
X0172Y0121
Y01325
X01728Y01448
X0174Y0161
Y017
Y0174
X01902Y01732
X0194Y017
X02Y0172
X0209Y0171
X0219Y0172
X0222Y01747
X0221Y0155
X02528Y01741
X01437Y01728
X0136Y0165
X0114Y0173
X0103Y0124
X0084Y0122
X0076Y0116
X0066Y0119
X0055Y0122
X004Y0128
X0034Y0115
X0024Y0133
X0014Y0154
X0033Y0161
X005Y0145
X0073Y0147
X0075Y0129
X0061Y0101
X0079Y008
X0083
X0087
X0093Y0083
X0099Y01
X0118Y0099
X0111Y0091
X0115Y0074
X0107Y0061
X0123Y0055
X0131Y0057
X014Y0056
Y0053
Y0059
Y0062
X0136Y0088
X0129Y004
X0134Y0032
X0133Y0024
X0117Y003
X0087Y0064
X0083
X0079
X0163Y0125
X0166Y013
X0169Y0135
Y0139
X0158Y0135
X0008Y0137
X-0008Y0135
X-0024Y0133
X-004Y0128
X-0055Y0121
X-0059Y0138
X-0069Y0151
X-0049Y0154
X-0041Y0152
X-0022Y0153
X-0008Y0164
X0002Y0115
X-003
X-0069Y0113
X-0061Y0105
X-0081Y0089
X-0098Y0095
X-0104Y0082
X-01185Y0086
X-0114Y0069
X-0102Y0064
X-0122Y0055
X-0117Y0046
X-01279Y00399
X-013Y0033
X-0129Y002
X-0117
X-0137Y0025
Y0048
X-01371Y00656
X-0131Y0099
X-0127Y0114
X-0101Y0121
X-0092Y0142
X-02075Y0151
X-02218Y01413
X-0224Y01325
X-0231
X-02165
X-02484Y01326
X-0254Y0127
X-02427Y01383
X-0238Y01655
X-0263Y01645
X-0267Y0103
X-027Y008
X-0242Y0053
Y0045
X-022Y0043
X-0223Y0055
X-02192Y0063
X-021Y0092
Y0095
Y0098
Y0101
Y0104
X-0222Y0023
X-02102Y01763
X-02098Y01897
X-02255Y021
X-02315Y0216
X-02465
X-02525Y021
X-0263
Y022
Y023
Y024
Y02
Y019
X-00807Y0219
X-0055Y02185
X-00503Y02123
X-00495Y023
X-0048Y02405
X-0045
X-0042
X-0051
X-0054
X-00365Y02645
X-00026Y02686
X00014Y0261
X-00054Y02498
X-00015Y02406
X-00003Y02332
X-00069Y02226
X-00058Y02096
X-00156Y02447
X-0093Y0263
X00155Y02568
X00164Y02321
X0022Y02339
X00278Y02317
X00333Y02198
X0035Y02065
X00422Y02057
X00437Y02248
X00527Y02246
X00491Y02301
X0059Y0238
X00578Y02203
X00637Y02172
X00584Y02115
X0064Y0206
X0063Y02
X0071
X0082Y0215
X00787Y022
X0093Y0215
X0142Y0218
Y0211
X0144Y01913
X01381Y0181
X0153Y0175
X01591Y01854
X0167Y0186
X0169Y0179
X01594Y01955
X01674Y02088
X0154Y0224
X0157Y02341
X0154Y0243
X01695Y0237
X01299Y02598
X0123Y02583
X0107Y0259
X0063Y0253
X0055Y0257
X00462Y02532
X0063Y0267
X0062Y0272
X00146Y02187
X01177Y01824
X017Y0176
X0174Y019
X0173Y0194
X0171Y01989
X01703Y02035
X01718Y02111
X01874Y02072
X01885Y0191
X0185Y019
X0186Y0183
X0199Y0191
X0201Y0198
X0205Y0209
X02099Y02111
X0216Y0197
X0226Y0191
X0237Y0193
X02409Y01872
X02376Y01825
X0237Y0176
X0226Y0175
X0209
X02521Y01827
X02567Y02007
X026Y0218
X0266Y0222
Y0213
X0268Y0231
X0222Y02273
X0182Y0237
X0178
X0174
T02
X-0152Y-0044
X-0154Y-0042
X-015
X-01465Y-0009
X-0144Y-00115
Y-00065
X-0155Y0014
X-0159Y0012
X-0163
X-0167
X-01415Y-0009
X0123Y-00775
Y-00825
X01255Y-008
X01205
X01125Y-0099
X01075
X011Y-01015
Y-00965
X0204Y0018
Y0021
Y0024
Y0027
Y003
Y0052
Y0055
Y0058
Y0061
Y0064
Y0067
X026Y0034
X0102Y01
X0096
X0099Y0097
Y0103
X00865Y0122
X00815
X0084Y01195
Y01245
X-0053Y0154
X-0063Y0151
X-0066
X-0131Y0096
Y0093
X-0134
Y0096
Y0099
X-0131Y0038
X-0155Y0043
Y0029
Y0025
Y0058
X-0145Y0158
Y0161
Y0164
Y0167
Y017
Y0173
Y0176
Y0179
Y0182
Y0185
X0129Y0227
X017Y0265
T03
X02364Y-02387
X02437
X02434Y-02316
X02366
X01567Y-01637
X01473
X01471Y-01541
X0157Y-01541
T04
X024Y-0235
T05
X00347Y-02429
Y-02331
X00473
Y-02429
T06
X0204Y-0122
Y-0112
Y-0096
Y-0086
T07
X0152Y-0159
T08
X014Y02565
X016
X018
X02
X022
X024
T09
X00367Y-02617
Y-02143
T10
X-0067Y-00547
X-00815Y-00291
X-00148Y-0085
X00148
X0067Y-00548
X00815Y-00291
Y00291
X0067Y00547
X00148Y0085
X-00148
X-0067Y00547
X-00815Y00291
X-0266Y0134
T11
X-0156Y0262
T12
X02Y-019
X0033Y-0144
X0016
X0
X-0016
X-0032
X-0049Y-014
X-0133Y-007
X-0099Y-0025
X005Y-0133
X0068Y-0125
X0084Y-0109
X0148Y-0036
X0142Y0
X0233Y0022
X0107Y0114
X005Y0133
X0016Y0142
X0
X-0016
X-0075Y0122
X-0087Y0108
X-0078Y0071
X-0084Y0057
X-0248Y0039
X-0212Y026
X-0095Y0228
X-0038Y0218
T13
X01156Y-02003
X-01156
X-02312Y0
X-0104Y-0097
X-0083Y-0115
X-0067Y-013
X02312Y0
X0195Y0126
Y015
X024Y0161
X015Y0158
X-01156Y02003
X007Y0231
X01164Y02015
T14
X018Y-026
X0204Y-0165
X0154Y-026
X008
X0
X-022Y-0109
Y-0079
X-025
Y-0049
X0083Y0251
T15
X01189Y-02549
X-02549Y-01189
X02549Y01189
X-01189Y02549
M30
