%FSLAX23Y23*%
%MOIN*%
G70*
G01*
G75*
G04 Layer_Color=8388736*
%ADD10C,0.150*%
%ADD11R,0.050X0.055*%
%ADD12R,0.410X0.425*%
%ADD13R,0.085X0.036*%
%ADD14R,0.100X0.100*%
%ADD15R,0.041X0.010*%
%ADD16R,0.010X0.041*%
%ADD17R,0.118X0.118*%
%ADD18R,0.022X0.057*%
%ADD19R,0.022X0.057*%
%ADD20R,0.087X0.024*%
%ADD21R,0.087X0.024*%
%ADD22R,0.063X0.012*%
%ADD23R,0.012X0.063*%
%ADD24R,0.217X0.079*%
%ADD25R,0.037X0.035*%
%ADD26R,0.037X0.035*%
%ADD27R,0.012X0.063*%
%ADD28R,0.050X0.110*%
%ADD29R,0.102X0.094*%
%ADD30R,0.217X0.280*%
%ADD31R,0.039X0.063*%
%ADD32R,0.089X0.024*%
%ADD33R,0.035X0.049*%
%ADD34R,0.065X0.055*%
%ADD35R,0.024X0.087*%
%ADD36R,0.024X0.087*%
%ADD37R,0.100X0.100*%
%ADD38R,0.059X0.051*%
%ADD39R,0.110X0.115*%
%ADD40R,0.079X0.126*%
%ADD41R,0.079X0.126*%
%ADD42R,0.140X0.060*%
%ADD43R,0.330X0.420*%
%ADD44R,0.081X0.024*%
%ADD45R,0.049X0.035*%
%ADD46R,0.055X0.050*%
%ADD47R,0.055X0.065*%
%ADD48C,0.050*%
%ADD49R,0.160X0.080*%
%ADD50R,0.450X0.450*%
%ADD51C,0.035*%
%ADD52C,0.020*%
%ADD53C,0.010*%
%ADD54C,0.100*%
%ADD55C,0.075*%
%ADD56C,0.050*%
%ADD57C,0.025*%
%ADD58C,0.040*%
%ADD59C,0.030*%
%ADD60C,0.015*%
%ADD61C,0.070*%
%ADD62C,0.100*%
%ADD63C,0.065*%
%ADD64R,0.065X0.065*%
%ADD65C,0.150*%
%ADD66C,0.169*%
%ADD67C,0.390*%
%ADD68C,0.200*%
%ADD69C,0.150*%
%ADD70C,0.250*%
%ADD71C,0.125*%
%ADD72C,0.024*%
%ADD73C,0.025*%
%ADD74C,0.040*%
%ADD75C,0.008*%
%ADD76C,0.085*%
%ADD77C,0.102*%
%ADD78C,0.080*%
%ADD79C,0.131*%
%ADD80C,0.209*%
%ADD81C,0.430*%
%ADD82C,0.165*%
%ADD83C,0.290*%
%ADD84C,0.052*%
%ADD85C,0.055*%
%ADD86C,0.064*%
G04:AMPARAMS|DCode=87|XSize=43mil|YSize=59mil|CornerRadius=0mil|HoleSize=0mil|Usage=FLASHONLY|Rotation=240.000|XOffset=0mil|YOffset=0mil|HoleType=Round|Shape=Rectangle|*
%AMROTATEDRECTD87*
4,1,4,-0.015,0.034,0.036,0.004,0.015,-0.034,-0.036,-0.004,-0.015,0.034,0.0*
%
%ADD87ROTATEDRECTD87*%

G04:AMPARAMS|DCode=88|XSize=43mil|YSize=59mil|CornerRadius=0mil|HoleSize=0mil|Usage=FLASHONLY|Rotation=255.000|XOffset=0mil|YOffset=0mil|HoleType=Round|Shape=Rectangle|*
%AMROTATEDRECTD88*
4,1,4,-0.023,0.029,0.034,0.013,0.023,-0.029,-0.034,-0.013,-0.023,0.029,0.0*
%
%ADD88ROTATEDRECTD88*%

G04:AMPARAMS|DCode=89|XSize=43mil|YSize=59mil|CornerRadius=0mil|HoleSize=0mil|Usage=FLASHONLY|Rotation=210.000|XOffset=0mil|YOffset=0mil|HoleType=Round|Shape=Rectangle|*
%AMROTATEDRECTD89*
4,1,4,0.004,0.036,0.034,-0.015,-0.004,-0.036,-0.034,0.015,0.004,0.036,0.0*
%
%ADD89ROTATEDRECTD89*%

G04:AMPARAMS|DCode=90|XSize=43mil|YSize=59mil|CornerRadius=0mil|HoleSize=0mil|Usage=FLASHONLY|Rotation=225.000|XOffset=0mil|YOffset=0mil|HoleType=Round|Shape=Rectangle|*
%AMROTATEDRECTD90*
4,1,4,-0.006,0.036,0.036,-0.006,0.006,-0.036,-0.036,0.006,-0.006,0.036,0.0*
%
%ADD90ROTATEDRECTD90*%

%ADD91R,0.043X0.059*%
G04:AMPARAMS|DCode=92|XSize=43mil|YSize=59mil|CornerRadius=0mil|HoleSize=0mil|Usage=FLASHONLY|Rotation=195.000|XOffset=0mil|YOffset=0mil|HoleType=Round|Shape=Rectangle|*
%AMROTATEDRECTD92*
4,1,4,0.013,0.034,0.029,-0.023,-0.013,-0.034,-0.029,0.023,0.013,0.034,0.0*
%
%ADD92ROTATEDRECTD92*%

G04:AMPARAMS|DCode=93|XSize=43mil|YSize=59mil|CornerRadius=0mil|HoleSize=0mil|Usage=FLASHONLY|Rotation=150.000|XOffset=0mil|YOffset=0mil|HoleType=Round|Shape=Rectangle|*
%AMROTATEDRECTD93*
4,1,4,0.034,0.015,0.004,-0.036,-0.034,-0.015,-0.004,0.036,0.034,0.015,0.0*
%
%ADD93ROTATEDRECTD93*%

G04:AMPARAMS|DCode=94|XSize=43mil|YSize=59mil|CornerRadius=0mil|HoleSize=0mil|Usage=FLASHONLY|Rotation=165.000|XOffset=0mil|YOffset=0mil|HoleType=Round|Shape=Rectangle|*
%AMROTATEDRECTD94*
4,1,4,0.029,0.023,0.013,-0.034,-0.029,-0.023,-0.013,0.034,0.029,0.023,0.0*
%
%ADD94ROTATEDRECTD94*%

G04:AMPARAMS|DCode=95|XSize=43mil|YSize=59mil|CornerRadius=0mil|HoleSize=0mil|Usage=FLASHONLY|Rotation=120.000|XOffset=0mil|YOffset=0mil|HoleType=Round|Shape=Rectangle|*
%AMROTATEDRECTD95*
4,1,4,0.036,-0.004,-0.015,-0.034,-0.036,0.004,0.015,0.034,0.036,-0.004,0.0*
%
%ADD95ROTATEDRECTD95*%

G04:AMPARAMS|DCode=96|XSize=43mil|YSize=59mil|CornerRadius=0mil|HoleSize=0mil|Usage=FLASHONLY|Rotation=135.000|XOffset=0mil|YOffset=0mil|HoleType=Round|Shape=Rectangle|*
%AMROTATEDRECTD96*
4,1,4,0.036,0.006,-0.006,-0.036,-0.036,-0.006,0.006,0.036,0.036,0.006,0.0*
%
%ADD96ROTATEDRECTD96*%

%ADD97R,0.059X0.043*%
G04:AMPARAMS|DCode=98|XSize=43mil|YSize=59mil|CornerRadius=0mil|HoleSize=0mil|Usage=FLASHONLY|Rotation=105.000|XOffset=0mil|YOffset=0mil|HoleType=Round|Shape=Rectangle|*
%AMROTATEDRECTD98*
4,1,4,0.034,-0.013,-0.023,-0.029,-0.034,0.013,0.023,0.029,0.034,-0.013,0.0*
%
%ADD98ROTATEDRECTD98*%

G04:AMPARAMS|DCode=99|XSize=43mil|YSize=59mil|CornerRadius=0mil|HoleSize=0mil|Usage=FLASHONLY|Rotation=262.500|XOffset=0mil|YOffset=0mil|HoleType=Round|Shape=Rectangle|*
%AMROTATEDRECTD99*
4,1,4,-0.026,0.025,0.032,0.018,0.026,-0.025,-0.032,-0.018,-0.026,0.025,0.0*
%
%ADD99ROTATEDRECTD99*%

G04:AMPARAMS|DCode=100|XSize=43mil|YSize=59mil|CornerRadius=0mil|HoleSize=0mil|Usage=FLASHONLY|Rotation=247.500|XOffset=0mil|YOffset=0mil|HoleType=Round|Shape=Rectangle|*
%AMROTATEDRECTD100*
4,1,4,-0.019,0.031,0.036,0.009,0.019,-0.031,-0.036,-0.009,-0.019,0.031,0.0*
%
%ADD100ROTATEDRECTD100*%

G04:AMPARAMS|DCode=101|XSize=43mil|YSize=59mil|CornerRadius=0mil|HoleSize=0mil|Usage=FLASHONLY|Rotation=232.500|XOffset=0mil|YOffset=0mil|HoleType=Round|Shape=Rectangle|*
%AMROTATEDRECTD101*
4,1,4,-0.010,0.035,0.037,-0.001,0.010,-0.035,-0.037,0.001,-0.010,0.035,0.0*
%
%ADD101ROTATEDRECTD101*%

G04:AMPARAMS|DCode=102|XSize=43mil|YSize=59mil|CornerRadius=0mil|HoleSize=0mil|Usage=FLASHONLY|Rotation=217.500|XOffset=0mil|YOffset=0mil|HoleType=Round|Shape=Rectangle|*
%AMROTATEDRECTD102*
4,1,4,-0.001,0.037,0.035,-0.010,0.001,-0.037,-0.035,0.010,-0.001,0.037,0.0*
%
%ADD102ROTATEDRECTD102*%

G04:AMPARAMS|DCode=103|XSize=43mil|YSize=59mil|CornerRadius=0mil|HoleSize=0mil|Usage=FLASHONLY|Rotation=202.500|XOffset=0mil|YOffset=0mil|HoleType=Round|Shape=Rectangle|*
%AMROTATEDRECTD103*
4,1,4,0.009,0.036,0.031,-0.019,-0.009,-0.036,-0.031,0.019,0.009,0.036,0.0*
%
%ADD103ROTATEDRECTD103*%

G04:AMPARAMS|DCode=104|XSize=43mil|YSize=59mil|CornerRadius=0mil|HoleSize=0mil|Usage=FLASHONLY|Rotation=187.500|XOffset=0mil|YOffset=0mil|HoleType=Round|Shape=Rectangle|*
%AMROTATEDRECTD104*
4,1,4,0.018,0.032,0.025,-0.026,-0.018,-0.032,-0.025,0.026,0.018,0.032,0.0*
%
%ADD104ROTATEDRECTD104*%

G04:AMPARAMS|DCode=105|XSize=43mil|YSize=59mil|CornerRadius=0mil|HoleSize=0mil|Usage=FLASHONLY|Rotation=172.500|XOffset=0mil|YOffset=0mil|HoleType=Round|Shape=Rectangle|*
%AMROTATEDRECTD105*
4,1,4,0.025,0.026,0.018,-0.032,-0.025,-0.026,-0.018,0.032,0.025,0.026,0.0*
%
%ADD105ROTATEDRECTD105*%

G04:AMPARAMS|DCode=106|XSize=43mil|YSize=59mil|CornerRadius=0mil|HoleSize=0mil|Usage=FLASHONLY|Rotation=157.500|XOffset=0mil|YOffset=0mil|HoleType=Round|Shape=Rectangle|*
%AMROTATEDRECTD106*
4,1,4,0.031,0.019,0.009,-0.036,-0.031,-0.019,-0.009,0.036,0.031,0.019,0.0*
%
%ADD106ROTATEDRECTD106*%

G04:AMPARAMS|DCode=107|XSize=43mil|YSize=59mil|CornerRadius=0mil|HoleSize=0mil|Usage=FLASHONLY|Rotation=142.500|XOffset=0mil|YOffset=0mil|HoleType=Round|Shape=Rectangle|*
%AMROTATEDRECTD107*
4,1,4,0.035,0.010,-0.001,-0.037,-0.035,-0.010,0.001,0.037,0.035,0.010,0.0*
%
%ADD107ROTATEDRECTD107*%

G04:AMPARAMS|DCode=108|XSize=43mil|YSize=59mil|CornerRadius=0mil|HoleSize=0mil|Usage=FLASHONLY|Rotation=127.500|XOffset=0mil|YOffset=0mil|HoleType=Round|Shape=Rectangle|*
%AMROTATEDRECTD108*
4,1,4,0.037,0.001,-0.010,-0.035,-0.037,-0.001,0.010,0.035,0.037,0.001,0.0*
%
%ADD108ROTATEDRECTD108*%

G04:AMPARAMS|DCode=109|XSize=43mil|YSize=59mil|CornerRadius=0mil|HoleSize=0mil|Usage=FLASHONLY|Rotation=112.500|XOffset=0mil|YOffset=0mil|HoleType=Round|Shape=Rectangle|*
%AMROTATEDRECTD109*
4,1,4,0.036,-0.009,-0.019,-0.031,-0.036,0.009,0.019,0.031,0.036,-0.009,0.0*
%
%ADD109ROTATEDRECTD109*%

G04:AMPARAMS|DCode=110|XSize=43mil|YSize=59mil|CornerRadius=0mil|HoleSize=0mil|Usage=FLASHONLY|Rotation=97.500|XOffset=0mil|YOffset=0mil|HoleType=Round|Shape=Rectangle|*
%AMROTATEDRECTD110*
4,1,4,0.032,-0.018,-0.026,-0.025,-0.032,0.018,0.026,0.025,0.032,-0.018,0.0*
%
%ADD110ROTATEDRECTD110*%

%ADD111C,0.010*%
%ADD112C,0.004*%
%ADD113C,0.008*%
%ADD114C,0.005*%
%ADD115C,0.002*%
%ADD116C,0.002*%
%ADD117C,0.008*%
%ADD118C,0.006*%
%ADD119R,0.058X0.063*%
%ADD120R,0.418X0.433*%
%ADD121R,0.093X0.044*%
%ADD122R,0.108X0.108*%
%ADD123R,0.049X0.018*%
%ADD124R,0.018X0.049*%
%ADD125R,0.126X0.126*%
%ADD126R,0.030X0.065*%
%ADD127R,0.030X0.065*%
%ADD128R,0.095X0.032*%
%ADD129R,0.095X0.032*%
%ADD130R,0.071X0.020*%
%ADD131R,0.020X0.071*%
%ADD132R,0.225X0.087*%
%ADD133R,0.045X0.043*%
%ADD134R,0.045X0.043*%
%ADD135R,0.020X0.071*%
%ADD136R,0.058X0.118*%
%ADD137R,0.110X0.102*%
%ADD138R,0.225X0.288*%
%ADD139R,0.047X0.071*%
%ADD140R,0.097X0.032*%
%ADD141R,0.043X0.057*%
%ADD142R,0.073X0.063*%
%ADD143R,0.032X0.095*%
%ADD144R,0.032X0.095*%
%ADD145R,0.108X0.108*%
%ADD146R,0.067X0.059*%
%ADD147R,0.118X0.123*%
%ADD148R,0.087X0.134*%
%ADD149R,0.087X0.134*%
%ADD150R,0.148X0.068*%
%ADD151R,0.338X0.428*%
%ADD152R,0.089X0.032*%
%ADD153R,0.057X0.043*%
%ADD154R,0.063X0.058*%
%ADD155R,0.063X0.073*%
%ADD156C,0.090*%
%ADD157R,0.168X0.088*%
%ADD158R,0.458X0.458*%
%ADD159C,0.078*%
%ADD160C,0.108*%
%ADD161C,0.073*%
%ADD162R,0.073X0.073*%
%ADD163C,0.158*%
%ADD164C,0.177*%
%ADD165C,0.398*%
%ADD166C,0.208*%
%ADD167C,0.258*%
%ADD168C,0.133*%
D48*
X-2480Y390D02*
D03*
D68*
X-2660Y1340D02*
D03*
D119*
X777Y2060D02*
D03*
X703D02*
D03*
X2537Y-820D02*
D03*
X2463D02*
D03*
X1933Y730D02*
D03*
X1943Y360D02*
D03*
X1113Y2590D02*
D03*
X1187D02*
D03*
X2567Y1750D02*
D03*
X2493D02*
D03*
X2447Y-1470D02*
D03*
X2373D02*
D03*
X2537Y-2160D02*
D03*
X2463D02*
D03*
X2537Y-720D02*
D03*
X2463D02*
D03*
X-1978Y1325D02*
D03*
X-2052D02*
D03*
X2547Y340D02*
D03*
X2473D02*
D03*
X2277Y-2600D02*
D03*
X2203D02*
D03*
X2017Y360D02*
D03*
X-857Y2120D02*
D03*
X-783D02*
D03*
X2463Y-920D02*
D03*
X2537D02*
D03*
X2500Y-180D02*
D03*
X2574D02*
D03*
X2473Y890D02*
D03*
X2547D02*
D03*
X2617Y-1470D02*
D03*
X2543D02*
D03*
X2273Y890D02*
D03*
X2347D02*
D03*
X2383Y-2600D02*
D03*
X2457D02*
D03*
X2007Y730D02*
D03*
X1127Y1650D02*
D03*
X1777Y-1443D02*
D03*
X1233Y1550D02*
D03*
X1307D02*
D03*
X1053Y1650D02*
D03*
X1127Y1550D02*
D03*
X1053D02*
D03*
Y1450D02*
D03*
Y1350D02*
D03*
X1703Y-1443D02*
D03*
X1233Y1450D02*
D03*
X1307D02*
D03*
X1127D02*
D03*
Y1350D02*
D03*
X-2313Y230D02*
D03*
X-2387D02*
D03*
X2463Y-1620D02*
D03*
X2537D02*
D03*
X2553Y2310D02*
D03*
X2627D02*
D03*
X2493Y1950D02*
D03*
X2567D02*
D03*
X1307Y1650D02*
D03*
X1233D02*
D03*
X-2313Y320D02*
D03*
X-2387D02*
D03*
X557Y2700D02*
D03*
X483D02*
D03*
X403Y1630D02*
D03*
X477D02*
D03*
D120*
X-1810Y380D02*
D03*
X-1690Y1660D02*
D03*
D121*
X-2138Y480D02*
D03*
Y530D02*
D03*
Y430D02*
D03*
Y380D02*
D03*
Y330D02*
D03*
Y280D02*
D03*
Y230D02*
D03*
X-2018Y1810D02*
D03*
Y1760D02*
D03*
Y1710D02*
D03*
Y1660D02*
D03*
Y1610D02*
D03*
Y1560D02*
D03*
Y1510D02*
D03*
D122*
X-2630Y1745D02*
D03*
X-2380D02*
D03*
Y1530D02*
D03*
X-2630D02*
D03*
X2400Y2565D02*
D03*
D123*
X2292Y-2291D02*
D03*
Y-2311D02*
D03*
Y-2330D02*
D03*
Y-2350D02*
D03*
Y-2370D02*
D03*
Y-2389D02*
D03*
Y-2409D02*
D03*
X2488D02*
D03*
Y-2389D02*
D03*
Y-2370D02*
D03*
Y-2350D02*
D03*
Y-2330D02*
D03*
Y-2311D02*
D03*
Y-2291D02*
D03*
D124*
X2331Y-2448D02*
D03*
X2351D02*
D03*
X2370D02*
D03*
X2390D02*
D03*
X2410D02*
D03*
X2429D02*
D03*
X2449D02*
D03*
Y-2252D02*
D03*
X2429D02*
D03*
X2410D02*
D03*
X2390D02*
D03*
X2370D02*
D03*
X2351D02*
D03*
X2331D02*
D03*
D125*
X2390Y-2350D02*
D03*
D126*
X513Y2448D02*
D03*
D127*
X550Y2448D02*
D03*
X587D02*
D03*
Y2532D02*
D03*
X513D02*
D03*
D128*
X1802Y725D02*
D03*
X1598Y575D02*
D03*
Y625D02*
D03*
Y675D02*
D03*
Y725D02*
D03*
X1802Y625D02*
D03*
Y675D02*
D03*
Y255D02*
D03*
Y305D02*
D03*
X1598Y355D02*
D03*
Y305D02*
D03*
Y255D02*
D03*
Y205D02*
D03*
X1802Y355D02*
D03*
D129*
Y575D02*
D03*
Y205D02*
D03*
D130*
X1790Y1831D02*
D03*
Y1930D02*
D03*
X2310Y1989D02*
D03*
Y1752D02*
D03*
Y1772D02*
D03*
Y1792D02*
D03*
Y1811D02*
D03*
Y1910D02*
D03*
Y1930D02*
D03*
Y1969D02*
D03*
Y2008D02*
D03*
Y2067D02*
D03*
Y2087D02*
D03*
X1790Y1713D02*
D03*
Y1733D02*
D03*
Y1752D02*
D03*
Y1772D02*
D03*
Y1792D02*
D03*
Y1811D02*
D03*
Y1851D02*
D03*
Y1870D02*
D03*
Y1890D02*
D03*
Y1910D02*
D03*
Y2087D02*
D03*
Y2067D02*
D03*
Y2048D02*
D03*
Y1969D02*
D03*
Y1949D02*
D03*
Y2028D02*
D03*
X2310D02*
D03*
Y2048D02*
D03*
X1790Y1989D02*
D03*
Y2008D02*
D03*
X2310Y1713D02*
D03*
Y1733D02*
D03*
Y1831D02*
D03*
Y1851D02*
D03*
Y1870D02*
D03*
Y1890D02*
D03*
Y1949D02*
D03*
D131*
X2217Y1640D02*
D03*
X2237D02*
D03*
X2020D02*
D03*
X2198D02*
D03*
X1863D02*
D03*
X1922D02*
D03*
X1942D02*
D03*
X2060D02*
D03*
X2080D02*
D03*
X2099D02*
D03*
X2119D02*
D03*
X1902Y2160D02*
D03*
X2001D02*
D03*
X2020D02*
D03*
X2040D02*
D03*
X2060D02*
D03*
X2080D02*
D03*
X2099D02*
D03*
X2139D02*
D03*
X2158D02*
D03*
X2178D02*
D03*
X2198D02*
D03*
X1981D02*
D03*
X1961D02*
D03*
X1922D02*
D03*
X1902Y1640D02*
D03*
X1942Y2160D02*
D03*
X1883Y1640D02*
D03*
X1863Y2160D02*
D03*
X1883D02*
D03*
X2178Y1640D02*
D03*
X2158D02*
D03*
X2139D02*
D03*
X2217Y2160D02*
D03*
X2237D02*
D03*
X2119D02*
D03*
X1961Y1640D02*
D03*
X1981D02*
D03*
X2001D02*
D03*
X2040D02*
D03*
X249Y2667D02*
D03*
X230Y2667D02*
D03*
X210Y2667D02*
D03*
X171D02*
D03*
X230Y2505D02*
D03*
X210D02*
D03*
X190D02*
D03*
X171D02*
D03*
X190Y2667D02*
D03*
D132*
X2367Y2380D02*
D03*
X1993D02*
D03*
D133*
X2076Y-2533D02*
D03*
Y-2343D02*
D03*
Y-2153D02*
D03*
D134*
Y-2607D02*
D03*
X1984Y-2570D02*
D03*
X2076Y-2417D02*
D03*
X1984Y-2380D02*
D03*
Y-2190D02*
D03*
X2076Y-2227D02*
D03*
D135*
X249Y2505D02*
D03*
D136*
X-420Y2645D02*
D03*
Y2505D02*
D03*
X30Y2221D02*
D03*
Y2361D02*
D03*
X-175Y2221D02*
D03*
Y2361D02*
D03*
X29Y2516D02*
D03*
Y2656D02*
D03*
X1440Y2020D02*
D03*
Y1880D02*
D03*
D137*
X-2354Y1160D02*
D03*
X-2606D02*
D03*
Y950D02*
D03*
X-2354D02*
D03*
D138*
X-670Y2570D02*
D03*
D139*
X-760Y2300D02*
D03*
X-580D02*
D03*
D140*
X2610Y-625D02*
D03*
Y-575D02*
D03*
Y-525D02*
D03*
Y-475D02*
D03*
Y-425D02*
D03*
Y-375D02*
D03*
Y-325D02*
D03*
Y-275D02*
D03*
X2250Y-625D02*
D03*
Y-575D02*
D03*
Y-525D02*
D03*
Y-475D02*
D03*
Y-425D02*
D03*
Y-375D02*
D03*
Y-325D02*
D03*
Y-275D02*
D03*
Y-1015D02*
D03*
Y-1065D02*
D03*
Y-1115D02*
D03*
Y-1165D02*
D03*
Y-1215D02*
D03*
Y-1265D02*
D03*
Y-1315D02*
D03*
Y-1365D02*
D03*
X2610Y-1015D02*
D03*
Y-1065D02*
D03*
Y-1115D02*
D03*
Y-1165D02*
D03*
Y-1215D02*
D03*
Y-1265D02*
D03*
Y-1315D02*
D03*
Y-1365D02*
D03*
X2250Y-1705D02*
D03*
Y-1755D02*
D03*
Y-1805D02*
D03*
Y-1855D02*
D03*
Y-1905D02*
D03*
Y-1955D02*
D03*
Y-2005D02*
D03*
Y-2055D02*
D03*
X2610Y-1705D02*
D03*
Y-1755D02*
D03*
Y-1805D02*
D03*
Y-1855D02*
D03*
Y-1905D02*
D03*
Y-1955D02*
D03*
Y-2005D02*
D03*
Y-2055D02*
D03*
Y445D02*
D03*
Y495D02*
D03*
Y545D02*
D03*
Y595D02*
D03*
Y645D02*
D03*
Y695D02*
D03*
Y745D02*
D03*
Y795D02*
D03*
X2250Y445D02*
D03*
Y495D02*
D03*
Y545D02*
D03*
Y595D02*
D03*
Y645D02*
D03*
Y695D02*
D03*
Y745D02*
D03*
Y795D02*
D03*
D141*
X1303Y1350D02*
D03*
X1237D02*
D03*
D142*
X1690Y-968D02*
D03*
Y-858D02*
D03*
X554Y-1068D02*
D03*
X-82Y-1190D02*
D03*
X-692Y-980D02*
D03*
X-550Y1060D02*
D03*
X82Y1190D02*
D03*
X655Y985D02*
D03*
X244Y-1171D02*
D03*
X-401Y-1126D02*
D03*
X-243Y1167D02*
D03*
X401Y1126D02*
D03*
X554Y-1178D02*
D03*
X-82Y-1300D02*
D03*
X244Y-1281D02*
D03*
X-692Y-1090D02*
D03*
X-401Y-1236D02*
D03*
X-550Y1170D02*
D03*
X82Y1300D02*
D03*
X-243Y1277D02*
D03*
X655Y1095D02*
D03*
X401Y1236D02*
D03*
X760Y1095D02*
D03*
X553Y1176D02*
D03*
X244Y1279D02*
D03*
X-80Y1300D02*
D03*
X-400Y1232D02*
D03*
X-690Y1088D02*
D03*
X-551Y-1173D02*
D03*
X-243Y-1278D02*
D03*
X82Y-1299D02*
D03*
X402Y-1238D02*
D03*
X695Y-1095D02*
D03*
X760Y985D02*
D03*
X553Y1066D02*
D03*
X244Y1169D02*
D03*
X-80Y1190D02*
D03*
X-400Y1122D02*
D03*
X-690Y978D02*
D03*
X-551Y-1063D02*
D03*
X-243Y-1168D02*
D03*
X82Y-1189D02*
D03*
X402Y-1128D02*
D03*
X695Y-985D02*
D03*
X1500Y-918D02*
D03*
Y-808D02*
D03*
X1065Y2390D02*
D03*
Y2280D02*
D03*
X290Y2236D02*
D03*
Y2346D02*
D03*
D143*
X1715Y-1325D02*
D03*
X1815D02*
D03*
X1765D02*
D03*
X1665D02*
D03*
Y-1121D02*
D03*
X1715D02*
D03*
X1765D02*
D03*
D144*
X1815D02*
D03*
D145*
X-490Y1375D02*
D03*
Y1625D02*
D03*
X-690D02*
D03*
Y1375D02*
D03*
D146*
X-2250Y477D02*
D03*
Y403D02*
D03*
X-2370Y527D02*
D03*
Y453D02*
D03*
D147*
X-1100Y1692D02*
D03*
Y1087D02*
D03*
X-2395Y1997D02*
D03*
Y2602D02*
D03*
D148*
X-2630Y710D02*
D03*
D149*
X-2370D02*
D03*
D150*
X-1325Y850D02*
D03*
Y1050D02*
D03*
D151*
X-1770Y950D02*
D03*
D152*
X315Y1735D02*
D03*
Y1785D02*
D03*
Y1835D02*
D03*
Y1885D02*
D03*
X525Y1735D02*
D03*
Y1785D02*
D03*
Y1835D02*
D03*
Y1885D02*
D03*
X1210Y2300D02*
D03*
Y2350D02*
D03*
X1420Y2300D02*
D03*
X1210Y2250D02*
D03*
X1420Y2400D02*
D03*
Y2350D02*
D03*
Y2250D02*
D03*
X1210Y2400D02*
D03*
D153*
X494Y2083D02*
D03*
Y2149D02*
D03*
D154*
X130Y1803D02*
D03*
X710D02*
D03*
X130Y1877D02*
D03*
X1650Y2223D02*
D03*
Y2297D02*
D03*
X710Y1877D02*
D03*
X-2165Y1413D02*
D03*
X-560Y2123D02*
D03*
Y2197D02*
D03*
X190Y2348D02*
D03*
Y2274D02*
D03*
X-860Y2558D02*
D03*
Y2632D02*
D03*
X-2165Y1753D02*
D03*
Y1827D02*
D03*
X-126Y2623D02*
D03*
Y2549D02*
D03*
X-670Y2123D02*
D03*
Y2197D02*
D03*
X494Y2269D02*
D03*
Y2343D02*
D03*
X290Y2138D02*
D03*
Y2064D02*
D03*
X-2165Y1487D02*
D03*
Y1583D02*
D03*
Y1657D02*
D03*
X1590Y1913D02*
D03*
Y1987D02*
D03*
X1540Y2367D02*
D03*
X1500Y-1016D02*
D03*
Y-1090D02*
D03*
X1800Y-950D02*
D03*
Y-876D02*
D03*
X1500Y-1186D02*
D03*
Y-1260D02*
D03*
X1540Y2293D02*
D03*
X1750Y2297D02*
D03*
Y2223D02*
D03*
X390Y2547D02*
D03*
Y2473D02*
D03*
D155*
X986Y-696D02*
D03*
X-1060Y-550D02*
D03*
X-1175Y150D02*
D03*
X-980Y691D02*
D03*
X1067Y554D02*
D03*
X1195Y-80D02*
D03*
X1131Y-402D02*
D03*
X805Y-950D02*
D03*
X-881Y-821D02*
D03*
X-1145Y-330D02*
D03*
X-1121Y399D02*
D03*
X-815Y950D02*
D03*
X995Y840D02*
D03*
X1170Y245D02*
D03*
X1096Y-696D02*
D03*
X1241Y-402D02*
D03*
X915Y-950D02*
D03*
X-1170Y-550D02*
D03*
X-991Y-821D02*
D03*
X-1285Y150D02*
D03*
X-1255Y-330D02*
D03*
X-1090Y691D02*
D03*
X-1231Y399D02*
D03*
X-925Y950D02*
D03*
X1177Y554D02*
D03*
X1105Y840D02*
D03*
X1305Y-80D02*
D03*
X1280Y245D02*
D03*
X1242Y403D02*
D03*
X1096Y695D02*
D03*
X-991Y821D02*
D03*
X-1171Y550D02*
D03*
X-1275Y280D02*
D03*
X-1285Y30D02*
D03*
X-1089Y-691D02*
D03*
X-915Y-950D02*
D03*
X998Y-827D02*
D03*
X1179Y-554D02*
D03*
X1281Y-244D02*
D03*
X1132Y403D02*
D03*
X986Y695D02*
D03*
X-881Y821D02*
D03*
X-1061Y550D02*
D03*
X-1165Y280D02*
D03*
X-1175Y30D02*
D03*
X-1124Y-430D02*
D03*
X-979Y-691D02*
D03*
X-805Y-950D02*
D03*
X888Y-827D02*
D03*
X1069Y-554D02*
D03*
X1171Y-244D02*
D03*
X-1234Y-430D02*
D03*
X1195Y82D02*
D03*
X1305D02*
D03*
D156*
X2600Y-2600D02*
D03*
X-2000Y2600D02*
D03*
X2600Y2450D02*
D03*
X-2260Y-500D02*
D03*
D157*
X-1975Y2100D02*
D03*
Y2300D02*
D03*
D158*
X-1600Y2200D02*
D03*
D159*
X2040Y-860D02*
D03*
Y-960D02*
D03*
Y-1220D02*
D03*
Y-1120D02*
D03*
D160*
X1400Y2565D02*
D03*
X1600D02*
D03*
X1800D02*
D03*
X2000D02*
D03*
X2200D02*
D03*
D161*
X347Y-2331D02*
D03*
Y-2429D02*
D03*
X473D02*
D03*
D162*
Y-2331D02*
D03*
D163*
X367Y-2143D02*
D03*
Y-2617D02*
D03*
D164*
X-1156Y2003D02*
D03*
X700Y2310D02*
D03*
X1950Y1500D02*
D03*
X-1040Y-970D02*
D03*
X-670Y-1300D02*
D03*
X-830Y-1150D02*
D03*
X1500Y1580D02*
D03*
X1950Y1260D02*
D03*
X2400Y1610D02*
D03*
X-2312Y0D02*
D03*
X-1156Y-2003D02*
D03*
X1156D02*
D03*
X2312Y0D02*
D03*
X1156Y2003D02*
D03*
D165*
X-1189Y2549D02*
D03*
X-2549Y-1189D02*
D03*
X1189Y-2549D02*
D03*
X2549Y1189D02*
D03*
D166*
X670Y547D02*
D03*
X-148Y-850D02*
D03*
X-815Y-291D02*
D03*
X-670Y547D02*
D03*
X-148Y850D02*
D03*
X148Y-850D02*
D03*
X-670Y-547D02*
D03*
X-815Y291D02*
D03*
X148Y850D02*
D03*
X815Y291D02*
D03*
Y-291D02*
D03*
X670Y-548D02*
D03*
X-1560Y2620D02*
D03*
D167*
X0Y-2600D02*
D03*
X800D02*
D03*
X1540D02*
D03*
X1800D02*
D03*
X2040Y-1650D02*
D03*
X830Y2510D02*
D03*
X-2200Y-1090D02*
D03*
Y-790D02*
D03*
X-2500D02*
D03*
Y-490D02*
D03*
D168*
X2000Y-1900D02*
D03*
X-380Y2180D02*
D03*
X-950Y2280D02*
D03*
X-870Y1080D02*
D03*
X1420Y0D02*
D03*
X840Y-1090D02*
D03*
X-490Y-1400D02*
D03*
X-320Y-1440D02*
D03*
X-160D02*
D03*
X0D02*
D03*
X160D02*
D03*
X330D02*
D03*
X500Y-1330D02*
D03*
X680Y-1250D02*
D03*
X-1330Y-700D02*
D03*
X-840Y570D02*
D03*
X-780Y710D02*
D03*
X2330Y220D02*
D03*
X1480Y-360D02*
D03*
X1070Y1140D02*
D03*
X500Y1330D02*
D03*
X-990Y-250D02*
D03*
X-750Y1220D02*
D03*
X-160Y1420D02*
D03*
X160D02*
D03*
X0D02*
D03*
X-2120Y2600D02*
D03*
M02*
