%FSLAX23Y23*%
%MOIN*%
G70*
G01*
G75*
G04 Layer_Physical_Order=3*
G04 Layer_Color=32768*
%ADD10C,0.150*%
%ADD11R,0.050X0.055*%
%ADD12R,0.410X0.425*%
%ADD13R,0.085X0.036*%
%ADD14R,0.100X0.100*%
%ADD15R,0.041X0.010*%
%ADD16R,0.010X0.041*%
%ADD17R,0.118X0.118*%
%ADD18R,0.022X0.057*%
%ADD19R,0.022X0.057*%
%ADD20R,0.087X0.024*%
%ADD21R,0.087X0.024*%
%ADD22R,0.063X0.012*%
%ADD23R,0.012X0.063*%
%ADD24R,0.217X0.079*%
%ADD25R,0.037X0.035*%
%ADD26R,0.037X0.035*%
%ADD27R,0.012X0.063*%
%ADD28R,0.050X0.110*%
%ADD29R,0.102X0.094*%
%ADD30R,0.217X0.280*%
%ADD31R,0.039X0.063*%
%ADD32R,0.089X0.024*%
%ADD33R,0.035X0.049*%
%ADD34R,0.065X0.055*%
%ADD35R,0.024X0.087*%
%ADD36R,0.024X0.087*%
%ADD37R,0.100X0.100*%
%ADD38R,0.059X0.051*%
%ADD39R,0.110X0.115*%
%ADD40R,0.079X0.126*%
%ADD41R,0.079X0.126*%
%ADD42R,0.140X0.060*%
%ADD43R,0.330X0.420*%
%ADD44R,0.081X0.024*%
%ADD45R,0.049X0.035*%
%ADD46R,0.055X0.050*%
%ADD47R,0.055X0.065*%
%ADD48C,0.050*%
%ADD49R,0.160X0.080*%
%ADD50R,0.450X0.450*%
%ADD51C,0.035*%
%ADD52C,0.020*%
%ADD53C,0.010*%
%ADD54C,0.100*%
%ADD55C,0.075*%
%ADD56C,0.050*%
%ADD57C,0.025*%
%ADD58C,0.040*%
%ADD59C,0.030*%
%ADD60C,0.015*%
%ADD61C,0.070*%
%ADD62C,0.100*%
%ADD63C,0.065*%
%ADD64R,0.065X0.065*%
%ADD65C,0.150*%
%ADD66C,0.169*%
%ADD67C,0.390*%
%ADD68C,0.200*%
%ADD69C,0.150*%
%ADD70C,0.250*%
%ADD71C,0.125*%
%ADD72C,0.024*%
%ADD73C,0.025*%
%ADD74C,0.040*%
%ADD75C,0.008*%
%ADD76C,0.085*%
%ADD77C,0.102*%
%ADD78C,0.080*%
%ADD79C,0.131*%
%ADD80C,0.209*%
%ADD81C,0.430*%
%ADD82C,0.165*%
%ADD83C,0.290*%
%ADD84C,0.052*%
%ADD85C,0.055*%
%ADD86C,0.064*%
G36*
X2469Y3116D02*
X2445D01*
X2374Y3250D01*
Y3116D01*
X2355D01*
Y3266D01*
X2386D01*
X2451Y3143D01*
Y3266D01*
X2469D01*
Y3116D01*
D02*
G37*
G36*
X1035Y3173D02*
X972D01*
Y3191D01*
X1035D01*
Y3173D01*
D02*
G37*
G36*
X-811Y3116D02*
X-835D01*
X-906Y3250D01*
Y3116D01*
X-925D01*
Y3266D01*
X-894D01*
X-829Y3143D01*
Y3266D01*
X-811D01*
Y3116D01*
D02*
G37*
G36*
X-65D02*
X-91D01*
X-146Y3266D01*
X-125D01*
X-78Y3133D01*
X-31Y3266D01*
X-10D01*
X-65Y3116D01*
D02*
G37*
G36*
X1563D02*
X1541D01*
X1509Y3240D01*
X1479Y3116D01*
X1457D01*
X1417Y3266D01*
X1438D01*
X1469Y3141D01*
X1500Y3266D01*
X1520D01*
X1551Y3140D01*
X1582Y3266D01*
X1602D01*
X1563Y3116D01*
D02*
G37*
G36*
X434D02*
X415D01*
Y3245D01*
X373Y3157D01*
X361D01*
X320Y3245D01*
Y3116D01*
X301D01*
Y3266D01*
X328D01*
X368Y3182D01*
X407Y3266D01*
X434D01*
Y3116D01*
D02*
G37*
G36*
X-364D02*
X-385D01*
X-400Y3158D01*
X-465D01*
X-479Y3116D01*
X-499D01*
X-445Y3266D01*
X-418D01*
X-364Y3116D01*
D02*
G37*
G36*
X-235Y3248D02*
X-288D01*
Y3116D01*
X-308D01*
Y3248D01*
X-361D01*
Y3266D01*
X-235D01*
Y3248D01*
D02*
G37*
G36*
X111D02*
X32D01*
Y3207D01*
X111D01*
Y3189D01*
X32D01*
Y3134D01*
X111D01*
Y3116D01*
X12D01*
Y3266D01*
X111D01*
Y3248D01*
D02*
G37*
G36*
X-162Y3250D02*
X-182D01*
Y3131D01*
X-162D01*
Y3116D01*
X-221D01*
Y3131D01*
X-201D01*
Y3250D01*
X-221D01*
Y3266D01*
X-162D01*
Y3250D01*
D02*
G37*
G36*
X1730Y3248D02*
X1651D01*
Y3207D01*
X1730D01*
Y3189D01*
X1651D01*
Y3134D01*
X1730D01*
Y3116D01*
X1631D01*
Y3266D01*
X1730D01*
Y3248D01*
D02*
G37*
G36*
X1811Y3265D02*
X1814Y3265D01*
X1818Y3265D01*
X1822Y3264D01*
X1825Y3264D01*
X1826D01*
X1827Y3263D01*
X1829Y3263D01*
X1831Y3262D01*
X1834Y3261D01*
X1836Y3260D01*
X1839Y3259D01*
X1842Y3257D01*
X1842Y3257D01*
X1843Y3257D01*
X1845Y3255D01*
X1846Y3254D01*
X1849Y3252D01*
X1851Y3250D01*
X1853Y3247D01*
X1855Y3244D01*
X1855Y3244D01*
X1855Y3243D01*
X1856Y3241D01*
X1857Y3239D01*
X1858Y3236D01*
X1859Y3233D01*
X1859Y3229D01*
X1859Y3225D01*
Y3225D01*
Y3224D01*
Y3223D01*
X1859Y3222D01*
Y3221D01*
X1859Y3219D01*
X1858Y3215D01*
X1857Y3211D01*
X1856Y3206D01*
X1854Y3202D01*
X1851Y3198D01*
Y3197D01*
X1851Y3197D01*
X1850Y3196D01*
X1848Y3194D01*
X1845Y3192D01*
X1842Y3189D01*
X1838Y3186D01*
X1834Y3183D01*
X1829Y3181D01*
X1885Y3116D01*
X1859D01*
X1809Y3175D01*
X1781D01*
Y3116D01*
X1761D01*
Y3266D01*
X1808D01*
X1811Y3265D01*
D02*
G37*
G36*
X1187D02*
X1190D01*
X1194Y3265D01*
X1198Y3265D01*
X1202Y3264D01*
X1205Y3263D01*
X1206D01*
X1207Y3263D01*
X1209Y3262D01*
X1211Y3262D01*
X1214Y3261D01*
X1217Y3259D01*
X1219Y3258D01*
X1222Y3256D01*
X1223Y3256D01*
X1224Y3255D01*
X1225Y3254D01*
X1227Y3252D01*
X1229Y3250D01*
X1231Y3248D01*
X1233Y3245D01*
X1235Y3242D01*
X1235Y3241D01*
X1236Y3240D01*
X1237Y3238D01*
X1238Y3236D01*
X1239Y3233D01*
X1239Y3229D01*
X1240Y3225D01*
X1240Y3220D01*
Y3220D01*
Y3220D01*
Y3219D01*
X1240Y3217D01*
X1240Y3214D01*
X1239Y3211D01*
X1239Y3208D01*
X1238Y3205D01*
X1237Y3202D01*
X1236Y3201D01*
X1236Y3200D01*
X1235Y3199D01*
X1234Y3197D01*
X1233Y3195D01*
X1231Y3192D01*
X1229Y3190D01*
X1227Y3187D01*
X1226Y3187D01*
X1225Y3186D01*
X1224Y3185D01*
X1222Y3183D01*
X1219Y3181D01*
X1216Y3179D01*
X1212Y3177D01*
X1208Y3176D01*
X1208D01*
X1208Y3175D01*
X1207Y3175D01*
X1207Y3175D01*
X1205Y3175D01*
X1204Y3174D01*
X1201Y3174D01*
X1197Y3173D01*
X1193Y3172D01*
X1188Y3172D01*
X1182Y3172D01*
X1162D01*
Y3116D01*
X1142D01*
Y3266D01*
X1186D01*
X1187Y3265D01*
D02*
G37*
G36*
X592Y3116D02*
X571D01*
X556Y3158D01*
X492D01*
X477Y3116D01*
X457D01*
X511Y3266D01*
X538D01*
X592Y3116D01*
D02*
G37*
G36*
X873Y3248D02*
X794D01*
Y3207D01*
X873D01*
Y3189D01*
X794D01*
Y3134D01*
X873D01*
Y3116D01*
X774D01*
Y3266D01*
X873D01*
Y3248D01*
D02*
G37*
G36*
X2608D02*
X2529D01*
Y3207D01*
X2608D01*
Y3189D01*
X2529D01*
Y3134D01*
X2608D01*
Y3116D01*
X2509D01*
Y3266D01*
X2608D01*
Y3248D01*
D02*
G37*
G36*
X267Y3250D02*
X248D01*
Y3131D01*
X267D01*
Y3116D01*
X208D01*
Y3131D01*
X228D01*
Y3250D01*
X208D01*
Y3266D01*
X267D01*
Y3250D01*
D02*
G37*
G36*
X2333Y3116D02*
X2311D01*
X2297Y3158D01*
X2232D01*
X2217Y3116D01*
X2197D01*
X2252Y3266D01*
X2278D01*
X2333Y3116D01*
D02*
G37*
G36*
X2022Y3265D02*
X2025D01*
X2028Y3265D01*
X2032Y3265D01*
X2036Y3264D01*
X2040Y3263D01*
X2040D01*
X2041Y3263D01*
X2043Y3262D01*
X2045Y3262D01*
X2048Y3261D01*
X2051Y3259D01*
X2054Y3258D01*
X2056Y3256D01*
X2057Y3256D01*
X2058Y3255D01*
X2059Y3254D01*
X2061Y3252D01*
X2063Y3250D01*
X2066Y3248D01*
X2068Y3245D01*
X2070Y3242D01*
X2070Y3241D01*
X2070Y3240D01*
X2071Y3238D01*
X2072Y3236D01*
X2073Y3233D01*
X2073Y3229D01*
X2074Y3225D01*
X2074Y3220D01*
Y3220D01*
Y3220D01*
Y3219D01*
X2074Y3217D01*
X2074Y3214D01*
X2073Y3211D01*
X2073Y3208D01*
X2072Y3205D01*
X2071Y3202D01*
X2071Y3201D01*
X2070Y3200D01*
X2069Y3199D01*
X2068Y3197D01*
X2067Y3195D01*
X2065Y3192D01*
X2063Y3190D01*
X2061Y3187D01*
X2061Y3187D01*
X2060Y3186D01*
X2058Y3185D01*
X2056Y3183D01*
X2053Y3181D01*
X2050Y3179D01*
X2046Y3177D01*
X2043Y3176D01*
X2042D01*
X2042Y3175D01*
X2042Y3175D01*
X2041Y3175D01*
X2040Y3175D01*
X2038Y3174D01*
X2035Y3174D01*
X2032Y3173D01*
X2027Y3172D01*
X2022Y3172D01*
X2016Y3172D01*
X1996D01*
Y3116D01*
X1976D01*
Y3266D01*
X2020D01*
X2022Y3265D01*
D02*
G37*
G36*
X2120Y3134D02*
X2195D01*
Y3116D01*
X2100D01*
Y3266D01*
X2120D01*
Y3134D01*
D02*
G37*
G36*
X610Y-660D02*
Y-780D01*
X530Y-860D01*
X280D01*
Y-730D01*
X410D01*
X545Y-595D01*
X610Y-660D01*
D02*
G37*
G36*
X51Y719D02*
X103Y714D01*
X153Y705D01*
X203Y692D01*
X252Y676D01*
X300Y656D01*
X346Y633D01*
X390Y607D01*
X432Y577D01*
X472Y545D01*
X510Y510D01*
X545Y472D01*
X577Y432D01*
X607Y390D01*
X633Y346D01*
X656Y300D01*
X676Y252D01*
X692Y203D01*
X705Y153D01*
X714Y103D01*
X719Y51D01*
X721Y0D01*
X719Y-51D01*
X714Y-103D01*
X705Y-153D01*
X692Y-203D01*
X676Y-252D01*
X656Y-300D01*
X633Y-346D01*
X607Y-390D01*
X577Y-432D01*
X545Y-472D01*
X510Y-510D01*
X472Y-545D01*
X432Y-577D01*
X390Y-607D01*
X346Y-633D01*
X300Y-656D01*
X252Y-676D01*
X203Y-692D01*
X153Y-705D01*
X103Y-714D01*
X51Y-719D01*
X0Y-721D01*
X-51Y-719D01*
X-103Y-714D01*
X-153Y-705D01*
X-203Y-692D01*
X-252Y-676D01*
X-300Y-656D01*
X-346Y-633D01*
X-390Y-607D01*
X-432Y-577D01*
X-472Y-545D01*
X-510Y-510D01*
X-545Y-472D01*
X-577Y-432D01*
X-607Y-390D01*
X-633Y-346D01*
X-656Y-300D01*
X-676Y-252D01*
X-692Y-203D01*
X-705Y-153D01*
X-714Y-103D01*
X-719Y-51D01*
X-721Y0D01*
X-719Y51D01*
X-714Y103D01*
X-705Y153D01*
X-692Y203D01*
X-676Y252D01*
X-656Y300D01*
X-633Y346D01*
X-607Y390D01*
X-577Y432D01*
X-545Y472D01*
X-510Y510D01*
X-472Y545D01*
X-432Y577D01*
X-390Y607D01*
X-346Y633D01*
X-300Y656D01*
X-252Y676D01*
X-203Y692D01*
X-153Y705D01*
X-103Y714D01*
X-51Y719D01*
X0Y721D01*
X51Y719D01*
D02*
G37*
G36*
X-350Y-755D02*
X-270D01*
Y-950D01*
X-430D01*
X-550Y-830D01*
Y-600D01*
X-505D01*
X-350Y-755D01*
D02*
G37*
G36*
X130Y-2400D02*
X-900D01*
Y-2200D01*
X130D01*
Y-2400D01*
D02*
G37*
G36*
X1890Y-2130D02*
X1400D01*
Y-1600D01*
X1890D01*
Y-2130D01*
D02*
G37*
G36*
X-290Y2290D02*
X-380D01*
Y2450D01*
X-290D01*
Y2290D01*
D02*
G37*
G36*
X-190Y2560D02*
X-300D01*
Y2750D01*
X-190D01*
Y2560D01*
D02*
G37*
G36*
X-275Y805D02*
X-400Y680D01*
X-705D01*
X-450Y935D01*
X-275D01*
Y805D01*
D02*
G37*
G36*
X930Y-60D02*
X780D01*
Y160D01*
X930D01*
Y-60D01*
D02*
G37*
G36*
X640Y670D02*
X435D01*
X270Y835D01*
Y930D01*
X380D01*
X640Y670D01*
D02*
G37*
G36*
X690Y3268D02*
X693Y3268D01*
X697Y3267D01*
X701Y3267D01*
X706Y3266D01*
X711Y3265D01*
X711D01*
X712Y3265D01*
X712Y3265D01*
X713Y3265D01*
X715Y3264D01*
X716Y3264D01*
X718Y3263D01*
X720Y3263D01*
X724Y3261D01*
X729Y3260D01*
X734Y3257D01*
X740Y3255D01*
Y3231D01*
X738D01*
X738Y3231D01*
X737Y3232D01*
X737Y3232D01*
X736Y3233D01*
X734Y3234D01*
X733Y3235D01*
X731Y3236D01*
X729Y3237D01*
X728Y3237D01*
X728Y3238D01*
X727Y3239D01*
X725Y3240D01*
X723Y3241D01*
X721Y3242D01*
X717Y3244D01*
X717Y3244D01*
X716Y3245D01*
X714Y3245D01*
X712Y3246D01*
X710Y3247D01*
X707Y3247D01*
X705Y3248D01*
X701Y3249D01*
X701D01*
X700Y3250D01*
X698Y3250D01*
X695Y3250D01*
X692Y3251D01*
X689Y3251D01*
X685Y3251D01*
X679D01*
X677Y3251D01*
X675Y3251D01*
X673Y3250D01*
X670Y3250D01*
X667Y3249D01*
X664Y3248D01*
X661Y3247D01*
X657Y3246D01*
X654Y3244D01*
X651Y3242D01*
X647Y3240D01*
X645Y3238D01*
X642Y3235D01*
X641Y3235D01*
X641Y3234D01*
X640Y3233D01*
X639Y3232D01*
X638Y3230D01*
X637Y3228D01*
X636Y3226D01*
X634Y3223D01*
X633Y3220D01*
X632Y3217D01*
X630Y3213D01*
X629Y3210D01*
X628Y3205D01*
X628Y3201D01*
X627Y3196D01*
X627Y3191D01*
Y3191D01*
Y3190D01*
X627Y3188D01*
Y3186D01*
X627Y3184D01*
X628Y3181D01*
X628Y3178D01*
X629Y3175D01*
X630Y3171D01*
X631Y3167D01*
X632Y3164D01*
X634Y3160D01*
X635Y3156D01*
X637Y3153D01*
X640Y3149D01*
X642Y3146D01*
X642Y3146D01*
X643Y3145D01*
X644Y3145D01*
X645Y3143D01*
X647Y3142D01*
X648Y3141D01*
X651Y3140D01*
X653Y3138D01*
X656Y3136D01*
X659Y3135D01*
X662Y3134D01*
X666Y3132D01*
X670Y3131D01*
X675Y3131D01*
X679Y3130D01*
X684Y3130D01*
X686D01*
X687Y3130D01*
X690D01*
X693Y3130D01*
X696Y3131D01*
X700Y3131D01*
X703Y3132D01*
X703D01*
X705Y3132D01*
X707Y3133D01*
X709Y3133D01*
X712Y3134D01*
X714Y3135D01*
X717Y3136D01*
X720Y3137D01*
Y3173D01*
X680D01*
Y3191D01*
X740D01*
Y3127D01*
X740D01*
X739Y3127D01*
X738Y3126D01*
X738Y3126D01*
X736Y3125D01*
X735Y3125D01*
X732Y3123D01*
X728Y3122D01*
X723Y3120D01*
X718Y3119D01*
X713Y3117D01*
X713D01*
X712Y3117D01*
X711Y3117D01*
X710Y3116D01*
X709Y3116D01*
X707Y3116D01*
X704Y3115D01*
X700Y3114D01*
X695Y3114D01*
X690Y3113D01*
X685Y3113D01*
X682D01*
X680Y3113D01*
X678D01*
X676Y3113D01*
X674Y3114D01*
X669Y3114D01*
X664Y3115D01*
X658Y3116D01*
X653Y3118D01*
X652D01*
X652Y3118D01*
X651Y3118D01*
X650Y3118D01*
X649Y3119D01*
X647Y3120D01*
X644Y3121D01*
X640Y3123D01*
X636Y3126D01*
X632Y3129D01*
X628Y3132D01*
X628Y3132D01*
X627Y3132D01*
X627Y3133D01*
X626Y3134D01*
X624Y3136D01*
X622Y3139D01*
X620Y3142D01*
X617Y3146D01*
X614Y3151D01*
X612Y3156D01*
Y3157D01*
X612Y3157D01*
X612Y3158D01*
X611Y3159D01*
X611Y3160D01*
X610Y3162D01*
X610Y3164D01*
X609Y3166D01*
X609Y3169D01*
X608Y3171D01*
X607Y3177D01*
X607Y3184D01*
X606Y3191D01*
Y3191D01*
Y3191D01*
Y3192D01*
X607Y3194D01*
X607Y3197D01*
X607Y3200D01*
X607Y3203D01*
X608Y3207D01*
X609Y3211D01*
X610Y3216D01*
X611Y3220D01*
X613Y3225D01*
X615Y3230D01*
X618Y3235D01*
X620Y3239D01*
X624Y3243D01*
X627Y3247D01*
X627Y3248D01*
X628Y3248D01*
X630Y3249D01*
X631Y3251D01*
X633Y3252D01*
X636Y3254D01*
X639Y3256D01*
X642Y3258D01*
X646Y3260D01*
X651Y3262D01*
X655Y3263D01*
X660Y3265D01*
X666Y3266D01*
X672Y3267D01*
X678Y3268D01*
X685Y3268D01*
X688D01*
X690Y3268D01*
D02*
G37*
G36*
X-200Y-2750D02*
X-600D01*
Y-2490D01*
X-200D01*
Y-2750D01*
D02*
G37*
G36*
X-567Y3268D02*
X-563Y3268D01*
X-559Y3267D01*
X-555Y3267D01*
X-550Y3266D01*
X-545Y3265D01*
X-545D01*
X-545Y3265D01*
X-544Y3265D01*
X-543Y3265D01*
X-542Y3264D01*
X-540Y3264D01*
X-539Y3263D01*
X-537Y3263D01*
X-532Y3261D01*
X-528Y3260D01*
X-522Y3257D01*
X-517Y3255D01*
Y3231D01*
X-518D01*
X-519Y3231D01*
X-519Y3232D01*
X-520Y3232D01*
X-521Y3233D01*
X-522Y3234D01*
X-524Y3235D01*
X-525Y3236D01*
X-528Y3237D01*
X-528Y3237D01*
X-529Y3238D01*
X-530Y3239D01*
X-531Y3240D01*
X-533Y3241D01*
X-535Y3242D01*
X-539Y3244D01*
X-539Y3244D01*
X-540Y3245D01*
X-542Y3245D01*
X-544Y3246D01*
X-546Y3247D01*
X-549Y3247D01*
X-552Y3248D01*
X-555Y3249D01*
X-555D01*
X-557Y3250D01*
X-558Y3250D01*
X-561Y3250D01*
X-564Y3251D01*
X-567Y3251D01*
X-571Y3251D01*
X-577D01*
X-579Y3251D01*
X-581Y3251D01*
X-584Y3250D01*
X-586Y3250D01*
X-589Y3249D01*
X-592Y3248D01*
X-596Y3247D01*
X-599Y3246D01*
X-602Y3244D01*
X-605Y3242D01*
X-609Y3240D01*
X-612Y3238D01*
X-615Y3235D01*
X-615Y3235D01*
X-615Y3234D01*
X-616Y3233D01*
X-617Y3232D01*
X-618Y3230D01*
X-619Y3228D01*
X-620Y3226D01*
X-622Y3223D01*
X-623Y3220D01*
X-625Y3217D01*
X-626Y3213D01*
X-627Y3210D01*
X-628Y3205D01*
X-629Y3201D01*
X-629Y3196D01*
X-629Y3191D01*
Y3191D01*
Y3190D01*
X-629Y3188D01*
Y3186D01*
X-629Y3184D01*
X-628Y3181D01*
X-628Y3178D01*
X-627Y3175D01*
X-627Y3171D01*
X-625Y3167D01*
X-624Y3164D01*
X-623Y3160D01*
X-621Y3156D01*
X-619Y3153D01*
X-617Y3149D01*
X-614Y3146D01*
X-614Y3146D01*
X-613Y3145D01*
X-612Y3145D01*
X-611Y3143D01*
X-610Y3142D01*
X-608Y3141D01*
X-606Y3140D01*
X-603Y3138D01*
X-600Y3136D01*
X-597Y3135D01*
X-594Y3134D01*
X-590Y3132D01*
X-586Y3131D01*
X-582Y3131D01*
X-577Y3130D01*
X-572Y3130D01*
X-571D01*
X-569Y3130D01*
X-566D01*
X-563Y3130D01*
X-560Y3131D01*
X-557Y3131D01*
X-553Y3132D01*
X-553D01*
X-552Y3132D01*
X-550Y3133D01*
X-547Y3133D01*
X-545Y3134D01*
X-542Y3135D01*
X-539Y3136D01*
X-536Y3137D01*
Y3173D01*
X-576D01*
Y3191D01*
X-517D01*
Y3127D01*
X-517D01*
X-517Y3127D01*
X-518Y3126D01*
X-519Y3126D01*
X-520Y3125D01*
X-521Y3125D01*
X-524Y3123D01*
X-528Y3122D01*
X-533Y3120D01*
X-538Y3119D01*
X-543Y3117D01*
X-544D01*
X-544Y3117D01*
X-545Y3117D01*
X-546Y3116D01*
X-547Y3116D01*
X-549Y3116D01*
X-552Y3115D01*
X-557Y3114D01*
X-561Y3114D01*
X-567Y3113D01*
X-572Y3113D01*
X-574D01*
X-576Y3113D01*
X-578D01*
X-580Y3113D01*
X-582Y3114D01*
X-587Y3114D01*
X-592Y3115D01*
X-598Y3116D01*
X-604Y3118D01*
X-604D01*
X-604Y3118D01*
X-605Y3118D01*
X-606Y3118D01*
X-607Y3119D01*
X-609Y3120D01*
X-612Y3121D01*
X-616Y3123D01*
X-620Y3126D01*
X-624Y3129D01*
X-628Y3132D01*
X-629Y3132D01*
X-629Y3132D01*
X-629Y3133D01*
X-630Y3134D01*
X-632Y3136D01*
X-634Y3139D01*
X-637Y3142D01*
X-639Y3146D01*
X-642Y3151D01*
X-644Y3156D01*
Y3157D01*
X-644Y3157D01*
X-645Y3158D01*
X-645Y3159D01*
X-645Y3160D01*
X-646Y3162D01*
X-647Y3164D01*
X-647Y3166D01*
X-648Y3169D01*
X-648Y3171D01*
X-649Y3177D01*
X-650Y3184D01*
X-650Y3191D01*
Y3191D01*
Y3191D01*
Y3192D01*
X-650Y3194D01*
X-649Y3197D01*
X-649Y3200D01*
X-649Y3203D01*
X-648Y3207D01*
X-647Y3211D01*
X-646Y3216D01*
X-645Y3220D01*
X-643Y3225D01*
X-641Y3230D01*
X-639Y3235D01*
X-636Y3239D01*
X-633Y3243D01*
X-629Y3247D01*
X-629Y3248D01*
X-628Y3248D01*
X-627Y3249D01*
X-625Y3251D01*
X-623Y3252D01*
X-620Y3254D01*
X-617Y3256D01*
X-614Y3258D01*
X-610Y3260D01*
X-606Y3262D01*
X-601Y3263D01*
X-596Y3265D01*
X-590Y3266D01*
X-584Y3267D01*
X-578Y3268D01*
X-572Y3268D01*
X-568D01*
X-567Y3268D01*
D02*
G37*
G36*
X-673Y3248D02*
X-751D01*
Y3207D01*
X-673D01*
Y3189D01*
X-751D01*
Y3134D01*
X-673D01*
Y3116D01*
X-771D01*
Y3266D01*
X-673D01*
Y3248D01*
D02*
G37*
G36*
X1331Y3268D02*
X1333D01*
X1337Y3268D01*
X1341Y3267D01*
X1346Y3266D01*
X1351Y3265D01*
X1356Y3263D01*
X1356D01*
X1356Y3263D01*
X1357Y3263D01*
X1358Y3262D01*
X1360Y3261D01*
X1363Y3260D01*
X1367Y3257D01*
X1370Y3255D01*
X1374Y3252D01*
X1378Y3248D01*
X1378Y3248D01*
X1378Y3248D01*
X1378Y3247D01*
X1379Y3246D01*
X1381Y3244D01*
X1383Y3241D01*
X1385Y3238D01*
X1387Y3234D01*
X1390Y3229D01*
X1392Y3224D01*
Y3223D01*
X1392Y3223D01*
X1392Y3222D01*
X1392Y3221D01*
X1393Y3220D01*
X1393Y3218D01*
X1394Y3216D01*
X1394Y3214D01*
X1394Y3212D01*
X1395Y3209D01*
X1396Y3203D01*
X1396Y3197D01*
X1397Y3191D01*
Y3190D01*
Y3190D01*
Y3189D01*
Y3187D01*
X1396Y3186D01*
Y3184D01*
X1396Y3182D01*
X1396Y3180D01*
X1395Y3175D01*
X1394Y3169D01*
X1393Y3163D01*
X1392Y3157D01*
Y3157D01*
X1391Y3157D01*
X1391Y3156D01*
X1391Y3155D01*
X1390Y3154D01*
X1389Y3152D01*
X1388Y3149D01*
X1386Y3145D01*
X1384Y3141D01*
X1381Y3137D01*
X1378Y3133D01*
Y3133D01*
X1377Y3133D01*
X1376Y3131D01*
X1374Y3130D01*
X1371Y3127D01*
X1368Y3125D01*
X1364Y3122D01*
X1360Y3120D01*
X1355Y3118D01*
X1355D01*
X1355Y3118D01*
X1354Y3117D01*
X1353Y3117D01*
X1352Y3117D01*
X1351Y3116D01*
X1349Y3116D01*
X1347Y3115D01*
X1343Y3115D01*
X1338Y3114D01*
X1333Y3113D01*
X1327Y3113D01*
X1324D01*
X1323Y3113D01*
X1321D01*
X1317Y3114D01*
X1313Y3114D01*
X1308Y3115D01*
X1303Y3116D01*
X1298Y3118D01*
X1298D01*
X1298Y3118D01*
X1297Y3119D01*
X1296Y3119D01*
X1294Y3120D01*
X1291Y3122D01*
X1287Y3124D01*
X1284Y3127D01*
X1280Y3130D01*
X1276Y3133D01*
Y3133D01*
X1276Y3133D01*
X1275Y3134D01*
X1275Y3135D01*
X1273Y3137D01*
X1271Y3140D01*
X1269Y3143D01*
X1267Y3148D01*
X1264Y3152D01*
X1262Y3157D01*
Y3158D01*
X1262Y3158D01*
X1262Y3159D01*
X1262Y3160D01*
X1261Y3161D01*
X1261Y3163D01*
X1260Y3165D01*
X1260Y3167D01*
X1259Y3169D01*
X1259Y3172D01*
X1258Y3178D01*
X1258Y3184D01*
X1258Y3191D01*
Y3191D01*
Y3191D01*
Y3192D01*
Y3194D01*
X1258Y3195D01*
Y3197D01*
X1258Y3199D01*
X1258Y3202D01*
X1259Y3207D01*
X1260Y3212D01*
X1261Y3218D01*
X1262Y3223D01*
Y3223D01*
X1263Y3224D01*
X1263Y3225D01*
X1263Y3226D01*
X1264Y3227D01*
X1264Y3228D01*
X1266Y3232D01*
X1268Y3236D01*
X1270Y3240D01*
X1273Y3244D01*
X1276Y3248D01*
X1277Y3248D01*
X1277Y3249D01*
X1278Y3250D01*
X1280Y3252D01*
X1282Y3254D01*
X1286Y3256D01*
X1289Y3259D01*
X1294Y3261D01*
X1298Y3263D01*
X1298D01*
X1299Y3263D01*
X1299Y3264D01*
X1300Y3264D01*
X1302Y3265D01*
X1303Y3265D01*
X1305Y3266D01*
X1307Y3266D01*
X1311Y3267D01*
X1316Y3268D01*
X1321Y3268D01*
X1327Y3269D01*
X1330D01*
X1331Y3268D01*
D02*
G37*
G36*
X-1300Y-2600D02*
X-1700D01*
Y-2200D01*
X-1300Y-2600D01*
D02*
G37*
G36*
X-800D02*
X-1140D01*
X-2000Y-1740D01*
Y-1400D01*
X-800Y-2600D01*
D02*
G37*
G36*
X-1800Y-2100D02*
Y-2600D01*
X-2000D01*
Y-1900D01*
X-1800Y-2100D01*
D02*
G37*
G36*
X-2500Y-2600D02*
X-2750D01*
Y-1500D01*
X-2500D01*
Y-2600D01*
D02*
G37*
G36*
X-2100D02*
X-2400D01*
Y-1500D01*
X-2100D01*
Y-2600D01*
D02*
G37*
%LPC*%
G36*
X1185Y3248D02*
X1162D01*
Y3189D01*
X1181D01*
X1183Y3189D01*
X1186D01*
X1189Y3189D01*
X1192Y3190D01*
X1195Y3190D01*
X1198Y3191D01*
X1199Y3191D01*
X1199Y3191D01*
X1201Y3192D01*
X1203Y3193D01*
X1205Y3193D01*
X1207Y3195D01*
X1209Y3196D01*
X1211Y3198D01*
X1211Y3198D01*
X1212Y3199D01*
X1212Y3200D01*
X1213Y3201D01*
X1214Y3202D01*
X1215Y3204D01*
X1217Y3206D01*
X1217Y3208D01*
Y3208D01*
X1218Y3209D01*
X1218Y3210D01*
X1218Y3211D01*
X1219Y3213D01*
X1219Y3215D01*
X1219Y3217D01*
Y3220D01*
Y3220D01*
Y3221D01*
X1219Y3223D01*
X1219Y3225D01*
X1219Y3227D01*
X1218Y3229D01*
X1218Y3231D01*
X1217Y3233D01*
X1216Y3233D01*
X1216Y3234D01*
X1215Y3235D01*
X1214Y3237D01*
X1213Y3238D01*
X1212Y3240D01*
X1210Y3241D01*
X1208Y3243D01*
X1208Y3243D01*
X1208Y3243D01*
X1207Y3244D01*
X1205Y3244D01*
X1203Y3245D01*
X1202Y3246D01*
X1197Y3247D01*
X1197D01*
X1196Y3247D01*
X1195Y3247D01*
X1193Y3248D01*
X1191Y3248D01*
X1188Y3248D01*
X1185Y3248D01*
D02*
G37*
G36*
X2019D02*
X1996D01*
Y3189D01*
X2015D01*
X2017Y3189D01*
X2020D01*
X2023Y3189D01*
X2026Y3190D01*
X2030Y3190D01*
X2032Y3191D01*
X2033Y3191D01*
X2034Y3191D01*
X2035Y3192D01*
X2037Y3193D01*
X2039Y3193D01*
X2041Y3195D01*
X2043Y3196D01*
X2045Y3198D01*
X2045Y3198D01*
X2046Y3199D01*
X2047Y3200D01*
X2048Y3201D01*
X2049Y3202D01*
X2050Y3204D01*
X2051Y3206D01*
X2052Y3208D01*
Y3208D01*
X2052Y3209D01*
X2052Y3210D01*
X2053Y3211D01*
X2053Y3213D01*
X2053Y3215D01*
X2054Y3217D01*
Y3220D01*
Y3220D01*
Y3221D01*
X2053Y3223D01*
X2053Y3225D01*
X2053Y3227D01*
X2052Y3229D01*
X2052Y3231D01*
X2051Y3233D01*
X2051Y3233D01*
X2050Y3234D01*
X2050Y3235D01*
X2049Y3237D01*
X2048Y3238D01*
X2046Y3240D01*
X2045Y3241D01*
X2043Y3243D01*
X2042Y3243D01*
X2042Y3243D01*
X2041Y3244D01*
X2039Y3244D01*
X2038Y3245D01*
X2036Y3246D01*
X2031Y3247D01*
X2031D01*
X2030Y3247D01*
X2029Y3247D01*
X2027Y3248D01*
X2025Y3248D01*
X2022Y3248D01*
X2019Y3248D01*
D02*
G37*
G36*
X1807D02*
X1781D01*
Y3192D01*
X1804D01*
X1807Y3192D01*
X1809Y3192D01*
X1812Y3193D01*
X1815Y3193D01*
X1817Y3193D01*
X1818D01*
X1819Y3194D01*
X1820Y3194D01*
X1822Y3195D01*
X1824Y3196D01*
X1826Y3197D01*
X1828Y3198D01*
X1830Y3200D01*
X1830Y3200D01*
X1830Y3201D01*
X1831Y3201D01*
X1832Y3202D01*
X1833Y3204D01*
X1834Y3206D01*
X1835Y3207D01*
X1836Y3209D01*
X1836Y3210D01*
X1837Y3210D01*
X1837Y3212D01*
X1837Y3213D01*
X1838Y3215D01*
X1838Y3218D01*
X1839Y3220D01*
Y3223D01*
Y3223D01*
Y3224D01*
X1838Y3226D01*
Y3227D01*
X1838Y3229D01*
X1837Y3231D01*
X1837Y3233D01*
X1836Y3235D01*
Y3235D01*
X1836Y3236D01*
X1835Y3236D01*
X1834Y3238D01*
X1833Y3239D01*
X1832Y3240D01*
X1831Y3242D01*
X1829Y3243D01*
X1829Y3243D01*
X1828Y3243D01*
X1827Y3244D01*
X1826Y3245D01*
X1824Y3245D01*
X1822Y3246D01*
X1821Y3247D01*
X1818Y3247D01*
X1818D01*
X1817Y3247D01*
X1816Y3248D01*
X1814Y3248D01*
X1812Y3248D01*
X1810Y3248D01*
X1807Y3248D01*
D02*
G37*
G36*
X2264Y3248D02*
X2238Y3175D01*
X2291D01*
X2264Y3248D01*
D02*
G37*
G36*
X1327Y3252D02*
X1325D01*
X1323Y3251D01*
X1321Y3251D01*
X1319Y3251D01*
X1317Y3250D01*
X1314Y3250D01*
X1311Y3249D01*
X1308Y3248D01*
X1305Y3246D01*
X1302Y3245D01*
X1299Y3243D01*
X1297Y3241D01*
X1294Y3238D01*
X1291Y3236D01*
X1291Y3235D01*
X1290Y3235D01*
X1290Y3234D01*
X1289Y3233D01*
X1288Y3231D01*
X1287Y3229D01*
X1286Y3227D01*
X1285Y3224D01*
X1283Y3221D01*
X1282Y3218D01*
X1281Y3214D01*
X1280Y3210D01*
X1279Y3206D01*
X1279Y3201D01*
X1278Y3196D01*
X1278Y3191D01*
Y3190D01*
Y3189D01*
Y3188D01*
X1278Y3186D01*
X1279Y3183D01*
X1279Y3180D01*
X1279Y3177D01*
X1280Y3174D01*
X1281Y3167D01*
X1283Y3163D01*
X1284Y3159D01*
X1285Y3156D01*
X1287Y3152D01*
X1289Y3149D01*
X1291Y3146D01*
X1292Y3145D01*
X1292Y3145D01*
X1293Y3144D01*
X1294Y3143D01*
X1295Y3142D01*
X1297Y3141D01*
X1299Y3139D01*
X1301Y3138D01*
X1303Y3136D01*
X1306Y3135D01*
X1309Y3133D01*
X1312Y3132D01*
X1315Y3131D01*
X1319Y3131D01*
X1323Y3130D01*
X1327Y3130D01*
X1328D01*
X1329Y3130D01*
X1331D01*
X1333Y3130D01*
X1335Y3131D01*
X1337Y3131D01*
X1340Y3132D01*
X1343Y3133D01*
X1345Y3134D01*
X1348Y3135D01*
X1351Y3137D01*
X1354Y3138D01*
X1357Y3140D01*
X1360Y3143D01*
X1363Y3146D01*
X1363Y3146D01*
X1363Y3146D01*
X1364Y3147D01*
X1365Y3148D01*
X1366Y3150D01*
X1367Y3152D01*
X1368Y3154D01*
X1369Y3157D01*
X1370Y3160D01*
X1372Y3163D01*
X1373Y3167D01*
X1374Y3171D01*
X1375Y3176D01*
X1375Y3180D01*
X1376Y3185D01*
X1376Y3191D01*
Y3191D01*
Y3192D01*
Y3193D01*
X1376Y3195D01*
X1375Y3198D01*
X1375Y3201D01*
X1375Y3204D01*
X1374Y3207D01*
X1373Y3214D01*
X1372Y3218D01*
X1370Y3222D01*
X1369Y3226D01*
X1367Y3229D01*
X1365Y3232D01*
X1363Y3236D01*
X1363Y3236D01*
X1362Y3236D01*
X1361Y3237D01*
X1360Y3238D01*
X1359Y3239D01*
X1357Y3241D01*
X1355Y3242D01*
X1353Y3244D01*
X1351Y3245D01*
X1348Y3247D01*
X1345Y3248D01*
X1342Y3249D01*
X1339Y3250D01*
X1335Y3251D01*
X1331Y3251D01*
X1327Y3252D01*
D02*
G37*
G36*
X-432Y3248D02*
X-458Y3175D01*
X-406D01*
X-432Y3248D01*
D02*
G37*
G36*
X524D02*
X498Y3175D01*
X550D01*
X524Y3248D01*
D02*
G37*
%LPD*%
D52*
X-1670Y1073D02*
G03*
X-472Y1938I1685J-1073D01*
G01*
X-1900Y1301D02*
X-1675Y1076D01*
X-635Y2100D02*
X-475Y1940D01*
X-635Y2100D02*
Y2520D01*
X-2235Y2520D02*
Y2750D01*
Y2520D02*
X-635D01*
X-2749Y1301D02*
X-1900D01*
D58*
X-2100Y-2600D02*
Y-1500D01*
X-2400Y-2600D02*
X-2100D01*
X-2400D02*
Y-1500D01*
X-2100D01*
X-2000Y-1900D02*
X-1800Y-2100D01*
Y-2600D02*
Y-2100D01*
X-2000Y-2600D02*
X-1800D01*
X-2000D02*
Y-1900D01*
X-1700Y-2200D02*
X-1300Y-2600D01*
X-1700D02*
X-1300D01*
X-1700D02*
Y-2200D01*
X-2000Y-1400D02*
X-800Y-2600D01*
X-1140D02*
X-800D01*
X-2000Y-1740D02*
X-1140Y-2600D01*
X-2000Y-1740D02*
Y-1400D01*
X130Y-2400D02*
Y-2200D01*
X-900Y-2400D02*
X130D01*
X-900D02*
Y-2200D01*
X130D01*
X1890Y-2130D02*
Y-1600D01*
X1400Y-2130D02*
X1890D01*
X1400D02*
Y-1600D01*
X1890D01*
X-505Y-600D02*
X-350Y-755D01*
X-270D01*
Y-950D02*
Y-755D01*
X-430Y-950D02*
X-270D01*
X-550Y-830D02*
X-430Y-950D01*
X-550Y-830D02*
Y-600D01*
X-505D01*
X545Y-595D02*
X610Y-660D01*
Y-780D02*
Y-660D01*
X530Y-860D02*
X610Y-780D01*
X280Y-860D02*
X530D01*
X280D02*
Y-730D01*
X410D01*
X545Y-595D01*
X0Y721D02*
X51Y719D01*
X103Y714D01*
X153Y705D01*
X203Y692D01*
X252Y676D01*
X300Y656D01*
X346Y633D01*
X390Y607D01*
X432Y577D01*
X472Y545D01*
X510Y510D01*
X545Y472D01*
X577Y432D01*
X607Y390D01*
X633Y346D01*
X656Y300D01*
X676Y252D01*
X692Y203D01*
X705Y153D01*
X714Y103D01*
X719Y51D01*
X721Y0D01*
X719Y-51D02*
X721Y0D01*
X714Y-103D02*
X719Y-51D01*
X705Y-153D02*
X714Y-103D01*
X692Y-203D02*
X705Y-153D01*
X676Y-252D02*
X692Y-203D01*
X656Y-300D02*
X676Y-252D01*
X633Y-346D02*
X656Y-300D01*
X607Y-390D02*
X633Y-346D01*
X577Y-432D02*
X607Y-390D01*
X545Y-472D02*
X577Y-432D01*
X510Y-510D02*
X545Y-472D01*
X472Y-545D02*
X510Y-510D01*
X432Y-577D02*
X472Y-545D01*
X390Y-607D02*
X432Y-577D01*
X346Y-633D02*
X390Y-607D01*
X300Y-656D02*
X346Y-633D01*
X252Y-676D02*
X300Y-656D01*
X203Y-692D02*
X252Y-676D01*
X153Y-705D02*
X203Y-692D01*
X103Y-714D02*
X153Y-705D01*
X51Y-719D02*
X103Y-714D01*
X0Y-721D02*
X51Y-719D01*
X-51D02*
X0Y-721D01*
X-103Y-714D02*
X-51Y-719D01*
X-153Y-705D02*
X-103Y-714D01*
X-203Y-692D02*
X-153Y-705D01*
X-252Y-676D02*
X-203Y-692D01*
X-300Y-656D02*
X-252Y-676D01*
X-346Y-633D02*
X-300Y-656D01*
X-390Y-607D02*
X-346Y-633D01*
X-432Y-577D02*
X-390Y-607D01*
X-472Y-545D02*
X-432Y-577D01*
X-510Y-510D02*
X-472Y-545D01*
X-545Y-472D02*
X-510Y-510D01*
X-577Y-432D02*
X-545Y-472D01*
X-607Y-390D02*
X-577Y-432D01*
X-633Y-346D02*
X-607Y-390D01*
X-656Y-300D02*
X-633Y-346D01*
X-676Y-252D02*
X-656Y-300D01*
X-692Y-203D02*
X-676Y-252D01*
X-705Y-153D02*
X-692Y-203D01*
X-714Y-103D02*
X-705Y-153D01*
X-719Y-51D02*
X-714Y-103D01*
X-721Y0D02*
X-719Y-51D01*
X-721Y0D02*
X-719Y51D01*
X-714Y103D01*
X-705Y153D01*
X-692Y203D01*
X-676Y252D01*
X-656Y300D01*
X-633Y346D01*
X-607Y390D01*
X-577Y432D01*
X-545Y472D01*
X-510Y510D01*
X-472Y545D01*
X-432Y577D01*
X-390Y607D01*
X-346Y633D01*
X-300Y656D01*
X-252Y676D01*
X-203Y692D01*
X-153Y705D01*
X-103Y714D01*
X-51Y719D01*
X0Y721D01*
X930Y-60D02*
Y160D01*
X780Y-60D02*
X930D01*
X780D02*
Y160D01*
X930D01*
X380Y930D02*
X640Y670D01*
X435D02*
X640D01*
X270Y835D02*
X435Y670D01*
X270Y835D02*
Y930D01*
X380D01*
X-275Y805D02*
Y935D01*
X-400Y680D02*
X-275Y805D01*
X-705Y680D02*
X-400D01*
X-705D02*
X-450Y935D01*
X-275D01*
X-290Y2290D02*
Y2450D01*
X-380Y2290D02*
X-290D01*
X-380D02*
Y2450D01*
X-290D01*
X2460Y2750D02*
X2750Y2460D01*
X-190Y2750D02*
X2460D01*
X-190Y2560D02*
Y2750D01*
X-300Y2560D02*
X-190D01*
X-300D02*
Y2750D01*
X-2485D02*
X-300D01*
X-2750Y2485D02*
X-2485Y2750D01*
X-2750Y-1500D02*
Y2485D01*
Y-1500D02*
X-2500D01*
Y-2600D02*
Y-1500D01*
X-2750Y-2600D02*
X-2500D01*
X-2750Y-2750D02*
Y-2600D01*
Y-2750D02*
X-600D01*
Y-2490D01*
X-200D01*
Y-2750D02*
Y-2490D01*
Y-2750D02*
X2600D01*
X2750Y-2600D01*
Y2460D01*
D75*
X1650Y1500D02*
Y1800D01*
X1460D02*
X1650D01*
X1460Y1900D02*
X1650D01*
Y2300D01*
X2450D01*
Y1500D02*
Y2300D01*
X1650Y1500D02*
X2450D01*
D76*
X2040Y-860D02*
D03*
Y-960D02*
D03*
Y-1220D02*
D03*
Y-1120D02*
D03*
D77*
X1400Y2565D02*
D03*
X1600D02*
D03*
X1800D02*
D03*
X2000D02*
D03*
X2400D02*
D03*
D78*
X347Y-2331D02*
D03*
Y-2429D02*
D03*
X473Y-2331D02*
D03*
Y-2429D02*
D03*
D79*
X367Y-2143D02*
D03*
Y-2617D02*
D03*
D80*
X-1156Y2003D02*
D03*
X700Y2310D02*
D03*
X-1560Y2620D02*
D03*
X1950Y1500D02*
D03*
X-1040Y-970D02*
D03*
X-670Y-1300D02*
D03*
X-830Y-1150D02*
D03*
X1500Y1580D02*
D03*
X1950Y1260D02*
D03*
X2400Y1610D02*
D03*
X-2312Y0D02*
D03*
X-1156Y-2003D02*
D03*
X1156D02*
D03*
X2312Y0D02*
D03*
X1156Y2003D02*
D03*
D81*
X-1189Y2549D02*
D03*
X-2549Y-1189D02*
D03*
X1189Y-2549D02*
D03*
X2549Y1189D02*
D03*
D82*
X670Y547D02*
D03*
X-2660Y1340D02*
D03*
X-2480Y390D02*
D03*
X-148Y-850D02*
D03*
X-815Y-291D02*
D03*
X-670Y547D02*
D03*
X-148Y850D02*
D03*
X148Y-850D02*
D03*
X-670Y-547D02*
D03*
X-815Y291D02*
D03*
X148Y850D02*
D03*
X815Y291D02*
D03*
Y-291D02*
D03*
X670Y-548D02*
D03*
X2000Y-1900D02*
D03*
X-380Y2180D02*
D03*
X-950Y2280D02*
D03*
X-870Y1080D02*
D03*
X1420Y0D02*
D03*
X840Y-1090D02*
D03*
X-490Y-1400D02*
D03*
X-320Y-1440D02*
D03*
X-160D02*
D03*
X0D02*
D03*
X160D02*
D03*
X330D02*
D03*
X500Y-1330D02*
D03*
X680Y-1250D02*
D03*
X-1330Y-700D02*
D03*
X-840Y570D02*
D03*
X-780Y710D02*
D03*
X2330Y220D02*
D03*
X1480Y-360D02*
D03*
X1070Y1140D02*
D03*
X500Y1330D02*
D03*
X-990Y-250D02*
D03*
X-750Y1220D02*
D03*
X-160Y1420D02*
D03*
X160D02*
D03*
X0D02*
D03*
X-2120Y2600D02*
D03*
D83*
X0Y-2600D02*
D03*
X800D02*
D03*
X1540D02*
D03*
X1800D02*
D03*
X2040Y-1650D02*
D03*
X830Y2510D02*
D03*
X-2200Y-1090D02*
D03*
Y-790D02*
D03*
X-2500D02*
D03*
Y-490D02*
D03*
D84*
X630Y2000D02*
D03*
X930Y2150D02*
D03*
X820D02*
D03*
X1670Y1860D02*
D03*
X1730Y1940D02*
D03*
X830Y-90D02*
D03*
X790Y800D02*
D03*
Y640D02*
D03*
X830Y800D02*
D03*
Y640D02*
D03*
X870D02*
D03*
Y800D02*
D03*
X2190Y1720D02*
D03*
X1230Y2590D02*
D03*
X2680Y2310D02*
D03*
X2045Y430D02*
D03*
X1933Y798D02*
D03*
X2250Y-250D02*
D03*
X2010Y1980D02*
D03*
X1860Y1830D02*
D03*
X1740Y1700D02*
D03*
X1990Y1910D02*
D03*
X2000Y1720D02*
D03*
X1740Y1740D02*
D03*
X1695Y2370D02*
D03*
X1940Y1700D02*
D03*
X1740Y2370D02*
D03*
X1850Y1900D02*
D03*
X-2700Y800D02*
D03*
X2400Y-2515D02*
D03*
X2366Y-2194D02*
D03*
X2410Y-2160D02*
D03*
X2567Y1702D02*
D03*
X-2165Y1325D02*
D03*
X-2240D02*
D03*
X-2310D02*
D03*
X-2484Y1326D02*
D03*
X-2670Y1030D02*
D03*
X-2075Y1510D02*
D03*
X494Y2221D02*
D03*
X-2380Y1655D02*
D03*
X-2427Y1383D02*
D03*
X-2540Y1270D02*
D03*
X-2255Y2100D02*
D03*
X-2315Y2160D02*
D03*
X-2465D02*
D03*
X-2525Y2100D02*
D03*
X-930Y2630D02*
D03*
X-365Y2645D02*
D03*
X-246Y2437D02*
D03*
X2410Y-720D02*
D03*
X2150Y-2600D02*
D03*
X2610Y-1670D02*
D03*
Y830D02*
D03*
Y-240D02*
D03*
Y-980D02*
D03*
X2590Y-920D02*
D03*
X2580Y-130D02*
D03*
X2373Y-1517D02*
D03*
X2250Y-1670D02*
D03*
X2273Y833D02*
D03*
X2250Y-980D02*
D03*
X2320Y-2005D02*
D03*
X2350Y-2055D02*
D03*
Y-1365D02*
D03*
X2320Y-1315D02*
D03*
Y-575D02*
D03*
X2350Y-625D02*
D03*
X2320Y495D02*
D03*
X2350Y445D02*
D03*
X2090Y1750D02*
D03*
X2110Y1270D02*
D03*
X2210Y1550D02*
D03*
X-503Y2123D02*
D03*
X2130Y1200D02*
D03*
X2260Y1910D02*
D03*
X2567Y2007D02*
D03*
X2250Y1120D02*
D03*
X2280Y1100D02*
D03*
X2160Y1970D02*
D03*
X2600Y2180D02*
D03*
X2140Y970D02*
D03*
X2660Y2130D02*
D03*
Y2220D02*
D03*
X2537Y-1573D02*
D03*
X2547Y940D02*
D03*
X2610D02*
D03*
X2220Y1747D02*
D03*
X2150Y1140D02*
D03*
X2130Y1100D02*
D03*
X2050Y2090D02*
D03*
X1500Y2020D02*
D03*
X1533Y1987D02*
D03*
X1820Y2370D02*
D03*
X1780D02*
D03*
X2181Y881D02*
D03*
X2120Y-2240D02*
D03*
Y-2430D02*
D03*
Y-2620D02*
D03*
X1830Y-1443D02*
D03*
X-2230Y550D02*
D03*
X-2420Y530D02*
D03*
X-2200Y430D02*
D03*
X-2420Y450D02*
D03*
X-1170Y200D02*
D03*
X-1070Y-330D02*
D03*
X80Y1370D02*
D03*
X-80Y1350D02*
D03*
X-240Y1330D02*
D03*
X-400Y1280D02*
D03*
X-550Y1210D02*
D03*
X-690Y1130D02*
D03*
X-980Y950D02*
D03*
X-1040Y820D02*
D03*
X-1140Y690D02*
D03*
X-1220Y550D02*
D03*
X-1279Y399D02*
D03*
X-1300Y330D02*
D03*
X-1290Y200D02*
D03*
X-1280Y-30D02*
D03*
X-1310Y-350D02*
D03*
X-1280Y-430D02*
D03*
X-1220Y-550D02*
D03*
X-1150Y-690D02*
D03*
X-1040Y-820D02*
D03*
X-910Y-1000D02*
D03*
X-690Y-1160D02*
D03*
X-550Y-1240D02*
D03*
X-400Y-1290D02*
D03*
X-240Y-1330D02*
D03*
X-80Y-1340D02*
D03*
X80D02*
D03*
X240Y-1330D02*
D03*
X400Y-1290D02*
D03*
X560Y-1230D02*
D03*
X690Y-1150D02*
D03*
X910Y-1020D02*
D03*
X1240Y-550D02*
D03*
X1290Y-400D02*
D03*
X1350Y-80D02*
D03*
X1330Y-240D02*
D03*
X1360Y80D02*
D03*
X1290Y400D02*
D03*
X1330Y240D02*
D03*
X1230Y550D02*
D03*
X1150Y740D02*
D03*
X550Y1220D02*
D03*
X400Y1280D02*
D03*
X240Y1330D02*
D03*
X-1170Y460D02*
D03*
X-1020Y640D02*
D03*
X-810Y890D02*
D03*
X-610Y1050D02*
D03*
X-300Y1150D02*
D03*
X20D02*
D03*
X340D02*
D03*
X930Y830D02*
D03*
X1070Y610D02*
D03*
X1170Y300D02*
D03*
Y-10D02*
D03*
Y-340D02*
D03*
X1020Y-630D02*
D03*
X770Y-990D02*
D03*
X490Y-1140D02*
D03*
X180D02*
D03*
X-150D02*
D03*
X-350D02*
D03*
X-750Y-1020D02*
D03*
X-920Y-780D02*
D03*
X-1110Y-600D02*
D03*
X1690Y1790D02*
D03*
X1630Y1250D02*
D03*
X1700Y1760D02*
D03*
X2260Y1750D02*
D03*
X1690Y1390D02*
D03*
X2370Y1760D02*
D03*
X1690Y1350D02*
D03*
X1360Y1650D02*
D03*
X1580Y1350D02*
D03*
X1660Y1300D02*
D03*
X1420Y2110D02*
D03*
Y2180D02*
D03*
X660Y1190D02*
D03*
X760Y1160D02*
D03*
X610Y1010D02*
D03*
X1030Y-760D02*
D03*
X940Y-870D02*
D03*
X1120Y-830D02*
D03*
X1140Y-690D02*
D03*
X990Y2210D02*
D03*
X-490Y1540D02*
D03*
X-690Y1510D02*
D03*
X-2220Y230D02*
D03*
X640Y2060D02*
D03*
X1530Y1750D02*
D03*
X1740Y1610D02*
D03*
X1915Y1720D02*
D03*
X777Y2210D02*
D03*
X1110Y910D02*
D03*
X1400Y530D02*
D03*
Y560D02*
D03*
Y590D02*
D03*
Y620D02*
D03*
X1890Y1910D02*
D03*
X1720Y1210D02*
D03*
Y2050D02*
D03*
X1600Y1310D02*
D03*
X-590Y1380D02*
D03*
X840Y1220D02*
D03*
X990Y1000D02*
D03*
X-220Y1530D02*
D03*
X140Y1540D02*
D03*
X500Y1450D02*
D03*
X750Y1290D02*
D03*
X1180Y990D02*
D03*
X-1010Y1210D02*
D03*
X-1185Y860D02*
D03*
X-1370Y480D02*
D03*
Y250D02*
D03*
X-1500Y-90D02*
D03*
X-1440D02*
D03*
X-1520Y-400D02*
D03*
Y-660D02*
D03*
X-1260Y-930D02*
D03*
X-940Y-1250D02*
D03*
X-640Y-1540D02*
D03*
X-190Y-1570D02*
D03*
X220D02*
D03*
X618Y-1479D02*
D03*
X900Y-1190D02*
D03*
X1300Y-950D02*
D03*
X1100Y-990D02*
D03*
X1230Y-800D02*
D03*
X1440Y-570D02*
D03*
Y-160D02*
D03*
X1470Y110D02*
D03*
X1310Y570D02*
D03*
X1620Y-1440D02*
D03*
X1470Y-1500D02*
D03*
X1977Y-673D02*
D03*
X1540Y2240D02*
D03*
X1100Y-120D02*
D03*
X1360Y-190D02*
D03*
X1550Y-210D02*
D03*
X-1310Y990D02*
D03*
X630Y2530D02*
D03*
X550Y2570D02*
D03*
X630Y2670D02*
D03*
X590Y2380D02*
D03*
X620Y2720D02*
D03*
X2134Y2224D02*
D03*
X1220Y2470D02*
D03*
X2663Y-2222D02*
D03*
D85*
X865Y1220D02*
D03*
X815D02*
D03*
X840Y1195D02*
D03*
Y1245D02*
D03*
X-1465Y-90D02*
D03*
X-1415D02*
D03*
X-1440Y-115D02*
D03*
Y-65D02*
D03*
X1125Y-990D02*
D03*
X1075D02*
D03*
X1100Y-1015D02*
D03*
Y-965D02*
D03*
X1230Y-825D02*
D03*
X1255Y-800D02*
D03*
X1230Y-775D02*
D03*
X1205Y-800D02*
D03*
X960Y1000D02*
D03*
X1020D02*
D03*
X990Y970D02*
D03*
Y1030D02*
D03*
X-1450Y1850D02*
D03*
Y1820D02*
D03*
Y1790D02*
D03*
Y1760D02*
D03*
Y1730D02*
D03*
Y1700D02*
D03*
Y1670D02*
D03*
Y1640D02*
D03*
Y1610D02*
D03*
Y1580D02*
D03*
X1700Y2650D02*
D03*
X1290Y2270D02*
D03*
X2420Y340D02*
D03*
X-530Y1540D02*
D03*
X-660Y1510D02*
D03*
X-630D02*
D03*
X-1520Y-440D02*
D03*
X-1540Y-420D02*
D03*
X-1500D02*
D03*
X1320Y-860D02*
D03*
X2040Y670D02*
D03*
Y640D02*
D03*
Y610D02*
D03*
Y580D02*
D03*
Y550D02*
D03*
Y520D02*
D03*
Y300D02*
D03*
Y270D02*
D03*
Y240D02*
D03*
Y210D02*
D03*
Y180D02*
D03*
X190Y2090D02*
D03*
X-1550Y430D02*
D03*
Y290D02*
D03*
Y250D02*
D03*
Y140D02*
D03*
X-1590Y120D02*
D03*
X-1630D02*
D03*
X-1670D02*
D03*
X-1550Y580D02*
D03*
X-1340Y930D02*
D03*
X-1310D02*
D03*
X-1340Y960D02*
D03*
X-1310D02*
D03*
X-1340Y990D02*
D03*
D86*
X2390Y-2352D02*
D03*
X2355Y-2316D02*
D03*
X2425D02*
D03*
X2424Y-2385D02*
D03*
X2354D02*
D03*
M02*
