%FSLAX23Y23*%
%MOIN*%
G70*
G01*
G75*
G04 Layer_Color=16711935*
%ADD10C,0.150*%
%ADD11R,0.050X0.055*%
%ADD12R,0.410X0.425*%
%ADD13R,0.085X0.036*%
%ADD14R,0.100X0.100*%
%ADD15R,0.041X0.010*%
%ADD16R,0.010X0.041*%
%ADD17R,0.118X0.118*%
%ADD18R,0.022X0.057*%
%ADD19R,0.022X0.057*%
%ADD20R,0.087X0.024*%
%ADD21R,0.087X0.024*%
%ADD22R,0.063X0.012*%
%ADD23R,0.012X0.063*%
%ADD24R,0.217X0.079*%
%ADD25R,0.037X0.035*%
%ADD26R,0.037X0.035*%
%ADD27R,0.012X0.063*%
%ADD28R,0.050X0.110*%
%ADD29R,0.102X0.094*%
%ADD30R,0.217X0.280*%
%ADD31R,0.039X0.063*%
%ADD32R,0.089X0.024*%
%ADD33R,0.035X0.049*%
%ADD34R,0.065X0.055*%
%ADD35R,0.024X0.087*%
%ADD36R,0.024X0.087*%
%ADD37R,0.100X0.100*%
%ADD38R,0.059X0.051*%
%ADD39R,0.110X0.115*%
%ADD40R,0.079X0.126*%
%ADD41R,0.079X0.126*%
%ADD42R,0.140X0.060*%
%ADD43R,0.330X0.420*%
%ADD44R,0.081X0.024*%
%ADD45R,0.049X0.035*%
%ADD46R,0.055X0.050*%
%ADD47R,0.055X0.065*%
%ADD48C,0.050*%
%ADD49R,0.160X0.080*%
%ADD50R,0.450X0.450*%
%ADD51C,0.035*%
%ADD52C,0.020*%
%ADD53C,0.010*%
%ADD54C,0.100*%
%ADD55C,0.075*%
%ADD56C,0.050*%
%ADD57C,0.025*%
%ADD58C,0.040*%
%ADD59C,0.030*%
%ADD60C,0.015*%
%ADD61C,0.070*%
%ADD62C,0.100*%
%ADD63C,0.065*%
%ADD64R,0.065X0.065*%
%ADD65C,0.150*%
%ADD66C,0.169*%
%ADD67C,0.390*%
%ADD68C,0.200*%
%ADD69C,0.150*%
%ADD70C,0.250*%
%ADD71C,0.125*%
%ADD72C,0.024*%
%ADD73C,0.025*%
%ADD74C,0.040*%
%ADD75C,0.008*%
%ADD76C,0.085*%
%ADD77C,0.102*%
%ADD78C,0.080*%
%ADD79C,0.131*%
%ADD80C,0.209*%
%ADD81C,0.430*%
%ADD82C,0.165*%
%ADD83C,0.290*%
%ADD84C,0.052*%
%ADD85C,0.055*%
%ADD86C,0.064*%
G04:AMPARAMS|DCode=87|XSize=43mil|YSize=59mil|CornerRadius=0mil|HoleSize=0mil|Usage=FLASHONLY|Rotation=240.000|XOffset=0mil|YOffset=0mil|HoleType=Round|Shape=Rectangle|*
%AMROTATEDRECTD87*
4,1,4,-0.015,0.034,0.036,0.004,0.015,-0.034,-0.036,-0.004,-0.015,0.034,0.0*
%
%ADD87ROTATEDRECTD87*%

G04:AMPARAMS|DCode=88|XSize=43mil|YSize=59mil|CornerRadius=0mil|HoleSize=0mil|Usage=FLASHONLY|Rotation=255.000|XOffset=0mil|YOffset=0mil|HoleType=Round|Shape=Rectangle|*
%AMROTATEDRECTD88*
4,1,4,-0.023,0.029,0.034,0.013,0.023,-0.029,-0.034,-0.013,-0.023,0.029,0.0*
%
%ADD88ROTATEDRECTD88*%

G04:AMPARAMS|DCode=89|XSize=43mil|YSize=59mil|CornerRadius=0mil|HoleSize=0mil|Usage=FLASHONLY|Rotation=210.000|XOffset=0mil|YOffset=0mil|HoleType=Round|Shape=Rectangle|*
%AMROTATEDRECTD89*
4,1,4,0.004,0.036,0.034,-0.015,-0.004,-0.036,-0.034,0.015,0.004,0.036,0.0*
%
%ADD89ROTATEDRECTD89*%

G04:AMPARAMS|DCode=90|XSize=43mil|YSize=59mil|CornerRadius=0mil|HoleSize=0mil|Usage=FLASHONLY|Rotation=225.000|XOffset=0mil|YOffset=0mil|HoleType=Round|Shape=Rectangle|*
%AMROTATEDRECTD90*
4,1,4,-0.006,0.036,0.036,-0.006,0.006,-0.036,-0.036,0.006,-0.006,0.036,0.0*
%
%ADD90ROTATEDRECTD90*%

%ADD91R,0.043X0.059*%
G04:AMPARAMS|DCode=92|XSize=43mil|YSize=59mil|CornerRadius=0mil|HoleSize=0mil|Usage=FLASHONLY|Rotation=195.000|XOffset=0mil|YOffset=0mil|HoleType=Round|Shape=Rectangle|*
%AMROTATEDRECTD92*
4,1,4,0.013,0.034,0.029,-0.023,-0.013,-0.034,-0.029,0.023,0.013,0.034,0.0*
%
%ADD92ROTATEDRECTD92*%

G04:AMPARAMS|DCode=93|XSize=43mil|YSize=59mil|CornerRadius=0mil|HoleSize=0mil|Usage=FLASHONLY|Rotation=150.000|XOffset=0mil|YOffset=0mil|HoleType=Round|Shape=Rectangle|*
%AMROTATEDRECTD93*
4,1,4,0.034,0.015,0.004,-0.036,-0.034,-0.015,-0.004,0.036,0.034,0.015,0.0*
%
%ADD93ROTATEDRECTD93*%

G04:AMPARAMS|DCode=94|XSize=43mil|YSize=59mil|CornerRadius=0mil|HoleSize=0mil|Usage=FLASHONLY|Rotation=165.000|XOffset=0mil|YOffset=0mil|HoleType=Round|Shape=Rectangle|*
%AMROTATEDRECTD94*
4,1,4,0.029,0.023,0.013,-0.034,-0.029,-0.023,-0.013,0.034,0.029,0.023,0.0*
%
%ADD94ROTATEDRECTD94*%

G04:AMPARAMS|DCode=95|XSize=43mil|YSize=59mil|CornerRadius=0mil|HoleSize=0mil|Usage=FLASHONLY|Rotation=120.000|XOffset=0mil|YOffset=0mil|HoleType=Round|Shape=Rectangle|*
%AMROTATEDRECTD95*
4,1,4,0.036,-0.004,-0.015,-0.034,-0.036,0.004,0.015,0.034,0.036,-0.004,0.0*
%
%ADD95ROTATEDRECTD95*%

G04:AMPARAMS|DCode=96|XSize=43mil|YSize=59mil|CornerRadius=0mil|HoleSize=0mil|Usage=FLASHONLY|Rotation=135.000|XOffset=0mil|YOffset=0mil|HoleType=Round|Shape=Rectangle|*
%AMROTATEDRECTD96*
4,1,4,0.036,0.006,-0.006,-0.036,-0.036,-0.006,0.006,0.036,0.036,0.006,0.0*
%
%ADD96ROTATEDRECTD96*%

%ADD97R,0.059X0.043*%
G04:AMPARAMS|DCode=98|XSize=43mil|YSize=59mil|CornerRadius=0mil|HoleSize=0mil|Usage=FLASHONLY|Rotation=105.000|XOffset=0mil|YOffset=0mil|HoleType=Round|Shape=Rectangle|*
%AMROTATEDRECTD98*
4,1,4,0.034,-0.013,-0.023,-0.029,-0.034,0.013,0.023,0.029,0.034,-0.013,0.0*
%
%ADD98ROTATEDRECTD98*%

G04:AMPARAMS|DCode=99|XSize=43mil|YSize=59mil|CornerRadius=0mil|HoleSize=0mil|Usage=FLASHONLY|Rotation=262.500|XOffset=0mil|YOffset=0mil|HoleType=Round|Shape=Rectangle|*
%AMROTATEDRECTD99*
4,1,4,-0.026,0.025,0.032,0.018,0.026,-0.025,-0.032,-0.018,-0.026,0.025,0.0*
%
%ADD99ROTATEDRECTD99*%

G04:AMPARAMS|DCode=100|XSize=43mil|YSize=59mil|CornerRadius=0mil|HoleSize=0mil|Usage=FLASHONLY|Rotation=247.500|XOffset=0mil|YOffset=0mil|HoleType=Round|Shape=Rectangle|*
%AMROTATEDRECTD100*
4,1,4,-0.019,0.031,0.036,0.009,0.019,-0.031,-0.036,-0.009,-0.019,0.031,0.0*
%
%ADD100ROTATEDRECTD100*%

G04:AMPARAMS|DCode=101|XSize=43mil|YSize=59mil|CornerRadius=0mil|HoleSize=0mil|Usage=FLASHONLY|Rotation=232.500|XOffset=0mil|YOffset=0mil|HoleType=Round|Shape=Rectangle|*
%AMROTATEDRECTD101*
4,1,4,-0.010,0.035,0.037,-0.001,0.010,-0.035,-0.037,0.001,-0.010,0.035,0.0*
%
%ADD101ROTATEDRECTD101*%

G04:AMPARAMS|DCode=102|XSize=43mil|YSize=59mil|CornerRadius=0mil|HoleSize=0mil|Usage=FLASHONLY|Rotation=217.500|XOffset=0mil|YOffset=0mil|HoleType=Round|Shape=Rectangle|*
%AMROTATEDRECTD102*
4,1,4,-0.001,0.037,0.035,-0.010,0.001,-0.037,-0.035,0.010,-0.001,0.037,0.0*
%
%ADD102ROTATEDRECTD102*%

G04:AMPARAMS|DCode=103|XSize=43mil|YSize=59mil|CornerRadius=0mil|HoleSize=0mil|Usage=FLASHONLY|Rotation=202.500|XOffset=0mil|YOffset=0mil|HoleType=Round|Shape=Rectangle|*
%AMROTATEDRECTD103*
4,1,4,0.009,0.036,0.031,-0.019,-0.009,-0.036,-0.031,0.019,0.009,0.036,0.0*
%
%ADD103ROTATEDRECTD103*%

G04:AMPARAMS|DCode=104|XSize=43mil|YSize=59mil|CornerRadius=0mil|HoleSize=0mil|Usage=FLASHONLY|Rotation=187.500|XOffset=0mil|YOffset=0mil|HoleType=Round|Shape=Rectangle|*
%AMROTATEDRECTD104*
4,1,4,0.018,0.032,0.025,-0.026,-0.018,-0.032,-0.025,0.026,0.018,0.032,0.0*
%
%ADD104ROTATEDRECTD104*%

G04:AMPARAMS|DCode=105|XSize=43mil|YSize=59mil|CornerRadius=0mil|HoleSize=0mil|Usage=FLASHONLY|Rotation=172.500|XOffset=0mil|YOffset=0mil|HoleType=Round|Shape=Rectangle|*
%AMROTATEDRECTD105*
4,1,4,0.025,0.026,0.018,-0.032,-0.025,-0.026,-0.018,0.032,0.025,0.026,0.0*
%
%ADD105ROTATEDRECTD105*%

G04:AMPARAMS|DCode=106|XSize=43mil|YSize=59mil|CornerRadius=0mil|HoleSize=0mil|Usage=FLASHONLY|Rotation=157.500|XOffset=0mil|YOffset=0mil|HoleType=Round|Shape=Rectangle|*
%AMROTATEDRECTD106*
4,1,4,0.031,0.019,0.009,-0.036,-0.031,-0.019,-0.009,0.036,0.031,0.019,0.0*
%
%ADD106ROTATEDRECTD106*%

G04:AMPARAMS|DCode=107|XSize=43mil|YSize=59mil|CornerRadius=0mil|HoleSize=0mil|Usage=FLASHONLY|Rotation=142.500|XOffset=0mil|YOffset=0mil|HoleType=Round|Shape=Rectangle|*
%AMROTATEDRECTD107*
4,1,4,0.035,0.010,-0.001,-0.037,-0.035,-0.010,0.001,0.037,0.035,0.010,0.0*
%
%ADD107ROTATEDRECTD107*%

G04:AMPARAMS|DCode=108|XSize=43mil|YSize=59mil|CornerRadius=0mil|HoleSize=0mil|Usage=FLASHONLY|Rotation=127.500|XOffset=0mil|YOffset=0mil|HoleType=Round|Shape=Rectangle|*
%AMROTATEDRECTD108*
4,1,4,0.037,0.001,-0.010,-0.035,-0.037,-0.001,0.010,0.035,0.037,0.001,0.0*
%
%ADD108ROTATEDRECTD108*%

G04:AMPARAMS|DCode=109|XSize=43mil|YSize=59mil|CornerRadius=0mil|HoleSize=0mil|Usage=FLASHONLY|Rotation=112.500|XOffset=0mil|YOffset=0mil|HoleType=Round|Shape=Rectangle|*
%AMROTATEDRECTD109*
4,1,4,0.036,-0.009,-0.019,-0.031,-0.036,0.009,0.019,0.031,0.036,-0.009,0.0*
%
%ADD109ROTATEDRECTD109*%

G04:AMPARAMS|DCode=110|XSize=43mil|YSize=59mil|CornerRadius=0mil|HoleSize=0mil|Usage=FLASHONLY|Rotation=97.500|XOffset=0mil|YOffset=0mil|HoleType=Round|Shape=Rectangle|*
%AMROTATEDRECTD110*
4,1,4,0.032,-0.018,-0.026,-0.025,-0.032,0.018,0.026,0.025,0.032,-0.018,0.0*
%
%ADD110ROTATEDRECTD110*%

%ADD111C,0.010*%
%ADD112C,0.004*%
%ADD113C,0.008*%
%ADD114C,0.005*%
%ADD115C,0.002*%
%ADD116C,0.002*%
%ADD117C,0.008*%
%ADD118C,0.006*%
%ADD119R,0.058X0.063*%
%ADD120R,0.418X0.433*%
%ADD121R,0.093X0.044*%
%ADD122R,0.108X0.108*%
%ADD123R,0.049X0.018*%
%ADD124R,0.018X0.049*%
%ADD125R,0.126X0.126*%
%ADD126R,0.030X0.065*%
%ADD127R,0.030X0.065*%
%ADD128R,0.095X0.032*%
%ADD129R,0.095X0.032*%
%ADD130R,0.071X0.020*%
%ADD131R,0.020X0.071*%
%ADD132R,0.225X0.087*%
%ADD133R,0.045X0.043*%
%ADD134R,0.045X0.043*%
%ADD135R,0.020X0.071*%
%ADD136R,0.058X0.118*%
%ADD137R,0.110X0.102*%
%ADD138R,0.225X0.288*%
%ADD139R,0.047X0.071*%
%ADD140R,0.097X0.032*%
%ADD141R,0.043X0.057*%
%ADD142R,0.073X0.063*%
%ADD143R,0.032X0.095*%
%ADD144R,0.032X0.095*%
%ADD145R,0.108X0.108*%
%ADD146R,0.067X0.059*%
%ADD147R,0.118X0.123*%
%ADD148R,0.087X0.134*%
%ADD149R,0.087X0.134*%
%ADD150R,0.148X0.068*%
%ADD151R,0.338X0.428*%
%ADD152R,0.089X0.032*%
%ADD153R,0.057X0.043*%
%ADD154R,0.063X0.058*%
%ADD155R,0.063X0.073*%
%ADD156C,0.090*%
%ADD157R,0.168X0.088*%
%ADD158R,0.458X0.458*%
%ADD159C,0.078*%
%ADD160C,0.108*%
%ADD161C,0.073*%
%ADD162R,0.073X0.073*%
%ADD163C,0.158*%
%ADD164C,0.177*%
%ADD165C,0.398*%
%ADD166C,0.208*%
%ADD167C,0.258*%
%ADD168C,0.133*%
G36*
X-1505Y-835D02*
X-1591Y-884D01*
X-1622Y-830D01*
X-1793Y-928D01*
X-1726Y-1044D01*
X-1644Y-997D01*
X-1620Y-1038D01*
X-1781Y-1145D01*
X-1907Y-926D01*
X-1555Y-750D01*
X-1505Y-835D01*
D02*
G37*
G36*
X-1452Y-927D02*
X-1614Y-1034D01*
X-1637Y-993D01*
X-1555Y-946D01*
X-1587Y-891D01*
X-1502Y-842D01*
X-1452Y-927D01*
D02*
G37*
G36*
X1807Y-926D02*
X1681Y-1145D01*
X1352Y-927D01*
X1402Y-842D01*
X1487Y-891D01*
X1455Y-946D01*
X1626Y-1044D01*
X1693Y-928D01*
X1611Y-881D01*
X1634Y-840D01*
X1807Y-926D01*
D02*
G37*
G36*
X1912Y-677D02*
X1816Y-910D01*
X1461Y-737D01*
X1499Y-646D01*
X1590Y-684D01*
X1565Y-742D01*
X1747Y-817D01*
X1799Y-694D01*
X1711Y-658D01*
X1729Y-614D01*
X1912Y-677D01*
D02*
G37*
G36*
X-1561Y-737D02*
X-1735Y-822D01*
X-1753Y-778D01*
X-1665Y-742D01*
X-1690Y-684D01*
X-1599Y-646D01*
X-1561Y-737D01*
D02*
G37*
G36*
X1628Y-836D02*
X1604Y-877D01*
X1522Y-830D01*
X1491Y-884D01*
X1405Y-835D01*
X1455Y-750D01*
X1628Y-836D01*
D02*
G37*
G36*
X-1240Y-1184D02*
X-1309Y-1254D01*
X-1354Y-1209D01*
X-1493Y-1348D01*
X-1398Y-1443D01*
X-1331Y-1376D01*
X-1298Y-1410D01*
X-1426Y-1554D01*
X-1604Y-1376D01*
X-1309Y-1114D01*
X-1240Y-1184D01*
D02*
G37*
G36*
X1354Y-1242D02*
X1321Y-1276D01*
X1254Y-1209D01*
X1209Y-1254D01*
X1140Y-1184D01*
X1209Y-1114D01*
X1354Y-1242D01*
D02*
G37*
G36*
X1358Y-1084D02*
X1319Y-1134D01*
X1475Y-1254D01*
X1557Y-1148D01*
X1482Y-1090D01*
X1511Y-1053D01*
X1671Y-1161D01*
X1517Y-1361D01*
X1220Y-1102D01*
X1279Y-1024D01*
X1358Y-1084D01*
D02*
G37*
G36*
X-1384Y-1018D02*
X-1462Y-1078D01*
X-1501Y-1028D01*
X-1657Y-1148D01*
X-1575Y-1254D01*
X-1500Y-1196D01*
X-1472Y-1234D01*
X-1617Y-1361D01*
X-1771Y-1161D01*
X-1444Y-940D01*
X-1384Y-1018D01*
D02*
G37*
G36*
X1504Y-1048D02*
X1476Y-1086D01*
X1401Y-1028D01*
X1362Y-1078D01*
X1284Y-1018D01*
X1344Y-940D01*
X1504Y-1048D01*
D02*
G37*
G36*
X-1320Y-1102D02*
X-1465Y-1229D01*
X-1494Y-1192D01*
X-1419Y-1134D01*
X-1458Y-1084D01*
X-1379Y-1024D01*
X-1320Y-1102D01*
D02*
G37*
G36*
X-1714Y-215D02*
X-1812Y-228D01*
X-1820Y-166D01*
X-2015Y-191D01*
X-1998Y-324D01*
X-1904Y-312D01*
X-1898Y-359D01*
X-2088Y-396D01*
X-2121Y-146D01*
X-1727Y-118D01*
X-1714Y-215D01*
D02*
G37*
G36*
X2021Y-146D02*
X1988Y-396D01*
X1600Y-321D01*
X1613Y-223D01*
X1711Y-236D01*
X1703Y-299D01*
X1898Y-324D01*
X1915Y-191D01*
X1822Y-179D01*
X1828Y-132D01*
X2021Y-146D01*
D02*
G37*
G36*
X-1700Y-321D02*
X-1890Y-358D01*
X-1896Y-311D01*
X-1803Y-299D01*
X-1811Y-236D01*
X-1713Y-223D01*
X-1700Y-321D01*
D02*
G37*
G36*
X2022Y-126D02*
X1628Y-102D01*
Y-4D01*
X1727D01*
Y-67D01*
X1923D01*
Y67D01*
X1829D01*
Y114D01*
X2022Y126D01*
Y-126D01*
D02*
G37*
G36*
X-1728Y-102D02*
X-1921Y-114D01*
Y-67D01*
X-1827D01*
Y-4D01*
X-1728D01*
Y-102D01*
D02*
G37*
G36*
X1820Y-131D02*
X1814Y-178D01*
X1720Y-166D01*
X1712Y-228D01*
X1614Y-215D01*
X1627Y-118D01*
X1820Y-131D01*
D02*
G37*
G36*
X-1644Y-533D02*
X-1828Y-594D01*
X-1840Y-549D01*
X-1749Y-524D01*
X-1765Y-463D01*
X-1670Y-438D01*
X-1644Y-533D01*
D02*
G37*
G36*
X1722Y-611D02*
X1704Y-655D01*
X1617Y-618D01*
X1593Y-677D01*
X1502Y-639D01*
X1539Y-548D01*
X1722Y-611D01*
D02*
G37*
G36*
X-1602Y-639D02*
X-1693Y-677D01*
X-1717Y-618D01*
X-1899Y-694D01*
X-1847Y-817D01*
X-1760Y-781D01*
X-1742Y-825D01*
X-1916Y-910D01*
X-2012Y-677D01*
X-1639Y-548D01*
X-1602Y-639D01*
D02*
G37*
G36*
X1787Y-374D02*
X1775Y-419D01*
X1683Y-395D01*
X1667Y-456D01*
X1572Y-430D01*
X1597Y-335D01*
X1787Y-374D01*
D02*
G37*
G36*
X-1672Y-430D02*
X-1767Y-456D01*
X-1783Y-395D01*
X-1973Y-446D01*
X-1939Y-575D01*
X-1847Y-551D01*
X-1835Y-596D01*
X-2019Y-658D01*
X-2084Y-414D01*
X-1697Y-335D01*
X-1672Y-430D01*
D02*
G37*
G36*
X1984Y-414D02*
X1919Y-658D01*
X1544Y-533D01*
X1570Y-438D01*
X1665Y-463D01*
X1649Y-524D01*
X1839Y-575D01*
X1873Y-446D01*
X1782Y-421D01*
X1794Y-376D01*
X1984Y-414D01*
D02*
G37*
G36*
X-385Y-1647D02*
X-424Y-1837D01*
X-469Y-1825D01*
X-445Y-1733D01*
X-506Y-1717D01*
X-480Y-1622D01*
X-385Y-1647D01*
D02*
G37*
G36*
X308Y-1840D02*
X261Y-1846D01*
X249Y-1753D01*
X186Y-1761D01*
X173Y-1663D01*
X271Y-1650D01*
X308Y-1840D01*
D02*
G37*
G36*
X835Y-1541D02*
X781Y-1572D01*
X879Y-1743D01*
X995Y-1676D01*
X948Y-1594D01*
X989Y-1570D01*
X1096Y-1731D01*
X877Y-1857D01*
X701Y-1505D01*
X786Y-1455D01*
X835Y-1541D01*
D02*
G37*
G36*
X-273Y-1663D02*
X-286Y-1761D01*
X-349Y-1753D01*
X-374Y-1948D01*
X-241Y-1965D01*
X-229Y-1872D01*
X-182Y-1878D01*
X-196Y-2071D01*
X-446Y-2038D01*
X-371Y-1650D01*
X-273Y-1663D01*
D02*
G37*
G36*
X-598Y-1589D02*
X-661Y-1772D01*
X-705Y-1754D01*
X-669Y-1667D01*
X-727Y-1643D01*
X-689Y-1552D01*
X-598Y-1589D01*
D02*
G37*
G36*
X544Y-1778D02*
X499Y-1790D01*
X474Y-1699D01*
X413Y-1715D01*
X388Y-1620D01*
X483Y-1594D01*
X544Y-1778D01*
D02*
G37*
G36*
X406Y-1717D02*
X345Y-1733D01*
X396Y-1923D01*
X525Y-1889D01*
X501Y-1797D01*
X546Y-1785D01*
X608Y-1969D01*
X364Y-2034D01*
X285Y-1647D01*
X380Y-1622D01*
X406Y-1717D01*
D02*
G37*
G36*
X178Y-1762D02*
X116Y-1770D01*
X141Y-1965D01*
X274Y-1948D01*
X262Y-1854D01*
X309Y-1848D01*
X346Y-2038D01*
X96Y-2071D01*
X68Y-1677D01*
X165Y-1664D01*
X178Y-1762D01*
D02*
G37*
G36*
X-54Y-1777D02*
X-117D01*
Y-1973D01*
X17D01*
Y-1879D01*
X64D01*
X76Y-2072D01*
X-176D01*
X-152Y-1678D01*
X-54D01*
Y-1777D01*
D02*
G37*
G36*
X-168Y-1677D02*
X-181Y-1870D01*
X-228Y-1864D01*
X-216Y-1770D01*
X-278Y-1762D01*
X-265Y-1664D01*
X-168Y-1677D01*
D02*
G37*
G36*
X64Y-1871D02*
X17D01*
Y-1777D01*
X-46D01*
Y-1678D01*
X52D01*
X64Y-1871D01*
D02*
G37*
G36*
X627Y-1643D02*
X568Y-1667D01*
X644Y-1849D01*
X767Y-1797D01*
X731Y-1710D01*
X775Y-1692D01*
X860Y-1866D01*
X627Y-1962D01*
X498Y-1589D01*
X589Y-1552D01*
X627Y-1643D01*
D02*
G37*
G36*
X-892Y-1452D02*
X-941Y-1537D01*
X-996Y-1505D01*
X-1094Y-1676D01*
X-978Y-1743D01*
X-931Y-1661D01*
X-890Y-1684D01*
X-976Y-1857D01*
X-1195Y-1731D01*
X-977Y-1402D01*
X-892Y-1452D01*
D02*
G37*
G36*
X1204Y-1259D02*
X1159Y-1304D01*
X1298Y-1443D01*
X1393Y-1348D01*
X1326Y-1281D01*
X1360Y-1248D01*
X1504Y-1376D01*
X1326Y-1554D01*
X1064Y-1259D01*
X1134Y-1190D01*
X1204Y-1259D01*
D02*
G37*
G36*
X-990Y-1394D02*
X-1098Y-1554D01*
X-1136Y-1526D01*
X-1078Y-1451D01*
X-1128Y-1412D01*
X-1068Y-1334D01*
X-990Y-1394D01*
D02*
G37*
G36*
X-1164Y-1259D02*
X-1292Y-1404D01*
X-1326Y-1371D01*
X-1259Y-1304D01*
X-1304Y-1259D01*
X-1234Y-1190D01*
X-1164Y-1259D01*
D02*
G37*
G36*
X-1074Y-1329D02*
X-1134Y-1408D01*
X-1184Y-1369D01*
X-1304Y-1525D01*
X-1198Y-1607D01*
X-1140Y-1532D01*
X-1103Y-1561D01*
X-1211Y-1721D01*
X-1411Y-1567D01*
X-1152Y-1270D01*
X-1074Y-1329D01*
D02*
G37*
G36*
X1179Y-1415D02*
X1142Y-1444D01*
X1084Y-1369D01*
X1034Y-1408D01*
X974Y-1329D01*
X1052Y-1270D01*
X1179Y-1415D01*
D02*
G37*
G36*
X772Y-1685D02*
X728Y-1703D01*
X692Y-1615D01*
X634Y-1640D01*
X596Y-1549D01*
X687Y-1511D01*
X772Y-1685D01*
D02*
G37*
G36*
X-488Y-1620D02*
X-513Y-1715D01*
X-574Y-1699D01*
X-625Y-1889D01*
X-496Y-1923D01*
X-471Y-1832D01*
X-426Y-1844D01*
X-464Y-2034D01*
X-708Y-1969D01*
X-583Y-1594D01*
X-488Y-1620D01*
D02*
G37*
G36*
X1028Y-1412D02*
X978Y-1451D01*
X1098Y-1607D01*
X1204Y-1525D01*
X1146Y-1450D01*
X1184Y-1422D01*
X1311Y-1567D01*
X1111Y-1721D01*
X890Y-1394D01*
X968Y-1334D01*
X1028Y-1412D01*
D02*
G37*
G36*
X985Y-1564D02*
X944Y-1587D01*
X897Y-1505D01*
X842Y-1537D01*
X793Y-1452D01*
X878Y-1402D01*
X985Y-1564D01*
D02*
G37*
G36*
X-696Y-1549D02*
X-734Y-1640D01*
X-792Y-1615D01*
X-868Y-1797D01*
X-744Y-1849D01*
X-708Y-1761D01*
X-664Y-1779D01*
X-727Y-1962D01*
X-960Y-1866D01*
X-787Y-1511D01*
X-696Y-1549D01*
D02*
G37*
G36*
X-800Y-1505D02*
X-886Y-1678D01*
X-927Y-1654D01*
X-880Y-1572D01*
X-934Y-1541D01*
X-885Y-1455D01*
X-800Y-1505D01*
D02*
G37*
G36*
X828Y1654D02*
X781Y1572D01*
X835Y1541D01*
X786Y1455D01*
X701Y1505D01*
X787Y1678D01*
X828Y1654D01*
D02*
G37*
G36*
X-800Y1505D02*
X-885Y1455D01*
X-934Y1541D01*
X-880Y1572D01*
X-978Y1743D01*
X-1094Y1676D01*
X-1047Y1594D01*
X-1088Y1570D01*
X-1195Y1731D01*
X-976Y1857D01*
X-800Y1505D01*
D02*
G37*
G36*
X-996Y1505D02*
X-941Y1537D01*
X-892Y1452D01*
X-977Y1402D01*
X-1084Y1564D01*
X-1043Y1587D01*
X-996Y1505D01*
D02*
G37*
G36*
X-598Y1589D02*
X-689Y1552D01*
X-727Y1643D01*
X-669Y1667D01*
X-744Y1849D01*
X-868Y1797D01*
X-831Y1710D01*
X-875Y1692D01*
X-960Y1866D01*
X-727Y1962D01*
X-598Y1589D01*
D02*
G37*
G36*
X-792Y1615D02*
X-734Y1640D01*
X-696Y1549D01*
X-787Y1511D01*
X-872Y1685D01*
X-828Y1703D01*
X-792Y1615D01*
D02*
G37*
G36*
X1096Y1731D02*
X878Y1402D01*
X793Y1452D01*
X842Y1537D01*
X897Y1505D01*
X995Y1676D01*
X879Y1743D01*
X832Y1661D01*
X791Y1684D01*
X877Y1857D01*
X1096Y1731D01*
D02*
G37*
G36*
X-1184Y1369D02*
X-1134Y1408D01*
X-1074Y1329D01*
X-1152Y1270D01*
X-1279Y1415D01*
X-1242Y1444D01*
X-1184Y1369D01*
D02*
G37*
G36*
X1504Y1376D02*
X1209Y1114D01*
X1140Y1184D01*
X1209Y1254D01*
X1254Y1209D01*
X1393Y1348D01*
X1298Y1443D01*
X1231Y1376D01*
X1198Y1410D01*
X1326Y1554D01*
X1504Y1376D01*
D02*
G37*
G36*
X-1168Y1263D02*
X-1238Y1194D01*
X-1308Y1263D01*
X-1263Y1308D01*
X-1402Y1447D01*
X-1497Y1352D01*
X-1430Y1285D01*
X-1464Y1252D01*
X-1608Y1380D01*
X-1430Y1558D01*
X-1168Y1263D01*
D02*
G37*
G36*
X1311Y1567D02*
X1052Y1270D01*
X974Y1329D01*
X1034Y1408D01*
X1084Y1369D01*
X1204Y1525D01*
X1098Y1607D01*
X1040Y1532D01*
X1003Y1561D01*
X1111Y1721D01*
X1311Y1567D01*
D02*
G37*
G36*
X1036Y1526D02*
X978Y1451D01*
X1028Y1412D01*
X968Y1334D01*
X890Y1394D01*
X998Y1554D01*
X1036Y1526D01*
D02*
G37*
G36*
X-990Y1394D02*
X-1068Y1334D01*
X-1128Y1412D01*
X-1078Y1451D01*
X-1198Y1607D01*
X-1304Y1525D01*
X-1246Y1450D01*
X-1284Y1422D01*
X-1411Y1567D01*
X-1211Y1721D01*
X-990Y1394D01*
D02*
G37*
G36*
X-117Y1777D02*
X-54D01*
Y1678D01*
X-152D01*
X-164Y1871D01*
X-117D01*
Y1777D01*
D02*
G37*
G36*
X128Y1864D02*
X116Y1770D01*
X178Y1762D01*
X165Y1664D01*
X68Y1677D01*
X81Y1870D01*
X128Y1864D01*
D02*
G37*
G36*
X-168Y1677D02*
X-265Y1664D01*
X-278Y1762D01*
X-216Y1770D01*
X-241Y1965D01*
X-374Y1948D01*
X-362Y1854D01*
X-409Y1848D01*
X-446Y2038D01*
X-196Y2071D01*
X-168Y1677D01*
D02*
G37*
G36*
X346Y2038D02*
X271Y1650D01*
X173Y1663D01*
X186Y1761D01*
X249Y1753D01*
X274Y1948D01*
X141Y1965D01*
X129Y1872D01*
X82Y1878D01*
X96Y2071D01*
X346Y2038D01*
D02*
G37*
G36*
X608Y1969D02*
X483Y1594D01*
X388Y1620D01*
X413Y1715D01*
X474Y1699D01*
X525Y1889D01*
X396Y1923D01*
X371Y1832D01*
X326Y1844D01*
X364Y2034D01*
X608Y1969D01*
D02*
G37*
G36*
X52Y1678D02*
X-46D01*
Y1777D01*
X17D01*
Y1973D01*
X-117D01*
Y1879D01*
X-164D01*
X-176Y2072D01*
X76D01*
X52Y1678D01*
D02*
G37*
G36*
X860Y1866D02*
X687Y1511D01*
X596Y1549D01*
X634Y1640D01*
X692Y1615D01*
X767Y1797D01*
X644Y1849D01*
X608Y1761D01*
X564Y1779D01*
X627Y1962D01*
X860Y1866D01*
D02*
G37*
G36*
X-574Y1699D02*
X-513Y1715D01*
X-488Y1620D01*
X-583Y1594D01*
X-644Y1778D01*
X-599Y1790D01*
X-574Y1699D01*
D02*
G37*
G36*
X605Y1754D02*
X568Y1667D01*
X627Y1643D01*
X589Y1552D01*
X498Y1589D01*
X561Y1772D01*
X605Y1754D01*
D02*
G37*
G36*
X-349Y1753D02*
X-286Y1761D01*
X-273Y1663D01*
X-371Y1650D01*
X-408Y1840D01*
X-361Y1846D01*
X-349Y1753D01*
D02*
G37*
G36*
X369Y1825D02*
X345Y1733D01*
X406Y1717D01*
X380Y1622D01*
X285Y1647D01*
X324Y1837D01*
X369Y1825D01*
D02*
G37*
G36*
X-385Y1647D02*
X-480Y1622D01*
X-506Y1717D01*
X-445Y1733D01*
X-496Y1923D01*
X-625Y1889D01*
X-601Y1797D01*
X-646Y1785D01*
X-708Y1969D01*
X-464Y2034D01*
X-385Y1647D01*
D02*
G37*
G36*
X-1644Y533D02*
X-1670Y438D01*
X-1765Y463D01*
X-1749Y524D01*
X-1939Y575D01*
X-1973Y446D01*
X-1882Y421D01*
X-1894Y376D01*
X-2084Y414D01*
X-2019Y658D01*
X-1644Y533D01*
D02*
G37*
G36*
X1984Y414D02*
X1597Y335D01*
X1572Y430D01*
X1667Y456D01*
X1683Y395D01*
X1873Y446D01*
X1839Y575D01*
X1747Y551D01*
X1735Y596D01*
X1919Y658D01*
X1984Y414D01*
D02*
G37*
G36*
X-1672Y430D02*
X-1697Y335D01*
X-1887Y374D01*
X-1875Y419D01*
X-1783Y395D01*
X-1767Y456D01*
X-1672Y430D01*
D02*
G37*
G36*
X1912Y677D02*
X1539Y548D01*
X1502Y639D01*
X1593Y677D01*
X1617Y618D01*
X1799Y694D01*
X1747Y817D01*
X1660Y781D01*
X1642Y825D01*
X1816Y910D01*
X1912Y677D01*
D02*
G37*
G36*
X-1602Y639D02*
X-1639Y548D01*
X-1822Y611D01*
X-1804Y655D01*
X-1717Y618D01*
X-1693Y677D01*
X-1602Y639D01*
D02*
G37*
G36*
X1740Y549D02*
X1649Y524D01*
X1665Y463D01*
X1570Y438D01*
X1544Y533D01*
X1728Y594D01*
X1740Y549D01*
D02*
G37*
G36*
X-1714Y215D02*
X-1727Y118D01*
X-1920Y131D01*
X-1914Y178D01*
X-1820Y166D01*
X-1812Y228D01*
X-1714Y215D01*
D02*
G37*
G36*
X1821Y67D02*
X1727D01*
Y4D01*
X1628D01*
Y102D01*
X1821Y114D01*
Y67D01*
D02*
G37*
G36*
X-1728Y102D02*
Y4D01*
X-1827D01*
Y67D01*
X-2023D01*
Y-67D01*
X-1929D01*
Y-114D01*
X-2122Y-126D01*
Y126D01*
X-1728Y102D01*
D02*
G37*
G36*
X1796Y311D02*
X1703Y299D01*
X1711Y236D01*
X1613Y223D01*
X1600Y321D01*
X1790Y358D01*
X1796Y311D01*
D02*
G37*
G36*
X-1700Y321D02*
X-1713Y223D01*
X-1811Y236D01*
X-1803Y299D01*
X-1998Y324D01*
X-2015Y191D01*
X-1922Y179D01*
X-1928Y132D01*
X-2121Y146D01*
X-2088Y396D01*
X-1700Y321D01*
D02*
G37*
G36*
X2021Y146D02*
X1627Y118D01*
X1614Y215D01*
X1712Y228D01*
X1720Y166D01*
X1915Y191D01*
X1898Y324D01*
X1804Y312D01*
X1798Y359D01*
X1988Y396D01*
X2021Y146D01*
D02*
G37*
G36*
X1394Y1192D02*
X1319Y1134D01*
X1358Y1084D01*
X1279Y1024D01*
X1220Y1102D01*
X1365Y1229D01*
X1394Y1192D01*
D02*
G37*
G36*
X-1320Y1102D02*
X-1379Y1024D01*
X-1458Y1084D01*
X-1419Y1134D01*
X-1575Y1254D01*
X-1657Y1148D01*
X-1582Y1090D01*
X-1611Y1053D01*
X-1771Y1161D01*
X-1617Y1361D01*
X-1320Y1102D01*
D02*
G37*
G36*
X-1501Y1028D02*
X-1462Y1078D01*
X-1384Y1018D01*
X-1444Y940D01*
X-1604Y1048D01*
X-1576Y1086D01*
X-1501Y1028D01*
D02*
G37*
G36*
X1226Y1371D02*
X1159Y1304D01*
X1204Y1259D01*
X1134Y1190D01*
X1064Y1259D01*
X1192Y1404D01*
X1226Y1371D01*
D02*
G37*
G36*
X-1358Y1213D02*
X-1313Y1258D01*
X-1244Y1188D01*
X-1313Y1118D01*
X-1458Y1246D01*
X-1425Y1280D01*
X-1358Y1213D01*
D02*
G37*
G36*
X1671Y1161D02*
X1344Y940D01*
X1284Y1018D01*
X1362Y1078D01*
X1401Y1028D01*
X1557Y1148D01*
X1475Y1254D01*
X1400Y1196D01*
X1372Y1234D01*
X1517Y1361D01*
X1671Y1161D01*
D02*
G37*
G36*
X-1505Y836D02*
X-1555Y751D01*
X-1728Y837D01*
X-1704Y878D01*
X-1622Y831D01*
X-1591Y885D01*
X-1505Y836D01*
D02*
G37*
G36*
X1653Y778D02*
X1565Y742D01*
X1590Y684D01*
X1499Y646D01*
X1461Y737D01*
X1635Y822D01*
X1653Y778D01*
D02*
G37*
G36*
X-1561Y737D02*
X-1599Y646D01*
X-1690Y684D01*
X-1665Y742D01*
X-1847Y817D01*
X-1899Y694D01*
X-1811Y658D01*
X-1829Y614D01*
X-2012Y677D01*
X-1916Y910D01*
X-1561Y737D01*
D02*
G37*
G36*
X1537Y994D02*
X1455Y947D01*
X1487Y892D01*
X1402Y843D01*
X1352Y928D01*
X1514Y1035D01*
X1537Y994D01*
D02*
G37*
G36*
X-1452Y928D02*
X-1502Y843D01*
X-1587Y892D01*
X-1555Y947D01*
X-1726Y1045D01*
X-1793Y929D01*
X-1711Y882D01*
X-1734Y841D01*
X-1907Y927D01*
X-1781Y1146D01*
X-1452Y928D01*
D02*
G37*
G36*
X1807Y927D02*
X1455Y751D01*
X1405Y836D01*
X1491Y885D01*
X1522Y831D01*
X1693Y929D01*
X1626Y1045D01*
X1544Y998D01*
X1520Y1039D01*
X1681Y1146D01*
X1807Y927D01*
D02*
G37*
D48*
X-2480Y390D02*
D03*
D68*
X-2660Y1340D02*
D03*
D87*
X1635Y-938D02*
D03*
X1605Y-989D02*
D03*
X1513Y-936D02*
D03*
X1543Y-885D02*
D03*
X-1735Y939D02*
D03*
X-1705Y990D02*
D03*
X-1613Y937D02*
D03*
X-1643Y886D02*
D03*
D88*
X1717Y-443D02*
D03*
X1702Y-500D02*
D03*
X1805Y-527D02*
D03*
X1820Y-470D02*
D03*
X-1817Y443D02*
D03*
X-1802Y500D02*
D03*
X-1905Y527D02*
D03*
X-1920Y470D02*
D03*
D89*
X940Y-1655D02*
D03*
X889Y-1685D02*
D03*
X836Y-1593D02*
D03*
X887Y-1563D02*
D03*
X-1039Y1655D02*
D03*
X-988Y1685D02*
D03*
X-935Y1593D02*
D03*
X-986Y1563D02*
D03*
D90*
X1259Y-1268D02*
D03*
X1218Y-1309D02*
D03*
X1293Y-1384D02*
D03*
X1334Y-1343D02*
D03*
X-1363Y1272D02*
D03*
X-1322Y1313D02*
D03*
X-1397Y1388D02*
D03*
X-1438Y1347D02*
D03*
D91*
X-20Y-1928D02*
D03*
X-80D02*
D03*
Y-1822D02*
D03*
X-20D02*
D03*
X-80Y1928D02*
D03*
X-20D02*
D03*
Y1822D02*
D03*
X-80D02*
D03*
D92*
X450Y-1752D02*
D03*
X393Y-1767D02*
D03*
X420Y-1870D02*
D03*
X477Y-1855D02*
D03*
X-550Y1752D02*
D03*
X-493Y1767D02*
D03*
X-520Y1870D02*
D03*
X-577Y1855D02*
D03*
D93*
X-988Y-1685D02*
D03*
X-1039Y-1655D02*
D03*
X-986Y-1563D02*
D03*
X-935Y-1593D02*
D03*
X889Y1685D02*
D03*
X940Y1655D02*
D03*
X887Y1563D02*
D03*
X836Y1593D02*
D03*
D94*
X-493Y-1767D02*
D03*
X-550Y-1752D02*
D03*
X-577Y-1855D02*
D03*
X-520Y-1870D02*
D03*
X393Y1767D02*
D03*
X450Y1752D02*
D03*
X477Y1855D02*
D03*
X420Y1870D02*
D03*
D95*
X-1705Y-989D02*
D03*
X-1735Y-938D02*
D03*
X-1643Y-885D02*
D03*
X-1613Y-936D02*
D03*
X1605Y990D02*
D03*
X1635Y939D02*
D03*
X1543Y886D02*
D03*
X1513Y937D02*
D03*
D96*
X-1318Y-1309D02*
D03*
X-1359Y-1268D02*
D03*
X-1434Y-1343D02*
D03*
X-1393Y-1384D02*
D03*
X1218Y1309D02*
D03*
X1259Y1268D02*
D03*
X1334Y1343D02*
D03*
X1293Y1384D02*
D03*
D97*
X-1978Y-30D02*
D03*
Y30D02*
D03*
X-1872D02*
D03*
Y-30D02*
D03*
X1878Y30D02*
D03*
Y-30D02*
D03*
X1772D02*
D03*
Y30D02*
D03*
D98*
X-1802Y-500D02*
D03*
X-1817Y-443D02*
D03*
X-1920Y-470D02*
D03*
X-1905Y-527D02*
D03*
X1702Y500D02*
D03*
X1717Y443D02*
D03*
X1820Y470D02*
D03*
X1805Y527D02*
D03*
D99*
X1866Y-223D02*
D03*
X1858Y-281D02*
D03*
X1752Y-267D02*
D03*
X1760Y-209D02*
D03*
X-1966Y223D02*
D03*
X-1958Y281D02*
D03*
X-1852Y267D02*
D03*
X-1860Y209D02*
D03*
D100*
X1644Y-670D02*
D03*
X1622Y-725D02*
D03*
X1720Y-766D02*
D03*
X1742Y-711D02*
D03*
X-1744Y670D02*
D03*
X-1722Y725D02*
D03*
X-1820Y766D02*
D03*
X-1842Y711D02*
D03*
D101*
X1498Y-1150D02*
D03*
X1462Y-1197D02*
D03*
X1378Y-1132D02*
D03*
X1414Y-1085D02*
D03*
X-1598Y1150D02*
D03*
X-1562Y1197D02*
D03*
X-1478Y1132D02*
D03*
X-1514Y1085D02*
D03*
D102*
X1082Y-1428D02*
D03*
X1035Y-1464D02*
D03*
X1100Y-1548D02*
D03*
X1147Y-1512D02*
D03*
X-1182Y1428D02*
D03*
X-1135Y1464D02*
D03*
X-1200Y1548D02*
D03*
X-1247Y1512D02*
D03*
D103*
X716Y-1770D02*
D03*
X661Y-1792D02*
D03*
X620Y-1694D02*
D03*
X675Y-1672D02*
D03*
X-816Y1770D02*
D03*
X-761Y1792D02*
D03*
X-720Y1694D02*
D03*
X-775Y1672D02*
D03*
D104*
X217Y-1802D02*
D03*
X159Y-1810D02*
D03*
X173Y-1916D02*
D03*
X231Y-1908D02*
D03*
X-317Y1802D02*
D03*
X-259Y1810D02*
D03*
X-273Y1916D02*
D03*
X-331Y1908D02*
D03*
D105*
X-273Y-1916D02*
D03*
X-331Y-1908D02*
D03*
X-317Y-1802D02*
D03*
X-259Y-1810D02*
D03*
X173Y1916D02*
D03*
X231Y1908D02*
D03*
X217Y1802D02*
D03*
X159Y1810D02*
D03*
D106*
X-720Y-1694D02*
D03*
X-775Y-1672D02*
D03*
X-816Y-1770D02*
D03*
X-761Y-1792D02*
D03*
X620Y1694D02*
D03*
X675Y1672D02*
D03*
X716Y1770D02*
D03*
X661Y1792D02*
D03*
D107*
X-1200Y-1548D02*
D03*
X-1247Y-1512D02*
D03*
X-1182Y-1428D02*
D03*
X-1135Y-1464D02*
D03*
X1100Y1548D02*
D03*
X1147Y1512D02*
D03*
X1082Y1428D02*
D03*
X1035Y1464D02*
D03*
D108*
X-1478Y-1132D02*
D03*
X-1514Y-1085D02*
D03*
X-1598Y-1150D02*
D03*
X-1562Y-1197D02*
D03*
X1378Y1132D02*
D03*
X1414Y1085D02*
D03*
X1498Y1150D02*
D03*
X1462Y1197D02*
D03*
D109*
X-1820Y-766D02*
D03*
X-1842Y-711D02*
D03*
X-1744Y-670D02*
D03*
X-1722Y-725D02*
D03*
X1720Y766D02*
D03*
X1742Y711D02*
D03*
X1644Y670D02*
D03*
X1622Y725D02*
D03*
D110*
X-1852Y-267D02*
D03*
X-1860Y-209D02*
D03*
X-1966Y-223D02*
D03*
X-1958Y-281D02*
D03*
X1858Y281D02*
D03*
X1866Y223D02*
D03*
X1760Y209D02*
D03*
X1752Y267D02*
D03*
D122*
X2400Y2565D02*
D03*
D156*
X-2260Y-500D02*
D03*
X-2000Y2600D02*
D03*
X2600Y2450D02*
D03*
Y-2600D02*
D03*
D159*
X2040Y-860D02*
D03*
Y-960D02*
D03*
Y-1220D02*
D03*
Y-1120D02*
D03*
D160*
X1400Y2565D02*
D03*
X1600D02*
D03*
X1800D02*
D03*
X2000D02*
D03*
X2200D02*
D03*
D161*
X347Y-2331D02*
D03*
Y-2429D02*
D03*
X473D02*
D03*
D162*
Y-2331D02*
D03*
D163*
X367Y-2143D02*
D03*
Y-2617D02*
D03*
D164*
X-1156Y2003D02*
D03*
X700Y2310D02*
D03*
X1950Y1500D02*
D03*
X-1040Y-970D02*
D03*
X-670Y-1300D02*
D03*
X-830Y-1150D02*
D03*
X1500Y1580D02*
D03*
X1950Y1260D02*
D03*
X2400Y1610D02*
D03*
X-2312Y0D02*
D03*
X-1156Y-2003D02*
D03*
X1156D02*
D03*
X2312Y0D02*
D03*
X1156Y2003D02*
D03*
D165*
X-1189Y2549D02*
D03*
X-2549Y-1189D02*
D03*
X1189Y-2549D02*
D03*
X2549Y1189D02*
D03*
D166*
X670Y547D02*
D03*
X-148Y-850D02*
D03*
X-815Y-291D02*
D03*
X-670Y547D02*
D03*
X-148Y850D02*
D03*
X148Y-850D02*
D03*
X-670Y-547D02*
D03*
X-815Y291D02*
D03*
X148Y850D02*
D03*
X815Y291D02*
D03*
Y-291D02*
D03*
X670Y-548D02*
D03*
X-1560Y2620D02*
D03*
D167*
X0Y-2600D02*
D03*
X800D02*
D03*
X1540D02*
D03*
X1800D02*
D03*
X2040Y-1650D02*
D03*
X830Y2510D02*
D03*
X-2200Y-1090D02*
D03*
Y-790D02*
D03*
X-2500D02*
D03*
Y-490D02*
D03*
D168*
X2000Y-1900D02*
D03*
X-380Y2180D02*
D03*
X-950Y2280D02*
D03*
X-870Y1080D02*
D03*
X1420Y0D02*
D03*
X840Y-1090D02*
D03*
X-490Y-1400D02*
D03*
X-320Y-1440D02*
D03*
X-160D02*
D03*
X0D02*
D03*
X160D02*
D03*
X330D02*
D03*
X500Y-1330D02*
D03*
X680Y-1250D02*
D03*
X-1330Y-700D02*
D03*
X-840Y570D02*
D03*
X-780Y710D02*
D03*
X2330Y220D02*
D03*
X1480Y-360D02*
D03*
X1070Y1140D02*
D03*
X500Y1330D02*
D03*
X-990Y-250D02*
D03*
X-750Y1220D02*
D03*
X-160Y1420D02*
D03*
X160D02*
D03*
X0D02*
D03*
X-2120Y2600D02*
D03*
M02*
