%FSLAX23Y23*%
%MOIN*%
G70*
G01*
G75*
G04 Layer_Color=16711935*
%ADD10R,0.012X0.063*%
%ADD11R,0.049X0.035*%
%ADD12R,0.020X0.059*%
%ADD13R,0.047X0.024*%
%ADD14R,0.035X0.049*%
%ADD15R,0.063X0.012*%
%ADD16R,0.035X0.083*%
%ADD17R,0.130X0.083*%
%ADD18R,0.071X0.014*%
%ADD19R,0.217X0.059*%
%ADD20R,0.033X0.031*%
%ADD21R,0.031X0.033*%
%ADD22R,0.024X0.081*%
%ADD23R,0.039X0.069*%
%ADD24R,0.033X0.051*%
%ADD25R,0.051X0.033*%
%ADD26C,0.012*%
%ADD27C,0.008*%
%ADD28C,0.016*%
%ADD29C,0.006*%
%ADD30C,0.063*%
%ADD31R,0.063X0.063*%
%ADD32C,0.150*%
%ADD33R,0.100X0.100*%
%ADD34C,0.100*%
%ADD35C,0.197*%
%ADD36C,0.079*%
%ADD37C,0.032*%
%ADD38C,0.010*%
%ADD39C,0.010*%
%ADD40C,0.024*%
%ADD41C,0.008*%
%ADD42C,0.004*%
%ADD43R,0.024X0.047*%
%ADD44R,0.020X0.071*%
%ADD45R,0.057X0.043*%
%ADD46R,0.028X0.067*%
%ADD47R,0.055X0.032*%
%ADD48R,0.043X0.057*%
%ADD49R,0.071X0.020*%
%ADD50R,0.043X0.091*%
%ADD51R,0.138X0.091*%
%ADD52R,0.079X0.022*%
%ADD53R,0.225X0.067*%
%ADD54R,0.041X0.039*%
%ADD55R,0.039X0.041*%
%ADD56R,0.032X0.089*%
%ADD57R,0.047X0.077*%
%ADD58R,0.041X0.059*%
%ADD59R,0.059X0.041*%
%ADD60C,0.071*%
%ADD61R,0.071X0.071*%
%ADD62C,0.158*%
%ADD63R,0.108X0.108*%
%ADD64C,0.108*%
%ADD65C,0.205*%
%ADD66C,0.087*%
%ADD67C,0.040*%
D60*
X11240Y3718D02*
D03*
X11161D02*
D03*
X11240Y3816D02*
D03*
D61*
X11161D02*
D03*
D62*
X11346Y4004D02*
D03*
Y3530D02*
D03*
D63*
X10902Y5673D02*
D03*
D64*
X10702D02*
D03*
X10502D02*
D03*
X10302D02*
D03*
X10102D02*
D03*
X9902D02*
D03*
D65*
X11638Y2954D02*
D03*
X8882D02*
D03*
D66*
X10673Y2876D02*
D03*
X10508D02*
D03*
X10343D02*
D03*
X10177D02*
D03*
X10012D02*
D03*
X9847D02*
D03*
Y3126D02*
D03*
X10012D02*
D03*
X10177D02*
D03*
X10343D02*
D03*
X10508D02*
D03*
X10673D02*
D03*
D67*
X10237Y3467D02*
D03*
X10236Y3360D02*
D03*
X10036Y3812D02*
D03*
X10381Y4916D02*
D03*
X10370Y4844D02*
D03*
X9930Y4488D02*
D03*
X10275Y4602D02*
D03*
X10168Y4364D02*
D03*
X10762Y4855D02*
D03*
X11027Y4576D02*
D03*
X11142Y4292D02*
D03*
X11071Y4268D02*
D03*
X11065Y4086D02*
D03*
X10842Y4647D02*
D03*
X10457Y4648D02*
D03*
X10666Y4638D02*
D03*
X10700Y4527D02*
D03*
X11155Y4667D02*
D03*
X10954D02*
D03*
X11106Y4608D02*
D03*
X10964Y4609D02*
D03*
X10803Y3497D02*
D03*
X10755Y3909D02*
D03*
X10624Y3942D02*
D03*
X11399Y4624D02*
D03*
X10809Y5024D02*
D03*
X11134Y5029D02*
D03*
X10878Y5108D02*
D03*
X11205Y5127D02*
D03*
X10690Y5049D02*
D03*
X11700Y4764D02*
D03*
X9477Y3782D02*
D03*
X9991Y3937D02*
D03*
X9983Y4182D02*
D03*
X10225Y4369D02*
D03*
X10351Y4613D02*
D03*
X10458Y4731D02*
D03*
X10759Y4782D02*
D03*
X10277Y5243D02*
D03*
X9761Y4902D02*
D03*
X9905Y4819D02*
D03*
X10130Y4890D02*
D03*
X10870Y4398D02*
D03*
X11333Y4485D02*
D03*
X11465Y4250D02*
D03*
X11390Y4353D02*
D03*
X11613Y4573D02*
D03*
X11590Y4781D02*
D03*
X10991Y3920D02*
D03*
X10471Y4004D02*
D03*
X10323Y4955D02*
D03*
M02*
