%FSLAX23Y23*%
%MOIN*%
G70*
G01*
G75*
G04 Layer_Color=8421504*
%ADD10R,0.012X0.063*%
%ADD11R,0.050X0.055*%
%ADD12R,0.063X0.012*%
%ADD13R,0.055X0.050*%
%ADD14R,0.012X0.024*%
%ADD15R,0.024X0.012*%
%ADD16R,0.132X0.132*%
%ADD17R,0.024X0.081*%
%ADD18R,0.024X0.087*%
%ADD19R,0.075X0.051*%
%ADD20R,0.089X0.024*%
%ADD21R,0.055X0.065*%
%ADD22R,0.065X0.055*%
%ADD23R,0.035X0.037*%
%ADD24R,0.035X0.037*%
%ADD25R,0.100X0.100*%
%ADD26R,0.050X0.110*%
%ADD27R,0.110X0.115*%
%ADD28R,0.080X0.160*%
%ADD29R,0.450X0.450*%
%ADD30R,0.036X0.085*%
%ADD31R,0.425X0.410*%
%ADD32R,0.016X0.085*%
%ADD33R,0.016X0.085*%
%ADD34R,0.200X0.100*%
%ADD35R,0.063X0.031*%
%ADD36R,0.039X0.063*%
%ADD37R,0.160X0.080*%
%ADD38R,0.450X0.450*%
%ADD39R,0.217X0.280*%
%ADD40R,0.081X0.024*%
%ADD41R,0.012X0.063*%
%ADD42C,0.050*%
%ADD43R,0.102X0.094*%
%ADD44R,0.079X0.126*%
%ADD45R,0.079X0.126*%
%ADD46C,0.010*%
%ADD47C,0.020*%
%ADD48C,0.050*%
%ADD49C,0.030*%
%ADD50C,0.100*%
%ADD51C,0.150*%
%ADD52C,0.035*%
%ADD53C,0.040*%
%ADD54C,0.005*%
%ADD55C,0.100*%
%ADD56R,0.100X0.100*%
%ADD57C,0.125*%
%ADD58O,0.125X0.160*%
%ADD59R,0.125X0.160*%
%ADD60C,0.065*%
%ADD61R,0.065X0.065*%
%ADD62C,0.079*%
%ADD63R,0.160X0.125*%
%ADD64O,0.160X0.125*%
%ADD65C,0.070*%
%ADD66R,0.070X0.070*%
%ADD67C,0.060*%
%ADD68C,0.150*%
%ADD69R,0.070X0.070*%
%ADD70C,0.150*%
%ADD71C,0.140*%
%ADD72C,0.024*%
%ADD73C,0.008*%
%ADD74C,0.102*%
%ADD75C,0.165*%
%ADD76C,0.120*%
%ADD77C,0.080*%
%ADD78C,0.087*%
%ADD79C,0.196*%
%ADD80C,0.590*%
%ADD81C,0.072*%
%ADD82C,0.131*%
%ADD83C,0.085*%
%ADD84C,0.130*%
%ADD85C,0.052*%
%ADD86C,0.068*%
%ADD87C,0.160*%
%ADD88C,0.080*%
%ADD89C,0.010*%
%ADD90C,0.008*%
%ADD91C,0.005*%
%ADD92C,0.031*%
%ADD93C,0.008*%
%ADD94C,0.001*%
%ADD95C,0.002*%
%ADD96C,0.015*%
D10*
X7225Y5560D02*
D03*
X7126Y5040D02*
D03*
X7565Y1287D02*
D03*
X7540D02*
D03*
X7514D02*
D03*
X7488D02*
D03*
X7463D02*
D03*
X7437D02*
D03*
X7412D02*
D03*
X7386D02*
D03*
X7360D02*
D03*
X7335D02*
D03*
X7565Y1063D02*
D03*
X7540D02*
D03*
X7514D02*
D03*
X7488D02*
D03*
X7463D02*
D03*
X7437D02*
D03*
X7412D02*
D03*
X7386D02*
D03*
X7360D02*
D03*
X7335D02*
D03*
X7244Y5560D02*
D03*
X7264D02*
D03*
X7284D02*
D03*
X7205D02*
D03*
X7067D02*
D03*
X7087D02*
D03*
X7264Y5040D02*
D03*
X7382Y5560D02*
D03*
X7362D02*
D03*
X7343D02*
D03*
X7323D02*
D03*
X7303D02*
D03*
X7185D02*
D03*
X7165D02*
D03*
X7146D02*
D03*
X7126D02*
D03*
X7106D02*
D03*
X7047D02*
D03*
X7028D02*
D03*
X7008D02*
D03*
X7382Y5040D02*
D03*
X7362D02*
D03*
X7323D02*
D03*
X7303D02*
D03*
X7284D02*
D03*
X7244D02*
D03*
X7225D02*
D03*
X7205D02*
D03*
X7185D02*
D03*
X7165D02*
D03*
X7146D02*
D03*
X7106D02*
D03*
X7087D02*
D03*
X7067D02*
D03*
X7047D02*
D03*
X7028D02*
D03*
X7008D02*
D03*
X7343D02*
D03*
X8839Y881D02*
D03*
X8820Y881D02*
D03*
X8800Y881D02*
D03*
X8780D02*
D03*
X8761D02*
D03*
X8820Y719D02*
D03*
X8800D02*
D03*
X8780D02*
D03*
X8761D02*
D03*
D11*
X7052Y6510D02*
D03*
X5137Y650D02*
D03*
X5063D02*
D03*
Y750D02*
D03*
X5137D02*
D03*
X5817Y650D02*
D03*
X5743D02*
D03*
Y745D02*
D03*
X5817D02*
D03*
X4398Y5365D02*
D03*
X4472D02*
D03*
X6978Y6510D02*
D03*
X4637Y4835D02*
D03*
X4563D02*
D03*
X10963Y400D02*
D03*
X11037D02*
D03*
Y850D02*
D03*
X10963D02*
D03*
Y1100D02*
D03*
X11037D02*
D03*
Y1550D02*
D03*
X10963D02*
D03*
Y1800D02*
D03*
X11037D02*
D03*
X3613Y6600D02*
D03*
X3687D02*
D03*
X4037Y6150D02*
D03*
X3963D02*
D03*
Y5900D02*
D03*
X4037D02*
D03*
Y5450D02*
D03*
X3963D02*
D03*
Y5200D02*
D03*
X4037D02*
D03*
X5063Y4835D02*
D03*
X5137D02*
D03*
X10137Y6000D02*
D03*
X10063D02*
D03*
X10013Y5250D02*
D03*
X10087D02*
D03*
X10252D02*
D03*
X10178D02*
D03*
X7387Y4850D02*
D03*
X7313D02*
D03*
X14587Y775D02*
D03*
X14513D02*
D03*
Y875D02*
D03*
X14587D02*
D03*
Y1425D02*
D03*
X14513D02*
D03*
Y1525D02*
D03*
X14587D02*
D03*
Y1775D02*
D03*
X14513D02*
D03*
Y1875D02*
D03*
X14587D02*
D03*
Y2125D02*
D03*
X14513D02*
D03*
Y2225D02*
D03*
X14587D02*
D03*
Y2725D02*
D03*
X14513D02*
D03*
Y2825D02*
D03*
X14587D02*
D03*
X413Y6220D02*
D03*
X487D02*
D03*
Y6120D02*
D03*
X413D02*
D03*
Y5570D02*
D03*
X487D02*
D03*
Y5470D02*
D03*
X413D02*
D03*
Y5220D02*
D03*
X487D02*
D03*
Y5120D02*
D03*
X413D02*
D03*
Y4870D02*
D03*
X487D02*
D03*
Y4770D02*
D03*
X413D02*
D03*
Y4270D02*
D03*
X487D02*
D03*
Y4170D02*
D03*
X413D02*
D03*
X8213Y6110D02*
D03*
X8287D02*
D03*
X4967Y650D02*
D03*
X4893D02*
D03*
Y750D02*
D03*
X4967D02*
D03*
X11698Y5125D02*
D03*
X11772D02*
D03*
X11037Y5650D02*
D03*
X10963D02*
D03*
Y5900D02*
D03*
X11037D02*
D03*
Y6350D02*
D03*
X10963D02*
D03*
X11863Y6700D02*
D03*
X11937D02*
D03*
X5573Y650D02*
D03*
X5647D02*
D03*
X4037Y1800D02*
D03*
X3963D02*
D03*
Y1350D02*
D03*
X4037D02*
D03*
Y1100D02*
D03*
X3963D02*
D03*
Y650D02*
D03*
X4037D02*
D03*
Y400D02*
D03*
X3963D02*
D03*
X5573Y745D02*
D03*
X5647D02*
D03*
X14587Y4050D02*
D03*
X14513D02*
D03*
Y4150D02*
D03*
X14587D02*
D03*
Y4700D02*
D03*
X14513D02*
D03*
Y4800D02*
D03*
X14587D02*
D03*
Y5050D02*
D03*
X14513D02*
D03*
Y5150D02*
D03*
X14587D02*
D03*
Y5400D02*
D03*
X14513D02*
D03*
Y5500D02*
D03*
X14587D02*
D03*
Y6000D02*
D03*
X14513D02*
D03*
Y6100D02*
D03*
X14587D02*
D03*
X413Y2950D02*
D03*
X487D02*
D03*
Y2850D02*
D03*
X413D02*
D03*
Y2300D02*
D03*
X487D02*
D03*
Y2200D02*
D03*
X413D02*
D03*
Y1950D02*
D03*
X487D02*
D03*
Y1850D02*
D03*
X413D02*
D03*
Y1600D02*
D03*
X487D02*
D03*
Y1500D02*
D03*
X413D02*
D03*
Y950D02*
D03*
X487D02*
D03*
Y850D02*
D03*
X413D02*
D03*
X6302Y4835D02*
D03*
X6228D02*
D03*
X5563D02*
D03*
X5637D02*
D03*
X6137D02*
D03*
X6063D02*
D03*
X9662Y879D02*
D03*
X9588D02*
D03*
X10076Y705D02*
D03*
X10150D02*
D03*
X9922Y5250D02*
D03*
X9848D02*
D03*
X8287Y5950D02*
D03*
X8213D02*
D03*
X6063Y5365D02*
D03*
X6137D02*
D03*
X5563D02*
D03*
X5637D02*
D03*
X5063D02*
D03*
X5137D02*
D03*
X4563D02*
D03*
X4637D02*
D03*
X7932Y850D02*
D03*
X7858D02*
D03*
X7113Y4750D02*
D03*
X7187D02*
D03*
X7387D02*
D03*
X7313D02*
D03*
D12*
X6935Y5152D02*
D03*
X7455Y5369D02*
D03*
X6935Y5172D02*
D03*
Y5251D02*
D03*
Y5467D02*
D03*
Y5487D02*
D03*
Y5448D02*
D03*
Y5428D02*
D03*
Y5408D02*
D03*
Y5389D02*
D03*
Y5369D02*
D03*
Y5349D02*
D03*
Y5330D02*
D03*
Y5310D02*
D03*
Y5290D02*
D03*
Y5270D02*
D03*
Y5231D02*
D03*
Y5211D02*
D03*
Y5192D02*
D03*
Y5133D02*
D03*
Y5113D02*
D03*
X7455Y5487D02*
D03*
Y5467D02*
D03*
Y5448D02*
D03*
Y5428D02*
D03*
Y5408D02*
D03*
Y5389D02*
D03*
Y5349D02*
D03*
Y5330D02*
D03*
Y5310D02*
D03*
Y5290D02*
D03*
Y5192D02*
D03*
Y5172D02*
D03*
Y5113D02*
D03*
Y5133D02*
D03*
Y5152D02*
D03*
Y5211D02*
D03*
Y5231D02*
D03*
Y5251D02*
D03*
Y5270D02*
D03*
D13*
X7300Y5863D02*
D03*
Y5937D02*
D03*
X9550Y6563D02*
D03*
Y6637D02*
D03*
X9450D02*
D03*
Y6563D02*
D03*
X9350D02*
D03*
Y6637D02*
D03*
X9250D02*
D03*
Y6563D02*
D03*
X9150D02*
D03*
Y6637D02*
D03*
X9050D02*
D03*
Y6563D02*
D03*
X8950D02*
D03*
Y6637D02*
D03*
X8850D02*
D03*
Y6563D02*
D03*
X8840Y243D02*
D03*
Y317D02*
D03*
X9015Y537D02*
D03*
Y463D02*
D03*
X8100Y393D02*
D03*
Y467D02*
D03*
X7825Y263D02*
D03*
Y337D02*
D03*
X7400Y5937D02*
D03*
Y5863D02*
D03*
X8400Y6184D02*
D03*
Y6110D02*
D03*
X8100Y637D02*
D03*
Y563D02*
D03*
X9850Y6563D02*
D03*
Y6637D02*
D03*
X9750D02*
D03*
Y6563D02*
D03*
X9650D02*
D03*
Y6637D02*
D03*
X8750D02*
D03*
Y6563D02*
D03*
X8650D02*
D03*
Y6637D02*
D03*
X8550D02*
D03*
Y6563D02*
D03*
X6300Y6237D02*
D03*
Y6163D02*
D03*
X7900Y5887D02*
D03*
Y5813D02*
D03*
X7500Y5937D02*
D03*
Y5863D02*
D03*
X4500Y1837D02*
D03*
Y1763D02*
D03*
X5200D02*
D03*
Y1837D02*
D03*
X5900D02*
D03*
Y1763D02*
D03*
X8500D02*
D03*
Y1837D02*
D03*
X9200D02*
D03*
Y1763D02*
D03*
X9900D02*
D03*
Y1837D02*
D03*
X4600D02*
D03*
Y1763D02*
D03*
X5300D02*
D03*
Y1837D02*
D03*
X6000D02*
D03*
Y1763D02*
D03*
X8600D02*
D03*
Y1837D02*
D03*
X9300D02*
D03*
Y1763D02*
D03*
X10000D02*
D03*
Y1837D02*
D03*
X4700D02*
D03*
Y1763D02*
D03*
X5400D02*
D03*
Y1837D02*
D03*
X6100D02*
D03*
Y1763D02*
D03*
X8700D02*
D03*
Y1837D02*
D03*
X9400D02*
D03*
Y1763D02*
D03*
X10100D02*
D03*
Y1837D02*
D03*
X4800D02*
D03*
Y1763D02*
D03*
X5500D02*
D03*
Y1837D02*
D03*
X6200D02*
D03*
Y1763D02*
D03*
X8800D02*
D03*
Y1837D02*
D03*
X9500D02*
D03*
Y1763D02*
D03*
X10200D02*
D03*
Y1837D02*
D03*
X4900D02*
D03*
Y1763D02*
D03*
X5600D02*
D03*
Y1837D02*
D03*
X6300D02*
D03*
Y1763D02*
D03*
X8900D02*
D03*
Y1837D02*
D03*
X9600D02*
D03*
Y1763D02*
D03*
X10300D02*
D03*
Y1837D02*
D03*
X5000D02*
D03*
Y1763D02*
D03*
X5700D02*
D03*
Y1837D02*
D03*
X6400D02*
D03*
Y1763D02*
D03*
X9000D02*
D03*
Y1837D02*
D03*
X9700D02*
D03*
Y1763D02*
D03*
X10400D02*
D03*
Y1837D02*
D03*
X5100D02*
D03*
Y1763D02*
D03*
X5800D02*
D03*
Y1837D02*
D03*
X6500D02*
D03*
Y1763D02*
D03*
X9100D02*
D03*
Y1837D02*
D03*
X9800D02*
D03*
Y1763D02*
D03*
X10500D02*
D03*
Y1837D02*
D03*
X7035Y2937D02*
D03*
Y2863D02*
D03*
X10300Y705D02*
D03*
Y631D02*
D03*
X7135Y2937D02*
D03*
Y2863D02*
D03*
X7250Y1212D02*
D03*
Y1138D02*
D03*
X10600Y1363D02*
D03*
Y1437D02*
D03*
X7050Y3437D02*
D03*
Y3363D02*
D03*
Y1737D02*
D03*
Y1663D02*
D03*
X5200Y1437D02*
D03*
Y1363D02*
D03*
X7050Y4137D02*
D03*
Y4063D02*
D03*
Y2437D02*
D03*
Y2363D02*
D03*
X5900Y1437D02*
D03*
Y1363D02*
D03*
X13350Y3798D02*
D03*
Y3872D02*
D03*
X10300Y5437D02*
D03*
Y5363D02*
D03*
X6600Y1437D02*
D03*
Y1363D02*
D03*
X10600Y6837D02*
D03*
Y6763D02*
D03*
X5065Y5998D02*
D03*
Y6072D02*
D03*
X6670Y763D02*
D03*
Y837D02*
D03*
X9200Y1437D02*
D03*
Y1363D02*
D03*
X8735Y537D02*
D03*
Y463D02*
D03*
X8370Y837D02*
D03*
Y763D02*
D03*
X9900Y1437D02*
D03*
Y1363D02*
D03*
X6750Y5437D02*
D03*
Y5363D02*
D03*
X4500Y5613D02*
D03*
Y5687D02*
D03*
X4400D02*
D03*
Y5613D02*
D03*
X4600D02*
D03*
Y5687D02*
D03*
X4700D02*
D03*
Y5613D02*
D03*
X4400Y6037D02*
D03*
Y5963D02*
D03*
X7200Y5937D02*
D03*
Y5863D02*
D03*
X6300Y6037D02*
D03*
Y5963D02*
D03*
D14*
X5986Y6286D02*
D03*
X6006D02*
D03*
X6025D02*
D03*
X6045D02*
D03*
X6065D02*
D03*
X6084D02*
D03*
X6104D02*
D03*
Y6104D02*
D03*
X6084D02*
D03*
X6065D02*
D03*
X6045D02*
D03*
X6025D02*
D03*
X6006D02*
D03*
X5986Y6104D02*
D03*
D15*
X5954Y6132D02*
D03*
Y6152D02*
D03*
Y6171D02*
D03*
Y6191D02*
D03*
Y6211D02*
D03*
Y6230D02*
D03*
Y6250D02*
D03*
X6136Y6254D02*
D03*
Y6234D02*
D03*
Y6215D02*
D03*
Y6195D02*
D03*
Y6175D02*
D03*
Y6156D02*
D03*
Y6136D02*
D03*
D16*
X6045Y6195D02*
D03*
D17*
X7325Y3005D02*
D03*
X7275D02*
D03*
X7575D02*
D03*
X7525D02*
D03*
X7475D02*
D03*
X7425D02*
D03*
X7375D02*
D03*
X7225D02*
D03*
X7575Y2795D02*
D03*
X7525D02*
D03*
X7475D02*
D03*
X7425D02*
D03*
X7375D02*
D03*
X7325D02*
D03*
X7275D02*
D03*
X7225D02*
D03*
X7825Y495D02*
D03*
X7875D02*
D03*
X7925D02*
D03*
X7975D02*
D03*
X7825Y705D02*
D03*
X7875D02*
D03*
X7925D02*
D03*
X7975D02*
D03*
X10725Y6605D02*
D03*
X10675D02*
D03*
X10625D02*
D03*
X10575D02*
D03*
X10725Y6395D02*
D03*
X10675D02*
D03*
X10625D02*
D03*
X10575D02*
D03*
D18*
X5775Y1581D02*
D03*
X5075D02*
D03*
X10475D02*
D03*
X9775D02*
D03*
X9075D02*
D03*
X6475D02*
D03*
X7625Y2581D02*
D03*
X10425Y1581D02*
D03*
X10375D02*
D03*
X10325D02*
D03*
X10275D02*
D03*
X10225D02*
D03*
X10175D02*
D03*
X10125D02*
D03*
X10075D02*
D03*
X10025D02*
D03*
X10475Y1219D02*
D03*
X10375D02*
D03*
X10325D02*
D03*
X10275D02*
D03*
X10225D02*
D03*
X10175D02*
D03*
X10125D02*
D03*
X10075D02*
D03*
X10025D02*
D03*
X4625D02*
D03*
X4675D02*
D03*
X4725D02*
D03*
X4775D02*
D03*
X4825D02*
D03*
X4875D02*
D03*
X4925D02*
D03*
X4975D02*
D03*
X5075D02*
D03*
X4625Y1581D02*
D03*
X4675D02*
D03*
X4725D02*
D03*
X4775D02*
D03*
X4825D02*
D03*
X4875D02*
D03*
X4925D02*
D03*
X4975D02*
D03*
X5025D02*
D03*
X7175Y3919D02*
D03*
X7225D02*
D03*
X7275D02*
D03*
X7325D02*
D03*
X7375D02*
D03*
X7425D02*
D03*
X7475D02*
D03*
X7525D02*
D03*
X7625D02*
D03*
X7175Y4281D02*
D03*
X7225D02*
D03*
X7275D02*
D03*
X7325D02*
D03*
X7375D02*
D03*
X7425D02*
D03*
X7475D02*
D03*
X7525D02*
D03*
X7575D02*
D03*
X7625D02*
D03*
X7175Y2219D02*
D03*
X7225D02*
D03*
X7275D02*
D03*
X7325D02*
D03*
X7375D02*
D03*
X7425D02*
D03*
X7475D02*
D03*
X7525D02*
D03*
X7625D02*
D03*
X7175Y2581D02*
D03*
X7225D02*
D03*
X7275D02*
D03*
X7325D02*
D03*
X7375D02*
D03*
X7425D02*
D03*
X7475D02*
D03*
X7525D02*
D03*
X7575D02*
D03*
X5325Y1219D02*
D03*
X5375D02*
D03*
X5425D02*
D03*
X5475D02*
D03*
X5525D02*
D03*
X5575D02*
D03*
X5625D02*
D03*
X5675D02*
D03*
X5775D02*
D03*
X5325Y1581D02*
D03*
X5375D02*
D03*
X5425D02*
D03*
X5475D02*
D03*
X5525D02*
D03*
X5575D02*
D03*
X5625D02*
D03*
X5675D02*
D03*
X5725D02*
D03*
X6025Y1219D02*
D03*
X6075D02*
D03*
X6125D02*
D03*
X6175D02*
D03*
X6225D02*
D03*
X6275D02*
D03*
X6325D02*
D03*
X6375D02*
D03*
X6475D02*
D03*
X6025Y1581D02*
D03*
X6075D02*
D03*
X6125D02*
D03*
X6175D02*
D03*
X6225D02*
D03*
X6275D02*
D03*
X6325D02*
D03*
X6375D02*
D03*
X6425D02*
D03*
X8625Y1219D02*
D03*
X8675D02*
D03*
X8725D02*
D03*
X8775D02*
D03*
X8825D02*
D03*
X8875D02*
D03*
X8925D02*
D03*
X8975D02*
D03*
X9075D02*
D03*
X8625Y1581D02*
D03*
X8675D02*
D03*
X8725D02*
D03*
X8775D02*
D03*
X8825D02*
D03*
X8875D02*
D03*
X8925D02*
D03*
X8975D02*
D03*
X9025D02*
D03*
X9325Y1219D02*
D03*
X9375D02*
D03*
X9425D02*
D03*
X9475D02*
D03*
X9525D02*
D03*
X9575D02*
D03*
X9625D02*
D03*
X9675D02*
D03*
X9775D02*
D03*
X9325Y1581D02*
D03*
X9375D02*
D03*
X9425D02*
D03*
X9475D02*
D03*
X9525D02*
D03*
X9575D02*
D03*
X9625D02*
D03*
X9675D02*
D03*
X9725D02*
D03*
X7175Y1519D02*
D03*
X7225D02*
D03*
X7275D02*
D03*
X7325D02*
D03*
X7375D02*
D03*
X7425D02*
D03*
X7475D02*
D03*
X7525D02*
D03*
X7575D02*
D03*
X7625D02*
D03*
X7175Y1881D02*
D03*
X7225D02*
D03*
X7275D02*
D03*
X7325D02*
D03*
X7375D02*
D03*
X7425D02*
D03*
X7475D02*
D03*
X7525D02*
D03*
X7575D02*
D03*
X7625D02*
D03*
X7175Y3219D02*
D03*
X7225D02*
D03*
X7275D02*
D03*
X7325D02*
D03*
X7375D02*
D03*
X7425D02*
D03*
X7475D02*
D03*
X7525D02*
D03*
X7575D02*
D03*
X7625D02*
D03*
X7175Y3581D02*
D03*
X7225D02*
D03*
X7275D02*
D03*
X7325D02*
D03*
X7375D02*
D03*
X7425D02*
D03*
X7475D02*
D03*
X7525D02*
D03*
X7575D02*
D03*
X7625D02*
D03*
X7575Y3919D02*
D03*
Y2219D02*
D03*
X5025Y1219D02*
D03*
X5725D02*
D03*
X6425D02*
D03*
X9025D02*
D03*
X9725D02*
D03*
X10425D02*
D03*
D19*
X7476Y733D02*
D03*
Y950D02*
D03*
X7350Y733D02*
D03*
Y950D02*
D03*
D20*
X4780Y4925D02*
D03*
Y4975D02*
D03*
Y5025D02*
D03*
Y5075D02*
D03*
Y5125D02*
D03*
Y5175D02*
D03*
Y5225D02*
D03*
Y5275D02*
D03*
X4420Y4925D02*
D03*
Y4975D02*
D03*
Y5025D02*
D03*
Y5075D02*
D03*
Y5125D02*
D03*
Y5175D02*
D03*
Y5225D02*
D03*
Y5275D02*
D03*
X4920D02*
D03*
Y5225D02*
D03*
Y5175D02*
D03*
Y5125D02*
D03*
Y5075D02*
D03*
Y5025D02*
D03*
Y4975D02*
D03*
Y4925D02*
D03*
X5280Y5275D02*
D03*
Y5225D02*
D03*
Y5175D02*
D03*
Y5125D02*
D03*
Y5075D02*
D03*
Y5025D02*
D03*
Y4975D02*
D03*
Y4925D02*
D03*
X5780D02*
D03*
Y4975D02*
D03*
Y5025D02*
D03*
Y5075D02*
D03*
Y5125D02*
D03*
Y5175D02*
D03*
Y5225D02*
D03*
Y5275D02*
D03*
X5420Y4925D02*
D03*
Y4975D02*
D03*
Y5025D02*
D03*
Y5075D02*
D03*
Y5125D02*
D03*
Y5175D02*
D03*
Y5225D02*
D03*
Y5275D02*
D03*
X5920D02*
D03*
Y5225D02*
D03*
Y5175D02*
D03*
Y5125D02*
D03*
Y5075D02*
D03*
Y5025D02*
D03*
Y4975D02*
D03*
Y4925D02*
D03*
X6280Y5275D02*
D03*
Y5225D02*
D03*
Y5175D02*
D03*
Y5125D02*
D03*
Y5075D02*
D03*
Y5025D02*
D03*
Y4975D02*
D03*
Y4925D02*
D03*
D21*
X12495Y3700D02*
D03*
X10870D02*
D03*
X9245D02*
D03*
X5995D02*
D03*
X4370D02*
D03*
X2745D02*
D03*
X12355D02*
D03*
X10730D02*
D03*
X9105D02*
D03*
X5855D02*
D03*
X4230D02*
D03*
X2605D02*
D03*
X12155Y2600D02*
D03*
X10530D02*
D03*
X8905D02*
D03*
X5655D02*
D03*
X4030D02*
D03*
X2405D02*
D03*
X12300D02*
D03*
X10675D02*
D03*
X9050D02*
D03*
X5800D02*
D03*
X4175D02*
D03*
X2550D02*
D03*
X12595Y4350D02*
D03*
X10970D02*
D03*
X9345D02*
D03*
X6095D02*
D03*
X4470D02*
D03*
X2845D02*
D03*
X12475D02*
D03*
X10850D02*
D03*
X9225D02*
D03*
X5975D02*
D03*
X4350D02*
D03*
X2725D02*
D03*
X2855Y3700D02*
D03*
X2495D02*
D03*
X2295Y2600D02*
D03*
X2660D02*
D03*
X2955Y4350D02*
D03*
X2615D02*
D03*
X4480Y3700D02*
D03*
X4120D02*
D03*
X3920Y2600D02*
D03*
X4285D02*
D03*
X4580Y4350D02*
D03*
X4240D02*
D03*
X6105Y3700D02*
D03*
X5745D02*
D03*
X5545Y2600D02*
D03*
X5910D02*
D03*
X6205Y4350D02*
D03*
X5865D02*
D03*
X9355Y3700D02*
D03*
X8995D02*
D03*
X8795Y2600D02*
D03*
X9160D02*
D03*
X9455Y4350D02*
D03*
X9115D02*
D03*
X10980Y3700D02*
D03*
X10620D02*
D03*
X10420Y2600D02*
D03*
X10785D02*
D03*
X11080Y4350D02*
D03*
X10740D02*
D03*
X12605Y3700D02*
D03*
X12245D02*
D03*
X12045Y2600D02*
D03*
X12410D02*
D03*
X12705Y4350D02*
D03*
X12365D02*
D03*
D22*
X12150Y4145D02*
D03*
X10525D02*
D03*
X8900D02*
D03*
X5650D02*
D03*
X4025D02*
D03*
X2400D02*
D03*
X12100Y3955D02*
D03*
X10475D02*
D03*
X8850D02*
D03*
X5600D02*
D03*
X3975D02*
D03*
X2350D02*
D03*
X12000Y3045D02*
D03*
X10375D02*
D03*
X8750D02*
D03*
X5500D02*
D03*
X3875D02*
D03*
X2250D02*
D03*
X11955Y2855D02*
D03*
X10330D02*
D03*
X8705D02*
D03*
X5455D02*
D03*
X3830D02*
D03*
X2205D02*
D03*
X12600Y2800D02*
D03*
X10975D02*
D03*
X9350D02*
D03*
X6100D02*
D03*
X4475D02*
D03*
X2850D02*
D03*
X12650Y3000D02*
D03*
X11025D02*
D03*
X9400D02*
D03*
X6150D02*
D03*
X4525D02*
D03*
X2900D02*
D03*
X12800Y3905D02*
D03*
X11175D02*
D03*
X9550D02*
D03*
X6300D02*
D03*
X4675D02*
D03*
X3050D02*
D03*
X12850Y4095D02*
D03*
X11225D02*
D03*
X9600D02*
D03*
X6350D02*
D03*
X4725D02*
D03*
X3100D02*
D03*
X7925Y355D02*
D03*
Y245D02*
D03*
X2400Y4255D02*
D03*
X2350Y3845D02*
D03*
X2250Y3155D02*
D03*
X2205Y2745D02*
D03*
X2850Y2690D02*
D03*
X2900Y3110D02*
D03*
X3050Y3795D02*
D03*
X3100Y4205D02*
D03*
X4025Y4255D02*
D03*
X3975Y3845D02*
D03*
X3875Y3155D02*
D03*
X3830Y2745D02*
D03*
X4475Y2690D02*
D03*
X4525Y3110D02*
D03*
X4675Y3795D02*
D03*
X4725Y4205D02*
D03*
X5650Y4255D02*
D03*
X5600Y3845D02*
D03*
X5500Y3155D02*
D03*
X5455Y2745D02*
D03*
X6100Y2690D02*
D03*
X6150Y3110D02*
D03*
X6300Y3795D02*
D03*
X6350Y4205D02*
D03*
X7130Y855D02*
D03*
Y745D02*
D03*
X8900Y4255D02*
D03*
X8850Y3845D02*
D03*
X8750Y3155D02*
D03*
X8705Y2745D02*
D03*
X9350Y2690D02*
D03*
X9400Y3110D02*
D03*
X9550Y3795D02*
D03*
X9600Y4205D02*
D03*
X8100Y295D02*
D03*
Y185D02*
D03*
X8840Y425D02*
D03*
Y535D02*
D03*
X9015Y245D02*
D03*
Y355D02*
D03*
X10525Y4255D02*
D03*
X10475Y3845D02*
D03*
X10375Y3155D02*
D03*
X10330Y2745D02*
D03*
X10975Y2690D02*
D03*
X11025Y3110D02*
D03*
X11175Y3795D02*
D03*
X11225Y4205D02*
D03*
X12150Y4255D02*
D03*
X12100Y3845D02*
D03*
X12000Y3155D02*
D03*
X11955Y2745D02*
D03*
X12600Y2690D02*
D03*
X12650Y3110D02*
D03*
X12800Y3795D02*
D03*
X12850Y4205D02*
D03*
D23*
X12527Y3946D02*
D03*
X12490Y3854D02*
D03*
X10902Y3946D02*
D03*
X10865Y3854D02*
D03*
X9277Y3946D02*
D03*
X9240Y3854D02*
D03*
X6027Y3946D02*
D03*
X5990Y3854D02*
D03*
X4402Y3946D02*
D03*
X4365Y3854D02*
D03*
X2777Y3946D02*
D03*
X2740Y3854D02*
D03*
X12273Y3954D02*
D03*
X12310Y4046D02*
D03*
X10648Y3954D02*
D03*
X10685Y4046D02*
D03*
X9023Y3954D02*
D03*
X9060Y4046D02*
D03*
X5773Y3954D02*
D03*
X5810Y4046D02*
D03*
X4148Y3954D02*
D03*
X4185Y4046D02*
D03*
X2523Y3954D02*
D03*
X2560Y4046D02*
D03*
X12083Y2854D02*
D03*
X12120Y2946D02*
D03*
X10458Y2854D02*
D03*
X10495Y2946D02*
D03*
X8833Y2854D02*
D03*
X8870Y2946D02*
D03*
X5583Y2854D02*
D03*
X5620Y2946D02*
D03*
X3958Y2854D02*
D03*
X3995Y2946D02*
D03*
X2333Y2854D02*
D03*
X2370Y2946D02*
D03*
X12337Y2846D02*
D03*
X12300Y2754D02*
D03*
X10712Y2846D02*
D03*
X10675Y2754D02*
D03*
X9087Y2846D02*
D03*
X9050Y2754D02*
D03*
X5837Y2846D02*
D03*
X5800Y2754D02*
D03*
X4212Y2846D02*
D03*
X4175Y2754D02*
D03*
X2587Y2846D02*
D03*
X2550Y2754D02*
D03*
X12443Y2854D02*
D03*
X12480Y2946D02*
D03*
X10818Y2854D02*
D03*
X10855Y2946D02*
D03*
X9193Y2854D02*
D03*
X9230Y2946D02*
D03*
X5943Y2854D02*
D03*
X5980Y2946D02*
D03*
X4318Y2854D02*
D03*
X4355Y2946D02*
D03*
X2693Y2854D02*
D03*
X2730Y2946D02*
D03*
X12633Y3954D02*
D03*
X12670Y4046D02*
D03*
X11008Y3954D02*
D03*
X11045Y4046D02*
D03*
X9383Y3954D02*
D03*
X9420Y4046D02*
D03*
X6133Y3954D02*
D03*
X6170Y4046D02*
D03*
X4508Y3954D02*
D03*
X4545Y4046D02*
D03*
X2883Y3954D02*
D03*
X2920Y4046D02*
D03*
X12463Y4089D02*
D03*
X12500Y4181D02*
D03*
X10838Y4089D02*
D03*
X10875Y4181D02*
D03*
X9213Y4089D02*
D03*
X9250Y4181D02*
D03*
X5963Y4089D02*
D03*
X6000Y4181D02*
D03*
X4338Y4089D02*
D03*
X4375Y4181D02*
D03*
X2713Y4089D02*
D03*
X2750Y4181D02*
D03*
X5850Y5896D02*
D03*
X6000D02*
D03*
X6150D02*
D03*
X5813Y5804D02*
D03*
X5963D02*
D03*
X6113D02*
D03*
D24*
X12453Y3946D02*
D03*
X10828D02*
D03*
X9203D02*
D03*
X5953D02*
D03*
X4328D02*
D03*
X2703D02*
D03*
X12347Y3954D02*
D03*
X10722D02*
D03*
X9097D02*
D03*
X5847D02*
D03*
X4222D02*
D03*
X2597D02*
D03*
X12157Y2854D02*
D03*
X10532D02*
D03*
X8907D02*
D03*
X5657D02*
D03*
X4032D02*
D03*
X2407D02*
D03*
X12263Y2846D02*
D03*
X10638D02*
D03*
X9013D02*
D03*
X5763D02*
D03*
X4138D02*
D03*
X2513D02*
D03*
X12517Y2854D02*
D03*
X10892D02*
D03*
X9267D02*
D03*
X6017D02*
D03*
X4392D02*
D03*
X2767D02*
D03*
X12707Y3954D02*
D03*
X11082D02*
D03*
X9457D02*
D03*
X6207D02*
D03*
X4582D02*
D03*
X2957D02*
D03*
X12537Y4089D02*
D03*
X10912D02*
D03*
X9287D02*
D03*
X6037D02*
D03*
X4412D02*
D03*
X2787D02*
D03*
X5887Y5804D02*
D03*
X6037D02*
D03*
X6187D02*
D03*
D25*
X10100Y5025D02*
D03*
Y4775D02*
D03*
X9900D02*
D03*
Y5025D02*
D03*
D26*
X10800Y6870D02*
D03*
Y6730D02*
D03*
X5515Y5965D02*
D03*
X13800Y3905D02*
D03*
Y3765D02*
D03*
X10400Y6730D02*
D03*
Y6870D02*
D03*
X5515Y6105D02*
D03*
X10400Y6430D02*
D03*
Y6570D02*
D03*
X10625Y6130D02*
D03*
Y6270D02*
D03*
X8580Y410D02*
D03*
Y550D02*
D03*
X8365Y410D02*
D03*
Y550D02*
D03*
X8580Y730D02*
D03*
Y870D02*
D03*
X7050Y5830D02*
D03*
Y5970D02*
D03*
D27*
X8895Y4997D02*
D03*
Y5602D02*
D03*
D28*
X8100Y6075D02*
D03*
X7900D02*
D03*
X9400Y5325D02*
D03*
X9600D02*
D03*
D29*
X8000Y6450D02*
D03*
X9500Y5700D02*
D03*
D30*
X9850Y5372D02*
D03*
X9900D02*
D03*
X9950D02*
D03*
X10000D02*
D03*
X10050D02*
D03*
X10100D02*
D03*
X10150D02*
D03*
D31*
X10000Y5700D02*
D03*
D32*
X4510Y5871D02*
D03*
D33*
X4536D02*
D03*
X4562D02*
D03*
X4587D02*
D03*
X4613D02*
D03*
X4638D02*
D03*
X4664D02*
D03*
X4690D02*
D03*
X4510Y6129D02*
D03*
X4536D02*
D03*
X4562D02*
D03*
X4587D02*
D03*
X4613D02*
D03*
X4638D02*
D03*
X4664D02*
D03*
X4690D02*
D03*
D34*
X7105Y4600D02*
D03*
X7395D02*
D03*
D35*
X383Y735D02*
D03*
X517D02*
D03*
X14483Y2340D02*
D03*
X14617D02*
D03*
X14483Y990D02*
D03*
X14617D02*
D03*
Y1640D02*
D03*
X14483D02*
D03*
Y1990D02*
D03*
X14617D02*
D03*
X383Y4655D02*
D03*
X517D02*
D03*
Y4050D02*
D03*
X383D02*
D03*
X14617Y2940D02*
D03*
X14483D02*
D03*
X517Y6005D02*
D03*
X383D02*
D03*
Y5355D02*
D03*
X517D02*
D03*
Y5005D02*
D03*
X383D02*
D03*
X14617Y4265D02*
D03*
X14483D02*
D03*
X14488Y4910D02*
D03*
X14622D02*
D03*
X14612Y5260D02*
D03*
X14478D02*
D03*
X14483Y5630D02*
D03*
X14617D02*
D03*
X14612Y6220D02*
D03*
X14478D02*
D03*
X517Y2735D02*
D03*
X383D02*
D03*
Y2085D02*
D03*
X517D02*
D03*
Y1735D02*
D03*
X383D02*
D03*
Y1385D02*
D03*
X517D02*
D03*
D36*
X5355Y5800D02*
D03*
X13640Y3600D02*
D03*
X13460D02*
D03*
X5175Y5800D02*
D03*
D37*
X12125Y5300D02*
D03*
Y5100D02*
D03*
Y500D02*
D03*
Y300D02*
D03*
X11225Y5650D02*
D03*
Y5450D02*
D03*
Y850D02*
D03*
Y650D02*
D03*
X12125Y6000D02*
D03*
Y5800D02*
D03*
Y1200D02*
D03*
Y1000D02*
D03*
X11225Y6350D02*
D03*
Y6150D02*
D03*
Y1550D02*
D03*
Y1350D02*
D03*
X12125Y6700D02*
D03*
Y6500D02*
D03*
Y1900D02*
D03*
Y1700D02*
D03*
X2875D02*
D03*
Y1900D02*
D03*
Y6500D02*
D03*
Y6700D02*
D03*
X3780Y1350D02*
D03*
Y1550D02*
D03*
X3775Y6150D02*
D03*
Y6350D02*
D03*
X2875Y1000D02*
D03*
Y1200D02*
D03*
Y5800D02*
D03*
Y6000D02*
D03*
X3775Y650D02*
D03*
Y850D02*
D03*
Y5450D02*
D03*
Y5650D02*
D03*
X2875Y300D02*
D03*
Y500D02*
D03*
Y5100D02*
D03*
Y5300D02*
D03*
D38*
X12500Y5200D02*
D03*
Y400D02*
D03*
X11600Y5550D02*
D03*
Y750D02*
D03*
X12500Y5900D02*
D03*
Y1100D02*
D03*
X11600Y6250D02*
D03*
Y1450D02*
D03*
X12500Y6600D02*
D03*
Y1800D02*
D03*
X2500D02*
D03*
Y6600D02*
D03*
X3405Y1450D02*
D03*
X3400Y6250D02*
D03*
X2500Y1100D02*
D03*
Y5900D02*
D03*
X3400Y750D02*
D03*
Y5550D02*
D03*
X2500Y400D02*
D03*
Y5200D02*
D03*
D39*
X13550Y3870D02*
D03*
X5265Y6070D02*
D03*
D40*
X7005Y725D02*
D03*
Y775D02*
D03*
Y825D02*
D03*
Y875D02*
D03*
X6795Y725D02*
D03*
Y775D02*
D03*
Y825D02*
D03*
Y875D02*
D03*
D41*
X8839Y719D02*
D03*
D42*
X600Y6900D02*
D03*
X14400Y100D02*
D03*
X100Y600D02*
D03*
D43*
X10781Y5380D02*
D03*
X10529D02*
D03*
X10786Y4955D02*
D03*
X10534D02*
D03*
D44*
X14120Y4250D02*
D03*
D45*
X13860D02*
D03*
D54*
X15055Y4785D02*
Y4815D01*
Y4800D01*
X15100D01*
Y4837D02*
Y4852D01*
X15093Y4860D01*
X15078D01*
X15070Y4852D01*
Y4837D01*
X15078Y4830D01*
X15093D01*
X15100Y4837D01*
X15115Y4875D02*
X15070D01*
Y4897D01*
X15078Y4905D01*
X15093D01*
X15100Y4897D01*
Y4875D01*
Y4965D02*
X15055D01*
Y4987D01*
X15063Y4995D01*
X15078D01*
X15085Y4987D01*
Y4965D01*
X15070Y5017D02*
Y5032D01*
X15078Y5040D01*
X15100D01*
Y5017D01*
X15093Y5010D01*
X15085Y5017D01*
Y5040D01*
X15100Y5055D02*
Y5077D01*
X15093Y5085D01*
X15085Y5077D01*
Y5062D01*
X15078Y5055D01*
X15070Y5062D01*
Y5085D01*
X15063Y5107D02*
X15070D01*
Y5100D01*
Y5115D01*
Y5107D01*
X15093D01*
X15100Y5115D01*
Y5160D02*
Y5145D01*
X15093Y5137D01*
X15078D01*
X15070Y5145D01*
Y5160D01*
X15078Y5167D01*
X15085D01*
Y5137D01*
M02*
