%FSLAX23Y23*%
%MOIN*%
G70*
G01*
G75*
G04 Layer_Color=128*
%ADD10R,0.012X0.063*%
%ADD11R,0.050X0.055*%
%ADD12R,0.063X0.012*%
%ADD13R,0.055X0.050*%
%ADD14R,0.012X0.024*%
%ADD15R,0.024X0.012*%
%ADD16R,0.132X0.132*%
%ADD17R,0.024X0.081*%
%ADD18R,0.024X0.087*%
%ADD19R,0.075X0.051*%
%ADD20R,0.089X0.024*%
%ADD21R,0.055X0.065*%
%ADD22R,0.065X0.055*%
%ADD23R,0.035X0.037*%
%ADD24R,0.035X0.037*%
%ADD25R,0.100X0.100*%
%ADD26R,0.050X0.110*%
%ADD27R,0.110X0.115*%
%ADD28R,0.080X0.160*%
%ADD29R,0.450X0.450*%
%ADD30R,0.036X0.085*%
%ADD31R,0.425X0.410*%
%ADD32R,0.016X0.085*%
%ADD33R,0.016X0.085*%
%ADD34R,0.200X0.100*%
%ADD35R,0.063X0.031*%
%ADD36R,0.039X0.063*%
%ADD37R,0.160X0.080*%
%ADD38R,0.450X0.450*%
%ADD39R,0.217X0.280*%
%ADD40R,0.081X0.024*%
%ADD41R,0.012X0.063*%
%ADD42C,0.050*%
%ADD43R,0.102X0.094*%
%ADD44R,0.079X0.126*%
%ADD45R,0.079X0.126*%
%ADD46C,0.010*%
%ADD47C,0.020*%
%ADD48C,0.050*%
%ADD49C,0.030*%
%ADD50C,0.100*%
%ADD51C,0.150*%
%ADD52C,0.035*%
%ADD53C,0.040*%
%ADD54C,0.005*%
%ADD55C,0.100*%
%ADD56R,0.100X0.100*%
%ADD57C,0.125*%
%ADD58O,0.125X0.160*%
%ADD59R,0.125X0.160*%
%ADD60C,0.065*%
%ADD61R,0.065X0.065*%
%ADD62C,0.079*%
%ADD63R,0.160X0.125*%
%ADD64O,0.160X0.125*%
%ADD65C,0.070*%
%ADD66R,0.070X0.070*%
%ADD67C,0.060*%
%ADD68C,0.150*%
%ADD69R,0.070X0.070*%
%ADD70C,0.150*%
%ADD71C,0.140*%
%ADD72C,0.024*%
%ADD73C,0.008*%
%ADD74C,0.102*%
%ADD75C,0.165*%
%ADD76C,0.120*%
%ADD77C,0.080*%
%ADD78C,0.087*%
%ADD79C,0.196*%
%ADD80C,0.590*%
%ADD81C,0.072*%
%ADD82C,0.131*%
%ADD83C,0.085*%
%ADD84C,0.130*%
%ADD85C,0.052*%
%ADD86C,0.068*%
%ADD87C,0.160*%
%ADD88C,0.080*%
%ADD89C,0.010*%
%ADD90C,0.008*%
%ADD91C,0.005*%
%ADD92C,0.031*%
%ADD93C,0.008*%
%ADD94C,0.001*%
%ADD95C,0.002*%
%ADD96C,0.015*%
%ADD97R,0.020X0.071*%
%ADD98R,0.058X0.063*%
%ADD99R,0.071X0.020*%
%ADD100R,0.063X0.058*%
%ADD101R,0.016X0.028*%
%ADD102R,0.028X0.016*%
%ADD103R,0.140X0.140*%
%ADD104R,0.032X0.089*%
%ADD105R,0.032X0.095*%
%ADD106R,0.083X0.059*%
%ADD107R,0.097X0.032*%
%ADD108R,0.063X0.073*%
%ADD109R,0.073X0.063*%
%ADD110R,0.043X0.045*%
%ADD111R,0.043X0.045*%
%ADD112R,0.108X0.108*%
%ADD113R,0.058X0.118*%
%ADD114R,0.118X0.123*%
%ADD115R,0.088X0.168*%
%ADD116R,0.458X0.458*%
%ADD117R,0.044X0.093*%
%ADD118R,0.433X0.418*%
%ADD119R,0.024X0.093*%
%ADD120R,0.024X0.093*%
%ADD121R,0.208X0.108*%
%ADD122R,0.071X0.039*%
%ADD123R,0.047X0.071*%
%ADD124R,0.168X0.088*%
%ADD125R,0.458X0.458*%
%ADD126R,0.225X0.288*%
%ADD127R,0.089X0.032*%
%ADD128R,0.020X0.071*%
%ADD129C,0.090*%
%ADD130C,0.058*%
%ADD131R,0.110X0.102*%
%ADD132R,0.087X0.134*%
%ADD133R,0.087X0.134*%
%ADD134C,0.108*%
%ADD135R,0.108X0.108*%
%ADD136C,0.133*%
%ADD137O,0.133X0.168*%
%ADD138R,0.133X0.168*%
%ADD139C,0.073*%
%ADD140R,0.073X0.073*%
%ADD141C,0.087*%
%ADD142R,0.168X0.133*%
%ADD143O,0.168X0.133*%
%ADD144C,0.008*%
%ADD145C,0.078*%
%ADD146R,0.078X0.078*%
%ADD147C,0.158*%
%ADD148R,0.078X0.078*%
%ADD149C,0.158*%
%ADD150C,0.148*%
%ADD151C,0.032*%
D54*
X15055Y4785D02*
X15100D01*
Y4807D01*
X15093Y4815D01*
X15085D01*
X15078Y4807D01*
Y4785D01*
Y4807D01*
X15070Y4815D01*
X15063D01*
X15055Y4807D01*
Y4785D01*
X15100Y4837D02*
Y4852D01*
X15093Y4860D01*
X15078D01*
X15070Y4852D01*
Y4837D01*
X15078Y4830D01*
X15093D01*
X15100Y4837D01*
X15063Y4882D02*
X15070D01*
Y4875D01*
Y4890D01*
Y4882D01*
X15093D01*
X15100Y4890D01*
X15063Y4920D02*
X15070D01*
Y4912D01*
Y4927D01*
Y4920D01*
X15093D01*
X15100Y4927D01*
Y4957D02*
Y4972D01*
X15093Y4980D01*
X15078D01*
X15070Y4972D01*
Y4957D01*
X15078Y4950D01*
X15093D01*
X15100Y4957D01*
Y4995D02*
X15070D01*
Y5002D01*
X15078Y5010D01*
X15100D01*
X15078D01*
X15070Y5017D01*
X15078Y5025D01*
X15100D01*
Y5085D02*
X15055D01*
Y5107D01*
X15063Y5115D01*
X15078D01*
X15085Y5107D01*
Y5085D01*
X15070Y5137D02*
Y5152D01*
X15078Y5160D01*
X15100D01*
Y5137D01*
X15093Y5130D01*
X15085Y5137D01*
Y5160D01*
X15100Y5175D02*
Y5197D01*
X15093Y5205D01*
X15085Y5197D01*
Y5182D01*
X15078Y5175D01*
X15070Y5182D01*
Y5205D01*
X15063Y5227D02*
X15070D01*
Y5220D01*
Y5235D01*
Y5227D01*
X15093D01*
X15100Y5235D01*
Y5280D02*
Y5265D01*
X15093Y5257D01*
X15078D01*
X15070Y5265D01*
Y5280D01*
X15078Y5287D01*
X15085D01*
Y5257D01*
M02*
