%FSLAX23Y23*%
%MOIN*%
G70*
G01*
G75*
G04 Layer_Physical_Order=1*
G04 Layer_Color=255*
%ADD10R,0.012X0.063*%
%ADD11R,0.050X0.055*%
%ADD12R,0.063X0.012*%
%ADD13R,0.055X0.050*%
%ADD14R,0.012X0.024*%
%ADD15R,0.024X0.012*%
%ADD16R,0.132X0.132*%
%ADD17R,0.024X0.081*%
%ADD18R,0.024X0.087*%
%ADD19R,0.075X0.051*%
%ADD20R,0.089X0.024*%
%ADD21R,0.055X0.065*%
%ADD22R,0.065X0.055*%
%ADD23R,0.035X0.037*%
%ADD24R,0.035X0.037*%
%ADD25R,0.100X0.100*%
%ADD26R,0.050X0.110*%
%ADD27R,0.110X0.115*%
%ADD28R,0.080X0.160*%
%ADD29R,0.450X0.450*%
%ADD30R,0.036X0.085*%
%ADD31R,0.425X0.410*%
%ADD32R,0.016X0.085*%
%ADD33R,0.016X0.085*%
%ADD34R,0.200X0.100*%
%ADD35R,0.063X0.031*%
%ADD36R,0.039X0.063*%
%ADD37R,0.160X0.080*%
%ADD38R,0.450X0.450*%
%ADD39R,0.217X0.280*%
%ADD40R,0.081X0.024*%
%ADD41R,0.012X0.063*%
%ADD42C,0.050*%
%ADD43R,0.102X0.094*%
%ADD44R,0.079X0.126*%
%ADD45R,0.079X0.126*%
%ADD46C,0.010*%
%ADD47C,0.020*%
%ADD48C,0.050*%
%ADD49C,0.030*%
%ADD50C,0.100*%
%ADD51C,0.150*%
%ADD52C,0.035*%
%ADD53C,0.040*%
%ADD54C,0.005*%
%ADD55C,0.100*%
%ADD56R,0.100X0.100*%
%ADD57C,0.125*%
%ADD58O,0.125X0.160*%
%ADD59R,0.125X0.160*%
%ADD60C,0.065*%
%ADD61R,0.065X0.065*%
%ADD62C,0.079*%
%ADD63R,0.160X0.125*%
%ADD64O,0.160X0.125*%
%ADD65C,0.070*%
%ADD66R,0.070X0.070*%
%ADD67C,0.060*%
%ADD68C,0.150*%
%ADD69R,0.070X0.070*%
%ADD70C,0.150*%
%ADD71C,0.140*%
%ADD72C,0.024*%
G36*
X9750Y5415D02*
X9200D01*
Y5256D01*
X8700D01*
Y5800D01*
X8900Y6000D01*
X9750D01*
Y5415D01*
D02*
G37*
G36*
X5600Y5735D02*
X5300D01*
Y5855D01*
X5450D01*
X5456Y5856D01*
X5461Y5859D01*
X5464Y5864D01*
X5465Y5870D01*
Y6035D01*
X5600D01*
Y5735D01*
D02*
G37*
G36*
X5450Y5870D02*
X5105D01*
X5105Y5956D01*
X5108Y5958D01*
X5108D01*
Y6038D01*
X5100D01*
Y6300D01*
X5450D01*
Y5870D01*
D02*
G37*
G36*
X9200Y4900D02*
X10300D01*
Y4650D01*
X8700D01*
Y5250D01*
X9200D01*
Y4900D01*
D02*
G37*
G36*
X10825Y5750D02*
Y5600D01*
X11000D01*
Y4650D01*
X10665D01*
Y5600D01*
X10664Y5606D01*
X10661Y5611D01*
X10656Y5614D01*
X10650Y5615D01*
X10350D01*
X10344Y5614D01*
X10339Y5611D01*
X10336Y5606D01*
X10335Y5600D01*
X10260D01*
Y5800D01*
X10775D01*
X10825Y5750D01*
D02*
G37*
G36*
X10650Y4650D02*
X10315D01*
Y4900D01*
X10314Y4906D01*
X10311Y4911D01*
X10306Y4914D01*
X10300Y4915D01*
X9215D01*
Y5250D01*
X9215Y5253D01*
X9215Y5256D01*
Y5400D01*
X9345D01*
Y5230D01*
X9455D01*
Y5400D01*
X9554D01*
Y5350D01*
X9646D01*
Y5400D01*
X9750D01*
X9751Y5400D01*
X9815D01*
Y5293D01*
X9808D01*
Y5207D01*
X9962D01*
Y5261D01*
X9964Y5264D01*
X9969Y5270D01*
X9970Y5278D01*
Y5314D01*
X9983D01*
Y5324D01*
X9983D01*
Y5372D01*
X10017D01*
Y5324D01*
X10017D01*
Y5314D01*
X10080D01*
Y5293D01*
X10047D01*
Y5284D01*
X10047D01*
X10044D01*
X10043Y5284D01*
X10043Y5284D01*
Y5284D01*
X10038D01*
Y5250D01*
Y5216D01*
X10043D01*
X10047Y5213D01*
Y5207D01*
X10127D01*
Y5230D01*
X10138D01*
Y5207D01*
X10212D01*
Y5182D01*
X10213Y5172D01*
X10217Y5162D01*
X10223Y5153D01*
X10232Y5147D01*
X10242Y5143D01*
X10252Y5142D01*
X10262Y5143D01*
X10272Y5147D01*
X10281Y5153D01*
X10287Y5162D01*
X10291Y5172D01*
X10292Y5182D01*
Y5250D01*
X10292Y5253D01*
Y5293D01*
X10179D01*
X10176Y5297D01*
X10176Y5298D01*
X10177Y5305D01*
X10176Y5312D01*
X10175Y5314D01*
Y5314D01*
X10183D01*
Y5400D01*
X10257D01*
Y5397D01*
X10263D01*
X10267Y5393D01*
Y5388D01*
X10333D01*
Y5393D01*
X10333Y5393D01*
D01*
D01*
X10333Y5394D01*
D01*
X10337Y5397D01*
X10342D01*
Y5400D01*
X10350D01*
Y5600D01*
X10650D01*
Y4650D01*
D02*
G37*
%LPC*%
G36*
X10843Y5008D02*
X10811D01*
Y4980D01*
X10843D01*
Y5008D01*
D02*
G37*
G36*
X10761D02*
X10729D01*
Y4980D01*
X10761D01*
Y5008D01*
D02*
G37*
G36*
X10156Y5000D02*
X10125D01*
Y4969D01*
X10156D01*
Y5000D01*
D02*
G37*
G36*
X10075D02*
X10044D01*
Y4969D01*
X10075D01*
Y5000D01*
D02*
G37*
G36*
X10591Y5008D02*
X10559D01*
Y4980D01*
X10591D01*
Y5008D01*
D02*
G37*
G36*
X10509D02*
X10477D01*
Y4980D01*
X10509D01*
Y5008D01*
D02*
G37*
G36*
X10156Y5081D02*
X10125D01*
Y5050D01*
X10156D01*
Y5081D01*
D02*
G37*
G36*
X10075D02*
X10044D01*
Y5050D01*
X10075D01*
Y5081D01*
D02*
G37*
G36*
X9575Y5300D02*
X9554D01*
Y5239D01*
X9575D01*
Y5300D01*
D02*
G37*
G36*
X9988Y5225D02*
X9982D01*
Y5216D01*
X9988D01*
Y5225D01*
D02*
G37*
G36*
X8956Y5061D02*
X8905D01*
Y5008D01*
X8956D01*
Y5061D01*
D02*
G37*
G36*
X8885D02*
X8834D01*
Y5008D01*
X8885D01*
Y5061D01*
D02*
G37*
G36*
X9956Y5081D02*
X9925D01*
Y5050D01*
X9956D01*
Y5081D01*
D02*
G37*
G36*
X9875D02*
X9844D01*
Y5050D01*
X9875D01*
Y5081D01*
D02*
G37*
G36*
X9956Y4831D02*
X9910D01*
Y4785D01*
X9956D01*
Y4831D01*
D02*
G37*
G36*
X9890D02*
X9844D01*
Y4785D01*
X9890D01*
Y4831D01*
D02*
G37*
G36*
X10156D02*
X10110D01*
Y4785D01*
X10156D01*
Y4831D01*
D02*
G37*
G36*
X10090D02*
X10044D01*
Y4785D01*
X10090D01*
Y4831D01*
D02*
G37*
G36*
X9956Y4765D02*
X9910D01*
Y4719D01*
X9956D01*
Y4765D01*
D02*
G37*
G36*
X9890D02*
X9844D01*
Y4719D01*
X9890D01*
Y4765D01*
D02*
G37*
G36*
X10156D02*
X10110D01*
Y4719D01*
X10156D01*
Y4765D01*
D02*
G37*
G36*
X10090D02*
X10044D01*
Y4719D01*
X10090D01*
Y4765D01*
D02*
G37*
G36*
X8956Y4988D02*
X8905D01*
Y4934D01*
X8956D01*
Y4988D01*
D02*
G37*
G36*
X8885D02*
X8834D01*
Y4934D01*
X8885D01*
Y4988D01*
D02*
G37*
G36*
X9956Y5000D02*
X9925D01*
Y4969D01*
X9956D01*
Y5000D01*
D02*
G37*
G36*
X9875D02*
X9844D01*
Y4969D01*
X9875D01*
Y5000D01*
D02*
G37*
G36*
X10591Y4930D02*
X10559D01*
Y4902D01*
X10591D01*
Y4930D01*
D02*
G37*
G36*
X10509D02*
X10477D01*
Y4902D01*
X10509D01*
Y4930D01*
D02*
G37*
G36*
X10843D02*
X10811D01*
Y4902D01*
X10843D01*
Y4930D01*
D02*
G37*
G36*
X10761D02*
X10729D01*
Y4902D01*
X10761D01*
Y4930D01*
D02*
G37*
G36*
X5381Y5790D02*
X5365D01*
Y5763D01*
X5381D01*
Y5790D01*
D02*
G37*
G36*
X5345D02*
X5329D01*
Y5763D01*
X5345D01*
Y5790D01*
D02*
G37*
G36*
X5381Y5838D02*
X5365D01*
Y5810D01*
X5381D01*
Y5838D01*
D02*
G37*
G36*
X5345D02*
X5329D01*
Y5810D01*
X5345D01*
Y5838D01*
D02*
G37*
G36*
X8956Y5666D02*
X8920D01*
Y5628D01*
X8956D01*
Y5666D01*
D02*
G37*
G36*
X8870D02*
X8834D01*
Y5628D01*
X8870D01*
Y5666D01*
D02*
G37*
G36*
X9731Y5931D02*
X9525D01*
Y5725D01*
X9731D01*
Y5931D01*
D02*
G37*
G36*
X9475D02*
X9269D01*
Y5725D01*
X9475D01*
Y5931D01*
D02*
G37*
G36*
X5546Y6026D02*
X5525D01*
Y5975D01*
X5546D01*
Y6026D01*
D02*
G37*
G36*
X5505D02*
X5484D01*
Y5975D01*
X5505D01*
Y6026D01*
D02*
G37*
G36*
X5379Y6216D02*
X5290D01*
Y6095D01*
X5379D01*
Y6216D01*
D02*
G37*
G36*
X5240D02*
X5151D01*
Y6095D01*
X5240D01*
Y6216D01*
D02*
G37*
G36*
X5546Y5955D02*
X5525D01*
Y5904D01*
X5546D01*
Y5955D01*
D02*
G37*
G36*
X5505D02*
X5484D01*
Y5904D01*
X5505D01*
Y5955D01*
D02*
G37*
G36*
X5379Y6045D02*
X5290D01*
Y5924D01*
X5379D01*
Y6045D01*
D02*
G37*
G36*
X5240D02*
X5151D01*
Y5924D01*
X5240D01*
Y6045D01*
D02*
G37*
G36*
X10838Y5355D02*
X10806D01*
Y5327D01*
X10838D01*
Y5355D01*
D02*
G37*
G36*
X10756D02*
X10724D01*
Y5327D01*
X10756D01*
Y5355D01*
D02*
G37*
G36*
X10333Y5338D02*
X10325D01*
Y5332D01*
X10333D01*
Y5338D01*
D02*
G37*
G36*
X10275D02*
X10267D01*
Y5332D01*
X10275D01*
Y5338D01*
D02*
G37*
G36*
X9988Y5284D02*
X9982D01*
Y5275D01*
X9988D01*
Y5284D01*
D02*
G37*
G36*
X9646Y5300D02*
X9625D01*
Y5239D01*
X9646D01*
Y5300D01*
D02*
G37*
G36*
X10586Y5355D02*
X10554D01*
Y5327D01*
X10586D01*
Y5355D01*
D02*
G37*
G36*
X10504D02*
X10472D01*
Y5327D01*
X10504D01*
Y5355D01*
D02*
G37*
G36*
X9731Y5675D02*
X9525D01*
Y5469D01*
X9731D01*
Y5675D01*
D02*
G37*
G36*
X9475D02*
X9269D01*
Y5469D01*
X9475D01*
Y5675D01*
D02*
G37*
G36*
X8956Y5577D02*
X8920D01*
Y5539D01*
X8956D01*
Y5577D01*
D02*
G37*
G36*
X8870D02*
X8834D01*
Y5539D01*
X8870D01*
Y5577D01*
D02*
G37*
G36*
X10586Y5433D02*
X10554D01*
Y5405D01*
X10586D01*
Y5433D01*
D02*
G37*
G36*
X10504D02*
X10472D01*
Y5405D01*
X10504D01*
Y5433D01*
D02*
G37*
G36*
X10838D02*
X10806D01*
Y5405D01*
X10838D01*
Y5433D01*
D02*
G37*
G36*
X10756D02*
X10724D01*
Y5405D01*
X10756D01*
Y5433D01*
D02*
G37*
%LPD*%
D10*
X7225Y5560D02*
D03*
X7126Y5040D02*
D03*
X7565Y1287D02*
D03*
X7540D02*
D03*
X7514D02*
D03*
X7488D02*
D03*
X7463D02*
D03*
X7437D02*
D03*
X7412D02*
D03*
X7386D02*
D03*
X7360D02*
D03*
X7335D02*
D03*
X7565Y1063D02*
D03*
X7540D02*
D03*
X7514D02*
D03*
X7488D02*
D03*
X7463D02*
D03*
X7437D02*
D03*
X7412D02*
D03*
X7386D02*
D03*
X7360D02*
D03*
X7335D02*
D03*
X7244Y5560D02*
D03*
X7264D02*
D03*
X7284D02*
D03*
X7205D02*
D03*
X7067D02*
D03*
X7087D02*
D03*
X7264Y5040D02*
D03*
X7382Y5560D02*
D03*
X7362D02*
D03*
X7343D02*
D03*
X7323D02*
D03*
X7303D02*
D03*
X7185D02*
D03*
X7165D02*
D03*
X7146D02*
D03*
X7126D02*
D03*
X7106D02*
D03*
X7047D02*
D03*
X7028D02*
D03*
X7008D02*
D03*
X7382Y5040D02*
D03*
X7362D02*
D03*
X7323D02*
D03*
X7303D02*
D03*
X7284D02*
D03*
X7244D02*
D03*
X7225D02*
D03*
X7205D02*
D03*
X7185D02*
D03*
X7165D02*
D03*
X7146D02*
D03*
X7106D02*
D03*
X7087D02*
D03*
X7067D02*
D03*
X7047D02*
D03*
X7028D02*
D03*
X7008D02*
D03*
X7343D02*
D03*
X8839Y881D02*
D03*
X8820Y881D02*
D03*
X8800Y881D02*
D03*
X8780D02*
D03*
X8761D02*
D03*
X8820Y719D02*
D03*
X8800D02*
D03*
X8780D02*
D03*
X8761D02*
D03*
D11*
X7052Y6510D02*
D03*
X5137Y650D02*
D03*
X5063D02*
D03*
Y750D02*
D03*
X5137D02*
D03*
X5817Y650D02*
D03*
X5743D02*
D03*
Y745D02*
D03*
X5817D02*
D03*
X4398Y5365D02*
D03*
X4472D02*
D03*
X6978Y6510D02*
D03*
X4637Y4835D02*
D03*
X4563D02*
D03*
X10963Y400D02*
D03*
X11037D02*
D03*
Y850D02*
D03*
X10963D02*
D03*
Y1100D02*
D03*
X11037D02*
D03*
Y1550D02*
D03*
X10963D02*
D03*
Y1800D02*
D03*
X11037D02*
D03*
X3613Y6600D02*
D03*
X3687D02*
D03*
X4037Y6150D02*
D03*
X3963D02*
D03*
Y5900D02*
D03*
X4037D02*
D03*
Y5450D02*
D03*
X3963D02*
D03*
Y5200D02*
D03*
X4037D02*
D03*
X5063Y4835D02*
D03*
X5137D02*
D03*
X10137Y6000D02*
D03*
X10063D02*
D03*
X10013Y5250D02*
D03*
X10087D02*
D03*
X10252D02*
D03*
X10178D02*
D03*
X7387Y4850D02*
D03*
X7313D02*
D03*
X14587Y775D02*
D03*
X14513D02*
D03*
Y875D02*
D03*
X14587D02*
D03*
Y1425D02*
D03*
X14513D02*
D03*
Y1525D02*
D03*
X14587D02*
D03*
Y1775D02*
D03*
X14513D02*
D03*
Y1875D02*
D03*
X14587D02*
D03*
Y2125D02*
D03*
X14513D02*
D03*
Y2225D02*
D03*
X14587D02*
D03*
Y2725D02*
D03*
X14513D02*
D03*
Y2825D02*
D03*
X14587D02*
D03*
X413Y6220D02*
D03*
X487D02*
D03*
Y6120D02*
D03*
X413D02*
D03*
Y5570D02*
D03*
X487D02*
D03*
Y5470D02*
D03*
X413D02*
D03*
Y5220D02*
D03*
X487D02*
D03*
Y5120D02*
D03*
X413D02*
D03*
Y4870D02*
D03*
X487D02*
D03*
Y4770D02*
D03*
X413D02*
D03*
Y4270D02*
D03*
X487D02*
D03*
Y4170D02*
D03*
X413D02*
D03*
X8213Y6110D02*
D03*
X8287D02*
D03*
X4967Y650D02*
D03*
X4893D02*
D03*
Y750D02*
D03*
X4967D02*
D03*
X11698Y5125D02*
D03*
X11772D02*
D03*
X11037Y5650D02*
D03*
X10963D02*
D03*
Y5900D02*
D03*
X11037D02*
D03*
Y6350D02*
D03*
X10963D02*
D03*
X11863Y6700D02*
D03*
X11937D02*
D03*
X5573Y650D02*
D03*
X5647D02*
D03*
X4037Y1800D02*
D03*
X3963D02*
D03*
Y1350D02*
D03*
X4037D02*
D03*
Y1100D02*
D03*
X3963D02*
D03*
Y650D02*
D03*
X4037D02*
D03*
Y400D02*
D03*
X3963D02*
D03*
X5573Y745D02*
D03*
X5647D02*
D03*
X14587Y4050D02*
D03*
X14513D02*
D03*
Y4150D02*
D03*
X14587D02*
D03*
Y4700D02*
D03*
X14513D02*
D03*
Y4800D02*
D03*
X14587D02*
D03*
Y5050D02*
D03*
X14513D02*
D03*
Y5150D02*
D03*
X14587D02*
D03*
Y5400D02*
D03*
X14513D02*
D03*
Y5500D02*
D03*
X14587D02*
D03*
Y6000D02*
D03*
X14513D02*
D03*
Y6100D02*
D03*
X14587D02*
D03*
X413Y2950D02*
D03*
X487D02*
D03*
Y2850D02*
D03*
X413D02*
D03*
Y2300D02*
D03*
X487D02*
D03*
Y2200D02*
D03*
X413D02*
D03*
Y1950D02*
D03*
X487D02*
D03*
Y1850D02*
D03*
X413D02*
D03*
Y1600D02*
D03*
X487D02*
D03*
Y1500D02*
D03*
X413D02*
D03*
Y950D02*
D03*
X487D02*
D03*
Y850D02*
D03*
X413D02*
D03*
X6302Y4835D02*
D03*
X6228D02*
D03*
X5563D02*
D03*
X5637D02*
D03*
X6137D02*
D03*
X6063D02*
D03*
X9662Y879D02*
D03*
X9588D02*
D03*
X10076Y705D02*
D03*
X10150D02*
D03*
X9922Y5250D02*
D03*
X9848D02*
D03*
X8287Y5950D02*
D03*
X8213D02*
D03*
X6063Y5365D02*
D03*
X6137D02*
D03*
X5563D02*
D03*
X5637D02*
D03*
X5063D02*
D03*
X5137D02*
D03*
X4563D02*
D03*
X4637D02*
D03*
X7932Y850D02*
D03*
X7858D02*
D03*
X7113Y4750D02*
D03*
X7187D02*
D03*
X7387D02*
D03*
X7313D02*
D03*
D12*
X6935Y5152D02*
D03*
X7455Y5369D02*
D03*
X6935Y5172D02*
D03*
Y5251D02*
D03*
Y5467D02*
D03*
Y5487D02*
D03*
Y5448D02*
D03*
Y5428D02*
D03*
Y5408D02*
D03*
Y5389D02*
D03*
Y5369D02*
D03*
Y5349D02*
D03*
Y5330D02*
D03*
Y5310D02*
D03*
Y5290D02*
D03*
Y5270D02*
D03*
Y5231D02*
D03*
Y5211D02*
D03*
Y5192D02*
D03*
Y5133D02*
D03*
Y5113D02*
D03*
X7455Y5487D02*
D03*
Y5467D02*
D03*
Y5448D02*
D03*
Y5428D02*
D03*
Y5408D02*
D03*
Y5389D02*
D03*
Y5349D02*
D03*
Y5330D02*
D03*
Y5310D02*
D03*
Y5290D02*
D03*
Y5192D02*
D03*
Y5172D02*
D03*
Y5113D02*
D03*
Y5133D02*
D03*
Y5152D02*
D03*
Y5211D02*
D03*
Y5231D02*
D03*
Y5251D02*
D03*
Y5270D02*
D03*
D13*
X7300Y5863D02*
D03*
Y5937D02*
D03*
X9550Y6563D02*
D03*
Y6637D02*
D03*
X9450D02*
D03*
Y6563D02*
D03*
X9350D02*
D03*
Y6637D02*
D03*
X9250D02*
D03*
Y6563D02*
D03*
X9150D02*
D03*
Y6637D02*
D03*
X9050D02*
D03*
Y6563D02*
D03*
X8950D02*
D03*
Y6637D02*
D03*
X8850D02*
D03*
Y6563D02*
D03*
X8840Y243D02*
D03*
Y317D02*
D03*
X9015Y537D02*
D03*
Y463D02*
D03*
X8100Y393D02*
D03*
Y467D02*
D03*
X7825Y263D02*
D03*
Y337D02*
D03*
X7400Y5937D02*
D03*
Y5863D02*
D03*
X8400Y6184D02*
D03*
Y6110D02*
D03*
X8100Y637D02*
D03*
Y563D02*
D03*
X9850Y6563D02*
D03*
Y6637D02*
D03*
X9750D02*
D03*
Y6563D02*
D03*
X9650D02*
D03*
Y6637D02*
D03*
X8750D02*
D03*
Y6563D02*
D03*
X8650D02*
D03*
Y6637D02*
D03*
X8550D02*
D03*
Y6563D02*
D03*
X6300Y6237D02*
D03*
Y6163D02*
D03*
X7900Y5887D02*
D03*
Y5813D02*
D03*
X7500Y5937D02*
D03*
Y5863D02*
D03*
X4500Y1837D02*
D03*
Y1763D02*
D03*
X5200D02*
D03*
Y1837D02*
D03*
X5900D02*
D03*
Y1763D02*
D03*
X8500D02*
D03*
Y1837D02*
D03*
X9200D02*
D03*
Y1763D02*
D03*
X9900D02*
D03*
Y1837D02*
D03*
X4600D02*
D03*
Y1763D02*
D03*
X5300D02*
D03*
Y1837D02*
D03*
X6000D02*
D03*
Y1763D02*
D03*
X8600D02*
D03*
Y1837D02*
D03*
X9300D02*
D03*
Y1763D02*
D03*
X10000D02*
D03*
Y1837D02*
D03*
X4700D02*
D03*
Y1763D02*
D03*
X5400D02*
D03*
Y1837D02*
D03*
X6100D02*
D03*
Y1763D02*
D03*
X8700D02*
D03*
Y1837D02*
D03*
X9400D02*
D03*
Y1763D02*
D03*
X10100D02*
D03*
Y1837D02*
D03*
X4800D02*
D03*
Y1763D02*
D03*
X5500D02*
D03*
Y1837D02*
D03*
X6200D02*
D03*
Y1763D02*
D03*
X8800D02*
D03*
Y1837D02*
D03*
X9500D02*
D03*
Y1763D02*
D03*
X10200D02*
D03*
Y1837D02*
D03*
X4900D02*
D03*
Y1763D02*
D03*
X5600D02*
D03*
Y1837D02*
D03*
X6300D02*
D03*
Y1763D02*
D03*
X8900D02*
D03*
Y1837D02*
D03*
X9600D02*
D03*
Y1763D02*
D03*
X10300D02*
D03*
Y1837D02*
D03*
X5000D02*
D03*
Y1763D02*
D03*
X5700D02*
D03*
Y1837D02*
D03*
X6400D02*
D03*
Y1763D02*
D03*
X9000D02*
D03*
Y1837D02*
D03*
X9700D02*
D03*
Y1763D02*
D03*
X10400D02*
D03*
Y1837D02*
D03*
X5100D02*
D03*
Y1763D02*
D03*
X5800D02*
D03*
Y1837D02*
D03*
X6500D02*
D03*
Y1763D02*
D03*
X9100D02*
D03*
Y1837D02*
D03*
X9800D02*
D03*
Y1763D02*
D03*
X10500D02*
D03*
Y1837D02*
D03*
X7035Y2937D02*
D03*
Y2863D02*
D03*
X10300Y705D02*
D03*
Y631D02*
D03*
X7135Y2937D02*
D03*
Y2863D02*
D03*
X7250Y1212D02*
D03*
Y1138D02*
D03*
X10600Y1363D02*
D03*
Y1437D02*
D03*
X7050Y3437D02*
D03*
Y3363D02*
D03*
Y1737D02*
D03*
Y1663D02*
D03*
X5200Y1437D02*
D03*
Y1363D02*
D03*
X7050Y4137D02*
D03*
Y4063D02*
D03*
Y2437D02*
D03*
Y2363D02*
D03*
X5900Y1437D02*
D03*
Y1363D02*
D03*
X13350Y3798D02*
D03*
Y3872D02*
D03*
X10300Y5437D02*
D03*
Y5363D02*
D03*
X6600Y1437D02*
D03*
Y1363D02*
D03*
X10600Y6837D02*
D03*
Y6763D02*
D03*
X5065Y5998D02*
D03*
Y6072D02*
D03*
X6670Y763D02*
D03*
Y837D02*
D03*
X9200Y1437D02*
D03*
Y1363D02*
D03*
X8735Y537D02*
D03*
Y463D02*
D03*
X8370Y837D02*
D03*
Y763D02*
D03*
X9900Y1437D02*
D03*
Y1363D02*
D03*
X6750Y5437D02*
D03*
Y5363D02*
D03*
X4500Y5613D02*
D03*
Y5687D02*
D03*
X4400D02*
D03*
Y5613D02*
D03*
X4600D02*
D03*
Y5687D02*
D03*
X4700D02*
D03*
Y5613D02*
D03*
X4400Y6037D02*
D03*
Y5963D02*
D03*
X7200Y5937D02*
D03*
Y5863D02*
D03*
X6300Y6037D02*
D03*
Y5963D02*
D03*
D14*
X5986Y6286D02*
D03*
X6006D02*
D03*
X6025D02*
D03*
X6045D02*
D03*
X6065D02*
D03*
X6084D02*
D03*
X6104D02*
D03*
Y6104D02*
D03*
X6084D02*
D03*
X6065D02*
D03*
X6045D02*
D03*
X6025D02*
D03*
X6006D02*
D03*
X5986Y6104D02*
D03*
D15*
X5954Y6132D02*
D03*
Y6152D02*
D03*
Y6171D02*
D03*
Y6191D02*
D03*
Y6211D02*
D03*
Y6230D02*
D03*
Y6250D02*
D03*
X6136Y6254D02*
D03*
Y6234D02*
D03*
Y6215D02*
D03*
Y6195D02*
D03*
Y6175D02*
D03*
Y6156D02*
D03*
Y6136D02*
D03*
D16*
X6045Y6195D02*
D03*
D17*
X7325Y3005D02*
D03*
X7275D02*
D03*
X7575D02*
D03*
X7525D02*
D03*
X7475D02*
D03*
X7425D02*
D03*
X7375D02*
D03*
X7225D02*
D03*
X7575Y2795D02*
D03*
X7525D02*
D03*
X7475D02*
D03*
X7425D02*
D03*
X7375D02*
D03*
X7325D02*
D03*
X7275D02*
D03*
X7225D02*
D03*
X7825Y495D02*
D03*
X7875D02*
D03*
X7925D02*
D03*
X7975D02*
D03*
X7825Y705D02*
D03*
X7875D02*
D03*
X7925D02*
D03*
X7975D02*
D03*
X10725Y6605D02*
D03*
X10675D02*
D03*
X10625D02*
D03*
X10575D02*
D03*
X10725Y6395D02*
D03*
X10675D02*
D03*
X10625D02*
D03*
X10575D02*
D03*
D18*
X5775Y1581D02*
D03*
X5075D02*
D03*
X10475D02*
D03*
X9775D02*
D03*
X9075D02*
D03*
X6475D02*
D03*
X7625Y2581D02*
D03*
X10425Y1581D02*
D03*
X10375D02*
D03*
X10325D02*
D03*
X10275D02*
D03*
X10225D02*
D03*
X10175D02*
D03*
X10125D02*
D03*
X10075D02*
D03*
X10025D02*
D03*
X10475Y1219D02*
D03*
X10375D02*
D03*
X10325D02*
D03*
X10275D02*
D03*
X10225D02*
D03*
X10175D02*
D03*
X10125D02*
D03*
X10075D02*
D03*
X10025D02*
D03*
X4625D02*
D03*
X4675D02*
D03*
X4725D02*
D03*
X4775D02*
D03*
X4825D02*
D03*
X4875D02*
D03*
X4925D02*
D03*
X4975D02*
D03*
X5075D02*
D03*
X4625Y1581D02*
D03*
X4675D02*
D03*
X4725D02*
D03*
X4775D02*
D03*
X4825D02*
D03*
X4875D02*
D03*
X4925D02*
D03*
X4975D02*
D03*
X5025D02*
D03*
X7175Y3919D02*
D03*
X7225D02*
D03*
X7275D02*
D03*
X7325D02*
D03*
X7375D02*
D03*
X7425D02*
D03*
X7475D02*
D03*
X7525D02*
D03*
X7625D02*
D03*
X7175Y4281D02*
D03*
X7225D02*
D03*
X7275D02*
D03*
X7325D02*
D03*
X7375D02*
D03*
X7425D02*
D03*
X7475D02*
D03*
X7525D02*
D03*
X7575D02*
D03*
X7625D02*
D03*
X7175Y2219D02*
D03*
X7225D02*
D03*
X7275D02*
D03*
X7325D02*
D03*
X7375D02*
D03*
X7425D02*
D03*
X7475D02*
D03*
X7525D02*
D03*
X7625D02*
D03*
X7175Y2581D02*
D03*
X7225D02*
D03*
X7275D02*
D03*
X7325D02*
D03*
X7375D02*
D03*
X7425D02*
D03*
X7475D02*
D03*
X7525D02*
D03*
X7575D02*
D03*
X5325Y1219D02*
D03*
X5375D02*
D03*
X5425D02*
D03*
X5475D02*
D03*
X5525D02*
D03*
X5575D02*
D03*
X5625D02*
D03*
X5675D02*
D03*
X5775D02*
D03*
X5325Y1581D02*
D03*
X5375D02*
D03*
X5425D02*
D03*
X5475D02*
D03*
X5525D02*
D03*
X5575D02*
D03*
X5625D02*
D03*
X5675D02*
D03*
X5725D02*
D03*
X6025Y1219D02*
D03*
X6075D02*
D03*
X6125D02*
D03*
X6175D02*
D03*
X6225D02*
D03*
X6275D02*
D03*
X6325D02*
D03*
X6375D02*
D03*
X6475D02*
D03*
X6025Y1581D02*
D03*
X6075D02*
D03*
X6125D02*
D03*
X6175D02*
D03*
X6225D02*
D03*
X6275D02*
D03*
X6325D02*
D03*
X6375D02*
D03*
X6425D02*
D03*
X8625Y1219D02*
D03*
X8675D02*
D03*
X8725D02*
D03*
X8775D02*
D03*
X8825D02*
D03*
X8875D02*
D03*
X8925D02*
D03*
X8975D02*
D03*
X9075D02*
D03*
X8625Y1581D02*
D03*
X8675D02*
D03*
X8725D02*
D03*
X8775D02*
D03*
X8825D02*
D03*
X8875D02*
D03*
X8925D02*
D03*
X8975D02*
D03*
X9025D02*
D03*
X9325Y1219D02*
D03*
X9375D02*
D03*
X9425D02*
D03*
X9475D02*
D03*
X9525D02*
D03*
X9575D02*
D03*
X9625D02*
D03*
X9675D02*
D03*
X9775D02*
D03*
X9325Y1581D02*
D03*
X9375D02*
D03*
X9425D02*
D03*
X9475D02*
D03*
X9525D02*
D03*
X9575D02*
D03*
X9625D02*
D03*
X9675D02*
D03*
X9725D02*
D03*
X7175Y1519D02*
D03*
X7225D02*
D03*
X7275D02*
D03*
X7325D02*
D03*
X7375D02*
D03*
X7425D02*
D03*
X7475D02*
D03*
X7525D02*
D03*
X7575D02*
D03*
X7625D02*
D03*
X7175Y1881D02*
D03*
X7225D02*
D03*
X7275D02*
D03*
X7325D02*
D03*
X7375D02*
D03*
X7425D02*
D03*
X7475D02*
D03*
X7525D02*
D03*
X7575D02*
D03*
X7625D02*
D03*
X7175Y3219D02*
D03*
X7225D02*
D03*
X7275D02*
D03*
X7325D02*
D03*
X7375D02*
D03*
X7425D02*
D03*
X7475D02*
D03*
X7525D02*
D03*
X7575D02*
D03*
X7625D02*
D03*
X7175Y3581D02*
D03*
X7225D02*
D03*
X7275D02*
D03*
X7325D02*
D03*
X7375D02*
D03*
X7425D02*
D03*
X7475D02*
D03*
X7525D02*
D03*
X7575D02*
D03*
X7625D02*
D03*
X7575Y3919D02*
D03*
Y2219D02*
D03*
X5025Y1219D02*
D03*
X5725D02*
D03*
X6425D02*
D03*
X9025D02*
D03*
X9725D02*
D03*
X10425D02*
D03*
D19*
X7476Y733D02*
D03*
Y950D02*
D03*
X7350Y733D02*
D03*
Y950D02*
D03*
D20*
X4780Y4925D02*
D03*
Y4975D02*
D03*
Y5025D02*
D03*
Y5075D02*
D03*
Y5125D02*
D03*
Y5175D02*
D03*
Y5225D02*
D03*
Y5275D02*
D03*
X4420Y4925D02*
D03*
Y4975D02*
D03*
Y5025D02*
D03*
Y5075D02*
D03*
Y5125D02*
D03*
Y5175D02*
D03*
Y5225D02*
D03*
Y5275D02*
D03*
X4920D02*
D03*
Y5225D02*
D03*
Y5175D02*
D03*
Y5125D02*
D03*
Y5075D02*
D03*
Y5025D02*
D03*
Y4975D02*
D03*
Y4925D02*
D03*
X5280Y5275D02*
D03*
Y5225D02*
D03*
Y5175D02*
D03*
Y5125D02*
D03*
Y5075D02*
D03*
Y5025D02*
D03*
Y4975D02*
D03*
Y4925D02*
D03*
X5780D02*
D03*
Y4975D02*
D03*
Y5025D02*
D03*
Y5075D02*
D03*
Y5125D02*
D03*
Y5175D02*
D03*
Y5225D02*
D03*
Y5275D02*
D03*
X5420Y4925D02*
D03*
Y4975D02*
D03*
Y5025D02*
D03*
Y5075D02*
D03*
Y5125D02*
D03*
Y5175D02*
D03*
Y5225D02*
D03*
Y5275D02*
D03*
X5920D02*
D03*
Y5225D02*
D03*
Y5175D02*
D03*
Y5125D02*
D03*
Y5075D02*
D03*
Y5025D02*
D03*
Y4975D02*
D03*
Y4925D02*
D03*
X6280Y5275D02*
D03*
Y5225D02*
D03*
Y5175D02*
D03*
Y5125D02*
D03*
Y5075D02*
D03*
Y5025D02*
D03*
Y4975D02*
D03*
Y4925D02*
D03*
D21*
X12495Y3700D02*
D03*
X10870D02*
D03*
X9245D02*
D03*
X5995D02*
D03*
X4370D02*
D03*
X2745D02*
D03*
X12355D02*
D03*
X10730D02*
D03*
X9105D02*
D03*
X5855D02*
D03*
X4230D02*
D03*
X2605D02*
D03*
X12155Y2600D02*
D03*
X10530D02*
D03*
X8905D02*
D03*
X5655D02*
D03*
X4030D02*
D03*
X2405D02*
D03*
X12300D02*
D03*
X10675D02*
D03*
X9050D02*
D03*
X5800D02*
D03*
X4175D02*
D03*
X2550D02*
D03*
X12595Y4350D02*
D03*
X10970D02*
D03*
X9345D02*
D03*
X6095D02*
D03*
X4470D02*
D03*
X2845D02*
D03*
X12475D02*
D03*
X10850D02*
D03*
X9225D02*
D03*
X5975D02*
D03*
X4350D02*
D03*
X2725D02*
D03*
X2855Y3700D02*
D03*
X2495D02*
D03*
X2295Y2600D02*
D03*
X2660D02*
D03*
X2955Y4350D02*
D03*
X2615D02*
D03*
X4480Y3700D02*
D03*
X4120D02*
D03*
X3920Y2600D02*
D03*
X4285D02*
D03*
X4580Y4350D02*
D03*
X4240D02*
D03*
X6105Y3700D02*
D03*
X5745D02*
D03*
X5545Y2600D02*
D03*
X5910D02*
D03*
X6205Y4350D02*
D03*
X5865D02*
D03*
X9355Y3700D02*
D03*
X8995D02*
D03*
X8795Y2600D02*
D03*
X9160D02*
D03*
X9455Y4350D02*
D03*
X9115D02*
D03*
X10980Y3700D02*
D03*
X10620D02*
D03*
X10420Y2600D02*
D03*
X10785D02*
D03*
X11080Y4350D02*
D03*
X10740D02*
D03*
X12605Y3700D02*
D03*
X12245D02*
D03*
X12045Y2600D02*
D03*
X12410D02*
D03*
X12705Y4350D02*
D03*
X12365D02*
D03*
D22*
X12150Y4145D02*
D03*
X10525D02*
D03*
X8900D02*
D03*
X5650D02*
D03*
X4025D02*
D03*
X2400D02*
D03*
X12100Y3955D02*
D03*
X10475D02*
D03*
X8850D02*
D03*
X5600D02*
D03*
X3975D02*
D03*
X2350D02*
D03*
X12000Y3045D02*
D03*
X10375D02*
D03*
X8750D02*
D03*
X5500D02*
D03*
X3875D02*
D03*
X2250D02*
D03*
X11955Y2855D02*
D03*
X10330D02*
D03*
X8705D02*
D03*
X5455D02*
D03*
X3830D02*
D03*
X2205D02*
D03*
X12600Y2800D02*
D03*
X10975D02*
D03*
X9350D02*
D03*
X6100D02*
D03*
X4475D02*
D03*
X2850D02*
D03*
X12650Y3000D02*
D03*
X11025D02*
D03*
X9400D02*
D03*
X6150D02*
D03*
X4525D02*
D03*
X2900D02*
D03*
X12800Y3905D02*
D03*
X11175D02*
D03*
X9550D02*
D03*
X6300D02*
D03*
X4675D02*
D03*
X3050D02*
D03*
X12850Y4095D02*
D03*
X11225D02*
D03*
X9600D02*
D03*
X6350D02*
D03*
X4725D02*
D03*
X3100D02*
D03*
X7925Y355D02*
D03*
Y245D02*
D03*
X2400Y4255D02*
D03*
X2350Y3845D02*
D03*
X2250Y3155D02*
D03*
X2205Y2745D02*
D03*
X2850Y2690D02*
D03*
X2900Y3110D02*
D03*
X3050Y3795D02*
D03*
X3100Y4205D02*
D03*
X4025Y4255D02*
D03*
X3975Y3845D02*
D03*
X3875Y3155D02*
D03*
X3830Y2745D02*
D03*
X4475Y2690D02*
D03*
X4525Y3110D02*
D03*
X4675Y3795D02*
D03*
X4725Y4205D02*
D03*
X5650Y4255D02*
D03*
X5600Y3845D02*
D03*
X5500Y3155D02*
D03*
X5455Y2745D02*
D03*
X6100Y2690D02*
D03*
X6150Y3110D02*
D03*
X6300Y3795D02*
D03*
X6350Y4205D02*
D03*
X7130Y855D02*
D03*
Y745D02*
D03*
X8900Y4255D02*
D03*
X8850Y3845D02*
D03*
X8750Y3155D02*
D03*
X8705Y2745D02*
D03*
X9350Y2690D02*
D03*
X9400Y3110D02*
D03*
X9550Y3795D02*
D03*
X9600Y4205D02*
D03*
X8100Y295D02*
D03*
Y185D02*
D03*
X8840Y425D02*
D03*
Y535D02*
D03*
X9015Y245D02*
D03*
Y355D02*
D03*
X10525Y4255D02*
D03*
X10475Y3845D02*
D03*
X10375Y3155D02*
D03*
X10330Y2745D02*
D03*
X10975Y2690D02*
D03*
X11025Y3110D02*
D03*
X11175Y3795D02*
D03*
X11225Y4205D02*
D03*
X12150Y4255D02*
D03*
X12100Y3845D02*
D03*
X12000Y3155D02*
D03*
X11955Y2745D02*
D03*
X12600Y2690D02*
D03*
X12650Y3110D02*
D03*
X12800Y3795D02*
D03*
X12850Y4205D02*
D03*
D23*
X12527Y3946D02*
D03*
X12490Y3854D02*
D03*
X10902Y3946D02*
D03*
X10865Y3854D02*
D03*
X9277Y3946D02*
D03*
X9240Y3854D02*
D03*
X6027Y3946D02*
D03*
X5990Y3854D02*
D03*
X4402Y3946D02*
D03*
X4365Y3854D02*
D03*
X2777Y3946D02*
D03*
X2740Y3854D02*
D03*
X12273Y3954D02*
D03*
X12310Y4046D02*
D03*
X10648Y3954D02*
D03*
X10685Y4046D02*
D03*
X9023Y3954D02*
D03*
X9060Y4046D02*
D03*
X5773Y3954D02*
D03*
X5810Y4046D02*
D03*
X4148Y3954D02*
D03*
X4185Y4046D02*
D03*
X2523Y3954D02*
D03*
X2560Y4046D02*
D03*
X12083Y2854D02*
D03*
X12120Y2946D02*
D03*
X10458Y2854D02*
D03*
X10495Y2946D02*
D03*
X8833Y2854D02*
D03*
X8870Y2946D02*
D03*
X5583Y2854D02*
D03*
X5620Y2946D02*
D03*
X3958Y2854D02*
D03*
X3995Y2946D02*
D03*
X2333Y2854D02*
D03*
X2370Y2946D02*
D03*
X12337Y2846D02*
D03*
X12300Y2754D02*
D03*
X10712Y2846D02*
D03*
X10675Y2754D02*
D03*
X9087Y2846D02*
D03*
X9050Y2754D02*
D03*
X5837Y2846D02*
D03*
X5800Y2754D02*
D03*
X4212Y2846D02*
D03*
X4175Y2754D02*
D03*
X2587Y2846D02*
D03*
X2550Y2754D02*
D03*
X12443Y2854D02*
D03*
X12480Y2946D02*
D03*
X10818Y2854D02*
D03*
X10855Y2946D02*
D03*
X9193Y2854D02*
D03*
X9230Y2946D02*
D03*
X5943Y2854D02*
D03*
X5980Y2946D02*
D03*
X4318Y2854D02*
D03*
X4355Y2946D02*
D03*
X2693Y2854D02*
D03*
X2730Y2946D02*
D03*
X12633Y3954D02*
D03*
X12670Y4046D02*
D03*
X11008Y3954D02*
D03*
X11045Y4046D02*
D03*
X9383Y3954D02*
D03*
X9420Y4046D02*
D03*
X6133Y3954D02*
D03*
X6170Y4046D02*
D03*
X4508Y3954D02*
D03*
X4545Y4046D02*
D03*
X2883Y3954D02*
D03*
X2920Y4046D02*
D03*
X12463Y4089D02*
D03*
X12500Y4181D02*
D03*
X10838Y4089D02*
D03*
X10875Y4181D02*
D03*
X9213Y4089D02*
D03*
X9250Y4181D02*
D03*
X5963Y4089D02*
D03*
X6000Y4181D02*
D03*
X4338Y4089D02*
D03*
X4375Y4181D02*
D03*
X2713Y4089D02*
D03*
X2750Y4181D02*
D03*
X5850Y5896D02*
D03*
X6000D02*
D03*
X6150D02*
D03*
X5813Y5804D02*
D03*
X5963D02*
D03*
X6113D02*
D03*
D24*
X12453Y3946D02*
D03*
X10828D02*
D03*
X9203D02*
D03*
X5953D02*
D03*
X4328D02*
D03*
X2703D02*
D03*
X12347Y3954D02*
D03*
X10722D02*
D03*
X9097D02*
D03*
X5847D02*
D03*
X4222D02*
D03*
X2597D02*
D03*
X12157Y2854D02*
D03*
X10532D02*
D03*
X8907D02*
D03*
X5657D02*
D03*
X4032D02*
D03*
X2407D02*
D03*
X12263Y2846D02*
D03*
X10638D02*
D03*
X9013D02*
D03*
X5763D02*
D03*
X4138D02*
D03*
X2513D02*
D03*
X12517Y2854D02*
D03*
X10892D02*
D03*
X9267D02*
D03*
X6017D02*
D03*
X4392D02*
D03*
X2767D02*
D03*
X12707Y3954D02*
D03*
X11082D02*
D03*
X9457D02*
D03*
X6207D02*
D03*
X4582D02*
D03*
X2957D02*
D03*
X12537Y4089D02*
D03*
X10912D02*
D03*
X9287D02*
D03*
X6037D02*
D03*
X4412D02*
D03*
X2787D02*
D03*
X5887Y5804D02*
D03*
X6037D02*
D03*
X6187D02*
D03*
D25*
X10100Y5025D02*
D03*
Y4775D02*
D03*
X9900D02*
D03*
Y5025D02*
D03*
D26*
X10800Y6870D02*
D03*
Y6730D02*
D03*
X5515Y5965D02*
D03*
X13800Y3905D02*
D03*
Y3765D02*
D03*
X10400Y6730D02*
D03*
Y6870D02*
D03*
X5515Y6105D02*
D03*
X10400Y6430D02*
D03*
Y6570D02*
D03*
X10625Y6130D02*
D03*
Y6270D02*
D03*
X8580Y410D02*
D03*
Y550D02*
D03*
X8365Y410D02*
D03*
Y550D02*
D03*
X8580Y730D02*
D03*
Y870D02*
D03*
X7050Y5830D02*
D03*
Y5970D02*
D03*
D27*
X8895Y4997D02*
D03*
Y5602D02*
D03*
D28*
X8100Y6075D02*
D03*
X7900D02*
D03*
X9400Y5325D02*
D03*
X9600D02*
D03*
D29*
X8000Y6450D02*
D03*
X9500Y5700D02*
D03*
D30*
X9850Y5372D02*
D03*
X9900D02*
D03*
X9950D02*
D03*
X10000D02*
D03*
X10050D02*
D03*
X10100D02*
D03*
X10150D02*
D03*
D31*
X10000Y5700D02*
D03*
D32*
X4510Y5871D02*
D03*
D33*
X4536D02*
D03*
X4562D02*
D03*
X4587D02*
D03*
X4613D02*
D03*
X4638D02*
D03*
X4664D02*
D03*
X4690D02*
D03*
X4510Y6129D02*
D03*
X4536D02*
D03*
X4562D02*
D03*
X4587D02*
D03*
X4613D02*
D03*
X4638D02*
D03*
X4664D02*
D03*
X4690D02*
D03*
D34*
X7105Y4600D02*
D03*
X7395D02*
D03*
D35*
X383Y735D02*
D03*
X517D02*
D03*
X14483Y2340D02*
D03*
X14617D02*
D03*
X14483Y990D02*
D03*
X14617D02*
D03*
Y1640D02*
D03*
X14483D02*
D03*
Y1990D02*
D03*
X14617D02*
D03*
X383Y4655D02*
D03*
X517D02*
D03*
Y4050D02*
D03*
X383D02*
D03*
X14617Y2940D02*
D03*
X14483D02*
D03*
X517Y6005D02*
D03*
X383D02*
D03*
Y5355D02*
D03*
X517D02*
D03*
Y5005D02*
D03*
X383D02*
D03*
X14617Y4265D02*
D03*
X14483D02*
D03*
X14488Y4910D02*
D03*
X14622D02*
D03*
X14612Y5260D02*
D03*
X14478D02*
D03*
X14483Y5630D02*
D03*
X14617D02*
D03*
X14612Y6220D02*
D03*
X14478D02*
D03*
X517Y2735D02*
D03*
X383D02*
D03*
Y2085D02*
D03*
X517D02*
D03*
Y1735D02*
D03*
X383D02*
D03*
Y1385D02*
D03*
X517D02*
D03*
D36*
X5355Y5800D02*
D03*
X13640Y3600D02*
D03*
X13460D02*
D03*
X5175Y5800D02*
D03*
D37*
X12125Y5300D02*
D03*
Y5100D02*
D03*
Y500D02*
D03*
Y300D02*
D03*
X11225Y5650D02*
D03*
Y5450D02*
D03*
Y850D02*
D03*
Y650D02*
D03*
X12125Y6000D02*
D03*
Y5800D02*
D03*
Y1200D02*
D03*
Y1000D02*
D03*
X11225Y6350D02*
D03*
Y6150D02*
D03*
Y1550D02*
D03*
Y1350D02*
D03*
X12125Y6700D02*
D03*
Y6500D02*
D03*
Y1900D02*
D03*
Y1700D02*
D03*
X2875D02*
D03*
Y1900D02*
D03*
Y6500D02*
D03*
Y6700D02*
D03*
X3780Y1350D02*
D03*
Y1550D02*
D03*
X3775Y6150D02*
D03*
Y6350D02*
D03*
X2875Y1000D02*
D03*
Y1200D02*
D03*
Y5800D02*
D03*
Y6000D02*
D03*
X3775Y650D02*
D03*
Y850D02*
D03*
Y5450D02*
D03*
Y5650D02*
D03*
X2875Y300D02*
D03*
Y500D02*
D03*
Y5100D02*
D03*
Y5300D02*
D03*
D38*
X12500Y5200D02*
D03*
Y400D02*
D03*
X11600Y5550D02*
D03*
Y750D02*
D03*
X12500Y5900D02*
D03*
Y1100D02*
D03*
X11600Y6250D02*
D03*
Y1450D02*
D03*
X12500Y6600D02*
D03*
Y1800D02*
D03*
X2500D02*
D03*
Y6600D02*
D03*
X3405Y1450D02*
D03*
X3400Y6250D02*
D03*
X2500Y1100D02*
D03*
Y5900D02*
D03*
X3400Y750D02*
D03*
Y5550D02*
D03*
X2500Y400D02*
D03*
Y5200D02*
D03*
D39*
X13550Y3870D02*
D03*
X5265Y6070D02*
D03*
D40*
X7005Y725D02*
D03*
Y775D02*
D03*
Y825D02*
D03*
Y875D02*
D03*
X6795Y725D02*
D03*
Y775D02*
D03*
Y825D02*
D03*
Y875D02*
D03*
D41*
X8839Y719D02*
D03*
D42*
X600Y6900D02*
D03*
X14400Y100D02*
D03*
X100Y600D02*
D03*
X8415Y3730D02*
D03*
X7020Y3560D02*
D03*
X8400Y2300D02*
D03*
X7025Y2575D02*
D03*
X5705Y870D02*
D03*
X5650D02*
D03*
X6600D02*
D03*
X6650Y3750D02*
D03*
X8450Y3950D02*
D03*
X6435Y2485D02*
D03*
X6393Y2443D02*
D03*
X8400Y2530D02*
D03*
X8460Y2470D02*
D03*
X6350Y2400D02*
D03*
X9900Y1500D02*
D03*
X10600D02*
D03*
Y1300D02*
D03*
X9900D02*
D03*
X9200Y1500D02*
D03*
Y1300D02*
D03*
X8660Y537D02*
D03*
X8295Y700D02*
D03*
X7925Y160D02*
D03*
X10945Y6870D02*
D03*
X10950Y6730D02*
D03*
X8900Y4800D02*
D03*
X9000D02*
D03*
X9100D02*
D03*
X9200D02*
D03*
X9300D02*
D03*
X9400D02*
D03*
X9500D02*
D03*
X9600D02*
D03*
X9700D02*
D03*
X8800D02*
D03*
X10252Y5182D02*
D03*
Y4802D02*
D03*
X9300Y5050D02*
D03*
X9400D02*
D03*
X9500D02*
D03*
X9600D02*
D03*
X9700D02*
D03*
X10400Y5100D02*
D03*
Y5250D02*
D03*
X10550D02*
D03*
Y5100D02*
D03*
X10400Y4800D02*
D03*
X10550D02*
D03*
Y5525D02*
D03*
X5200Y1300D02*
D03*
X5900D02*
D03*
X6600D02*
D03*
Y1500D02*
D03*
X5900D02*
D03*
X5200D02*
D03*
X3900Y1550D02*
D03*
X3000Y1900D02*
D03*
Y1200D02*
D03*
X3900Y850D02*
D03*
X3000Y500D02*
D03*
X11100Y1350D02*
D03*
Y650D02*
D03*
X12000Y300D02*
D03*
Y1000D02*
D03*
Y1700D02*
D03*
X11100Y6150D02*
D03*
Y5450D02*
D03*
X12000Y5100D02*
D03*
Y5800D02*
D03*
Y6500D02*
D03*
X3900Y6350D02*
D03*
Y5650D02*
D03*
X3000Y5300D02*
D03*
Y6000D02*
D03*
Y6700D02*
D03*
X5065Y5800D02*
D03*
X13730Y3600D02*
D03*
X13550Y3650D02*
D03*
X7250Y4750D02*
D03*
X7119Y5970D02*
D03*
X7120Y5830D02*
D03*
X5065Y5859D02*
D03*
X5065Y5924D02*
D03*
X10600Y900D02*
D03*
X9200Y850D02*
D03*
X10400Y5525D02*
D03*
D43*
X10781Y5380D02*
D03*
X10529D02*
D03*
X10786Y4955D02*
D03*
X10534D02*
D03*
D44*
X14120Y4250D02*
D03*
D45*
X13860D02*
D03*
D46*
X7225Y5500D02*
Y5560D01*
X7052Y6702D02*
X7120Y6770D01*
X7052Y6510D02*
Y6702D01*
X6940Y4725D02*
X7125Y4910D01*
X7135Y5145D02*
X7245D01*
X7120Y5130D02*
X7135Y5145D01*
X7285Y5125D02*
Y5160D01*
X7270Y5175D02*
X7285Y5160D01*
X7000Y5175D02*
X7270D01*
X6940Y1710D02*
Y4725D01*
X7310Y4930D02*
X7350D01*
X7284Y4956D02*
X7310Y4930D01*
X7223Y4902D02*
X7313D01*
X6920Y4745D02*
X7106Y4931D01*
Y5040D01*
X6935Y5152D02*
X6977D01*
X7000Y5175D01*
X7300Y5800D02*
Y5863D01*
X6015Y6055D02*
X6025Y6065D01*
Y6104D01*
X6136Y6156D02*
X6206D01*
X6136Y6014D02*
Y6136D01*
Y6014D02*
X6150Y6000D01*
X6084Y5881D02*
Y6104D01*
Y6035D02*
X6104Y6055D01*
Y6104D01*
X6065Y5995D02*
Y6104D01*
X6045Y6015D02*
Y6104D01*
X5924Y6191D02*
X5954D01*
X5904Y6171D02*
X5954D01*
X7525Y2740D02*
X7625Y2640D01*
X6485Y4915D02*
Y5590D01*
X6874Y5251D02*
X6935D01*
X6865Y5260D02*
X6874Y5251D01*
X6800Y5260D02*
X6865D01*
X6831Y1536D02*
Y4649D01*
X6878Y5487D02*
X6935D01*
X6745Y5620D02*
X6878Y5487D01*
X6715Y5795D02*
X7121Y5389D01*
X7455D01*
X6700Y1700D02*
Y4605D01*
X6755Y3075D02*
Y4615D01*
X6868Y5467D02*
X6935D01*
X6745Y5590D02*
X6868Y5467D01*
X6720Y5590D02*
X6745D01*
Y5520D02*
X6785D01*
X6857Y5448D01*
X6485Y5665D02*
X6650Y5500D01*
X6475Y5645D02*
X6630Y5490D01*
X6690Y5165D02*
Y6265D01*
X6722Y5133D02*
X6935D01*
X6690Y5165D02*
X6722Y5133D01*
X6670Y5155D02*
Y6255D01*
X6712Y5113D02*
X6935D01*
X6670Y5155D02*
X6712Y5113D01*
X7350Y2885D02*
Y2935D01*
X7325Y2860D02*
X7350Y2885D01*
X7325Y2795D02*
Y2860D01*
X7300Y2910D02*
Y2945D01*
X7275Y2885D02*
X7300Y2910D01*
X7275Y2795D02*
Y2885D01*
X7250Y2945D02*
Y3075D01*
X7225Y2920D02*
X7250Y2945D01*
X7225Y2795D02*
Y2920D01*
X7525Y2740D02*
Y2795D01*
X7625Y2581D02*
Y2640D01*
Y4281D02*
X7644D01*
X7655Y4270D01*
Y3021D02*
Y4270D01*
X7640Y3005D02*
X7655Y3021D01*
X7575Y3005D02*
X7640D01*
X5075Y1581D02*
X5109D01*
X6755Y1635D02*
Y2925D01*
X7275D02*
Y3005D01*
X7375Y2875D02*
Y3005D01*
X7325Y2900D02*
Y3005D01*
X6780Y1610D02*
Y2900D01*
X5775Y1581D02*
X5809D01*
X6805Y1581D02*
Y2870D01*
X6475Y1581D02*
X6514D01*
X7425Y2890D02*
Y3005D01*
X7735Y1510D02*
Y2890D01*
X7675Y2515D02*
Y4830D01*
X7660Y2500D02*
X7675Y2515D01*
X7535Y2500D02*
X7660D01*
X9075Y1510D02*
Y1581D01*
X7475Y2915D02*
Y3005D01*
X7760Y1555D02*
Y2915D01*
X7910Y1025D02*
Y5165D01*
X7785Y1581D02*
Y2940D01*
X9775Y1520D02*
Y1581D01*
X7525Y2940D02*
Y3005D01*
X10475Y1581D02*
X10509D01*
X7625Y1881D02*
Y1975D01*
X7225Y1980D02*
X7275Y1930D01*
Y1881D02*
Y1930D01*
Y1980D02*
X7325Y1930D01*
Y1881D02*
Y1930D01*
Y1980D02*
X7375Y1930D01*
Y1881D02*
Y1930D01*
Y1980D02*
X7425Y1930D01*
Y1881D02*
Y1930D01*
Y3685D02*
Y3919D01*
Y1980D02*
Y2219D01*
Y1980D02*
X7475Y1930D01*
Y1881D02*
Y1930D01*
Y1980D02*
X7525Y1930D01*
Y1881D02*
Y1930D01*
Y1980D02*
X7575Y1930D01*
Y1881D02*
Y1930D01*
X7225Y1725D02*
Y1881D01*
X7625Y3581D02*
Y3675D01*
X7175Y3400D02*
X7225Y3450D01*
X7175Y3219D02*
Y3400D01*
X7225Y3700D02*
X7275Y3650D01*
Y3581D02*
Y3650D01*
Y3695D02*
X7325Y3645D01*
Y3581D02*
Y3645D01*
Y3685D02*
X7375Y3635D01*
Y3581D02*
Y3635D01*
Y3685D02*
X7425Y3635D01*
Y3581D02*
Y3635D01*
Y3685D02*
X7475Y3635D01*
Y3581D02*
Y3635D01*
X7525Y3685D02*
X7575Y3635D01*
Y3581D02*
Y3635D01*
X7475Y3685D02*
X7525Y3635D01*
Y3581D02*
Y3635D01*
X6200Y4925D02*
X6335D01*
X6345Y4935D02*
Y5185D01*
X6335Y4925D02*
X6345Y4935D01*
X5475Y4925D02*
X5500Y4950D01*
X5420Y4925D02*
X5475D01*
X4975D02*
X5000Y4950D01*
X4920Y4925D02*
X4975D01*
X4420D02*
X4475D01*
X4500Y4950D01*
X5975Y4925D02*
X6000Y4950D01*
X5920Y4925D02*
X5975D01*
X5780Y5275D02*
Y5310D01*
X5280Y5275D02*
Y5310D01*
X4780Y5275D02*
Y5310D01*
X6280Y5275D02*
Y5310D01*
X5200Y4925D02*
X5280D01*
X5700D02*
X5780D01*
X5700Y5225D02*
X5780D01*
X5200D02*
X5280D01*
X4700D02*
X4780D01*
X6200D02*
X6280D01*
X4700Y4925D02*
X4780D01*
X4920Y5275D02*
X5000D01*
X5420D02*
X5500D01*
X5920D02*
X6000D01*
X4420D02*
X4500D01*
X5563Y4835D02*
Y4942D01*
X5530Y4975D02*
X5563Y4942D01*
X5920Y4975D02*
X6030D01*
X6063Y4942D01*
Y4835D02*
Y4942D01*
X5420Y4975D02*
X5530D01*
X4420Y5275D02*
Y5303D01*
X6280Y4895D02*
Y4925D01*
Y4895D02*
X6302Y4873D01*
Y4835D02*
Y4873D01*
X4398Y5325D02*
X4420Y5303D01*
X4398Y5325D02*
Y5365D01*
X4920Y4975D02*
X5031D01*
X5063Y4943D01*
Y4835D02*
Y4943D01*
X4420Y4975D02*
X4531D01*
X4563Y4943D01*
Y4835D02*
Y4943D01*
X5850Y5896D02*
Y6243D01*
Y6000D02*
X6030D01*
X6045Y6015D01*
X5800Y5870D02*
Y6165D01*
Y5870D02*
X5820Y5850D01*
X5954D01*
X6000Y5896D01*
Y5930D01*
X6065Y5995D01*
X6150Y5896D02*
Y6000D01*
X7900Y5813D02*
X8470D01*
X4700Y5530D02*
Y5613D01*
X4400Y5555D02*
Y5613D01*
X10087Y5250D02*
X10178D01*
X7660Y5775D02*
X8480D01*
X8060Y1320D02*
Y5340D01*
X7380Y4975D02*
X7720D01*
X7745Y4950D01*
X7362Y4993D02*
X7380Y4975D01*
X7382Y5040D02*
X7740D01*
X7770Y5010D01*
X7350Y5090D02*
X7755D01*
X7810Y5035D01*
X7525Y2510D02*
X7535Y2500D01*
X7525Y2510D02*
Y2581D01*
X6940Y1710D02*
X6975Y1675D01*
X6940Y2219D02*
X7175D01*
X6940Y3919D02*
X7175D01*
X9325Y1150D02*
Y1219D01*
X8625Y1150D02*
Y1219D01*
X7146Y5519D02*
Y5560D01*
X4664Y6039D02*
Y6129D01*
X4650Y6025D02*
X4664Y6039D01*
X7130Y5640D02*
Y5720D01*
X7106Y5616D02*
X7130Y5640D01*
X7106Y5560D02*
Y5616D01*
X4785Y5720D02*
X4860Y5645D01*
X8287Y5950D02*
Y6148D01*
X7008Y5560D02*
Y5612D01*
X6750Y5870D02*
X7008Y5612D01*
X7028Y5560D02*
Y5624D01*
X6770Y5882D02*
X7028Y5624D01*
X6915Y5765D02*
Y6170D01*
X6940Y6195D01*
X8240D01*
X6770Y5882D02*
Y6570D01*
X8240Y6195D02*
X8287Y6148D01*
X7770Y3330D02*
Y5010D01*
X7745Y3300D02*
Y4950D01*
X5325Y1145D02*
Y1219D01*
X6025Y1145D02*
Y1219D01*
X4625Y1150D02*
Y1219D01*
X9650Y6500D02*
Y6563D01*
X9550Y6500D02*
Y6563D01*
X9450Y6500D02*
Y6563D01*
X9350Y6500D02*
Y6563D01*
X9250Y6500D02*
Y6563D01*
X9150Y6500D02*
Y6563D01*
X9050Y6500D02*
Y6563D01*
X8950Y6500D02*
Y6563D01*
X8850Y6500D02*
Y6563D01*
X8750Y6500D02*
Y6563D01*
X8650Y6500D02*
Y6563D01*
X8550Y6500D02*
Y6563D01*
X7343Y5083D02*
X7350Y5090D01*
X7343Y5040D02*
Y5083D01*
X8800Y840D02*
Y881D01*
X8855Y815D02*
X8870Y830D01*
X8825Y815D02*
X8855D01*
X8800Y840D02*
X8825Y815D01*
X8820Y881D02*
Y915D01*
X8780Y881D02*
Y920D01*
X7843Y5152D02*
X7885Y5110D01*
X8580Y730D02*
X8675D01*
X8725Y780D01*
X8780D01*
X8800Y760D01*
Y719D02*
Y760D01*
X8820Y665D02*
Y719D01*
X8761Y671D02*
Y719D01*
X8840Y535D02*
Y719D01*
X8735Y580D02*
X8820Y665D01*
X8735Y537D02*
Y580D01*
X8365Y550D02*
Y620D01*
X8385Y640D01*
X8730D01*
X8761Y671D01*
X8403Y870D02*
X8760D01*
X8370Y837D02*
X8403Y870D01*
X9015Y355D02*
X9090Y280D01*
Y210D02*
Y280D01*
X9065Y185D02*
X9090Y210D01*
X8100Y185D02*
X9065D01*
X8987Y537D02*
X9015D01*
X8875Y425D02*
X8987Y537D01*
X9015Y355D02*
Y463D01*
X8840Y425D02*
X8875D01*
X8840Y317D02*
Y425D01*
X6206Y6156D02*
X6220Y6170D01*
Y6225D01*
X6232Y6237D01*
X6257Y6037D02*
X6300D01*
X6230Y6010D02*
X6257Y6037D01*
X6230Y5870D02*
Y6010D01*
X6115Y5850D02*
X6210D01*
X6084Y5881D02*
X6115Y5850D01*
X6210D02*
X6230Y5870D01*
X4700Y5687D02*
Y5750D01*
X4664Y5786D02*
X4700Y5750D01*
X4664Y5786D02*
Y5871D01*
X4600Y5687D02*
Y5750D01*
X4638Y5788D01*
Y5871D01*
X4568Y5613D02*
X4600D01*
X4550Y5631D02*
X4568Y5613D01*
X4613Y5793D02*
Y5871D01*
X4550Y5631D02*
Y5730D01*
X4500Y5687D02*
Y5710D01*
X4587Y5797D02*
Y5871D01*
X4400Y5687D02*
Y5725D01*
X4425Y5750D01*
X4511D01*
X4500Y5710D02*
X4587Y5797D01*
X4550Y5730D02*
X4613Y5793D01*
X4511Y5750D02*
X4562Y5800D01*
Y5871D01*
X4500Y5520D02*
Y5613D01*
X4480Y5500D02*
X4500Y5520D01*
X4360Y5500D02*
X4480D01*
X4335Y5525D02*
X4360Y5500D01*
X4335Y5525D02*
Y5750D01*
X4355Y5770D01*
X4500D01*
X4536Y5806D01*
Y5871D01*
X4510Y5980D02*
X4562Y6032D01*
Y6129D01*
X4510Y5871D02*
Y5980D01*
X4513Y6037D02*
X4536Y6060D01*
Y6129D01*
X4587D02*
Y6228D01*
X4690Y5871D02*
Y5995D01*
X4675Y1120D02*
Y1219D01*
X4725Y1095D02*
Y1219D01*
X4775Y1070D02*
Y1219D01*
X4825Y1045D02*
Y1219D01*
X4875Y1020D02*
Y1219D01*
X4925Y995D02*
Y1219D01*
X4975Y970D02*
Y1219D01*
X5375Y1120D02*
Y1219D01*
X5425Y1095D02*
Y1219D01*
X5475Y1070D02*
Y1219D01*
X5525Y1045D02*
Y1219D01*
X5575Y1020D02*
Y1219D01*
X5625Y995D02*
Y1219D01*
X5675Y970D02*
Y1219D01*
X6075Y1120D02*
Y1219D01*
X6125Y1095D02*
Y1219D01*
X6175Y1070D02*
Y1219D01*
X6275Y1020D02*
Y1219D01*
X6325Y995D02*
Y1219D01*
X6375Y970D02*
Y1219D01*
X8675Y1120D02*
Y1219D01*
X8725Y1095D02*
Y1219D01*
X8775Y1070D02*
Y1219D01*
X8825Y1045D02*
Y1219D01*
X8875Y1020D02*
Y1219D01*
X8925Y995D02*
Y1219D01*
X8975Y970D02*
Y1219D01*
X9375Y1120D02*
Y1219D01*
X9425Y1095D02*
Y1219D01*
X9475Y1070D02*
Y1219D01*
X9525Y1045D02*
Y1219D01*
X9575Y1020D02*
Y1219D01*
X9625Y995D02*
Y1219D01*
X7825Y337D02*
Y495D01*
X7875Y425D02*
Y495D01*
Y425D02*
X7925D01*
Y355D02*
Y495D01*
X7975D02*
X8095D01*
X8100Y467D02*
Y563D01*
Y295D02*
Y393D01*
X8032Y705D02*
X8100Y637D01*
X7975Y705D02*
X8032D01*
X9950Y5278D02*
Y5372D01*
X9922Y5250D02*
X9950Y5278D01*
X10100Y5263D02*
Y5372D01*
X8287Y6110D02*
X8400D01*
X7395Y4600D02*
Y4670D01*
X7387Y4678D02*
X7395Y4670D01*
X7105Y4600D02*
Y4670D01*
X7113Y4678D01*
X7387D02*
Y4850D01*
X7313D02*
Y4902D01*
X7185Y4940D02*
X7223Y4902D01*
X7185Y4940D02*
Y5040D01*
X4342Y6037D02*
X4513D01*
X4342Y5963D02*
X4507D01*
X7175Y1775D02*
Y1881D01*
X7137Y1737D02*
X7175Y1775D01*
X7050Y1737D02*
X7137D01*
X7175Y2475D02*
Y2581D01*
X7137Y2437D02*
X7175Y2475D01*
X7050Y2437D02*
X7137D01*
X6750Y5437D02*
X6798D01*
X6827Y5408D01*
X6935D01*
X6750Y5363D02*
X6798D01*
X7113Y4798D02*
X7165Y4850D01*
X7113Y4678D02*
Y4798D01*
X7165Y4850D02*
Y5040D01*
X7812Y5133D02*
X7860Y5085D01*
X7455Y5172D02*
X7850D01*
X7455Y5152D02*
X7843D01*
X7455Y5133D02*
X7812D01*
X7455Y5113D02*
X7782D01*
X7835Y5060D01*
X7455Y5192D02*
X7787D01*
X7410Y5290D02*
X7455D01*
X7395Y5275D02*
X7410Y5290D01*
Y5310D02*
X7455D01*
X7395Y5325D02*
X7410Y5310D01*
X7455Y5211D02*
X7759D01*
X7777Y5230D01*
X7845D01*
X7455Y5231D02*
X7746D01*
X7455Y5251D02*
X7736D01*
X7746Y5231D02*
X7765Y5250D01*
X7875D01*
X7736Y5251D02*
X7755Y5270D01*
X7455Y5270D02*
X7725D01*
X7745Y5290D01*
X7755Y5270D02*
X7905D01*
X7745Y5290D02*
X7935D01*
X6795Y725D02*
X6855D01*
X6870Y740D01*
X7455Y5349D02*
X7456Y5350D01*
X7787Y5192D02*
X7800Y5205D01*
X7845Y5230D02*
X7910Y5165D01*
X7875Y5250D02*
X7935Y5190D01*
X7905Y5270D02*
X7960Y5215D01*
X7935Y5290D02*
X7985Y5240D01*
X7397Y5467D02*
X7455D01*
X5743Y745D02*
Y843D01*
X5835Y935D01*
Y1200D01*
X5743Y598D02*
Y650D01*
Y598D02*
X5761Y580D01*
X5910D01*
X5950Y620D01*
Y1175D01*
X7950Y5330D02*
X8010Y5270D01*
X7455Y5330D02*
X7950D01*
X7965Y5350D02*
X8035Y5280D01*
X7456Y5350D02*
X7965D01*
X7455Y5428D02*
X8047D01*
X7455Y5448D02*
X8067D01*
X8135Y5380D01*
X7455Y5487D02*
X8058D01*
X8155Y5390D01*
X8047Y5428D02*
X8085Y5390D01*
X7992Y5408D02*
X8060Y5340D01*
X7455Y5408D02*
X7992D01*
X7185Y5560D02*
Y5700D01*
X7362Y4993D02*
Y5040D01*
X7323D02*
Y5103D01*
X7335Y5115D01*
X9850Y6500D02*
Y6563D01*
X9750Y6500D02*
Y6563D01*
X7303Y5007D02*
X7320Y4990D01*
X7303Y5007D02*
Y5040D01*
X7284Y4956D02*
Y5040D01*
X7264Y4930D02*
Y5040D01*
X7244Y4999D02*
Y5040D01*
X7220Y4975D02*
X7244Y4999D01*
X7225Y5040D02*
Y5090D01*
X7240Y5105D01*
X7146Y5040D02*
Y5114D01*
X7205Y5040D02*
Y5115D01*
X7778Y337D02*
X7825D01*
X7750Y309D02*
X7778Y337D01*
X7750Y145D02*
Y309D01*
X7665Y60D02*
X7750Y145D01*
X6180Y60D02*
X7665D01*
X6145Y95D02*
X6180Y60D01*
X7175Y1519D02*
Y1675D01*
X7067Y4957D02*
Y5040D01*
X7060Y4950D02*
X7067Y4957D01*
X7065Y4920D02*
X7087Y4941D01*
Y5040D01*
X4690Y6129D02*
X4756D01*
X4785Y6100D01*
Y5720D02*
Y6100D01*
X4638Y6129D02*
Y6183D01*
X4655Y6200D01*
X4775D01*
X4805Y6170D01*
Y5730D02*
Y6170D01*
Y5730D02*
X4870Y5665D01*
X7028Y4948D02*
Y5040D01*
X7020Y4940D02*
X7028Y4948D01*
X6995Y4960D02*
X7008Y4973D01*
Y5040D01*
X5900Y6215D02*
X5924Y6191D01*
X5900Y6215D02*
Y6325D01*
X5925Y6350D01*
X6980Y5775D02*
Y5950D01*
Y5775D02*
X7000Y5755D01*
X6980Y5950D02*
X7000Y5970D01*
X7050D01*
X5875Y6200D02*
X5904Y6171D01*
X5875Y6200D02*
Y6340D01*
X5910Y6375D01*
X6935Y5270D02*
X7010D01*
X7020Y5260D01*
X6935Y5290D02*
X7010D01*
X7020Y5300D01*
X9850Y6000D02*
X10063D01*
X9810Y6040D02*
X9850Y6000D01*
X8745Y6040D02*
X9810D01*
X8480Y5775D02*
X8745Y6040D01*
X7185Y5700D02*
X7200Y5715D01*
Y5863D01*
X7000Y5755D02*
X7140D01*
X7165Y5730D01*
Y5560D02*
Y5730D01*
X6935Y5211D02*
X7156D01*
X6850Y5230D02*
X6851Y5231D01*
X6935D01*
X6890Y5310D02*
X6935D01*
X6885Y5315D02*
X6890Y5310D01*
X4510Y6129D02*
Y6200D01*
X4613Y6052D02*
Y6129D01*
X6800Y5310D02*
X6825Y5335D01*
X6885Y5315D02*
Y5325D01*
X6890Y5330D01*
X6935D01*
X6845Y5285D02*
Y5340D01*
X6854Y5349D01*
X6935D01*
X6798Y5363D02*
X6824Y5389D01*
X6935D01*
X6825Y5335D02*
Y5355D01*
X6839Y5369D01*
X6935D01*
X5910Y6375D02*
X6580D01*
X5925Y6350D02*
X6575D01*
X6580Y6375D02*
X6690Y6265D01*
X6575Y6350D02*
X6670Y6255D01*
X5063Y608D02*
Y650D01*
Y608D02*
X5080Y591D01*
X5209D01*
X5240Y622D01*
Y1225D01*
X5063Y750D02*
Y848D01*
X5160Y945D01*
Y1250D01*
X6590Y5415D02*
Y5470D01*
X6847Y5428D02*
X6935D01*
X6555Y5380D02*
X6590Y5415D01*
X6535Y5390D02*
X6565Y5420D01*
Y5500D01*
X6725Y5495D02*
X6780D01*
X6847Y5428D01*
X6857Y5448D02*
X6935D01*
X6750Y5870D02*
Y6540D01*
X7375Y2720D02*
Y2795D01*
X6580Y4995D02*
X6870Y4705D01*
X6580Y4995D02*
Y5215D01*
X6605Y5000D02*
Y5310D01*
Y5000D02*
X6685Y4920D01*
X7065D01*
X6630Y5005D02*
Y5490D01*
X6695Y4940D02*
X7020D01*
X6630Y5005D02*
X6695Y4940D01*
X6650Y5015D02*
Y5500D01*
Y5015D02*
X6705Y4960D01*
X6995D01*
X6510Y4940D02*
X6805Y4645D01*
X6510Y4940D02*
Y5240D01*
X6535Y4945D02*
Y5390D01*
Y4945D02*
X6831Y4649D01*
X6555Y4955D02*
X6851Y4659D01*
X6555Y4955D02*
Y5380D01*
X6460Y4910D02*
Y5620D01*
Y4910D02*
X6755Y4615D01*
X6485Y4915D02*
X6780Y4620D01*
X6730Y2650D02*
Y4605D01*
X6410Y4895D02*
X6700Y4605D01*
X6435Y4900D02*
X6730Y4605D01*
X4860Y5645D02*
X6475D01*
X4870Y5665D02*
X6485D01*
X7047Y5040D02*
Y5088D01*
X7003Y5133D02*
X7047Y5088D01*
X6882Y5192D02*
X6935D01*
X6872Y5202D02*
X6882Y5192D01*
X6848Y5172D02*
X6935D01*
X6435Y4900D02*
Y5172D01*
X6345Y5185D02*
X6360Y5200D01*
X7035Y2700D02*
Y2863D01*
X7535Y1165D02*
X7565Y1195D01*
Y1287D01*
X7335Y1212D02*
Y1287D01*
X7386Y1026D02*
Y1063D01*
X7437Y1028D02*
Y1063D01*
Y1028D02*
X7476Y989D01*
Y950D02*
Y989D01*
X7557Y1138D02*
X7565Y1130D01*
Y1063D02*
Y1130D01*
X7335Y1063D02*
Y1138D01*
X7362Y5560D02*
Y5597D01*
X7375Y5610D01*
X8035Y920D02*
Y5280D01*
X8010Y895D02*
Y5270D01*
X8195Y1250D02*
Y3035D01*
X8215Y1305D02*
Y3025D01*
X7382Y5560D02*
X8145D01*
X8175Y5530D01*
X7343Y5560D02*
Y5605D01*
X7375Y5610D02*
X8165D01*
X8200Y3240D02*
Y5575D01*
X8165Y5610D02*
X8200Y5575D01*
X7343Y5605D02*
X7367Y5630D01*
X7284Y5560D02*
Y5614D01*
X7351Y5681D01*
X7264Y5560D02*
Y5624D01*
X7341Y5701D01*
X7244Y5560D02*
Y5634D01*
X7331Y5721D01*
X8215Y3025D02*
X8295Y3105D01*
X8195Y3035D02*
X8275Y3115D01*
X8235Y3015D02*
X8315Y3095D01*
X8175Y1080D02*
X8251Y1004D01*
X8155Y1070D02*
X8241Y984D01*
X8135Y1060D02*
X8230Y965D01*
X8110Y1055D02*
X8220Y945D01*
X8235Y1315D02*
Y3015D01*
X7205Y5560D02*
Y5660D01*
X7285Y5740D01*
X7367Y5630D02*
X8180D01*
X8225Y3270D02*
Y5585D01*
X8180Y5630D02*
X8225Y5585D01*
X8194Y5701D02*
X8295Y5600D01*
Y3105D02*
Y5600D01*
X7341Y5701D02*
X8194D01*
X8186Y5681D02*
X8275Y5593D01*
Y3115D02*
Y5593D01*
X7351Y5681D02*
X8186D01*
X8250Y3650D02*
Y5590D01*
X8185Y5655D02*
X8250Y5590D01*
X7500Y5655D02*
X8185D01*
X7331Y5721D02*
X8204D01*
X8315Y5610D01*
Y3095D02*
Y5610D01*
X7285Y5740D02*
X8215D01*
X8335Y5620D01*
Y3085D02*
Y5620D01*
X8255Y3005D02*
X8335Y3085D01*
X8255Y1325D02*
Y3005D01*
X8085Y1295D02*
Y5390D01*
X7540Y1240D02*
Y1287D01*
X7463Y1190D02*
Y1287D01*
X8235Y1315D02*
X8250Y1300D01*
X8255Y1325D02*
X8275Y1305D01*
Y1240D02*
Y1305D01*
X8250Y1190D02*
Y1300D01*
X8215Y1305D02*
X8225Y1295D01*
Y1270D02*
Y1295D01*
X8195Y1250D02*
X8210Y1235D01*
Y1215D02*
Y1235D01*
X8110Y1055D02*
Y4902D01*
X8175Y1080D02*
Y5530D01*
X8155Y1070D02*
Y5390D01*
X8135Y1060D02*
Y5380D01*
X7488Y1215D02*
Y1287D01*
X7250Y1212D02*
X7335D01*
X7335Y1212D01*
X7335Y1212D02*
X7382Y1165D01*
X7437Y1287D02*
X7437Y1240D01*
X10300Y550D02*
Y631D01*
X10270Y520D02*
X10300Y550D01*
X10145Y520D02*
X10270D01*
X9662Y879D02*
X9800D01*
X9521D02*
X9588D01*
X7360Y1030D02*
Y1063D01*
X7350Y950D02*
Y990D01*
X7386Y1026D01*
X7340Y1010D02*
X7360Y1030D01*
X7295Y1010D02*
X7340D01*
X8220Y945D02*
X8755D01*
X8230Y965D02*
X8770D01*
X9650Y520D02*
X9800D01*
X7250Y1212D02*
Y1260D01*
X7412Y1165D02*
Y1287D01*
X7382Y1165D02*
X7535D01*
X7305Y1138D02*
Y1180D01*
X7250Y1138D02*
X7557D01*
X6715Y5795D02*
Y6235D01*
X6232Y6237D02*
X6387D01*
X6580Y5215D02*
Y5230D01*
X6510Y5240D02*
Y5260D01*
X6805Y3110D02*
Y4645D01*
X6780Y3035D02*
Y4620D01*
X6410Y4895D02*
Y5045D01*
X7047Y5560D02*
Y5633D01*
X6915Y5765D02*
X7047Y5633D01*
X7067Y5560D02*
Y5695D01*
X6425Y5215D02*
Y5610D01*
X6375Y5165D02*
X6425Y5215D01*
X6375Y4895D02*
Y5165D01*
Y4895D02*
X6545Y4725D01*
Y4515D02*
Y4725D01*
X6455Y4425D02*
X6545Y4515D01*
X6455Y4325D02*
Y4425D01*
Y4325D02*
X6495Y4285D01*
X6640D01*
X6670Y4255D01*
Y3880D02*
Y4255D01*
X6600Y3810D02*
X6670Y3880D01*
X6600Y3565D02*
Y3810D01*
Y3565D02*
X6670Y3495D01*
X6851Y1521D02*
Y4659D01*
X6870Y1455D02*
Y4705D01*
X6920Y1385D02*
Y4745D01*
X6975Y1145D02*
Y1675D01*
X7005Y1455D02*
X7005Y875D01*
X6715Y1385D02*
X6851Y1521D01*
X6145Y95D02*
Y610D01*
X6920Y1385D01*
X6690Y1395D02*
X6831Y1536D01*
X6690Y1250D02*
Y1395D01*
X6715Y1225D02*
Y1385D01*
X9675Y970D02*
Y1219D01*
X10150Y705D02*
Y879D01*
Y705D02*
X10300D01*
X9535D02*
X10076D01*
X9315Y925D02*
X9535Y705D01*
X8755Y945D02*
X8780Y920D01*
X8770Y965D02*
X8820Y915D01*
X8251Y1004D02*
X8788D01*
X8870Y830D02*
Y923D01*
X8788Y1004D02*
X8870Y923D01*
X8839Y881D02*
Y926D01*
X8781Y984D02*
X8839Y926D01*
X8241Y984D02*
X8781D01*
X8535Y1025D02*
X8800D01*
X8500Y1060D02*
X8535Y1025D01*
X8500Y1060D02*
Y1455D01*
X6670Y1520D02*
Y3495D01*
X7156Y5211D02*
X7280Y5335D01*
X7224Y5369D02*
X7455D01*
X7215Y5360D02*
X7224Y5369D01*
X7175Y1675D02*
X7225Y1725D01*
X7126Y5511D02*
Y5560D01*
X7090Y5475D02*
X7126Y5511D01*
X7146Y5519D02*
X7155Y5510D01*
X7120Y5100D02*
Y5130D01*
Y5100D02*
X7126Y5094D01*
Y5040D02*
Y5094D01*
X7225Y3450D02*
Y3650D01*
X7400Y5800D02*
Y5863D01*
X7500Y5800D02*
Y5863D01*
X9275Y895D02*
X9650Y520D01*
X7575Y2025D02*
X7625Y1975D01*
X7575Y2025D02*
Y2219D01*
Y3725D02*
X7625Y3675D01*
X7575Y3725D02*
Y3919D01*
X9965Y1220D02*
X10024D01*
X10125Y1140D02*
Y1219D01*
X10175Y1140D02*
Y1219D01*
X10225Y1140D02*
Y1219D01*
X10275Y1140D02*
Y1219D01*
X10325Y1140D02*
Y1219D01*
X7275Y1980D02*
Y2219D01*
Y3695D02*
Y3919D01*
X7835Y1095D02*
Y5060D01*
X7225Y1980D02*
Y2219D01*
Y3700D02*
Y3919D01*
X10075Y1140D02*
Y1225D01*
X7810Y1120D02*
Y5035D01*
X7325Y1980D02*
Y2219D01*
Y3685D02*
Y3919D01*
X7860Y1070D02*
Y5085D01*
X6225Y1045D02*
Y1220D01*
X7375Y1980D02*
Y2219D01*
Y3685D02*
Y3919D01*
X7885Y1045D02*
Y5110D01*
X7475Y1980D02*
Y2219D01*
Y3685D02*
Y3919D01*
X7935Y995D02*
Y5190D01*
X10375Y1140D02*
Y1219D01*
X7525Y1980D02*
Y2219D01*
Y3685D02*
Y3919D01*
X7960Y970D02*
Y5215D01*
X9160Y925D02*
X9315D01*
X9125Y890D02*
X9160Y925D01*
X8935Y890D02*
X9125D01*
X8800Y1025D02*
X8935Y890D01*
X9025Y945D02*
Y1219D01*
X10425Y1140D02*
Y1219D01*
X9725Y945D02*
Y1219D01*
X5025Y945D02*
Y1219D01*
X6425Y945D02*
Y1219D01*
X5725Y945D02*
Y1219D01*
X7985Y945D02*
Y5240D01*
X6795Y875D02*
Y920D01*
X6870Y740D02*
Y895D01*
X7275Y870D02*
Y990D01*
X7295Y1010D01*
X4471Y6344D02*
X4587Y6228D01*
X4471Y6344D02*
Y6544D01*
X5475Y6490D02*
X5800Y6165D01*
X5475Y6490D02*
Y6602D01*
X5546Y6673D01*
Y6547D02*
X5850Y6243D01*
X6978Y6510D02*
Y6712D01*
X6920Y6770D02*
X6978Y6712D01*
X6520Y6770D02*
X6750Y6540D01*
X6620Y6720D02*
X6770Y6570D01*
X6620Y6720D02*
Y6825D01*
X6580Y6865D02*
X6620Y6825D01*
X6415Y6865D02*
X6580D01*
X6320Y6770D02*
X6415Y6865D01*
D47*
X6997Y2937D02*
X7198D01*
X7085D02*
Y2970D01*
X7475Y2685D02*
Y2795D01*
X7425Y2705D02*
Y2840D01*
X7135Y2715D02*
X7160Y2690D01*
X7135Y2715D02*
Y2863D01*
X7575Y2795D02*
Y2835D01*
X7550Y2860D02*
X7575Y2835D01*
X7445Y2860D02*
X7550D01*
X7425Y2840D02*
X7445Y2860D01*
X7225Y2964D02*
Y3005D01*
X7198Y2937D02*
X7225Y2964D01*
X7705Y2475D02*
Y4860D01*
X7680Y2450D02*
X7705Y2475D01*
X7250Y2450D02*
X7680D01*
X10700Y430D02*
Y1350D01*
X10780Y1125D02*
Y1420D01*
X10740Y885D02*
Y1385D01*
Y885D02*
X10775Y850D01*
X10963D01*
X10700Y430D02*
X10730Y400D01*
X10963D01*
X7625Y1460D02*
Y1519D01*
X7605Y1440D02*
X7625Y1460D01*
X7100Y1440D02*
X7605D01*
X7050Y1490D02*
X7100Y1440D01*
X7050Y1805D02*
X7100Y1855D01*
X7575Y1519D02*
Y1805D01*
X7525Y1519D02*
Y1805D01*
X7475Y1519D02*
Y1805D01*
X7380Y1635D02*
Y1680D01*
X7345D02*
Y1710D01*
X7310Y1635D02*
Y1740D01*
X7425Y1519D02*
Y1645D01*
X7380Y1605D02*
Y1635D01*
X7375Y1600D02*
X7380Y1605D01*
X7375Y1519D02*
Y1600D01*
X7345Y1620D02*
Y1680D01*
X7325Y1600D02*
X7345Y1620D01*
X7325Y1519D02*
Y1600D01*
X7275D02*
X7310Y1635D01*
X7275Y1519D02*
Y1600D01*
X14587Y780D02*
X14865D01*
X7275Y1650D02*
Y1770D01*
X7225Y1600D02*
X7275Y1650D01*
X7225Y1519D02*
Y1600D01*
X7050Y3437D02*
Y3490D01*
Y3120D02*
Y3363D01*
Y3120D02*
X7060Y3110D01*
X7595D01*
X7625Y3140D01*
Y3219D01*
X7575Y3145D02*
Y3219D01*
X7525D02*
Y3370D01*
X7475Y3219D02*
Y3400D01*
X7425Y3219D02*
Y3430D01*
X7375Y3219D02*
Y3460D01*
X7325Y3219D02*
Y3490D01*
X7275Y3219D02*
Y3400D01*
X7225Y3219D02*
Y3365D01*
X7175Y3480D02*
Y3581D01*
X7132Y3437D02*
X7175Y3480D01*
X7050Y3437D02*
X7132D01*
X5063Y5017D02*
Y5365D01*
X4920Y5225D02*
X5063D01*
X5563Y5022D02*
Y5365D01*
X5420Y5225D02*
X5563D01*
X5637Y4835D02*
Y4948D01*
X5563Y5022D02*
X5637Y4948D01*
X6063Y5017D02*
Y5365D01*
X5920Y5225D02*
X6063D01*
Y5017D02*
X6137Y4943D01*
Y4835D02*
Y4943D01*
Y4835D02*
X6228D01*
X4563Y5017D02*
Y5365D01*
X4420Y5225D02*
X4563D01*
X4472Y5365D02*
X4563D01*
X5137Y4835D02*
Y4943D01*
X5063Y5017D02*
X5137Y4943D01*
X6175Y4975D02*
X6280D01*
X6137Y5013D02*
X6175Y4975D01*
X6137Y5013D02*
Y5365D01*
X5675Y4975D02*
X5780D01*
X5637Y5013D02*
X5675Y4975D01*
X5637Y5013D02*
Y5365D01*
X5175Y4975D02*
X5280D01*
X5137Y5013D02*
X5175Y4975D01*
X5137Y5013D02*
Y5365D01*
X4637Y4835D02*
Y4943D01*
X4563Y5017D02*
X4637Y4943D01*
X4675Y4975D02*
X4780D01*
X4637Y5013D02*
X4675Y4975D01*
X4637Y5013D02*
Y5365D01*
X9240Y3700D02*
Y3854D01*
X9105Y3700D02*
X9245D01*
X8901Y4046D02*
X9060D01*
X8900Y4045D02*
Y4145D01*
X8850Y3995D02*
X8900Y4045D01*
X8850Y3955D02*
Y3995D01*
X8754Y2946D02*
X8870D01*
X8750Y2935D02*
Y3045D01*
X8705Y2890D02*
X8750Y2935D01*
X8705Y2855D02*
Y2890D01*
X9050Y2600D02*
Y2754D01*
X8905Y2600D02*
X9050D01*
X9350Y2800D02*
Y2885D01*
X9400Y2935D01*
X9230Y2946D02*
X9396D01*
X9400Y2935D02*
Y3000D01*
X9550Y3905D02*
Y3985D01*
X9600Y4035D01*
X9420Y4046D02*
X9599D01*
X9600Y4035D02*
Y4095D01*
X9250Y4181D02*
Y4340D01*
X9225Y4350D02*
X9345D01*
X9277Y3946D02*
X9835Y3389D01*
Y2510D02*
Y3389D01*
X9335Y2010D02*
X9835Y2510D01*
X9135Y2010D02*
X9335D01*
X9100Y1975D02*
X9135Y2010D01*
X9100Y1837D02*
Y1975D01*
X9023Y3954D02*
X9076Y3900D01*
X9265D01*
X9795Y3370D01*
Y2525D02*
Y3370D01*
X9320Y2050D02*
X9795Y2525D01*
X9045Y2050D02*
X9320D01*
X9000Y2005D02*
X9045Y2050D01*
X9000Y1837D02*
Y2005D01*
X8833Y2854D02*
X8884Y2905D01*
X8935D01*
X8970Y2940D01*
Y3165D01*
X9025Y3220D01*
X9680D01*
X9755Y3145D01*
Y2540D02*
Y3145D01*
X9305Y2090D02*
X9755Y2540D01*
X8940Y2090D02*
X9305D01*
X8900Y2050D02*
X8940Y2090D01*
X8900Y1837D02*
Y2050D01*
X9087Y2846D02*
Y3137D01*
X9125Y3175D01*
X9650D01*
X9720Y3105D01*
Y2560D02*
Y3105D01*
X9285Y2125D02*
X9720Y2560D01*
X8850Y2125D02*
X9285D01*
X8800Y2075D02*
X8850Y2125D01*
X8800Y1837D02*
Y2075D01*
X9193Y2742D02*
Y2854D01*
Y2742D02*
X9420Y2515D01*
Y2325D02*
Y2515D01*
X9255Y2160D02*
X9420Y2325D01*
X8740Y2160D02*
X9255D01*
X8700Y2120D02*
X8740Y2160D01*
X8700Y1837D02*
Y2120D01*
X9336Y4000D02*
X9383Y3954D01*
X8965Y4000D02*
X9336D01*
X8935Y3970D02*
X8965Y4000D01*
X8935Y3645D02*
Y3970D01*
X8880Y3590D02*
X8935Y3645D01*
X8520Y3590D02*
X8880D01*
X8310Y2225D02*
X8380Y2155D01*
X8555D01*
X8600Y2110D01*
Y1837D02*
Y2110D01*
X9101Y4200D02*
X9213Y4089D01*
X8835Y4200D02*
X9101D01*
X8715Y4080D02*
X8835Y4200D01*
X8450Y4080D02*
X8715D01*
X8365Y2110D02*
X8475D01*
X8500Y2085D01*
Y1837D02*
Y2085D01*
X10865Y3700D02*
Y3854D01*
X10730Y3700D02*
X10870D01*
X10529Y4046D02*
X10685D01*
X10525Y4050D02*
Y4145D01*
X10475Y4000D02*
X10525Y4050D01*
X10475Y3955D02*
Y4000D01*
X10384Y2946D02*
X10495D01*
X10375Y2940D02*
Y3045D01*
X10330Y2895D02*
X10375Y2940D01*
X10330Y2855D02*
Y2895D01*
X10675Y2600D02*
Y2754D01*
X10530Y2600D02*
X10675D01*
X10975Y2800D02*
Y2900D01*
X11025Y2950D01*
X10855Y2946D02*
X11021D01*
X11025Y2950D02*
Y3000D01*
X11175Y3905D02*
Y3985D01*
X11045Y4046D02*
X11224D01*
X11175Y3985D02*
X11225Y4035D01*
Y4095D01*
X10875Y4181D02*
Y4345D01*
X10850Y4350D02*
X10970D01*
X10902Y3946D02*
X11475Y3374D01*
Y2385D02*
Y3374D01*
X11280Y2190D02*
X11475Y2385D01*
X10090Y2190D02*
X11280D01*
X9800Y1900D02*
X10090Y2190D01*
X9800Y1837D02*
Y1900D01*
X10648Y3954D02*
X10701Y3900D01*
X10885D01*
X11440Y3345D01*
Y2405D02*
Y3345D01*
X11260Y2225D02*
X11440Y2405D01*
X10025Y2225D02*
X11260D01*
X9700Y1900D02*
X10025Y2225D01*
X9700Y1837D02*
Y1900D01*
X10458Y2854D02*
X10504Y2900D01*
X10555D01*
X10600Y2945D01*
Y3175D01*
X10645Y3220D01*
X11285D01*
X11400Y3105D01*
Y2420D02*
Y3105D01*
X11240Y2260D02*
X11400Y2420D01*
X9960Y2260D02*
X11240D01*
X9600Y1900D02*
X9960Y2260D01*
X9600Y1837D02*
Y1900D01*
X10712Y2846D02*
Y3112D01*
X10775Y3175D01*
X11265D01*
X11360Y3080D01*
Y2440D02*
Y3080D01*
X11215Y2295D02*
X11360Y2440D01*
X9895Y2295D02*
X11215D01*
X9500Y1900D02*
X9895Y2295D01*
X9500Y1837D02*
Y1900D01*
X10818Y2732D02*
Y2854D01*
Y2732D02*
X11050Y2500D01*
Y2380D02*
Y2500D01*
X11000Y2330D02*
X11050Y2380D01*
X9830Y2330D02*
X11000D01*
X9400Y1900D02*
X9830Y2330D01*
X9400Y1837D02*
Y1900D01*
X10961Y4000D02*
X11008Y3954D01*
X10590Y4000D02*
X10961D01*
X10550Y3960D02*
X10590Y4000D01*
X10550Y3690D02*
Y3960D01*
X10465Y3605D02*
X10550Y3690D01*
X10040Y3605D02*
X10465D01*
X9915Y3480D02*
X10040Y3605D01*
X9915Y2470D02*
Y3480D01*
X9375Y1930D02*
X9915Y2470D01*
X9330Y1930D02*
X9375D01*
X9300Y1900D02*
X9330Y1930D01*
X9300Y1837D02*
Y1900D01*
X10726Y4200D02*
X10838Y4089D01*
X10470Y4200D02*
X10726D01*
X10335Y4065D02*
X10470Y4200D01*
X10170Y4065D02*
X10335D01*
X9875Y3770D02*
X10170Y4065D01*
X9875Y2490D02*
Y3770D01*
X9355Y1970D02*
X9875Y2490D01*
X9235Y1970D02*
X9355D01*
X9200Y1935D02*
X9235Y1970D01*
X9200Y1837D02*
Y1935D01*
X12490Y3705D02*
Y3854D01*
X12355Y3700D02*
X12495D01*
X12151Y4046D02*
X12310D01*
X12150Y4045D02*
Y4145D01*
X12100Y3995D02*
X12150Y4045D01*
X12100Y3955D02*
Y3995D01*
X12000Y2955D02*
Y3045D01*
X12003Y2946D02*
X12120D01*
X11955Y2910D02*
X12000Y2955D01*
X11955Y2855D02*
Y2910D01*
X12300Y2600D02*
Y2754D01*
X12155Y2600D02*
X12300D01*
X12600Y2800D02*
Y2875D01*
X12650Y2925D01*
X12480Y2946D02*
X12646D01*
X12650Y2925D02*
Y3000D01*
X12800Y3905D02*
Y3985D01*
X12670Y4046D02*
X12849D01*
X12800Y3985D02*
X12850Y4035D01*
Y4095D01*
X12475Y4350D02*
X12595D01*
X12500Y4181D02*
Y4345D01*
X12273Y3917D02*
Y3954D01*
Y3917D02*
X12290Y3900D01*
X12525D01*
X13110Y3315D01*
Y2240D02*
Y3315D01*
X12995Y2125D02*
X13110Y2240D01*
X12040Y2125D02*
X12995D01*
X11895Y1980D02*
X12040Y2125D01*
X10480Y1980D02*
X11895D01*
X10400Y1900D02*
X10480Y1980D01*
X10400Y1837D02*
Y1900D01*
X12083Y2854D02*
X12129Y2900D01*
X12185D01*
X12205Y2920D01*
Y3185D01*
X12240Y3220D01*
X12965D01*
X13070Y3115D01*
Y2255D02*
Y3115D01*
X12975Y2160D02*
X13070Y2255D01*
X12025Y2160D02*
X12975D01*
X11880Y2015D02*
X12025Y2160D01*
X10415Y2015D02*
X11880D01*
X10300Y1900D02*
X10415Y2015D01*
X10300Y1837D02*
Y1900D01*
X12337Y2846D02*
Y3158D01*
X12365Y3185D01*
X12950D01*
X13030Y3105D01*
Y2270D02*
Y3105D01*
X12950Y2190D02*
X13030Y2270D01*
X12010Y2190D02*
X12950D01*
X11870Y2050D02*
X12010Y2190D01*
X10350Y2050D02*
X11870D01*
X10200Y1900D02*
X10350Y2050D01*
X10200Y1837D02*
Y1900D01*
X12443Y2737D02*
Y2854D01*
Y2737D02*
X12670Y2510D01*
Y2285D02*
Y2510D01*
X12610Y2225D02*
X12670Y2285D01*
X12000Y2225D02*
X12610D01*
X11860Y2085D02*
X12000Y2225D01*
X10285Y2085D02*
X11860D01*
X10100Y1900D02*
X10285Y2085D01*
X10100Y1837D02*
Y1900D01*
X12581Y4005D02*
X12633Y3954D01*
X12210Y4005D02*
X12581D01*
X12175Y3970D02*
X12210Y4005D01*
X12175Y3690D02*
Y3970D01*
X12110Y3625D02*
X12175Y3690D01*
X11725Y3625D02*
X12110D01*
X11555Y3455D02*
X11725Y3625D01*
X11555Y2355D02*
Y3455D01*
X11320Y2120D02*
X11555Y2355D01*
X10220Y2120D02*
X11320D01*
X10000Y1900D02*
X10220Y2120D01*
X10000Y1837D02*
Y1900D01*
X12351Y4200D02*
X12463Y4089D01*
X12100Y4200D02*
X12351D01*
X11960Y4060D02*
X12100Y4200D01*
X11705Y4060D02*
X11960D01*
X11515Y3870D02*
X11705Y4060D01*
X11515Y2370D02*
Y3870D01*
X11300Y2155D02*
X11515Y2370D01*
X10155Y2155D02*
X11300D01*
X9900Y1900D02*
X10155Y2155D01*
X9900Y1837D02*
Y1900D01*
X12527Y3946D02*
X13145Y3329D01*
Y2215D02*
Y3329D01*
X13020Y2090D02*
X13145Y2215D01*
X12055Y2090D02*
X13020D01*
X11910Y1945D02*
X12055Y2090D01*
X10545Y1945D02*
X11910D01*
X10500Y1900D02*
X10545Y1945D01*
X10500Y1837D02*
Y1900D01*
X2740Y3700D02*
Y3854D01*
X2605Y3700D02*
X2745D01*
X2400Y4050D02*
Y4145D01*
X2404Y4046D02*
X2560D01*
X2350Y4000D02*
X2400Y4050D01*
X2350Y3955D02*
Y4000D01*
X2251Y2946D02*
X2370D01*
X2250Y2940D02*
Y3045D01*
X2205Y2895D02*
X2250Y2940D01*
X2205Y2855D02*
Y2895D01*
X2550Y2600D02*
Y2754D01*
X2405Y2600D02*
X2550D01*
X2850Y2800D02*
Y2895D01*
X2900Y2945D01*
X2730Y2946D02*
X2891D01*
X2900Y2945D02*
Y3000D01*
X3050Y3905D02*
Y3990D01*
X3100Y4040D01*
X2920Y4046D02*
X3099D01*
X3100Y4040D02*
Y4095D01*
X2725Y4350D02*
X2845D01*
X2750Y4181D02*
Y4345D01*
X2777Y3946D02*
X3350Y3374D01*
Y2360D02*
Y3374D01*
Y2360D02*
X3510Y2200D01*
X4870D01*
X5100Y1970D01*
Y1837D02*
Y1970D01*
X2523Y3927D02*
Y3954D01*
Y3927D02*
X2550Y3900D01*
X2775D01*
X3310Y3365D01*
Y2345D02*
Y3365D01*
Y2345D02*
X3490Y2165D01*
X4815D01*
X5000Y1980D01*
Y1837D02*
Y1980D01*
X2333Y2854D02*
Y2877D01*
X2355Y2900D01*
X2455D01*
X2500Y2945D01*
Y3160D01*
X2545Y3205D01*
X3195D01*
X3270Y3130D01*
Y2330D02*
Y3130D01*
Y2330D02*
X3470Y2130D01*
X4725D01*
X4900Y1955D01*
Y1837D02*
Y1955D01*
X2587Y2846D02*
Y3143D01*
X2610Y3165D01*
X3180D01*
X3230Y3115D01*
Y2315D02*
Y3115D01*
Y2315D02*
X3450Y2095D01*
X4680D01*
X4800Y1975D01*
Y1837D02*
Y1975D01*
X2693Y2732D02*
Y2854D01*
Y2732D02*
X3365Y2060D01*
X4650D01*
X4700Y2010D01*
Y1837D02*
Y2010D01*
X2836Y4000D02*
X2883Y3954D01*
X2475Y4000D02*
X2836D01*
X2445Y3970D02*
X2475Y4000D01*
X2445Y3780D02*
Y3970D01*
X2400Y3735D02*
X2445Y3780D01*
X2275Y3735D02*
X2400D01*
X1795Y3255D02*
X2275Y3735D01*
X1795Y2525D02*
Y3255D01*
Y2525D02*
X1985Y2335D01*
X3025D01*
X3335Y2025D01*
X4555D01*
X4600Y1980D01*
Y1837D02*
Y1980D01*
X2601Y4200D02*
X2713Y4089D01*
X2340Y4200D02*
X2601D01*
X2235Y4095D02*
X2340Y4200D01*
X2090Y4095D02*
X2235D01*
X1755Y3760D02*
X2090Y4095D01*
X1755Y2490D02*
Y3760D01*
Y2490D02*
X1950Y2295D01*
X3005D01*
X3310Y1990D01*
X4475D01*
X4500Y1965D01*
Y1837D02*
Y1965D01*
X4365Y3705D02*
Y3854D01*
X4230Y3700D02*
X4370D01*
X4029Y4046D02*
X4185D01*
X4025Y4050D02*
Y4145D01*
X3975Y4000D02*
X4025Y4050D01*
X3975Y3955D02*
Y4000D01*
X3875Y2945D02*
Y3045D01*
X3876Y2946D02*
X3995D01*
X3830Y2900D02*
X3875Y2945D01*
X3830Y2855D02*
Y2900D01*
X4175Y2600D02*
Y2754D01*
X4030Y2600D02*
X4175D01*
X4475Y2800D02*
Y2890D01*
X4525Y2940D01*
X4355Y2946D02*
X4519D01*
X4525Y2940D02*
Y3000D01*
X4675Y3905D02*
Y3985D01*
X4725Y4035D01*
X4545Y4046D02*
X4721D01*
X4725Y4035D02*
Y4095D01*
X4375Y4181D02*
Y4350D01*
X4350Y4350D02*
X4470D01*
X4402Y3946D02*
X4975Y3374D01*
Y2490D02*
Y3374D01*
Y2490D02*
X5220Y2245D01*
X5700D01*
X5800Y2145D01*
Y1837D02*
Y2145D01*
X4148Y3928D02*
Y3954D01*
Y3928D02*
X4175Y3900D01*
X4400D01*
X4935Y3365D01*
Y2475D02*
Y3365D01*
Y2475D02*
X5200Y2210D01*
X5605D01*
X5700Y2115D01*
Y1837D02*
Y2115D01*
X3958Y2854D02*
Y2872D01*
X3985Y2900D01*
X4080D01*
X4100Y2920D01*
Y3155D01*
X4150Y3205D01*
X4795D01*
X4895Y3105D01*
Y2465D02*
Y3105D01*
Y2465D02*
X5185Y2175D01*
X5530D01*
X5600Y2105D01*
Y1837D02*
Y2105D01*
X4212Y2846D02*
Y3133D01*
X4250Y3170D01*
X4780D01*
X4855Y3095D01*
Y2450D02*
Y3095D01*
Y2450D02*
X5165Y2140D01*
X5420D01*
X5500Y2060D01*
Y1837D02*
Y2060D01*
X4318Y2717D02*
Y2854D01*
Y2717D02*
X4710Y2325D01*
X4925D01*
X5400Y1837D02*
Y1850D01*
X4925Y2325D02*
X5400Y1850D01*
X4461Y4000D02*
X4508Y3954D01*
X4105Y4000D02*
X4461D01*
X4065Y3960D02*
X4105Y4000D01*
X4065Y3790D02*
Y3960D01*
X4005Y3730D02*
X4065Y3790D01*
X3900Y3730D02*
X4005D01*
X3430Y3260D02*
X3900Y3730D01*
X3430Y2400D02*
Y3260D01*
Y2400D02*
X3545Y2285D01*
X4910D01*
X5300Y1895D01*
Y1837D02*
Y1895D01*
X4226Y4200D02*
X4338Y4089D01*
X3970Y4200D02*
X4226D01*
X3840Y4070D02*
X3970Y4200D01*
X3725Y4070D02*
X3840D01*
X3390Y3735D02*
X3725Y4070D01*
X3390Y2380D02*
Y3735D01*
Y2380D02*
X3525Y2245D01*
X4885D01*
X5200Y1930D01*
Y1837D02*
Y1930D01*
X5990Y3705D02*
Y3854D01*
X5855Y3700D02*
X5995D01*
X5644Y4046D02*
X5810D01*
X5650Y4060D02*
Y4145D01*
X5600Y4010D02*
X5650Y4060D01*
X5600Y3955D02*
Y4010D01*
X5500Y2940D02*
Y3045D01*
X5501Y2946D02*
X5620D01*
X5455Y2895D02*
X5500Y2940D01*
X5455Y2855D02*
Y2895D01*
X5800Y2600D02*
Y2754D01*
X5655Y2600D02*
X5800D01*
X6100Y2805D02*
Y2895D01*
X6150Y2945D01*
X5980Y2946D02*
X6149D01*
X6150Y2945D02*
Y2995D01*
X6300Y3905D02*
Y3955D01*
X6170Y4046D02*
X6346D01*
X6300Y3955D02*
X6350Y4005D01*
Y4095D01*
X5975Y4350D02*
X6095D01*
X6000Y4181D02*
Y4350D01*
X6500Y2000D02*
X6600Y2100D01*
X6500Y1837D02*
Y2000D01*
X5773Y3927D02*
Y3954D01*
Y3927D02*
X5800Y3900D01*
X6020D01*
X6400Y2000D02*
X6560Y2160D01*
X6400Y1837D02*
Y2000D01*
X5583Y2888D02*
X5595Y2900D01*
X5583Y2854D02*
Y2888D01*
X5595Y2900D02*
X5665D01*
X5700Y2935D01*
Y3150D01*
X5755Y3205D01*
X6450D01*
X6520Y3135D01*
Y2220D02*
Y3135D01*
X6300Y2000D02*
X6520Y2220D01*
X6300Y1837D02*
Y2000D01*
X5837Y2846D02*
Y3122D01*
X5880Y3165D01*
X6435D01*
X6480Y3120D01*
Y2280D02*
Y3120D01*
X6200Y2000D02*
X6480Y2280D01*
X6200Y1837D02*
Y2000D01*
X5943Y2702D02*
Y2854D01*
Y2702D02*
X6200Y2445D01*
Y2100D02*
Y2445D01*
X6100Y2000D02*
X6200Y2100D01*
X6100Y1837D02*
Y2000D01*
X6086Y4000D02*
X6133Y3954D01*
X5730Y4000D02*
X6086D01*
X5675Y3945D02*
X5730Y4000D01*
X5675Y3655D02*
Y3945D01*
X5590Y3570D02*
X5675Y3655D01*
X5250Y3570D02*
X5590D01*
X5050Y3370D02*
X5250Y3570D01*
X5050Y2525D02*
Y3370D01*
Y2525D02*
X5250Y2325D01*
X5955D01*
X6000Y2280D01*
Y1837D02*
Y2280D01*
X5851Y4200D02*
X5963Y4089D01*
X5600Y4200D02*
X5851D01*
X5500Y4100D02*
X5600Y4200D01*
X5255Y4100D02*
X5500D01*
X5010Y3855D02*
X5255Y4100D01*
X5010Y2510D02*
Y3855D01*
Y2510D02*
X5230Y2290D01*
X5845D01*
X5900Y2235D01*
Y1837D02*
Y2235D01*
X5985Y1300D02*
X6048Y1363D01*
X7825Y200D02*
Y263D01*
X6895Y1615D02*
Y4890D01*
X6030Y1675D02*
X6075Y1630D01*
X5915Y1675D02*
X6030D01*
X11775Y6700D02*
X11863D01*
X7225Y2475D02*
X7250Y2450D01*
X7225Y2475D02*
Y2581D01*
X7050Y1737D02*
Y1805D01*
Y1490D02*
Y1663D01*
X7012Y2363D02*
X7613D01*
X6990Y2385D02*
X7012Y2363D01*
X7050Y2437D02*
Y2500D01*
Y4063D02*
X7607D01*
X7050Y4000D02*
Y4063D01*
Y4250D02*
X7100Y4300D01*
X7050Y4137D02*
Y4250D01*
X4255Y4890D02*
Y6105D01*
X10425Y1625D02*
X10455Y1655D01*
X10425Y1581D02*
Y1625D01*
X7625Y2219D02*
Y2351D01*
X7613Y2363D02*
X7625Y2351D01*
Y3919D02*
Y4045D01*
X7607Y4063D02*
X7625Y4045D01*
X7050Y4137D02*
X7127D01*
X7175Y4185D01*
Y4281D01*
X7575Y4200D02*
Y4281D01*
X10880Y6350D02*
X10963D01*
X7525Y4200D02*
Y4281D01*
X10880Y5900D02*
X10963D01*
X10200Y6000D02*
X10270Y5930D01*
X10945Y5745D02*
X10963Y5727D01*
Y5650D02*
Y5727D01*
X10665Y6690D02*
X10700Y6725D01*
X10605Y6690D02*
X10665D01*
X10575Y6660D02*
X10605Y6690D01*
X10575Y6605D02*
Y6660D01*
X7475Y4200D02*
Y4281D01*
X205Y3190D02*
X1300D01*
X85Y3070D02*
X205Y3190D01*
X240Y3150D02*
X1300D01*
X135Y3045D02*
X240Y3150D01*
X275Y3110D02*
X1300D01*
X185Y3020D02*
X275Y3110D01*
X310Y3070D02*
X1300D01*
X235Y2995D02*
X310Y3070D01*
X450Y3030D02*
X1300D01*
X1500Y2475D02*
Y3260D01*
X1465Y2460D02*
Y3240D01*
X1425Y2445D02*
Y3220D01*
X413Y2993D02*
X450Y3030D01*
X413Y2950D02*
Y2993D01*
X4080Y5200D02*
X4100Y5180D01*
Y5450D02*
X4150Y5400D01*
Y5200D02*
Y5400D01*
X4100Y5900D02*
X4185Y5815D01*
Y5215D02*
Y5815D01*
X4100Y6150D02*
X4220Y6030D01*
Y5230D02*
Y6030D01*
Y4855D02*
Y5230D01*
X4185Y4825D02*
Y5215D01*
X4150Y4790D02*
Y5200D01*
X4100Y4750D02*
Y5180D01*
X85Y3430D02*
Y6155D01*
X1325Y3320D02*
X1425Y3220D01*
X195Y3320D02*
X1325D01*
X1360Y3400D02*
X1500Y3260D01*
X1345Y3360D02*
X1465Y3240D01*
X85Y3430D02*
X195Y3320D01*
X135Y3450D02*
Y5505D01*
X225Y3360D02*
X1345D01*
X135Y3450D02*
X225Y3360D01*
X185Y3470D02*
Y5150D01*
Y3470D02*
X255Y3400D01*
X1360D01*
X285Y3445D02*
X1600D01*
X235Y3495D02*
X285Y3445D01*
X235Y3495D02*
Y4805D01*
X335Y3485D02*
X1600D01*
X285Y3535D02*
Y4205D01*
Y3535D02*
X335Y3485D01*
X13500Y4050D02*
X14190D01*
X285Y4205D02*
X350Y4270D01*
X14060Y3160D02*
X14835D01*
X13530Y2630D02*
X14060Y3160D01*
X13500Y3380D02*
X14865D01*
X14085Y3080D02*
X14735D01*
X13600Y2595D02*
X14085Y3080D01*
X13565Y2610D02*
X14075Y3120D01*
X14785D01*
X13530Y2550D02*
Y2630D01*
X13190Y2210D02*
X13530Y2550D01*
X13565Y2540D02*
Y2610D01*
X13200Y2175D02*
X13565Y2540D01*
Y2440D02*
X13785D01*
X13230Y2105D02*
X13565Y2440D01*
X13600Y2530D02*
Y2595D01*
X13210Y2140D02*
X13600Y2530D01*
X13805Y2400D02*
X14405Y3000D01*
X14660D01*
X13785Y2440D02*
X14385Y3040D01*
X14700D01*
X14835Y3160D02*
X14915Y3080D01*
X14785Y3120D02*
X14865Y3040D01*
X14735Y3080D02*
X14815Y3000D01*
X14700Y3040D02*
X14765Y2975D01*
Y2175D02*
Y2975D01*
X14915Y830D02*
Y3080D01*
X14865Y1475D02*
Y3040D01*
X14815Y1825D02*
Y3000D01*
X13580Y2400D02*
X13805D01*
X13250Y2070D02*
X13580Y2400D01*
X14715Y2775D02*
Y2945D01*
X14660Y3000D02*
X14715Y2945D01*
X14915Y3430D02*
Y5935D01*
X14865Y3380D02*
X14915Y3430D01*
X14865Y3470D02*
Y5340D01*
X14815Y3420D02*
X14865Y3470D01*
X13500Y3420D02*
X14815D01*
X14765Y3460D02*
X14815Y3510D01*
X13500Y3460D02*
X14765D01*
X14715Y3500D02*
X14765Y3550D01*
X13500Y3500D02*
X14715D01*
X14330Y3910D02*
X14554D01*
X14587Y3943D01*
Y4050D01*
X14190D02*
X14330Y3910D01*
X14765Y3550D02*
Y4650D01*
X14815Y3510D02*
Y5000D01*
X14665Y2725D02*
X14715Y2775D01*
X14587Y2725D02*
X14665D01*
X14715Y2125D02*
X14765Y2175D01*
X14587Y2125D02*
X14715D01*
X14765Y1775D02*
X14815Y1825D01*
X14587Y1775D02*
X14765D01*
X14815Y1425D02*
X14865Y1475D01*
X14587Y1425D02*
X14815D01*
X14865Y780D02*
X14915Y830D01*
X14765Y5050D02*
X14815Y5000D01*
X14587Y5050D02*
X14765D01*
X14715Y4700D02*
X14765Y4650D01*
X14587Y4700D02*
X14715D01*
X14805Y5400D02*
X14865Y5340D01*
X14587Y5400D02*
X14805D01*
X14850Y6000D02*
X14915Y5935D01*
X14587Y6000D02*
X14850D01*
X7475Y2500D02*
Y2581D01*
X4037Y400D02*
X4125D01*
X7425Y2500D02*
Y2581D01*
X4037Y650D02*
X4125D01*
X7375Y2500D02*
Y2581D01*
X4037Y1100D02*
X4100D01*
X7325Y2500D02*
Y2581D01*
X4037Y1350D02*
X4105D01*
X7275Y2500D02*
Y2581D01*
X4037Y1800D02*
X4085D01*
X10900D02*
X10963D01*
X10800Y1700D02*
X10900Y1800D01*
X9725Y1630D02*
X9795Y1700D01*
X9725Y1581D02*
Y1630D01*
X6425Y1490D02*
Y1581D01*
X10880Y1550D02*
X10963D01*
X10785Y1455D02*
X10880Y1550D01*
X9025Y1485D02*
Y1581D01*
X10805Y1100D02*
X10963D01*
X10780Y1125D02*
X10805Y1100D01*
X5725Y1500D02*
Y1581D01*
X5025Y1475D02*
Y1581D01*
X4653Y1437D02*
X5200D01*
X9900D02*
Y1500D01*
X10600Y1437D02*
Y1500D01*
Y1300D02*
Y1363D01*
X9900Y1300D02*
Y1363D01*
X9200Y1437D02*
Y1500D01*
Y1300D02*
Y1363D01*
X12707Y3954D02*
Y3983D01*
X12690Y4000D02*
X12707Y3983D01*
X12640Y4000D02*
X12690D01*
X12551Y4089D02*
X12640Y4000D01*
X12537Y4089D02*
X12551D01*
X12394Y3946D02*
X12453D01*
X12386Y3954D02*
X12394Y3946D01*
X12347Y3954D02*
X12386D01*
X11082D02*
Y3983D01*
X11065Y4000D02*
X11082Y3983D01*
X11015Y4000D02*
X11065D01*
X10926Y4089D02*
X11015Y4000D01*
X10912Y4089D02*
X10926D01*
X10769Y3946D02*
X10828D01*
X10761Y3954D02*
X10769Y3946D01*
X10722Y3954D02*
X10761D01*
X9457D02*
Y3983D01*
X9440Y4000D02*
X9457Y3983D01*
X9385Y4000D02*
X9440D01*
X9296Y4089D02*
X9385Y4000D01*
X9287Y4089D02*
X9296D01*
X9141Y3946D02*
X9203D01*
X9134Y3954D02*
X9141Y3946D01*
X9097Y3954D02*
X9134D01*
X6207D02*
Y3983D01*
X6190Y4000D02*
X6207Y3983D01*
X6145Y4000D02*
X6190D01*
X6056Y4089D02*
X6145Y4000D01*
X6037Y4089D02*
X6056D01*
X5896Y3946D02*
X5953D01*
X5889Y3954D02*
X5896Y3946D01*
X5847Y3954D02*
X5889D01*
X4582D02*
Y3983D01*
X4565Y4000D02*
X4582Y3983D01*
X2513Y2846D02*
X2559Y2800D01*
X12471Y2900D02*
X12517Y2854D01*
X12410Y2900D02*
X12471D01*
X12390Y2880D02*
X12410Y2900D01*
X12390Y2820D02*
Y2880D01*
X12375Y2805D02*
X12390Y2820D01*
X12304Y2805D02*
X12375D01*
X12263Y2846D02*
X12304Y2805D01*
X12201Y2846D02*
X12263D01*
X12194Y2854D02*
X12201Y2846D01*
X12157Y2854D02*
X12194D01*
X10846Y2900D02*
X10892Y2854D01*
X10785Y2900D02*
X10846D01*
X10765Y2880D02*
X10785Y2900D01*
X10765Y2815D02*
Y2880D01*
X10750Y2800D02*
X10765Y2815D01*
X10684Y2800D02*
X10750D01*
X10638Y2846D02*
X10684Y2800D01*
X10571Y2846D02*
X10638D01*
X10564Y2854D02*
X10571Y2846D01*
X10532Y2854D02*
X10564D01*
X9221Y2900D02*
X9267Y2854D01*
X9165Y2900D02*
X9221D01*
X9145Y2880D02*
X9165Y2900D01*
X9145Y2825D02*
Y2880D01*
X9120Y2800D02*
X9145Y2825D01*
X9059Y2800D02*
X9120D01*
X9013Y2846D02*
X9059Y2800D01*
X8951Y2846D02*
X9013D01*
X8944Y2854D02*
X8951Y2846D01*
X8907Y2854D02*
X8944D01*
X5971Y2900D02*
X6017Y2854D01*
X5915Y2900D02*
X5971D01*
X5895Y2880D02*
X5915Y2900D01*
X5895Y2825D02*
Y2880D01*
X5875Y2805D02*
X5895Y2825D01*
X5804Y2805D02*
X5875D01*
X5763Y2846D02*
X5804Y2805D01*
X5701Y2846D02*
X5763D01*
X5694Y2854D02*
X5701Y2846D01*
X5657Y2854D02*
X5694D01*
X4346Y2900D02*
X4392Y2854D01*
X4295Y2900D02*
X4346D01*
X4265Y2870D02*
X4295Y2900D01*
X4265Y2825D02*
Y2870D01*
X4240Y2800D02*
X4265Y2825D01*
X4184Y2800D02*
X4240D01*
X4138Y2846D02*
X4184Y2800D01*
X4076Y2846D02*
X4138D01*
X4069Y2854D02*
X4076Y2846D01*
X4032Y2854D02*
X4069D01*
X2721Y2900D02*
X2767Y2854D01*
X2670Y2900D02*
X2721D01*
X2640Y2870D02*
X2670Y2900D01*
X2640Y2815D02*
Y2870D01*
X2625Y2800D02*
X2640Y2815D01*
X2559Y2800D02*
X2625D01*
X2456Y2846D02*
X2513D01*
X2449Y2854D02*
X2456Y2846D01*
X2407Y2854D02*
X2449D01*
X2957Y3954D02*
Y3983D01*
X2940Y4000D02*
X2957Y3983D01*
X2890Y4000D02*
X2940D01*
X2801Y4089D02*
X2890Y4000D01*
X2787Y4089D02*
X2801D01*
X2641Y3946D02*
X2703D01*
X2634Y3954D02*
X2641Y3946D01*
X2597Y3954D02*
X2634D01*
X4412Y4089D02*
X4436D01*
X4525Y4000D01*
X4565D01*
X4264Y3946D02*
X4328D01*
X4256Y3954D02*
X4264Y3946D01*
X4222Y3954D02*
X4256D01*
X235Y2360D02*
Y2995D01*
Y2360D02*
X300Y2295D01*
X185Y2020D02*
Y3020D01*
Y2020D02*
X255Y1950D01*
X413D01*
X135Y1665D02*
Y3045D01*
Y1665D02*
X200Y1600D01*
X413D01*
X85Y1015D02*
Y3070D01*
Y1015D02*
X150Y950D01*
X413D01*
X350Y4270D02*
X413D01*
X235Y4805D02*
X300Y4870D01*
X413D01*
X185Y5150D02*
X255Y5220D01*
X413D01*
X135Y5505D02*
X200Y5570D01*
X413D01*
X150Y6220D02*
X413D01*
X85Y6155D02*
X150Y6220D01*
X12650Y3110D02*
X12835D01*
X12899Y3046D01*
X12600Y2690D02*
X12687D01*
X12814Y2563D01*
X12410Y2600D02*
X12525D01*
X12601Y2524D01*
Y2414D02*
Y2524D01*
X12045Y2480D02*
Y2600D01*
Y2480D02*
X12111Y2414D01*
X11883Y2745D02*
X11955D01*
X11759Y2868D02*
X11883Y2745D01*
X12000Y3155D02*
Y3195D01*
X11845Y3351D02*
X12000Y3195D01*
X12245Y3557D02*
Y3700D01*
Y3557D02*
X12302Y3500D01*
X12800Y3795D02*
X12859D01*
X12850Y4205D02*
X13017D01*
X13090Y4132D01*
X12705Y4350D02*
X12748D01*
X12984Y4586D01*
X12365Y4350D02*
Y4457D01*
X12494Y4586D01*
X12060Y3845D02*
X12100D01*
X11951Y3954D02*
X12060Y3845D01*
X12150Y4255D02*
Y4323D01*
X12036Y4437D02*
X12150Y4323D01*
X10375Y3155D02*
Y3195D01*
X10220Y3351D02*
X10375Y3195D01*
X10258Y2745D02*
X10330D01*
X10134Y2868D02*
X10258Y2745D01*
X10420Y2480D02*
Y2600D01*
Y2480D02*
X10486Y2414D01*
X10785Y2600D02*
X10895D01*
X10976Y2519D01*
Y2414D02*
Y2519D01*
X10975Y2690D02*
X11062D01*
X11189Y2563D01*
X11025Y3110D02*
X11210D01*
X11274Y3046D01*
X10525Y4255D02*
Y4323D01*
X10411Y4437D02*
X10525Y4323D01*
X10435Y3845D02*
X10475D01*
X10620Y3557D02*
Y3700D01*
Y3557D02*
X10677Y3500D01*
X11175Y3795D02*
X11234D01*
X11380Y3649D01*
X11225Y4205D02*
X11392D01*
X11465Y4132D01*
X11080Y4350D02*
X11123D01*
X11359Y4586D01*
X10740Y4350D02*
Y4457D01*
X10869Y4586D01*
X8810Y3845D02*
X8850D01*
X8701Y3954D02*
X8810Y3845D01*
X8900Y4255D02*
Y4323D01*
X8786Y4437D02*
X8900Y4323D01*
X9115Y4350D02*
Y4457D01*
X9244Y4586D01*
X9455Y4350D02*
X9498D01*
X9734Y4586D01*
X9600Y4205D02*
X9767D01*
X9840Y4132D01*
X9550Y3795D02*
X9609D01*
X9755Y3649D01*
X9355Y3700D02*
X9385D01*
X9542Y3543D01*
Y3500D02*
Y3543D01*
X8995Y3557D02*
Y3700D01*
Y3557D02*
X9052Y3500D01*
X8750Y3155D02*
Y3195D01*
X8633Y2745D02*
X8705D01*
X8509Y2868D02*
X8633Y2745D01*
X9400Y3110D02*
X9585D01*
X9649Y3046D01*
X9350Y2690D02*
X9437D01*
X9564Y2563D01*
X9160Y2600D02*
X9280D01*
X8795Y2480D02*
Y2600D01*
Y2480D02*
X8861Y2414D01*
X2900Y3110D02*
X3085D01*
X3149Y3046D01*
X2850Y2690D02*
X2937D01*
X3064Y2563D01*
X2660Y2600D02*
X2765D01*
X2851Y2514D01*
Y2414D02*
Y2514D01*
X2295Y2480D02*
Y2600D01*
Y2480D02*
X2361Y2414D01*
X2133Y2745D02*
X2205D01*
X2010Y2868D02*
X2133Y2745D01*
X2250Y3155D02*
Y3195D01*
X2095Y3351D02*
X2250Y3195D01*
X2495Y3557D02*
Y3700D01*
Y3557D02*
X2553Y3500D01*
X3050Y3795D02*
X3109D01*
X3255Y3649D01*
X3100Y4205D02*
X3267D01*
X3341Y4132D01*
X2955Y4350D02*
X2998D01*
X3234Y4586D01*
X2615Y4350D02*
Y4457D01*
X2744Y4586D01*
X2400Y4255D02*
Y4323D01*
X2286Y4437D02*
X2400Y4323D01*
X2310Y3845D02*
X2350D01*
X2201Y3954D02*
X2310Y3845D01*
X6150Y3110D02*
X6335D01*
X6399Y3046D01*
X5910Y2600D02*
X5970D01*
X6101Y2469D01*
Y2414D02*
Y2469D01*
X5545Y2480D02*
Y2600D01*
Y2480D02*
X5611Y2414D01*
X5383Y2745D02*
X5455D01*
X5260Y2868D02*
X5383Y2745D01*
X5500Y3155D02*
Y3195D01*
X5345Y3351D02*
X5500Y3195D01*
X5650Y4255D02*
Y4323D01*
X5536Y4437D02*
X5650Y4323D01*
X5560Y3845D02*
X5600D01*
X5451Y3954D02*
X5560Y3845D01*
X5745Y3557D02*
Y3700D01*
Y3557D02*
X5802Y3500D01*
X6105Y3700D02*
X6155D01*
X6293Y3562D01*
Y3500D02*
Y3562D01*
X6205Y4350D02*
X6248D01*
X6300Y3795D02*
X6359D01*
X5865Y4350D02*
Y4457D01*
X5994Y4586D01*
X2875Y1700D02*
X3000D01*
X3100Y1800D01*
X3963D01*
X3780Y1350D02*
X3963D01*
X2875Y1000D02*
X3000D01*
X3100Y1100D01*
X3963D01*
X3775Y650D02*
X3963D01*
X2875Y305D02*
X3005D01*
X3100Y400D01*
X3963D01*
X2875Y5100D02*
X3000D01*
X3100Y5200D01*
X3963D01*
X2875Y6500D02*
X3000D01*
X3100Y6600D01*
X3613D01*
X2875Y5800D02*
X3000D01*
X3100Y5900D01*
X3963D01*
X3775Y5450D02*
X3963D01*
X3775Y6150D02*
X3963D01*
X11037Y1800D02*
X11900D01*
X12000Y1200D02*
X12125D01*
X11900Y1100D02*
X12000Y1200D01*
X11037Y1100D02*
X11900D01*
X11037Y1550D02*
X11225D01*
X11037Y850D02*
X11225D01*
X12000Y500D02*
X12125D01*
X11900Y400D02*
X12000Y500D01*
X11037Y400D02*
X11900D01*
X11937Y6700D02*
X12125D01*
X11037Y6350D02*
X11225D01*
X12000Y6000D02*
X12125D01*
X11900Y5900D02*
X12000Y6000D01*
X11037Y5900D02*
X11900D01*
X12000Y5300D02*
X12125D01*
X11825Y5125D02*
X12000Y5300D01*
X11037Y5650D02*
X11225D01*
X10140Y6550D02*
X10260Y6430D01*
X10100Y6550D02*
X10140D01*
X10700Y6725D02*
Y6840D01*
X10730Y6870D01*
X10800D01*
Y6535D02*
Y6730D01*
X4625Y1465D02*
X4653Y1437D01*
X4625Y1465D02*
Y1581D01*
X5342Y1437D02*
X5900D01*
X5325Y1454D02*
X5342Y1437D01*
X5325Y1454D02*
Y1581D01*
X6025Y1455D02*
X6043Y1437D01*
X6025Y1455D02*
Y1581D01*
X8638Y1437D02*
X9200D01*
X8625Y1450D02*
X8638Y1437D01*
X8625Y1450D02*
Y1581D01*
X9337Y1437D02*
X9900D01*
X9325Y1449D02*
X9337Y1437D01*
X9325Y1449D02*
Y1581D01*
X10037Y1437D02*
X10600D01*
X10025Y1449D02*
X10037Y1437D01*
X10025Y1449D02*
Y1581D01*
X8825D02*
Y1665D01*
X8800Y1690D02*
X8825Y1665D01*
X8800Y1690D02*
Y1763D01*
X8875Y1581D02*
Y1665D01*
X8900Y1690D01*
Y1763D01*
X8925Y1581D02*
Y1650D01*
X9000Y1725D01*
Y1763D01*
X8775Y1581D02*
Y1650D01*
X8700Y1725D02*
X8775Y1650D01*
X8700Y1725D02*
Y1763D01*
X8675Y1581D02*
Y1630D01*
X8635Y1670D02*
X8675Y1630D01*
X8530Y1670D02*
X8635D01*
X8500Y1700D02*
X8530Y1670D01*
X8500Y1700D02*
Y1763D01*
X9525Y1581D02*
Y1660D01*
X9500Y1685D02*
X9525Y1660D01*
X9500Y1685D02*
Y1763D01*
X9575Y1581D02*
Y1660D01*
X9600Y1685D01*
Y1763D01*
X9625Y1581D02*
Y1650D01*
X9700Y1725D01*
Y1763D01*
X9475Y1581D02*
Y1650D01*
X9400Y1725D02*
X9475Y1650D01*
X9400Y1725D02*
Y1763D01*
X9675Y1581D02*
Y1640D01*
X9798Y1763D01*
X9300D02*
X9425Y1638D01*
Y1581D02*
Y1638D01*
X9375Y1581D02*
Y1630D01*
X9335Y1670D02*
X9375Y1630D01*
X9215Y1670D02*
X9335D01*
X9200Y1685D02*
X9215Y1670D01*
X9200Y1685D02*
Y1763D01*
X8975Y1638D02*
X9100Y1763D01*
X8975Y1581D02*
Y1638D01*
X8600Y1763D02*
X8725Y1638D01*
Y1581D02*
Y1638D01*
X10225Y1581D02*
Y1660D01*
X10200Y1685D02*
X10225Y1660D01*
X10200Y1685D02*
Y1763D01*
X10275Y1581D02*
Y1670D01*
X10300Y1695D01*
Y1763D01*
X10325Y1581D02*
Y1650D01*
X10400Y1725D01*
Y1763D01*
X10375Y1638D02*
X10500Y1763D01*
X10375Y1581D02*
Y1638D01*
X10175Y1581D02*
Y1650D01*
X10100Y1725D02*
X10175Y1650D01*
X10100Y1725D02*
Y1763D01*
X10000D02*
X10125Y1638D01*
Y1581D02*
Y1638D01*
X10075Y1581D02*
Y1630D01*
X10030Y1675D02*
X10075Y1630D01*
X9920Y1675D02*
X10030D01*
X9900Y1695D02*
X9920Y1675D01*
X9900Y1695D02*
Y1763D01*
X6225Y1581D02*
Y1660D01*
X6200Y1685D02*
X6225Y1660D01*
X6200Y1685D02*
Y1763D01*
X6275Y1581D02*
Y1660D01*
X6300Y1685D01*
Y1763D01*
X6325Y1581D02*
Y1650D01*
X6400Y1725D01*
Y1763D01*
X6375Y1638D02*
X6500Y1763D01*
X6375Y1581D02*
Y1638D01*
X6175Y1581D02*
Y1650D01*
X6100Y1725D02*
X6175Y1650D01*
X6100Y1725D02*
Y1763D01*
X6000D02*
X6125Y1638D01*
Y1581D02*
Y1638D01*
X6075Y1581D02*
Y1630D01*
X5900Y1690D02*
Y1763D01*
X5525Y1581D02*
Y1660D01*
X5500Y1685D02*
X5525Y1660D01*
X5500Y1685D02*
Y1763D01*
X5575Y1581D02*
Y1660D01*
X5600Y1685D01*
Y1763D01*
X5625Y1581D02*
Y1650D01*
X5700Y1725D01*
Y1763D01*
X5475Y1581D02*
Y1650D01*
X5400Y1725D02*
X5475Y1650D01*
X5400Y1725D02*
Y1763D01*
X5675Y1638D02*
X5800Y1763D01*
X5675Y1581D02*
Y1638D01*
X5300Y1763D02*
X5425Y1638D01*
Y1581D02*
Y1638D01*
X5375Y1581D02*
Y1630D01*
X5330Y1675D02*
X5375Y1630D01*
X5220Y1675D02*
X5330D01*
X5200Y1695D02*
X5220Y1675D01*
X5200Y1695D02*
Y1763D01*
X4975Y1638D02*
X5100Y1763D01*
X4975Y1581D02*
Y1638D01*
X4925Y1581D02*
Y1650D01*
X5000Y1725D01*
Y1763D01*
X4875Y1581D02*
Y1660D01*
X4900Y1685D01*
Y1763D01*
X4825Y1581D02*
Y1660D01*
X4800Y1685D02*
X4825Y1660D01*
X4800Y1685D02*
Y1763D01*
X4775Y1581D02*
Y1650D01*
X4700Y1725D02*
X4775Y1650D01*
X4700Y1725D02*
Y1763D01*
X4600D02*
X4725Y1638D01*
Y1581D02*
Y1638D01*
X4675Y1581D02*
Y1630D01*
X4630Y1675D02*
X4675Y1630D01*
X4515Y1675D02*
X4630D01*
X4500Y1690D02*
X4515Y1675D01*
X4500Y1690D02*
Y1763D01*
X6359Y3795D02*
X6505Y3649D01*
X6100Y2690D02*
X6187D01*
X6314Y2563D01*
X2855Y3700D02*
X2915D01*
X3043Y3572D01*
Y3500D02*
Y3572D01*
X5900Y1690D02*
X5915Y1675D01*
X4285Y2600D02*
X4340D01*
X4476Y2464D01*
Y2414D02*
Y2464D01*
X3920Y2480D02*
Y2600D01*
Y2480D02*
X3986Y2414D01*
X3758Y2745D02*
X3830D01*
X3635Y2868D02*
X3758Y2745D01*
X3875Y3155D02*
Y3195D01*
X3720Y3351D02*
X3875Y3195D01*
X4475Y2690D02*
X4562D01*
X4689Y2563D01*
X4525Y3110D02*
X4710D01*
X4774Y3046D01*
X4675Y3795D02*
X4734D01*
X4880Y3649D01*
X4480Y3700D02*
X4530D01*
X4668Y3562D01*
Y3500D02*
Y3562D01*
X4120Y3557D02*
Y3700D01*
Y3557D02*
X4177Y3500D01*
X3826Y3954D02*
X3940Y3840D01*
X3980D01*
X4725Y4205D02*
X4892D01*
X4965Y4132D01*
X4025Y4255D02*
Y4323D01*
X3911Y4437D02*
X4025Y4323D01*
X4240Y4350D02*
Y4457D01*
X4369Y4586D01*
X4580Y4350D02*
X4623D01*
X4859Y4586D01*
X12000Y1900D02*
X12125D01*
X11900Y1800D02*
X12000Y1900D01*
X12859Y3795D02*
X13005Y3649D01*
X12792Y3500D02*
Y3547D01*
X12605Y3700D02*
X12640D01*
X12792Y3547D01*
X10980Y3700D02*
X11020D01*
X11167Y3553D01*
Y3500D02*
Y3553D01*
X10326Y3954D02*
X10435Y3845D01*
X9280Y2600D02*
X9351Y2529D01*
Y2414D02*
Y2529D01*
X7055Y825D02*
X7085Y855D01*
X7130D01*
X7055Y775D02*
X7085Y745D01*
X7130D01*
X6742Y775D02*
X6795D01*
X6730Y763D02*
X6742Y775D01*
X6670Y763D02*
X6730D01*
X6740Y825D02*
X6795D01*
X6728Y837D02*
X6740Y825D01*
X6670Y837D02*
X6728D01*
X6900Y550D02*
Y645D01*
X6930Y675D01*
X6950Y775D02*
X7055D01*
X6930Y755D02*
X6950Y775D01*
X6930Y675D02*
Y755D01*
X6700Y550D02*
X6810Y660D01*
X6860D01*
X6900Y700D01*
Y805D01*
X6920Y825D01*
X7055D01*
X7925Y705D02*
Y760D01*
X7932Y767D01*
X7875Y705D02*
Y760D01*
X7858Y777D02*
X7875Y760D01*
X7858Y777D02*
Y850D01*
X7695Y705D02*
X7825D01*
X7650Y660D02*
X7695Y705D01*
X7025Y660D02*
X7650D01*
X7000Y635D02*
X7025Y660D01*
X7000Y350D02*
Y635D01*
Y350D02*
X7100Y250D01*
X7975Y650D02*
Y705D01*
X7950Y625D02*
X7975Y650D01*
X7170Y625D02*
X7950D01*
X7100Y555D02*
X7170Y625D01*
X10495Y6430D02*
X10590Y6525D01*
X10705D01*
X10725Y6545D01*
Y6605D01*
X10260Y6430D02*
X10495D01*
X10625Y6270D02*
Y6395D01*
Y6130D02*
X10680D01*
X10725Y6175D01*
Y6395D01*
X10745Y6480D02*
X10800Y6535D01*
X10700Y6480D02*
X10745D01*
X10675Y6455D02*
X10700Y6480D01*
X10675Y6395D02*
Y6455D01*
X8100Y6075D02*
X8213D01*
Y5950D02*
Y6110D01*
X4037Y5200D02*
X4080D01*
X4037Y5450D02*
X4100D01*
X4037Y5900D02*
X4100D01*
X4037Y6150D02*
X4100D01*
X7225Y4200D02*
Y4281D01*
X7275Y4200D02*
Y4281D01*
X7325Y4200D02*
Y4281D01*
X7375Y4200D02*
Y4281D01*
X6600Y1300D02*
Y1363D01*
Y1437D02*
Y1500D01*
X5900Y1437D02*
Y1500D01*
X5200Y1437D02*
Y1500D01*
X8095Y850D02*
X8145D01*
X300Y2295D02*
X413D01*
X4967Y750D02*
X5063D01*
X4967Y650D02*
X5063D01*
X5647Y745D02*
X5743D01*
X5647Y650D02*
X5743D01*
X4125D02*
X4215Y740D01*
X4125Y400D02*
X4250Y525D01*
X10150Y5305D02*
Y5372D01*
X10137Y6000D02*
X10200D01*
X7425Y4200D02*
Y4281D01*
X11698Y5052D02*
Y5125D01*
X11775D02*
X11825D01*
X5813Y5778D02*
Y5804D01*
Y5778D02*
X5825Y5765D01*
X6275D02*
X6300Y5790D01*
Y5963D01*
X6113Y5768D02*
Y5804D01*
X5963Y5768D02*
Y5804D01*
X5825Y5765D02*
X6275D01*
X5817Y847D02*
X5900Y930D01*
X5573Y650D02*
Y832D01*
X4893Y650D02*
Y828D01*
X8595Y3351D02*
X8750Y3195D01*
X6043Y1437D02*
X6600D01*
X5137Y847D02*
X5200Y910D01*
X6248Y4350D02*
X6484Y4586D01*
X4085Y1800D02*
X4110Y1825D01*
Y1960D01*
X4105Y1350D02*
X4145Y1390D01*
Y1930D01*
X4100Y1100D02*
X4180Y1180D01*
X4250Y525D02*
Y1840D01*
X4215Y740D02*
Y1870D01*
X4180Y1180D02*
Y1900D01*
X7410Y2690D02*
X7425Y2705D01*
X7160Y2690D02*
X7410D01*
X7445Y2655D02*
X7475Y2685D01*
X6980Y2920D02*
X6997Y2937D01*
X7015Y2655D02*
X7445D01*
X6980Y2690D02*
Y2920D01*
Y2690D02*
X7015Y2655D01*
X8390Y3460D02*
X8520Y3590D01*
X8390Y3050D02*
Y3460D01*
X8310Y2970D02*
X8390Y3050D01*
X8310Y2225D02*
Y2970D01*
X8360Y3990D02*
X8450Y4080D01*
X8278Y2197D02*
X8365Y2110D01*
X8360Y3065D02*
Y3990D01*
X8278Y2983D02*
X8360Y3065D01*
X8278Y2197D02*
Y2983D01*
X6350Y4205D02*
X6517D01*
X6590Y4132D01*
X6027Y3946D02*
X6600Y3374D01*
Y2100D02*
Y3374D01*
X6020Y3900D02*
X6560Y3360D01*
Y2160D02*
Y3360D01*
X5803Y1363D02*
X5900D01*
X5775Y1335D02*
X5803Y1363D01*
X5775Y1219D02*
Y1335D01*
X5900Y1300D02*
X5985D01*
X6475Y1219D02*
Y1363D01*
X5817Y650D02*
Y847D01*
X5900Y930D02*
Y1363D01*
X6048D02*
X6600D01*
X5098D02*
X5200D01*
X5075Y1340D02*
X5098Y1363D01*
X5075Y1219D02*
Y1340D01*
X5137Y650D02*
Y847D01*
X5200Y910D02*
Y1363D01*
X9103D02*
X9200D01*
X9075Y1335D02*
X9103Y1363D01*
X9075Y1219D02*
Y1335D01*
X9797Y1363D02*
X9900D01*
X9775Y1341D02*
X9797Y1363D01*
X9775Y1219D02*
Y1341D01*
X10493Y1363D02*
X10600D01*
X10475Y1345D02*
X10493Y1363D01*
X10475Y1219D02*
Y1345D01*
X7932Y767D02*
Y850D01*
X8095D01*
X7810D02*
X7858D01*
X7795Y835D02*
X7810Y850D01*
X3760Y6600D02*
X4255Y6105D01*
X3687Y6600D02*
X3760D01*
D48*
X13645Y3600D02*
X13800D01*
X13730Y3600D02*
Y3600D01*
X10600Y150D02*
Y900D01*
X10550Y100D02*
X10600Y150D01*
X9200Y175D02*
X9275Y100D01*
X5065Y6072D02*
X5107D01*
X5435Y6105D02*
X5515D01*
X8400Y6184D02*
X8609D01*
X8725Y6300D01*
X9602D01*
X9702Y6200D01*
X10255D01*
X10360Y5740D02*
Y6095D01*
X10255Y6200D02*
X10360Y6095D01*
X10150Y6765D02*
X10185Y6730D01*
X10050Y6840D02*
X10080Y6870D01*
X10050Y6765D02*
Y6840D01*
X10500Y6870D02*
X10533Y6837D01*
X10500Y6730D02*
X10533Y6763D01*
Y6837D02*
X10600D01*
X10080Y6870D02*
X10500D01*
X10533Y6763D02*
X10600D01*
X10800Y6870D02*
X10945D01*
X10800Y6730D02*
X10950D01*
X10400Y6570D02*
Y6730D01*
X10185D02*
X10500D01*
X10252Y5182D02*
Y5250D01*
X3780Y1550D02*
X3900D01*
X3775Y850D02*
X3895D01*
X2875Y1200D02*
X3000D01*
X2875Y1900D02*
X3000D01*
X2875Y500D02*
X3000D01*
X12000Y1700D02*
X12125D01*
X12000Y1000D02*
X12125D01*
X12000Y300D02*
X12125D01*
X11100Y650D02*
X11225D01*
X11100Y1350D02*
X11225D01*
X12000Y6500D02*
X12125D01*
X12000Y5800D02*
X12125D01*
X12000Y5100D02*
X12125D01*
X11100Y5450D02*
X11225D01*
X11100Y6150D02*
X11225D01*
X2875Y6700D02*
X3000D01*
X2875Y6000D02*
X3000D01*
X2875Y5300D02*
X3000D01*
X3775Y5650D02*
X3900D01*
X3775Y6350D02*
X3900D01*
X5065Y5800D02*
X5165D01*
X5065Y5998D02*
X5065Y5800D01*
X13350Y3605D02*
Y3798D01*
Y3600D02*
X13455D01*
X13800D02*
Y3765D01*
X13610Y3905D02*
X13800D01*
X13350Y3872D02*
X13483D01*
X12948Y3890D02*
Y3953D01*
X12995Y4000D01*
X13180D01*
X13230Y3950D01*
Y3830D02*
Y3950D01*
Y3830D02*
X13262Y3798D01*
X13350D01*
X13550Y3650D02*
Y3870D01*
X9275Y100D02*
X10550D01*
X9200Y175D02*
Y850D01*
D49*
X8398Y6300D02*
Y6599D01*
X487Y2950D02*
X670D01*
X700Y2920D01*
Y2300D02*
Y2920D01*
X8650Y6637D02*
Y6765D01*
X8550Y6637D02*
Y6765D01*
X9550Y6637D02*
Y6765D01*
X9450Y6637D02*
Y6765D01*
X9350Y6637D02*
Y6765D01*
X9250Y6637D02*
Y6765D01*
X9150Y6637D02*
Y6765D01*
X9050Y6637D02*
Y6765D01*
X8950Y6637D02*
Y6765D01*
X8850Y6637D02*
Y6765D01*
X14587Y775D02*
Y875D01*
X8325Y410D02*
X8730D01*
X8583Y537D02*
X8735D01*
X7925Y160D02*
Y245D01*
X8295Y440D02*
X8325Y410D01*
X8295Y440D02*
Y700D01*
X8325Y730D01*
X8580D01*
X8765Y245D02*
X9015D01*
X8735Y275D02*
Y463D01*
Y275D02*
X8765Y245D01*
X14335Y775D02*
X14513D01*
X14300Y810D02*
X14335Y775D01*
X14300Y810D02*
Y1425D01*
X14445D02*
X14513D01*
X14425Y1445D02*
X14445Y1425D01*
X14425Y1445D02*
Y1565D01*
X14390Y1600D02*
X14425Y1565D01*
X14300Y1600D02*
X14390D01*
X14420Y2632D02*
X14513Y2725D01*
X14420Y2245D02*
Y2632D01*
X14300Y2125D02*
X14420Y2245D01*
X14475Y2125D02*
X14513D01*
X14300Y1950D02*
X14475Y2125D01*
X14300Y1775D02*
X14513D01*
X14587Y6100D02*
X14612Y6125D01*
Y6220D01*
X14478Y6135D02*
X14513Y6100D01*
X14478Y6135D02*
Y6220D01*
X14420Y5907D02*
X14513Y6000D01*
X14420Y5520D02*
Y5907D01*
X14300Y5400D02*
X14420Y5520D01*
X14475Y5400D02*
X14513D01*
X14300Y5225D02*
X14475Y5400D01*
X14508Y4045D02*
X14513Y4050D01*
X14375Y4045D02*
X14508D01*
X14300Y4120D02*
X14375Y4045D01*
X14300Y4120D02*
Y4700D01*
X14455D02*
X14513D01*
X14420Y4735D02*
X14455Y4700D01*
X14420Y4735D02*
Y4825D01*
X14370Y4875D02*
X14420Y4825D01*
X14300Y4875D02*
X14370D01*
X14300Y5050D02*
X14513D01*
X14587Y875D02*
X14617Y905D01*
Y990D01*
X14483Y905D02*
X14513Y875D01*
X14483Y905D02*
Y990D01*
X14587Y1525D02*
X14617Y1555D01*
Y1640D01*
X14483Y1555D02*
X14513Y1525D01*
X14483Y1555D02*
Y1640D01*
X14587Y1875D02*
X14617Y1905D01*
Y1990D01*
X14483Y1905D02*
X14513Y1875D01*
X14483Y1905D02*
Y1990D01*
X14587Y2225D02*
X14617Y2255D01*
Y2340D01*
X14483Y2255D02*
X14513Y2225D01*
X14483Y2255D02*
Y2340D01*
X14587Y2825D02*
X14617Y2855D01*
Y2940D01*
X14483Y2855D02*
X14513Y2825D01*
X14483Y2855D02*
Y2940D01*
X14587Y4150D02*
X14617Y4180D01*
Y4265D01*
X14483Y4180D02*
X14513Y4150D01*
X14483Y4180D02*
Y4265D01*
X14587Y4800D02*
X14622Y4835D01*
Y4910D01*
X14488Y4825D02*
X14513Y4800D01*
X14488Y4825D02*
Y4910D01*
X14587Y5150D02*
X14612Y5175D01*
Y5260D01*
X14478Y5185D02*
X14513Y5150D01*
X14478Y5185D02*
Y5260D01*
X14587Y5500D02*
X14617Y5530D01*
Y5630D01*
X14483Y5530D02*
X14513Y5500D01*
X14483Y5530D02*
Y5630D01*
X413Y2850D02*
Y2950D01*
Y2200D02*
Y2300D01*
X383Y4140D02*
X413Y4170D01*
X383Y4050D02*
Y4140D01*
X487Y4170D02*
X517Y4140D01*
Y4050D02*
Y4140D01*
X487Y4270D02*
X580Y4363D01*
X487Y950D02*
X585Y1048D01*
Y1485D01*
X700Y1600D01*
X487D02*
X525D01*
X700Y1775D01*
X487Y2300D02*
X560D01*
X580Y2280D01*
Y2180D02*
Y2280D01*
Y2180D02*
X635Y2125D01*
X700D01*
X487Y1950D02*
X700D01*
X383Y2820D02*
X413Y2850D01*
X383Y2735D02*
Y2820D01*
X487Y2850D02*
X517Y2820D01*
Y2735D02*
Y2820D01*
X383Y2170D02*
X413Y2200D01*
X383Y2085D02*
Y2170D01*
X487Y2200D02*
X517Y2170D01*
Y2085D02*
Y2170D01*
X413Y1850D02*
Y1950D01*
X383Y1820D02*
X413Y1850D01*
X383Y1735D02*
Y1820D01*
X487Y1850D02*
X517Y1820D01*
Y1735D02*
Y1820D01*
X413Y1500D02*
Y1600D01*
X383Y1470D02*
X413Y1500D01*
X383Y1385D02*
Y1470D01*
X487Y1500D02*
X517Y1470D01*
Y1385D02*
Y1470D01*
X413Y850D02*
Y950D01*
X487Y850D02*
X517Y820D01*
Y735D02*
Y820D01*
X383D02*
X413Y850D01*
X383Y735D02*
Y820D01*
X580Y4363D02*
Y4750D01*
X700Y4870D01*
X487D02*
X525D01*
X700Y5045D01*
X410Y6123D02*
Y6220D01*
X487Y5570D02*
X535D01*
X580Y5525D01*
Y5455D02*
Y5525D01*
Y5455D02*
X640Y5395D01*
X700D01*
X383Y6090D02*
X413Y6120D01*
X383Y6005D02*
Y6090D01*
Y5440D02*
X413Y5470D01*
X383Y5355D02*
Y5440D01*
Y5090D02*
X413Y5120D01*
X383Y5005D02*
Y5090D01*
Y4740D02*
X413Y4770D01*
X383Y4655D02*
Y4740D01*
X487Y4770D02*
X517Y4740D01*
Y4655D02*
Y4740D01*
X487Y5120D02*
X517Y5090D01*
Y5005D02*
Y5090D01*
X487Y5470D02*
X517Y5440D01*
Y5355D02*
Y5440D01*
X487Y6120D02*
X517Y6090D01*
Y6005D02*
Y6090D01*
X487Y6220D02*
X660D01*
X700Y6180D01*
Y5570D02*
Y6180D01*
X487Y5220D02*
X700D01*
X413Y5470D02*
Y5570D01*
Y5120D02*
Y5220D01*
Y4770D02*
Y4870D01*
Y4170D02*
Y4270D01*
X14587Y4050D02*
Y4150D01*
Y4700D02*
Y4800D01*
Y5050D02*
Y5150D01*
Y5400D02*
Y5500D01*
Y6000D02*
Y6100D01*
Y1425D02*
Y1525D01*
Y1775D02*
Y1875D01*
Y2125D02*
Y2225D01*
Y2725D02*
Y2825D01*
X9650Y6637D02*
Y6765D01*
X9750Y6637D02*
Y6765D01*
X9850Y6637D02*
Y6765D01*
X10000Y6450D02*
X10100D01*
X9950Y6500D02*
X10000Y6450D01*
X9950Y6500D02*
Y6765D01*
X8350Y6647D02*
X8398Y6599D01*
X8350Y6647D02*
Y6765D01*
X7900Y5887D02*
Y6075D01*
X8055Y6765D02*
X8250D01*
X8000Y6710D02*
X8055Y6765D01*
X8000Y6450D02*
Y6710D01*
X8750Y6637D02*
Y6765D01*
X6300Y6037D02*
Y6163D01*
X7119Y5970D02*
X7152Y5937D01*
X7050Y5970D02*
X7119D01*
X7153Y5863D02*
X7200D01*
X7120Y5830D02*
X7153Y5863D01*
X7050Y5830D02*
X7120D01*
X7152Y5937D02*
X7500D01*
X7187Y4750D02*
X7313D01*
D50*
X1059Y2300D02*
X1600D01*
X2100Y1800D01*
X1059Y2125D02*
X1500D01*
X2175Y1450D01*
X1300Y1775D02*
X1800Y1275D01*
X1059Y1775D02*
X1300D01*
X1400Y1950D02*
X2000Y1350D01*
X1059Y1950D02*
X1400D01*
X12500Y5900D02*
X12800D01*
X13941Y2300D02*
X14300D01*
X700Y1425D02*
X1059D01*
X700Y4695D02*
X1060D01*
X12800Y5900D02*
X13000Y5700D01*
Y5650D02*
Y5700D01*
Y5650D02*
X13600Y5050D01*
X12500Y6600D02*
X12825D01*
X13400Y6025D01*
Y5800D02*
Y6025D01*
Y5800D02*
X13800Y5400D01*
X13200Y5730D02*
X13705Y5225D01*
X13800Y5400D02*
X13941D01*
X11610Y6250D02*
X12840D01*
X13200Y5890D01*
Y5730D02*
Y5890D01*
X13705Y5225D02*
X13941D01*
X13600Y5050D02*
X13941D01*
X11600Y5550D02*
X12830D01*
X13505Y4875D01*
X13941D01*
X12500Y5200D02*
X12900D01*
X13400Y4700D01*
X13941D01*
Y1081D02*
Y1425D01*
X13260Y400D02*
X13941Y1081D01*
X12500Y400D02*
X13260D01*
X13705Y1775D02*
X13941D01*
X11600Y750D02*
X12950D01*
X13800Y1600D02*
X13941D01*
X1059Y5395D02*
X1200D01*
Y5400D02*
X2050Y6250D01*
X1050Y5220D02*
X1300D01*
X1980Y5900D01*
X1400Y5045D02*
X1905Y5550D01*
X1830Y5200D02*
X2500D01*
X1500Y4870D02*
X1830Y5200D01*
X2150Y1100D02*
X2300D01*
X2000Y1250D02*
X2150Y1100D01*
X2000Y1250D02*
Y1350D01*
X1950Y750D02*
X3400D01*
X1800Y900D02*
X1950Y750D01*
X1800Y900D02*
Y1275D01*
X1590Y560D02*
X1750Y400D01*
X1590Y560D02*
Y1210D01*
X1200Y1600D02*
X1590Y1210D01*
X1059Y1600D02*
X1200D01*
X2180Y1450D02*
X3405D01*
X2100Y1800D02*
X2300D01*
X1059Y5929D02*
X1730Y6600D01*
X2500D01*
X1059Y4870D02*
X1500D01*
X1905Y5550D02*
X3400D01*
X1059Y5045D02*
X1400D01*
X1059Y5570D02*
Y5929D01*
X1980Y5900D02*
X2500D01*
X2060Y6250D02*
X3400D01*
X13600Y1950D02*
X13941D01*
X13515Y2125D02*
X13941D01*
X12500Y1100D02*
X13030D01*
X11600Y1450D02*
X13100D01*
X13600Y1950D01*
X13030Y1100D02*
X13705Y1775D01*
X12950Y750D02*
X13800Y1600D01*
X12500Y1800D02*
X13190D01*
X13515Y2125D01*
X14120Y4250D02*
Y5570D01*
X13941Y5575D02*
X14300D01*
X1750Y400D02*
X2500D01*
X13610Y4250D02*
X13850D01*
X13010Y4850D02*
X13610Y4250D01*
X10820Y4850D02*
X13010D01*
D51*
X6500Y250D02*
Y550D01*
X6300Y250D02*
Y550D01*
X6900Y250D02*
Y550D01*
X6700Y250D02*
Y550D01*
D52*
X9900Y5372D02*
Y5450D01*
X10190D01*
X10203Y5437D01*
X10300D01*
Y5630D01*
D53*
X9735Y5450D02*
X9850D01*
Y5252D02*
Y5450D01*
D54*
X15055Y4785D02*
Y4815D01*
Y4800D01*
X15100D01*
Y4837D02*
Y4852D01*
X15093Y4860D01*
X15078D01*
X15070Y4852D01*
Y4837D01*
X15078Y4830D01*
X15093D01*
X15100Y4837D01*
X15115Y4875D02*
X15070D01*
Y4897D01*
X15078Y4905D01*
X15093D01*
X15100Y4897D01*
Y4875D01*
X15055Y4965D02*
X15100D01*
Y4995D01*
X15070Y5017D02*
Y5032D01*
X15078Y5040D01*
X15100D01*
Y5017D01*
X15093Y5010D01*
X15085Y5017D01*
Y5040D01*
X15070Y5055D02*
X15093D01*
X15100Y5062D01*
Y5085D01*
X15107D01*
X15115Y5077D01*
Y5070D01*
X15100Y5085D02*
X15070D01*
X15100Y5122D02*
Y5107D01*
X15093Y5100D01*
X15078D01*
X15070Y5107D01*
Y5122D01*
X15078Y5130D01*
X15085D01*
Y5100D01*
X15070Y5145D02*
X15100D01*
X15085D01*
X15078Y5152D01*
X15070Y5160D01*
Y5167D01*
D55*
X6120Y6770D02*
D03*
X6320D02*
D03*
X6520D02*
D03*
X6720D02*
D03*
X6920D02*
D03*
D56*
X7120D02*
D03*
D57*
X10403Y280D02*
D03*
X9547D02*
D03*
X14540Y1172D02*
D03*
Y2553D02*
D03*
X13700D02*
D03*
Y1172D02*
D03*
X460Y5823D02*
D03*
Y4442D02*
D03*
X1300D02*
D03*
Y5823D02*
D03*
X14540Y4447D02*
D03*
Y5828D02*
D03*
X13700D02*
D03*
Y4447D02*
D03*
X460Y2553D02*
D03*
Y1172D02*
D03*
X1300D02*
D03*
Y2553D02*
D03*
D58*
X10150Y879D02*
D03*
X9975D02*
D03*
X9800D02*
D03*
X10150Y520D02*
D03*
X9975D02*
D03*
D59*
X9800D02*
D03*
D60*
X5546Y6547D02*
D03*
Y6673D02*
D03*
X5644Y6547D02*
D03*
D61*
Y6673D02*
D03*
D62*
X9602Y6300D02*
D03*
X8398D02*
D03*
D63*
X14300Y1425D02*
D03*
X700Y5570D02*
D03*
X14300Y4700D02*
D03*
X700Y2300D02*
D03*
D64*
X14300Y1600D02*
D03*
Y1775D02*
D03*
Y1950D02*
D03*
Y2125D02*
D03*
Y2300D02*
D03*
X13941Y1425D02*
D03*
Y1600D02*
D03*
Y1775D02*
D03*
Y1950D02*
D03*
Y2125D02*
D03*
Y2300D02*
D03*
X700Y5395D02*
D03*
Y5220D02*
D03*
Y5045D02*
D03*
Y4870D02*
D03*
Y4695D02*
D03*
X1059Y5570D02*
D03*
Y5395D02*
D03*
Y5220D02*
D03*
Y5045D02*
D03*
Y4870D02*
D03*
Y4695D02*
D03*
X14300Y4875D02*
D03*
Y5050D02*
D03*
Y5225D02*
D03*
Y5400D02*
D03*
Y5575D02*
D03*
X13941Y4700D02*
D03*
Y4875D02*
D03*
Y5050D02*
D03*
Y5225D02*
D03*
Y5400D02*
D03*
Y5575D02*
D03*
X700Y2125D02*
D03*
Y1950D02*
D03*
Y1775D02*
D03*
Y1600D02*
D03*
Y1425D02*
D03*
X1059Y2300D02*
D03*
Y2125D02*
D03*
Y1950D02*
D03*
Y1775D02*
D03*
Y1600D02*
D03*
Y1425D02*
D03*
D65*
X8250Y6765D02*
D03*
X8350D02*
D03*
X8450D02*
D03*
X8750D02*
D03*
X9650D02*
D03*
X9750D02*
D03*
X9850D02*
D03*
X9950D02*
D03*
X10050D02*
D03*
X9550D02*
D03*
X9450D02*
D03*
X9350D02*
D03*
X9250D02*
D03*
X9150D02*
D03*
X9050D02*
D03*
X8950D02*
D03*
X8850D02*
D03*
X8650D02*
D03*
X8550D02*
D03*
X4798Y6544D02*
D03*
X4744Y6656D02*
D03*
X4689Y6544D02*
D03*
X4635Y6656D02*
D03*
X4580Y6544D02*
D03*
X4525Y6656D02*
D03*
X4471Y6544D02*
D03*
X4417Y6656D02*
D03*
X2795Y3500D02*
D03*
X2695D02*
D03*
X2307D02*
D03*
X2207D02*
D03*
X2243Y4195D02*
D03*
X2144D02*
D03*
X2158Y3713D02*
D03*
X2058D02*
D03*
X2052Y3110D02*
D03*
X1952D02*
D03*
X1967Y2627D02*
D03*
X1867D02*
D03*
X2116Y2414D02*
D03*
X2016D02*
D03*
X2606D02*
D03*
X2506D02*
D03*
X3106Y2805D02*
D03*
X3007D02*
D03*
X3192Y3287D02*
D03*
X3092D02*
D03*
X3298Y3890D02*
D03*
X3198D02*
D03*
X3383Y4373D02*
D03*
X3283D02*
D03*
X2989Y4586D02*
D03*
X2889D02*
D03*
X2499D02*
D03*
X2399D02*
D03*
X3043Y3500D02*
D03*
X2943D02*
D03*
X2553D02*
D03*
X2453D02*
D03*
X2286Y4437D02*
D03*
X2186D02*
D03*
X2201Y3954D02*
D03*
X2101D02*
D03*
X2095Y3351D02*
D03*
X1995D02*
D03*
X2010Y2868D02*
D03*
X1910D02*
D03*
X2361Y2414D02*
D03*
X2261D02*
D03*
X2851D02*
D03*
X2751D02*
D03*
X3064Y2563D02*
D03*
X2964D02*
D03*
X3149Y3046D02*
D03*
X3049D02*
D03*
X3255Y3649D02*
D03*
X3155D02*
D03*
X3341Y4132D02*
D03*
X3240D02*
D03*
X3234Y4586D02*
D03*
X3134D02*
D03*
X2744D02*
D03*
X2644D02*
D03*
X4423Y3500D02*
D03*
X4323D02*
D03*
X3932D02*
D03*
X3832D02*
D03*
X3868Y4195D02*
D03*
X3769D02*
D03*
X3783Y3713D02*
D03*
X3683D02*
D03*
X3677Y3110D02*
D03*
X3577D02*
D03*
X3592Y2627D02*
D03*
X3492D02*
D03*
X3741Y2414D02*
D03*
X3641D02*
D03*
X4231D02*
D03*
X4131D02*
D03*
X4732Y2805D02*
D03*
X4631D02*
D03*
X4817Y3287D02*
D03*
X4717D02*
D03*
X4923Y3890D02*
D03*
X4823D02*
D03*
X5008Y4373D02*
D03*
X4908D02*
D03*
X4614Y4586D02*
D03*
X4514D02*
D03*
X4124D02*
D03*
X4024D02*
D03*
X4668Y3500D02*
D03*
X4568D02*
D03*
X4177D02*
D03*
X4077D02*
D03*
X3911Y4437D02*
D03*
X3811D02*
D03*
X3826Y3954D02*
D03*
X3726D02*
D03*
X3720Y3351D02*
D03*
X3620D02*
D03*
X3635Y2868D02*
D03*
X3534D02*
D03*
X3986Y2414D02*
D03*
X3886D02*
D03*
X4476D02*
D03*
X4376D02*
D03*
X4689Y2563D02*
D03*
X4589D02*
D03*
X4774Y3046D02*
D03*
X4674D02*
D03*
X4880Y3649D02*
D03*
X4780D02*
D03*
X4965Y4132D02*
D03*
X4865D02*
D03*
X4859Y4586D02*
D03*
X4759D02*
D03*
X4369D02*
D03*
X4269D02*
D03*
X6048Y3500D02*
D03*
X5948D02*
D03*
X5557D02*
D03*
X5457D02*
D03*
X5494Y4195D02*
D03*
X5393D02*
D03*
X5408Y3713D02*
D03*
X5308D02*
D03*
X5302Y3110D02*
D03*
X5202D02*
D03*
X5217Y2627D02*
D03*
X5117D02*
D03*
X5366Y2414D02*
D03*
X5266D02*
D03*
X5856D02*
D03*
X5756D02*
D03*
X6357Y2805D02*
D03*
X6256D02*
D03*
X6442Y3287D02*
D03*
X6342D02*
D03*
X6548Y3890D02*
D03*
X6448D02*
D03*
X6633Y4373D02*
D03*
X6533D02*
D03*
X6239Y4586D02*
D03*
X6139D02*
D03*
X5749D02*
D03*
X5649D02*
D03*
X6293Y3500D02*
D03*
X6193D02*
D03*
X5802D02*
D03*
X5702D02*
D03*
X5536Y4437D02*
D03*
X5436D02*
D03*
X5451Y3954D02*
D03*
X5351D02*
D03*
X5345Y3351D02*
D03*
X5245D02*
D03*
X5260Y2868D02*
D03*
X5160D02*
D03*
X5611Y2414D02*
D03*
X5511D02*
D03*
X6101D02*
D03*
X6001D02*
D03*
X6314Y2563D02*
D03*
X6214D02*
D03*
X6399Y3046D02*
D03*
X6299D02*
D03*
X6505Y3649D02*
D03*
X6405D02*
D03*
X6590Y4132D02*
D03*
X6490D02*
D03*
X6484Y4586D02*
D03*
X6384D02*
D03*
X5994D02*
D03*
X5894D02*
D03*
X9297Y3500D02*
D03*
X9198D02*
D03*
X8807D02*
D03*
X8708D02*
D03*
X8743Y4195D02*
D03*
X8644D02*
D03*
X8658Y3713D02*
D03*
X8558D02*
D03*
X8552Y3110D02*
D03*
X8452D02*
D03*
X8467Y2627D02*
D03*
X8367D02*
D03*
X8616Y2414D02*
D03*
X8516D02*
D03*
X9106D02*
D03*
X9006D02*
D03*
X9606Y2805D02*
D03*
X9507D02*
D03*
X9692Y3287D02*
D03*
X9592D02*
D03*
X9798Y3890D02*
D03*
X9698D02*
D03*
X9883Y4373D02*
D03*
X9783D02*
D03*
X9489Y4586D02*
D03*
X9389D02*
D03*
X8999D02*
D03*
X8899D02*
D03*
X9542Y3500D02*
D03*
X9443D02*
D03*
X9052D02*
D03*
X8953D02*
D03*
X8786Y4437D02*
D03*
X8686D02*
D03*
X8701Y3954D02*
D03*
X8601D02*
D03*
X8595Y3351D02*
D03*
X8495D02*
D03*
X8509Y2868D02*
D03*
X8410D02*
D03*
X8861Y2414D02*
D03*
X8761D02*
D03*
X9351D02*
D03*
X9251D02*
D03*
X9564Y2563D02*
D03*
X9464D02*
D03*
X9649Y3046D02*
D03*
X9549D02*
D03*
X9755Y3649D02*
D03*
X9655D02*
D03*
X9840Y4132D02*
D03*
X9741D02*
D03*
X9734Y4586D02*
D03*
X9634D02*
D03*
X9244D02*
D03*
X9144D02*
D03*
X10922Y3500D02*
D03*
X10823D02*
D03*
X10432D02*
D03*
X10333D02*
D03*
X10368Y4195D02*
D03*
X10269D02*
D03*
X10283Y3713D02*
D03*
X10183D02*
D03*
X10177Y3110D02*
D03*
X10077D02*
D03*
X10092Y2627D02*
D03*
X9992D02*
D03*
X10241Y2414D02*
D03*
X10141D02*
D03*
X10731D02*
D03*
X10631D02*
D03*
X11231Y2805D02*
D03*
X11132D02*
D03*
X11317Y3287D02*
D03*
X11217D02*
D03*
X11423Y3890D02*
D03*
X11323D02*
D03*
X11508Y4373D02*
D03*
X11408D02*
D03*
X11114Y4586D02*
D03*
X11014D02*
D03*
X10624D02*
D03*
X10524D02*
D03*
X11167Y3500D02*
D03*
X11068D02*
D03*
X10677D02*
D03*
X10578D02*
D03*
X10411Y4437D02*
D03*
X10311D02*
D03*
X10326Y3954D02*
D03*
X10226D02*
D03*
X10220Y3351D02*
D03*
X10120D02*
D03*
X10134Y2868D02*
D03*
X10035D02*
D03*
X10486Y2414D02*
D03*
X10386D02*
D03*
X10976D02*
D03*
X10876D02*
D03*
X11189Y2563D02*
D03*
X11089D02*
D03*
X11274Y3046D02*
D03*
X11174D02*
D03*
X11380Y3649D02*
D03*
X11280D02*
D03*
X11465Y4132D02*
D03*
X11366D02*
D03*
X11359Y4586D02*
D03*
X11259D02*
D03*
X10869D02*
D03*
X10769D02*
D03*
X12547Y3500D02*
D03*
X12448D02*
D03*
X12057D02*
D03*
X11958D02*
D03*
X11993Y4195D02*
D03*
X11894D02*
D03*
X11908Y3713D02*
D03*
X11808D02*
D03*
X11802Y3110D02*
D03*
X11702D02*
D03*
X11717Y2627D02*
D03*
X11617D02*
D03*
X11866Y2414D02*
D03*
X11766D02*
D03*
X12356D02*
D03*
X12256D02*
D03*
X12856Y2805D02*
D03*
X12757D02*
D03*
X12942Y3287D02*
D03*
X12842D02*
D03*
X13048Y3890D02*
D03*
X12948D02*
D03*
X13133Y4373D02*
D03*
X13033D02*
D03*
X12739Y4586D02*
D03*
X12639D02*
D03*
X12249D02*
D03*
X12149D02*
D03*
X12792Y3500D02*
D03*
X12693D02*
D03*
X12302D02*
D03*
X12203D02*
D03*
X12036Y4437D02*
D03*
X11936D02*
D03*
X11951Y3954D02*
D03*
X11851D02*
D03*
X11845Y3351D02*
D03*
X11745D02*
D03*
X11759Y2868D02*
D03*
X11660D02*
D03*
X12111Y2414D02*
D03*
X12011D02*
D03*
X12601D02*
D03*
X12501D02*
D03*
X12814Y2563D02*
D03*
X12714D02*
D03*
X12899Y3046D02*
D03*
X12799D02*
D03*
X13005Y3649D02*
D03*
X12905D02*
D03*
X13090Y4132D02*
D03*
X12991D02*
D03*
X12984Y4586D02*
D03*
X12884D02*
D03*
X12494D02*
D03*
X12394D02*
D03*
D66*
X10150Y6765D02*
D03*
D67*
X10100Y6550D02*
D03*
Y6450D02*
D03*
Y6350D02*
D03*
D68*
X5832Y6567D02*
D03*
X5358D02*
D03*
D69*
X4362Y6544D02*
D03*
D70*
X4088Y6600D02*
D03*
X5072D02*
D03*
D71*
X6300Y250D02*
D03*
X6500D02*
D03*
X6700D02*
D03*
X6900D02*
D03*
X6300Y550D02*
D03*
X6500D02*
D03*
X6700D02*
D03*
X6900D02*
D03*
X7100Y555D02*
D03*
Y250D02*
D03*
D72*
X7225Y5500D02*
D03*
X7125Y4910D02*
D03*
X7285Y5125D02*
D03*
X7264Y4930D02*
D03*
X7350D02*
D03*
X7125Y5175D02*
D03*
X7300Y5800D02*
D03*
X7135Y2715D02*
D03*
X7085Y2970D02*
D03*
X6800Y5260D02*
D03*
X6510D02*
D03*
X6805Y3110D02*
D03*
X6745Y5620D02*
D03*
X6460D02*
D03*
X6755Y3075D02*
D03*
X6720Y5590D02*
D03*
X6485D02*
D03*
X6780Y3035D02*
D03*
X7350Y2935D02*
D03*
X7300Y2945D02*
D03*
X7250Y3075D02*
D03*
X5109Y1581D02*
D03*
X6755Y1635D02*
D03*
Y2925D02*
D03*
X7275D02*
D03*
X7325Y2900D02*
D03*
X6780D02*
D03*
Y1610D02*
D03*
X5809Y1581D02*
D03*
X7375Y2875D02*
D03*
X6805Y2870D02*
D03*
Y1581D02*
D03*
X6514Y1581D02*
D03*
X7425Y2890D02*
D03*
X7735D02*
D03*
Y1510D02*
D03*
X9075D02*
D03*
X7475Y2915D02*
D03*
X7760D02*
D03*
Y1555D02*
D03*
X9775Y1520D02*
D03*
X7525Y2940D02*
D03*
X7785D02*
D03*
Y1581D02*
D03*
X10509Y1581D02*
D03*
X7050Y1490D02*
D03*
X7100Y1855D02*
D03*
X7575Y1805D02*
D03*
X7525D02*
D03*
X7475D02*
D03*
X7425Y1650D02*
D03*
X7380Y1680D02*
D03*
X7345Y1710D02*
D03*
X7310Y1740D02*
D03*
X7275Y1770D02*
D03*
X7985Y1975D02*
D03*
X7625D02*
D03*
X7985Y3675D02*
D03*
X7625D02*
D03*
X7050Y3490D02*
D03*
X7575Y3145D02*
D03*
X7325Y3490D02*
D03*
X5520Y5820D02*
D03*
X5550Y5880D02*
D03*
Y5850D02*
D03*
Y5820D02*
D03*
X5430Y5790D02*
D03*
X5460D02*
D03*
X5490D02*
D03*
X5520D02*
D03*
X5550D02*
D03*
X5430Y5760D02*
D03*
X5460D02*
D03*
X5490D02*
D03*
X5520D02*
D03*
X5550D02*
D03*
X5580D02*
D03*
Y5790D02*
D03*
Y5820D02*
D03*
Y5850D02*
D03*
Y5880D02*
D03*
X5400Y5930D02*
D03*
X5130D02*
D03*
Y5960D02*
D03*
Y5990D02*
D03*
Y6020D02*
D03*
Y6050D02*
D03*
Y6080D02*
D03*
Y6110D02*
D03*
Y6140D02*
D03*
Y6170D02*
D03*
Y6200D02*
D03*
X5400Y5960D02*
D03*
Y5990D02*
D03*
Y6020D02*
D03*
Y6050D02*
D03*
Y6080D02*
D03*
Y6110D02*
D03*
Y6140D02*
D03*
Y6170D02*
D03*
Y6200D02*
D03*
X4563Y5150D02*
D03*
X4637D02*
D03*
X5063D02*
D03*
X5137D02*
D03*
X5563D02*
D03*
X5637D02*
D03*
X6063D02*
D03*
X6137D02*
D03*
X6360Y5200D02*
D03*
X4531Y4975D02*
D03*
X5031D02*
D03*
X5530D02*
D03*
X6030D02*
D03*
X5500Y4950D02*
D03*
X5000D02*
D03*
X4500D02*
D03*
X6000D02*
D03*
X5780Y5310D02*
D03*
X5280D02*
D03*
X4780D02*
D03*
X6280Y5310D02*
D03*
X5200Y4925D02*
D03*
X5700D02*
D03*
Y5225D02*
D03*
X5200D02*
D03*
X4700D02*
D03*
X6200D02*
D03*
Y4925D02*
D03*
X4700D02*
D03*
X5000Y5275D02*
D03*
X5500D02*
D03*
X6000D02*
D03*
X4500D02*
D03*
X6136Y6100D02*
D03*
X4700Y5530D02*
D03*
X4400Y5555D02*
D03*
X6015Y6055D02*
D03*
X7825Y200D02*
D03*
X7200Y1700D02*
D03*
X6700D02*
D03*
X6410Y5045D02*
D03*
X7660Y5775D02*
D03*
X8250Y3650D02*
D03*
X7225D02*
D03*
X11775Y6700D02*
D03*
X7705Y4860D02*
D03*
X8470Y5813D02*
D03*
X7675Y4830D02*
D03*
X6975Y1145D02*
D03*
X9325Y1150D02*
D03*
X8625D02*
D03*
X5325Y1145D02*
D03*
X6990Y2385D02*
D03*
X7050Y2500D02*
D03*
Y4000D02*
D03*
X7100Y4300D02*
D03*
X7280Y5335D02*
D03*
X4690Y5995D02*
D03*
X4650Y6025D02*
D03*
X7130Y5720D02*
D03*
X10455Y1655D02*
D03*
X7575Y4200D02*
D03*
X10880Y6350D02*
D03*
X7525Y4200D02*
D03*
X10880Y5900D02*
D03*
X10270Y5930D02*
D03*
X10945Y5745D02*
D03*
X7475Y4200D02*
D03*
X6798Y5363D02*
D03*
Y5437D02*
D03*
X6730Y763D02*
D03*
X6728Y837D02*
D03*
X6025Y1145D02*
D03*
X4625Y1150D02*
D03*
X1300Y3030D02*
D03*
Y3070D02*
D03*
Y3110D02*
D03*
Y3150D02*
D03*
Y3190D02*
D03*
X4220Y4855D02*
D03*
X4255Y4890D02*
D03*
X4185Y4825D02*
D03*
X4150Y4790D02*
D03*
X4100Y4750D02*
D03*
X1425Y2445D02*
D03*
X1465Y2460D02*
D03*
X1500Y2475D02*
D03*
X8550Y6500D02*
D03*
X8650D02*
D03*
X8750D02*
D03*
X8850D02*
D03*
X8950D02*
D03*
X9050D02*
D03*
X9150D02*
D03*
X9250D02*
D03*
X9350D02*
D03*
X9450D02*
D03*
X9550D02*
D03*
X9650D02*
D03*
X7985Y5240D02*
D03*
X7960Y5215D02*
D03*
X7935Y5190D02*
D03*
X7910Y5165D02*
D03*
X7885Y5110D02*
D03*
X7860Y5085D02*
D03*
X7835Y5060D02*
D03*
X7810Y5035D02*
D03*
X1600Y3445D02*
D03*
Y3485D02*
D03*
X7225Y3365D02*
D03*
X7275Y3400D02*
D03*
X13190Y2210D02*
D03*
X13200Y2175D02*
D03*
X13210Y2140D02*
D03*
X13230Y2105D02*
D03*
X13250Y2070D02*
D03*
X13500Y3380D02*
D03*
Y3420D02*
D03*
X7525Y3370D02*
D03*
X7475Y3400D02*
D03*
X13500Y3460D02*
D03*
X7425Y3430D02*
D03*
X13500Y3500D02*
D03*
X7375Y3460D02*
D03*
X13500Y4050D02*
D03*
X6895Y4890D02*
D03*
Y1615D02*
D03*
X7375Y4200D02*
D03*
X7325D02*
D03*
X7275D02*
D03*
X7225D02*
D03*
X7475Y2500D02*
D03*
X7425D02*
D03*
X7375D02*
D03*
X7325D02*
D03*
X7275D02*
D03*
X10800Y1700D02*
D03*
X9795D02*
D03*
X6425Y1490D02*
D03*
X10785Y1455D02*
D03*
X9025Y1485D02*
D03*
X10780Y1420D02*
D03*
X10740Y1385D02*
D03*
X5725Y1500D02*
D03*
X10700Y1350D02*
D03*
X5025Y1475D02*
D03*
X12304Y2805D02*
D03*
X10684Y2800D02*
D03*
X9059D02*
D03*
X5804Y2805D02*
D03*
X4184Y2800D02*
D03*
X2559D02*
D03*
X2890Y4000D02*
D03*
X2641Y3946D02*
D03*
X4264D02*
D03*
X4525Y4000D02*
D03*
X5896Y3946D02*
D03*
X6145Y4000D02*
D03*
X9141Y3946D02*
D03*
X9385Y4000D02*
D03*
X12640D02*
D03*
X11015D02*
D03*
X10769Y3946D02*
D03*
X12400D02*
D03*
X4675Y1120D02*
D03*
X4725Y1095D02*
D03*
X4775Y1070D02*
D03*
X4825Y1045D02*
D03*
X4875Y1020D02*
D03*
X4925Y995D02*
D03*
X4975Y970D02*
D03*
X5375Y1120D02*
D03*
X5425Y1095D02*
D03*
X5475Y1070D02*
D03*
X5525Y1045D02*
D03*
X5575Y1020D02*
D03*
X5625Y995D02*
D03*
X5675Y970D02*
D03*
X6075Y1120D02*
D03*
X6125Y1095D02*
D03*
X6175Y1070D02*
D03*
X6225Y1045D02*
D03*
X6275Y1020D02*
D03*
X6325Y995D02*
D03*
X6375Y970D02*
D03*
X8675Y1120D02*
D03*
X8725Y1095D02*
D03*
X8775Y1070D02*
D03*
X8825Y1045D02*
D03*
X8875Y1020D02*
D03*
X8925Y995D02*
D03*
X8975Y970D02*
D03*
X9375Y1120D02*
D03*
X9425Y1095D02*
D03*
X9475Y1070D02*
D03*
X9525Y1045D02*
D03*
X9575Y1020D02*
D03*
X9625Y995D02*
D03*
X9675Y970D02*
D03*
X7910Y1020D02*
D03*
X7885Y1045D02*
D03*
X7935Y995D02*
D03*
X7960Y970D02*
D03*
X7860Y1070D02*
D03*
X7835Y1095D02*
D03*
X7810Y1120D02*
D03*
X7225Y3850D02*
D03*
X7810D02*
D03*
X7275Y3825D02*
D03*
X7835D02*
D03*
X7325Y3800D02*
D03*
X7860D02*
D03*
X7375Y3775D02*
D03*
X7885D02*
D03*
X7425Y3750D02*
D03*
X7910D02*
D03*
X7475Y3725D02*
D03*
X7935D02*
D03*
X7525Y3700D02*
D03*
X7960D02*
D03*
X7225Y2150D02*
D03*
X7810D02*
D03*
X7275Y2125D02*
D03*
X7835D02*
D03*
X7325Y2100D02*
D03*
X7860D02*
D03*
X7375Y2075D02*
D03*
X7885D02*
D03*
X7425Y2050D02*
D03*
X7910D02*
D03*
X7475Y2025D02*
D03*
X7935D02*
D03*
X7525Y2000D02*
D03*
X7960D02*
D03*
X4342Y6037D02*
D03*
Y5963D02*
D03*
X8145Y850D02*
D03*
X14483Y925D02*
D03*
Y1575D02*
D03*
Y1925D02*
D03*
Y2275D02*
D03*
Y2875D02*
D03*
Y4200D02*
D03*
X14488Y4850D02*
D03*
X14478Y5200D02*
D03*
X14483Y5555D02*
D03*
X14478Y6155D02*
D03*
X517Y6070D02*
D03*
Y5420D02*
D03*
Y5070D02*
D03*
Y4715D02*
D03*
Y4110D02*
D03*
Y2800D02*
D03*
Y2150D02*
D03*
Y1800D02*
D03*
Y1450D02*
D03*
Y800D02*
D03*
X10150Y5305D02*
D03*
X7425Y4200D02*
D03*
X11698Y5052D02*
D03*
X6300Y5790D02*
D03*
Y6100D02*
D03*
X7313Y4902D02*
D03*
X8165Y6075D02*
D03*
X7395Y5275D02*
D03*
Y5325D02*
D03*
X7800Y5205D02*
D03*
X8010Y895D02*
D03*
X8110Y4902D02*
D03*
X8035Y920D02*
D03*
X7850Y5180D02*
D03*
X7397Y5467D02*
D03*
X5835Y1200D02*
D03*
X5950Y1175D02*
D03*
X8085Y1295D02*
D03*
X8060Y1320D02*
D03*
X5573Y832D02*
D03*
X4893Y828D02*
D03*
X8200Y3240D02*
D03*
X8225Y3270D02*
D03*
X7770Y3330D02*
D03*
X7745Y3300D02*
D03*
X7335Y5115D02*
D03*
X9850Y6500D02*
D03*
X9750D02*
D03*
X7320Y4990D02*
D03*
X7220Y4975D02*
D03*
X7240Y5105D02*
D03*
X7146Y5114D02*
D03*
X7205Y5115D02*
D03*
X7060Y4950D02*
D03*
X7003Y5133D02*
D03*
X6872Y5202D02*
D03*
X7020Y5260D02*
D03*
Y5300D02*
D03*
X7005Y1455D02*
D03*
X6870D02*
D03*
X6580Y5230D02*
D03*
X6850D02*
D03*
X4510Y6200D02*
D03*
X6845Y5285D02*
D03*
X4613Y6052D02*
D03*
X6800Y5310D02*
D03*
X6715Y6237D02*
D03*
X6387D02*
D03*
X5240Y1225D02*
D03*
X6715D02*
D03*
X5160Y1250D02*
D03*
X6690D02*
D03*
X6605Y5310D02*
D03*
X6590Y5470D02*
D03*
X6725Y5495D02*
D03*
X6565Y5500D02*
D03*
X6745Y5520D02*
D03*
X4250Y1840D02*
D03*
X4215Y1870D02*
D03*
X4180Y1900D02*
D03*
X4110Y1960D02*
D03*
X4145Y1930D02*
D03*
X7375Y2720D02*
D03*
X6730Y2650D02*
D03*
X6848Y5172D02*
D03*
X6435Y5172D02*
D03*
X7035Y2700D02*
D03*
X8275Y1240D02*
D03*
X7540D02*
D03*
X8250Y1190D02*
D03*
X7463D02*
D03*
X8225Y1270D02*
D03*
X8210Y1215D02*
D03*
X7488D02*
D03*
X7437Y1240D02*
D03*
X9521Y879D02*
D03*
X9275Y895D02*
D03*
X7250Y1260D02*
D03*
X7305Y1180D02*
D03*
X7067Y5695D02*
D03*
X6425Y5610D02*
D03*
X8500Y1455D02*
D03*
X6670Y1520D02*
D03*
X7215Y5360D02*
D03*
X7090Y5475D02*
D03*
X7155Y5510D02*
D03*
X7500Y5800D02*
D03*
X7245Y5145D02*
D03*
X7500Y5655D02*
D03*
X7400Y5800D02*
D03*
X7050Y3200D02*
D03*
X9965Y1220D02*
D03*
X10075Y1140D02*
D03*
X10125D02*
D03*
X10175D02*
D03*
X10225D02*
D03*
X10275D02*
D03*
X10325D02*
D03*
X10375D02*
D03*
X9025Y945D02*
D03*
X10425Y1140D02*
D03*
X9725Y945D02*
D03*
X5025D02*
D03*
X6425D02*
D03*
X5725D02*
D03*
X7985D02*
D03*
X6795Y920D02*
D03*
X6870Y895D02*
D03*
X7275Y870D02*
D03*
X7795Y835D02*
D03*
M02*
