M48
;Layer_Color=9474304
;FILE_FORMAT=2:3
INCH,LZ
;TYPE=PLATED
T1F00S00C0.035
T2F00S00C0.065
;TYPE=NON_PLATED
T3F00S00C0.128
%
T01
X00535Y0054
X00635
X00735
X00785Y0064
X00685
X00585
T02
X0014Y001
Y003
X0034
Y001
X0054
Y003
X0074
X0094
X0114
Y001
X0094
X0074
T03
X0086Y0089
X0046
M30
