%FSLAX23Y23*%
%MOIN*%
G70*
G01*
G75*
G04 Layer_Color=65535*
%ADD10C,0.150*%
%ADD11C,0.050*%
%ADD12C,0.120*%
%ADD13C,0.020*%
%ADD14C,0.005*%
%ADD15C,0.120*%
%ADD16C,0.063*%
%ADD17C,0.070*%
%ADD18C,0.060*%
%ADD19C,0.118*%
%ADD20C,0.118*%
%ADD21C,0.140*%
%ADD22C,0.008*%
%ADD23C,0.008*%
%ADD24C,0.005*%
%ADD25C,0.040*%
%ADD26C,0.001*%
%ADD27C,0.002*%
%ADD28C,0.015*%
%ADD29C,0.010*%
D14*
X4030Y500D02*
Y530D01*
Y515D01*
X4075D01*
Y552D02*
Y567D01*
X4068Y575D01*
X4053D01*
X4045Y567D01*
Y552D01*
X4053Y545D01*
X4068D01*
X4075Y552D01*
X4090Y590D02*
X4045D01*
Y612D01*
X4053Y620D01*
X4068D01*
X4075Y612D01*
Y590D01*
X4030Y702D02*
Y687D01*
X4038Y680D01*
X4068D01*
X4075Y687D01*
Y702D01*
X4068Y710D01*
X4038D01*
X4030Y702D01*
X4045Y725D02*
X4075Y740D01*
X4045Y755D01*
X4075Y792D02*
Y777D01*
X4068Y770D01*
X4053D01*
X4045Y777D01*
Y792D01*
X4053Y800D01*
X4060D01*
Y770D01*
X4045Y815D02*
X4075D01*
X4060D01*
X4053Y822D01*
X4045Y830D01*
Y837D01*
X4075Y860D02*
Y875D01*
Y867D01*
X4030D01*
Y860D01*
X4045Y905D02*
Y920D01*
X4053Y927D01*
X4075D01*
Y905D01*
X4068Y897D01*
X4060Y905D01*
Y927D01*
X4045Y942D02*
X4068D01*
X4075Y950D01*
Y972D01*
X4082D01*
X4090Y965D01*
Y957D01*
X4075Y972D02*
X4045D01*
D22*
X1980Y2250D02*
G03*
X1980Y2250I-80J0D01*
G01*
X2382Y2251D02*
G03*
X2382Y2251I-80J0D01*
G01*
X1980Y1950D02*
G03*
X1980Y1950I-80J0D01*
G01*
X2382Y1951D02*
G03*
X2382Y1951I-80J0D01*
G01*
X1580Y1950D02*
G03*
X1580Y1950I-80J0D01*
G01*
X2782Y1951D02*
G03*
X2782Y1951I-80J0D01*
G01*
X1580Y2250D02*
G03*
X1580Y2250I-80J0D01*
G01*
X2782Y2251D02*
G03*
X2782Y2251I-80J0D01*
G01*
X3753Y2125D02*
G03*
X3753Y2125I-125J0D01*
G01*
Y375D02*
G03*
X3753Y375I-125J0D01*
G01*
X498D02*
G03*
X498Y375I-125J0D01*
G01*
Y2125D02*
G03*
X498Y2125I-125J0D01*
G01*
X195Y1355D02*
X555D01*
X195Y995D02*
X555D01*
Y1355D01*
X195Y995D02*
Y1355D01*
X3550Y1475D02*
Y1575D01*
Y1475D02*
X3850D01*
Y1575D01*
X3550D02*
X3850D01*
X1596Y-98D02*
X2804D01*
X1161Y1974D02*
X1256D01*
X744D02*
X839D01*
X684Y1777D02*
X1316D01*
X663Y1171D02*
X1337D01*
X626Y-183D02*
Y-26D01*
X1374Y-183D02*
Y-26D01*
X2582Y1924D02*
X2576Y1918D01*
Y1907D01*
X2582Y1901D01*
X2604D01*
X2610Y1907D01*
Y1918D01*
X2604Y1924D01*
X2610Y1935D02*
X2576D01*
X2610Y1958D01*
X2576D01*
Y1969D02*
X2610D01*
X2593D01*
Y1992D01*
X2576D01*
X2610D01*
X2577Y2235D02*
X2571Y2229D01*
Y2218D01*
X2577Y2212D01*
X2599D01*
X2605Y2218D01*
Y2229D01*
X2599Y2235D01*
X2605Y2246D02*
X2571D01*
X2605Y2269D01*
X2571D01*
Y2280D02*
X2605D01*
Y2303D01*
X1378Y2247D02*
X1372Y2241D01*
Y2230D01*
X1378Y2224D01*
X1400D01*
X1406Y2230D01*
Y2241D01*
X1400Y2247D01*
X1406Y2258D02*
X1372D01*
X1406Y2281D01*
X1372D01*
Y2292D02*
X1406D01*
Y2315D01*
X1383Y1936D02*
X1377Y1930D01*
Y1919D01*
X1383Y1913D01*
X1405D01*
X1411Y1919D01*
Y1930D01*
X1405Y1936D01*
X1411Y1947D02*
X1377D01*
X1411Y1970D01*
X1377D01*
Y1981D02*
X1411D01*
X1394D01*
Y2004D01*
X1377D01*
X1411D01*
X1788Y1910D02*
Y1933D01*
X1777Y1921D02*
X1799D01*
X1805Y1944D02*
Y1955D01*
Y1950D01*
X1771D01*
X1777Y1944D01*
X1805Y1995D02*
Y1972D01*
X1782Y1995D01*
X1777D01*
X1771Y1989D01*
Y1978D01*
X1777Y1972D01*
X1782Y2006D02*
X1805Y2018D01*
X1782Y2029D01*
X1777Y2230D02*
X1771Y2224D01*
Y2213D01*
X1777Y2207D01*
X1799D01*
X1805Y2213D01*
Y2224D01*
X1799Y2230D01*
X1788D01*
Y2218D01*
X1805Y2241D02*
X1771D01*
X1805Y2264D01*
X1771D01*
Y2275D02*
X1805D01*
Y2292D01*
X1799Y2298D01*
X1777D01*
X1771Y2292D01*
Y2275D01*
X2185Y2234D02*
X2179Y2228D01*
Y2217D01*
X2185Y2211D01*
X2207D01*
X2213Y2217D01*
Y2228D01*
X2207Y2234D01*
X2196D01*
Y2222D01*
X2213Y2245D02*
X2179D01*
X2213Y2268D01*
X2179D01*
Y2279D02*
X2213D01*
Y2296D01*
X2207Y2302D01*
X2185D01*
X2179Y2296D01*
Y2279D01*
X2191Y1891D02*
Y1914D01*
X2180Y1902D02*
X2202D01*
X2208Y1925D02*
Y1936D01*
Y1931D01*
X2174D01*
X2180Y1925D01*
X2208Y1976D02*
Y1953D01*
X2185Y1976D01*
X2180D01*
X2174Y1970D01*
Y1959D01*
X2180Y1953D01*
X2185Y1987D02*
X2208Y1999D01*
X2185Y2010D01*
D23*
X2288Y270D02*
G03*
X2288Y270I-88J0D01*
G01*
X1888D02*
G03*
X1888Y270I-88J0D01*
G01*
X2688D02*
G03*
X2688Y270I-88J0D01*
G01*
X1596Y626D02*
X2804D01*
X1596Y-98D02*
Y626D01*
X2804Y-98D02*
Y626D01*
X839Y1777D02*
Y1974D01*
X1161Y1777D02*
Y1974D01*
X1256Y1777D02*
Y1974D01*
X744Y1777D02*
Y1974D01*
X1316Y1171D02*
Y1777D01*
X684Y1171D02*
Y1777D01*
X1337Y-26D02*
Y1171D01*
X663Y-26D02*
Y1171D01*
X626Y-26D02*
X1374D01*
X626Y-183D02*
X1374D01*
D24*
X4215Y1200D02*
G03*
X4215Y1400I0J100D01*
G01*
X4100Y1175D02*
Y1425D01*
X3750D02*
X4100D01*
X3750Y1175D02*
Y1425D01*
Y1175D02*
X4100D01*
Y1200D02*
X4215D01*
X4100Y1400D02*
X4215D01*
D25*
X2100Y1775D02*
Y2450D01*
D26*
X2237Y1528D02*
X2252D01*
X2232Y1530D02*
X2258D01*
X2109D02*
X2132D01*
X2415Y1531D02*
X2433D01*
X2229D02*
X2262D01*
X2105D02*
X2138D01*
X1730D02*
X1797D01*
X2405Y1532D02*
X2443D01*
X2226D02*
X2264D01*
X2103D02*
X2140D01*
X1947D02*
X2012D01*
X1864D02*
X1930D01*
X1731D02*
X1797D01*
X1610D02*
X1722D01*
X1410D02*
X1477D01*
X2747Y1533D02*
X2748D01*
X2448D02*
X2449D01*
X2399D02*
X2446D01*
X2224D02*
X2265D01*
X2100D02*
X2144D01*
X1947D02*
X2012D01*
X1863D02*
X1930D01*
X1731D02*
X1798D01*
X1607D02*
X1722D01*
X1410D02*
X1477D01*
X2926Y1534D02*
X2926D01*
X2854D02*
X2854D01*
X2852D02*
X2852D01*
X2838D02*
X2850D01*
X2832D02*
X2836D01*
X2753D02*
X2830D01*
X2747D02*
X2750D01*
X2745D02*
X2745D01*
X2452D02*
X2452D01*
X2393D02*
X2450D01*
X2223D02*
X2268D01*
X2099D02*
X2145D01*
X1947D02*
X2012D01*
X1863D02*
X1930D01*
X1731D02*
X1798D01*
X1605D02*
X1722D01*
X1410D02*
X1477D01*
X3099Y1536D02*
X3100D01*
X3082D02*
X3082D01*
X3069D02*
X3070D01*
X2884D02*
X2962D01*
X2748D02*
X2854D01*
X2741D02*
X2746D01*
X2717D02*
X2720D01*
X2710D02*
X2712D01*
X2704D02*
X2704D01*
X2700D02*
X2702D01*
X2698D02*
X2698D01*
X2678D02*
X2679D01*
X2607D02*
X2610D01*
X2604D02*
X2605D01*
X2602D02*
X2602D01*
X2580D02*
X2581D01*
X2573D02*
X2576D01*
X2566D02*
X2568D01*
X2390D02*
X2456D01*
X2220D02*
X2269D01*
X2097D02*
X2148D01*
X1947D02*
X2012D01*
X1863D02*
X1929D01*
X1732D02*
X1798D01*
X1604D02*
X1722D01*
X1410D02*
X1477D01*
X3098Y1537D02*
X3100D01*
X3081D02*
X3084D01*
X3068D02*
X3070D01*
X3051D02*
X3051D01*
X2883D02*
X2968D01*
X2740D02*
X2854D01*
X2705D02*
X2722D01*
X2699D02*
X2703D01*
X2687D02*
X2696D01*
X2652D02*
X2684D01*
X2608D02*
X2608D01*
X2543D02*
X2606D01*
X2453D02*
X2455D01*
X2386D02*
X2451D01*
X2219D02*
X2270D01*
X2096D02*
X2149D01*
X1947D02*
X2012D01*
X1863D02*
X1929D01*
X1732D02*
X1800D01*
X1602D02*
X1722D01*
X1410D02*
X1477D01*
X3096Y1538D02*
X3100D01*
X3081D02*
X3086D01*
X3068D02*
X3070D01*
X3050D02*
X3052D01*
X2877D02*
X2979D01*
X2736D02*
X2854D01*
X2650D02*
X2722D01*
X2544D02*
X2612D01*
X2382D02*
X2464D01*
X2218D02*
X2271D01*
X2094D02*
X2150D01*
X1947D02*
X2012D01*
X1862D02*
X1929D01*
X1732D02*
X1800D01*
X1601D02*
X1722D01*
X1410D02*
X1477D01*
X3096Y1539D02*
X3099D01*
X3081D02*
X3086D01*
X3068D02*
X3070D01*
X3050D02*
X3052D01*
X2876D02*
X2984D01*
X2735D02*
X2854D01*
X2649D02*
X2722D01*
X2544D02*
X2612D01*
X2380D02*
X2468D01*
X2218D02*
X2272D01*
X2093D02*
X2151D01*
X1947D02*
X2012D01*
X1862D02*
X1929D01*
X1732D02*
X1800D01*
X1600D02*
X1722D01*
X1410D02*
X1477D01*
X3096Y1540D02*
X3099D01*
X3080D02*
X3087D01*
X3068D02*
X3070D01*
X3050D02*
X3052D01*
X2874D02*
X2988D01*
X2734D02*
X2854D01*
X2649D02*
X2721D01*
X2544D02*
X2612D01*
X2378D02*
X2470D01*
X2217D02*
X2274D01*
X2092D02*
X2152D01*
X1947D02*
X2012D01*
X1862D02*
X1928D01*
X1733D02*
X1800D01*
X1599D02*
X1722D01*
X1410D02*
X1477D01*
X3096Y1542D02*
X3099D01*
X3084D02*
X3087D01*
X3080D02*
X3082D01*
X3068D02*
X3070D01*
X3050D02*
X3052D01*
X2873D02*
X2991D01*
X2733D02*
X2854D01*
X2648D02*
X2721D01*
X2544D02*
X2612D01*
X2374D02*
X2473D01*
X2216D02*
X2275D01*
X2091D02*
X2154D01*
X1947D02*
X2012D01*
X1860D02*
X1928D01*
X1733D02*
X1801D01*
X1599D02*
X1722D01*
X1410D02*
X1477D01*
X3096Y1543D02*
X3099D01*
X3086D02*
X3087D01*
X3080D02*
X3082D01*
X3068D02*
X3070D01*
X3050D02*
X3052D01*
X2872D02*
X2994D01*
X2733D02*
X2854D01*
X2648D02*
X2720D01*
X2544D02*
X2612D01*
X2372D02*
X2475D01*
X2216D02*
X2276D01*
X2091D02*
X2155D01*
X1947D02*
X2012D01*
X1860D02*
X1928D01*
X1733D02*
X1801D01*
X1598D02*
X1722D01*
X1410D02*
X1477D01*
X3096Y1544D02*
X3099D01*
X3086D02*
X3088D01*
X3078D02*
X3081D01*
X3068D02*
X3070D01*
X3050D02*
X3052D01*
X2871D02*
X2997D01*
X2732D02*
X2854D01*
X2646D02*
X2719D01*
X2544D02*
X2612D01*
X2369D02*
X2478D01*
X2214D02*
X2276D01*
X2090D02*
X2155D01*
X1947D02*
X2012D01*
X1860D02*
X1927D01*
X1734D02*
X1801D01*
X1598D02*
X1722D01*
X1410D02*
X1477D01*
X3096Y1545D02*
X3099D01*
X3086D02*
X3088D01*
X3078D02*
X3081D01*
X3068D02*
X3070D01*
X3050D02*
X3052D01*
X2871D02*
X3000D01*
X2730D02*
X2854D01*
X2646D02*
X2719D01*
X2544D02*
X2612D01*
X2428D02*
X2480D01*
X2368D02*
X2425D01*
X2213D02*
X2277D01*
X2088D02*
X2156D01*
X1947D02*
X2012D01*
X1859D02*
X1927D01*
X1734D02*
X1802D01*
X1596D02*
X1722D01*
X1410D02*
X1477D01*
X3096Y1546D02*
X3099D01*
X3086D02*
X3088D01*
X3078D02*
X3081D01*
X3068D02*
X3070D01*
X3050D02*
X3052D01*
X2870D02*
X3001D01*
X2730D02*
X2854D01*
X2645D02*
X2718D01*
X2544D02*
X2612D01*
X2430D02*
X2481D01*
X2366D02*
X2421D01*
X2213D02*
X2278D01*
X2088D02*
X2157D01*
X1947D02*
X2012D01*
X1859D02*
X1927D01*
X1734D02*
X1802D01*
X1596D02*
X1722D01*
X1410D02*
X1477D01*
X3096Y1548D02*
X3099D01*
X3087D02*
X3090D01*
X3077D02*
X3081D01*
X3068D02*
X3070D01*
X3050D02*
X3052D01*
X2868D02*
X3003D01*
X2730D02*
X2854D01*
X2645D02*
X2718D01*
X2543D02*
X2612D01*
X2432D02*
X2484D01*
X2363D02*
X2420D01*
X2212D02*
X2278D01*
X2087D02*
X2157D01*
X1947D02*
X2012D01*
X1859D02*
X1926D01*
X1736D02*
X1802D01*
X1596D02*
X1722D01*
X1410D02*
X1477D01*
X3096Y1549D02*
X3099D01*
X3087D02*
X3090D01*
X3077D02*
X3080D01*
X3068D02*
X3070D01*
X3050D02*
X3052D01*
X2868D02*
X3004D01*
X2729D02*
X2854D01*
X2644D02*
X2716D01*
X2543D02*
X2612D01*
X2433D02*
X2486D01*
X2362D02*
X2419D01*
X2212D02*
X2280D01*
X2087D02*
X2158D01*
X1947D02*
X2012D01*
X1858D02*
X1926D01*
X1736D02*
X1803D01*
X1595D02*
X1722D01*
X1410D02*
X1477D01*
X3096Y1550D02*
X3099D01*
X3087D02*
X3090D01*
X3077D02*
X3080D01*
X3069D02*
X3070D01*
X3050D02*
X3052D01*
X2868D02*
X3007D01*
X2729D02*
X2854D01*
X2644D02*
X2716D01*
X2543D02*
X2612D01*
X2433D02*
X2487D01*
X2360D02*
X2418D01*
X2211D02*
X2280D01*
X2086D02*
X2158D01*
X1947D02*
X2012D01*
X1858D02*
X1926D01*
X1736D02*
X1803D01*
X1595D02*
X1722D01*
X1410D02*
X1477D01*
X3096Y1551D02*
X3099D01*
X3088D02*
X3091D01*
X3076D02*
X3080D01*
X3069D02*
X3070D01*
X3050D02*
X3052D01*
X2867D02*
X3008D01*
X2729D02*
X2854D01*
X2643D02*
X2715D01*
X2543D02*
X2612D01*
X2434D02*
X2490D01*
X2358D02*
X2418D01*
X2211D02*
X2281D01*
X2086D02*
X2158D01*
X1947D02*
X2012D01*
X1858D02*
X1926D01*
X1736D02*
X1803D01*
X1595D02*
X1722D01*
X1410D02*
X1477D01*
X3096Y1552D02*
X3099D01*
X3088D02*
X3091D01*
X3076D02*
X3079D01*
X3069D02*
X3072D01*
X3050D02*
X3052D01*
X2867D02*
X3010D01*
X2729D02*
X2854D01*
X2643D02*
X2715D01*
X2543D02*
X2612D01*
X2434D02*
X2491D01*
X2356D02*
X2418D01*
X2210D02*
X2281D01*
X2085D02*
X2160D01*
X1947D02*
X2012D01*
X1857D02*
X1924D01*
X1737D02*
X1804D01*
X1595D02*
X1722D01*
X1410D02*
X1477D01*
X3096Y1554D02*
X3099D01*
X3089D02*
X3091D01*
X3076D02*
X3079D01*
X3069D02*
X3072D01*
X3050D02*
X3052D01*
X2867D02*
X3012D01*
X2729D02*
X2854D01*
X2642D02*
X2714D01*
X2543D02*
X2612D01*
X2435D02*
X2492D01*
X2355D02*
X2418D01*
X2210D02*
X2281D01*
X2085D02*
X2160D01*
X1947D02*
X2012D01*
X1857D02*
X1924D01*
X1737D02*
X1804D01*
X1595D02*
X1722D01*
X1410D02*
X1477D01*
X3096Y1555D02*
X3099D01*
X3089D02*
X3092D01*
X3075D02*
X3078D01*
X3069D02*
X3072D01*
X3050D02*
X3052D01*
X2867D02*
X3013D01*
X2729D02*
X2854D01*
X2642D02*
X2714D01*
X2543D02*
X2612D01*
X2435D02*
X2494D01*
X2354D02*
X2418D01*
X2208D02*
X2282D01*
X2085D02*
X2160D01*
X1947D02*
X2012D01*
X1857D02*
X1924D01*
X1737D02*
X1804D01*
X1595D02*
X1722D01*
X1410D02*
X1477D01*
X3096Y1556D02*
X3099D01*
X3089D02*
X3092D01*
X3075D02*
X3078D01*
X3069D02*
X3072D01*
X3050D02*
X3052D01*
X2867D02*
X3014D01*
X2729D02*
X2854D01*
X2640D02*
X2713D01*
X2543D02*
X2612D01*
X2436D02*
X2496D01*
X2352D02*
X2418D01*
X2208D02*
X2282D01*
X2084D02*
X2161D01*
X1947D02*
X2012D01*
X1856D02*
X1923D01*
X1738D02*
X1806D01*
X1595D02*
X1722D01*
X1410D02*
X1477D01*
X3096Y1557D02*
X3099D01*
X3090D02*
X3092D01*
X3075D02*
X3078D01*
X3069D02*
X3072D01*
X3050D02*
X3052D01*
X2866D02*
X3016D01*
X2729D02*
X2854D01*
X2639D02*
X2712D01*
X2543D02*
X2612D01*
X2436D02*
X2497D01*
X2350D02*
X2418D01*
X2207D02*
X2282D01*
X2084D02*
X2161D01*
X1947D02*
X2012D01*
X1856D02*
X1923D01*
X1738D02*
X1806D01*
X1595D02*
X1722D01*
X1410D02*
X1477D01*
X3096Y1558D02*
X3098D01*
X3090D02*
X3093D01*
X3074D02*
X3076D01*
X3069D02*
X3072D01*
X3050D02*
X3052D01*
X2866D02*
X3018D01*
X2729D02*
X2854D01*
X2639D02*
X2712D01*
X2543D02*
X2612D01*
X2438D02*
X2498D01*
X2349D02*
X2419D01*
X2207D02*
X2282D01*
X2084D02*
X2161D01*
X1947D02*
X2012D01*
X1856D02*
X1923D01*
X1738D02*
X1806D01*
X1595D02*
X1722D01*
X1410D02*
X1477D01*
X3096Y1560D02*
X3098D01*
X3090D02*
X3093D01*
X3074D02*
X3076D01*
X3069D02*
X3072D01*
X3050D02*
X3052D01*
X2866D02*
X3019D01*
X2729D02*
X2854D01*
X2638D02*
X2710D01*
X2543D02*
X2612D01*
X2438D02*
X2499D01*
X2348D02*
X2419D01*
X2207D02*
X2283D01*
X2082D02*
X2161D01*
X1947D02*
X2012D01*
X1854D02*
X1922D01*
X1739D02*
X1807D01*
X1595D02*
X1722D01*
X1410D02*
X1477D01*
X3096Y1561D02*
X3098D01*
X3092D02*
X3093D01*
X3074D02*
X3076D01*
X3069D02*
X3072D01*
X3050D02*
X3052D01*
X2866D02*
X3020D01*
X2729D02*
X2854D01*
X2638D02*
X2710D01*
X2543D02*
X2612D01*
X2439D02*
X2500D01*
X2346D02*
X2419D01*
X2206D02*
X2283D01*
X2082D02*
X2162D01*
X1947D02*
X2012D01*
X1854D02*
X1922D01*
X1739D02*
X1807D01*
X1595D02*
X1722D01*
X1410D02*
X1477D01*
X3092Y1562D02*
X3098D01*
X3069D02*
X3075D01*
X3050D02*
X3052D01*
X2866D02*
X3021D01*
X2729D02*
X2854D01*
X2637D02*
X2709D01*
X2543D02*
X2612D01*
X2439D02*
X2502D01*
X2345D02*
X2419D01*
X2206D02*
X2283D01*
X2081D02*
X2162D01*
X1947D02*
X2012D01*
X1854D02*
X1922D01*
X1739D02*
X1807D01*
X1595D02*
X1722D01*
X1410D02*
X1477D01*
X3092Y1563D02*
X3098D01*
X3069D02*
X3075D01*
X3050D02*
X3052D01*
X2866D02*
X3022D01*
X2729D02*
X2854D01*
X2637D02*
X2709D01*
X2543D02*
X2612D01*
X2440D02*
X2503D01*
X2344D02*
X2419D01*
X2206D02*
X2283D01*
X2081D02*
X2162D01*
X1947D02*
X2012D01*
X1853D02*
X1922D01*
X1739D02*
X1808D01*
X1595D02*
X1722D01*
X1410D02*
X1477D01*
X3093Y1564D02*
X3098D01*
X3069D02*
X3075D01*
X3040D02*
X3063D01*
X2866D02*
X3024D01*
X2729D02*
X2854D01*
X2636D02*
X2708D01*
X2543D02*
X2612D01*
X2440D02*
X2504D01*
X2343D02*
X2420D01*
X2205D02*
X2284D01*
X2081D02*
X2162D01*
X1947D02*
X2012D01*
X1740D02*
X1921D01*
X1595D02*
X1722D01*
X1410D02*
X1477D01*
X3093Y1566D02*
X3098D01*
X3069D02*
X3074D01*
X3040D02*
X3063D01*
X2866D02*
X3025D01*
X2729D02*
X2854D01*
X2636D02*
X2708D01*
X2543D02*
X2612D01*
X2441D02*
X2505D01*
X2342D02*
X2420D01*
X2205D02*
X2284D01*
X2081D02*
X2163D01*
X1947D02*
X2012D01*
X1740D02*
X1921D01*
X1595D02*
X1722D01*
X1410D02*
X1477D01*
X3094Y1567D02*
X3098D01*
X3069D02*
X3074D01*
X3040D02*
X3063D01*
X2866D02*
X3026D01*
X2729D02*
X2854D01*
X2634D02*
X2707D01*
X2543D02*
X2612D01*
X2441D02*
X2506D01*
X2340D02*
X2420D01*
X2205D02*
X2284D01*
X2080D02*
X2163D01*
X1947D02*
X2012D01*
X1740D02*
X1921D01*
X1595D02*
X1722D01*
X1410D02*
X1477D01*
X2866Y1568D02*
X3027D01*
X2729D02*
X2854D01*
X2634D02*
X2706D01*
X2543D02*
X2612D01*
X2441D02*
X2508D01*
X2339D02*
X2420D01*
X2204D02*
X2284D01*
X2080D02*
X2163D01*
X1947D02*
X2012D01*
X1742D02*
X1920D01*
X1595D02*
X1722D01*
X1410D02*
X1477D01*
X2866Y1569D02*
X3028D01*
X2729D02*
X2854D01*
X2633D02*
X2706D01*
X2543D02*
X2612D01*
X2442D02*
X2509D01*
X2338D02*
X2420D01*
X2204D02*
X2284D01*
X2080D02*
X2163D01*
X1947D02*
X2012D01*
X1742D02*
X1920D01*
X1595D02*
X1722D01*
X1410D02*
X1477D01*
X2866Y1570D02*
X3030D01*
X2729D02*
X2854D01*
X2633D02*
X2704D01*
X2543D02*
X2612D01*
X2442D02*
X2510D01*
X2337D02*
X2420D01*
X2204D02*
X2286D01*
X2079D02*
X2164D01*
X1947D02*
X2012D01*
X1742D02*
X1920D01*
X1595D02*
X1722D01*
X1410D02*
X1477D01*
X2866Y1572D02*
X3030D01*
X2729D02*
X2854D01*
X2632D02*
X2704D01*
X2543D02*
X2612D01*
X2442D02*
X2511D01*
X2337D02*
X2421D01*
X2202D02*
X2286D01*
X2079D02*
X2164D01*
X1947D02*
X2012D01*
X1742D02*
X1918D01*
X1595D02*
X1722D01*
X1410D02*
X1477D01*
X2866Y1573D02*
X3031D01*
X2729D02*
X2854D01*
X2632D02*
X2703D01*
X2543D02*
X2612D01*
X2444D02*
X2512D01*
X2336D02*
X2421D01*
X2202D02*
X2286D01*
X2079D02*
X2164D01*
X1947D02*
X2012D01*
X1743D02*
X1918D01*
X1595D02*
X1722D01*
X1410D02*
X1477D01*
X2866Y1574D02*
X3032D01*
X2729D02*
X2854D01*
X2631D02*
X2703D01*
X2543D02*
X2612D01*
X2444D02*
X2514D01*
X2334D02*
X2421D01*
X2202D02*
X2286D01*
X2079D02*
X2164D01*
X1947D02*
X2012D01*
X1743D02*
X1918D01*
X1595D02*
X1722D01*
X1410D02*
X1477D01*
X2866Y1575D02*
X3033D01*
X2729D02*
X2854D01*
X2631D02*
X2702D01*
X2543D02*
X2612D01*
X2444D02*
X2514D01*
X2333D02*
X2421D01*
X2201D02*
X2287D01*
X2078D02*
X2166D01*
X1947D02*
X2012D01*
X1743D02*
X1918D01*
X1595D02*
X1722D01*
X1410D02*
X1477D01*
X2866Y1576D02*
X3033D01*
X2729D02*
X2854D01*
X2630D02*
X2702D01*
X2543D02*
X2612D01*
X2444D02*
X2515D01*
X2332D02*
X2421D01*
X2201D02*
X2287D01*
X2078D02*
X2166D01*
X1947D02*
X2012D01*
X1744D02*
X1917D01*
X1595D02*
X1722D01*
X1410D02*
X1477D01*
X2866Y1578D02*
X3034D01*
X2729D02*
X2854D01*
X2630D02*
X2701D01*
X2543D02*
X2612D01*
X2445D02*
X2516D01*
X2332D02*
X2421D01*
X2201D02*
X2287D01*
X2078D02*
X2166D01*
X1947D02*
X2012D01*
X1744D02*
X1917D01*
X1595D02*
X1722D01*
X1410D02*
X1477D01*
X2866Y1579D02*
X3034D01*
X2729D02*
X2854D01*
X2628D02*
X2700D01*
X2543D02*
X2612D01*
X2445D02*
X2516D01*
X2331D02*
X2421D01*
X2201D02*
X2287D01*
X2078D02*
X2166D01*
X1947D02*
X2012D01*
X1744D02*
X1917D01*
X1595D02*
X1722D01*
X1410D02*
X1477D01*
X2866Y1580D02*
X3036D01*
X2729D02*
X2854D01*
X2628D02*
X2700D01*
X2543D02*
X2612D01*
X2445D02*
X2517D01*
X2330D02*
X2421D01*
X2200D02*
X2288D01*
X2076D02*
X2167D01*
X1947D02*
X2012D01*
X1745D02*
X1916D01*
X1595D02*
X1722D01*
X1410D02*
X1477D01*
X2866Y1581D02*
X3037D01*
X2729D02*
X2854D01*
X2627D02*
X2698D01*
X2543D02*
X2612D01*
X2445D02*
X2518D01*
X2330D02*
X2421D01*
X2200D02*
X2288D01*
X2076D02*
X2167D01*
X1947D02*
X2012D01*
X1745D02*
X1916D01*
X1595D02*
X1722D01*
X1410D02*
X1477D01*
X2866Y1582D02*
X3037D01*
X2729D02*
X2854D01*
X2627D02*
X2698D01*
X2543D02*
X2612D01*
X2446D02*
X2520D01*
X2328D02*
X2421D01*
X2200D02*
X2288D01*
X2076D02*
X2167D01*
X1947D02*
X2012D01*
X1745D02*
X1916D01*
X1595D02*
X1722D01*
X1410D02*
X1477D01*
X2866Y1584D02*
X3038D01*
X2729D02*
X2854D01*
X2626D02*
X2697D01*
X2543D02*
X2612D01*
X2446D02*
X2520D01*
X2327D02*
X2421D01*
X2199D02*
X2288D01*
X2076D02*
X2167D01*
X1947D02*
X2012D01*
X1745D02*
X1915D01*
X1595D02*
X1722D01*
X1410D02*
X1477D01*
X2866Y1585D02*
X3038D01*
X2729D02*
X2854D01*
X2626D02*
X2697D01*
X2543D02*
X2612D01*
X2446D02*
X2521D01*
X2375D02*
X2422D01*
X2327D02*
X2366D01*
X2199D02*
X2288D01*
X2075D02*
X2167D01*
X1947D02*
X2012D01*
X1746D02*
X1915D01*
X1595D02*
X1722D01*
X1410D02*
X1477D01*
X2866Y1586D02*
X3039D01*
X2729D02*
X2854D01*
X2625D02*
X2696D01*
X2543D02*
X2612D01*
X2446D02*
X2521D01*
X2378D02*
X2421D01*
X2326D02*
X2362D01*
X2199D02*
X2289D01*
X2075D02*
X2168D01*
X1947D02*
X2012D01*
X1746D02*
X1915D01*
X1595D02*
X1722D01*
X1410D02*
X1477D01*
X2866Y1587D02*
X3039D01*
X2729D02*
X2854D01*
X2625D02*
X2695D01*
X2543D02*
X2612D01*
X2446D02*
X2522D01*
X2380D02*
X2421D01*
X2325D02*
X2360D01*
X2199D02*
X2289D01*
X2075D02*
X2168D01*
X1947D02*
X2012D01*
X1746D02*
X1915D01*
X1595D02*
X1722D01*
X1410D02*
X1477D01*
X2866Y1588D02*
X3039D01*
X2729D02*
X2854D01*
X2624D02*
X2695D01*
X2543D02*
X2612D01*
X2447D02*
X2523D01*
X2382D02*
X2421D01*
X2325D02*
X2359D01*
X2198D02*
X2289D01*
X2075D02*
X2168D01*
X1947D02*
X2012D01*
X1748D02*
X1914D01*
X1595D02*
X1722D01*
X1410D02*
X1477D01*
X2866Y1590D02*
X3040D01*
X2729D02*
X2854D01*
X2624D02*
X2694D01*
X2543D02*
X2612D01*
X2447D02*
X2523D01*
X2384D02*
X2421D01*
X2324D02*
X2356D01*
X2198D02*
X2289D01*
X2075D02*
X2168D01*
X1947D02*
X2012D01*
X1748D02*
X1914D01*
X1595D02*
X1722D01*
X1410D02*
X1477D01*
X2866Y1591D02*
X3040D01*
X2729D02*
X2854D01*
X2622D02*
X2694D01*
X2543D02*
X2612D01*
X2447D02*
X2524D01*
X2386D02*
X2421D01*
X2324D02*
X2355D01*
X2198D02*
X2290D01*
X2074D02*
X2168D01*
X1947D02*
X2012D01*
X1748D02*
X1914D01*
X1595D02*
X1722D01*
X1410D02*
X1477D01*
X2866Y1592D02*
X3042D01*
X2729D02*
X2854D01*
X2622D02*
X2692D01*
X2543D02*
X2612D01*
X2447D02*
X2524D01*
X2387D02*
X2421D01*
X2322D02*
X2353D01*
X2198D02*
X2290D01*
X2074D02*
X2169D01*
X1947D02*
X2012D01*
X1749D02*
X1912D01*
X1595D02*
X1722D01*
X1410D02*
X1477D01*
X2866Y1593D02*
X3042D01*
X2729D02*
X2854D01*
X2621D02*
X2692D01*
X2543D02*
X2612D01*
X2447D02*
X2526D01*
X2390D02*
X2421D01*
X2322D02*
X2352D01*
X2198D02*
X2290D01*
X2074D02*
X2169D01*
X1947D02*
X2012D01*
X1749D02*
X1912D01*
X1595D02*
X1722D01*
X1410D02*
X1477D01*
X2866Y1594D02*
X3042D01*
X2729D02*
X2854D01*
X2621D02*
X2691D01*
X2543D02*
X2612D01*
X2447D02*
X2526D01*
X2391D02*
X2421D01*
X2321D02*
X2350D01*
X2196D02*
X2290D01*
X2074D02*
X2169D01*
X1947D02*
X2012D01*
X1749D02*
X1912D01*
X1595D02*
X1658D01*
X1410D02*
X1482D01*
X2866Y1596D02*
X3042D01*
X2729D02*
X2793D01*
X2620D02*
X2691D01*
X2543D02*
X2612D01*
X2447D02*
X2527D01*
X2392D02*
X2421D01*
X2321D02*
X2349D01*
X2196D02*
X2290D01*
X2073D02*
X2169D01*
X1947D02*
X2012D01*
X1749D02*
X1911D01*
X1595D02*
X1658D01*
X1410D02*
X1520D01*
X2952Y1597D02*
X3043D01*
X2866D02*
X2937D01*
X2729D02*
X2792D01*
X2620D02*
X2690D01*
X2543D02*
X2612D01*
X2446D02*
X2527D01*
X2393D02*
X2420D01*
X2320D02*
X2348D01*
X2196D02*
X2292D01*
X2073D02*
X2169D01*
X1947D02*
X2012D01*
X1750D02*
X1911D01*
X1595D02*
X1658D01*
X1410D02*
X1530D01*
X2956Y1598D02*
X3043D01*
X2866D02*
X2936D01*
X2729D02*
X2792D01*
X2619D02*
X2689D01*
X2543D02*
X2612D01*
X2446D02*
X2528D01*
X2394D02*
X2420D01*
X2320D02*
X2347D01*
X2196D02*
X2292D01*
X2073D02*
X2170D01*
X1947D02*
X2012D01*
X1750D02*
X1911D01*
X1595D02*
X1658D01*
X1410D02*
X1536D01*
X2958Y1599D02*
X3043D01*
X2866D02*
X2936D01*
X2729D02*
X2792D01*
X2619D02*
X2689D01*
X2543D02*
X2612D01*
X2446D02*
X2528D01*
X2396D02*
X2420D01*
X2319D02*
X2346D01*
X2195D02*
X2292D01*
X2073D02*
X2170D01*
X1947D02*
X2012D01*
X1750D02*
X1911D01*
X1595D02*
X1658D01*
X1410D02*
X1539D01*
X2961Y1600D02*
X3044D01*
X2866D02*
X2935D01*
X2729D02*
X2792D01*
X2618D02*
X2688D01*
X2543D02*
X2612D01*
X2446D02*
X2528D01*
X2397D02*
X2419D01*
X2319D02*
X2344D01*
X2195D02*
X2292D01*
X2073D02*
X2170D01*
X1947D02*
X2012D01*
X1751D02*
X1910D01*
X1595D02*
X1658D01*
X1410D02*
X1543D01*
X2963Y1602D02*
X3044D01*
X2866D02*
X2935D01*
X2729D02*
X2792D01*
X2618D02*
X2688D01*
X2543D02*
X2612D01*
X2446D02*
X2529D01*
X2398D02*
X2419D01*
X2319D02*
X2343D01*
X2195D02*
X2293D01*
X2072D02*
X2170D01*
X1947D02*
X2012D01*
X1751D02*
X1910D01*
X1595D02*
X1658D01*
X1410D02*
X1545D01*
X2964Y1603D02*
X3044D01*
X2866D02*
X2935D01*
X2729D02*
X2792D01*
X2616D02*
X2686D01*
X2543D02*
X2612D01*
X2445D02*
X2529D01*
X2399D02*
X2419D01*
X2318D02*
X2343D01*
X2195D02*
X2293D01*
X2072D02*
X2170D01*
X1947D02*
X2012D01*
X1751D02*
X1910D01*
X1595D02*
X1658D01*
X1410D02*
X1548D01*
X2966Y1604D02*
X3044D01*
X2866D02*
X2935D01*
X2729D02*
X2792D01*
X2616D02*
X2686D01*
X2543D02*
X2612D01*
X2445D02*
X2530D01*
X2400D02*
X2418D01*
X2318D02*
X2342D01*
X2194D02*
X2293D01*
X2072D02*
X2172D01*
X1947D02*
X2012D01*
X1751D02*
X1909D01*
X1595D02*
X1658D01*
X1410D02*
X1550D01*
X2968Y1605D02*
X3044D01*
X2866D02*
X2935D01*
X2729D02*
X2792D01*
X2615D02*
X2685D01*
X2543D02*
X2612D01*
X2445D02*
X2530D01*
X2402D02*
X2416D01*
X2316D02*
X2341D01*
X2194D02*
X2293D01*
X2072D02*
X2172D01*
X1947D02*
X2012D01*
X1752D02*
X1909D01*
X1595D02*
X1658D01*
X1410D02*
X1552D01*
X2969Y1606D02*
X3045D01*
X2866D02*
X2935D01*
X2729D02*
X2792D01*
X2615D02*
X2684D01*
X2543D02*
X2612D01*
X2444D02*
X2530D01*
X2403D02*
X2416D01*
X2316D02*
X2341D01*
X2194D02*
X2293D01*
X2072D02*
X2172D01*
X1947D02*
X2012D01*
X1752D02*
X1909D01*
X1595D02*
X1658D01*
X1410D02*
X1554D01*
X2970Y1608D02*
X3045D01*
X2866D02*
X2935D01*
X2729D02*
X2792D01*
X2614D02*
X2684D01*
X2543D02*
X2612D01*
X2444D02*
X2532D01*
X2404D02*
X2415D01*
X2367D02*
X2370D01*
X2316D02*
X2340D01*
X2194D02*
X2294D01*
X2070D02*
X2172D01*
X1947D02*
X2012D01*
X1752D02*
X1908D01*
X1595D02*
X1658D01*
X1410D02*
X1555D01*
X2972Y1609D02*
X3045D01*
X2866D02*
X2935D01*
X2729D02*
X2792D01*
X2543D02*
X2683D01*
X2444D02*
X2532D01*
X2405D02*
X2414D01*
X2364D02*
X2372D01*
X2315D02*
X2340D01*
X2193D02*
X2294D01*
X2070D02*
X2172D01*
X1947D02*
X2012D01*
X1754D02*
X1908D01*
X1595D02*
X1658D01*
X1410D02*
X1556D01*
X2972Y1610D02*
X3045D01*
X2866D02*
X2935D01*
X2729D02*
X2792D01*
X2543D02*
X2682D01*
X2442D02*
X2532D01*
X2408D02*
X2413D01*
X2362D02*
X2373D01*
X2315D02*
X2340D01*
X2193D02*
X2294D01*
X2070D02*
X2173D01*
X1947D02*
X2012D01*
X1842D02*
X1908D01*
X1754D02*
X1816D01*
X1595D02*
X1658D01*
X1410D02*
X1558D01*
X2973Y1611D02*
X3045D01*
X2866D02*
X2935D01*
X2729D02*
X2792D01*
X2543D02*
X2682D01*
X2442D02*
X2533D01*
X2409D02*
X2412D01*
X2361D02*
X2374D01*
X2315D02*
X2340D01*
X2193D02*
X2294D01*
X2070D02*
X2173D01*
X1947D02*
X2012D01*
X1842D02*
X1908D01*
X1754D02*
X1816D01*
X1595D02*
X1658D01*
X1410D02*
X1560D01*
X2974Y1612D02*
X3045D01*
X2866D02*
X2935D01*
X2729D02*
X2792D01*
X2543D02*
X2680D01*
X2441D02*
X2533D01*
X2360D02*
X2374D01*
X2315D02*
X2340D01*
X2193D02*
X2294D01*
X2070D02*
X2173D01*
X1947D02*
X2012D01*
X1841D02*
X1906D01*
X1754D02*
X1816D01*
X1595D02*
X1658D01*
X1410D02*
X1561D01*
X2975Y1614D02*
X3046D01*
X2866D02*
X2935D01*
X2729D02*
X2792D01*
X2543D02*
X2680D01*
X2441D02*
X2533D01*
X2358D02*
X2376D01*
X2314D02*
X2340D01*
X2192D02*
X2295D01*
X2069D02*
X2173D01*
X1947D02*
X2012D01*
X1841D02*
X1906D01*
X1755D02*
X1816D01*
X1595D02*
X1658D01*
X1410D02*
X1562D01*
X2975Y1615D02*
X3046D01*
X2866D02*
X2935D01*
X2729D02*
X2792D01*
X2543D02*
X2679D01*
X2441D02*
X2533D01*
X2356D02*
X2376D01*
X2314D02*
X2341D01*
X2192D02*
X2295D01*
X2069D02*
X2173D01*
X1947D02*
X2012D01*
X1841D02*
X1906D01*
X1755D02*
X1816D01*
X1595D02*
X1658D01*
X1410D02*
X1563D01*
X2976Y1616D02*
X3046D01*
X2866D02*
X2935D01*
X2729D02*
X2792D01*
X2543D02*
X2679D01*
X2440D02*
X2534D01*
X2355D02*
X2377D01*
X2314D02*
X2341D01*
X2192D02*
X2295D01*
X2069D02*
X2173D01*
X1947D02*
X2012D01*
X1841D02*
X1905D01*
X1755D02*
X1816D01*
X1595D02*
X1658D01*
X1410D02*
X1563D01*
X2976Y1617D02*
X3046D01*
X2866D02*
X2935D01*
X2729D02*
X2792D01*
X2543D02*
X2680D01*
X2440D02*
X2534D01*
X2352D02*
X2377D01*
X2313D02*
X2342D01*
X2192D02*
X2295D01*
X2069D02*
X2174D01*
X1947D02*
X2012D01*
X1841D02*
X1905D01*
X1756D02*
X1818D01*
X1595D02*
X1658D01*
X1410D02*
X1564D01*
X2976Y1618D02*
X3046D01*
X2866D02*
X2935D01*
X2729D02*
X2792D01*
X2543D02*
X2680D01*
X2439D02*
X2534D01*
X2350D02*
X2378D01*
X2313D02*
X2344D01*
X2192D02*
X2296D01*
X2069D02*
X2174D01*
X1947D02*
X2012D01*
X1840D02*
X1905D01*
X1756D02*
X1818D01*
X1595D02*
X1658D01*
X1410D02*
X1566D01*
X2978Y1620D02*
X3046D01*
X2866D02*
X2935D01*
X2729D02*
X2792D01*
X2543D02*
X2682D01*
X2439D02*
X2534D01*
X2313D02*
X2378D01*
X2190D02*
X2296D01*
X2068D02*
X2174D01*
X1947D02*
X2012D01*
X1840D02*
X1904D01*
X1756D02*
X1818D01*
X1595D02*
X1658D01*
X1410D02*
X1567D01*
X2978Y1621D02*
X3046D01*
X2866D02*
X2935D01*
X2729D02*
X2792D01*
X2543D02*
X2683D01*
X2438D02*
X2535D01*
X2313D02*
X2379D01*
X2190D02*
X2296D01*
X2068D02*
X2174D01*
X1947D02*
X2012D01*
X1840D02*
X1904D01*
X1756D02*
X1818D01*
X1595D02*
X1658D01*
X1410D02*
X1568D01*
X2978Y1622D02*
X3046D01*
X2866D02*
X2935D01*
X2729D02*
X2792D01*
X2543D02*
X2684D01*
X2438D02*
X2535D01*
X2313D02*
X2379D01*
X2190D02*
X2296D01*
X2068D02*
X2174D01*
X1946D02*
X2013D01*
X1840D02*
X1904D01*
X1757D02*
X1818D01*
X1595D02*
X1658D01*
X1410D02*
X1568D01*
X2979Y1623D02*
X3046D01*
X2866D02*
X2935D01*
X2729D02*
X2792D01*
X2543D02*
X2686D01*
X2436D02*
X2535D01*
X2312D02*
X2379D01*
X2189D02*
X2296D01*
X2068D02*
X2174D01*
X1946D02*
X2013D01*
X1839D02*
X1904D01*
X1757D02*
X1819D01*
X1595D02*
X1658D01*
X1410D02*
X1569D01*
X2979Y1624D02*
X3046D01*
X2866D02*
X2935D01*
X2729D02*
X2792D01*
X2543D02*
X2688D01*
X2436D02*
X2535D01*
X2312D02*
X2380D01*
X2189D02*
X2298D01*
X2068D02*
X2175D01*
X1944D02*
X2014D01*
X1839D02*
X1903D01*
X1757D02*
X1819D01*
X1595D02*
X1658D01*
X1410D02*
X1570D01*
X2979Y1626D02*
X3046D01*
X2866D02*
X2935D01*
X2729D02*
X2792D01*
X2543D02*
X2690D01*
X2435D02*
X2535D01*
X2312D02*
X2380D01*
X2189D02*
X2298D01*
X2067D02*
X2175D01*
X1944D02*
X2014D01*
X1839D02*
X1903D01*
X1758D02*
X1819D01*
X1595D02*
X1658D01*
X1410D02*
X1570D01*
X2979Y1627D02*
X3046D01*
X2866D02*
X2935D01*
X2729D02*
X2792D01*
X2543D02*
X2691D01*
X2435D02*
X2536D01*
X2312D02*
X2382D01*
X2189D02*
X2298D01*
X2067D02*
X2175D01*
X1943D02*
X2016D01*
X1839D02*
X1903D01*
X1758D02*
X1819D01*
X1595D02*
X1658D01*
X1410D02*
X1572D01*
X2979Y1628D02*
X3048D01*
X2866D02*
X2935D01*
X2729D02*
X2792D01*
X2543D02*
X2692D01*
X2435D02*
X2536D01*
X2312D02*
X2382D01*
X2188D02*
X2298D01*
X2067D02*
X2175D01*
X1943D02*
X2016D01*
X1839D02*
X1902D01*
X1758D02*
X1819D01*
X1595D02*
X1658D01*
X1410D02*
X1572D01*
X2979Y1629D02*
X3048D01*
X2866D02*
X2935D01*
X2729D02*
X2792D01*
X2543D02*
X2694D01*
X2435D02*
X2536D01*
X2312D02*
X2382D01*
X2188D02*
X2298D01*
X2067D02*
X2175D01*
X1942D02*
X2017D01*
X1838D02*
X1902D01*
X1758D02*
X1820D01*
X1595D02*
X1658D01*
X1410D02*
X1573D01*
X2979Y1630D02*
X3048D01*
X2866D02*
X2935D01*
X2729D02*
X2792D01*
X2543D02*
X2695D01*
X2434D02*
X2536D01*
X2312D02*
X2383D01*
X2188D02*
X2299D01*
X2128D02*
X2175D01*
X2067D02*
X2126D01*
X1942D02*
X2017D01*
X1838D02*
X1902D01*
X1760D02*
X1820D01*
X1595D02*
X1658D01*
X1410D02*
X1573D01*
X2980Y1632D02*
X3048D01*
X2866D02*
X2935D01*
X2729D02*
X2792D01*
X2543D02*
X2696D01*
X2434D02*
X2536D01*
X2310D02*
X2383D01*
X2240D02*
X2299D01*
X2188D02*
X2238D01*
X2128D02*
X2176D01*
X2066D02*
X2125D01*
X1941D02*
X2018D01*
X1838D02*
X1900D01*
X1760D02*
X1820D01*
X1595D02*
X1658D01*
X1410D02*
X1574D01*
X2980Y1633D02*
X3048D01*
X2866D02*
X2935D01*
X2729D02*
X2792D01*
X2543D02*
X2697D01*
X2434D02*
X2536D01*
X2310D02*
X2384D01*
X2240D02*
X2299D01*
X2187D02*
X2238D01*
X2128D02*
X2176D01*
X2066D02*
X2125D01*
X1941D02*
X2018D01*
X1838D02*
X1900D01*
X1760D02*
X1820D01*
X1595D02*
X1658D01*
X1410D02*
X1574D01*
X2980Y1634D02*
X3048D01*
X2866D02*
X2935D01*
X2729D02*
X2792D01*
X2543D02*
X2698D01*
X2434D02*
X2536D01*
X2403D02*
X2403D01*
X2310D02*
X2384D01*
X2240D02*
X2299D01*
X2187D02*
X2236D01*
X2128D02*
X2176D01*
X2066D02*
X2125D01*
X1940D02*
X2019D01*
X1838D02*
X1900D01*
X1761D02*
X1820D01*
X1595D02*
X1658D01*
X1410D02*
X1575D01*
X2980Y1635D02*
X3048D01*
X2866D02*
X2935D01*
X2729D02*
X2792D01*
X2614D02*
X2700D01*
X2543D02*
X2612D01*
X2434D02*
X2536D01*
X2397D02*
X2409D01*
X2310D02*
X2385D01*
X2240D02*
X2299D01*
X2187D02*
X2236D01*
X2128D02*
X2176D01*
X2066D02*
X2125D01*
X1940D02*
X2019D01*
X1836D02*
X1900D01*
X1761D02*
X1821D01*
X1595D02*
X1658D01*
X1410D02*
X1575D01*
X2980Y1636D02*
X3048D01*
X2866D02*
X2935D01*
X2729D02*
X2792D01*
X2615D02*
X2700D01*
X2543D02*
X2612D01*
X2434D02*
X2536D01*
X2408D02*
X2412D01*
X2393D02*
X2402D01*
X2310D02*
X2386D01*
X2240D02*
X2300D01*
X2187D02*
X2236D01*
X2129D02*
X2176D01*
X2064D02*
X2125D01*
X1938D02*
X2020D01*
X1836D02*
X1899D01*
X1761D02*
X1821D01*
X1595D02*
X1658D01*
X1410D02*
X1575D01*
X2980Y1638D02*
X3048D01*
X2866D02*
X2935D01*
X2729D02*
X2792D01*
X2615D02*
X2701D01*
X2543D02*
X2612D01*
X2434D02*
X2536D01*
X2410D02*
X2413D01*
X2391D02*
X2397D01*
X2310D02*
X2386D01*
X2241D02*
X2300D01*
X2187D02*
X2235D01*
X2129D02*
X2178D01*
X2064D02*
X2124D01*
X1938D02*
X2020D01*
X1836D02*
X1899D01*
X1761D02*
X1821D01*
X1595D02*
X1658D01*
X1410D02*
X1576D01*
X2980Y1639D02*
X3048D01*
X2866D02*
X2935D01*
X2729D02*
X2792D01*
X2615D02*
X2702D01*
X2543D02*
X2612D01*
X2435D02*
X2536D01*
X2411D02*
X2413D01*
X2310D02*
X2395D01*
X2241D02*
X2300D01*
X2186D02*
X2235D01*
X2129D02*
X2178D01*
X2064D02*
X2124D01*
X1937D02*
X2022D01*
X1836D02*
X1899D01*
X1762D02*
X1821D01*
X1595D02*
X1658D01*
X1410D02*
X1576D01*
X2980Y1640D02*
X3048D01*
X2866D02*
X2935D01*
X2729D02*
X2792D01*
X2616D02*
X2702D01*
X2543D02*
X2612D01*
X2435D02*
X2538D01*
X2412D02*
X2414D01*
X2310D02*
X2392D01*
X2241D02*
X2300D01*
X2186D02*
X2235D01*
X2129D02*
X2178D01*
X2064D02*
X2124D01*
X1936D02*
X2023D01*
X1836D02*
X1898D01*
X1762D02*
X1821D01*
X1595D02*
X1658D01*
X1410D02*
X1576D01*
X2979Y1641D02*
X3048D01*
X2866D02*
X2935D01*
X2729D02*
X2792D01*
X2616D02*
X2703D01*
X2543D02*
X2612D01*
X2435D02*
X2538D01*
X2412D02*
X2414D01*
X2310D02*
X2390D01*
X2241D02*
X2300D01*
X2186D02*
X2235D01*
X2129D02*
X2178D01*
X2063D02*
X2124D01*
X1936D02*
X2023D01*
X1835D02*
X1898D01*
X1762D02*
X1822D01*
X1595D02*
X1658D01*
X1410D02*
X1576D01*
X2979Y1642D02*
X3048D01*
X2866D02*
X2935D01*
X2729D02*
X2792D01*
X2618D02*
X2703D01*
X2543D02*
X2612D01*
X2435D02*
X2538D01*
X2412D02*
X2414D01*
X2310D02*
X2388D01*
X2241D02*
X2301D01*
X2186D02*
X2235D01*
X2130D02*
X2178D01*
X2063D02*
X2124D01*
X1935D02*
X2024D01*
X1835D02*
X1897D01*
X1763D02*
X1822D01*
X1595D02*
X1658D01*
X1410D02*
X1578D01*
X2979Y1644D02*
X3048D01*
X2866D02*
X2935D01*
X2729D02*
X2792D01*
X2619D02*
X2704D01*
X2543D02*
X2612D01*
X2436D02*
X2538D01*
X2414D02*
X2414D01*
X2310D02*
X2386D01*
X2241D02*
X2301D01*
X2186D02*
X2234D01*
X2130D02*
X2178D01*
X2063D02*
X2122D01*
X1935D02*
X2024D01*
X1835D02*
X1897D01*
X1763D02*
X1822D01*
X1595D02*
X1658D01*
X1410D02*
X1578D01*
X2979Y1645D02*
X3048D01*
X2866D02*
X2935D01*
X2729D02*
X2792D01*
X2619D02*
X2704D01*
X2543D02*
X2612D01*
X2436D02*
X2538D01*
X2414D02*
X2414D01*
X2310D02*
X2384D01*
X2242D02*
X2301D01*
X2184D02*
X2234D01*
X2130D02*
X2179D01*
X2063D02*
X2122D01*
X1934D02*
X2025D01*
X1835D02*
X1897D01*
X1763D02*
X1822D01*
X1595D02*
X1658D01*
X1502D02*
X1578D01*
X1410D02*
X1488D01*
X2979Y1646D02*
X3048D01*
X2866D02*
X2935D01*
X2729D02*
X2792D01*
X2620D02*
X2706D01*
X2543D02*
X2612D01*
X2436D02*
X2538D01*
X2412D02*
X2414D01*
X2310D02*
X2383D01*
X2242D02*
X2301D01*
X2184D02*
X2234D01*
X2130D02*
X2179D01*
X2062D02*
X2122D01*
X1934D02*
X2025D01*
X1834D02*
X1897D01*
X1763D02*
X1822D01*
X1595D02*
X1658D01*
X1508D02*
X1578D01*
X1410D02*
X1483D01*
X2979Y1647D02*
X3048D01*
X2866D02*
X2935D01*
X2729D02*
X2792D01*
X2621D02*
X2706D01*
X2543D02*
X2612D01*
X2438D02*
X2538D01*
X2412D02*
X2414D01*
X2310D02*
X2382D01*
X2242D02*
X2301D01*
X2184D02*
X2233D01*
X2132D02*
X2179D01*
X2062D02*
X2122D01*
X1932D02*
X2026D01*
X1834D02*
X1896D01*
X1764D02*
X1824D01*
X1595D02*
X1658D01*
X1510D02*
X1579D01*
X1410D02*
X1480D01*
X2979Y1648D02*
X3048D01*
X2866D02*
X2935D01*
X2729D02*
X2792D01*
X2622D02*
X2707D01*
X2543D02*
X2612D01*
X2438D02*
X2538D01*
X2411D02*
X2413D01*
X2310D02*
X2379D01*
X2242D02*
X2302D01*
X2184D02*
X2233D01*
X2132D02*
X2179D01*
X2062D02*
X2122D01*
X1932D02*
X2026D01*
X1834D02*
X1896D01*
X1764D02*
X1824D01*
X1595D02*
X1658D01*
X1512D02*
X1579D01*
X1410D02*
X1478D01*
X2979Y1650D02*
X3048D01*
X2866D02*
X2935D01*
X2729D02*
X2792D01*
X2624D02*
X2707D01*
X2543D02*
X2612D01*
X2464D02*
X2536D01*
X2439D02*
X2457D01*
X2411D02*
X2413D01*
X2310D02*
X2378D01*
X2242D02*
X2302D01*
X2183D02*
X2233D01*
X2132D02*
X2179D01*
X2062D02*
X2121D01*
X1931D02*
X2028D01*
X1834D02*
X1896D01*
X1764D02*
X1824D01*
X1595D02*
X1658D01*
X1514D02*
X1579D01*
X1410D02*
X1478D01*
X2978Y1651D02*
X3046D01*
X2866D02*
X2935D01*
X2729D02*
X2792D01*
X2626D02*
X2708D01*
X2543D02*
X2612D01*
X2466D02*
X2536D01*
X2439D02*
X2455D01*
X2410D02*
X2412D01*
X2310D02*
X2377D01*
X2242D02*
X2302D01*
X2183D02*
X2233D01*
X2132D02*
X2179D01*
X2061D02*
X2121D01*
X1931D02*
X2028D01*
X1834D02*
X1894D01*
X1766D02*
X1824D01*
X1595D02*
X1658D01*
X1515D02*
X1579D01*
X1410D02*
X1477D01*
X2978Y1652D02*
X3046D01*
X2866D02*
X2935D01*
X2729D02*
X2792D01*
X2627D02*
X2708D01*
X2543D02*
X2612D01*
X2469D02*
X2536D01*
X2440D02*
X2452D01*
X2409D02*
X2410D01*
X2310D02*
X2376D01*
X2243D02*
X2302D01*
X2183D02*
X2232D01*
X2132D02*
X2180D01*
X2061D02*
X2121D01*
X1930D02*
X2029D01*
X1833D02*
X1894D01*
X1766D02*
X1824D01*
X1595D02*
X1658D01*
X1516D02*
X1579D01*
X1410D02*
X1477D01*
X2978Y1653D02*
X3046D01*
X2866D02*
X2935D01*
X2729D02*
X2792D01*
X2630D02*
X2708D01*
X2543D02*
X2612D01*
X2470D02*
X2536D01*
X2440D02*
X2451D01*
X2409D02*
X2409D01*
X2310D02*
X2376D01*
X2243D02*
X2302D01*
X2183D02*
X2232D01*
X2133D02*
X2180D01*
X2061D02*
X2121D01*
X1930D02*
X2029D01*
X1833D02*
X1894D01*
X1766D02*
X1825D01*
X1595D02*
X1658D01*
X1516D02*
X1579D01*
X1410D02*
X1477D01*
X2978Y1654D02*
X3046D01*
X2866D02*
X2935D01*
X2729D02*
X2792D01*
X2632D02*
X2709D01*
X2543D02*
X2612D01*
X2471D02*
X2536D01*
X2441D02*
X2449D01*
X2408D02*
X2409D01*
X2310D02*
X2374D01*
X2243D02*
X2304D01*
X2182D02*
X2232D01*
X2133D02*
X2180D01*
X2061D02*
X2121D01*
X1929D02*
X2030D01*
X1833D02*
X1893D01*
X1766D02*
X1825D01*
X1595D02*
X1658D01*
X1517D02*
X1579D01*
X1410D02*
X1477D01*
X2976Y1656D02*
X3046D01*
X2866D02*
X2935D01*
X2729D02*
X2792D01*
X2633D02*
X2709D01*
X2543D02*
X2612D01*
X2472D02*
X2536D01*
X2441D02*
X2448D01*
X2406D02*
X2408D01*
X2310D02*
X2373D01*
X2243D02*
X2304D01*
X2182D02*
X2232D01*
X2133D02*
X2180D01*
X2061D02*
X2120D01*
X1929D02*
X2030D01*
X1833D02*
X1893D01*
X1767D02*
X1825D01*
X1595D02*
X1658D01*
X1517D02*
X1580D01*
X1410D02*
X1477D01*
X2976Y1657D02*
X3046D01*
X2866D02*
X2935D01*
X2729D02*
X2792D01*
X2636D02*
X2709D01*
X2543D02*
X2612D01*
X2474D02*
X2536D01*
X2442D02*
X2445D01*
X2405D02*
X2406D01*
X2310D02*
X2373D01*
X2243D02*
X2304D01*
X2133D02*
X2230D01*
X2060D02*
X2120D01*
X1928D02*
X2031D01*
X1833D02*
X1893D01*
X1767D02*
X1825D01*
X1595D02*
X1658D01*
X1518D02*
X1580D01*
X1410D02*
X1477D01*
X2975Y1658D02*
X3046D01*
X2866D02*
X2935D01*
X2729D02*
X2792D01*
X2638D02*
X2709D01*
X2543D02*
X2612D01*
X2476D02*
X2536D01*
X2442D02*
X2444D01*
X2403D02*
X2404D01*
X2312D02*
X2373D01*
X2243D02*
X2304D01*
X2133D02*
X2230D01*
X2060D02*
X2120D01*
X1928D02*
X2031D01*
X1832D02*
X1893D01*
X1767D02*
X1826D01*
X1595D02*
X1658D01*
X1518D02*
X1580D01*
X1410D02*
X1477D01*
X2975Y1659D02*
X3046D01*
X2866D02*
X2935D01*
X2729D02*
X2792D01*
X2639D02*
X2710D01*
X2543D02*
X2612D01*
X2477D02*
X2536D01*
X2402D02*
X2403D01*
X2312D02*
X2372D01*
X2243D02*
X2304D01*
X2134D02*
X2230D01*
X2060D02*
X2120D01*
X1926D02*
X2032D01*
X1832D02*
X1892D01*
X1768D02*
X1826D01*
X1595D02*
X1658D01*
X1520D02*
X1580D01*
X1410D02*
X1477D01*
X2974Y1660D02*
X3046D01*
X2866D02*
X2935D01*
X2729D02*
X2792D01*
X2640D02*
X2710D01*
X2543D02*
X2612D01*
X2478D02*
X2536D01*
X2400D02*
X2402D01*
X2312D02*
X2372D01*
X2244D02*
X2305D01*
X2134D02*
X2230D01*
X2060D02*
X2120D01*
X1925D02*
X2032D01*
X1832D02*
X1892D01*
X1768D02*
X1826D01*
X1595D02*
X1658D01*
X1520D02*
X1580D01*
X1410D02*
X1477D01*
X2974Y1662D02*
X3045D01*
X2866D02*
X2935D01*
X2729D02*
X2792D01*
X2642D02*
X2710D01*
X2543D02*
X2612D01*
X2480D02*
X2536D01*
X2399D02*
X2400D01*
X2312D02*
X2372D01*
X2244D02*
X2305D01*
X2134D02*
X2229D01*
X2058D02*
X2119D01*
X1925D02*
X2034D01*
X1832D02*
X1892D01*
X1768D02*
X1826D01*
X1595D02*
X1658D01*
X1520D02*
X1580D01*
X1410D02*
X1477D01*
X2973Y1663D02*
X3045D01*
X2866D02*
X2935D01*
X2729D02*
X2792D01*
X2643D02*
X2710D01*
X2543D02*
X2612D01*
X2482D02*
X2535D01*
X2398D02*
X2398D01*
X2312D02*
X2372D01*
X2244D02*
X2305D01*
X2134D02*
X2229D01*
X2058D02*
X2119D01*
X1924D02*
X2034D01*
X1832D02*
X1892D01*
X1769D02*
X1826D01*
X1595D02*
X1658D01*
X1520D02*
X1580D01*
X1410D02*
X1477D01*
X2973Y1664D02*
X3045D01*
X2866D02*
X2935D01*
X2729D02*
X2792D01*
X2643D02*
X2712D01*
X2543D02*
X2612D01*
X2483D02*
X2535D01*
X2396D02*
X2396D01*
X2312D02*
X2372D01*
X2244D02*
X2305D01*
X2135D02*
X2229D01*
X2058D02*
X2119D01*
X1924D02*
X2035D01*
X1830D02*
X1891D01*
X1769D02*
X1827D01*
X1595D02*
X1658D01*
X1520D02*
X1580D01*
X1410D02*
X1477D01*
X2972Y1665D02*
X3045D01*
X2866D02*
X2935D01*
X2729D02*
X2792D01*
X2644D02*
X2712D01*
X2543D02*
X2612D01*
X2484D02*
X2535D01*
X2394D02*
X2395D01*
X2312D02*
X2372D01*
X2244D02*
X2305D01*
X2135D02*
X2229D01*
X2058D02*
X2119D01*
X1923D02*
X2035D01*
X1830D02*
X1891D01*
X1769D02*
X1827D01*
X1595D02*
X1658D01*
X1520D02*
X1580D01*
X1410D02*
X1477D01*
X2972Y1666D02*
X3045D01*
X2866D02*
X2935D01*
X2729D02*
X2792D01*
X2644D02*
X2712D01*
X2543D02*
X2612D01*
X2487D02*
X2535D01*
X2313D02*
X2372D01*
X2244D02*
X2306D01*
X2135D02*
X2228D01*
X2057D02*
X2119D01*
X1923D02*
X2036D01*
X1830D02*
X1891D01*
X1769D02*
X1827D01*
X1595D02*
X1658D01*
X1521D02*
X1580D01*
X1410D02*
X1477D01*
X2970Y1668D02*
X3044D01*
X2866D02*
X2935D01*
X2729D02*
X2792D01*
X2644D02*
X2712D01*
X2543D02*
X2612D01*
X2488D02*
X2535D01*
X2313D02*
X2373D01*
X2246D02*
X2306D01*
X2135D02*
X2228D01*
X2057D02*
X2119D01*
X1922D02*
X2036D01*
X1830D02*
X1890D01*
X1770D02*
X1827D01*
X1595D02*
X1658D01*
X1521D02*
X1580D01*
X1410D02*
X1477D01*
X2969Y1669D02*
X3044D01*
X2866D02*
X2935D01*
X2729D02*
X2792D01*
X2644D02*
X2712D01*
X2543D02*
X2612D01*
X2489D02*
X2534D01*
X2313D02*
X2373D01*
X2246D02*
X2306D01*
X2135D02*
X2228D01*
X2057D02*
X2118D01*
X1922D02*
X2037D01*
X1829D02*
X1890D01*
X1770D02*
X1827D01*
X1595D02*
X1658D01*
X1520D02*
X1580D01*
X1410D02*
X1477D01*
X2968Y1670D02*
X3044D01*
X2866D02*
X2935D01*
X2729D02*
X2792D01*
X2644D02*
X2713D01*
X2543D02*
X2613D01*
X2490D02*
X2534D01*
X2313D02*
X2373D01*
X2246D02*
X2306D01*
X2136D02*
X2227D01*
X2057D02*
X2118D01*
X1920D02*
X2037D01*
X1770D02*
X1890D01*
X1595D02*
X1658D01*
X1520D02*
X1580D01*
X1410D02*
X1477D01*
X2967Y1671D02*
X3044D01*
X2866D02*
X2935D01*
X2729D02*
X2792D01*
X2644D02*
X2713D01*
X2543D02*
X2613D01*
X2492D02*
X2534D01*
X2313D02*
X2374D01*
X2246D02*
X2306D01*
X2136D02*
X2227D01*
X2056D02*
X2118D01*
X1920D02*
X2038D01*
X1772D02*
X1890D01*
X1595D02*
X1658D01*
X1520D02*
X1580D01*
X1410D02*
X1477D01*
X2966Y1672D02*
X3043D01*
X2866D02*
X2935D01*
X2729D02*
X2792D01*
X2644D02*
X2713D01*
X2543D02*
X2613D01*
X2493D02*
X2534D01*
X2314D02*
X2374D01*
X2246D02*
X2307D01*
X2136D02*
X2227D01*
X2056D02*
X2118D01*
X1919D02*
X2038D01*
X1772D02*
X1888D01*
X1595D02*
X1658D01*
X1520D02*
X1580D01*
X1410D02*
X1477D01*
X2964Y1674D02*
X3043D01*
X2866D02*
X2935D01*
X2729D02*
X2792D01*
X2644D02*
X2713D01*
X2543D02*
X2613D01*
X2493D02*
X2533D01*
X2460D02*
X2461D01*
X2314D02*
X2374D01*
X2246D02*
X2307D01*
X2136D02*
X2227D01*
X2056D02*
X2118D01*
X1919D02*
X2040D01*
X1772D02*
X1888D01*
X1595D02*
X1658D01*
X1520D02*
X1580D01*
X1410D02*
X1477D01*
X2962Y1675D02*
X3043D01*
X2866D02*
X2935D01*
X2729D02*
X2792D01*
X2644D02*
X2713D01*
X2543D02*
X2613D01*
X2494D02*
X2533D01*
X2459D02*
X2463D01*
X2314D02*
X2376D01*
X2247D02*
X2307D01*
X2136D02*
X2226D01*
X2056D02*
X2116D01*
X1918D02*
X2040D01*
X1773D02*
X1888D01*
X1595D02*
X1658D01*
X1518D02*
X1580D01*
X1410D02*
X1477D01*
X2960Y1676D02*
X3042D01*
X2866D02*
X2936D01*
X2729D02*
X2792D01*
X2644D02*
X2713D01*
X2543D02*
X2613D01*
X2495D02*
X2533D01*
X2458D02*
X2464D01*
X2315D02*
X2377D01*
X2247D02*
X2307D01*
X2138D02*
X2226D01*
X2055D02*
X2116D01*
X1917D02*
X2041D01*
X1773D02*
X1888D01*
X1595D02*
X1658D01*
X1518D02*
X1580D01*
X1410D02*
X1477D01*
X2957Y1677D02*
X3042D01*
X2866D02*
X2936D01*
X2729D02*
X2792D01*
X2644D02*
X2713D01*
X2543D02*
X2613D01*
X2495D02*
X2533D01*
X2457D02*
X2467D01*
X2315D02*
X2377D01*
X2247D02*
X2307D01*
X2138D02*
X2226D01*
X2055D02*
X2116D01*
X1917D02*
X2042D01*
X1773D02*
X1887D01*
X1595D02*
X1658D01*
X1517D02*
X1580D01*
X1410D02*
X1477D01*
X2955Y1678D02*
X3042D01*
X2866D02*
X2937D01*
X2729D02*
X2792D01*
X2643D02*
X2713D01*
X2543D02*
X2613D01*
X2495D02*
X2532D01*
X2457D02*
X2468D01*
X2315D02*
X2378D01*
X2247D02*
X2308D01*
X2138D02*
X2226D01*
X2055D02*
X2116D01*
X1916D02*
X2042D01*
X1773D02*
X1887D01*
X1595D02*
X1658D01*
X1517D02*
X1580D01*
X1410D02*
X1477D01*
X2950Y1680D02*
X3040D01*
X2866D02*
X2941D01*
X2729D02*
X2792D01*
X2643D02*
X2713D01*
X2543D02*
X2613D01*
X2496D02*
X2532D01*
X2457D02*
X2469D01*
X2315D02*
X2379D01*
X2247D02*
X2308D01*
X2138D02*
X2224D01*
X2056D02*
X2116D01*
X1916D02*
X2043D01*
X1774D02*
X1887D01*
X1595D02*
X1658D01*
X1516D02*
X1580D01*
X1410D02*
X1477D01*
X2866Y1681D02*
X3040D01*
X2729D02*
X2792D01*
X2642D02*
X2713D01*
X2543D02*
X2613D01*
X2496D02*
X2532D01*
X2456D02*
X2472D01*
X2316D02*
X2380D01*
X2247D02*
X2308D01*
X2139D02*
X2224D01*
X2056D02*
X2115D01*
X1914D02*
X2043D01*
X1774D02*
X1887D01*
X1595D02*
X1658D01*
X1515D02*
X1580D01*
X1410D02*
X1477D01*
X2866Y1682D02*
X3040D01*
X2729D02*
X2792D01*
X2642D02*
X2713D01*
X2543D02*
X2613D01*
X2496D02*
X2530D01*
X2456D02*
X2473D01*
X2316D02*
X2380D01*
X2247D02*
X2308D01*
X2139D02*
X2224D01*
X2057D02*
X2115D01*
X1914D02*
X2044D01*
X1774D02*
X1886D01*
X1595D02*
X1658D01*
X1515D02*
X1579D01*
X1410D02*
X1477D01*
X2866Y1683D02*
X3039D01*
X2729D02*
X2792D01*
X2640D02*
X2713D01*
X2543D02*
X2613D01*
X2496D02*
X2530D01*
X2456D02*
X2475D01*
X2316D02*
X2383D01*
X2248D02*
X2308D01*
X2139D02*
X2224D01*
X2057D02*
X2115D01*
X1913D02*
X2044D01*
X1775D02*
X1886D01*
X1595D02*
X1658D01*
X1514D02*
X1579D01*
X1410D02*
X1477D01*
X2866Y1684D02*
X3039D01*
X2729D02*
X2792D01*
X2639D02*
X2713D01*
X2543D02*
X2613D01*
X2495D02*
X2530D01*
X2456D02*
X2478D01*
X2318D02*
X2384D01*
X2248D02*
X2310D01*
X2139D02*
X2223D01*
X2058D02*
X2115D01*
X1913D02*
X2046D01*
X1775D02*
X1886D01*
X1595D02*
X1658D01*
X1512D02*
X1579D01*
X1410D02*
X1477D01*
X2866Y1686D02*
X3038D01*
X2729D02*
X2792D01*
X2638D02*
X2713D01*
X2543D02*
X2613D01*
X2495D02*
X2529D01*
X2454D02*
X2480D01*
X2318D02*
X2385D01*
X2248D02*
X2310D01*
X2139D02*
X2223D01*
X2058D02*
X2115D01*
X1912D02*
X2046D01*
X1775D02*
X1886D01*
X1595D02*
X1658D01*
X1510D02*
X1579D01*
X1410D02*
X1478D01*
X2866Y1687D02*
X3038D01*
X2729D02*
X2792D01*
X2637D02*
X2713D01*
X2543D02*
X2613D01*
X2493D02*
X2529D01*
X2454D02*
X2482D01*
X2319D02*
X2386D01*
X2248D02*
X2310D01*
X2140D02*
X2223D01*
X2060D02*
X2115D01*
X1911D02*
X2047D01*
X1776D02*
X1885D01*
X1595D02*
X1658D01*
X1506D02*
X1579D01*
X1410D02*
X1480D01*
X2866Y1688D02*
X3037D01*
X2729D02*
X2792D01*
X2634D02*
X2713D01*
X2543D02*
X2613D01*
X2453D02*
X2528D01*
X2319D02*
X2388D01*
X2248D02*
X2310D01*
X2140D02*
X2223D01*
X2060D02*
X2114D01*
X1911D02*
X2047D01*
X1776D02*
X1885D01*
X1595D02*
X1658D01*
X1502D02*
X1579D01*
X1410D02*
X1484D01*
X2866Y1689D02*
X3037D01*
X2729D02*
X2792D01*
X2632D02*
X2713D01*
X2543D02*
X2613D01*
X2453D02*
X2528D01*
X2319D02*
X2390D01*
X2248D02*
X2310D01*
X2140D02*
X2222D01*
X2061D02*
X2114D01*
X1910D02*
X2048D01*
X1776D02*
X1885D01*
X1595D02*
X1658D01*
X1410D02*
X1579D01*
X2866Y1690D02*
X3036D01*
X2729D02*
X2792D01*
X2627D02*
X2713D01*
X2543D02*
X2616D01*
X2452D02*
X2528D01*
X2320D02*
X2391D01*
X2249D02*
X2310D01*
X2140D02*
X2222D01*
X2062D02*
X2114D01*
X1910D02*
X2048D01*
X1776D02*
X1885D01*
X1595D02*
X1658D01*
X1410D02*
X1579D01*
X2866Y1692D02*
X3036D01*
X2729D02*
X2792D01*
X2543D02*
X2713D01*
X2451D02*
X2527D01*
X2427D02*
X2431D01*
X2320D02*
X2394D01*
X2249D02*
X2311D01*
X2140D02*
X2222D01*
X2062D02*
X2114D01*
X1980D02*
X2049D01*
X1908D02*
X1978D01*
X1778D02*
X1884D01*
X1595D02*
X1658D01*
X1410D02*
X1579D01*
X2866Y1693D02*
X3034D01*
X2729D02*
X2792D01*
X2543D02*
X2713D01*
X2450D02*
X2527D01*
X2421D02*
X2437D01*
X2321D02*
X2395D01*
X2249D02*
X2311D01*
X2141D02*
X2222D01*
X2063D02*
X2114D01*
X1980D02*
X2049D01*
X1908D02*
X1977D01*
X1778D02*
X1884D01*
X1595D02*
X1658D01*
X1410D02*
X1578D01*
X2866Y1694D02*
X3034D01*
X2729D02*
X2792D01*
X2543D02*
X2712D01*
X2448D02*
X2526D01*
X2420D02*
X2439D01*
X2321D02*
X2397D01*
X2249D02*
X2311D01*
X2141D02*
X2221D01*
X2063D02*
X2113D01*
X1982D02*
X2050D01*
X1907D02*
X1977D01*
X1778D02*
X1884D01*
X1595D02*
X1658D01*
X1410D02*
X1578D01*
X2866Y1695D02*
X3033D01*
X2729D02*
X2792D01*
X2543D02*
X2712D01*
X2417D02*
X2526D01*
X2322D02*
X2400D01*
X2249D02*
X2311D01*
X2141D02*
X2221D01*
X2064D02*
X2113D01*
X1982D02*
X2050D01*
X1907D02*
X1977D01*
X1779D02*
X1884D01*
X1595D02*
X1658D01*
X1410D02*
X1578D01*
X2866Y1696D02*
X3033D01*
X2729D02*
X2792D01*
X2543D02*
X2712D01*
X2416D02*
X2524D01*
X2322D02*
X2401D01*
X2249D02*
X2311D01*
X2141D02*
X2221D01*
X2064D02*
X2113D01*
X1983D02*
X2052D01*
X1906D02*
X1976D01*
X1779D02*
X1882D01*
X1595D02*
X1658D01*
X1410D02*
X1578D01*
X2866Y1698D02*
X3032D01*
X2729D02*
X2792D01*
X2543D02*
X2712D01*
X2434D02*
X2524D01*
X2415D02*
X2422D01*
X2324D02*
X2403D01*
X2250D02*
X2312D01*
X2142D02*
X2220D01*
X2066D02*
X2113D01*
X1983D02*
X2052D01*
X1906D02*
X1976D01*
X1779D02*
X1882D01*
X1595D02*
X1658D01*
X1410D02*
X1578D01*
X2866Y1699D02*
X3031D01*
X2729D02*
X2792D01*
X2543D02*
X2712D01*
X2438D02*
X2523D01*
X2411D02*
X2419D01*
X2324D02*
X2406D01*
X2250D02*
X2312D01*
X2142D02*
X2220D01*
X2066D02*
X2113D01*
X1984D02*
X2053D01*
X1905D02*
X1975D01*
X1780D02*
X1882D01*
X1595D02*
X1658D01*
X1410D02*
X1576D01*
X2866Y1700D02*
X3031D01*
X2729D02*
X2792D01*
X2543D02*
X2710D01*
X2440D02*
X2523D01*
X2325D02*
X2416D01*
X2250D02*
X2312D01*
X2142D02*
X2220D01*
X2067D02*
X2112D01*
X1984D02*
X2053D01*
X1904D02*
X1975D01*
X1780D02*
X1881D01*
X1595D02*
X1658D01*
X1410D02*
X1576D01*
X2866Y1701D02*
X3030D01*
X2729D02*
X2792D01*
X2543D02*
X2710D01*
X2441D02*
X2522D01*
X2325D02*
X2414D01*
X2250D02*
X2312D01*
X2142D02*
X2220D01*
X2067D02*
X2112D01*
X1985D02*
X2054D01*
X1904D02*
X1974D01*
X1780D02*
X1881D01*
X1595D02*
X1658D01*
X1410D02*
X1576D01*
X2866Y1702D02*
X3028D01*
X2729D02*
X2792D01*
X2543D02*
X2710D01*
X2442D02*
X2521D01*
X2326D02*
X2413D01*
X2250D02*
X2312D01*
X2142D02*
X2218D01*
X2068D02*
X2112D01*
X1985D02*
X2054D01*
X1902D02*
X1974D01*
X1781D02*
X1881D01*
X1595D02*
X1658D01*
X1410D02*
X1576D01*
X2866Y1704D02*
X3028D01*
X2729D02*
X2792D01*
X2543D02*
X2710D01*
X2444D02*
X2521D01*
X2327D02*
X2412D01*
X2250D02*
X2313D01*
X2144D02*
X2218D01*
X2068D02*
X2112D01*
X1985D02*
X2055D01*
X1902D02*
X1972D01*
X1781D02*
X1880D01*
X1595D02*
X1658D01*
X1410D02*
X1575D01*
X2866Y1705D02*
X3027D01*
X2729D02*
X2792D01*
X2543D02*
X2709D01*
X2445D02*
X2520D01*
X2327D02*
X2410D01*
X2252D02*
X2313D01*
X2144D02*
X2218D01*
X2069D02*
X2112D01*
X1986D02*
X2055D01*
X1901D02*
X1972D01*
X1781D02*
X1880D01*
X1595D02*
X1658D01*
X1410D02*
X1575D01*
X2866Y1706D02*
X3026D01*
X2729D02*
X2792D01*
X2543D02*
X2709D01*
X2446D02*
X2518D01*
X2328D02*
X2409D01*
X2252D02*
X2313D01*
X2144D02*
X2218D01*
X2069D02*
X2112D01*
X1986D02*
X2056D01*
X1901D02*
X1971D01*
X1781D02*
X1880D01*
X1595D02*
X1658D01*
X1410D02*
X1575D01*
X2866Y1707D02*
X3025D01*
X2729D02*
X2792D01*
X2543D02*
X2709D01*
X2447D02*
X2518D01*
X2330D02*
X2409D01*
X2252D02*
X2313D01*
X2144D02*
X2217D01*
X2070D02*
X2110D01*
X1988D02*
X2056D01*
X1900D02*
X1971D01*
X1782D02*
X1879D01*
X1595D02*
X1658D01*
X1410D02*
X1575D01*
X2866Y1708D02*
X3025D01*
X2729D02*
X2792D01*
X2543D02*
X2708D01*
X2447D02*
X2517D01*
X2330D02*
X2408D01*
X2252D02*
X2313D01*
X2144D02*
X2217D01*
X2070D02*
X2110D01*
X1988D02*
X2058D01*
X1900D02*
X1970D01*
X1782D02*
X1879D01*
X1595D02*
X1658D01*
X1410D02*
X1574D01*
X2866Y1710D02*
X3024D01*
X2729D02*
X2792D01*
X2543D02*
X2708D01*
X2448D02*
X2516D01*
X2331D02*
X2408D01*
X2252D02*
X2314D01*
X2145D02*
X2217D01*
X2072D02*
X2110D01*
X1989D02*
X2058D01*
X1899D02*
X1970D01*
X1782D02*
X1879D01*
X1595D02*
X1658D01*
X1410D02*
X1574D01*
X2866Y1711D02*
X3022D01*
X2729D02*
X2792D01*
X2543D02*
X2707D01*
X2448D02*
X2516D01*
X2332D02*
X2407D01*
X2252D02*
X2314D01*
X2145D02*
X2217D01*
X2072D02*
X2110D01*
X1989D02*
X2059D01*
X1898D02*
X1969D01*
X1784D02*
X1878D01*
X1595D02*
X1658D01*
X1410D02*
X1574D01*
X2866Y1712D02*
X3021D01*
X2729D02*
X2792D01*
X2543D02*
X2707D01*
X2450D02*
X2515D01*
X2332D02*
X2407D01*
X2253D02*
X2314D01*
X2145D02*
X2216D01*
X2073D02*
X2110D01*
X1990D02*
X2059D01*
X1898D02*
X1969D01*
X1784D02*
X1878D01*
X1595D02*
X1658D01*
X1410D02*
X1573D01*
X2866Y1713D02*
X3020D01*
X2729D02*
X2792D01*
X2543D02*
X2706D01*
X2450D02*
X2514D01*
X2333D02*
X2406D01*
X2253D02*
X2314D01*
X2145D02*
X2216D01*
X2073D02*
X2109D01*
X1990D02*
X2060D01*
X1896D02*
X1968D01*
X1784D02*
X1876D01*
X1595D02*
X1658D01*
X1410D02*
X1573D01*
X2866Y1714D02*
X3019D01*
X2729D02*
X2792D01*
X2543D02*
X2706D01*
X2450D02*
X2512D01*
X2334D02*
X2406D01*
X2253D02*
X2314D01*
X2145D02*
X2216D01*
X2074D02*
X2109D01*
X1991D02*
X2061D01*
X1896D02*
X1968D01*
X1785D02*
X1876D01*
X1595D02*
X1658D01*
X1410D02*
X1572D01*
X2866Y1716D02*
X3018D01*
X2729D02*
X2792D01*
X2543D02*
X2704D01*
X2450D02*
X2512D01*
X2336D02*
X2406D01*
X2253D02*
X2316D01*
X2146D02*
X2216D01*
X2074D02*
X2109D01*
X1991D02*
X2061D01*
X1895D02*
X1968D01*
X1785D02*
X1876D01*
X1595D02*
X1658D01*
X1410D02*
X1572D01*
X2866Y1717D02*
X3016D01*
X2729D02*
X2793D01*
X2543D02*
X2704D01*
X2451D02*
X2511D01*
X2337D02*
X2406D01*
X2253D02*
X2316D01*
X2146D02*
X2215D01*
X2075D02*
X2109D01*
X1991D02*
X2062D01*
X1895D02*
X1966D01*
X1785D02*
X1875D01*
X1595D02*
X1658D01*
X1410D02*
X1570D01*
X2866Y1718D02*
X3015D01*
X2729D02*
X2793D01*
X2543D02*
X2703D01*
X2451D02*
X2510D01*
X2337D02*
X2406D01*
X2253D02*
X2316D01*
X2146D02*
X2215D01*
X2075D02*
X2109D01*
X1992D02*
X2062D01*
X1894D02*
X1966D01*
X1786D02*
X1875D01*
X1595D02*
X1658D01*
X1410D02*
X1570D01*
X2866Y1719D02*
X3014D01*
X2729D02*
X2793D01*
X2543D02*
X2703D01*
X2451D02*
X2509D01*
X2338D02*
X2406D01*
X2254D02*
X2316D01*
X2146D02*
X2215D01*
X2076D02*
X2108D01*
X1992D02*
X2064D01*
X1894D02*
X1965D01*
X1786D02*
X1874D01*
X1595D02*
X1658D01*
X1410D02*
X1569D01*
X2866Y1720D02*
X3013D01*
X2729D02*
X2793D01*
X2543D02*
X2702D01*
X2451D02*
X2508D01*
X2339D02*
X2406D01*
X2254D02*
X2316D01*
X2147D02*
X2215D01*
X2076D02*
X2108D01*
X1994D02*
X2064D01*
X1893D02*
X1965D01*
X1786D02*
X1874D01*
X1595D02*
X1658D01*
X1412D02*
X1569D01*
X2867Y1722D02*
X3010D01*
X2729D02*
X2793D01*
X2543D02*
X2701D01*
X2451D02*
X2506D01*
X2340D02*
X2406D01*
X2254D02*
X2316D01*
X2147D02*
X2214D01*
X2078D02*
X2108D01*
X1994D02*
X2065D01*
X1892D02*
X1964D01*
X1787D02*
X1873D01*
X1595D02*
X1658D01*
X1412D02*
X1568D01*
X2867Y1723D02*
X3009D01*
X2729D02*
X2793D01*
X2543D02*
X2700D01*
X2450D02*
X2505D01*
X2342D02*
X2406D01*
X2254D02*
X2317D01*
X2147D02*
X2214D01*
X2078D02*
X2108D01*
X1995D02*
X2065D01*
X1892D02*
X1964D01*
X1787D02*
X1873D01*
X1595D02*
X1658D01*
X1412D02*
X1568D01*
X2867Y1724D02*
X3008D01*
X2729D02*
X2793D01*
X2543D02*
X2700D01*
X2450D02*
X2504D01*
X2343D02*
X2406D01*
X2254D02*
X2317D01*
X2147D02*
X2214D01*
X2079D02*
X2108D01*
X1995D02*
X2066D01*
X1890D02*
X1963D01*
X1788D02*
X1872D01*
X1595D02*
X1658D01*
X1412D02*
X1567D01*
X2867Y1725D02*
X3007D01*
X2729D02*
X2793D01*
X2544D02*
X2698D01*
X2450D02*
X2503D01*
X2344D02*
X2406D01*
X2254D02*
X2317D01*
X2147D02*
X2212D01*
X2079D02*
X2107D01*
X1996D02*
X2066D01*
X1890D02*
X1963D01*
X1788D02*
X1870D01*
X1595D02*
X1658D01*
X1412D02*
X1566D01*
X2867Y1726D02*
X3004D01*
X2729D02*
X2793D01*
X2544D02*
X2697D01*
X2450D02*
X2502D01*
X2345D02*
X2407D01*
X2255D02*
X2317D01*
X2148D02*
X2212D01*
X2080D02*
X2107D01*
X1996D02*
X2067D01*
X1889D02*
X1962D01*
X1790D02*
X1870D01*
X1595D02*
X1658D01*
X1412D02*
X1566D01*
X2867Y1728D02*
X3003D01*
X2729D02*
X2793D01*
X2544D02*
X2696D01*
X2448D02*
X2500D01*
X2346D02*
X2407D01*
X2255D02*
X2317D01*
X2148D02*
X2212D01*
X2081D02*
X2107D01*
X1997D02*
X2067D01*
X1889D02*
X1962D01*
X1791D02*
X1869D01*
X1595D02*
X1658D01*
X1412D02*
X1564D01*
X2868Y1729D02*
X3002D01*
X2729D02*
X2793D01*
X2544D02*
X2695D01*
X2448D02*
X2499D01*
X2348D02*
X2408D01*
X2255D02*
X2318D01*
X2148D02*
X2212D01*
X2081D02*
X2107D01*
X1997D02*
X2068D01*
X1888D02*
X1960D01*
X1792D02*
X1868D01*
X1595D02*
X1658D01*
X1413D02*
X1563D01*
X2868Y1730D02*
X3000D01*
X2729D02*
X2793D01*
X2544D02*
X2694D01*
X2447D02*
X2498D01*
X2349D02*
X2408D01*
X2255D02*
X2318D01*
X2148D02*
X2211D01*
X2082D02*
X2107D01*
X1997D02*
X2068D01*
X1888D02*
X1960D01*
X1793D02*
X1867D01*
X1595D02*
X1658D01*
X1413D02*
X1562D01*
X2868Y1731D02*
X2998D01*
X2729D02*
X2793D01*
X2544D02*
X2692D01*
X2447D02*
X2497D01*
X2351D02*
X2409D01*
X2255D02*
X2318D01*
X2150D02*
X2211D01*
X2082D02*
X2106D01*
X1998D02*
X2070D01*
X1887D02*
X1959D01*
X1794D02*
X1867D01*
X1595D02*
X1658D01*
X1413D02*
X1561D01*
X2870Y1732D02*
X2996D01*
X2729D02*
X2793D01*
X2544D02*
X2691D01*
X2446D02*
X2496D01*
X2352D02*
X2409D01*
X2255D02*
X2318D01*
X2150D02*
X2211D01*
X2084D02*
X2106D01*
X1998D02*
X2070D01*
X1886D02*
X1959D01*
X1796D02*
X1866D01*
X1595D02*
X1658D01*
X1413D02*
X1560D01*
X2870Y1734D02*
X2995D01*
X2729D02*
X2793D01*
X2546D02*
X2690D01*
X2445D02*
X2493D01*
X2354D02*
X2410D01*
X2256D02*
X2318D01*
X2150D02*
X2211D01*
X2084D02*
X2106D01*
X2000D02*
X2071D01*
X1886D02*
X1958D01*
X1797D02*
X1864D01*
X1595D02*
X1658D01*
X1414D02*
X1558D01*
X2871Y1735D02*
X2992D01*
X2729D02*
X2793D01*
X2546D02*
X2689D01*
X2444D02*
X2492D01*
X2355D02*
X2412D01*
X2256D02*
X2319D01*
X2151D02*
X2210D01*
X2085D02*
X2106D01*
X2000D02*
X2071D01*
X1884D02*
X1958D01*
X1798D02*
X1863D01*
X1595D02*
X1658D01*
X1414D02*
X1556D01*
X2872Y1736D02*
X2990D01*
X2729D02*
X2793D01*
X2546D02*
X2688D01*
X2442D02*
X2491D01*
X2357D02*
X2413D01*
X2256D02*
X2319D01*
X2151D02*
X2210D01*
X2085D02*
X2106D01*
X2001D02*
X2072D01*
X1884D02*
X1958D01*
X1799D02*
X1862D01*
X1595D02*
X1658D01*
X1415D02*
X1555D01*
X2872Y1737D02*
X2988D01*
X2729D02*
X2793D01*
X2546D02*
X2686D01*
X2441D02*
X2488D01*
X2358D02*
X2415D01*
X2256D02*
X2319D01*
X2151D02*
X2209D01*
X2086D02*
X2104D01*
X2001D02*
X2072D01*
X1883D02*
X1957D01*
X1802D02*
X1860D01*
X1595D02*
X1658D01*
X1415D02*
X1552D01*
X2873Y1738D02*
X2984D01*
X2729D02*
X2793D01*
X2547D02*
X2684D01*
X2439D02*
X2487D01*
X2360D02*
X2416D01*
X2256D02*
X2319D01*
X2152D02*
X2209D01*
X2086D02*
X2104D01*
X2002D02*
X2073D01*
X1883D02*
X1957D01*
X1803D02*
X1858D01*
X1595D02*
X1658D01*
X1416D02*
X1551D01*
X2874Y1740D02*
X2980D01*
X2729D02*
X2793D01*
X2547D02*
X2683D01*
X2436D02*
X2486D01*
X2362D02*
X2419D01*
X2256D02*
X2319D01*
X2152D02*
X2208D01*
X2087D02*
X2104D01*
X2002D02*
X2073D01*
X1882D02*
X1956D01*
X1805D02*
X1857D01*
X1595D02*
X1658D01*
X1418D02*
X1549D01*
X2877Y1741D02*
X2977D01*
X2729D02*
X2793D01*
X2548D02*
X2680D01*
X2432D02*
X2484D01*
X2363D02*
X2424D01*
X2258D02*
X2320D01*
X2153D02*
X2206D01*
X2087D02*
X2104D01*
X2003D02*
X2074D01*
X1881D02*
X1956D01*
X1808D02*
X1855D01*
X1595D02*
X1658D01*
X1418D02*
X1545D01*
X2879Y1742D02*
X2971D01*
X2729D02*
X2793D01*
X2548D02*
X2678D01*
X2366D02*
X2481D01*
X2258D02*
X2320D01*
X2154D02*
X2206D01*
X2088D02*
X2104D01*
X2003D02*
X2074D01*
X1881D02*
X1954D01*
X1811D02*
X1852D01*
X1595D02*
X1658D01*
X1420D02*
X1542D01*
X2884Y1743D02*
X2959D01*
X2729D02*
X2793D01*
X2549D02*
X2676D01*
X2368D02*
X2480D01*
X2258D02*
X2320D01*
X2154D02*
X2205D01*
X2088D02*
X2103D01*
X2004D02*
X2076D01*
X1880D02*
X1954D01*
X1815D02*
X1849D01*
X1595D02*
X1658D01*
X1421D02*
X1538D01*
X2729Y1744D02*
X2793D01*
X2550D02*
X2672D01*
X2370D02*
X2478D01*
X2258D02*
X2320D01*
X2156D02*
X2204D01*
X2090D02*
X2103D01*
X2004D02*
X2076D01*
X1880D02*
X1953D01*
X1820D02*
X1844D01*
X1422D02*
X1533D01*
X2552Y1746D02*
X2667D01*
X2372D02*
X2475D01*
X2157D02*
X2202D01*
X1425D02*
X1525D01*
X2553Y1747D02*
X2661D01*
X2374D02*
X2473D01*
X2159D02*
X2200D01*
X1430D02*
X1510D01*
X2555Y1748D02*
X2650D01*
X2378D02*
X2470D01*
X2162D02*
X2198D01*
X2380Y1749D02*
X2467D01*
X2164D02*
X2194D01*
X2382Y1750D02*
X2464D01*
X2174D02*
X2185D01*
X2386Y1752D02*
X2461D01*
X2390Y1753D02*
X2457D01*
X2394Y1754D02*
X2454D01*
X2399Y1755D02*
X2449D01*
X2405Y1756D02*
X2442D01*
X2416Y1758D02*
X2432D01*
D27*
X1449Y664D02*
X1465D01*
X1813Y666D02*
X1845D01*
X1445D02*
X1469D01*
X1991Y668D02*
X2021D01*
X1805D02*
X1855D01*
X1679D02*
X1707D01*
X1441D02*
X1471D01*
X1981Y670D02*
X2033D01*
X1797D02*
X1861D01*
X1667D02*
X1719D01*
X1437D02*
X1473D01*
X1973Y672D02*
X2041D01*
X1791D02*
X1869D01*
X1659D02*
X1727D01*
X1433D02*
X1475D01*
X1965Y674D02*
X2047D01*
X1785D02*
X1873D01*
X1653D02*
X1733D01*
X1537D02*
X1553D01*
X1431D02*
X1475D01*
X2091Y676D02*
X2101D01*
X1961D02*
X2051D01*
X1781D02*
X1877D01*
X1649D02*
X1737D01*
X1533D02*
X1557D01*
X1427D02*
X1477D01*
X2089Y678D02*
X2105D01*
X1957D02*
X2055D01*
X1777D02*
X1881D01*
X1645D02*
X1741D01*
X1531D02*
X1559D01*
X1425D02*
X1477D01*
X2099Y680D02*
X2107D01*
X2087D02*
X2093D01*
X1953D02*
X2059D01*
X1775D02*
X1885D01*
X1641D02*
X1745D01*
X1529D02*
X1563D01*
X1423D02*
X1477D01*
X2103Y682D02*
X2107D01*
X2087D02*
X2101D01*
X1949D02*
X2061D01*
X1771D02*
X1887D01*
X1639D02*
X1749D01*
X1527D02*
X1565D01*
X1419D02*
X1479D01*
X2103Y684D02*
X2107D01*
X2091D02*
X2101D01*
X2085D02*
X2089D01*
X1947D02*
X2065D01*
X1767D02*
X1891D01*
X1635D02*
X1751D01*
X1525D02*
X1567D01*
X1459D02*
X1479D01*
X1417D02*
X1451D01*
X2105Y686D02*
X2107D01*
X2091D02*
X2101D01*
X2085D02*
X2089D01*
X1943D02*
X2069D01*
X1845D02*
X1893D01*
X1765D02*
X1813D01*
X1631D02*
X1755D01*
X1523D02*
X1569D01*
X1459D02*
X1481D01*
X1415D02*
X1449D01*
X2103Y688D02*
X2107D01*
X2091D02*
X2101D01*
X2085D02*
X2089D01*
X2023D02*
X2071D01*
X1941D02*
X1989D01*
X1855D02*
X1895D01*
X1763D02*
X1805D01*
X1709D02*
X1757D01*
X1629D02*
X1677D01*
X1521D02*
X1571D01*
X1461D02*
X1481D01*
X1413D02*
X1445D01*
X2087Y690D02*
X2107D01*
X2033D02*
X2073D01*
X1939D02*
X1979D01*
X1861D02*
X1899D01*
X1719D02*
X1797D01*
X1627D02*
X1667D01*
X1519D02*
X1573D01*
X1461D02*
X1483D01*
X1411D02*
X1441D01*
X2087Y692D02*
X2105D01*
X2039D02*
X2075D01*
X1935D02*
X1973D01*
X1865D02*
X1901D01*
X1725D02*
X1793D01*
X1625D02*
X1661D01*
X1517D02*
X1575D01*
X1461D02*
X1483D01*
X1409D02*
X1439D01*
X2089Y694D02*
X2103D01*
X2043D02*
X2079D01*
X1933D02*
X1969D01*
X1871D02*
X1903D01*
X1729D02*
X1787D01*
X1623D02*
X1657D01*
X1549D02*
X1577D01*
X1515D02*
X1543D01*
X1463D02*
X1483D01*
X1407D02*
X1435D01*
X2091Y696D02*
X2101D01*
X2047D02*
X2081D01*
X1931D02*
X1965D01*
X1873D02*
X1905D01*
X1733D02*
X1785D01*
X1621D02*
X1653D01*
X1551D02*
X1579D01*
X1513D02*
X1541D01*
X1463D02*
X1485D01*
X1405D02*
X1433D01*
X2051Y698D02*
X2083D01*
X1929D02*
X1961D01*
X1877D02*
X1907D01*
X1737D02*
X1781D01*
X1619D02*
X1649D01*
X1553D02*
X1581D01*
X1511D02*
X1539D01*
X1465D02*
X1485D01*
X1403D02*
X1431D01*
X2055Y700D02*
X2085D01*
X1927D02*
X1957D01*
X1879D02*
X1909D01*
X1741D02*
X1779D01*
X1617D02*
X1645D01*
X1557D02*
X1583D01*
X1509D02*
X1537D01*
X1465D02*
X1487D01*
X1401D02*
X1429D01*
X2057Y702D02*
X2087D01*
X1925D02*
X1955D01*
X1883D02*
X1911D01*
X1743D02*
X1775D01*
X1615D02*
X1643D01*
X1559D02*
X1583D01*
X1507D02*
X1535D01*
X1465D02*
X1487D01*
X1401D02*
X1425D01*
X2061Y704D02*
X2089D01*
X1923D02*
X1951D01*
X1885D02*
X1913D01*
X1743D02*
X1773D01*
X1613D02*
X1641D01*
X1561D02*
X1585D01*
X1505D02*
X1533D01*
X1467D02*
X1487D01*
X1399D02*
X1425D01*
X2063Y706D02*
X2091D01*
X1921D02*
X1949D01*
X1887D02*
X1915D01*
X1743D02*
X1771D01*
X1611D02*
X1637D01*
X1563D02*
X1587D01*
X1503D02*
X1531D01*
X1467D02*
X1489D01*
X1397D02*
X1423D01*
X2065Y708D02*
X2093D01*
X1921D02*
X1947D01*
X1889D02*
X1915D01*
X1741D02*
X1769D01*
X1609D02*
X1635D01*
X1563D02*
X1589D01*
X1501D02*
X1529D01*
X1469D02*
X1489D01*
X1395D02*
X1421D01*
X2067Y710D02*
X2093D01*
X1919D02*
X1945D01*
X1891D02*
X1917D01*
X1739D02*
X1767D01*
X1607D02*
X1633D01*
X1565D02*
X1589D01*
X1499D02*
X1527D01*
X1469D02*
X1491D01*
X1395D02*
X1419D01*
X2069Y712D02*
X2095D01*
X1893D02*
X1943D01*
X1739D02*
X1765D01*
X1605D02*
X1631D01*
X1567D02*
X1591D01*
X1497D02*
X1525D01*
X1469D02*
X1491D01*
X1393D02*
X1417D01*
X2071Y714D02*
X2097D01*
X1895D02*
X1941D01*
X1737D02*
X1763D01*
X1605D02*
X1629D01*
X1569D02*
X1593D01*
X1495D02*
X1523D01*
X1471D02*
X1491D01*
X1393D02*
X1415D01*
X2073Y716D02*
X2099D01*
X1897D02*
X1939D01*
X1735D02*
X1761D01*
X1603D02*
X1627D01*
X1571D02*
X1593D01*
X1471D02*
X1521D01*
X1391D02*
X1413D01*
X2075Y718D02*
X2099D01*
X1899D02*
X1937D01*
X1735D02*
X1759D01*
X1601D02*
X1625D01*
X1571D02*
X1595D01*
X1473D02*
X1519D01*
X1389D02*
X1413D01*
X2077Y720D02*
X2101D01*
X1901D02*
X1935D01*
X1733D02*
X1757D01*
X1601D02*
X1625D01*
X1573D02*
X1595D01*
X1473D02*
X1517D01*
X1389D02*
X1411D01*
X2079Y722D02*
X2101D01*
X1901D02*
X1933D01*
X1731D02*
X1757D01*
X1599D02*
X1623D01*
X1575D02*
X1597D01*
X1469D02*
X1515D01*
X1387D02*
X1409D01*
X2081Y724D02*
X2103D01*
X1903D02*
X1933D01*
X1731D02*
X1755D01*
X1683D02*
X1705D01*
X1575D02*
X1621D01*
X1465D02*
X1513D01*
X1387D02*
X1409D01*
X2081Y726D02*
X2105D01*
X1905D02*
X1931D01*
X1817D02*
X1843D01*
X1729D02*
X1753D01*
X1677D02*
X1711D01*
X1577D02*
X1619D01*
X1461D02*
X1511D01*
X1385D02*
X1407D01*
X2083Y728D02*
X2105D01*
X1995D02*
X2017D01*
X1905D02*
X1929D01*
X1811D02*
X1849D01*
X1729D02*
X1753D01*
X1673D02*
X1715D01*
X1577D02*
X1619D01*
X1459D02*
X1509D01*
X1385D02*
X1407D01*
X2085Y730D02*
X2107D01*
X1987D02*
X2023D01*
X1907D02*
X1929D01*
X1807D02*
X1853D01*
X1727D02*
X1751D01*
X1669D02*
X1719D01*
X1579D02*
X1617D01*
X1457D02*
X1507D01*
X1385D02*
X1405D01*
X2085Y732D02*
X2107D01*
X1983D02*
X2029D01*
X1909D02*
X1927D01*
X1803D02*
X1855D01*
X1727D02*
X1749D01*
X1665D02*
X1723D01*
X1579D02*
X1615D01*
X1455D02*
X1505D01*
X1383D02*
X1405D01*
X2087Y734D02*
X2109D01*
X1979D02*
X2033D01*
X1909D02*
X1927D01*
X1801D02*
X1859D01*
X1663D02*
X1749D01*
X1581D02*
X1615D01*
X1453D02*
X1503D01*
X1383D02*
X1403D01*
X2087Y736D02*
X2109D01*
X1977D02*
X2033D01*
X1911D02*
X1929D01*
X1797D02*
X1861D01*
X1659D02*
X1747D01*
X1581D02*
X1613D01*
X1451D02*
X1501D01*
X1383D02*
X1403D01*
X2089Y738D02*
X2109D01*
X1973D02*
X2033D01*
X1911D02*
X1931D01*
X1795D02*
X1863D01*
X1659D02*
X1747D01*
X1583D02*
X1613D01*
X1449D02*
X1499D01*
X1381D02*
X1403D01*
X2089Y740D02*
X2111D01*
X1971D02*
X2029D01*
X1911D02*
X1935D01*
X1793D02*
X1865D01*
X1657D02*
X1745D01*
X1583D02*
X1611D01*
X1447D02*
X1497D01*
X1381D02*
X1401D01*
X2091Y742D02*
X2111D01*
X1969D02*
X2027D01*
X1913D02*
X1937D01*
X1791D02*
X1867D01*
X1653D02*
X1745D01*
X1583D02*
X1611D01*
X1445D02*
X1495D01*
X1379D02*
X1401D01*
X2091Y744D02*
X2111D01*
X1967D02*
X2025D01*
X1913D02*
X1941D01*
X1789D02*
X1869D01*
X1653D02*
X1745D01*
X1585D02*
X1609D01*
X1445D02*
X1493D01*
X1379D02*
X1399D01*
X2091Y746D02*
X2111D01*
X1967D02*
X2021D01*
X1915D02*
X1943D01*
X1789D02*
X1871D01*
X1651D02*
X1743D01*
X1585D02*
X1609D01*
X1443D02*
X1491D01*
X1379D02*
X1399D01*
X2089Y748D02*
X2111D01*
X1965D02*
X2019D01*
X1915D02*
X1947D01*
X1787D02*
X1871D01*
X1649D02*
X1743D01*
X1585D02*
X1609D01*
X1443D02*
X1489D01*
X1379D02*
X1399D01*
X2085Y750D02*
X2111D01*
X1963D02*
X2015D01*
X1915D02*
X1949D01*
X1785D02*
X1873D01*
X1647D02*
X1743D01*
X1585D02*
X1607D01*
X1441D02*
X1487D01*
X1379D02*
X1399D01*
X2083Y752D02*
X2111D01*
X1961D02*
X2013D01*
X1917D02*
X1953D01*
X1785D02*
X1875D01*
X1647D02*
X1741D01*
X1587D02*
X1607D01*
X1439D02*
X1485D01*
X1377D02*
X1397D01*
X2079Y754D02*
X2109D01*
X1961D02*
X2009D01*
X1917D02*
X1955D01*
X1783D02*
X1875D01*
X1645D02*
X1741D01*
X1587D02*
X1607D01*
X1543D02*
X1545D01*
X1439D02*
X1483D01*
X1377D02*
X1397D01*
X2077Y756D02*
X2109D01*
X1917D02*
X2007D01*
X1783D02*
X1877D01*
X1645D02*
X1741D01*
X1587D02*
X1607D01*
X1541D02*
X1547D01*
X1439D02*
X1481D01*
X1377D02*
X1397D01*
X2073Y758D02*
X2107D01*
X1917D02*
X2003D01*
X1781D02*
X1877D01*
X1645D02*
X1741D01*
X1587D02*
X1605D01*
X1539D02*
X1547D01*
X1437D02*
X1479D01*
X1377D02*
X1397D01*
X2071Y760D02*
X2105D01*
X1919D02*
X2001D01*
X1781D02*
X1879D01*
X1645D02*
X1739D01*
X1587D02*
X1605D01*
X1537D02*
X1547D01*
X1437D02*
X1477D01*
X1377D02*
X1397D01*
X2067Y762D02*
X2101D01*
X1919D02*
X1997D01*
X1779D02*
X1879D01*
X1719D02*
X1739D01*
X1587D02*
X1605D01*
X1535D02*
X1547D01*
X1437D02*
X1475D01*
X1377D02*
X1395D01*
X2065Y764D02*
X2099D01*
X1919D02*
X1995D01*
X1779D02*
X1879D01*
X1719D02*
X1739D01*
X1589D02*
X1605D01*
X1533D02*
X1549D01*
X1437D02*
X1473D01*
X1377D02*
X1395D01*
X2061Y766D02*
X2097D01*
X1919D02*
X1991D01*
X1779D02*
X1879D01*
X1719D02*
X1739D01*
X1589D02*
X1605D01*
X1531D02*
X1549D01*
X1437D02*
X1471D01*
X1377D02*
X1395D01*
X2059Y768D02*
X2093D01*
X1919D02*
X1989D01*
X1779D02*
X1879D01*
X1717D02*
X1739D01*
X1589D02*
X1605D01*
X1529D02*
X1549D01*
X1435D02*
X1469D01*
X1375D02*
X1395D01*
X2055Y770D02*
X2091D01*
X1919D02*
X1985D01*
X1779D02*
X1881D01*
X1717D02*
X1739D01*
X1589D02*
X1605D01*
X1527D02*
X1549D01*
X1435D02*
X1467D01*
X1375D02*
X1395D01*
X2053Y772D02*
X2087D01*
X1919D02*
X1983D01*
X1779D02*
X1881D01*
X1717D02*
X1739D01*
X1589D02*
X1605D01*
X1525D02*
X1549D01*
X1435D02*
X1465D01*
X1375D02*
X1395D01*
X2049Y774D02*
X2083D01*
X1919D02*
X1979D01*
X1779D02*
X1881D01*
X1717D02*
X1739D01*
X1589D02*
X1605D01*
X1523D02*
X1549D01*
X1435D02*
X1463D01*
X1375D02*
X1395D01*
X2047Y776D02*
X2081D01*
X1919D02*
X1977D01*
X1777D02*
X1881D01*
X1717D02*
X1739D01*
X1589D02*
X1605D01*
X1521D02*
X1549D01*
X1435D02*
X1461D01*
X1375D02*
X1395D01*
X2043Y778D02*
X2079D01*
X1919D02*
X1973D01*
X1777D02*
X1881D01*
X1717D02*
X1739D01*
X1589D02*
X1605D01*
X1519D02*
X1549D01*
X1435D02*
X1459D01*
X1375D02*
X1395D01*
X2041Y780D02*
X2075D01*
X1919D02*
X1971D01*
X1777D02*
X1881D01*
X1717D02*
X1739D01*
X1589D02*
X1605D01*
X1517D02*
X1549D01*
X1435D02*
X1457D01*
X1375D02*
X1395D01*
X2037Y782D02*
X2071D01*
X1919D02*
X1967D01*
X1779D02*
X1881D01*
X1717D02*
X1739D01*
X1589D02*
X1605D01*
X1515D02*
X1549D01*
X1435D02*
X1455D01*
X1375D02*
X1395D01*
X2035Y784D02*
X2069D01*
X1919D02*
X1965D01*
X1779D02*
X1881D01*
X1717D02*
X1739D01*
X1589D02*
X1605D01*
X1513D02*
X1549D01*
X1437D02*
X1453D01*
X1377D02*
X1395D01*
X2031Y786D02*
X2069D01*
X1919D02*
X1961D01*
X1779D02*
X1881D01*
X1717D02*
X1739D01*
X1589D02*
X1605D01*
X1511D02*
X1549D01*
X1437D02*
X1451D01*
X1377D02*
X1395D01*
X2029Y788D02*
X2071D01*
X1919D02*
X1959D01*
X1779D02*
X1879D01*
X1719D02*
X1739D01*
X1587D02*
X1605D01*
X1509D02*
X1547D01*
X1437D02*
X1449D01*
X1377D02*
X1395D01*
X2025Y790D02*
X2075D01*
X1919D02*
X1955D01*
X1779D02*
X1879D01*
X1719D02*
X1739D01*
X1587D02*
X1605D01*
X1507D02*
X1547D01*
X1437D02*
X1447D01*
X1377D02*
X1397D01*
X2023Y792D02*
X2077D01*
X1919D02*
X1953D01*
X1779D02*
X1879D01*
X1719D02*
X1739D01*
X1587D02*
X1605D01*
X1505D02*
X1547D01*
X1437D02*
X1445D01*
X1377D02*
X1397D01*
X2019Y794D02*
X2081D01*
X1919D02*
X1949D01*
X1781D02*
X1879D01*
X1719D02*
X1739D01*
X1587D02*
X1605D01*
X1503D02*
X1547D01*
X1439D02*
X1443D01*
X1377D02*
X1397D01*
X2017Y796D02*
X2083D01*
X1917D02*
X1947D01*
X1781D02*
X1877D01*
X1645D02*
X1739D01*
X1587D02*
X1605D01*
X1501D02*
X1545D01*
X1377D02*
X1397D01*
X2013Y798D02*
X2085D01*
X1917D02*
X1943D01*
X1781D02*
X1877D01*
X1645D02*
X1741D01*
X1587D02*
X1607D01*
X1499D02*
X1545D01*
X1377D02*
X1397D01*
X2011Y800D02*
X2089D01*
X1917D02*
X1941D01*
X1783D02*
X1877D01*
X1645D02*
X1741D01*
X1585D02*
X1607D01*
X1497D02*
X1545D01*
X1379D02*
X1397D01*
X2007Y802D02*
X2091D01*
X1917D02*
X1937D01*
X1783D02*
X1875D01*
X1645D02*
X1741D01*
X1585D02*
X1607D01*
X1495D02*
X1543D01*
X1379D02*
X1399D01*
X2061Y804D02*
X2095D01*
X2005D02*
X2057D01*
X1915D02*
X1935D01*
X1785D02*
X1875D01*
X1647D02*
X1741D01*
X1585D02*
X1607D01*
X1493D02*
X1543D01*
X1379D02*
X1399D01*
X2063Y806D02*
X2097D01*
X2001D02*
X2055D01*
X1915D02*
X1931D01*
X1785D02*
X1873D01*
X1647D02*
X1743D01*
X1585D02*
X1607D01*
X1491D02*
X1541D01*
X1379D02*
X1399D01*
X2067Y808D02*
X2101D01*
X1999D02*
X2055D01*
X1915D02*
X1929D01*
X1787D02*
X1871D01*
X1649D02*
X1743D01*
X1583D02*
X1609D01*
X1489D02*
X1539D01*
X1381D02*
X1401D01*
X2069Y810D02*
X2103D01*
X1995D02*
X2053D01*
X1915D02*
X1927D01*
X1789D02*
X1871D01*
X1651D02*
X1743D01*
X1583D02*
X1609D01*
X1487D02*
X1539D01*
X1381D02*
X1401D01*
X2073Y812D02*
X2105D01*
X1993D02*
X2051D01*
X1913D02*
X1925D01*
X1791D02*
X1869D01*
X1651D02*
X1745D01*
X1583D02*
X1609D01*
X1485D02*
X1537D01*
X1381D02*
X1401D01*
X2075Y814D02*
X2107D01*
X1989D02*
X2049D01*
X1913D02*
X1927D01*
X1791D02*
X1867D01*
X1653D02*
X1745D01*
X1581D02*
X1611D01*
X1483D02*
X1535D01*
X1383D02*
X1403D01*
X2077Y816D02*
X2107D01*
X1987D02*
X2047D01*
X1911D02*
X1927D01*
X1793D02*
X1865D01*
X1655D02*
X1747D01*
X1581D02*
X1611D01*
X1481D02*
X1533D01*
X1383D02*
X1403D01*
X2081Y818D02*
X2109D01*
X1983D02*
X2045D01*
X1911D02*
X1929D01*
X1795D02*
X1863D01*
X1657D02*
X1747D01*
X1579D02*
X1613D01*
X1479D02*
X1531D01*
X1383D02*
X1405D01*
X2083Y820D02*
X2109D01*
X1983D02*
X2043D01*
X1909D02*
X1929D01*
X1797D02*
X1861D01*
X1659D02*
X1747D01*
X1579D02*
X1613D01*
X1477D02*
X1529D01*
X1385D02*
X1405D01*
X2087Y822D02*
X2109D01*
X1983D02*
X2041D01*
X1909D02*
X1931D01*
X1801D02*
X1859D01*
X1661D02*
X1749D01*
X1577D02*
X1615D01*
X1475D02*
X1527D01*
X1385D02*
X1407D01*
X2089Y824D02*
X2111D01*
X1987D02*
X2037D01*
X1909D02*
X1931D01*
X1803D02*
X1855D01*
X1727D02*
X1749D01*
X1665D02*
X1723D01*
X1577D02*
X1615D01*
X1473D02*
X1525D01*
X1385D02*
X1407D01*
X2091Y826D02*
X2111D01*
X1989D02*
X2035D01*
X1907D02*
X1933D01*
X1807D02*
X1851D01*
X1727D02*
X1751D01*
X1667D02*
X1719D01*
X1575D02*
X1617D01*
X1471D02*
X1521D01*
X1387D02*
X1409D01*
X2089Y828D02*
X2111D01*
X1995D02*
X2029D01*
X1905D02*
X1933D01*
X1811D02*
X1847D01*
X1729D02*
X1753D01*
X1671D02*
X1717D01*
X1575D02*
X1617D01*
X1469D02*
X1519D01*
X1387D02*
X1409D01*
X2087Y830D02*
X2109D01*
X2001D02*
X2021D01*
X1905D02*
X1935D01*
X1817D02*
X1841D01*
X1729D02*
X1753D01*
X1675D02*
X1711D01*
X1597D02*
X1619D01*
X1573D02*
X1595D01*
X1467D02*
X1515D01*
X1389D02*
X1411D01*
X2087Y832D02*
X2109D01*
X1903D02*
X1937D01*
X1731D02*
X1755D01*
X1683D02*
X1703D01*
X1599D02*
X1621D01*
X1571D02*
X1595D01*
X1465D02*
X1515D01*
X1389D02*
X1413D01*
X2085Y834D02*
X2109D01*
X1901D02*
X1937D01*
X1731D02*
X1757D01*
X1599D02*
X1623D01*
X1571D02*
X1593D01*
X1495D02*
X1515D01*
X1463D02*
X1491D01*
X1391D02*
X1413D01*
X2083Y836D02*
X2107D01*
X1901D02*
X1939D01*
X1733D02*
X1757D01*
X1601D02*
X1623D01*
X1569D02*
X1593D01*
X1495D02*
X1515D01*
X1461D02*
X1489D01*
X1393D02*
X1415D01*
X2083Y838D02*
X2105D01*
X1899D02*
X1941D01*
X1735D02*
X1759D01*
X1601D02*
X1625D01*
X1567D02*
X1591D01*
X1495D02*
X1517D01*
X1459D02*
X1487D01*
X1393D02*
X1417D01*
X2081Y840D02*
X2105D01*
X1897D02*
X1943D01*
X1735D02*
X1761D01*
X1603D02*
X1627D01*
X1565D02*
X1589D01*
X1497D02*
X1517D01*
X1457D02*
X1485D01*
X1395D02*
X1419D01*
X2079Y842D02*
X2103D01*
X1895D02*
X1945D01*
X1737D02*
X1763D01*
X1605D02*
X1629D01*
X1565D02*
X1589D01*
X1497D02*
X1517D01*
X1455D02*
X1483D01*
X1395D02*
X1419D01*
X2077Y844D02*
X2101D01*
X1921D02*
X1947D01*
X1893D02*
X1919D01*
X1739D02*
X1765D01*
X1605D02*
X1631D01*
X1563D02*
X1587D01*
X1497D02*
X1519D01*
X1453D02*
X1481D01*
X1397D02*
X1421D01*
X2075Y846D02*
X2101D01*
X1923D02*
X1949D01*
X1891D02*
X1917D01*
X1739D02*
X1767D01*
X1607D02*
X1633D01*
X1561D02*
X1585D01*
X1499D02*
X1519D01*
X1451D02*
X1479D01*
X1399D02*
X1423D01*
X2073Y848D02*
X2099D01*
X1925D02*
X1951D01*
X1889D02*
X1915D01*
X1741D02*
X1769D01*
X1609D02*
X1635D01*
X1559D02*
X1585D01*
X1499D02*
X1521D01*
X1449D02*
X1477D01*
X1401D02*
X1425D01*
X2071Y850D02*
X2097D01*
X1925D02*
X1953D01*
X1887D02*
X1913D01*
X1743D02*
X1771D01*
X1611D02*
X1637D01*
X1557D02*
X1583D01*
X1501D02*
X1521D01*
X1447D02*
X1475D01*
X1401D02*
X1427D01*
X2067Y852D02*
X2095D01*
X1927D02*
X1955D01*
X1885D02*
X1911D01*
X1745D02*
X1773D01*
X1613D02*
X1641D01*
X1555D02*
X1581D01*
X1501D02*
X1523D01*
X1445D02*
X1473D01*
X1403D02*
X1431D01*
X2065Y854D02*
X2093D01*
X1929D02*
X1959D01*
X1881D02*
X1911D01*
X1743D02*
X1777D01*
X1615D02*
X1643D01*
X1551D02*
X1579D01*
X1501D02*
X1523D01*
X1443D02*
X1471D01*
X1405D02*
X1433D01*
X2063Y856D02*
X2091D01*
X1931D02*
X1961D01*
X1879D02*
X1909D01*
X1741D02*
X1779D01*
X1615D02*
X1645D01*
X1549D02*
X1577D01*
X1503D02*
X1523D01*
X1441D02*
X1469D01*
X1407D02*
X1435D01*
X2059Y858D02*
X2089D01*
X1933D02*
X1965D01*
X1877D02*
X1907D01*
X1737D02*
X1783D01*
X1617D02*
X1649D01*
X1547D02*
X1575D01*
X1503D02*
X1525D01*
X1439D02*
X1467D01*
X1409D02*
X1437D01*
X2057Y860D02*
X2087D01*
X1935D02*
X1967D01*
X1873D02*
X1905D01*
X1735D02*
X1785D01*
X1619D02*
X1653D01*
X1543D02*
X1573D01*
X1505D02*
X1525D01*
X1411D02*
X1465D01*
X2053Y862D02*
X2085D01*
X1939D02*
X1971D01*
X1869D02*
X1903D01*
X1729D02*
X1789D01*
X1623D02*
X1657D01*
X1541D02*
X1571D01*
X1505D02*
X1525D01*
X1413D02*
X1463D01*
X2047Y864D02*
X2083D01*
X1939D02*
X1975D01*
X1863D02*
X1899D01*
X1725D02*
X1795D01*
X1625D02*
X1661D01*
X1537D02*
X1569D01*
X1507D02*
X1527D01*
X1415D02*
X1461D01*
X2043Y866D02*
X2081D01*
X1943D02*
X1981D01*
X1859D02*
X1897D01*
X1719D02*
X1799D01*
X1627D02*
X1667D01*
X1533D02*
X1567D01*
X1507D02*
X1527D01*
X1417D02*
X1459D01*
X2037Y868D02*
X2079D01*
X1945D02*
X1985D01*
X1853D02*
X1895D01*
X1763D02*
X1805D01*
X1711D02*
X1757D01*
X1629D02*
X1675D01*
X1507D02*
X1565D01*
X1419D02*
X1457D01*
X2027Y870D02*
X2077D01*
X1947D02*
X1995D01*
X1843D02*
X1893D01*
X1765D02*
X1815D01*
X1695D02*
X1755D01*
X1633D02*
X1691D01*
X1509D02*
X1563D01*
X1421D02*
X1455D01*
X1951Y872D02*
X2073D01*
X1769D02*
X1889D01*
X1635D02*
X1751D01*
X1509D02*
X1559D01*
X1425D02*
X1453D01*
X1953Y874D02*
X2071D01*
X1771D02*
X1887D01*
X1639D02*
X1749D01*
X1509D02*
X1557D01*
X1427D02*
X1451D01*
X1957Y876D02*
X2067D01*
X1775D02*
X1883D01*
X1641D02*
X1745D01*
X1511D02*
X1555D01*
X1429D02*
X1447D01*
X1959Y878D02*
X2063D01*
X1777D02*
X1881D01*
X1645D02*
X1741D01*
X1513D02*
X1551D01*
X1965Y880D02*
X2059D01*
X1783D02*
X1877D01*
X1649D02*
X1737D01*
X1513D02*
X1547D01*
X1969Y882D02*
X2055D01*
X1787D02*
X1871D01*
X1655D02*
X1731D01*
X1515D02*
X1543D01*
X1973Y884D02*
X2049D01*
X1793D02*
X1867D01*
X1661D02*
X1725D01*
X1517D02*
X1539D01*
X1979Y886D02*
X2045D01*
X1797D02*
X1861D01*
X1665D02*
X1721D01*
X1521D02*
X1535D01*
X1985Y888D02*
X2037D01*
X1805D02*
X1853D01*
X1677D02*
X1709D01*
X1999Y890D02*
X2025D01*
X1817D02*
X1841D01*
X1855Y952D02*
X1873D01*
X1853Y954D02*
X1877D01*
X1851Y956D02*
X1879D01*
X1849Y958D02*
X1883D01*
X1847Y960D02*
X1885D01*
X1845Y962D02*
X1889D01*
X1843Y964D02*
X1891D01*
X1843Y966D02*
X1895D01*
X1841Y968D02*
X1897D01*
X1865Y970D02*
X1899D01*
X1839D02*
X1863D01*
X1869Y972D02*
X1901D01*
X1837D02*
X1863D01*
X1871Y974D02*
X1903D01*
X1835D02*
X1861D01*
X1873Y976D02*
X1903D01*
X1833D02*
X1859D01*
X1877Y978D02*
X1905D01*
X1833D02*
X1857D01*
X1879Y980D02*
X1905D01*
X1831D02*
X1855D01*
X1883Y982D02*
X1905D01*
X1829D02*
X1855D01*
X1885Y984D02*
X1905D01*
X1827D02*
X1853D01*
X1883Y986D02*
X1905D01*
X1825D02*
X1851D01*
X1883Y988D02*
X1905D01*
X1825D02*
X1849D01*
X1881Y990D02*
X1903D01*
X1823D02*
X1847D01*
X1881Y992D02*
X1903D01*
X1821D02*
X1845D01*
X1879Y994D02*
X1901D01*
X1819D02*
X1845D01*
X1877Y996D02*
X1901D01*
X1817D02*
X1843D01*
X1877Y998D02*
X1899D01*
X1815D02*
X1841D01*
X1875Y1000D02*
X1899D01*
X1815D02*
X1839D01*
X1875Y1002D02*
X1897D01*
X1813D02*
X1839D01*
X1873Y1004D02*
X1897D01*
X1811D02*
X1837D01*
X1873Y1006D02*
X1895D01*
X1809D02*
X1835D01*
X1593D02*
X1611D01*
X1871Y1008D02*
X1893D01*
X1807D02*
X1833D01*
X1591D02*
X1613D01*
X1871Y1010D02*
X1893D01*
X1807D02*
X1831D01*
X1587D02*
X1615D01*
X1869Y1012D02*
X1891D01*
X1805D02*
X1829D01*
X1585D02*
X1617D01*
X1869Y1014D02*
X1891D01*
X1803D02*
X1829D01*
X1581D02*
X1619D01*
X1867Y1016D02*
X1889D01*
X1801D02*
X1827D01*
X1579D02*
X1621D01*
X1865Y1018D02*
X1889D01*
X1799D02*
X1825D01*
X1577D02*
X1621D01*
X1865Y1020D02*
X1887D01*
X1799D02*
X1823D01*
X1575D02*
X1623D01*
X1863Y1022D02*
X1887D01*
X1797D02*
X1821D01*
X1571D02*
X1625D01*
X1863Y1024D02*
X1885D01*
X1795D02*
X1821D01*
X1603D02*
X1627D01*
X1569D02*
X1599D01*
X1861Y1026D02*
X1887D01*
X1793D02*
X1819D01*
X1605D02*
X1627D01*
X1567D02*
X1597D01*
X1861Y1028D02*
X1889D01*
X1791D02*
X1817D01*
X1607D02*
X1629D01*
X1565D02*
X1595D01*
X1859Y1030D02*
X1893D01*
X1789D02*
X1815D01*
X1607D02*
X1631D01*
X1563D02*
X1591D01*
X1859Y1032D02*
X1895D01*
X1789D02*
X1813D01*
X1609D02*
X1633D01*
X1559D02*
X1589D01*
X1857Y1034D02*
X1897D01*
X1787D02*
X1811D01*
X1611D02*
X1633D01*
X1557D02*
X1585D01*
X1857Y1036D02*
X1899D01*
X1785D02*
X1811D01*
X1613D02*
X1635D01*
X1555D02*
X1583D01*
X1855Y1038D02*
X1901D01*
X1783D02*
X1809D01*
X1613D02*
X1637D01*
X1553D02*
X1581D01*
X1855Y1040D02*
X1903D01*
X1781D02*
X1807D01*
X1615D02*
X1637D01*
X1551D02*
X1579D01*
X1853Y1042D02*
X1905D01*
X1779D02*
X1805D01*
X1617D02*
X1639D01*
X1549D02*
X1577D01*
X1881Y1044D02*
X1907D01*
X1853D02*
X1877D01*
X1779D02*
X1803D01*
X1619D02*
X1641D01*
X1547D02*
X1573D01*
X1883Y1046D02*
X1909D01*
X1851D02*
X1875D01*
X1777D02*
X1801D01*
X1619D02*
X1643D01*
X1545D02*
X1571D01*
X1885Y1048D02*
X1911D01*
X1851D02*
X1875D01*
X1775D02*
X1799D01*
X1621D02*
X1643D01*
X1543D02*
X1569D01*
X1887Y1050D02*
X1913D01*
X1849D02*
X1873D01*
X1773D02*
X1799D01*
X1623D02*
X1645D01*
X1541D02*
X1567D01*
X1889Y1052D02*
X1915D01*
X1847D02*
X1873D01*
X1771D02*
X1797D01*
X1625D02*
X1647D01*
X1539D02*
X1565D01*
X1891Y1054D02*
X1917D01*
X1847D02*
X1871D01*
X1771D02*
X1795D01*
X1625D02*
X1649D01*
X1537D02*
X1563D01*
X1893Y1056D02*
X1919D01*
X1845D02*
X1871D01*
X1769D02*
X1793D01*
X1627D02*
X1649D01*
X1535D02*
X1561D01*
X1895Y1058D02*
X1921D01*
X1845D02*
X1869D01*
X1767D02*
X1793D01*
X1629D02*
X1651D01*
X1533D02*
X1559D01*
X1897Y1060D02*
X1923D01*
X1843D02*
X1869D01*
X1765D02*
X1791D01*
X1629D02*
X1653D01*
X1531D02*
X1557D01*
X1899Y1062D02*
X1925D01*
X1843D02*
X1867D01*
X1763D02*
X1789D01*
X1631D02*
X1655D01*
X1531D02*
X1555D01*
X1901Y1064D02*
X1925D01*
X1841D02*
X1867D01*
X1763D02*
X1787D01*
X1633D02*
X1655D01*
X1529D02*
X1553D01*
X1903Y1066D02*
X1927D01*
X1841D02*
X1865D01*
X1761D02*
X1785D01*
X1635D02*
X1657D01*
X1527D02*
X1551D01*
X1905Y1068D02*
X1929D01*
X1839D02*
X1863D01*
X1759D02*
X1783D01*
X1635D02*
X1659D01*
X1525D02*
X1549D01*
X1907Y1070D02*
X1931D01*
X1839D02*
X1863D01*
X1757D02*
X1783D01*
X1637D02*
X1659D01*
X1525D02*
X1547D01*
X1909Y1072D02*
X1931D01*
X1837D02*
X1861D01*
X1755D02*
X1781D01*
X1639D02*
X1659D01*
X1523D02*
X1545D01*
X1911Y1074D02*
X1933D01*
X1835D02*
X1861D01*
X1755D02*
X1779D01*
X1641D02*
X1661D01*
X1521D02*
X1545D01*
X1911Y1076D02*
X1935D01*
X1835D02*
X1859D01*
X1753D02*
X1777D01*
X1641D02*
X1661D01*
X1519D02*
X1543D01*
X1913Y1078D02*
X1937D01*
X1833D02*
X1859D01*
X1751D02*
X1775D01*
X1641D02*
X1661D01*
X1519D02*
X1541D01*
X1915Y1080D02*
X1937D01*
X1833D02*
X1857D01*
X1749D02*
X1775D01*
X1639D02*
X1661D01*
X1517D02*
X1539D01*
X1917Y1082D02*
X1939D01*
X1831D02*
X1857D01*
X1747D02*
X1773D01*
X1635D02*
X1661D01*
X1515D02*
X1537D01*
X1919Y1084D02*
X1941D01*
X1831D02*
X1855D01*
X1745D02*
X1771D01*
X1633D02*
X1659D01*
X1515D02*
X1537D01*
X1919Y1086D02*
X1941D01*
X1829D02*
X1855D01*
X1745D02*
X1769D01*
X1629D02*
X1659D01*
X1513D02*
X1535D01*
X1921Y1088D02*
X1943D01*
X1829D02*
X1853D01*
X1743D02*
X1767D01*
X1627D02*
X1657D01*
X1511D02*
X1533D01*
X1923Y1090D02*
X1945D01*
X1827D02*
X1851D01*
X1741D02*
X1765D01*
X1625D02*
X1655D01*
X1511D02*
X1533D01*
X1923Y1092D02*
X1945D01*
X1825D02*
X1851D01*
X1739D02*
X1765D01*
X1621D02*
X1653D01*
X1509D02*
X1531D01*
X1925Y1094D02*
X1947D01*
X1825D02*
X1849D01*
X1737D02*
X1763D01*
X1619D02*
X1651D01*
X1507D02*
X1529D01*
X1927Y1096D02*
X1947D01*
X1823D02*
X1849D01*
X1735D02*
X1761D01*
X1617D02*
X1647D01*
X1507D02*
X1529D01*
X1927Y1098D02*
X1949D01*
X1823D02*
X1847D01*
X1735D02*
X1759D01*
X1615D02*
X1645D01*
X1505D02*
X1527D01*
X1929Y1100D02*
X1951D01*
X1821D02*
X1847D01*
X1733D02*
X1757D01*
X1613D02*
X1641D01*
X1505D02*
X1525D01*
X1931Y1102D02*
X1951D01*
X1821D02*
X1845D01*
X1731D02*
X1755D01*
X1611D02*
X1639D01*
X1503D02*
X1525D01*
X1931Y1104D02*
X1953D01*
X1819D02*
X1847D01*
X1729D02*
X1755D01*
X1609D02*
X1635D01*
X1503D02*
X1523D01*
X1933Y1106D02*
X1953D01*
X1819D02*
X1849D01*
X1727D02*
X1753D01*
X1605D02*
X1633D01*
X1501D02*
X1523D01*
X1933Y1108D02*
X1955D01*
X1817D02*
X1851D01*
X1727D02*
X1751D01*
X1603D02*
X1631D01*
X1499D02*
X1521D01*
X1935Y1110D02*
X1955D01*
X1815D02*
X1853D01*
X1725D02*
X1749D01*
X1603D02*
X1629D01*
X1499D02*
X1519D01*
X1935Y1112D02*
X1957D01*
X1815D02*
X1855D01*
X1723D02*
X1747D01*
X1601D02*
X1627D01*
X1497D02*
X1519D01*
X1937Y1114D02*
X1957D01*
X1813D02*
X1857D01*
X1721D02*
X1747D01*
X1599D02*
X1625D01*
X1497D02*
X1517D01*
X1939Y1116D02*
X1959D01*
X1813D02*
X1857D01*
X1719D02*
X1745D01*
X1597D02*
X1623D01*
X1497D02*
X1517D01*
X1939Y1118D02*
X1959D01*
X1811D02*
X1859D01*
X1719D02*
X1743D01*
X1595D02*
X1621D01*
X1495D02*
X1515D01*
X1939Y1120D02*
X1961D01*
X1837D02*
X1861D01*
X1811D02*
X1833D01*
X1717D02*
X1741D01*
X1593D02*
X1619D01*
X1495D02*
X1515D01*
X1941Y1122D02*
X1961D01*
X1839D02*
X1863D01*
X1809D02*
X1831D01*
X1715D02*
X1739D01*
X1591D02*
X1615D01*
X1493D02*
X1513D01*
X1941Y1124D02*
X1961D01*
X1841D02*
X1865D01*
X1809D02*
X1831D01*
X1713D02*
X1739D01*
X1589D02*
X1615D01*
X1493D02*
X1513D01*
X1943Y1126D02*
X1963D01*
X1843D02*
X1867D01*
X1807D02*
X1829D01*
X1711D02*
X1737D01*
X1589D02*
X1613D01*
X1491D02*
X1511D01*
X1943Y1128D02*
X1963D01*
X1845D02*
X1867D01*
X1807D02*
X1829D01*
X1709D02*
X1735D01*
X1587D02*
X1611D01*
X1491D02*
X1511D01*
X1945Y1130D02*
X1965D01*
X1845D02*
X1869D01*
X1805D02*
X1827D01*
X1709D02*
X1733D01*
X1585D02*
X1609D01*
X1489D02*
X1509D01*
X1945Y1132D02*
X1965D01*
X1847D02*
X1871D01*
X1803D02*
X1827D01*
X1707D02*
X1731D01*
X1585D02*
X1607D01*
X1489D02*
X1509D01*
X1947Y1134D02*
X1967D01*
X1849D02*
X1871D01*
X1803D02*
X1825D01*
X1705D02*
X1729D01*
X1583D02*
X1605D01*
X1489D02*
X1509D01*
X1947Y1136D02*
X1967D01*
X1851D02*
X1873D01*
X1801D02*
X1825D01*
X1703D02*
X1729D01*
X1581D02*
X1603D01*
X1487D02*
X1507D01*
X1949Y1138D02*
X1967D01*
X1853D02*
X1875D01*
X1801D02*
X1823D01*
X1701D02*
X1727D01*
X1581D02*
X1603D01*
X1487D02*
X1507D01*
X1949Y1140D02*
X1969D01*
X1853D02*
X1875D01*
X1799D02*
X1821D01*
X1699D02*
X1725D01*
X1579D02*
X1601D01*
X1487D02*
X1505D01*
X1949Y1142D02*
X1969D01*
X1855D02*
X1877D01*
X1799D02*
X1821D01*
X1699D02*
X1723D01*
X1577D02*
X1599D01*
X1485D02*
X1505D01*
X1951Y1144D02*
X1969D01*
X1857D02*
X1877D01*
X1797D02*
X1819D01*
X1697D02*
X1723D01*
X1577D02*
X1599D01*
X1485D02*
X1505D01*
X1951Y1146D02*
X1971D01*
X1857D02*
X1879D01*
X1797D02*
X1819D01*
X1695D02*
X1721D01*
X1575D02*
X1597D01*
X1485D02*
X1503D01*
X1951Y1148D02*
X1971D01*
X1859D02*
X1879D01*
X1795D02*
X1817D01*
X1693D02*
X1719D01*
X1575D02*
X1595D01*
X1483D02*
X1503D01*
X1953Y1150D02*
X1971D01*
X1861D02*
X1881D01*
X1793D02*
X1817D01*
X1691D02*
X1717D01*
X1573D02*
X1595D01*
X1483D02*
X1503D01*
X1953Y1152D02*
X1973D01*
X1861D02*
X1881D01*
X1793D02*
X1815D01*
X1691D02*
X1715D01*
X1573D02*
X1593D01*
X1483D02*
X1501D01*
X1953Y1154D02*
X1973D01*
X1863D02*
X1883D01*
X1791D02*
X1815D01*
X1689D02*
X1713D01*
X1571D02*
X1593D01*
X1481D02*
X1501D01*
X1955Y1156D02*
X1973D01*
X1863D02*
X1885D01*
X1791D02*
X1813D01*
X1687D02*
X1713D01*
X1571D02*
X1591D01*
X1481D02*
X1501D01*
X1955Y1158D02*
X1973D01*
X1865D02*
X1885D01*
X1789D02*
X1811D01*
X1685D02*
X1711D01*
X1569D02*
X1589D01*
X1481D02*
X1499D01*
X1955Y1160D02*
X1975D01*
X1865D02*
X1885D01*
X1789D02*
X1811D01*
X1683D02*
X1709D01*
X1569D02*
X1589D01*
X1479D02*
X1499D01*
X1957Y1162D02*
X1975D01*
X1867D02*
X1887D01*
X1787D02*
X1809D01*
X1681D02*
X1707D01*
X1567D02*
X1587D01*
X1479D02*
X1499D01*
X1957Y1164D02*
X1975D01*
X1867D02*
X1887D01*
X1787D02*
X1809D01*
X1681D02*
X1705D01*
X1567D02*
X1587D01*
X1479D02*
X1497D01*
X1957Y1166D02*
X1977D01*
X1869D02*
X1889D01*
X1785D02*
X1807D01*
X1679D02*
X1703D01*
X1567D02*
X1587D01*
X1479D02*
X1497D01*
X1957Y1168D02*
X1977D01*
X1869D02*
X1889D01*
X1785D02*
X1807D01*
X1677D02*
X1703D01*
X1565D02*
X1585D01*
X1477D02*
X1497D01*
X1959Y1170D02*
X1977D01*
X1871D02*
X1889D01*
X1783D02*
X1805D01*
X1675D02*
X1701D01*
X1565D02*
X1585D01*
X1477D02*
X1497D01*
X1959Y1172D02*
X1977D01*
X1871D02*
X1891D01*
X1783D02*
X1805D01*
X1673D02*
X1699D01*
X1565D02*
X1583D01*
X1477D02*
X1495D01*
X1959Y1174D02*
X1979D01*
X1871D02*
X1891D01*
X1781D02*
X1803D01*
X1673D02*
X1697D01*
X1563D02*
X1583D01*
X1477D02*
X1495D01*
X1959Y1176D02*
X1979D01*
X1873D02*
X1891D01*
X1781D02*
X1803D01*
X1671D02*
X1695D01*
X1563D02*
X1583D01*
X1477D02*
X1495D01*
X1961Y1178D02*
X1979D01*
X1873D02*
X1893D01*
X1779D02*
X1801D01*
X1669D02*
X1695D01*
X1563D02*
X1581D01*
X1475D02*
X1495D01*
X1961Y1180D02*
X1979D01*
X1873D02*
X1893D01*
X1777D02*
X1799D01*
X1667D02*
X1693D01*
X1561D02*
X1581D01*
X1475D02*
X1495D01*
X1961Y1182D02*
X1979D01*
X1875D02*
X1893D01*
X1777D02*
X1799D01*
X1665D02*
X1691D01*
X1561D02*
X1579D01*
X1475D02*
X1493D01*
X1961Y1184D02*
X1979D01*
X1875D02*
X1895D01*
X1775D02*
X1801D01*
X1665D02*
X1689D01*
X1561D02*
X1579D01*
X1475D02*
X1493D01*
X1961Y1186D02*
X1981D01*
X1875D02*
X1895D01*
X1775D02*
X1811D01*
X1663D02*
X1687D01*
X1559D02*
X1579D01*
X1475D02*
X1493D01*
X1961Y1188D02*
X1981D01*
X1877D02*
X1895D01*
X1773D02*
X1817D01*
X1661D02*
X1685D01*
X1559D02*
X1579D01*
X1473D02*
X1493D01*
X1963Y1190D02*
X1981D01*
X1877D02*
X1895D01*
X1773D02*
X1827D01*
X1659D02*
X1685D01*
X1559D02*
X1577D01*
X1473D02*
X1493D01*
X1963Y1192D02*
X1981D01*
X1877D02*
X1897D01*
X1769D02*
X1835D01*
X1657D02*
X1683D01*
X1559D02*
X1577D01*
X1473D02*
X1491D01*
X1963Y1194D02*
X1981D01*
X1877D02*
X1897D01*
X1769D02*
X1839D01*
X1655D02*
X1681D01*
X1557D02*
X1577D01*
X1473D02*
X1491D01*
X1963Y1196D02*
X1981D01*
X1879D02*
X1897D01*
X1771D02*
X1843D01*
X1655D02*
X1679D01*
X1557D02*
X1577D01*
X1473D02*
X1491D01*
X1963Y1198D02*
X1983D01*
X1879D02*
X1897D01*
X1773D02*
X1845D01*
X1653D02*
X1677D01*
X1557D02*
X1575D01*
X1473D02*
X1491D01*
X1963Y1200D02*
X1983D01*
X1879D02*
X1897D01*
X1785D02*
X1845D01*
X1651D02*
X1675D01*
X1557D02*
X1575D01*
X1473D02*
X1491D01*
X1965Y1202D02*
X1983D01*
X1879D02*
X1899D01*
X1791D02*
X1847D01*
X1649D02*
X1675D01*
X1557D02*
X1575D01*
X1471D02*
X1491D01*
X1965Y1204D02*
X1983D01*
X1879D02*
X1899D01*
X1799D02*
X1847D01*
X1647D02*
X1673D01*
X1557D02*
X1575D01*
X1471D02*
X1489D01*
X1965Y1206D02*
X1983D01*
X1881D02*
X1899D01*
X1809D02*
X1849D01*
X1647D02*
X1671D01*
X1555D02*
X1575D01*
X1471D02*
X1489D01*
X1965Y1208D02*
X1983D01*
X1881D02*
X1899D01*
X1819D02*
X1849D01*
X1645D02*
X1669D01*
X1555D02*
X1575D01*
X1471D02*
X1489D01*
X1965Y1210D02*
X1983D01*
X1881D02*
X1899D01*
X1827D02*
X1849D01*
X1643D02*
X1669D01*
X1555D02*
X1573D01*
X1471D02*
X1489D01*
X1965Y1212D02*
X1983D01*
X1881D02*
X1899D01*
X1827D02*
X1849D01*
X1641D02*
X1667D01*
X1555D02*
X1573D01*
X1471D02*
X1489D01*
X1965Y1214D02*
X1985D01*
X1881D02*
X1899D01*
X1825D02*
X1847D01*
X1639D02*
X1665D01*
X1555D02*
X1573D01*
X1471D02*
X1489D01*
X1965Y1216D02*
X1985D01*
X1881D02*
X1901D01*
X1823D02*
X1847D01*
X1637D02*
X1663D01*
X1555D02*
X1573D01*
X1471D02*
X1489D01*
X1965Y1218D02*
X1983D01*
X1881D02*
X1901D01*
X1821D02*
X1847D01*
X1637D02*
X1661D01*
X1555D02*
X1573D01*
X1469D02*
X1489D01*
X1967Y1220D02*
X1985D01*
X1881D02*
X1901D01*
X1819D02*
X1845D01*
X1635D02*
X1659D01*
X1555D02*
X1573D01*
X1469D02*
X1489D01*
X1967Y1222D02*
X1985D01*
X1883D02*
X1901D01*
X1817D02*
X1843D01*
X1633D02*
X1659D01*
X1553D02*
X1573D01*
X1469D02*
X1489D01*
X1967Y1224D02*
X1985D01*
X1883D02*
X1901D01*
X1815D02*
X1841D01*
X1631D02*
X1657D01*
X1553D02*
X1573D01*
X1469D02*
X1489D01*
X1967Y1226D02*
X1985D01*
X1883D02*
X1901D01*
X1815D02*
X1841D01*
X1629D02*
X1655D01*
X1553D02*
X1573D01*
X1471D02*
X1489D01*
X1967Y1228D02*
X1985D01*
X1883D02*
X1901D01*
X1813D02*
X1839D01*
X1629D02*
X1653D01*
X1553D02*
X1573D01*
X1469D02*
X1489D01*
X1967Y1230D02*
X1985D01*
X1883D02*
X1901D01*
X1811D02*
X1837D01*
X1627D02*
X1651D01*
X1553D02*
X1571D01*
X1469D02*
X1489D01*
X1967Y1232D02*
X1985D01*
X1883D02*
X1901D01*
X1809D02*
X1835D01*
X1625D02*
X1651D01*
X1553D02*
X1571D01*
X1469D02*
X1489D01*
X1967Y1234D02*
X1985D01*
X1883D02*
X1901D01*
X1809D02*
X1833D01*
X1623D02*
X1649D01*
X1553D02*
X1571D01*
X1469D02*
X1489D01*
X1967Y1236D02*
X1985D01*
X1883D02*
X1901D01*
X1807D02*
X1831D01*
X1621D02*
X1647D01*
X1553D02*
X1573D01*
X1469D02*
X1489D01*
X1967Y1238D02*
X1985D01*
X1883D02*
X1901D01*
X1805D02*
X1829D01*
X1621D02*
X1645D01*
X1553D02*
X1573D01*
X1469D02*
X1489D01*
X1967Y1240D02*
X1985D01*
X1883D02*
X1901D01*
X1803D02*
X1829D01*
X1621D02*
X1643D01*
X1553D02*
X1571D01*
X1469D02*
X1489D01*
X1967Y1242D02*
X1985D01*
X1883D02*
X1901D01*
X1801D02*
X1827D01*
X1619D02*
X1641D01*
X1553D02*
X1571D01*
X1469D02*
X1489D01*
X1967Y1244D02*
X1985D01*
X1883D02*
X1901D01*
X1799D02*
X1825D01*
X1619D02*
X1641D01*
X1553D02*
X1571D01*
X1469D02*
X1489D01*
X1967Y1246D02*
X1985D01*
X1883D02*
X1901D01*
X1797D02*
X1823D01*
X1619D02*
X1647D01*
X1553D02*
X1573D01*
X1469D02*
X1489D01*
X1967Y1248D02*
X1985D01*
X1883D02*
X1901D01*
X1795D02*
X1821D01*
X1619D02*
X1655D01*
X1553D02*
X1573D01*
X1469D02*
X1489D01*
X1967Y1250D02*
X1985D01*
X1883D02*
X1901D01*
X1795D02*
X1819D01*
X1619D02*
X1663D01*
X1555D02*
X1573D01*
X1469D02*
X1489D01*
X1967Y1252D02*
X1985D01*
X1881D02*
X1901D01*
X1793D02*
X1819D01*
X1621D02*
X1671D01*
X1555D02*
X1573D01*
X1469D02*
X1489D01*
X1965Y1254D02*
X1985D01*
X1881D02*
X1901D01*
X1791D02*
X1817D01*
X1621D02*
X1681D01*
X1555D02*
X1573D01*
X1471D02*
X1489D01*
X1965Y1256D02*
X1985D01*
X1881D02*
X1899D01*
X1789D02*
X1815D01*
X1623D02*
X1691D01*
X1555D02*
X1573D01*
X1471D02*
X1489D01*
X1965Y1258D02*
X1985D01*
X1881D02*
X1899D01*
X1787D02*
X1813D01*
X1625D02*
X1697D01*
X1555D02*
X1573D01*
X1471D02*
X1489D01*
X1965Y1260D02*
X1983D01*
X1881D02*
X1899D01*
X1785D02*
X1811D01*
X1627D02*
X1699D01*
X1555D02*
X1573D01*
X1471D02*
X1489D01*
X1965Y1262D02*
X1983D01*
X1881D02*
X1899D01*
X1785D02*
X1809D01*
X1631D02*
X1699D01*
X1555D02*
X1573D01*
X1471D02*
X1489D01*
X1965Y1264D02*
X1983D01*
X1881D02*
X1899D01*
X1783D02*
X1807D01*
X1637D02*
X1697D01*
X1555D02*
X1575D01*
X1471D02*
X1489D01*
X1965Y1266D02*
X1983D01*
X1881D02*
X1899D01*
X1781D02*
X1807D01*
X1645D02*
X1695D01*
X1555D02*
X1575D01*
X1471D02*
X1489D01*
X1965Y1268D02*
X1983D01*
X1879D02*
X1899D01*
X1779D02*
X1805D01*
X1653D02*
X1693D01*
X1557D02*
X1575D01*
X1471D02*
X1489D01*
X1965Y1270D02*
X1983D01*
X1879D02*
X1899D01*
X1777D02*
X1803D01*
X1663D02*
X1693D01*
X1557D02*
X1575D01*
X1471D02*
X1491D01*
X1963Y1272D02*
X1983D01*
X1879D02*
X1897D01*
X1775D02*
X1801D01*
X1669D02*
X1691D01*
X1557D02*
X1575D01*
X1473D02*
X1491D01*
X1963Y1274D02*
X1983D01*
X1879D02*
X1897D01*
X1773D02*
X1799D01*
X1667D02*
X1691D01*
X1557D02*
X1575D01*
X1473D02*
X1491D01*
X1963Y1276D02*
X1981D01*
X1879D02*
X1897D01*
X1773D02*
X1797D01*
X1667D02*
X1689D01*
X1557D02*
X1577D01*
X1473D02*
X1491D01*
X1963Y1278D02*
X1981D01*
X1877D02*
X1897D01*
X1769D02*
X1797D01*
X1665D02*
X1689D01*
X1559D02*
X1577D01*
X1473D02*
X1491D01*
X1963Y1280D02*
X1981D01*
X1877D02*
X1897D01*
X1769D02*
X1795D01*
X1665D02*
X1687D01*
X1559D02*
X1577D01*
X1473D02*
X1491D01*
X1963Y1282D02*
X1981D01*
X1877D02*
X1895D01*
X1767D02*
X1793D01*
X1663D02*
X1685D01*
X1559D02*
X1577D01*
X1473D02*
X1493D01*
X1963Y1284D02*
X1981D01*
X1877D02*
X1895D01*
X1765D02*
X1791D01*
X1661D02*
X1685D01*
X1559D02*
X1579D01*
X1473D02*
X1493D01*
X1961Y1286D02*
X1981D01*
X1875D02*
X1895D01*
X1765D02*
X1789D01*
X1661D02*
X1683D01*
X1559D02*
X1579D01*
X1475D02*
X1493D01*
X1961Y1288D02*
X1981D01*
X1875D02*
X1893D01*
X1763D02*
X1787D01*
X1659D02*
X1683D01*
X1561D02*
X1579D01*
X1475D02*
X1493D01*
X1961Y1290D02*
X1979D01*
X1873D02*
X1893D01*
X1761D02*
X1787D01*
X1659D02*
X1681D01*
X1561D02*
X1581D01*
X1475D02*
X1493D01*
X1961Y1292D02*
X1979D01*
X1873D02*
X1893D01*
X1759D02*
X1785D01*
X1657D02*
X1679D01*
X1561D02*
X1581D01*
X1475D02*
X1493D01*
X1961Y1294D02*
X1979D01*
X1873D02*
X1891D01*
X1757D02*
X1783D01*
X1655D02*
X1679D01*
X1563D02*
X1583D01*
X1475D02*
X1495D01*
X1959Y1296D02*
X1979D01*
X1871D02*
X1891D01*
X1755D02*
X1781D01*
X1655D02*
X1677D01*
X1563D02*
X1583D01*
X1475D02*
X1495D01*
X1959Y1298D02*
X1979D01*
X1871D02*
X1891D01*
X1753D02*
X1779D01*
X1653D02*
X1675D01*
X1565D02*
X1583D01*
X1477D02*
X1495D01*
X1959Y1300D02*
X1977D01*
X1871D02*
X1889D01*
X1753D02*
X1777D01*
X1651D02*
X1675D01*
X1565D02*
X1585D01*
X1477D02*
X1495D01*
X1959Y1302D02*
X1977D01*
X1869D02*
X1889D01*
X1751D02*
X1775D01*
X1651D02*
X1673D01*
X1565D02*
X1585D01*
X1477D02*
X1497D01*
X1957Y1304D02*
X1977D01*
X1869D02*
X1889D01*
X1749D02*
X1775D01*
X1649D02*
X1673D01*
X1567D02*
X1587D01*
X1477D02*
X1497D01*
X1957Y1306D02*
X1977D01*
X1867D02*
X1887D01*
X1747D02*
X1773D01*
X1649D02*
X1671D01*
X1567D02*
X1587D01*
X1479D02*
X1497D01*
X1957Y1308D02*
X1975D01*
X1867D02*
X1887D01*
X1745D02*
X1771D01*
X1647D02*
X1671D01*
X1567D02*
X1589D01*
X1479D02*
X1497D01*
X1957Y1310D02*
X1975D01*
X1865D02*
X1885D01*
X1743D02*
X1769D01*
X1647D02*
X1669D01*
X1569D02*
X1589D01*
X1479D02*
X1499D01*
X1955Y1312D02*
X1975D01*
X1865D02*
X1885D01*
X1743D02*
X1767D01*
X1645D02*
X1667D01*
X1569D02*
X1591D01*
X1479D02*
X1499D01*
X1955Y1314D02*
X1973D01*
X1863D02*
X1883D01*
X1741D02*
X1765D01*
X1643D02*
X1667D01*
X1571D02*
X1591D01*
X1481D02*
X1499D01*
X1953Y1316D02*
X1973D01*
X1861D02*
X1883D01*
X1739D02*
X1765D01*
X1643D02*
X1665D01*
X1571D02*
X1593D01*
X1481D02*
X1501D01*
X1953Y1318D02*
X1973D01*
X1861D02*
X1881D01*
X1737D02*
X1763D01*
X1641D02*
X1663D01*
X1573D02*
X1593D01*
X1481D02*
X1501D01*
X1953Y1320D02*
X1973D01*
X1859D02*
X1881D01*
X1735D02*
X1761D01*
X1639D02*
X1663D01*
X1573D02*
X1595D01*
X1483D02*
X1501D01*
X1953Y1322D02*
X1971D01*
X1859D02*
X1879D01*
X1733D02*
X1759D01*
X1729D02*
X1731D01*
X1639D02*
X1661D01*
X1575D02*
X1597D01*
X1483D02*
X1503D01*
X1951Y1324D02*
X1971D01*
X1857D02*
X1879D01*
X1731D02*
X1757D01*
X1637D02*
X1661D01*
X1577D02*
X1597D01*
X1483D02*
X1503D01*
X1951Y1326D02*
X1971D01*
X1855D02*
X1877D01*
X1731D02*
X1755D01*
X1637D02*
X1659D01*
X1577D02*
X1599D01*
X1485D02*
X1503D01*
X1951Y1328D02*
X1969D01*
X1855D02*
X1877D01*
X1729D02*
X1753D01*
X1635D02*
X1659D01*
X1579D02*
X1601D01*
X1485D02*
X1505D01*
X1949Y1330D02*
X1969D01*
X1853D02*
X1875D01*
X1727D02*
X1753D01*
X1635D02*
X1657D01*
X1579D02*
X1601D01*
X1485D02*
X1505D01*
X1949Y1332D02*
X1969D01*
X1851D02*
X1873D01*
X1725D02*
X1751D01*
X1633D02*
X1655D01*
X1581D02*
X1603D01*
X1487D02*
X1507D01*
X1947Y1334D02*
X1967D01*
X1849D02*
X1873D01*
X1723D02*
X1749D01*
X1631D02*
X1655D01*
X1581D02*
X1605D01*
X1487D02*
X1507D01*
X1947Y1336D02*
X1967D01*
X1849D02*
X1871D01*
X1721D02*
X1747D01*
X1631D02*
X1653D01*
X1583D02*
X1607D01*
X1487D02*
X1507D01*
X1947Y1338D02*
X1965D01*
X1847D02*
X1869D01*
X1719D02*
X1745D01*
X1629D02*
X1653D01*
X1585D02*
X1607D01*
X1489D02*
X1509D01*
X1945Y1340D02*
X1965D01*
X1845D02*
X1869D01*
X1719D02*
X1743D01*
X1627D02*
X1651D01*
X1587D02*
X1609D01*
X1489D02*
X1509D01*
X1943Y1342D02*
X1965D01*
X1843D02*
X1867D01*
X1717D02*
X1743D01*
X1627D02*
X1649D01*
X1587D02*
X1611D01*
X1491D02*
X1511D01*
X1943Y1344D02*
X1963D01*
X1841D02*
X1865D01*
X1715D02*
X1741D01*
X1625D02*
X1649D01*
X1589D02*
X1613D01*
X1491D02*
X1511D01*
X1943Y1346D02*
X1963D01*
X1841D02*
X1863D01*
X1713D02*
X1739D01*
X1625D02*
X1647D01*
X1591D02*
X1615D01*
X1493D02*
X1513D01*
X1941Y1348D02*
X1961D01*
X1839D02*
X1863D01*
X1711D02*
X1737D01*
X1623D02*
X1645D01*
X1593D02*
X1617D01*
X1493D02*
X1513D01*
X1941Y1350D02*
X1961D01*
X1837D02*
X1861D01*
X1711D02*
X1735D01*
X1621D02*
X1645D01*
X1593D02*
X1619D01*
X1495D02*
X1515D01*
X1939Y1352D02*
X1959D01*
X1835D02*
X1859D01*
X1709D02*
X1733D01*
X1595D02*
X1643D01*
X1495D02*
X1515D01*
X1939Y1354D02*
X1959D01*
X1833D02*
X1857D01*
X1707D02*
X1731D01*
X1597D02*
X1643D01*
X1495D02*
X1517D01*
X1937Y1356D02*
X1957D01*
X1831D02*
X1855D01*
X1705D02*
X1731D01*
X1599D02*
X1641D01*
X1497D02*
X1517D01*
X1935Y1358D02*
X1957D01*
X1827D02*
X1853D01*
X1703D02*
X1729D01*
X1601D02*
X1639D01*
X1497D02*
X1519D01*
X1935Y1360D02*
X1955D01*
X1825D02*
X1853D01*
X1701D02*
X1727D01*
X1603D02*
X1639D01*
X1499D02*
X1519D01*
X1933Y1362D02*
X1955D01*
X1823D02*
X1851D01*
X1699D02*
X1725D01*
X1605D02*
X1637D01*
X1499D02*
X1521D01*
X1933Y1364D02*
X1953D01*
X1821D02*
X1847D01*
X1697D02*
X1723D01*
X1607D02*
X1637D01*
X1501D02*
X1523D01*
X1931Y1366D02*
X1953D01*
X1817D02*
X1845D01*
X1697D02*
X1721D01*
X1607D02*
X1635D01*
X1503D02*
X1523D01*
X1929Y1368D02*
X1951D01*
X1815D02*
X1843D01*
X1695D02*
X1719D01*
X1609D02*
X1633D01*
X1503D02*
X1525D01*
X1929Y1370D02*
X1951D01*
X1813D02*
X1841D01*
X1693D02*
X1719D01*
X1607D02*
X1633D01*
X1505D02*
X1525D01*
X1927Y1372D02*
X1949D01*
X1809D02*
X1839D01*
X1691D02*
X1717D01*
X1605D02*
X1631D01*
X1505D02*
X1527D01*
X1927Y1374D02*
X1947D01*
X1807D02*
X1837D01*
X1689D02*
X1715D01*
X1605D02*
X1629D01*
X1507D02*
X1529D01*
X1925Y1376D02*
X1947D01*
X1805D02*
X1835D01*
X1687D02*
X1713D01*
X1603D02*
X1629D01*
X1507D02*
X1529D01*
X1923Y1378D02*
X1945D01*
X1803D02*
X1833D01*
X1685D02*
X1711D01*
X1603D02*
X1627D01*
X1509D02*
X1531D01*
X1921Y1380D02*
X1945D01*
X1801D02*
X1831D01*
X1685D02*
X1709D01*
X1601D02*
X1627D01*
X1511D02*
X1533D01*
X1921Y1382D02*
X1943D01*
X1801D02*
X1827D01*
X1683D02*
X1709D01*
X1599D02*
X1625D01*
X1511D02*
X1535D01*
X1919Y1384D02*
X1941D01*
X1799D02*
X1825D01*
X1681D02*
X1707D01*
X1599D02*
X1625D01*
X1513D02*
X1535D01*
X1917Y1386D02*
X1941D01*
X1799D02*
X1821D01*
X1679D02*
X1705D01*
X1597D02*
X1623D01*
X1515D02*
X1537D01*
X1917Y1388D02*
X1939D01*
X1799D02*
X1819D01*
X1679D02*
X1703D01*
X1597D02*
X1621D01*
X1515D02*
X1539D01*
X1915Y1390D02*
X1937D01*
X1799D02*
X1817D01*
X1675D02*
X1701D01*
X1595D02*
X1621D01*
X1517D02*
X1539D01*
X1913Y1392D02*
X1935D01*
X1799D02*
X1819D01*
X1675D02*
X1699D01*
X1593D02*
X1619D01*
X1519D02*
X1541D01*
X1911Y1394D02*
X1935D01*
X1799D02*
X1819D01*
X1673D02*
X1699D01*
X1593D02*
X1619D01*
X1519D02*
X1543D01*
X1909Y1396D02*
X1933D01*
X1801D02*
X1821D01*
X1669D02*
X1697D01*
X1591D02*
X1617D01*
X1521D02*
X1545D01*
X1907Y1398D02*
X1931D01*
X1801D02*
X1821D01*
X1669D02*
X1695D01*
X1591D02*
X1615D01*
X1523D02*
X1547D01*
X1907Y1400D02*
X1929D01*
X1801D02*
X1821D01*
X1667D02*
X1693D01*
X1589D02*
X1615D01*
X1525D02*
X1549D01*
X1905Y1402D02*
X1929D01*
X1803D02*
X1823D01*
X1665D02*
X1691D01*
X1587D02*
X1613D01*
X1527D02*
X1549D01*
X1903Y1404D02*
X1927D01*
X1803D02*
X1823D01*
X1665D02*
X1689D01*
X1587D02*
X1613D01*
X1527D02*
X1551D01*
X1901Y1406D02*
X1925D01*
X1805D02*
X1825D01*
X1663D02*
X1687D01*
X1585D02*
X1611D01*
X1529D02*
X1553D01*
X1899Y1408D02*
X1923D01*
X1805D02*
X1825D01*
X1661D02*
X1687D01*
X1585D02*
X1609D01*
X1531D02*
X1555D01*
X1897Y1410D02*
X1921D01*
X1807D02*
X1827D01*
X1659D02*
X1685D01*
X1583D02*
X1609D01*
X1533D02*
X1557D01*
X1895Y1412D02*
X1921D01*
X1807D02*
X1827D01*
X1657D02*
X1683D01*
X1581D02*
X1607D01*
X1535D02*
X1559D01*
X1893Y1414D02*
X1919D01*
X1809D02*
X1829D01*
X1655D02*
X1681D01*
X1581D02*
X1605D01*
X1537D02*
X1561D01*
X1891Y1416D02*
X1917D01*
X1809D02*
X1829D01*
X1653D02*
X1679D01*
X1579D02*
X1605D01*
X1537D02*
X1563D01*
X1889Y1418D02*
X1915D01*
X1809D02*
X1829D01*
X1653D02*
X1677D01*
X1579D02*
X1603D01*
X1539D02*
X1565D01*
X1887Y1420D02*
X1913D01*
X1811D02*
X1831D01*
X1651D02*
X1677D01*
X1577D02*
X1603D01*
X1541D02*
X1567D01*
X1885Y1422D02*
X1911D01*
X1811D02*
X1831D01*
X1649D02*
X1675D01*
X1575D02*
X1601D01*
X1543D02*
X1569D01*
X1883Y1424D02*
X1909D01*
X1813D02*
X1833D01*
X1647D02*
X1673D01*
X1575D02*
X1601D01*
X1545D02*
X1571D01*
X1881Y1426D02*
X1907D01*
X1813D02*
X1833D01*
X1645D02*
X1671D01*
X1547D02*
X1599D01*
X1879Y1428D02*
X1905D01*
X1815D02*
X1835D01*
X1645D02*
X1669D01*
X1549D02*
X1599D01*
X1877Y1430D02*
X1903D01*
X1815D02*
X1835D01*
X1643D02*
X1667D01*
X1551D02*
X1597D01*
X1873Y1432D02*
X1901D01*
X1817D02*
X1837D01*
X1641D02*
X1665D01*
X1553D02*
X1595D01*
X1871Y1434D02*
X1899D01*
X1817D02*
X1837D01*
X1639D02*
X1665D01*
X1555D02*
X1595D01*
X1869Y1436D02*
X1897D01*
X1819D02*
X1837D01*
X1637D02*
X1663D01*
X1557D02*
X1593D01*
X1865Y1438D02*
X1895D01*
X1819D02*
X1839D01*
X1635D02*
X1661D01*
X1561D02*
X1591D01*
X1863Y1440D02*
X1893D01*
X1819D02*
X1839D01*
X1633D02*
X1659D01*
X1563D02*
X1591D01*
X1861Y1442D02*
X1891D01*
X1821D02*
X1841D01*
X1633D02*
X1657D01*
X1565D02*
X1589D01*
X1857Y1444D02*
X1887D01*
X1821D02*
X1841D01*
X1631D02*
X1655D01*
X1565D02*
X1589D01*
X1855Y1446D02*
X1885D01*
X1823D02*
X1843D01*
X1629D02*
X1655D01*
X1565D02*
X1587D01*
X1851Y1448D02*
X1883D01*
X1823D02*
X1843D01*
X1627D02*
X1653D01*
X1563D02*
X1585D01*
X1847Y1450D02*
X1881D01*
X1825D02*
X1845D01*
X1625D02*
X1651D01*
X1561D02*
X1585D01*
X1825Y1452D02*
X1877D01*
X1625D02*
X1649D01*
X1561D02*
X1583D01*
X1827Y1454D02*
X1875D01*
X1623D02*
X1647D01*
X1559D02*
X1581D01*
X1827Y1456D02*
X1873D01*
X1621D02*
X1645D01*
X1559D02*
X1581D01*
X1827Y1458D02*
X1869D01*
X1619D02*
X1645D01*
X1557D02*
X1579D01*
X1829Y1460D02*
X1867D01*
X1617D02*
X1643D01*
X1555D02*
X1579D01*
X1829Y1462D02*
X1863D01*
X1615D02*
X1641D01*
X1555D02*
X1577D01*
X1831Y1464D02*
X1859D01*
X1613D02*
X1639D01*
X1553D02*
X1575D01*
X1833Y1466D02*
X1857D01*
X1611D02*
X1637D01*
X1553D02*
X1575D01*
X1837Y1468D02*
X1853D01*
X1609D02*
X1635D01*
X1551D02*
X1573D01*
X1609Y1470D02*
X1635D01*
X1549D02*
X1573D01*
X1607Y1472D02*
X1633D01*
X1549D02*
X1571D01*
X1605Y1474D02*
X1631D01*
X1547D02*
X1569D01*
X1603Y1476D02*
X1629D01*
X1547D02*
X1569D01*
X1601Y1478D02*
X1627D01*
X1545D02*
X1567D01*
X1601Y1480D02*
X1625D01*
X1545D02*
X1567D01*
X1599Y1482D02*
X1623D01*
X1545D02*
X1565D01*
X1597Y1484D02*
X1623D01*
X1543D02*
X1563D01*
X1595Y1486D02*
X1621D01*
X1543D02*
X1565D01*
X1593Y1488D02*
X1619D01*
X1545D02*
X1567D01*
X1591Y1490D02*
X1617D01*
X1545D02*
X1571D01*
X1591Y1492D02*
X1615D01*
X1545D02*
X1573D01*
X1589Y1494D02*
X1613D01*
X1547D02*
X1577D01*
X1587Y1496D02*
X1611D01*
X1547D02*
X1579D01*
X1585Y1498D02*
X1611D01*
X1549D02*
X1581D01*
X1551Y1500D02*
X1609D01*
X1555Y1502D02*
X1607D01*
X1557Y1504D02*
X1605D01*
X1559Y1506D02*
X1603D01*
X1563Y1508D02*
X1601D01*
X1565Y1510D02*
X1601D01*
X1567Y1512D02*
X1599D01*
X1571Y1514D02*
X1597D01*
X1573Y1516D02*
X1595D01*
X1577Y1518D02*
X1591D01*
D28*
X2225Y2455D02*
Y2375D01*
X2265D01*
X2278Y2388D01*
Y2442D01*
X2265Y2455D01*
X2225D01*
X2305D02*
X2358D01*
X2332D01*
Y2375D01*
X2385Y2442D02*
X2398Y2455D01*
X2425D01*
X2438Y2442D01*
Y2388D01*
X2425Y2375D01*
X2398D01*
X2385Y2388D01*
Y2442D01*
X2505Y2375D02*
Y2455D01*
X2465Y2415D01*
X2518D01*
X2545D02*
X2598D01*
X2665Y2375D02*
Y2455D01*
X2625Y2415D01*
X2678D01*
X2705Y2375D02*
Y2455D01*
X2745D01*
X2758Y2442D01*
Y2415D01*
X2745Y2402D01*
X2705D01*
X1425Y2455D02*
Y2375D01*
X1465D01*
X1478Y2388D01*
Y2442D01*
X1465Y2455D01*
X1425D01*
X1505D02*
X1558D01*
X1532D01*
Y2375D01*
X1585Y2442D02*
X1598Y2455D01*
X1625D01*
X1638Y2442D01*
Y2388D01*
X1625Y2375D01*
X1598D01*
X1585Y2388D01*
Y2442D01*
X1718Y2455D02*
X1692Y2442D01*
X1665Y2415D01*
Y2388D01*
X1678Y2375D01*
X1705D01*
X1718Y2388D01*
Y2402D01*
X1705Y2415D01*
X1665D01*
X1745D02*
X1798D01*
X1865Y2375D02*
Y2455D01*
X1825Y2415D01*
X1878D01*
X1958Y2442D02*
X1945Y2455D01*
X1918D01*
X1905Y2442D01*
Y2428D01*
X1918Y2415D01*
X1945D01*
X1958Y2402D01*
Y2388D01*
X1945Y2375D01*
X1918D01*
X1905Y2388D01*
D29*
X80Y1351D02*
Y1291D01*
X110D01*
X120Y1301D01*
Y1341D01*
X110Y1351D01*
X80D01*
X140Y1291D02*
X160D01*
X150D01*
Y1351D01*
X140Y1341D01*
X3760Y1160D02*
Y1100D01*
X3790D01*
X3800Y1110D01*
Y1150D01*
X3790Y1160D01*
X3760D01*
X3860Y1100D02*
X3820D01*
X3860Y1140D01*
Y1150D01*
X3850Y1160D01*
X3830D01*
X3820Y1150D01*
X1457Y2095D02*
X1437D01*
Y2155D01*
X1457D01*
X1517Y2095D02*
Y2155D01*
X1487Y2125D01*
X1527D01*
X1547Y2095D02*
X1567D01*
Y2155D01*
X1547D01*
X1454Y1794D02*
X1434D01*
Y1854D01*
X1454D01*
X1484Y1844D02*
X1494Y1854D01*
X1514D01*
X1524Y1844D01*
Y1834D01*
X1514Y1824D01*
X1504D01*
X1514D01*
X1524Y1814D01*
Y1804D01*
X1514Y1794D01*
X1494D01*
X1484Y1804D01*
X1544Y1794D02*
X1564D01*
Y1854D01*
X1544D01*
X1855Y1795D02*
X1835D01*
Y1855D01*
X1855D01*
X1925Y1795D02*
X1885D01*
X1925Y1835D01*
Y1845D01*
X1915Y1855D01*
X1895D01*
X1885Y1845D01*
X1945Y1795D02*
X1965D01*
Y1855D01*
X1945D01*
X1865Y2096D02*
X1845D01*
Y2156D01*
X1865D01*
X1895Y2096D02*
X1915D01*
X1905D01*
Y2156D01*
X1895Y2146D01*
X1945Y2096D02*
X1965D01*
Y2156D01*
X1945D01*
X2653Y2096D02*
X2633D01*
Y2156D01*
X2653D01*
X2713Y2096D02*
Y2156D01*
X2683Y2126D01*
X2723D01*
X2743Y2096D02*
X2763D01*
Y2156D01*
X2743D01*
X2655Y1795D02*
X2635D01*
Y1855D01*
X2655D01*
X2685Y1845D02*
X2695Y1855D01*
X2715D01*
X2725Y1845D01*
Y1835D01*
X2715Y1825D01*
X2705D01*
X2715D01*
X2725Y1815D01*
Y1805D01*
X2715Y1795D01*
X2695D01*
X2685Y1805D01*
X2745Y1795D02*
X2765D01*
Y1855D01*
X2745D01*
X2258Y1786D02*
X2238D01*
Y1846D01*
X2258D01*
X2328Y1786D02*
X2288D01*
X2328Y1826D01*
Y1836D01*
X2318Y1846D01*
X2298D01*
X2288Y1836D01*
X2348Y1786D02*
X2368D01*
Y1846D01*
X2348D01*
X2262Y2098D02*
X2242D01*
Y2158D01*
X2262D01*
X2292Y2098D02*
X2312D01*
X2302D01*
Y2158D01*
X2292Y2148D01*
X2342Y2098D02*
X2362D01*
Y2158D01*
X2342D01*
X2870Y570D02*
X2850D01*
X2860D01*
Y520D01*
X2850Y510D01*
X2840D01*
X2830Y520D01*
X2890Y510D02*
Y570D01*
X2920D01*
X2930Y560D01*
Y540D01*
X2920Y530D01*
X2890D01*
X2950Y510D02*
X2970D01*
X2960D01*
Y570D01*
X2950Y560D01*
X3660Y1600D02*
Y1660D01*
X3690D01*
X3700Y1650D01*
Y1630D01*
X3690Y1620D01*
X3660D01*
X3680D02*
X3700Y1600D01*
X3720D02*
X3740D01*
X3730D01*
Y1660D01*
X3720Y1650D01*
X1401Y90D02*
X1361D01*
Y60D01*
X1381D01*
X1361D01*
Y30D01*
X1421D02*
X1441D01*
X1431D01*
Y90D01*
X1421Y80D01*
X2123Y1192D02*
Y1152D01*
X2143Y1132D01*
X2163Y1152D01*
Y1192D01*
X2183Y1132D02*
X2203D01*
X2193D01*
Y1192D01*
X2183Y1182D01*
X2233D02*
X2243Y1192D01*
X2263D01*
X2273Y1182D01*
Y1142D01*
X2263Y1132D01*
X2243D01*
X2233Y1142D01*
Y1182D01*
X2293Y1132D02*
Y1142D01*
X2303D01*
Y1132D01*
X2293D01*
X2343Y1182D02*
X2353Y1192D01*
X2373D01*
X2383Y1182D01*
Y1172D01*
X2373Y1162D01*
X2363D01*
X2373D01*
X2383Y1152D01*
Y1142D01*
X2373Y1132D01*
X2353D01*
X2343Y1142D01*
X2403Y1182D02*
X2413Y1192D01*
X2433D01*
X2443Y1182D01*
Y1142D01*
X2433Y1132D01*
X2413D01*
X2403Y1142D01*
Y1182D01*
X2463Y1132D02*
Y1142D01*
X2473D01*
Y1132D01*
X2463D01*
X2553D02*
X2513D01*
X2553Y1172D01*
Y1182D01*
X2543Y1192D01*
X2523D01*
X2513Y1182D01*
X2573D02*
X2583Y1192D01*
X2603D01*
X2613Y1182D01*
Y1142D01*
X2603Y1132D01*
X2583D01*
X2573Y1142D01*
Y1182D01*
X2633Y1132D02*
X2653D01*
X2643D01*
Y1192D01*
X2633Y1182D01*
X2683D02*
X2693Y1192D01*
X2713D01*
X2723Y1182D01*
Y1142D01*
X2713Y1132D01*
X2693D01*
X2683Y1142D01*
Y1182D01*
X2743Y1132D02*
Y1142D01*
X2753D01*
Y1132D01*
X2743D01*
X2833Y1192D02*
X2793D01*
Y1132D01*
X2833D01*
X2793Y1162D02*
X2813D01*
X2853Y1132D02*
Y1192D01*
X2873Y1172D01*
X2893Y1192D01*
Y1132D01*
X2913Y1192D02*
Y1132D01*
Y1162D01*
X2953D01*
Y1192D01*
Y1132D01*
X2123Y1232D02*
Y1292D01*
X2153D01*
X2163Y1282D01*
Y1262D01*
X2153Y1252D01*
X2123D01*
X2193Y1232D02*
X2213D01*
X2223Y1242D01*
Y1262D01*
X2213Y1272D01*
X2193D01*
X2183Y1262D01*
Y1242D01*
X2193Y1232D01*
X2243Y1272D02*
Y1242D01*
X2253Y1232D01*
X2263Y1242D01*
X2273Y1232D01*
X2283Y1242D01*
Y1272D01*
X2333Y1232D02*
X2313D01*
X2303Y1242D01*
Y1262D01*
X2313Y1272D01*
X2333D01*
X2343Y1262D01*
Y1252D01*
X2303D01*
X2363Y1272D02*
Y1232D01*
Y1252D01*
X2373Y1262D01*
X2383Y1272D01*
X2393D01*
X2523Y1292D02*
X2483D01*
Y1232D01*
X2523D01*
X2483Y1262D02*
X2503D01*
X2543Y1232D02*
Y1272D01*
X2573D01*
X2583Y1262D01*
Y1232D01*
X2613Y1282D02*
Y1272D01*
X2603D01*
X2623D01*
X2613D01*
Y1242D01*
X2623Y1232D01*
X2653Y1272D02*
Y1232D01*
Y1252D01*
X2663Y1262D01*
X2673Y1272D01*
X2683D01*
X2713D02*
Y1242D01*
X2723Y1232D01*
X2753D01*
Y1222D01*
X2743Y1212D01*
X2733D01*
X2753Y1232D02*
Y1272D01*
X2833Y1232D02*
Y1292D01*
X2853Y1272D01*
X2873Y1292D01*
Y1232D01*
X2903D02*
X2923D01*
X2933Y1242D01*
Y1262D01*
X2923Y1272D01*
X2903D01*
X2893Y1262D01*
Y1242D01*
X2903Y1232D01*
X2993Y1292D02*
Y1232D01*
X2963D01*
X2953Y1242D01*
Y1262D01*
X2963Y1272D01*
X2993D01*
X3013D02*
Y1242D01*
X3023Y1232D01*
X3053D01*
Y1272D01*
X3073Y1232D02*
X3093D01*
X3083D01*
Y1292D01*
X3073D01*
X3153Y1232D02*
X3133D01*
X3123Y1242D01*
Y1262D01*
X3133Y1272D01*
X3153D01*
X3163Y1262D01*
Y1252D01*
X3123D01*
X2133Y1332D02*
Y1392D01*
X2163D01*
X2173Y1382D01*
Y1362D01*
X2163Y1352D01*
X2133D01*
X2233Y1382D02*
X2223Y1392D01*
X2203D01*
X2193Y1382D01*
Y1342D01*
X2203Y1332D01*
X2223D01*
X2233Y1342D01*
X2253Y1392D02*
Y1332D01*
X2283D01*
X2293Y1342D01*
Y1352D01*
X2283Y1362D01*
X2253D01*
X2283D01*
X2293Y1372D01*
Y1382D01*
X2283Y1392D01*
X2253D01*
X2313Y1382D02*
X2323Y1392D01*
X2343D01*
X2353Y1382D01*
Y1342D01*
X2343Y1332D01*
X2323D01*
X2313Y1342D01*
Y1382D01*
X2373D02*
X2383Y1392D01*
X2403D01*
X2413Y1382D01*
Y1342D01*
X2403Y1332D01*
X2383D01*
X2373Y1342D01*
Y1382D01*
X2433D02*
X2443Y1392D01*
X2463D01*
X2473Y1382D01*
Y1342D01*
X2463Y1332D01*
X2443D01*
X2433Y1342D01*
Y1382D01*
X2493Y1392D02*
X2533D01*
Y1382D01*
X2493Y1342D01*
Y1332D01*
X3393Y1366D02*
X3390Y1371D01*
X3384Y1377D01*
X3379Y1380D01*
X3367D01*
X3361Y1377D01*
X3356Y1371D01*
X3353Y1366D01*
X3350Y1357D01*
Y1343D01*
X3353Y1334D01*
X3356Y1329D01*
X3361Y1323D01*
X3367Y1320D01*
X3379D01*
X3384Y1323D01*
X3390Y1329D01*
X3393Y1334D01*
X3455Y1320D02*
X3433Y1380D01*
X3410Y1320D01*
X3418Y1340D02*
X3447D01*
X3489Y1380D02*
Y1320D01*
X3469Y1380D02*
X3509D01*
X3517D02*
Y1320D01*
X3557Y1380D02*
Y1320D01*
X3517Y1351D02*
X3557D01*
X3590Y1380D02*
X3585Y1377D01*
X3579Y1371D01*
X3576Y1366D01*
X3573Y1357D01*
Y1343D01*
X3576Y1334D01*
X3579Y1329D01*
X3585Y1323D01*
X3590Y1320D01*
X3602D01*
X3607Y1323D01*
X3613Y1329D01*
X3616Y1334D01*
X3619Y1343D01*
Y1357D01*
X3616Y1366D01*
X3613Y1371D01*
X3607Y1377D01*
X3602Y1380D01*
X3590D01*
X3633D02*
Y1320D01*
Y1380D02*
X3653D01*
X3661Y1377D01*
X3667Y1371D01*
X3670Y1366D01*
X3673Y1357D01*
Y1343D01*
X3670Y1334D01*
X3667Y1329D01*
X3661Y1323D01*
X3653Y1320D01*
X3633D01*
X3723Y1380D02*
X3686D01*
Y1320D01*
X3723D01*
X3686Y1351D02*
X3709D01*
X3496Y1210D02*
X3473Y1270D01*
X3450Y1210D01*
X3459Y1230D02*
X3487D01*
X3510Y1270D02*
Y1210D01*
Y1270D02*
X3550Y1210D01*
Y1270D02*
Y1210D01*
X3583Y1270D02*
X3578Y1267D01*
X3572Y1261D01*
X3569Y1256D01*
X3566Y1247D01*
Y1233D01*
X3569Y1224D01*
X3572Y1219D01*
X3578Y1213D01*
X3583Y1210D01*
X3595D01*
X3601Y1213D01*
X3606Y1219D01*
X3609Y1224D01*
X3612Y1233D01*
Y1247D01*
X3609Y1256D01*
X3606Y1261D01*
X3601Y1267D01*
X3595Y1270D01*
X3583D01*
X3626D02*
Y1210D01*
Y1270D02*
X3646D01*
X3655Y1267D01*
X3660Y1261D01*
X3663Y1256D01*
X3666Y1247D01*
Y1233D01*
X3663Y1224D01*
X3660Y1219D01*
X3655Y1213D01*
X3646Y1210D01*
X3626D01*
X3717Y1270D02*
X3679D01*
Y1210D01*
X3717D01*
X3679Y1241D02*
X3702D01*
M02*
