%FSLAX23Y23*%
%MOIN*%
G70*
G01*
G75*
G04 Layer_Color=13158*
%ADD10C,0.150*%
%ADD11C,0.050*%
%ADD12C,0.120*%
%ADD13C,0.020*%
%ADD14C,0.005*%
%ADD15C,0.120*%
%ADD16C,0.063*%
%ADD17C,0.070*%
%ADD18C,0.060*%
%ADD19C,0.118*%
%ADD20C,0.118*%
%ADD21C,0.140*%
%ADD22C,0.008*%
%ADD23C,0.008*%
%ADD24C,0.005*%
%ADD25C,0.040*%
%ADD26C,0.001*%
%ADD27C,0.002*%
%ADD28C,0.015*%
%ADD29C,0.010*%
%ADD30C,0.128*%
%ADD31C,0.071*%
%ADD32C,0.008*%
%ADD33C,0.078*%
%ADD34C,0.068*%
%ADD35C,0.126*%
%ADD36C,0.126*%
%ADD37C,0.148*%
%ADD38C,0.006*%
D14*
X4030Y500D02*
X4075D01*
Y522D01*
X4068Y530D01*
X4038D01*
X4030Y522D01*
Y500D01*
X4075Y545D02*
Y560D01*
Y552D01*
X4045D01*
Y545D01*
X4075Y582D02*
X4045D01*
Y590D01*
X4053Y597D01*
X4075D01*
X4053D01*
X4045Y605D01*
X4053Y612D01*
X4075D01*
Y650D02*
Y635D01*
X4068Y627D01*
X4053D01*
X4045Y635D01*
Y650D01*
X4053Y657D01*
X4060D01*
Y627D01*
X4075Y672D02*
Y695D01*
X4068Y702D01*
X4060Y695D01*
Y680D01*
X4053Y672D01*
X4045Y680D01*
Y702D01*
X4075Y717D02*
Y732D01*
Y725D01*
X4045D01*
Y717D01*
X4075Y762D02*
Y777D01*
X4068Y785D01*
X4053D01*
X4045Y777D01*
Y762D01*
X4053Y755D01*
X4068D01*
X4075Y762D01*
Y800D02*
X4045D01*
Y822D01*
X4053Y830D01*
X4075D01*
Y845D02*
Y867D01*
X4068Y875D01*
X4060Y867D01*
Y852D01*
X4053Y845D01*
X4045Y852D01*
Y875D01*
D29*
X3628Y2199D02*
Y3330D01*
X373Y2199D02*
Y3330D01*
X2280Y3320D02*
X3628D01*
X373D02*
X1688D01*
X3568Y3340D02*
X3628Y3320D01*
X3568Y3300D02*
X3628Y3320D01*
X373D02*
X433Y3300D01*
X373Y3320D02*
X433Y3340D01*
X-190Y2125D02*
X299D01*
X-190Y375D02*
X299D01*
X-180Y1525D02*
Y2125D01*
Y375D02*
Y943D01*
X-200Y2065D02*
X-180Y2125D01*
X-160Y2065D01*
X-180Y375D02*
X-160Y435D01*
X-200D02*
X-180Y375D01*
X-530Y2500D02*
X386D01*
X-530Y0D02*
X386D01*
X-520Y1530D02*
Y2500D01*
Y0D02*
Y938D01*
X-540Y2440D02*
X-520Y2500D01*
X-500Y2440D01*
X-520Y0D02*
X-500Y60D01*
X-540D02*
X-520Y0D01*
X-190Y375D02*
X299D01*
X-190Y0D02*
X386D01*
X-180Y188D02*
Y375D01*
Y0D02*
Y188D01*
X-200Y315D02*
X-180Y375D01*
X-160Y315D01*
X-180Y0D02*
X-160Y60D01*
X-200D02*
X-180Y0D01*
X-380Y400D02*
X-14D01*
X-380Y0D02*
X386D01*
X-370Y200D02*
Y400D01*
Y0D02*
Y200D01*
X-390Y340D02*
X-370Y400D01*
X-350Y340D01*
X-370Y0D02*
X-350Y60D01*
X-390D02*
X-370Y0D01*
X-190Y2500D02*
X386D01*
X-190Y2125D02*
X299D01*
X-180D02*
Y2500D01*
X-200Y2440D02*
X-180Y2500D01*
X-160Y2440D01*
X-180Y2125D02*
X-160Y2185D01*
X-200D02*
X-180Y2125D01*
X-340Y2100D02*
X-14D01*
X-340Y2500D02*
X386D01*
X-330Y2100D02*
Y2500D01*
Y2100D02*
X-310Y2160D01*
X-350D02*
X-330Y2100D01*
X-350Y2440D02*
X-330Y2500D01*
X-310Y2440D01*
X400Y2514D02*
Y3480D01*
X0Y2114D02*
Y3480D01*
X200Y3470D02*
X400D01*
X0D02*
X200D01*
X340Y3490D02*
X400Y3470D01*
X340Y3450D02*
X400Y3470D01*
X0D02*
X60Y3450D01*
X0Y3470D02*
X60Y3490D01*
X0Y2114D02*
Y3330D01*
X373Y2199D02*
Y3330D01*
X0Y3320D02*
X186D01*
X373D01*
X0D02*
X60Y3300D01*
X0Y3320D02*
X60Y3340D01*
X312D02*
X373Y3320D01*
X312Y3300D02*
X373Y3320D01*
X4000Y414D02*
Y3460D01*
X3600Y2514D02*
Y3460D01*
Y3450D02*
X4000D01*
X3940Y3470D02*
X4000Y3450D01*
X3940Y3430D02*
X4000Y3450D01*
X3600D02*
X3660Y3430D01*
X3600Y3450D02*
X3660Y3470D01*
X3628Y2199D02*
Y3330D01*
X4000Y2114D02*
Y3330D01*
X3628Y3320D02*
X4000D01*
X3628D02*
X3688Y3300D01*
X3628Y3320D02*
X3688Y3340D01*
X3940D02*
X4000Y3320D01*
X3940Y3300D02*
X4000Y3320D01*
X0Y2114D02*
Y3630D01*
X4000Y2114D02*
Y3630D01*
X0Y3620D02*
X1688D01*
X2280D02*
X4000D01*
X0D02*
X60Y3600D01*
X0Y3620D02*
X60Y3640D01*
X3940D02*
X4000Y3620D01*
X3940Y3600D02*
X4000Y3620D01*
D38*
X1704Y3334D02*
X1714Y3344D01*
X1734D01*
X1744Y3334D01*
Y3324D01*
X1734Y3314D01*
X1724D01*
X1734D01*
X1744Y3304D01*
Y3294D01*
X1734Y3284D01*
X1714D01*
X1704Y3294D01*
X1764Y3284D02*
Y3294D01*
X1774D01*
Y3284D01*
X1764D01*
X1854D02*
X1814D01*
X1854Y3324D01*
Y3334D01*
X1844Y3344D01*
X1824D01*
X1814Y3334D01*
X1914Y3344D02*
X1874D01*
Y3314D01*
X1894Y3324D01*
X1904D01*
X1914Y3314D01*
Y3294D01*
X1904Y3284D01*
X1884D01*
X1874Y3294D01*
X1974Y3344D02*
X1934D01*
Y3314D01*
X1954Y3324D01*
X1964D01*
X1974Y3314D01*
Y3294D01*
X1964Y3284D01*
X1944D01*
X1934Y3294D01*
X2054Y3284D02*
X2074D01*
X2064D01*
Y3324D01*
X2054D01*
X2104Y3284D02*
Y3324D01*
X2134D01*
X2144Y3314D01*
Y3284D01*
X2204Y3324D02*
X2174D01*
X2164Y3314D01*
Y3294D01*
X2174Y3284D01*
X2204D01*
X2224Y3344D02*
Y3284D01*
Y3314D01*
X2234Y3324D01*
X2254D01*
X2264Y3314D01*
Y3284D01*
X-144Y959D02*
Y979D01*
Y969D01*
X-204D01*
X-194Y959D01*
X-144Y1009D02*
X-154D01*
Y1019D01*
X-144D01*
Y1009D01*
X-204Y1059D02*
Y1099D01*
X-194D01*
X-154Y1059D01*
X-144D01*
X-204Y1159D02*
Y1119D01*
X-174D01*
X-184Y1139D01*
Y1149D01*
X-174Y1159D01*
X-154D01*
X-144Y1149D01*
Y1129D01*
X-154Y1119D01*
X-194Y1179D02*
X-204Y1189D01*
Y1209D01*
X-194Y1219D01*
X-154D01*
X-144Y1209D01*
Y1189D01*
X-154Y1179D01*
X-194D01*
X-144Y1299D02*
Y1319D01*
Y1309D01*
X-184D01*
Y1299D01*
X-144Y1349D02*
X-184D01*
Y1379D01*
X-174Y1389D01*
X-144D01*
X-184Y1449D02*
Y1419D01*
X-174Y1409D01*
X-154D01*
X-144Y1419D01*
Y1449D01*
X-204Y1469D02*
X-144D01*
X-174D01*
X-184Y1479D01*
Y1499D01*
X-174Y1509D01*
X-144D01*
X-484Y994D02*
Y954D01*
X-524Y994D01*
X-534D01*
X-544Y984D01*
Y964D01*
X-534Y954D01*
X-484Y1014D02*
X-494D01*
Y1024D01*
X-484D01*
Y1014D01*
X-544Y1104D02*
Y1064D01*
X-514D01*
X-524Y1084D01*
Y1094D01*
X-514Y1104D01*
X-494D01*
X-484Y1094D01*
Y1074D01*
X-494Y1064D01*
X-534Y1124D02*
X-544Y1134D01*
Y1154D01*
X-534Y1164D01*
X-494D01*
X-484Y1154D01*
Y1134D01*
X-494Y1124D01*
X-534D01*
Y1184D02*
X-544Y1194D01*
Y1214D01*
X-534Y1224D01*
X-494D01*
X-484Y1214D01*
Y1194D01*
X-494Y1184D01*
X-534D01*
X-484Y1304D02*
Y1324D01*
Y1314D01*
X-524D01*
Y1304D01*
X-484Y1354D02*
X-524D01*
Y1384D01*
X-514Y1394D01*
X-484D01*
X-524Y1454D02*
Y1424D01*
X-514Y1414D01*
X-494D01*
X-484Y1424D01*
Y1454D01*
X-544Y1474D02*
X-484D01*
X-514D01*
X-524Y1484D01*
Y1504D01*
X-514Y1514D01*
X-484D01*
X-194Y-582D02*
X-204Y-572D01*
Y-552D01*
X-194Y-542D01*
X-154D01*
X-144Y-552D01*
Y-572D01*
X-154Y-582D01*
X-194D01*
X-144Y-522D02*
X-154D01*
Y-512D01*
X-144D01*
Y-522D01*
X-194Y-472D02*
X-204Y-462D01*
Y-442D01*
X-194Y-432D01*
X-184D01*
X-174Y-442D01*
Y-452D01*
Y-442D01*
X-164Y-432D01*
X-154D01*
X-144Y-442D01*
Y-462D01*
X-154Y-472D01*
X-204Y-412D02*
Y-372D01*
X-194D01*
X-154Y-412D01*
X-144D01*
X-204Y-312D02*
Y-352D01*
X-174D01*
X-184Y-332D01*
Y-322D01*
X-174Y-312D01*
X-154D01*
X-144Y-322D01*
Y-342D01*
X-154Y-352D01*
X-144Y-232D02*
Y-212D01*
Y-222D01*
X-184D01*
Y-232D01*
X-144Y-182D02*
X-184D01*
Y-152D01*
X-174Y-142D01*
X-144D01*
X-184Y-82D02*
Y-112D01*
X-174Y-122D01*
X-154D01*
X-144Y-112D01*
Y-82D01*
X-204Y-62D02*
X-144D01*
X-174D01*
X-184Y-52D01*
Y-32D01*
X-174Y-22D01*
X-144D01*
X-384Y-582D02*
X-394Y-572D01*
Y-552D01*
X-384Y-542D01*
X-344D01*
X-334Y-552D01*
Y-572D01*
X-344Y-582D01*
X-384D01*
X-334Y-522D02*
X-344D01*
Y-512D01*
X-334D01*
Y-522D01*
Y-442D02*
X-394D01*
X-364Y-472D01*
Y-432D01*
X-384Y-412D02*
X-394Y-402D01*
Y-382D01*
X-384Y-372D01*
X-344D01*
X-334Y-382D01*
Y-402D01*
X-344Y-412D01*
X-384D01*
Y-352D02*
X-394Y-342D01*
Y-322D01*
X-384Y-312D01*
X-344D01*
X-334Y-322D01*
Y-342D01*
X-344Y-352D01*
X-384D01*
X-334Y-232D02*
Y-212D01*
Y-222D01*
X-374D01*
Y-232D01*
X-334Y-182D02*
X-374D01*
Y-152D01*
X-364Y-142D01*
X-334D01*
X-374Y-82D02*
Y-112D01*
X-364Y-122D01*
X-344D01*
X-334Y-112D01*
Y-82D01*
X-394Y-62D02*
X-334D01*
X-364D01*
X-374Y-52D01*
Y-32D01*
X-364Y-22D01*
X-334D01*
X-194Y2510D02*
X-204Y2520D01*
Y2540D01*
X-194Y2550D01*
X-154D01*
X-144Y2540D01*
Y2520D01*
X-154Y2510D01*
X-194D01*
X-144Y2570D02*
X-154D01*
Y2580D01*
X-144D01*
Y2570D01*
X-194Y2620D02*
X-204Y2630D01*
Y2650D01*
X-194Y2660D01*
X-184D01*
X-174Y2650D01*
Y2640D01*
Y2650D01*
X-164Y2660D01*
X-154D01*
X-144Y2650D01*
Y2630D01*
X-154Y2620D01*
X-204Y2680D02*
Y2720D01*
X-194D01*
X-154Y2680D01*
X-144D01*
X-204Y2780D02*
Y2740D01*
X-174D01*
X-184Y2760D01*
Y2770D01*
X-174Y2780D01*
X-154D01*
X-144Y2770D01*
Y2750D01*
X-154Y2740D01*
X-144Y2860D02*
Y2880D01*
Y2870D01*
X-184D01*
Y2860D01*
X-144Y2910D02*
X-184D01*
Y2940D01*
X-174Y2950D01*
X-144D01*
X-184Y3010D02*
Y2980D01*
X-174Y2970D01*
X-154D01*
X-144Y2980D01*
Y3010D01*
X-204Y3030D02*
X-144D01*
X-174D01*
X-184Y3040D01*
Y3060D01*
X-174Y3070D01*
X-144D01*
X-344Y2510D02*
X-354Y2520D01*
Y2540D01*
X-344Y2550D01*
X-304D01*
X-294Y2540D01*
Y2520D01*
X-304Y2510D01*
X-344D01*
X-294Y2570D02*
X-304D01*
Y2580D01*
X-294D01*
Y2570D01*
Y2650D02*
X-354D01*
X-324Y2620D01*
Y2660D01*
X-344Y2680D02*
X-354Y2690D01*
Y2710D01*
X-344Y2720D01*
X-304D01*
X-294Y2710D01*
Y2690D01*
X-304Y2680D01*
X-344D01*
Y2740D02*
X-354Y2750D01*
Y2770D01*
X-344Y2780D01*
X-304D01*
X-294Y2770D01*
Y2750D01*
X-304Y2740D01*
X-344D01*
X-294Y2860D02*
Y2880D01*
Y2870D01*
X-334D01*
Y2860D01*
X-294Y2910D02*
X-334D01*
Y2940D01*
X-324Y2950D01*
X-294D01*
X-334Y3010D02*
Y2980D01*
X-324Y2970D01*
X-304D01*
X-294Y2980D01*
Y3010D01*
X-354Y3030D02*
X-294D01*
X-324D01*
X-334Y3040D01*
Y3060D01*
X-324Y3070D01*
X-294D01*
X-582Y3484D02*
X-572Y3494D01*
X-552D01*
X-542Y3484D01*
Y3444D01*
X-552Y3434D01*
X-572D01*
X-582Y3444D01*
Y3484D01*
X-522Y3434D02*
Y3444D01*
X-512D01*
Y3434D01*
X-522D01*
X-442D02*
Y3494D01*
X-472Y3464D01*
X-432D01*
X-412Y3484D02*
X-402Y3494D01*
X-382D01*
X-372Y3484D01*
Y3444D01*
X-382Y3434D01*
X-402D01*
X-412Y3444D01*
Y3484D01*
X-352D02*
X-342Y3494D01*
X-322D01*
X-312Y3484D01*
Y3444D01*
X-322Y3434D01*
X-342D01*
X-352Y3444D01*
Y3484D01*
X-232Y3434D02*
X-212D01*
X-222D01*
Y3474D01*
X-232D01*
X-182Y3434D02*
Y3474D01*
X-152D01*
X-142Y3464D01*
Y3434D01*
X-82Y3474D02*
X-112D01*
X-122Y3464D01*
Y3444D01*
X-112Y3434D01*
X-82D01*
X-62Y3494D02*
Y3434D01*
Y3464D01*
X-52Y3474D01*
X-32D01*
X-22Y3464D01*
Y3434D01*
X-582Y3334D02*
X-572Y3344D01*
X-552D01*
X-542Y3334D01*
Y3294D01*
X-552Y3284D01*
X-572D01*
X-582Y3294D01*
Y3334D01*
X-522Y3284D02*
Y3294D01*
X-512D01*
Y3284D01*
X-522D01*
X-472Y3334D02*
X-462Y3344D01*
X-442D01*
X-432Y3334D01*
Y3324D01*
X-442Y3314D01*
X-452D01*
X-442D01*
X-432Y3304D01*
Y3294D01*
X-442Y3284D01*
X-462D01*
X-472Y3294D01*
X-412Y3344D02*
X-372D01*
Y3334D01*
X-412Y3294D01*
Y3284D01*
X-312D02*
X-352D01*
X-312Y3324D01*
Y3334D01*
X-322Y3344D01*
X-342D01*
X-352Y3334D01*
X-232Y3284D02*
X-212D01*
X-222D01*
Y3324D01*
X-232D01*
X-182Y3284D02*
Y3324D01*
X-152D01*
X-142Y3314D01*
Y3284D01*
X-82Y3324D02*
X-112D01*
X-122Y3314D01*
Y3294D01*
X-112Y3284D01*
X-82D01*
X-62Y3344D02*
Y3284D01*
Y3314D01*
X-52Y3324D01*
X-32D01*
X-22Y3314D01*
Y3284D01*
X4010Y3464D02*
X4020Y3474D01*
X4040D01*
X4050Y3464D01*
Y3424D01*
X4040Y3414D01*
X4020D01*
X4010Y3424D01*
Y3464D01*
X4070Y3414D02*
Y3424D01*
X4080D01*
Y3414D01*
X4070D01*
X4150D02*
Y3474D01*
X4120Y3444D01*
X4160D01*
X4180Y3464D02*
X4190Y3474D01*
X4210D01*
X4220Y3464D01*
Y3424D01*
X4210Y3414D01*
X4190D01*
X4180Y3424D01*
Y3464D01*
X4240D02*
X4250Y3474D01*
X4270D01*
X4280Y3464D01*
Y3424D01*
X4270Y3414D01*
X4250D01*
X4240Y3424D01*
Y3464D01*
X4360Y3414D02*
X4380D01*
X4370D01*
Y3454D01*
X4360D01*
X4410Y3414D02*
Y3454D01*
X4440D01*
X4450Y3444D01*
Y3414D01*
X4510Y3454D02*
X4480D01*
X4470Y3444D01*
Y3424D01*
X4480Y3414D01*
X4510D01*
X4530Y3474D02*
Y3414D01*
Y3444D01*
X4540Y3454D01*
X4560D01*
X4570Y3444D01*
Y3414D01*
X4010Y3334D02*
X4020Y3344D01*
X4040D01*
X4050Y3334D01*
Y3294D01*
X4040Y3284D01*
X4020D01*
X4010Y3294D01*
Y3334D01*
X4070Y3284D02*
Y3294D01*
X4080D01*
Y3284D01*
X4070D01*
X4120Y3334D02*
X4130Y3344D01*
X4150D01*
X4160Y3334D01*
Y3324D01*
X4150Y3314D01*
X4140D01*
X4150D01*
X4160Y3304D01*
Y3294D01*
X4150Y3284D01*
X4130D01*
X4120Y3294D01*
X4180Y3344D02*
X4220D01*
Y3334D01*
X4180Y3294D01*
Y3284D01*
X4280D02*
X4240D01*
X4280Y3324D01*
Y3334D01*
X4270Y3344D01*
X4250D01*
X4240Y3334D01*
X4360Y3284D02*
X4380D01*
X4370D01*
Y3324D01*
X4360D01*
X4410Y3284D02*
Y3324D01*
X4440D01*
X4450Y3314D01*
Y3284D01*
X4510Y3324D02*
X4480D01*
X4470Y3314D01*
Y3294D01*
X4480Y3284D01*
X4510D01*
X4530Y3344D02*
Y3284D01*
Y3314D01*
X4540Y3324D01*
X4560D01*
X4570Y3314D01*
Y3284D01*
X1734Y3584D02*
Y3644D01*
X1704Y3614D01*
X1744D01*
X1764Y3584D02*
Y3594D01*
X1774D01*
Y3584D01*
X1764D01*
X1814Y3634D02*
X1824Y3644D01*
X1844D01*
X1854Y3634D01*
Y3594D01*
X1844Y3584D01*
X1824D01*
X1814Y3594D01*
Y3634D01*
X1874D02*
X1884Y3644D01*
X1904D01*
X1914Y3634D01*
Y3594D01*
X1904Y3584D01*
X1884D01*
X1874Y3594D01*
Y3634D01*
X1934D02*
X1944Y3644D01*
X1964D01*
X1974Y3634D01*
Y3594D01*
X1964Y3584D01*
X1944D01*
X1934Y3594D01*
Y3634D01*
X2054Y3584D02*
X2074D01*
X2064D01*
Y3624D01*
X2054D01*
X2104Y3584D02*
Y3624D01*
X2134D01*
X2144Y3614D01*
Y3584D01*
X2204Y3624D02*
X2174D01*
X2164Y3614D01*
Y3594D01*
X2174Y3584D01*
X2204D01*
X2224Y3644D02*
Y3584D01*
Y3614D01*
X2234Y3624D01*
X2254D01*
X2264Y3614D01*
Y3584D01*
M02*
