M48
;Layer_Color=9474304
;FILE_FORMAT=2:5
INCH,LZ
;TYPE=PLATED
T1F00S00C0.03500
T2F00S00C0.06000
T3F00S00C0.09000
;TYPE=NON_PLATED
T4F00S00C0.10236
T5F00S00C0.12800
%
T01
X039Y0125
Y0135
Y01525
X035
T02
X018Y001
Y005
X022
Y001
X026
Y005
X013Y0148
X007
X01Y0188
X00375Y01475
Y00875
T03
X02302Y01951
X02702
X019Y0195
X015
Y0225
X019
X02302Y02251
X02702
T04
X01Y0028
T05
X003725Y00375
X036275
X003725Y02125
X036275
M30
