%FSLAX23Y23*%
%MOIN*%
G70*
G01*
G75*
G04 Layer_Physical_Order=1*
G04 Layer_Color=255*
%ADD10C,0.150*%
%ADD11C,0.050*%
%ADD12C,0.120*%
%ADD13C,0.020*%
%ADD14C,0.005*%
%ADD15C,0.120*%
%ADD16C,0.063*%
%ADD17C,0.070*%
%ADD18C,0.060*%
%ADD19C,0.118*%
%ADD20C,0.118*%
%ADD21C,0.140*%
G36*
X1125Y1400D02*
Y1300D01*
X2000D01*
Y50D01*
X800D01*
Y1950D01*
X1125D01*
Y1400D01*
D02*
G37*
G36*
X1400Y1800D02*
X1725D01*
Y2050D01*
Y2055D01*
X2525D01*
Y1375D01*
Y1350D01*
X1150D01*
Y1975D01*
X775D01*
Y1375D01*
Y1350D01*
X200D01*
Y1675D01*
X575D01*
Y2250D01*
X1400D01*
Y1800D01*
D02*
G37*
%LPC*%
G36*
X1000Y352D02*
X986Y350D01*
X973Y346D01*
X960Y339D01*
X949Y331D01*
X941Y320D01*
X934Y307D01*
X930Y294D01*
X928Y280D01*
X930Y266D01*
X934Y253D01*
X941Y240D01*
X949Y229D01*
X960Y221D01*
X973Y214D01*
X986Y210D01*
X1000Y208D01*
X1014Y210D01*
X1027Y214D01*
X1040Y221D01*
X1051Y229D01*
X1059Y240D01*
X1066Y253D01*
X1070Y266D01*
X1072Y280D01*
X1070Y294D01*
X1066Y307D01*
X1059Y320D01*
X1051Y331D01*
X1040Y339D01*
X1027Y346D01*
X1014Y350D01*
X1000Y352D01*
D02*
G37*
%LPD*%
D10*
X1150Y2075D02*
X1250Y1975D01*
Y1480D02*
Y1975D01*
Y1480D02*
X1900D01*
X775Y2075D02*
X1150D01*
X2080Y1480D02*
X2302Y1702D01*
X1900Y1480D02*
Y1950D01*
Y1480D02*
X2080D01*
X2302Y1702D02*
Y1951D01*
X700Y2000D02*
X775Y2075D01*
X700Y1480D02*
Y2000D01*
X695Y1475D02*
X700Y1480D01*
X375Y1475D02*
X695D01*
D11*
X2080Y1480D02*
X2310Y1250D01*
X3900D01*
X2553Y2400D02*
X2702Y2251D01*
X1650Y2400D02*
X2553D01*
X1500Y2250D02*
X1650Y2400D01*
X2553Y2100D02*
X2702Y1951D01*
X1650Y2100D02*
X2553D01*
X1500Y1950D02*
X1650Y2100D01*
D12*
X1000Y1300D02*
Y1880D01*
Y1300D02*
X1800Y500D01*
Y100D02*
Y500D01*
D13*
X3900Y1350D02*
Y1525D01*
D14*
X4030Y500D02*
Y530D01*
Y515D01*
X4075D01*
Y552D02*
Y567D01*
X4068Y575D01*
X4053D01*
X4045Y567D01*
Y552D01*
X4053Y545D01*
X4068D01*
X4075Y552D01*
X4090Y590D02*
X4045D01*
Y612D01*
X4053Y620D01*
X4068D01*
X4075Y612D01*
Y590D01*
X4030Y680D02*
X4075D01*
Y710D01*
X4045Y732D02*
Y747D01*
X4053Y755D01*
X4075D01*
Y732D01*
X4068Y725D01*
X4060Y732D01*
Y755D01*
X4045Y770D02*
X4068D01*
X4075Y777D01*
Y800D01*
X4082D01*
X4090Y792D01*
Y785D01*
X4075Y800D02*
X4045D01*
X4075Y837D02*
Y822D01*
X4068Y815D01*
X4053D01*
X4045Y822D01*
Y837D01*
X4053Y845D01*
X4060D01*
Y815D01*
X4045Y860D02*
X4075D01*
X4060D01*
X4053Y867D01*
X4045Y875D01*
Y882D01*
D15*
X375Y875D02*
D03*
Y1475D02*
D03*
D16*
X3900Y1250D02*
D03*
D17*
Y1350D02*
D03*
D18*
Y1525D02*
D03*
X3500D02*
D03*
D19*
X1000Y1880D02*
D03*
X1300Y1480D02*
D03*
X2200Y100D02*
D03*
Y500D02*
D03*
D20*
X700Y1480D02*
D03*
X1800Y500D02*
D03*
Y100D02*
D03*
X2600D02*
D03*
Y500D02*
D03*
D21*
X1900Y2250D02*
D03*
X2302Y2251D02*
D03*
X1900Y1950D02*
D03*
X2302Y1951D02*
D03*
X1500Y2250D02*
D03*
X2702Y2251D02*
D03*
X1500Y1950D02*
D03*
X2702Y1951D02*
D03*
M02*
