%FSLAX23Y23*%
%MOIN*%
G70*
G01*
G75*
G04 Layer_Color=16711935*
%ADD10C,0.150*%
%ADD11C,0.050*%
%ADD12C,0.120*%
%ADD13C,0.020*%
%ADD14C,0.005*%
%ADD15C,0.120*%
%ADD16C,0.063*%
%ADD17C,0.070*%
%ADD18C,0.060*%
%ADD19C,0.118*%
%ADD20C,0.118*%
%ADD21C,0.140*%
%ADD22C,0.008*%
%ADD23C,0.008*%
%ADD24C,0.005*%
%ADD25C,0.040*%
%ADD26C,0.001*%
%ADD27C,0.002*%
%ADD28C,0.015*%
%ADD29C,0.010*%
%ADD30C,0.128*%
%ADD31C,0.071*%
%ADD32C,0.008*%
%ADD33C,0.078*%
%ADD34C,0.068*%
%ADD35C,0.126*%
%ADD36C,0.126*%
%ADD37C,0.148*%
D14*
X4030Y500D02*
X4075D01*
Y522D01*
X4068Y530D01*
X4060D01*
X4053Y522D01*
Y500D01*
Y522D01*
X4045Y530D01*
X4038D01*
X4030Y522D01*
Y500D01*
X4075Y552D02*
Y567D01*
X4068Y575D01*
X4053D01*
X4045Y567D01*
Y552D01*
X4053Y545D01*
X4068D01*
X4075Y552D01*
X4038Y597D02*
X4045D01*
Y590D01*
Y605D01*
Y597D01*
X4068D01*
X4075Y605D01*
X4038Y635D02*
X4045D01*
Y627D01*
Y642D01*
Y635D01*
X4068D01*
X4075Y642D01*
Y672D02*
Y687D01*
X4068Y695D01*
X4053D01*
X4045Y687D01*
Y672D01*
X4053Y665D01*
X4068D01*
X4075Y672D01*
Y710D02*
X4045D01*
Y717D01*
X4053Y725D01*
X4075D01*
X4053D01*
X4045Y732D01*
X4053Y740D01*
X4075D01*
X4038Y830D02*
X4030Y822D01*
Y807D01*
X4038Y800D01*
X4045D01*
X4053Y807D01*
Y822D01*
X4060Y830D01*
X4068D01*
X4075Y822D01*
Y807D01*
X4068Y800D01*
X4075Y852D02*
Y867D01*
X4068Y875D01*
X4053D01*
X4045Y867D01*
Y852D01*
X4053Y845D01*
X4068D01*
X4075Y852D01*
Y890D02*
Y905D01*
Y897D01*
X4030D01*
Y890D01*
Y957D02*
X4075D01*
Y935D01*
X4068Y927D01*
X4053D01*
X4045Y935D01*
Y957D01*
X4075Y995D02*
Y980D01*
X4068Y972D01*
X4053D01*
X4045Y980D01*
Y995D01*
X4053Y1002D01*
X4060D01*
Y972D01*
X4045Y1017D02*
X4075D01*
X4060D01*
X4053Y1025D01*
X4045Y1032D01*
Y1040D01*
D30*
X375Y875D02*
D03*
Y1475D02*
D03*
D31*
X3900Y1250D02*
D03*
D32*
X373Y2125D02*
D03*
Y375D02*
D03*
X3628D02*
D03*
Y2125D02*
D03*
X1000Y280D02*
D03*
D33*
X3900Y1350D02*
D03*
D34*
Y1525D02*
D03*
X3500D02*
D03*
D35*
X1000Y1880D02*
D03*
X1300Y1480D02*
D03*
X2200Y100D02*
D03*
Y500D02*
D03*
D36*
X700Y1480D02*
D03*
X1800Y500D02*
D03*
Y100D02*
D03*
X2600D02*
D03*
Y500D02*
D03*
D37*
X1900Y2250D02*
D03*
X2302Y2251D02*
D03*
X1900Y1950D02*
D03*
X2302Y1951D02*
D03*
X1500Y2250D02*
D03*
X2702Y2251D02*
D03*
X1500Y1950D02*
D03*
X2702Y1951D02*
D03*
M02*
