%FSLAX23Y23*%
%MOIN*%
G70*
G01*
G75*
G04 Layer_Physical_Order=2*
G04 Layer_Color=16711680*
%ADD10R,0.012X0.063*%
%ADD11R,0.049X0.035*%
%ADD12R,0.020X0.059*%
%ADD13R,0.047X0.024*%
%ADD14R,0.035X0.049*%
%ADD15R,0.063X0.012*%
%ADD16R,0.035X0.083*%
%ADD17R,0.130X0.083*%
%ADD18R,0.071X0.014*%
%ADD19R,0.217X0.059*%
%ADD20R,0.033X0.031*%
%ADD21R,0.031X0.033*%
%ADD22R,0.024X0.081*%
%ADD23R,0.039X0.069*%
%ADD24R,0.033X0.051*%
%ADD25R,0.051X0.033*%
%ADD26C,0.012*%
%ADD27C,0.008*%
%ADD28C,0.016*%
%ADD29C,0.006*%
%ADD30C,0.063*%
%ADD31R,0.063X0.063*%
%ADD32C,0.150*%
%ADD33R,0.100X0.100*%
%ADD34C,0.100*%
%ADD35C,0.197*%
%ADD36C,0.079*%
%ADD37C,0.032*%
G36*
X11700Y6598D02*
Y4900D01*
X11693Y4896D01*
X11651Y4939D01*
X11645Y4942D01*
X11639Y4943D01*
X10794D01*
X10706Y5031D01*
Y5032D01*
X10707Y5032D01*
X10712Y5040D01*
X10713Y5049D01*
X10712Y5058D01*
X10707Y5066D01*
X10699Y5071D01*
X10690Y5072D01*
X10681Y5071D01*
X10673Y5066D01*
X10668Y5058D01*
X10667Y5049D01*
X10668Y5040D01*
X10673Y5032D01*
X10674Y5032D01*
Y5024D01*
X10674Y5024D01*
X10674D01*
X10675Y5018D01*
X10678Y5012D01*
X10775Y4915D01*
X10775Y4915D01*
X10775Y4915D01*
X10775Y4915D01*
Y4915D01*
X10781Y4912D01*
X10787Y4911D01*
X11632D01*
X11679Y4864D01*
Y4774D01*
X11678Y4773D01*
X11677Y4764D01*
X11678Y4755D01*
X11683Y4747D01*
X11691Y4742D01*
X11700Y4741D01*
Y3299D01*
X11364D01*
X11362Y3297D01*
Y2803D01*
X9140D01*
X9138Y2807D01*
X9138D01*
X9138Y2807D01*
Y3301D01*
X8800D01*
Y6600D01*
X11698D01*
X11700Y6598D01*
D02*
G37*
%LPC*%
G36*
X10646Y3937D02*
X10629D01*
Y3920D01*
X10633Y3920D01*
X10641Y3925D01*
X10646Y3933D01*
X10646Y3937D01*
D02*
G37*
G36*
X10013Y3932D02*
X9996D01*
Y3915D01*
X10000Y3915D01*
X10008Y3920D01*
X10013Y3928D01*
X10013Y3932D01*
D02*
G37*
G36*
X10619Y3937D02*
X10602D01*
X10602Y3933D01*
X10607Y3925D01*
X10615Y3920D01*
X10619Y3920D01*
Y3937D01*
D02*
G37*
G36*
X11341Y3999D02*
X11265D01*
X11266Y3988D01*
X11271Y3973D01*
X11278Y3958D01*
X11288Y3946D01*
X11301Y3936D01*
X11315Y3928D01*
X11330Y3923D01*
X11341Y3922D01*
Y3999D01*
D02*
G37*
G36*
X10996Y3942D02*
Y3925D01*
X11013D01*
X11013Y3929D01*
X11008Y3937D01*
X11000Y3942D01*
X10996Y3942D01*
D02*
G37*
G36*
X10986D02*
X10982Y3942D01*
X10974Y3937D01*
X10969Y3929D01*
X10969Y3925D01*
X10986D01*
Y3942D01*
D02*
G37*
G36*
X11428Y3999D02*
X11351D01*
Y3922D01*
X11363Y3923D01*
X11378Y3928D01*
X11392Y3936D01*
X11405Y3946D01*
X11415Y3958D01*
X11422Y3973D01*
X11427Y3988D01*
X11428Y3999D01*
D02*
G37*
G36*
X9986Y3932D02*
X9969D01*
X9969Y3928D01*
X9974Y3920D01*
X9982Y3915D01*
X9986Y3915D01*
Y3932D01*
D02*
G37*
G36*
X10750Y3904D02*
X10733D01*
X10733Y3900D01*
X10738Y3892D01*
X10746Y3887D01*
X10750Y3887D01*
Y3904D01*
D02*
G37*
G36*
X10777D02*
X10760D01*
Y3887D01*
X10764Y3887D01*
X10772Y3892D01*
X10777Y3900D01*
X10777Y3904D01*
D02*
G37*
G36*
X9482Y3804D02*
Y3787D01*
X9499D01*
X9499Y3791D01*
X9494Y3799D01*
X9486Y3804D01*
X9482Y3804D01*
D02*
G37*
G36*
X11245Y3854D02*
Y3821D01*
X11278D01*
X11277Y3826D01*
X11273Y3836D01*
X11267Y3844D01*
X11259Y3850D01*
X11250Y3854D01*
X11245Y3854D01*
D02*
G37*
G36*
X10750Y3931D02*
X10746Y3931D01*
X10738Y3926D01*
X10733Y3918D01*
X10733Y3914D01*
X10750D01*
Y3931D01*
D02*
G37*
G36*
X10760D02*
Y3914D01*
X10777D01*
X10777Y3918D01*
X10772Y3926D01*
X10764Y3931D01*
X10760Y3931D01*
D02*
G37*
G36*
X10986Y3915D02*
X10969D01*
X10969Y3911D01*
X10974Y3903D01*
X10982Y3898D01*
X10986Y3898D01*
Y3915D01*
D02*
G37*
G36*
X11013D02*
X10996D01*
Y3898D01*
X11000Y3898D01*
X11008Y3903D01*
X11013Y3911D01*
X11013Y3915D01*
D02*
G37*
G36*
X9978Y4177D02*
X9961D01*
X9961Y4173D01*
X9966Y4165D01*
X9974Y4160D01*
X9978Y4160D01*
Y4177D01*
D02*
G37*
G36*
X10005D02*
X9988D01*
Y4160D01*
X9992Y4160D01*
X10000Y4165D01*
X10005Y4173D01*
X10005Y4177D01*
D02*
G37*
G36*
X11351Y4086D02*
Y4009D01*
X11428D01*
X11427Y4020D01*
X11422Y4035D01*
X11415Y4050D01*
X11405Y4062D01*
X11392Y4072D01*
X11378Y4080D01*
X11363Y4085D01*
X11351Y4086D01*
D02*
G37*
G36*
X11071Y4291D02*
X11062Y4290D01*
X11054Y4285D01*
X11049Y4277D01*
X11048Y4268D01*
X11049Y4259D01*
X11052Y4255D01*
Y4105D01*
X11048Y4103D01*
X11043Y4095D01*
X11042Y4086D01*
X11043Y4077D01*
X11048Y4069D01*
X11056Y4064D01*
X11065Y4063D01*
X11074Y4064D01*
X11082Y4069D01*
X11087Y4077D01*
X11088Y4086D01*
X11087Y4095D01*
X11082Y4103D01*
X11078Y4105D01*
Y4246D01*
X11080Y4246D01*
X11088Y4251D01*
X11093Y4259D01*
X11094Y4268D01*
X11093Y4277D01*
X11088Y4285D01*
X11080Y4290D01*
X11071Y4291D01*
D02*
G37*
G36*
X11460Y4245D02*
X11443D01*
X11443Y4241D01*
X11448Y4233D01*
X11456Y4228D01*
X11460Y4228D01*
Y4245D01*
D02*
G37*
G36*
X11487D02*
X11470D01*
Y4228D01*
X11474Y4228D01*
X11482Y4233D01*
X11487Y4241D01*
X11487Y4245D01*
D02*
G37*
G36*
X9978Y4204D02*
X9974Y4204D01*
X9966Y4199D01*
X9961Y4191D01*
X9961Y4187D01*
X9978D01*
Y4204D01*
D02*
G37*
G36*
X9988D02*
Y4187D01*
X10005D01*
X10005Y4191D01*
X10000Y4199D01*
X9992Y4204D01*
X9988Y4204D01*
D02*
G37*
G36*
X11341Y4086D02*
X11330Y4085D01*
X11315Y4080D01*
X11301Y4072D01*
X11288Y4062D01*
X11278Y4050D01*
X11271Y4035D01*
X11266Y4020D01*
X11265Y4009D01*
X11341D01*
Y4086D01*
D02*
G37*
G36*
X10619Y3964D02*
X10615Y3964D01*
X10607Y3959D01*
X10602Y3951D01*
X10602Y3947D01*
X10619D01*
Y3964D01*
D02*
G37*
G36*
X10629D02*
Y3947D01*
X10646D01*
X10646Y3951D01*
X10641Y3959D01*
X10633Y3964D01*
X10629Y3964D01*
D02*
G37*
G36*
X9986Y3959D02*
X9982Y3959D01*
X9974Y3954D01*
X9969Y3946D01*
X9969Y3942D01*
X9986D01*
Y3959D01*
D02*
G37*
G36*
X9996D02*
Y3942D01*
X10013D01*
X10013Y3946D01*
X10008Y3954D01*
X10000Y3959D01*
X9996Y3959D01*
D02*
G37*
G36*
X10466Y4026D02*
X10462Y4026D01*
X10454Y4021D01*
X10449Y4013D01*
X10449Y4009D01*
X10466D01*
Y4026D01*
D02*
G37*
G36*
X10476D02*
Y4009D01*
X10493D01*
X10493Y4013D01*
X10488Y4021D01*
X10480Y4026D01*
X10476Y4026D01*
D02*
G37*
G36*
X10466Y3999D02*
X10449D01*
X10449Y3995D01*
X10454Y3987D01*
X10462Y3982D01*
X10466Y3982D01*
Y3999D01*
D02*
G37*
G36*
X10493D02*
X10476D01*
Y3982D01*
X10480Y3982D01*
X10488Y3987D01*
X10493Y3995D01*
X10493Y3999D01*
D02*
G37*
G36*
X9842Y3121D02*
X9801D01*
X9802Y3114D01*
X9807Y3103D01*
X9814Y3093D01*
X9824Y3086D01*
X9835Y3081D01*
X9842Y3080D01*
Y3121D01*
D02*
G37*
G36*
X9894D02*
X9852D01*
Y3080D01*
X9860Y3081D01*
X9871Y3086D01*
X9880Y3093D01*
X9888Y3103D01*
X9893Y3114D01*
X9894Y3121D01*
D02*
G37*
G36*
X10508Y3173D02*
X10496Y3172D01*
X10484Y3167D01*
X10475Y3160D01*
X10467Y3150D01*
X10462Y3139D01*
X10461Y3126D01*
X10462Y3114D01*
X10467Y3103D01*
X10475Y3093D01*
X10484Y3086D01*
X10496Y3081D01*
X10508Y3080D01*
X10520Y3081D01*
X10531Y3086D01*
X10541Y3093D01*
X10548Y3103D01*
X10553Y3114D01*
X10554Y3126D01*
X10553Y3139D01*
X10548Y3150D01*
X10541Y3160D01*
X10531Y3167D01*
X10520Y3172D01*
X10508Y3173D01*
D02*
G37*
G36*
X10673D02*
X10660Y3172D01*
X10649Y3167D01*
X10640Y3160D01*
X10632Y3150D01*
X10627Y3139D01*
X10626Y3126D01*
X10627Y3114D01*
X10632Y3103D01*
X10640Y3093D01*
X10649Y3086D01*
X10660Y3081D01*
X10673Y3080D01*
X10685Y3081D01*
X10696Y3086D01*
X10706Y3093D01*
X10713Y3103D01*
X10718Y3114D01*
X10719Y3126D01*
X10718Y3139D01*
X10713Y3150D01*
X10706Y3160D01*
X10696Y3167D01*
X10685Y3172D01*
X10673Y3173D01*
D02*
G37*
G36*
X9842Y3173D02*
X9835Y3172D01*
X9824Y3167D01*
X9814Y3160D01*
X9807Y3150D01*
X9802Y3139D01*
X9801Y3131D01*
X9842D01*
Y3173D01*
D02*
G37*
G36*
X9852D02*
Y3131D01*
X9894D01*
X9893Y3139D01*
X9888Y3150D01*
X9880Y3160D01*
X9871Y3167D01*
X9860Y3172D01*
X9852Y3173D01*
D02*
G37*
G36*
X10172Y3121D02*
X10131D01*
X10132Y3114D01*
X10137Y3103D01*
X10144Y3093D01*
X10154Y3086D01*
X10165Y3081D01*
X10172Y3080D01*
Y3121D01*
D02*
G37*
G36*
X10223D02*
X10182D01*
Y3080D01*
X10189Y3081D01*
X10201Y3086D01*
X10210Y3093D01*
X10218Y3103D01*
X10222Y3114D01*
X10223Y3121D01*
D02*
G37*
G36*
X10177Y2923D02*
X10165Y2922D01*
X10154Y2917D01*
X10144Y2910D01*
X10137Y2900D01*
X10132Y2889D01*
X10131Y2876D01*
X10132Y2864D01*
X10137Y2853D01*
X10144Y2843D01*
X10154Y2836D01*
X10165Y2831D01*
X10177Y2830D01*
X10189Y2831D01*
X10201Y2836D01*
X10210Y2843D01*
X10218Y2853D01*
X10222Y2864D01*
X10224Y2876D01*
X10222Y2889D01*
X10218Y2900D01*
X10210Y2910D01*
X10201Y2917D01*
X10189Y2922D01*
X10177Y2923D01*
D02*
G37*
G36*
X10343D02*
X10331Y2922D01*
X10319Y2917D01*
X10310Y2910D01*
X10302Y2900D01*
X10298Y2889D01*
X10296Y2876D01*
X10298Y2864D01*
X10302Y2853D01*
X10310Y2843D01*
X10319Y2836D01*
X10331Y2831D01*
X10343Y2830D01*
X10355Y2831D01*
X10366Y2836D01*
X10376Y2843D01*
X10383Y2853D01*
X10388Y2864D01*
X10389Y2876D01*
X10388Y2889D01*
X10383Y2900D01*
X10376Y2910D01*
X10366Y2917D01*
X10355Y2922D01*
X10343Y2923D01*
D02*
G37*
G36*
X9847D02*
X9835Y2922D01*
X9824Y2917D01*
X9814Y2910D01*
X9807Y2900D01*
X9802Y2889D01*
X9801Y2876D01*
X9802Y2864D01*
X9807Y2853D01*
X9814Y2843D01*
X9824Y2836D01*
X9835Y2831D01*
X9847Y2830D01*
X9860Y2831D01*
X9871Y2836D01*
X9880Y2843D01*
X9888Y2853D01*
X9893Y2864D01*
X9894Y2876D01*
X9893Y2889D01*
X9888Y2900D01*
X9880Y2910D01*
X9871Y2917D01*
X9860Y2922D01*
X9847Y2923D01*
D02*
G37*
G36*
X10012D02*
X10000Y2922D01*
X9989Y2917D01*
X9979Y2910D01*
X9972Y2900D01*
X9967Y2889D01*
X9966Y2876D01*
X9967Y2864D01*
X9972Y2853D01*
X9979Y2843D01*
X9989Y2836D01*
X10000Y2831D01*
X10012Y2830D01*
X10024Y2831D01*
X10036Y2836D01*
X10045Y2843D01*
X10053Y2853D01*
X10058Y2864D01*
X10059Y2876D01*
X10058Y2889D01*
X10053Y2900D01*
X10045Y2910D01*
X10036Y2917D01*
X10024Y2922D01*
X10012Y2923D01*
D02*
G37*
G36*
Y3173D02*
X10000Y3172D01*
X9989Y3167D01*
X9979Y3160D01*
X9972Y3150D01*
X9967Y3139D01*
X9966Y3126D01*
X9967Y3114D01*
X9972Y3103D01*
X9979Y3093D01*
X9989Y3086D01*
X10000Y3081D01*
X10012Y3080D01*
X10024Y3081D01*
X10036Y3086D01*
X10045Y3093D01*
X10053Y3103D01*
X10058Y3114D01*
X10059Y3126D01*
X10058Y3139D01*
X10053Y3150D01*
X10045Y3160D01*
X10036Y3167D01*
X10024Y3172D01*
X10012Y3173D01*
D02*
G37*
G36*
X10343D02*
X10331Y3172D01*
X10319Y3167D01*
X10310Y3160D01*
X10302Y3150D01*
X10298Y3139D01*
X10296Y3126D01*
X10298Y3114D01*
X10302Y3103D01*
X10310Y3093D01*
X10319Y3086D01*
X10331Y3081D01*
X10343Y3080D01*
X10355Y3081D01*
X10366Y3086D01*
X10376Y3093D01*
X10383Y3103D01*
X10388Y3114D01*
X10389Y3126D01*
X10388Y3139D01*
X10383Y3150D01*
X10376Y3160D01*
X10366Y3167D01*
X10355Y3172D01*
X10343Y3173D01*
D02*
G37*
G36*
X10508Y2923D02*
X10496Y2922D01*
X10484Y2917D01*
X10475Y2910D01*
X10467Y2900D01*
X10462Y2889D01*
X10461Y2876D01*
X10462Y2864D01*
X10467Y2853D01*
X10475Y2843D01*
X10484Y2836D01*
X10496Y2831D01*
X10508Y2830D01*
X10520Y2831D01*
X10531Y2836D01*
X10541Y2843D01*
X10548Y2853D01*
X10553Y2864D01*
X10554Y2876D01*
X10553Y2889D01*
X10548Y2900D01*
X10541Y2910D01*
X10531Y2917D01*
X10520Y2922D01*
X10508Y2923D01*
D02*
G37*
G36*
X10673D02*
X10660Y2922D01*
X10649Y2917D01*
X10640Y2910D01*
X10632Y2900D01*
X10627Y2889D01*
X10626Y2876D01*
X10627Y2864D01*
X10632Y2853D01*
X10640Y2843D01*
X10649Y2836D01*
X10660Y2831D01*
X10673Y2830D01*
X10685Y2831D01*
X10696Y2836D01*
X10706Y2843D01*
X10713Y2853D01*
X10718Y2864D01*
X10719Y2876D01*
X10718Y2889D01*
X10713Y2900D01*
X10706Y2910D01*
X10696Y2917D01*
X10685Y2922D01*
X10673Y2923D01*
D02*
G37*
G36*
X10172Y3173D02*
X10165Y3172D01*
X10154Y3167D01*
X10144Y3160D01*
X10137Y3150D01*
X10132Y3139D01*
X10131Y3131D01*
X10172D01*
Y3173D01*
D02*
G37*
G36*
X11240Y3757D02*
X11230Y3755D01*
X11220Y3751D01*
X11212Y3745D01*
X11206Y3737D01*
X11204Y3733D01*
X11196D01*
X11195Y3737D01*
X11189Y3745D01*
X11180Y3751D01*
X11171Y3755D01*
X11161Y3757D01*
X11151Y3755D01*
X11142Y3751D01*
X11134Y3745D01*
X11127Y3737D01*
X11124Y3728D01*
X11122Y3718D01*
X11124Y3708D01*
X11127Y3698D01*
X11134Y3690D01*
X11142Y3684D01*
X11151Y3680D01*
X11161Y3679D01*
X11171Y3680D01*
X11180Y3684D01*
X11189Y3690D01*
X11195Y3698D01*
X11196Y3703D01*
X11204D01*
X11206Y3698D01*
X11212Y3690D01*
X11220Y3684D01*
X11230Y3680D01*
X11240Y3679D01*
X11250Y3680D01*
X11259Y3684D01*
X11267Y3690D01*
X11273Y3698D01*
X11277Y3708D01*
X11279Y3718D01*
X11277Y3728D01*
X11273Y3737D01*
X11267Y3745D01*
X11259Y3751D01*
X11250Y3755D01*
X11240Y3757D01*
D02*
G37*
G36*
X9472Y3777D02*
X9455D01*
X9455Y3773D01*
X9460Y3765D01*
X9468Y3760D01*
X9472Y3760D01*
Y3777D01*
D02*
G37*
G36*
X11341Y3612D02*
X11330Y3611D01*
X11315Y3606D01*
X11301Y3598D01*
X11288Y3588D01*
X11278Y3576D01*
X11271Y3561D01*
X11266Y3546D01*
X11265Y3535D01*
X11341D01*
Y3612D01*
D02*
G37*
G36*
X11351D02*
Y3535D01*
X11428D01*
X11427Y3546D01*
X11422Y3561D01*
X11415Y3576D01*
X11405Y3588D01*
X11392Y3598D01*
X11378Y3606D01*
X11363Y3611D01*
X11351Y3612D01*
D02*
G37*
G36*
X11278Y3811D02*
X11245D01*
Y3778D01*
X11250Y3779D01*
X11259Y3783D01*
X11267Y3789D01*
X11273Y3797D01*
X11277Y3806D01*
X11278Y3811D01*
D02*
G37*
G36*
X9472Y3804D02*
X9468Y3804D01*
X9460Y3799D01*
X9455Y3791D01*
X9455Y3787D01*
X9472D01*
Y3804D01*
D02*
G37*
G36*
X9499Y3777D02*
X9482D01*
Y3760D01*
X9486Y3760D01*
X9494Y3765D01*
X9499Y3773D01*
X9499Y3777D01*
D02*
G37*
G36*
X11390Y4376D02*
X11381Y4375D01*
X11373Y4370D01*
X11368Y4362D01*
X11367Y4356D01*
X11148Y4137D01*
X11144Y4131D01*
X11144Y4130D01*
X11143Y4124D01*
Y3855D01*
X11123D01*
Y3778D01*
X11200D01*
Y3793D01*
X11207Y3796D01*
X11212Y3789D01*
X11220Y3783D01*
X11230Y3779D01*
X11235Y3778D01*
Y3816D01*
Y3854D01*
X11230Y3854D01*
X11220Y3850D01*
X11212Y3844D01*
X11207Y3837D01*
X11200Y3839D01*
Y3855D01*
X11179D01*
Y4116D01*
X11393Y4330D01*
X11399Y4331D01*
X11407Y4336D01*
X11412Y4344D01*
X11413Y4353D01*
X11412Y4362D01*
X11407Y4370D01*
X11399Y4375D01*
X11390Y4376D01*
D02*
G37*
G36*
X11341Y3525D02*
X11265D01*
X11266Y3514D01*
X11271Y3499D01*
X11278Y3484D01*
X11288Y3472D01*
X11301Y3462D01*
X11315Y3454D01*
X11330Y3449D01*
X11341Y3448D01*
Y3525D01*
D02*
G37*
G36*
X11428D02*
X11351D01*
Y3448D01*
X11363Y3449D01*
X11378Y3454D01*
X11392Y3462D01*
X11405Y3472D01*
X11415Y3484D01*
X11422Y3499D01*
X11427Y3514D01*
X11428Y3525D01*
D02*
G37*
G36*
X10182Y3173D02*
Y3131D01*
X10223D01*
X10222Y3139D01*
X10218Y3150D01*
X10210Y3160D01*
X10201Y3167D01*
X10189Y3172D01*
X10182Y3173D01*
D02*
G37*
G36*
X10237Y3490D02*
X10228Y3489D01*
X10220Y3484D01*
X10215Y3476D01*
X10214Y3467D01*
X10215Y3458D01*
X10220Y3452D01*
Y3377D01*
X10219Y3377D01*
X10214Y3369D01*
X10213Y3360D01*
X10214Y3351D01*
X10219Y3343D01*
X10227Y3338D01*
X10236Y3337D01*
X10245Y3338D01*
X10253Y3343D01*
X10258Y3351D01*
X10259Y3360D01*
X10258Y3369D01*
X10253Y3377D01*
X10252Y3377D01*
Y3450D01*
X10254Y3450D01*
X10259Y3458D01*
X10260Y3467D01*
X10259Y3476D01*
X10254Y3484D01*
X10246Y3489D01*
X10237Y3490D01*
D02*
G37*
G36*
X10798Y3519D02*
X10794Y3519D01*
X10786Y3514D01*
X10781Y3506D01*
X10781Y3502D01*
X10798D01*
Y3519D01*
D02*
G37*
G36*
X10808D02*
Y3502D01*
X10825D01*
X10825Y3506D01*
X10820Y3514D01*
X10812Y3519D01*
X10808Y3519D01*
D02*
G37*
G36*
X10798Y3492D02*
X10781D01*
X10781Y3488D01*
X10786Y3480D01*
X10794Y3475D01*
X10798Y3475D01*
Y3492D01*
D02*
G37*
G36*
X10825D02*
X10808D01*
Y3475D01*
X10812Y3475D01*
X10820Y3480D01*
X10825Y3488D01*
X10825Y3492D01*
D02*
G37*
G36*
X11460Y4272D02*
X11456Y4272D01*
X11448Y4267D01*
X11443Y4259D01*
X11443Y4255D01*
X11460D01*
Y4272D01*
D02*
G37*
G36*
X9783Y4897D02*
X9766D01*
Y4880D01*
X9770Y4880D01*
X9778Y4885D01*
X9783Y4893D01*
X9783Y4897D01*
D02*
G37*
G36*
X10345Y4950D02*
X10301D01*
X10301Y4946D01*
X10306Y4939D01*
X10302Y4932D01*
X10254D01*
X10248Y4931D01*
X10242Y4928D01*
X9873Y4559D01*
X9870Y4553D01*
X9869Y4547D01*
Y3962D01*
X9869Y3962D01*
X9869D01*
X9870Y3956D01*
X9873Y3950D01*
X10013Y3811D01*
X10014Y3803D01*
X10019Y3795D01*
X10027Y3790D01*
X10036Y3789D01*
X10045Y3790D01*
X10053Y3795D01*
X10058Y3803D01*
X10059Y3812D01*
X10058Y3821D01*
X10053Y3829D01*
X10045Y3834D01*
X10036Y3835D01*
X10035Y3835D01*
X9901Y3969D01*
Y4476D01*
X9909Y4478D01*
X9913Y4471D01*
X9921Y4466D01*
X9930Y4465D01*
X9939Y4466D01*
X9947Y4471D01*
X9952Y4479D01*
X9953Y4488D01*
X9953Y4488D01*
X10291Y4826D01*
X10356D01*
X10361Y4822D01*
X10370Y4821D01*
X10379Y4822D01*
X10387Y4827D01*
X10392Y4835D01*
X10393Y4844D01*
X10392Y4853D01*
X10387Y4861D01*
X10379Y4866D01*
X10370Y4867D01*
X10361Y4866D01*
X10353Y4861D01*
X10352Y4858D01*
X10284D01*
X10278Y4857D01*
X10272Y4854D01*
X9930Y4511D01*
X9930Y4511D01*
X9921Y4510D01*
X9913Y4505D01*
X9909Y4498D01*
X9901Y4500D01*
Y4540D01*
X10261Y4900D01*
X10364D01*
X10364Y4899D01*
X10372Y4894D01*
X10381Y4893D01*
X10390Y4894D01*
X10398Y4899D01*
X10403Y4907D01*
X10404Y4916D01*
X10403Y4925D01*
X10398Y4933D01*
X10390Y4938D01*
X10381Y4939D01*
X10372Y4938D01*
X10364Y4933D01*
X10364Y4932D01*
X10344D01*
X10340Y4939D01*
X10345Y4946D01*
X10345Y4950D01*
D02*
G37*
G36*
X10152Y4885D02*
X10135D01*
Y4868D01*
X10139Y4868D01*
X10147Y4873D01*
X10152Y4881D01*
X10152Y4885D01*
D02*
G37*
G36*
X9756Y4897D02*
X9739D01*
X9739Y4893D01*
X9744Y4885D01*
X9752Y4880D01*
X9756Y4880D01*
Y4897D01*
D02*
G37*
G36*
Y4924D02*
X9752Y4924D01*
X9744Y4919D01*
X9739Y4911D01*
X9739Y4907D01*
X9756D01*
Y4924D01*
D02*
G37*
G36*
X9766D02*
Y4907D01*
X9783D01*
X9783Y4911D01*
X9778Y4919D01*
X9770Y4924D01*
X9766Y4924D01*
D02*
G37*
G36*
X10125Y4912D02*
X10121Y4912D01*
X10113Y4907D01*
X10108Y4899D01*
X10108Y4895D01*
X10125D01*
Y4912D01*
D02*
G37*
G36*
X10135D02*
Y4895D01*
X10152D01*
X10152Y4899D01*
X10147Y4907D01*
X10139Y4912D01*
X10135Y4912D01*
D02*
G37*
G36*
X10764Y4804D02*
Y4787D01*
X10781D01*
X10781Y4791D01*
X10776Y4799D01*
X10768Y4804D01*
X10764Y4804D01*
D02*
G37*
G36*
X9900Y4814D02*
X9883D01*
X9884Y4810D01*
X9889Y4803D01*
X9896Y4798D01*
X9900Y4797D01*
Y4814D01*
D02*
G37*
G36*
X11595Y4803D02*
Y4786D01*
X11613D01*
X11612Y4790D01*
X11607Y4797D01*
X11599Y4802D01*
X11595Y4803D01*
D02*
G37*
G36*
X10754Y4804D02*
X10750Y4804D01*
X10742Y4799D01*
X10737Y4791D01*
X10737Y4787D01*
X10754D01*
Y4804D01*
D02*
G37*
G36*
X9910Y4842D02*
Y4824D01*
X9928D01*
X9927Y4828D01*
X9922Y4836D01*
X9914Y4841D01*
X9910Y4842D01*
D02*
G37*
G36*
X10125Y4885D02*
X10108D01*
X10108Y4881D01*
X10113Y4873D01*
X10121Y4868D01*
X10125Y4868D01*
Y4885D01*
D02*
G37*
G36*
X9928Y4814D02*
X9910D01*
Y4797D01*
X9914Y4798D01*
X9922Y4803D01*
X9927Y4810D01*
X9928Y4814D01*
D02*
G37*
G36*
X9900Y4842D02*
X9896Y4841D01*
X9889Y4836D01*
X9884Y4828D01*
X9883Y4824D01*
X9900D01*
Y4842D01*
D02*
G37*
G36*
X10318Y4977D02*
X10314Y4977D01*
X10306Y4972D01*
X10301Y4964D01*
X10301Y4960D01*
X10318D01*
Y4977D01*
D02*
G37*
G36*
X10702Y5730D02*
X10687Y5729D01*
X10673Y5723D01*
X10661Y5714D01*
X10652Y5702D01*
X10646Y5688D01*
X10645Y5673D01*
X10646Y5658D01*
X10652Y5644D01*
X10661Y5632D01*
X10673Y5623D01*
X10687Y5617D01*
X10702Y5616D01*
X10717Y5617D01*
X10731Y5623D01*
X10743Y5632D01*
X10752Y5644D01*
X10758Y5658D01*
X10759Y5673D01*
X10758Y5688D01*
X10752Y5702D01*
X10743Y5714D01*
X10731Y5723D01*
X10717Y5729D01*
X10702Y5730D01*
D02*
G37*
G36*
X10959Y5730D02*
X10845D01*
Y5616D01*
X10959D01*
Y5730D01*
D02*
G37*
G36*
X10102Y5730D02*
X10087Y5729D01*
X10073Y5723D01*
X10061Y5714D01*
X10052Y5702D01*
X10046Y5688D01*
X10045Y5673D01*
X10046Y5658D01*
X10052Y5644D01*
X10061Y5632D01*
X10073Y5623D01*
X10087Y5617D01*
X10102Y5616D01*
X10117Y5617D01*
X10131Y5623D01*
X10143Y5632D01*
X10152Y5644D01*
X10158Y5658D01*
X10159Y5673D01*
X10158Y5688D01*
X10152Y5702D01*
X10143Y5714D01*
X10131Y5723D01*
X10117Y5729D01*
X10102Y5730D01*
D02*
G37*
G36*
X10302D02*
X10287Y5729D01*
X10273Y5723D01*
X10261Y5714D01*
X10252Y5702D01*
X10246Y5688D01*
X10245Y5673D01*
X10246Y5658D01*
X10252Y5644D01*
X10261Y5632D01*
X10273Y5623D01*
X10287Y5617D01*
X10302Y5616D01*
X10317Y5617D01*
X10331Y5623D01*
X10343Y5632D01*
X10352Y5644D01*
X10358Y5658D01*
X10359Y5673D01*
X10358Y5688D01*
X10352Y5702D01*
X10343Y5714D01*
X10331Y5723D01*
X10317Y5729D01*
X10302Y5730D01*
D02*
G37*
G36*
X10497Y5730D02*
X10487Y5729D01*
X10473Y5723D01*
X10461Y5714D01*
X10452Y5702D01*
X10446Y5688D01*
X10445Y5678D01*
X10497D01*
Y5730D01*
D02*
G37*
G36*
X10507D02*
Y5678D01*
X10559D01*
X10558Y5688D01*
X10552Y5702D01*
X10543Y5714D01*
X10531Y5723D01*
X10517Y5729D01*
X10507Y5730D01*
D02*
G37*
G36*
X10497Y5668D02*
X10445D01*
X10446Y5658D01*
X10452Y5644D01*
X10461Y5632D01*
X10473Y5623D01*
X10487Y5617D01*
X10497Y5616D01*
Y5668D01*
D02*
G37*
G36*
X10559D02*
X10507D01*
Y5616D01*
X10517Y5617D01*
X10531Y5623D01*
X10543Y5632D01*
X10552Y5644D01*
X10558Y5658D01*
X10559Y5668D01*
D02*
G37*
G36*
X11205Y5150D02*
X11196Y5149D01*
X11188Y5144D01*
X11186Y5139D01*
X10893D01*
X10887Y5138D01*
X10881Y5135D01*
X10878Y5131D01*
X10878Y5131D01*
X10869Y5130D01*
X10861Y5125D01*
X10856Y5117D01*
X10855Y5108D01*
X10856Y5099D01*
X10861Y5091D01*
X10869Y5086D01*
X10878Y5085D01*
X10887Y5086D01*
X10895Y5091D01*
X10900Y5099D01*
X10901Y5107D01*
X11194D01*
X11196Y5105D01*
X11205Y5104D01*
X11214Y5105D01*
X11222Y5110D01*
X11227Y5118D01*
X11228Y5127D01*
X11227Y5136D01*
X11222Y5144D01*
X11214Y5149D01*
X11205Y5150D01*
D02*
G37*
G36*
X10272Y5238D02*
X10255D01*
X10255Y5234D01*
X10260Y5226D01*
X10268Y5221D01*
X10272Y5221D01*
Y5238D01*
D02*
G37*
G36*
X10328Y4977D02*
Y4960D01*
X10345D01*
X10345Y4964D01*
X10340Y4972D01*
X10332Y4977D01*
X10328Y4977D01*
D02*
G37*
G36*
X11134Y5052D02*
X11125Y5051D01*
X11117Y5046D01*
X11116Y5043D01*
X10821D01*
X10818Y5046D01*
X10809Y5047D01*
X10800Y5046D01*
X10792Y5041D01*
X10787Y5033D01*
X10786Y5024D01*
X10787Y5015D01*
X10792Y5007D01*
X10800Y5002D01*
X10809Y5001D01*
X10818Y5002D01*
X10826Y5007D01*
X10828Y5011D01*
X11120D01*
X11125Y5007D01*
X11134Y5006D01*
X11143Y5007D01*
X11151Y5012D01*
X11156Y5020D01*
X11157Y5029D01*
X11156Y5038D01*
X11151Y5046D01*
X11143Y5051D01*
X11134Y5052D01*
D02*
G37*
G36*
X10282Y5265D02*
Y5248D01*
X10299D01*
X10299Y5252D01*
X10294Y5260D01*
X10286Y5265D01*
X10282Y5265D01*
D02*
G37*
G36*
X9902Y5730D02*
X9887Y5729D01*
X9873Y5723D01*
X9861Y5714D01*
X9852Y5702D01*
X9846Y5688D01*
X9845Y5673D01*
X9846Y5658D01*
X9852Y5644D01*
X9861Y5632D01*
X9873Y5623D01*
X9887Y5617D01*
X9902Y5616D01*
X9917Y5617D01*
X9931Y5623D01*
X9943Y5632D01*
X9952Y5644D01*
X9958Y5658D01*
X9959Y5673D01*
X9958Y5688D01*
X9952Y5702D01*
X9943Y5714D01*
X9931Y5723D01*
X9917Y5729D01*
X9902Y5730D01*
D02*
G37*
G36*
X10299Y5238D02*
X10282D01*
Y5221D01*
X10286Y5221D01*
X10294Y5226D01*
X10299Y5234D01*
X10299Y5238D01*
D02*
G37*
G36*
X10272Y5265D02*
X10268Y5265D01*
X10260Y5260D01*
X10255Y5252D01*
X10255Y5248D01*
X10272D01*
Y5265D01*
D02*
G37*
G36*
X11356Y4480D02*
X11338D01*
Y4463D01*
X11342Y4463D01*
X11350Y4468D01*
X11355Y4476D01*
X11356Y4480D01*
D02*
G37*
G36*
X11328Y4507D02*
X11324Y4507D01*
X11317Y4502D01*
X11312Y4494D01*
X11311Y4490D01*
X11328D01*
Y4507D01*
D02*
G37*
G36*
X10875Y4420D02*
Y4403D01*
X10892D01*
X10892Y4407D01*
X10887Y4415D01*
X10879Y4420D01*
X10875Y4420D01*
D02*
G37*
G36*
X11328Y4480D02*
X11311D01*
X11312Y4476D01*
X11317Y4468D01*
X11324Y4463D01*
X11328Y4463D01*
Y4480D01*
D02*
G37*
G36*
X11635Y4568D02*
X11618D01*
Y4551D01*
X11622Y4551D01*
X11630Y4556D01*
X11635Y4564D01*
X11635Y4568D01*
D02*
G37*
G36*
X11608Y4595D02*
X11604Y4595D01*
X11596Y4590D01*
X11591Y4582D01*
X11591Y4578D01*
X11608D01*
Y4595D01*
D02*
G37*
G36*
X11338Y4507D02*
Y4490D01*
X11356D01*
X11355Y4494D01*
X11350Y4502D01*
X11342Y4507D01*
X11338Y4507D01*
D02*
G37*
G36*
X11608Y4568D02*
X11591D01*
X11591Y4564D01*
X11596Y4556D01*
X11604Y4551D01*
X11608Y4551D01*
Y4568D01*
D02*
G37*
G36*
X10247Y4364D02*
X10230D01*
Y4347D01*
X10234Y4347D01*
X10242Y4352D01*
X10247Y4360D01*
X10247Y4364D01*
D02*
G37*
G36*
X10220Y4391D02*
X10216Y4391D01*
X10208Y4386D01*
X10203Y4378D01*
X10203Y4374D01*
X10220D01*
Y4391D01*
D02*
G37*
G36*
X11470Y4272D02*
Y4255D01*
X11487D01*
X11487Y4259D01*
X11482Y4267D01*
X11474Y4272D01*
X11470Y4272D01*
D02*
G37*
G36*
X10220Y4364D02*
X10203D01*
X10203Y4360D01*
X10208Y4352D01*
X10216Y4347D01*
X10220Y4347D01*
Y4364D01*
D02*
G37*
G36*
X10892Y4393D02*
X10875D01*
Y4376D01*
X10879Y4376D01*
X10887Y4381D01*
X10892Y4389D01*
X10892Y4393D01*
D02*
G37*
G36*
X10865Y4420D02*
X10861Y4420D01*
X10853Y4415D01*
X10848Y4407D01*
X10848Y4403D01*
X10865D01*
Y4420D01*
D02*
G37*
G36*
X10230Y4391D02*
Y4374D01*
X10247D01*
X10247Y4378D01*
X10242Y4386D01*
X10234Y4391D01*
X10230Y4391D01*
D02*
G37*
G36*
X10865Y4393D02*
X10848D01*
X10848Y4389D01*
X10853Y4381D01*
X10861Y4376D01*
X10865Y4376D01*
Y4393D01*
D02*
G37*
G36*
X11618Y4595D02*
Y4578D01*
X11635D01*
X11635Y4582D01*
X11630Y4590D01*
X11622Y4595D01*
X11618Y4595D01*
D02*
G37*
G36*
X10463Y4753D02*
Y4736D01*
X10480D01*
X10480Y4740D01*
X10475Y4748D01*
X10467Y4753D01*
X10463Y4753D01*
D02*
G37*
G36*
X11585Y4776D02*
X11568D01*
X11569Y4772D01*
X11574Y4764D01*
X11581Y4759D01*
X11585Y4758D01*
Y4776D01*
D02*
G37*
G36*
X10480Y4726D02*
X10463D01*
Y4709D01*
X10467Y4709D01*
X10475Y4714D01*
X10480Y4722D01*
X10480Y4726D01*
D02*
G37*
G36*
X10453Y4753D02*
X10449Y4753D01*
X10441Y4748D01*
X10436Y4740D01*
X10436Y4736D01*
X10453D01*
Y4753D01*
D02*
G37*
G36*
X10781Y4777D02*
X10764D01*
Y4760D01*
X10768Y4760D01*
X10776Y4765D01*
X10781Y4773D01*
X10781Y4777D01*
D02*
G37*
G36*
X11585Y4803D02*
X11581Y4802D01*
X11574Y4797D01*
X11569Y4790D01*
X11568Y4786D01*
X11585D01*
Y4803D01*
D02*
G37*
G36*
X11613Y4776D02*
X11595D01*
Y4758D01*
X11599Y4759D01*
X11607Y4764D01*
X11612Y4772D01*
X11613Y4776D01*
D02*
G37*
G36*
X10754Y4777D02*
X10737D01*
X10737Y4773D01*
X10742Y4765D01*
X10750Y4760D01*
X10754Y4760D01*
Y4777D01*
D02*
G37*
G36*
X10373Y4608D02*
X10356D01*
Y4591D01*
X10360Y4591D01*
X10368Y4596D01*
X10373Y4604D01*
X10373Y4608D01*
D02*
G37*
G36*
X10346Y4635D02*
X10342Y4635D01*
X10334Y4630D01*
X10329Y4622D01*
X10329Y4618D01*
X10346D01*
Y4635D01*
D02*
G37*
G36*
X10275Y4625D02*
X10266Y4624D01*
X10258Y4619D01*
X10253Y4611D01*
X10252Y4602D01*
X10252Y4599D01*
X10158Y4505D01*
X10155Y4500D01*
X10154Y4495D01*
X10154Y4495D01*
Y4382D01*
X10151Y4380D01*
X10146Y4373D01*
X10145Y4364D01*
X10146Y4355D01*
X10151Y4347D01*
X10159Y4342D01*
X10168Y4340D01*
X10177Y4342D01*
X10185Y4347D01*
X10190Y4355D01*
X10191Y4364D01*
X10190Y4373D01*
X10185Y4380D01*
X10182Y4382D01*
Y4489D01*
X10272Y4579D01*
X10275Y4579D01*
X10284Y4580D01*
X10292Y4585D01*
X10297Y4593D01*
X10298Y4602D01*
X10297Y4611D01*
X10292Y4619D01*
X10284Y4624D01*
X10275Y4625D01*
D02*
G37*
G36*
X10346Y4608D02*
X10329D01*
X10329Y4604D01*
X10334Y4596D01*
X10342Y4591D01*
X10346Y4591D01*
Y4608D01*
D02*
G37*
G36*
X10811Y4689D02*
X10485D01*
X10480Y4688D01*
X10476Y4685D01*
X10461Y4671D01*
X10457Y4672D01*
X10448Y4670D01*
X10441Y4665D01*
X10436Y4657D01*
X10434Y4648D01*
X10436Y4639D01*
X10441Y4632D01*
X10448Y4627D01*
X10457Y4625D01*
X10466Y4627D01*
X10474Y4632D01*
X10479Y4639D01*
X10481Y4648D01*
X10480Y4652D01*
X10490Y4663D01*
X10648D01*
X10650Y4655D01*
X10649Y4655D01*
X10644Y4647D01*
X10643Y4638D01*
X10644Y4629D01*
X10649Y4621D01*
X10657Y4616D01*
X10666Y4615D01*
X10675Y4616D01*
X10680Y4619D01*
X10687Y4616D01*
Y4546D01*
X10683Y4544D01*
X10678Y4536D01*
X10677Y4527D01*
X10678Y4518D01*
X10683Y4510D01*
X10691Y4505D01*
X10700Y4504D01*
X10709Y4505D01*
X10717Y4510D01*
X10722Y4518D01*
X10723Y4527D01*
X10722Y4536D01*
X10717Y4544D01*
X10713Y4546D01*
Y4625D01*
X10712Y4630D01*
X10709Y4634D01*
X10696Y4647D01*
X10692Y4650D01*
X10687Y4651D01*
X10683Y4654D01*
X10683Y4655D01*
X10682Y4655D01*
X10682Y4655D01*
X10684Y4663D01*
X10806D01*
X10819Y4649D01*
X10819Y4647D01*
X10820Y4638D01*
X10825Y4630D01*
X10833Y4625D01*
X10842Y4624D01*
X10851Y4625D01*
X10859Y4630D01*
X10864Y4638D01*
X10865Y4647D01*
X10864Y4656D01*
X10859Y4664D01*
X10851Y4669D01*
X10842Y4670D01*
X10836Y4669D01*
X10820Y4685D01*
D01*
X10820Y4685D01*
D01*
D01*
D01*
X10820Y4685D01*
X10820Y4685D01*
X10816Y4688D01*
X10811Y4689D01*
D02*
G37*
G36*
X10453Y4726D02*
X10436D01*
X10436Y4722D01*
X10441Y4714D01*
X10449Y4709D01*
X10453Y4709D01*
Y4726D01*
D02*
G37*
G36*
X10356Y4635D02*
Y4618D01*
X10373D01*
X10373Y4622D01*
X10368Y4630D01*
X10360Y4635D01*
X10356Y4635D01*
D02*
G37*
G36*
X10762Y4878D02*
X10753Y4877D01*
X10745Y4872D01*
X10740Y4864D01*
X10739Y4855D01*
X10740Y4846D01*
X10745Y4838D01*
X10753Y4833D01*
X10762Y4832D01*
X10771Y4833D01*
X10779Y4838D01*
X10779Y4840D01*
X10848D01*
X10892Y4796D01*
Y4601D01*
X10892Y4601D01*
X10892D01*
X10893Y4595D01*
X10896Y4589D01*
X10921Y4564D01*
X10927Y4561D01*
X10933Y4560D01*
X11010D01*
X11010Y4559D01*
X11018Y4554D01*
X11026Y4553D01*
X11126Y4453D01*
Y4309D01*
X11125Y4309D01*
X11120Y4301D01*
X11119Y4292D01*
X11120Y4283D01*
X11125Y4275D01*
X11133Y4270D01*
X11142Y4269D01*
X11151Y4270D01*
X11159Y4275D01*
X11164Y4283D01*
X11165Y4292D01*
X11164Y4301D01*
X11159Y4309D01*
X11158Y4309D01*
Y4460D01*
X11157Y4466D01*
X11154Y4472D01*
X11136Y4489D01*
X11254Y4608D01*
X11382D01*
X11382Y4607D01*
X11390Y4602D01*
X11399Y4601D01*
X11408Y4602D01*
X11416Y4607D01*
X11421Y4615D01*
X11422Y4624D01*
X11421Y4633D01*
X11416Y4641D01*
X11408Y4646D01*
X11399Y4647D01*
X11390Y4646D01*
X11382Y4641D01*
X11382Y4640D01*
X11248D01*
X11241Y4639D01*
X11236Y4636D01*
X11113Y4512D01*
X11050Y4575D01*
X11050Y4576D01*
X11049Y4585D01*
X11044Y4593D01*
X11045Y4596D01*
X11087D01*
X11089Y4591D01*
X11097Y4586D01*
X11106Y4585D01*
X11115Y4586D01*
X11123Y4591D01*
X11128Y4599D01*
X11129Y4608D01*
X11128Y4617D01*
X11123Y4625D01*
X11115Y4630D01*
X11106Y4631D01*
X11097Y4630D01*
X11089Y4625D01*
X11088Y4622D01*
X10983D01*
X10981Y4626D01*
X10973Y4631D01*
X10964Y4632D01*
X10955Y4631D01*
X10947Y4626D01*
X10942Y4618D01*
X10941Y4609D01*
X10942Y4601D01*
X10935Y4597D01*
X10924Y4608D01*
Y4658D01*
X10932Y4658D01*
X10932Y4658D01*
X10937Y4650D01*
X10945Y4645D01*
X10954Y4644D01*
X10963Y4645D01*
X10971Y4650D01*
X10973Y4654D01*
X11136D01*
X11138Y4650D01*
X11146Y4645D01*
X11155Y4644D01*
X11164Y4645D01*
X11172Y4650D01*
X11177Y4658D01*
X11178Y4667D01*
X11177Y4676D01*
X11172Y4684D01*
X11164Y4689D01*
X11155Y4690D01*
X11146Y4689D01*
X11138Y4684D01*
X11136Y4680D01*
X10973D01*
X10971Y4684D01*
X10963Y4689D01*
X10954Y4690D01*
X10945Y4689D01*
X10937Y4684D01*
X10932Y4676D01*
X10932Y4676D01*
X10924Y4676D01*
Y4803D01*
X10923Y4809D01*
X10920Y4815D01*
X10920Y4815D01*
X10920D01*
D01*
X10920Y4815D01*
Y4815D01*
X10867Y4868D01*
X10861Y4871D01*
X10855Y4872D01*
X10777D01*
X10771Y4877D01*
X10762Y4878D01*
D02*
G37*
%LPD*%
D26*
X10236Y3466D02*
X10237Y3467D01*
X10236Y3360D02*
Y3466D01*
X10035Y3812D02*
X10036D01*
X9885Y3962D02*
X10035Y3812D01*
X9885Y3962D02*
Y4547D01*
X10254Y4916D01*
X10381D01*
X10368Y4842D02*
X10370Y4844D01*
X10284Y4842D02*
X10368D01*
X9930Y4488D02*
X10284Y4842D01*
X10762Y4855D02*
X10763Y4856D01*
X10855D01*
X10908Y4803D01*
Y4601D02*
Y4803D01*
Y4601D02*
X10933Y4576D01*
X11142Y4292D02*
Y4460D01*
X11113Y4489D02*
X11248Y4624D01*
X10933Y4576D02*
X11027D01*
X11026D02*
X11142Y4460D01*
X11248Y4624D02*
X11399D01*
X10809Y5024D02*
X10812Y5027D01*
X11132D01*
X11134Y5029D01*
X10878Y5108D02*
X10893Y5123D01*
X11201D01*
X11205Y5127D01*
X10690Y5024D02*
Y5049D01*
Y5024D02*
X10787Y4927D01*
X11639D01*
X11695Y4871D01*
Y4769D02*
Y4871D01*
Y4769D02*
X11700Y4764D01*
D27*
X10168Y4495D02*
X10275Y4602D01*
X10168Y4364D02*
Y4495D01*
D28*
X11161Y3816D02*
Y4124D01*
X11390Y4353D01*
D29*
X11065Y4262D02*
X11071Y4268D01*
X11065Y4086D02*
Y4262D01*
X10840Y4647D02*
X10842D01*
X10811Y4676D02*
X10840Y4647D01*
X10485Y4676D02*
X10811D01*
X10457Y4648D02*
X10485Y4676D01*
X10666Y4638D02*
X10687D01*
X10700Y4625D01*
Y4527D02*
Y4625D01*
X10954Y4667D02*
X11155D01*
X10964Y4609D02*
X11107D01*
X11106Y4608D02*
X11107Y4609D01*
D30*
X11240Y3718D02*
D03*
X11161D02*
D03*
X11240Y3816D02*
D03*
D31*
X11161D02*
D03*
D32*
X11346Y4004D02*
D03*
Y3530D02*
D03*
D33*
X10902Y5673D02*
D03*
D34*
X10702D02*
D03*
X10502D02*
D03*
X10302D02*
D03*
X10102D02*
D03*
X9902D02*
D03*
D35*
X11638Y2954D02*
D03*
X8882D02*
D03*
D36*
X10673Y2876D02*
D03*
X10508D02*
D03*
X10343D02*
D03*
X10177D02*
D03*
X10012D02*
D03*
X9847D02*
D03*
Y3126D02*
D03*
X10012D02*
D03*
X10177D02*
D03*
X10343D02*
D03*
X10508D02*
D03*
X10673D02*
D03*
D37*
X10237Y3467D02*
D03*
X10236Y3360D02*
D03*
X10036Y3812D02*
D03*
X10381Y4916D02*
D03*
X10370Y4844D02*
D03*
X9930Y4488D02*
D03*
X10275Y4602D02*
D03*
X10168Y4364D02*
D03*
X10762Y4855D02*
D03*
X11027Y4576D02*
D03*
X11142Y4292D02*
D03*
X11071Y4268D02*
D03*
X11065Y4086D02*
D03*
X10842Y4647D02*
D03*
X10457Y4648D02*
D03*
X10666Y4638D02*
D03*
X10700Y4527D02*
D03*
X11155Y4667D02*
D03*
X10954D02*
D03*
X11106Y4608D02*
D03*
X10964Y4609D02*
D03*
X10803Y3497D02*
D03*
X10755Y3909D02*
D03*
X10624Y3942D02*
D03*
X11399Y4624D02*
D03*
X10809Y5024D02*
D03*
X11134Y5029D02*
D03*
X10878Y5108D02*
D03*
X11205Y5127D02*
D03*
X10690Y5049D02*
D03*
X11700Y4764D02*
D03*
X9477Y3782D02*
D03*
X9991Y3937D02*
D03*
X9983Y4182D02*
D03*
X10225Y4369D02*
D03*
X10351Y4613D02*
D03*
X10458Y4731D02*
D03*
X10759Y4782D02*
D03*
X10277Y5243D02*
D03*
X9761Y4902D02*
D03*
X9905Y4819D02*
D03*
X10130Y4890D02*
D03*
X10870Y4398D02*
D03*
X11333Y4485D02*
D03*
X11465Y4250D02*
D03*
X11390Y4353D02*
D03*
X11613Y4573D02*
D03*
X11590Y4781D02*
D03*
X10991Y3920D02*
D03*
X10471Y4004D02*
D03*
X10323Y4955D02*
D03*
M02*
