M48
;Layer_Color=9474304
;FILE_FORMAT=2:3
INCH,LZ
;TYPE=PLATED
T1F00S00C0.015
T2F00S00C0.036
T3F00S00C0.043
T4F00S00C0.062
T5F00S00C0.091
T6F00S00C0.118
%
T01
X09477Y03782
X10036Y03812
X09991Y03937
X09983Y04182
X0993Y04488
X10168Y04364
X10225Y04369
X10275Y04602
X10351Y04613
X10457Y04648
X10666Y04638
X107Y04527
X10842Y04647
X1087Y04398
X10755Y03909
X10624Y03942
X10471Y04004
X10237Y03467
X10236Y0336
X10803Y03497
X10991Y0392
X11065Y04086
X11071Y04268
X11142Y04292
X1139Y04353
X11465Y0425
X11333Y04485
X11399Y04624
X11613Y04573
X11106Y04608
X11155Y04667
X10954
X10964Y04609
X11027Y04576
X11134Y05029
X11205Y05127
X1159Y04781
X117Y04764
X10759Y04782
X10762Y04855
X10809Y05024
X1069Y05049
X10878Y05108
X10381Y04916
X1037Y04844
X10323Y04955
X1013Y0489
X09905Y04819
X09761Y04902
X10277Y05243
X10458Y04731
T02
X11161Y03718
X1124
Y03816
X11161
T03
X09847Y02876
X10012
X10177
X10343
X10508
X10673
Y03126
X10508
X10343
X10177
X10012
X09847
T04
X09902Y05673
X10102
X10302
X10502
X10702
X10902
T05
X11346Y0353
Y04004
T06
X11638Y02954
X08882
M30
