%FSLAX23Y23*%
%MOIN*%
G70*
G01*
G75*
G04 Layer_Color=2752767*
%ADD10R,0.012X0.063*%
%ADD11R,0.049X0.035*%
%ADD12R,0.020X0.059*%
%ADD13R,0.047X0.024*%
%ADD14R,0.035X0.049*%
%ADD15R,0.063X0.012*%
%ADD16R,0.035X0.083*%
%ADD17R,0.130X0.083*%
%ADD18R,0.071X0.014*%
%ADD19R,0.217X0.059*%
%ADD20R,0.033X0.031*%
%ADD21R,0.031X0.033*%
%ADD22R,0.024X0.081*%
%ADD23R,0.039X0.069*%
%ADD24R,0.033X0.051*%
%ADD25R,0.051X0.033*%
%ADD26C,0.012*%
%ADD27C,0.008*%
%ADD28C,0.016*%
%ADD29C,0.006*%
%ADD30C,0.063*%
%ADD31R,0.063X0.063*%
%ADD32C,0.150*%
%ADD33R,0.100X0.100*%
%ADD34C,0.100*%
%ADD35C,0.197*%
%ADD36C,0.079*%
%ADD37C,0.032*%
%ADD38C,0.010*%
%ADD39C,0.010*%
%ADD40C,0.024*%
%ADD41C,0.008*%
%ADD42C,0.004*%
%ADD43R,0.024X0.047*%
%ADD44R,0.020X0.071*%
%ADD45R,0.057X0.043*%
%ADD46R,0.028X0.067*%
%ADD47R,0.055X0.032*%
%ADD48R,0.043X0.057*%
%ADD49R,0.071X0.020*%
%ADD50R,0.043X0.091*%
%ADD51R,0.138X0.091*%
%ADD52R,0.079X0.022*%
%ADD53R,0.225X0.067*%
%ADD54R,0.041X0.039*%
%ADD55R,0.039X0.041*%
%ADD56R,0.032X0.089*%
%ADD57R,0.047X0.077*%
%ADD58R,0.041X0.059*%
%ADD59R,0.059X0.041*%
%ADD60C,0.071*%
%ADD61R,0.071X0.071*%
%ADD62C,0.158*%
%ADD63R,0.108X0.108*%
%ADD64C,0.108*%
%ADD65C,0.205*%
%ADD66C,0.087*%
%ADD67C,0.040*%
%ADD68C,0.007*%
D42*
X11220Y3698D02*
Y3738D01*
X11260D01*
Y3698D01*
X11220D01*
X11141D02*
Y3738D01*
X11181D01*
Y3698D01*
X11141D01*
Y3796D02*
Y3836D01*
X11181D01*
Y3796D01*
X11141D01*
X11220D02*
Y3836D01*
X11260D01*
Y3796D01*
X11220D01*
X10902Y5653D02*
X10882Y5693D01*
X10922D01*
X10902Y5653D01*
X10702D02*
X10682Y5693D01*
X10722D01*
X10702Y5653D01*
X10502D02*
X10482Y5693D01*
X10522D01*
X10502Y5653D01*
X10302D02*
X10282Y5693D01*
X10322D01*
X10302Y5653D01*
X10102D02*
X10082Y5693D01*
X10122D01*
X10102Y5653D01*
X9902D02*
X9882Y5693D01*
X9922D01*
X9902Y5653D01*
X11638Y2934D02*
X11648Y2944D01*
X11658D01*
X11648Y2954D01*
X11658Y2964D01*
X11648D01*
X11638Y2974D01*
X11628Y2964D01*
X11618D01*
X11628Y2954D01*
X11618Y2944D01*
X11628D01*
X11638Y2934D01*
X8882D02*
X8892Y2944D01*
X8902D01*
X8892Y2954D01*
X8902Y2964D01*
X8892D01*
X8882Y2974D01*
X8872Y2964D01*
X8862D01*
X8872Y2954D01*
X8862Y2944D01*
X8872D01*
X8882Y2934D01*
X10653Y2856D02*
X10663Y2876D01*
X10653Y2896D01*
X10673Y2886D01*
X10693Y2896D01*
X10683Y2876D01*
X10693Y2856D01*
X10673Y2866D01*
X10653Y2856D01*
X10488D02*
X10498Y2876D01*
X10488Y2896D01*
X10508Y2886D01*
X10528Y2896D01*
X10518Y2876D01*
X10528Y2856D01*
X10508Y2866D01*
X10488Y2856D01*
X10323D02*
X10333Y2876D01*
X10323Y2896D01*
X10343Y2886D01*
X10363Y2896D01*
X10353Y2876D01*
X10363Y2856D01*
X10343Y2866D01*
X10323Y2856D01*
X10157D02*
X10167Y2876D01*
X10157Y2896D01*
X10177Y2886D01*
X10197Y2896D01*
X10187Y2876D01*
X10197Y2856D01*
X10177Y2866D01*
X10157Y2856D01*
X9992D02*
X10002Y2876D01*
X9992Y2896D01*
X10012Y2886D01*
X10032Y2896D01*
X10022Y2876D01*
X10032Y2856D01*
X10012Y2866D01*
X9992Y2856D01*
X9827D02*
X9837Y2876D01*
X9827Y2896D01*
X9847Y2886D01*
X9867Y2896D01*
X9857Y2876D01*
X9867Y2856D01*
X9847Y2866D01*
X9827Y2856D01*
Y3106D02*
X9837Y3126D01*
X9827Y3146D01*
X9847Y3136D01*
X9867Y3146D01*
X9857Y3126D01*
X9867Y3106D01*
X9847Y3116D01*
X9827Y3106D01*
X9992D02*
X10002Y3126D01*
X9992Y3146D01*
X10012Y3136D01*
X10032Y3146D01*
X10022Y3126D01*
X10032Y3106D01*
X10012Y3116D01*
X9992Y3106D01*
X10157D02*
X10167Y3126D01*
X10157Y3146D01*
X10177Y3136D01*
X10197Y3146D01*
X10187Y3126D01*
X10197Y3106D01*
X10177Y3116D01*
X10157Y3106D01*
X10323D02*
X10333Y3126D01*
X10323Y3146D01*
X10343Y3136D01*
X10363Y3146D01*
X10353Y3126D01*
X10363Y3106D01*
X10343Y3116D01*
X10323Y3106D01*
X10488D02*
X10498Y3126D01*
X10488Y3146D01*
X10508Y3136D01*
X10528Y3146D01*
X10518Y3126D01*
X10528Y3106D01*
X10508Y3116D01*
X10488Y3106D01*
X10653D02*
X10663Y3126D01*
X10653Y3146D01*
X10673Y3136D01*
X10693Y3146D01*
X10683Y3126D01*
X10693Y3106D01*
X10673Y3116D01*
X10653Y3106D01*
X10227Y3457D02*
Y3447D01*
X10247D01*
Y3457D01*
X10257D01*
Y3477D01*
X10247D01*
Y3487D01*
X10227D01*
Y3477D01*
X10217D01*
Y3457D01*
X10227D01*
X10226Y3350D02*
Y3340D01*
X10246D01*
Y3350D01*
X10256D01*
Y3370D01*
X10246D01*
Y3380D01*
X10226D01*
Y3370D01*
X10216D01*
Y3350D01*
X10226D01*
X10026Y3802D02*
Y3792D01*
X10046D01*
Y3802D01*
X10056D01*
Y3822D01*
X10046D01*
Y3832D01*
X10026D01*
Y3822D01*
X10016D01*
Y3802D01*
X10026D01*
X10371Y4906D02*
Y4896D01*
X10391D01*
Y4906D01*
X10401D01*
Y4926D01*
X10391D01*
Y4936D01*
X10371D01*
Y4926D01*
X10361D01*
Y4906D01*
X10371D01*
X10360Y4834D02*
Y4824D01*
X10380D01*
Y4834D01*
X10390D01*
Y4854D01*
X10380D01*
Y4864D01*
X10360D01*
Y4854D01*
X10350D01*
Y4834D01*
X10360D01*
X9920Y4478D02*
Y4468D01*
X9940D01*
Y4478D01*
X9950D01*
Y4498D01*
X9940D01*
Y4508D01*
X9920D01*
Y4498D01*
X9910D01*
Y4478D01*
X9920D01*
X10265Y4592D02*
Y4582D01*
X10285D01*
Y4592D01*
X10295D01*
Y4612D01*
X10285D01*
Y4622D01*
X10265D01*
Y4612D01*
X10255D01*
Y4592D01*
X10265D01*
X10158Y4354D02*
Y4344D01*
X10178D01*
Y4354D01*
X10188D01*
Y4374D01*
X10178D01*
Y4384D01*
X10158D01*
Y4374D01*
X10148D01*
Y4354D01*
X10158D01*
X10752Y4845D02*
Y4835D01*
X10772D01*
Y4845D01*
X10782D01*
Y4865D01*
X10772D01*
Y4875D01*
X10752D01*
Y4865D01*
X10742D01*
Y4845D01*
X10752D01*
X11017Y4566D02*
Y4556D01*
X11037D01*
Y4566D01*
X11047D01*
Y4586D01*
X11037D01*
Y4596D01*
X11017D01*
Y4586D01*
X11007D01*
Y4566D01*
X11017D01*
X11132Y4282D02*
Y4272D01*
X11152D01*
Y4282D01*
X11162D01*
Y4302D01*
X11152D01*
Y4312D01*
X11132D01*
Y4302D01*
X11122D01*
Y4282D01*
X11132D01*
X11061Y4258D02*
Y4248D01*
X11081D01*
Y4258D01*
X11091D01*
Y4278D01*
X11081D01*
Y4288D01*
X11061D01*
Y4278D01*
X11051D01*
Y4258D01*
X11061D01*
X11055Y4076D02*
Y4066D01*
X11075D01*
Y4076D01*
X11085D01*
Y4096D01*
X11075D01*
Y4106D01*
X11055D01*
Y4096D01*
X11045D01*
Y4076D01*
X11055D01*
X10832Y4637D02*
Y4627D01*
X10852D01*
Y4637D01*
X10862D01*
Y4657D01*
X10852D01*
Y4667D01*
X10832D01*
Y4657D01*
X10822D01*
Y4637D01*
X10832D01*
X10447Y4638D02*
Y4628D01*
X10467D01*
Y4638D01*
X10477D01*
Y4658D01*
X10467D01*
Y4668D01*
X10447D01*
Y4658D01*
X10437D01*
Y4638D01*
X10447D01*
X10656Y4628D02*
Y4618D01*
X10676D01*
Y4628D01*
X10686D01*
Y4648D01*
X10676D01*
Y4658D01*
X10656D01*
Y4648D01*
X10646D01*
Y4628D01*
X10656D01*
X10690Y4517D02*
Y4507D01*
X10710D01*
Y4517D01*
X10720D01*
Y4537D01*
X10710D01*
Y4547D01*
X10690D01*
Y4537D01*
X10680D01*
Y4517D01*
X10690D01*
X11145Y4657D02*
Y4647D01*
X11165D01*
Y4657D01*
X11175D01*
Y4677D01*
X11165D01*
Y4687D01*
X11145D01*
Y4677D01*
X11135D01*
Y4657D01*
X11145D01*
X10944D02*
Y4647D01*
X10964D01*
Y4657D01*
X10974D01*
Y4677D01*
X10964D01*
Y4687D01*
X10944D01*
Y4677D01*
X10934D01*
Y4657D01*
X10944D01*
X11096Y4598D02*
Y4588D01*
X11116D01*
Y4598D01*
X11126D01*
Y4618D01*
X11116D01*
Y4628D01*
X11096D01*
Y4618D01*
X11086D01*
Y4598D01*
X11096D01*
X10954Y4599D02*
Y4589D01*
X10974D01*
Y4599D01*
X10984D01*
Y4619D01*
X10974D01*
Y4629D01*
X10954D01*
Y4619D01*
X10944D01*
Y4599D01*
X10954D01*
X10793Y3487D02*
Y3477D01*
X10813D01*
Y3487D01*
X10823D01*
Y3507D01*
X10813D01*
Y3517D01*
X10793D01*
Y3507D01*
X10783D01*
Y3487D01*
X10793D01*
X10745Y3899D02*
Y3889D01*
X10765D01*
Y3899D01*
X10775D01*
Y3919D01*
X10765D01*
Y3929D01*
X10745D01*
Y3919D01*
X10735D01*
Y3899D01*
X10745D01*
X10614Y3932D02*
Y3922D01*
X10634D01*
Y3932D01*
X10644D01*
Y3952D01*
X10634D01*
Y3962D01*
X10614D01*
Y3952D01*
X10604D01*
Y3932D01*
X10614D01*
X11389Y4614D02*
Y4604D01*
X11409D01*
Y4614D01*
X11419D01*
Y4634D01*
X11409D01*
Y4644D01*
X11389D01*
Y4634D01*
X11379D01*
Y4614D01*
X11389D01*
X10799Y5014D02*
Y5004D01*
X10819D01*
Y5014D01*
X10829D01*
Y5034D01*
X10819D01*
Y5044D01*
X10799D01*
Y5034D01*
X10789D01*
Y5014D01*
X10799D01*
X11124Y5019D02*
Y5009D01*
X11144D01*
Y5019D01*
X11154D01*
Y5039D01*
X11144D01*
Y5049D01*
X11124D01*
Y5039D01*
X11114D01*
Y5019D01*
X11124D01*
X10868Y5098D02*
Y5088D01*
X10888D01*
Y5098D01*
X10898D01*
Y5118D01*
X10888D01*
Y5128D01*
X10868D01*
Y5118D01*
X10858D01*
Y5098D01*
X10868D01*
X11195Y5117D02*
Y5107D01*
X11215D01*
Y5117D01*
X11225D01*
Y5137D01*
X11215D01*
Y5147D01*
X11195D01*
Y5137D01*
X11185D01*
Y5117D01*
X11195D01*
X10680Y5039D02*
Y5029D01*
X10700D01*
Y5039D01*
X10710D01*
Y5059D01*
X10700D01*
Y5069D01*
X10680D01*
Y5059D01*
X10670D01*
Y5039D01*
X10680D01*
X11690Y4754D02*
Y4744D01*
X11710D01*
Y4754D01*
X11720D01*
Y4774D01*
X11710D01*
Y4784D01*
X11690D01*
Y4774D01*
X11680D01*
Y4754D01*
X11690D01*
X9467Y3772D02*
Y3762D01*
X9487D01*
Y3772D01*
X9497D01*
Y3792D01*
X9487D01*
Y3802D01*
X9467D01*
Y3792D01*
X9457D01*
Y3772D01*
X9467D01*
X9981Y3927D02*
Y3917D01*
X10001D01*
Y3927D01*
X10011D01*
Y3947D01*
X10001D01*
Y3957D01*
X9981D01*
Y3947D01*
X9971D01*
Y3927D01*
X9981D01*
X9973Y4172D02*
Y4162D01*
X9993D01*
Y4172D01*
X10003D01*
Y4192D01*
X9993D01*
Y4202D01*
X9973D01*
Y4192D01*
X9963D01*
Y4172D01*
X9973D01*
X10215Y4359D02*
Y4349D01*
X10235D01*
Y4359D01*
X10245D01*
Y4379D01*
X10235D01*
Y4389D01*
X10215D01*
Y4379D01*
X10205D01*
Y4359D01*
X10215D01*
X10341Y4603D02*
Y4593D01*
X10361D01*
Y4603D01*
X10371D01*
Y4623D01*
X10361D01*
Y4633D01*
X10341D01*
Y4623D01*
X10331D01*
Y4603D01*
X10341D01*
X10448Y4721D02*
Y4711D01*
X10468D01*
Y4721D01*
X10478D01*
Y4741D01*
X10468D01*
Y4751D01*
X10448D01*
Y4741D01*
X10438D01*
Y4721D01*
X10448D01*
X10749Y4772D02*
Y4762D01*
X10769D01*
Y4772D01*
X10779D01*
Y4792D01*
X10769D01*
Y4802D01*
X10749D01*
Y4792D01*
X10739D01*
Y4772D01*
X10749D01*
X10267Y5233D02*
Y5223D01*
X10287D01*
Y5233D01*
X10297D01*
Y5253D01*
X10287D01*
Y5263D01*
X10267D01*
Y5253D01*
X10257D01*
Y5233D01*
X10267D01*
X9751Y4892D02*
Y4882D01*
X9771D01*
Y4892D01*
X9781D01*
Y4912D01*
X9771D01*
Y4922D01*
X9751D01*
Y4912D01*
X9741D01*
Y4892D01*
X9751D01*
X9895Y4809D02*
Y4799D01*
X9915D01*
Y4809D01*
X9925D01*
Y4829D01*
X9915D01*
Y4839D01*
X9895D01*
Y4829D01*
X9885D01*
Y4809D01*
X9895D01*
X10120Y4880D02*
Y4870D01*
X10140D01*
Y4880D01*
X10150D01*
Y4900D01*
X10140D01*
Y4910D01*
X10120D01*
Y4900D01*
X10110D01*
Y4880D01*
X10120D01*
X10860Y4388D02*
Y4378D01*
X10880D01*
Y4388D01*
X10890D01*
Y4408D01*
X10880D01*
Y4418D01*
X10860D01*
Y4408D01*
X10850D01*
Y4388D01*
X10860D01*
X11323Y4475D02*
Y4465D01*
X11343D01*
Y4475D01*
X11353D01*
Y4495D01*
X11343D01*
Y4505D01*
X11323D01*
Y4495D01*
X11313D01*
Y4475D01*
X11323D01*
X11455Y4240D02*
Y4230D01*
X11475D01*
Y4240D01*
X11485D01*
Y4260D01*
X11475D01*
Y4270D01*
X11455D01*
Y4260D01*
X11445D01*
Y4240D01*
X11455D01*
X11380Y4343D02*
Y4333D01*
X11400D01*
Y4343D01*
X11410D01*
Y4363D01*
X11400D01*
Y4373D01*
X11380D01*
Y4363D01*
X11370D01*
Y4343D01*
X11380D01*
X11603Y4563D02*
Y4553D01*
X11623D01*
Y4563D01*
X11633D01*
Y4583D01*
X11623D01*
Y4593D01*
X11603D01*
Y4583D01*
X11593D01*
Y4563D01*
X11603D01*
X11580Y4771D02*
Y4761D01*
X11600D01*
Y4771D01*
X11610D01*
Y4791D01*
X11600D01*
Y4801D01*
X11580D01*
Y4791D01*
X11570D01*
Y4771D01*
X11580D01*
X10981Y3910D02*
Y3900D01*
X11001D01*
Y3910D01*
X11011D01*
Y3930D01*
X11001D01*
Y3940D01*
X10981D01*
Y3930D01*
X10971D01*
Y3910D01*
X10981D01*
X10461Y3994D02*
Y3984D01*
X10481D01*
Y3994D01*
X10491D01*
Y4014D01*
X10481D01*
Y4024D01*
X10461D01*
Y4014D01*
X10451D01*
Y3994D01*
X10461D01*
X10313Y4945D02*
Y4935D01*
X10333D01*
Y4945D01*
X10343D01*
Y4965D01*
X10333D01*
Y4975D01*
X10313D01*
Y4965D01*
X10303D01*
Y4945D01*
X10313D01*
D68*
X11366Y4004D02*
G03*
X11366Y4004I-20J0D01*
G01*
Y3530D02*
G03*
X11366Y3530I-20J0D01*
G01*
M02*
