%FSLAX23Y23*%
%MOIN*%
G70*
G01*
G75*
G04 Layer_Color=8388736*
%ADD10C,0.150*%
%ADD11R,0.118X0.118*%
%ADD12R,0.010X0.041*%
%ADD13R,0.041X0.010*%
%ADD14R,0.035X0.049*%
%ADD15R,0.050X0.055*%
%ADD16R,0.055X0.050*%
%ADD17R,0.022X0.057*%
%ADD18R,0.022X0.057*%
%ADD19R,0.012X0.063*%
%ADD20R,0.140X0.060*%
%ADD21R,0.330X0.420*%
%ADD22R,0.079X0.126*%
%ADD23R,0.079X0.126*%
%ADD24R,0.085X0.036*%
%ADD25R,0.410X0.425*%
%ADD26R,0.110X0.115*%
%ADD27R,0.100X0.100*%
%ADD28R,0.059X0.051*%
%ADD29R,0.024X0.087*%
%ADD30R,0.024X0.087*%
%ADD31R,0.081X0.024*%
%ADD32C,0.050*%
%ADD33R,0.039X0.063*%
%ADD34R,0.217X0.280*%
%ADD35R,0.089X0.024*%
%ADD36R,0.160X0.080*%
%ADD37R,0.450X0.450*%
%ADD38R,0.100X0.100*%
%ADD39R,0.102X0.094*%
%ADD40R,0.012X0.063*%
%ADD41R,0.055X0.065*%
%ADD42R,0.065X0.055*%
%ADD43R,0.037X0.035*%
%ADD44R,0.037X0.035*%
%ADD45R,0.217X0.079*%
%ADD46R,0.063X0.012*%
%ADD47R,0.050X0.110*%
%ADD48R,0.087X0.024*%
%ADD49R,0.087X0.024*%
%ADD50C,0.010*%
%ADD51C,0.020*%
%ADD52C,0.075*%
%ADD53C,0.040*%
%ADD54C,0.025*%
%ADD55C,0.030*%
%ADD56C,0.035*%
%ADD57C,0.015*%
%ADD58C,0.100*%
%ADD59C,0.050*%
%ADD60C,0.150*%
%ADD61C,0.065*%
%ADD62R,0.065X0.065*%
%ADD63C,0.390*%
%ADD64C,0.169*%
%ADD65C,0.100*%
%ADD66C,0.070*%
%ADD67C,0.125*%
%ADD68C,0.250*%
%ADD69C,0.200*%
%ADD70C,0.150*%
%ADD71C,0.024*%
%ADD72C,0.040*%
%ADD73C,0.025*%
%ADD74C,0.008*%
%ADD75C,0.131*%
%ADD76C,0.080*%
%ADD77C,0.430*%
%ADD78C,0.209*%
%ADD79C,0.102*%
%ADD80C,0.085*%
%ADD81C,0.165*%
%ADD82C,0.290*%
%ADD83C,0.052*%
%ADD84C,0.055*%
%ADD85C,0.064*%
G04:AMPARAMS|DCode=86|XSize=43mil|YSize=59mil|CornerRadius=0mil|HoleSize=0mil|Usage=FLASHONLY|Rotation=277.500|XOffset=0mil|YOffset=0mil|HoleType=Round|Shape=Rectangle|*
%AMROTATEDRECTD86*
4,1,4,-0.032,0.018,0.026,0.025,0.032,-0.018,-0.026,-0.025,-0.032,0.018,0.0*
%
%ADD86ROTATEDRECTD86*%

G04:AMPARAMS|DCode=87|XSize=43mil|YSize=59mil|CornerRadius=0mil|HoleSize=0mil|Usage=FLASHONLY|Rotation=292.500|XOffset=0mil|YOffset=0mil|HoleType=Round|Shape=Rectangle|*
%AMROTATEDRECTD87*
4,1,4,-0.036,0.009,0.019,0.031,0.036,-0.009,-0.019,-0.031,-0.036,0.009,0.0*
%
%ADD87ROTATEDRECTD87*%

G04:AMPARAMS|DCode=88|XSize=43mil|YSize=59mil|CornerRadius=0mil|HoleSize=0mil|Usage=FLASHONLY|Rotation=307.500|XOffset=0mil|YOffset=0mil|HoleType=Round|Shape=Rectangle|*
%AMROTATEDRECTD88*
4,1,4,-0.037,-0.001,0.010,0.035,0.037,0.001,-0.010,-0.035,-0.037,-0.001,0.0*
%
%ADD88ROTATEDRECTD88*%

G04:AMPARAMS|DCode=89|XSize=43mil|YSize=59mil|CornerRadius=0mil|HoleSize=0mil|Usage=FLASHONLY|Rotation=322.500|XOffset=0mil|YOffset=0mil|HoleType=Round|Shape=Rectangle|*
%AMROTATEDRECTD89*
4,1,4,-0.035,-0.010,0.001,0.037,0.035,0.010,-0.001,-0.037,-0.035,-0.010,0.0*
%
%ADD89ROTATEDRECTD89*%

G04:AMPARAMS|DCode=90|XSize=43mil|YSize=59mil|CornerRadius=0mil|HoleSize=0mil|Usage=FLASHONLY|Rotation=337.500|XOffset=0mil|YOffset=0mil|HoleType=Round|Shape=Rectangle|*
%AMROTATEDRECTD90*
4,1,4,-0.031,-0.019,-0.009,0.036,0.031,0.019,0.009,-0.036,-0.031,-0.019,0.0*
%
%ADD90ROTATEDRECTD90*%

G04:AMPARAMS|DCode=91|XSize=43mil|YSize=59mil|CornerRadius=0mil|HoleSize=0mil|Usage=FLASHONLY|Rotation=352.500|XOffset=0mil|YOffset=0mil|HoleType=Round|Shape=Rectangle|*
%AMROTATEDRECTD91*
4,1,4,-0.025,-0.026,-0.018,0.032,0.025,0.026,0.018,-0.032,-0.025,-0.026,0.0*
%
%ADD91ROTATEDRECTD91*%

G04:AMPARAMS|DCode=92|XSize=43mil|YSize=59mil|CornerRadius=0mil|HoleSize=0mil|Usage=FLASHONLY|Rotation=7.500|XOffset=0mil|YOffset=0mil|HoleType=Round|Shape=Rectangle|*
%AMROTATEDRECTD92*
4,1,4,-0.018,-0.032,-0.025,0.026,0.018,0.032,0.025,-0.026,-0.018,-0.032,0.0*
%
%ADD92ROTATEDRECTD92*%

G04:AMPARAMS|DCode=93|XSize=43mil|YSize=59mil|CornerRadius=0mil|HoleSize=0mil|Usage=FLASHONLY|Rotation=22.500|XOffset=0mil|YOffset=0mil|HoleType=Round|Shape=Rectangle|*
%AMROTATEDRECTD93*
4,1,4,-0.009,-0.036,-0.031,0.019,0.009,0.036,0.031,-0.019,-0.009,-0.036,0.0*
%
%ADD93ROTATEDRECTD93*%

G04:AMPARAMS|DCode=94|XSize=43mil|YSize=59mil|CornerRadius=0mil|HoleSize=0mil|Usage=FLASHONLY|Rotation=37.500|XOffset=0mil|YOffset=0mil|HoleType=Round|Shape=Rectangle|*
%AMROTATEDRECTD94*
4,1,4,0.001,-0.037,-0.035,0.010,-0.001,0.037,0.035,-0.010,0.001,-0.037,0.0*
%
%ADD94ROTATEDRECTD94*%

G04:AMPARAMS|DCode=95|XSize=43mil|YSize=59mil|CornerRadius=0mil|HoleSize=0mil|Usage=FLASHONLY|Rotation=52.500|XOffset=0mil|YOffset=0mil|HoleType=Round|Shape=Rectangle|*
%AMROTATEDRECTD95*
4,1,4,0.010,-0.035,-0.037,0.001,-0.010,0.035,0.037,-0.001,0.010,-0.035,0.0*
%
%ADD95ROTATEDRECTD95*%

G04:AMPARAMS|DCode=96|XSize=43mil|YSize=59mil|CornerRadius=0mil|HoleSize=0mil|Usage=FLASHONLY|Rotation=67.500|XOffset=0mil|YOffset=0mil|HoleType=Round|Shape=Rectangle|*
%AMROTATEDRECTD96*
4,1,4,0.019,-0.031,-0.036,-0.009,-0.019,0.031,0.036,0.009,0.019,-0.031,0.0*
%
%ADD96ROTATEDRECTD96*%

G04:AMPARAMS|DCode=97|XSize=43mil|YSize=59mil|CornerRadius=0mil|HoleSize=0mil|Usage=FLASHONLY|Rotation=82.500|XOffset=0mil|YOffset=0mil|HoleType=Round|Shape=Rectangle|*
%AMROTATEDRECTD97*
4,1,4,0.026,-0.025,-0.032,-0.018,-0.026,0.025,0.032,0.018,0.026,-0.025,0.0*
%
%ADD97ROTATEDRECTD97*%

G04:AMPARAMS|DCode=98|XSize=43mil|YSize=59mil|CornerRadius=0mil|HoleSize=0mil|Usage=FLASHONLY|Rotation=285.000|XOffset=0mil|YOffset=0mil|HoleType=Round|Shape=Rectangle|*
%AMROTATEDRECTD98*
4,1,4,-0.034,0.013,0.023,0.029,0.034,-0.013,-0.023,-0.029,-0.034,0.013,0.0*
%
%ADD98ROTATEDRECTD98*%

%ADD99R,0.059X0.043*%
G04:AMPARAMS|DCode=100|XSize=43mil|YSize=59mil|CornerRadius=0mil|HoleSize=0mil|Usage=FLASHONLY|Rotation=315.000|XOffset=0mil|YOffset=0mil|HoleType=Round|Shape=Rectangle|*
%AMROTATEDRECTD100*
4,1,4,-0.036,-0.006,0.006,0.036,0.036,0.006,-0.006,-0.036,-0.036,-0.006,0.0*
%
%ADD100ROTATEDRECTD100*%

G04:AMPARAMS|DCode=101|XSize=43mil|YSize=59mil|CornerRadius=0mil|HoleSize=0mil|Usage=FLASHONLY|Rotation=300.000|XOffset=0mil|YOffset=0mil|HoleType=Round|Shape=Rectangle|*
%AMROTATEDRECTD101*
4,1,4,-0.036,0.004,0.015,0.034,0.036,-0.004,-0.015,-0.034,-0.036,0.004,0.0*
%
%ADD101ROTATEDRECTD101*%

G04:AMPARAMS|DCode=102|XSize=43mil|YSize=59mil|CornerRadius=0mil|HoleSize=0mil|Usage=FLASHONLY|Rotation=345.000|XOffset=0mil|YOffset=0mil|HoleType=Round|Shape=Rectangle|*
%AMROTATEDRECTD102*
4,1,4,-0.029,-0.023,-0.013,0.034,0.029,0.023,0.013,-0.034,-0.029,-0.023,0.0*
%
%ADD102ROTATEDRECTD102*%

G04:AMPARAMS|DCode=103|XSize=43mil|YSize=59mil|CornerRadius=0mil|HoleSize=0mil|Usage=FLASHONLY|Rotation=330.000|XOffset=0mil|YOffset=0mil|HoleType=Round|Shape=Rectangle|*
%AMROTATEDRECTD103*
4,1,4,-0.034,-0.015,-0.004,0.036,0.034,0.015,0.004,-0.036,-0.034,-0.015,0.0*
%
%ADD103ROTATEDRECTD103*%

G04:AMPARAMS|DCode=104|XSize=43mil|YSize=59mil|CornerRadius=0mil|HoleSize=0mil|Usage=FLASHONLY|Rotation=15.000|XOffset=0mil|YOffset=0mil|HoleType=Round|Shape=Rectangle|*
%AMROTATEDRECTD104*
4,1,4,-0.013,-0.034,-0.029,0.023,0.013,0.034,0.029,-0.023,-0.013,-0.034,0.0*
%
%ADD104ROTATEDRECTD104*%

%ADD105R,0.043X0.059*%
G04:AMPARAMS|DCode=106|XSize=43mil|YSize=59mil|CornerRadius=0mil|HoleSize=0mil|Usage=FLASHONLY|Rotation=45.000|XOffset=0mil|YOffset=0mil|HoleType=Round|Shape=Rectangle|*
%AMROTATEDRECTD106*
4,1,4,0.006,-0.036,-0.036,0.006,-0.006,0.036,0.036,-0.006,0.006,-0.036,0.0*
%
%ADD106ROTATEDRECTD106*%

G04:AMPARAMS|DCode=107|XSize=43mil|YSize=59mil|CornerRadius=0mil|HoleSize=0mil|Usage=FLASHONLY|Rotation=30.000|XOffset=0mil|YOffset=0mil|HoleType=Round|Shape=Rectangle|*
%AMROTATEDRECTD107*
4,1,4,-0.004,-0.036,-0.034,0.015,0.004,0.036,0.034,-0.015,-0.004,-0.036,0.0*
%
%ADD107ROTATEDRECTD107*%

G04:AMPARAMS|DCode=108|XSize=43mil|YSize=59mil|CornerRadius=0mil|HoleSize=0mil|Usage=FLASHONLY|Rotation=75.000|XOffset=0mil|YOffset=0mil|HoleType=Round|Shape=Rectangle|*
%AMROTATEDRECTD108*
4,1,4,0.023,-0.029,-0.034,-0.013,-0.023,0.029,0.034,0.013,0.023,-0.029,0.0*
%
%ADD108ROTATEDRECTD108*%

G04:AMPARAMS|DCode=109|XSize=43mil|YSize=59mil|CornerRadius=0mil|HoleSize=0mil|Usage=FLASHONLY|Rotation=60.000|XOffset=0mil|YOffset=0mil|HoleType=Round|Shape=Rectangle|*
%AMROTATEDRECTD109*
4,1,4,0.015,-0.034,-0.036,-0.004,-0.015,0.034,0.036,0.004,0.015,-0.034,0.0*
%
%ADD109ROTATEDRECTD109*%

%ADD110C,0.010*%
%ADD111C,0.004*%
%ADD112C,0.008*%
%ADD113C,0.005*%
%ADD114C,0.008*%
%ADD115C,0.006*%
%ADD116C,0.006*%
%ADD117R,0.126X0.126*%
%ADD118R,0.018X0.049*%
%ADD119R,0.049X0.018*%
%ADD120R,0.043X0.057*%
%ADD121R,0.058X0.063*%
%ADD122R,0.063X0.058*%
%ADD123R,0.030X0.065*%
%ADD124R,0.030X0.065*%
%ADD125R,0.020X0.071*%
%ADD126R,0.148X0.068*%
%ADD127R,0.338X0.428*%
%ADD128R,0.087X0.134*%
%ADD129R,0.087X0.134*%
%ADD130R,0.093X0.044*%
%ADD131R,0.418X0.433*%
%ADD132R,0.118X0.123*%
%ADD133R,0.108X0.108*%
%ADD134R,0.067X0.059*%
%ADD135R,0.032X0.095*%
%ADD136R,0.032X0.095*%
%ADD137R,0.089X0.032*%
%ADD138C,0.090*%
%ADD139R,0.047X0.071*%
%ADD140R,0.225X0.288*%
%ADD141R,0.097X0.032*%
%ADD142R,0.168X0.088*%
%ADD143R,0.458X0.458*%
%ADD144R,0.108X0.108*%
%ADD145R,0.110X0.102*%
%ADD146R,0.020X0.071*%
%ADD147R,0.063X0.073*%
%ADD148R,0.073X0.063*%
%ADD149R,0.045X0.043*%
%ADD150R,0.045X0.043*%
%ADD151R,0.225X0.087*%
%ADD152R,0.071X0.020*%
%ADD153R,0.058X0.118*%
%ADD154R,0.095X0.032*%
%ADD155R,0.095X0.032*%
%ADD156C,0.158*%
%ADD157C,0.073*%
%ADD158R,0.073X0.073*%
%ADD159C,0.398*%
%ADD160C,0.177*%
%ADD161C,0.108*%
%ADD162C,0.078*%
%ADD163C,0.133*%
%ADD164C,0.258*%
%ADD165C,0.208*%
%ADD166C,0.175*%
%ADD167C,0.032*%
%ADD168C,0.048*%
%ADD169C,0.033*%
D69*
X-2660Y1340D02*
D03*
D117*
X2390Y-2350D02*
D03*
D118*
X2331Y-2252D02*
D03*
X2351D02*
D03*
X2370D02*
D03*
X2390D02*
D03*
X2410D02*
D03*
X2429D02*
D03*
X2449D02*
D03*
Y-2448D02*
D03*
X2429D02*
D03*
X2410D02*
D03*
X2390D02*
D03*
X2370D02*
D03*
X2351D02*
D03*
X2331D02*
D03*
D119*
X2488Y-2291D02*
D03*
Y-2311D02*
D03*
Y-2330D02*
D03*
Y-2350D02*
D03*
Y-2370D02*
D03*
Y-2389D02*
D03*
Y-2409D02*
D03*
X2292D02*
D03*
Y-2389D02*
D03*
Y-2370D02*
D03*
Y-2350D02*
D03*
Y-2330D02*
D03*
Y-2311D02*
D03*
Y-2291D02*
D03*
D120*
X1237Y1350D02*
D03*
X1303D02*
D03*
D121*
X477Y1630D02*
D03*
X403D02*
D03*
X483Y2700D02*
D03*
X557D02*
D03*
X-2387Y320D02*
D03*
X-2313D02*
D03*
X1233Y1650D02*
D03*
X1307D02*
D03*
X2567Y1950D02*
D03*
X2493D02*
D03*
X2627Y2310D02*
D03*
X2553D02*
D03*
X2537Y-1620D02*
D03*
X2463Y-820D02*
D03*
X2537D02*
D03*
X2463Y-1620D02*
D03*
X-2387Y230D02*
D03*
X-2313D02*
D03*
X703Y2060D02*
D03*
X777D02*
D03*
X1127Y1350D02*
D03*
Y1450D02*
D03*
X1307D02*
D03*
X1233D02*
D03*
X1703Y-1443D02*
D03*
X1053Y1350D02*
D03*
Y1450D02*
D03*
Y1550D02*
D03*
X1127D02*
D03*
X1053Y1650D02*
D03*
X1307Y1550D02*
D03*
X1233D02*
D03*
X1777Y-1443D02*
D03*
X1127Y1650D02*
D03*
X2007Y730D02*
D03*
X2457Y-2600D02*
D03*
X2383D02*
D03*
X2347Y890D02*
D03*
X2273D02*
D03*
X2543Y-1470D02*
D03*
X2617D02*
D03*
X2547Y890D02*
D03*
X2473D02*
D03*
X2574Y-180D02*
D03*
X2500D02*
D03*
X2537Y-920D02*
D03*
X2463D02*
D03*
X-783Y2120D02*
D03*
X-857D02*
D03*
X2017Y360D02*
D03*
X2203Y-2600D02*
D03*
X2277D02*
D03*
X2473Y340D02*
D03*
X2547D02*
D03*
X-2052Y1325D02*
D03*
X-1978D02*
D03*
X2463Y-720D02*
D03*
X2537D02*
D03*
X2463Y-2160D02*
D03*
X2537D02*
D03*
X2373Y-1470D02*
D03*
X2447D02*
D03*
X2493Y1750D02*
D03*
X2567D02*
D03*
X1187Y2590D02*
D03*
X1113D02*
D03*
X1943Y360D02*
D03*
X1933Y730D02*
D03*
D122*
X390Y2473D02*
D03*
Y2547D02*
D03*
X1750Y2223D02*
D03*
Y2297D02*
D03*
X1540Y2293D02*
D03*
X1500Y-1260D02*
D03*
Y-1186D02*
D03*
X1800Y-876D02*
D03*
Y-950D02*
D03*
X1500Y-1090D02*
D03*
Y-1016D02*
D03*
X1540Y2367D02*
D03*
X1590Y1987D02*
D03*
Y1913D02*
D03*
X-2165Y1657D02*
D03*
Y1583D02*
D03*
Y1487D02*
D03*
X290Y2064D02*
D03*
Y2138D02*
D03*
X494Y2343D02*
D03*
Y2269D02*
D03*
X-670Y2197D02*
D03*
Y2123D02*
D03*
X-126Y2549D02*
D03*
Y2623D02*
D03*
X-2165Y1827D02*
D03*
Y1753D02*
D03*
X-860Y2632D02*
D03*
Y2558D02*
D03*
X190Y2274D02*
D03*
Y2348D02*
D03*
X-560Y2197D02*
D03*
Y2123D02*
D03*
X-2165Y1413D02*
D03*
X710Y1877D02*
D03*
X1650Y2297D02*
D03*
Y2223D02*
D03*
X130Y1877D02*
D03*
X710Y1803D02*
D03*
X130D02*
D03*
D123*
X513Y2532D02*
D03*
X587D02*
D03*
Y2448D02*
D03*
X550D02*
D03*
D124*
X513Y2448D02*
D03*
D125*
X190Y2667D02*
D03*
X171Y2505D02*
D03*
X190D02*
D03*
X210D02*
D03*
X230D02*
D03*
X171Y2667D02*
D03*
X210D02*
D03*
X230Y2667D02*
D03*
X249Y2667D02*
D03*
X2040Y1640D02*
D03*
X2001D02*
D03*
X1981D02*
D03*
X1961D02*
D03*
X2119Y2160D02*
D03*
X2237D02*
D03*
X2217D02*
D03*
X2139Y1640D02*
D03*
X2158D02*
D03*
X2178D02*
D03*
X1883Y2160D02*
D03*
X1863D02*
D03*
X1883Y1640D02*
D03*
X1942Y2160D02*
D03*
X1902Y1640D02*
D03*
X1922Y2160D02*
D03*
X1961D02*
D03*
X1981D02*
D03*
X2198D02*
D03*
X2178D02*
D03*
X2158D02*
D03*
X2139D02*
D03*
X2099D02*
D03*
X2080D02*
D03*
X2060D02*
D03*
X2040D02*
D03*
X2020D02*
D03*
X2001D02*
D03*
X1902D02*
D03*
X2119Y1640D02*
D03*
X2099D02*
D03*
X2080D02*
D03*
X2060D02*
D03*
X1942D02*
D03*
X1922D02*
D03*
X1863D02*
D03*
X2198D02*
D03*
X2020D02*
D03*
X2237D02*
D03*
X2217D02*
D03*
D126*
X-1325Y1050D02*
D03*
Y850D02*
D03*
D127*
X-1770Y950D02*
D03*
D128*
X-2370Y710D02*
D03*
D129*
X-2630D02*
D03*
D130*
X-2138Y230D02*
D03*
Y280D02*
D03*
Y330D02*
D03*
Y380D02*
D03*
Y430D02*
D03*
Y530D02*
D03*
Y480D02*
D03*
X-2018Y1510D02*
D03*
Y1560D02*
D03*
Y1610D02*
D03*
Y1660D02*
D03*
Y1710D02*
D03*
Y1760D02*
D03*
Y1810D02*
D03*
D131*
X-1810Y380D02*
D03*
X-1690Y1660D02*
D03*
D132*
X-1100Y1087D02*
D03*
Y1692D02*
D03*
X-2395Y2602D02*
D03*
Y1997D02*
D03*
D133*
X-690Y1375D02*
D03*
Y1625D02*
D03*
X-490D02*
D03*
Y1375D02*
D03*
D134*
X-2370Y453D02*
D03*
Y527D02*
D03*
X-2250Y403D02*
D03*
Y477D02*
D03*
D135*
X1815Y-1121D02*
D03*
D136*
X1765D02*
D03*
X1715D02*
D03*
X1665D02*
D03*
Y-1325D02*
D03*
X1765D02*
D03*
X1815D02*
D03*
X1715D02*
D03*
D137*
X1210Y2400D02*
D03*
X1420Y2250D02*
D03*
Y2350D02*
D03*
Y2400D02*
D03*
X1210Y2250D02*
D03*
X1420Y2300D02*
D03*
X1210Y2350D02*
D03*
Y2300D02*
D03*
X525Y1885D02*
D03*
Y1835D02*
D03*
Y1785D02*
D03*
Y1735D02*
D03*
X315Y1885D02*
D03*
Y1835D02*
D03*
Y1785D02*
D03*
Y1735D02*
D03*
D138*
X-2260Y-500D02*
D03*
X2600Y2450D02*
D03*
X-2000Y2600D02*
D03*
X2600Y-2600D02*
D03*
D139*
X-580Y2300D02*
D03*
X-760D02*
D03*
D140*
X-670Y2570D02*
D03*
D141*
X2250Y795D02*
D03*
Y745D02*
D03*
Y695D02*
D03*
Y645D02*
D03*
Y595D02*
D03*
Y545D02*
D03*
Y495D02*
D03*
Y445D02*
D03*
X2610Y795D02*
D03*
Y745D02*
D03*
Y695D02*
D03*
Y645D02*
D03*
Y595D02*
D03*
Y545D02*
D03*
Y495D02*
D03*
Y445D02*
D03*
X2250Y-275D02*
D03*
Y-325D02*
D03*
Y-375D02*
D03*
Y-425D02*
D03*
Y-475D02*
D03*
Y-525D02*
D03*
Y-575D02*
D03*
Y-625D02*
D03*
X2610Y-275D02*
D03*
Y-325D02*
D03*
Y-375D02*
D03*
Y-425D02*
D03*
Y-475D02*
D03*
Y-525D02*
D03*
Y-575D02*
D03*
Y-625D02*
D03*
Y-2055D02*
D03*
Y-2005D02*
D03*
Y-1955D02*
D03*
Y-1905D02*
D03*
Y-1855D02*
D03*
Y-1805D02*
D03*
Y-1755D02*
D03*
Y-1705D02*
D03*
X2250Y-2055D02*
D03*
Y-2005D02*
D03*
Y-1955D02*
D03*
Y-1905D02*
D03*
Y-1855D02*
D03*
Y-1805D02*
D03*
Y-1755D02*
D03*
Y-1705D02*
D03*
X2610Y-1365D02*
D03*
Y-1315D02*
D03*
Y-1265D02*
D03*
Y-1215D02*
D03*
Y-1165D02*
D03*
Y-1115D02*
D03*
Y-1065D02*
D03*
Y-1015D02*
D03*
X2250Y-1365D02*
D03*
Y-1315D02*
D03*
Y-1265D02*
D03*
Y-1215D02*
D03*
Y-1165D02*
D03*
Y-1115D02*
D03*
Y-1065D02*
D03*
Y-1015D02*
D03*
D142*
X-1975Y2300D02*
D03*
Y2100D02*
D03*
D143*
X-1600Y2200D02*
D03*
D144*
X-2630Y1530D02*
D03*
X-2380D02*
D03*
Y1745D02*
D03*
X-2630D02*
D03*
X2400Y2565D02*
D03*
D145*
X-2354Y950D02*
D03*
X-2606D02*
D03*
Y1160D02*
D03*
X-2354D02*
D03*
D146*
X249Y2505D02*
D03*
D147*
X1305Y82D02*
D03*
X1195D02*
D03*
X-1234Y-430D02*
D03*
X1171Y-244D02*
D03*
X1069Y-554D02*
D03*
X888Y-827D02*
D03*
X-805Y-950D02*
D03*
X-979Y-691D02*
D03*
X-1124Y-430D02*
D03*
X-1175Y30D02*
D03*
X-1165Y280D02*
D03*
X-1061Y550D02*
D03*
X-881Y821D02*
D03*
X986Y695D02*
D03*
X1132Y403D02*
D03*
X1281Y-244D02*
D03*
X1179Y-554D02*
D03*
X998Y-827D02*
D03*
X-915Y-950D02*
D03*
X-1089Y-691D02*
D03*
X-1285Y30D02*
D03*
X-1275Y280D02*
D03*
X-1171Y550D02*
D03*
X-991Y821D02*
D03*
X1096Y695D02*
D03*
X1242Y403D02*
D03*
X1280Y245D02*
D03*
X1305Y-80D02*
D03*
X1105Y840D02*
D03*
X1177Y554D02*
D03*
X-925Y950D02*
D03*
X-1231Y399D02*
D03*
X-1090Y691D02*
D03*
X-1255Y-330D02*
D03*
X-1285Y150D02*
D03*
X-991Y-821D02*
D03*
X-1170Y-550D02*
D03*
X915Y-950D02*
D03*
X1241Y-402D02*
D03*
X1096Y-696D02*
D03*
X1170Y245D02*
D03*
X995Y840D02*
D03*
X-815Y950D02*
D03*
X-1121Y399D02*
D03*
X-1145Y-330D02*
D03*
X-881Y-821D02*
D03*
X805Y-950D02*
D03*
X1131Y-402D02*
D03*
X1195Y-80D02*
D03*
X1067Y554D02*
D03*
X-980Y691D02*
D03*
X-1175Y150D02*
D03*
X-1060Y-550D02*
D03*
X986Y-696D02*
D03*
D148*
X290Y2346D02*
D03*
Y2236D02*
D03*
X1065Y2280D02*
D03*
Y2390D02*
D03*
X1500Y-808D02*
D03*
X1690Y-858D02*
D03*
Y-968D02*
D03*
X1500Y-918D02*
D03*
X695Y-985D02*
D03*
X402Y-1128D02*
D03*
X82Y-1189D02*
D03*
X-243Y-1168D02*
D03*
X-551Y-1063D02*
D03*
X-690Y978D02*
D03*
X-400Y1122D02*
D03*
X-80Y1190D02*
D03*
X244Y1169D02*
D03*
X553Y1066D02*
D03*
X760Y985D02*
D03*
X695Y-1095D02*
D03*
X402Y-1238D02*
D03*
X82Y-1299D02*
D03*
X-243Y-1278D02*
D03*
X-551Y-1173D02*
D03*
X-690Y1088D02*
D03*
X-400Y1232D02*
D03*
X-80Y1300D02*
D03*
X244Y1279D02*
D03*
X553Y1176D02*
D03*
X760Y1095D02*
D03*
X494Y2061D02*
D03*
Y2171D02*
D03*
X401Y1236D02*
D03*
X655Y1095D02*
D03*
X-243Y1277D02*
D03*
X82Y1300D02*
D03*
X-550Y1170D02*
D03*
X-401Y-1236D02*
D03*
X-692Y-1090D02*
D03*
X244Y-1281D02*
D03*
X-82Y-1300D02*
D03*
X554Y-1178D02*
D03*
X401Y1126D02*
D03*
X-243Y1167D02*
D03*
X-401Y-1126D02*
D03*
X244Y-1171D02*
D03*
X655Y985D02*
D03*
X82Y1190D02*
D03*
X-550Y1060D02*
D03*
X-692Y-980D02*
D03*
X-82Y-1190D02*
D03*
X554Y-1068D02*
D03*
D149*
X2076Y-2153D02*
D03*
Y-2343D02*
D03*
Y-2533D02*
D03*
D150*
Y-2227D02*
D03*
X1984Y-2190D02*
D03*
Y-2380D02*
D03*
Y-2570D02*
D03*
X2076Y-2417D02*
D03*
Y-2607D02*
D03*
D151*
X1993Y2380D02*
D03*
X2367D02*
D03*
D152*
X2310Y1949D02*
D03*
Y1890D02*
D03*
Y1870D02*
D03*
Y1851D02*
D03*
Y1831D02*
D03*
Y1733D02*
D03*
Y1713D02*
D03*
X1790Y2008D02*
D03*
Y1989D02*
D03*
X2310Y2048D02*
D03*
Y2028D02*
D03*
X1790D02*
D03*
Y1949D02*
D03*
Y1969D02*
D03*
Y2048D02*
D03*
Y2067D02*
D03*
Y2087D02*
D03*
Y1910D02*
D03*
Y1890D02*
D03*
Y1870D02*
D03*
Y1851D02*
D03*
Y1811D02*
D03*
Y1792D02*
D03*
Y1772D02*
D03*
Y1752D02*
D03*
Y1733D02*
D03*
Y1713D02*
D03*
X2310Y2087D02*
D03*
Y2067D02*
D03*
Y2008D02*
D03*
Y1969D02*
D03*
Y1930D02*
D03*
Y1910D02*
D03*
Y1811D02*
D03*
Y1792D02*
D03*
Y1772D02*
D03*
Y1752D02*
D03*
Y1989D02*
D03*
X1790Y1930D02*
D03*
Y1831D02*
D03*
D153*
X1440Y1880D02*
D03*
Y2020D02*
D03*
X29Y2656D02*
D03*
Y2516D02*
D03*
X-175Y2361D02*
D03*
Y2221D02*
D03*
X30Y2361D02*
D03*
Y2221D02*
D03*
X-420Y2505D02*
D03*
Y2645D02*
D03*
D154*
X1802Y355D02*
D03*
X1598Y205D02*
D03*
Y255D02*
D03*
Y305D02*
D03*
Y355D02*
D03*
X1802Y305D02*
D03*
Y255D02*
D03*
Y675D02*
D03*
Y625D02*
D03*
X1598Y725D02*
D03*
Y675D02*
D03*
Y625D02*
D03*
Y575D02*
D03*
X1802Y725D02*
D03*
D155*
Y205D02*
D03*
Y575D02*
D03*
D156*
X367Y-2617D02*
D03*
Y-2143D02*
D03*
D157*
X473Y-2429D02*
D03*
X347D02*
D03*
Y-2331D02*
D03*
D158*
X473D02*
D03*
D159*
X-1189Y2549D02*
D03*
X2549Y1189D02*
D03*
X1189Y-2549D02*
D03*
X-2549Y-1189D02*
D03*
D160*
X-1156Y2003D02*
D03*
X1156D02*
D03*
X2312Y0D02*
D03*
X1156Y-2003D02*
D03*
X-1156D02*
D03*
X-2312Y0D02*
D03*
X2400Y1610D02*
D03*
X1950Y1260D02*
D03*
X1500Y1580D02*
D03*
X-830Y-1150D02*
D03*
X-670Y-1300D02*
D03*
X-1040Y-970D02*
D03*
X1950Y1500D02*
D03*
X700Y2310D02*
D03*
D161*
X2200Y2565D02*
D03*
X2000D02*
D03*
X1800D02*
D03*
X1600D02*
D03*
X1400D02*
D03*
D162*
X2040Y-1120D02*
D03*
Y-1220D02*
D03*
Y-960D02*
D03*
Y-860D02*
D03*
D163*
X-2120Y2600D02*
D03*
X0Y1420D02*
D03*
X160D02*
D03*
X-160D02*
D03*
X-750Y1220D02*
D03*
X-990Y-250D02*
D03*
X500Y1330D02*
D03*
X1070Y1140D02*
D03*
X1480Y-360D02*
D03*
X2330Y220D02*
D03*
X-780Y710D02*
D03*
X-840Y570D02*
D03*
X-1330Y-700D02*
D03*
X680Y-1250D02*
D03*
X500Y-1330D02*
D03*
X330Y-1440D02*
D03*
X160D02*
D03*
X0D02*
D03*
X-160D02*
D03*
X-320D02*
D03*
X-490Y-1400D02*
D03*
X840Y-1090D02*
D03*
X1420Y0D02*
D03*
X-870Y1080D02*
D03*
X-950Y2280D02*
D03*
X-380Y2180D02*
D03*
X2000Y-1900D02*
D03*
D164*
X-2500Y-490D02*
D03*
Y-790D02*
D03*
X-2200D02*
D03*
Y-1090D02*
D03*
X830Y2510D02*
D03*
X2040Y-1650D02*
D03*
X1800Y-2600D02*
D03*
X1540D02*
D03*
X800D02*
D03*
X0D02*
D03*
D165*
X-1560Y2620D02*
D03*
X670Y-548D02*
D03*
X815Y-291D02*
D03*
Y291D02*
D03*
X670Y547D02*
D03*
X148Y850D02*
D03*
X-815Y291D02*
D03*
X-670Y-547D02*
D03*
X148Y-850D02*
D03*
X-148Y850D02*
D03*
X-670Y547D02*
D03*
X-815Y-291D02*
D03*
X-148Y-850D02*
D03*
D166*
X-2480Y390D02*
D03*
D167*
X2231Y-2409D02*
D03*
X2663Y-2222D02*
D03*
X1220Y2470D02*
D03*
X2134Y2224D02*
D03*
X620Y2720D02*
D03*
X590Y2380D02*
D03*
X462Y2532D02*
D03*
X630Y2670D02*
D03*
X550Y2570D02*
D03*
X630Y2530D02*
D03*
X2410Y-820D02*
D03*
X-1310Y990D02*
D03*
X2005Y-440D02*
D03*
X1550Y-210D02*
D03*
X1360Y-190D02*
D03*
X1100Y-120D02*
D03*
X1870Y-880D02*
D03*
X1540Y2430D02*
D03*
X1070Y2590D02*
D03*
X1540Y2240D02*
D03*
X1977Y-673D02*
D03*
X1470Y-1500D02*
D03*
X1620Y-1440D02*
D03*
X1310Y570D02*
D03*
X1470Y110D02*
D03*
X1440Y-160D02*
D03*
Y-570D02*
D03*
X1230Y-800D02*
D03*
X1100Y-990D02*
D03*
X1300Y-950D02*
D03*
X900Y-1190D02*
D03*
X618Y-1479D02*
D03*
X220Y-1570D02*
D03*
X-190D02*
D03*
X-640Y-1540D02*
D03*
X-940Y-1250D02*
D03*
X-1260Y-930D02*
D03*
X-1520Y-660D02*
D03*
Y-400D02*
D03*
X-1440Y-90D02*
D03*
X-1500D02*
D03*
X-1370Y250D02*
D03*
Y480D02*
D03*
X-1185Y860D02*
D03*
X-1010Y1210D02*
D03*
X1180Y990D02*
D03*
X750Y1290D02*
D03*
X500Y1450D02*
D03*
X140Y1540D02*
D03*
X-220Y1530D02*
D03*
X990Y1000D02*
D03*
X840Y1220D02*
D03*
X-590Y1380D02*
D03*
X-920Y1420D02*
D03*
X-1270Y1140D02*
D03*
X-1400Y740D02*
D03*
X-1700Y-30D02*
D03*
X-1650Y-460D02*
D03*
X-1480Y-860D02*
D03*
X-1200Y-1200D02*
D03*
X-840Y-1470D02*
D03*
X-430Y-1620D02*
D03*
X-20Y-1660D02*
D03*
X420Y-1600D02*
D03*
X830Y-1410D02*
D03*
X1170Y-1130D02*
D03*
X1416Y-790D02*
D03*
X1570Y-390D02*
D03*
X1610Y30D02*
D03*
X1340Y320D02*
D03*
X1360Y880D02*
D03*
X730Y1470D02*
D03*
X330Y1610D02*
D03*
X-80Y1640D02*
D03*
X-410Y1520D02*
D03*
X1600Y1310D02*
D03*
X1720Y2050D02*
D03*
Y1210D02*
D03*
X1890Y1910D02*
D03*
X1400Y620D02*
D03*
Y590D02*
D03*
Y560D02*
D03*
Y530D02*
D03*
X1110Y910D02*
D03*
X777Y2210D02*
D03*
X1915Y1720D02*
D03*
X1740Y1610D02*
D03*
X1530Y1750D02*
D03*
X640Y2060D02*
D03*
X-2220Y230D02*
D03*
X-690Y1510D02*
D03*
X-490Y1540D02*
D03*
X990Y2210D02*
D03*
X1140Y-690D02*
D03*
X1120Y-830D02*
D03*
X940Y-870D02*
D03*
X1030Y-760D02*
D03*
X610Y1010D02*
D03*
X760Y1160D02*
D03*
X660Y1190D02*
D03*
X1420Y2180D02*
D03*
Y2110D02*
D03*
X1660Y1300D02*
D03*
X1140Y1730D02*
D03*
X1580Y1350D02*
D03*
X1360Y1650D02*
D03*
X1690Y1350D02*
D03*
X2370Y1760D02*
D03*
X1690Y1390D02*
D03*
X2260Y1750D02*
D03*
X1700Y1760D02*
D03*
X1630Y1250D02*
D03*
X1690Y1790D02*
D03*
X-1110Y-600D02*
D03*
X-920Y-780D02*
D03*
X-750Y-1020D02*
D03*
X-350Y-1140D02*
D03*
X-150D02*
D03*
X180D02*
D03*
X490D02*
D03*
X770Y-990D02*
D03*
X1020Y-630D02*
D03*
X1170Y-340D02*
D03*
Y-10D02*
D03*
Y300D02*
D03*
X1070Y610D02*
D03*
X930Y830D02*
D03*
X340Y1150D02*
D03*
X20D02*
D03*
X-300D02*
D03*
X-610Y1050D02*
D03*
X-810Y890D02*
D03*
X-1020Y640D02*
D03*
X-1170Y460D02*
D03*
X240Y1330D02*
D03*
X400Y1280D02*
D03*
X550Y1220D02*
D03*
X1150Y740D02*
D03*
X1230Y550D02*
D03*
X1330Y240D02*
D03*
X1290Y400D02*
D03*
X1360Y80D02*
D03*
X1330Y-240D02*
D03*
X1350Y-80D02*
D03*
X1290Y-400D02*
D03*
X1240Y-550D02*
D03*
X910Y-1020D02*
D03*
X690Y-1150D02*
D03*
X560Y-1230D02*
D03*
X400Y-1290D02*
D03*
X240Y-1330D02*
D03*
X80Y-1340D02*
D03*
X-80D02*
D03*
X-240Y-1330D02*
D03*
X-400Y-1290D02*
D03*
X-550Y-1240D02*
D03*
X-690Y-1160D02*
D03*
X-910Y-1000D02*
D03*
X-1040Y-820D02*
D03*
X-1150Y-690D02*
D03*
X-1220Y-550D02*
D03*
X-1280Y-430D02*
D03*
X-1310Y-350D02*
D03*
X-1280Y-30D02*
D03*
X-1290Y200D02*
D03*
X-1300Y330D02*
D03*
X-1279Y399D02*
D03*
X-1220Y550D02*
D03*
X-1140Y690D02*
D03*
X-1040Y820D02*
D03*
X-980Y950D02*
D03*
X-690Y1130D02*
D03*
X-550Y1210D02*
D03*
X-400Y1280D02*
D03*
X-240Y1330D02*
D03*
X-80Y1350D02*
D03*
X80Y1370D02*
D03*
X-1070Y-330D02*
D03*
X-1170Y200D02*
D03*
X-2420Y450D02*
D03*
X-2200Y430D02*
D03*
X-2420Y530D02*
D03*
X-2230Y550D02*
D03*
X1830Y-1443D02*
D03*
X2120Y-2620D02*
D03*
Y-2430D02*
D03*
Y-2240D02*
D03*
X-540Y2405D02*
D03*
X-510D02*
D03*
X-480D02*
D03*
X-450D02*
D03*
X-2100Y1040D02*
D03*
Y1010D02*
D03*
Y980D02*
D03*
Y950D02*
D03*
Y920D02*
D03*
X2181Y881D02*
D03*
X1780Y2370D02*
D03*
X1820D02*
D03*
X1500Y1880D02*
D03*
X1533Y1913D02*
D03*
Y1987D02*
D03*
X1500Y2020D02*
D03*
X2050Y2090D02*
D03*
X2130Y1100D02*
D03*
X2150Y1140D02*
D03*
X2220Y1747D02*
D03*
X2610Y940D02*
D03*
X2547D02*
D03*
X2537Y-1573D02*
D03*
X2660Y2220D02*
D03*
Y2130D02*
D03*
X2140Y970D02*
D03*
X2600Y2180D02*
D03*
X2160Y1970D02*
D03*
X2280Y1100D02*
D03*
X2250Y1120D02*
D03*
X2567Y2007D02*
D03*
X2370Y1930D02*
D03*
X2260Y1910D02*
D03*
X2130Y1200D02*
D03*
X-503Y2123D02*
D03*
X2210Y1550D02*
D03*
X2110Y1270D02*
D03*
X2090Y1710D02*
D03*
Y1750D02*
D03*
X2350Y445D02*
D03*
X2320Y495D02*
D03*
X2350Y-625D02*
D03*
X2320Y-575D02*
D03*
Y-1315D02*
D03*
X2350Y-1365D02*
D03*
Y-2055D02*
D03*
X2320Y-2005D02*
D03*
X2250Y-980D02*
D03*
X2273Y833D02*
D03*
X2250Y-1670D02*
D03*
X2373Y-1517D02*
D03*
X2580Y-130D02*
D03*
X2590Y-920D02*
D03*
X2610Y-980D02*
D03*
Y-240D02*
D03*
Y830D02*
D03*
Y-1670D02*
D03*
X2330Y-2600D02*
D03*
X2150D02*
D03*
X2495Y-1470D02*
D03*
X2410Y-720D02*
D03*
X2590D02*
D03*
X-246Y2437D02*
D03*
X114Y2346D02*
D03*
X-365Y2645D02*
D03*
X-930Y2630D02*
D03*
X-495Y2300D02*
D03*
X-420Y2405D02*
D03*
X-2525Y2100D02*
D03*
X-2465Y2160D02*
D03*
X-2315D02*
D03*
X-2255Y2100D02*
D03*
X-2540Y1270D02*
D03*
X-2427Y1383D02*
D03*
X-2380Y1655D02*
D03*
X494Y2221D02*
D03*
X-2075Y1510D02*
D03*
X-2630Y2400D02*
D03*
Y2000D02*
D03*
Y1645D02*
D03*
Y1900D02*
D03*
Y2300D02*
D03*
Y2100D02*
D03*
Y2200D02*
D03*
X-2218Y1413D02*
D03*
X-2670Y1030D02*
D03*
X-2484Y1326D02*
D03*
X-2310Y1325D02*
D03*
X-2240D02*
D03*
X-2165D02*
D03*
X2493Y1703D02*
D03*
X2567Y1702D02*
D03*
X2099Y2111D02*
D03*
X2410Y-2160D02*
D03*
X2366Y-2194D02*
D03*
X2400Y-2515D02*
D03*
X-2700Y800D02*
D03*
X1740Y1900D02*
D03*
X1850D02*
D03*
X1740Y2370D02*
D03*
X1940Y1700D02*
D03*
X1695Y2370D02*
D03*
X1740Y1740D02*
D03*
X2000Y1720D02*
D03*
X1990Y1910D02*
D03*
X1740Y1700D02*
D03*
X1860Y1830D02*
D03*
X2010Y1980D02*
D03*
X2250Y-250D02*
D03*
X2590Y-2160D02*
D03*
X1933Y798D02*
D03*
X2045Y430D02*
D03*
X2680Y2310D02*
D03*
X1230Y2590D02*
D03*
X2190Y1720D02*
D03*
X870Y800D02*
D03*
Y640D02*
D03*
X830D02*
D03*
Y800D02*
D03*
X790Y640D02*
D03*
Y800D02*
D03*
X830Y-90D02*
D03*
X1730Y1940D02*
D03*
X1670Y1860D02*
D03*
X820Y2150D02*
D03*
X930D02*
D03*
X630Y2000D02*
D03*
X710D02*
D03*
X1030Y1240D02*
D03*
D168*
X2354Y-2385D02*
D03*
X2424D02*
D03*
X2425Y-2316D02*
D03*
X2355D02*
D03*
X2390Y-2352D02*
D03*
D169*
X-1340Y990D02*
D03*
X-1310Y960D02*
D03*
X-1340D02*
D03*
X-1310Y930D02*
D03*
X-1340D02*
D03*
X-1550Y580D02*
D03*
X-1670Y120D02*
D03*
X-1630D02*
D03*
X-1590D02*
D03*
X-1550Y140D02*
D03*
Y250D02*
D03*
Y290D02*
D03*
Y430D02*
D03*
X190Y2090D02*
D03*
X2040Y180D02*
D03*
Y210D02*
D03*
Y240D02*
D03*
Y270D02*
D03*
Y300D02*
D03*
Y520D02*
D03*
Y550D02*
D03*
Y580D02*
D03*
Y610D02*
D03*
Y640D02*
D03*
Y670D02*
D03*
X1320Y-860D02*
D03*
X-1500Y-420D02*
D03*
X-1540D02*
D03*
X-1520Y-440D02*
D03*
X-1310Y380D02*
D03*
X-630Y1510D02*
D03*
X-660D02*
D03*
X-530Y1540D02*
D03*
X2600Y340D02*
D03*
X2420D02*
D03*
X1290Y2270D02*
D03*
X1700Y2650D02*
D03*
X-1450Y1580D02*
D03*
Y1610D02*
D03*
Y1640D02*
D03*
Y1670D02*
D03*
Y1700D02*
D03*
Y1730D02*
D03*
Y1760D02*
D03*
Y1790D02*
D03*
Y1820D02*
D03*
Y1850D02*
D03*
X990Y1030D02*
D03*
Y970D02*
D03*
X1020Y1000D02*
D03*
X960D02*
D03*
X1205Y-800D02*
D03*
X1230Y-775D02*
D03*
X1255Y-800D02*
D03*
X1230Y-825D02*
D03*
X1100Y-965D02*
D03*
Y-1015D02*
D03*
X1075Y-990D02*
D03*
X1125D02*
D03*
X-1440Y-65D02*
D03*
Y-115D02*
D03*
X-1415Y-90D02*
D03*
X-1465D02*
D03*
X840Y1245D02*
D03*
Y1195D02*
D03*
X815Y1220D02*
D03*
X865D02*
D03*
M02*
