%FSLAX23Y23*%
%MOIN*%
G70*
G01*
G75*
G04 Layer_Color=32896*
%ADD10R,0.012X0.063*%
%ADD11R,0.050X0.055*%
%ADD12R,0.063X0.012*%
%ADD13R,0.055X0.050*%
%ADD14R,0.012X0.024*%
%ADD15R,0.024X0.012*%
%ADD16R,0.132X0.132*%
%ADD17R,0.024X0.081*%
%ADD18R,0.024X0.087*%
%ADD19R,0.075X0.051*%
%ADD20R,0.089X0.024*%
%ADD21R,0.055X0.065*%
%ADD22R,0.065X0.055*%
%ADD23R,0.035X0.037*%
%ADD24R,0.035X0.037*%
%ADD25R,0.100X0.100*%
%ADD26R,0.050X0.110*%
%ADD27R,0.110X0.115*%
%ADD28R,0.080X0.160*%
%ADD29R,0.450X0.450*%
%ADD30R,0.036X0.085*%
%ADD31R,0.425X0.410*%
%ADD32R,0.016X0.085*%
%ADD33R,0.016X0.085*%
%ADD34R,0.200X0.100*%
%ADD35R,0.063X0.031*%
%ADD36R,0.039X0.063*%
%ADD37R,0.160X0.080*%
%ADD38R,0.450X0.450*%
%ADD39R,0.217X0.280*%
%ADD40R,0.081X0.024*%
%ADD41R,0.012X0.063*%
%ADD42C,0.050*%
%ADD43R,0.102X0.094*%
%ADD44R,0.079X0.126*%
%ADD45R,0.079X0.126*%
%ADD46C,0.010*%
%ADD47C,0.020*%
%ADD48C,0.050*%
%ADD49C,0.030*%
%ADD50C,0.100*%
%ADD51C,0.150*%
%ADD52C,0.035*%
%ADD53C,0.040*%
%ADD54C,0.005*%
%ADD55C,0.100*%
%ADD56R,0.100X0.100*%
%ADD57C,0.125*%
%ADD58O,0.125X0.160*%
%ADD59R,0.125X0.160*%
%ADD60C,0.065*%
%ADD61R,0.065X0.065*%
%ADD62C,0.079*%
%ADD63R,0.160X0.125*%
%ADD64O,0.160X0.125*%
%ADD65C,0.070*%
%ADD66R,0.070X0.070*%
%ADD67C,0.060*%
%ADD68C,0.150*%
%ADD69R,0.070X0.070*%
%ADD70C,0.150*%
%ADD71C,0.140*%
%ADD72C,0.024*%
%ADD73C,0.008*%
%ADD74C,0.102*%
%ADD75C,0.165*%
%ADD76C,0.120*%
%ADD77C,0.080*%
%ADD78C,0.087*%
%ADD79C,0.196*%
%ADD80C,0.590*%
%ADD81C,0.072*%
%ADD82C,0.131*%
%ADD83C,0.085*%
%ADD84C,0.130*%
%ADD85C,0.052*%
%ADD86C,0.068*%
%ADD87C,0.160*%
%ADD88C,0.080*%
%ADD89C,0.010*%
%ADD90C,0.008*%
%ADD91C,0.005*%
%ADD92C,0.031*%
%ADD93C,0.008*%
%ADD94C,0.001*%
%ADD95C,0.002*%
%ADD96C,0.015*%
%ADD97R,0.020X0.071*%
%ADD98R,0.058X0.063*%
%ADD99R,0.071X0.020*%
%ADD100R,0.063X0.058*%
%ADD101R,0.016X0.028*%
%ADD102R,0.028X0.016*%
%ADD103R,0.140X0.140*%
%ADD104R,0.032X0.089*%
%ADD105R,0.032X0.095*%
%ADD106R,0.083X0.059*%
%ADD107R,0.097X0.032*%
%ADD108R,0.063X0.073*%
%ADD109R,0.073X0.063*%
%ADD110R,0.043X0.045*%
%ADD111R,0.043X0.045*%
%ADD112R,0.108X0.108*%
%ADD113R,0.058X0.118*%
%ADD114R,0.118X0.123*%
%ADD115R,0.088X0.168*%
%ADD116R,0.458X0.458*%
%ADD117R,0.044X0.093*%
%ADD118R,0.433X0.418*%
%ADD119R,0.024X0.093*%
%ADD120R,0.024X0.093*%
%ADD121R,0.208X0.108*%
%ADD122R,0.071X0.039*%
%ADD123R,0.047X0.071*%
%ADD124R,0.168X0.088*%
%ADD125R,0.458X0.458*%
%ADD126R,0.225X0.288*%
%ADD127R,0.089X0.032*%
%ADD128R,0.020X0.071*%
%ADD129C,0.090*%
%ADD130C,0.058*%
%ADD131R,0.110X0.102*%
%ADD132R,0.087X0.134*%
%ADD133R,0.087X0.134*%
%ADD134C,0.108*%
%ADD135R,0.108X0.108*%
%ADD136C,0.133*%
%ADD137O,0.133X0.168*%
%ADD138R,0.133X0.168*%
%ADD139C,0.073*%
%ADD140R,0.073X0.073*%
%ADD141C,0.087*%
%ADD142R,0.168X0.133*%
%ADD143O,0.168X0.133*%
%ADD144C,0.008*%
%ADD145C,0.078*%
%ADD146R,0.078X0.078*%
%ADD147C,0.158*%
%ADD148R,0.078X0.078*%
%ADD149C,0.158*%
%ADD150C,0.148*%
%ADD151C,0.032*%
%ADD152C,0.002*%
D46*
X8928Y1348D02*
Y1368D01*
Y1358D01*
X8978D01*
X8988Y1368D01*
Y1378D01*
X8978Y1388D01*
X8988Y1328D02*
Y1308D01*
Y1318D01*
X8928D01*
X8938Y1328D01*
X8978Y1278D02*
X8988Y1268D01*
Y1248D01*
X8978Y1238D01*
X8938D01*
X8928Y1248D01*
Y1268D01*
X8938Y1278D01*
X8948D01*
X8958Y1268D01*
Y1238D01*
D54*
X15055Y4785D02*
X15100D01*
Y4807D01*
X15093Y4815D01*
X15085D01*
X15078Y4807D01*
Y4785D01*
Y4807D01*
X15070Y4815D01*
X15063D01*
X15055Y4807D01*
Y4785D01*
X15100Y4837D02*
Y4852D01*
X15093Y4860D01*
X15078D01*
X15070Y4852D01*
Y4837D01*
X15078Y4830D01*
X15093D01*
X15100Y4837D01*
X15063Y4882D02*
X15070D01*
Y4875D01*
Y4890D01*
Y4882D01*
X15093D01*
X15100Y4890D01*
X15063Y4920D02*
X15070D01*
Y4912D01*
Y4927D01*
Y4920D01*
X15093D01*
X15100Y4927D01*
Y4957D02*
Y4972D01*
X15093Y4980D01*
X15078D01*
X15070Y4972D01*
Y4957D01*
X15078Y4950D01*
X15093D01*
X15100Y4957D01*
Y4995D02*
X15070D01*
Y5002D01*
X15078Y5010D01*
X15100D01*
X15078D01*
X15070Y5017D01*
X15078Y5025D01*
X15100D01*
X15055Y5107D02*
Y5092D01*
X15063Y5085D01*
X15093D01*
X15100Y5092D01*
Y5107D01*
X15093Y5115D01*
X15063D01*
X15055Y5107D01*
X15070Y5130D02*
X15100Y5145D01*
X15070Y5160D01*
X15100Y5197D02*
Y5182D01*
X15093Y5175D01*
X15078D01*
X15070Y5182D01*
Y5197D01*
X15078Y5205D01*
X15085D01*
Y5175D01*
X15070Y5220D02*
X15100D01*
X15085D01*
X15078Y5227D01*
X15070Y5235D01*
Y5242D01*
X15100Y5265D02*
Y5280D01*
Y5272D01*
X15055D01*
Y5265D01*
X15070Y5310D02*
Y5325D01*
X15078Y5332D01*
X15100D01*
Y5310D01*
X15093Y5302D01*
X15085Y5310D01*
Y5332D01*
X15070Y5347D02*
X15093D01*
X15100Y5355D01*
Y5377D01*
X15107D01*
X15115Y5370D01*
Y5362D01*
X15100Y5377D02*
X15070D01*
D73*
X9022Y1394D02*
X10707D01*
Y6D02*
Y1394D01*
X9022Y6D02*
X10707D01*
X9022D02*
Y1394D01*
X13426Y697D02*
X14814D01*
Y3028D01*
X13426D02*
X14814D01*
X13426Y697D02*
Y3028D01*
X186Y6298D02*
X1574D01*
X186Y3967D02*
Y6298D01*
Y3967D02*
X1574D01*
Y6298D01*
X13426Y3972D02*
X14814D01*
Y6303D01*
X13426D02*
X14814D01*
X13426Y3972D02*
Y6303D01*
X186Y3028D02*
X1574D01*
X186Y697D02*
Y3028D01*
Y697D02*
X1574D01*
Y3028D01*
X1534Y3112D02*
X1551D01*
X1543D01*
Y3071D01*
X1551Y3062D01*
X1559D01*
X1567Y3071D01*
X1518Y3062D02*
X1501D01*
X1509D01*
Y3112D01*
X1518Y3104D01*
X1476Y3112D02*
X1443D01*
Y3104D01*
X1476Y3071D01*
Y3062D01*
X13587Y6375D02*
X13603D01*
X13595D01*
Y6333D01*
X13603Y6325D01*
X13612D01*
X13620Y6333D01*
X13570Y6325D02*
X13553D01*
X13562D01*
Y6375D01*
X13570Y6367D01*
X13495Y6375D02*
X13512Y6367D01*
X13528Y6350D01*
Y6333D01*
X13520Y6325D01*
X13503D01*
X13495Y6333D01*
Y6342D01*
X13503Y6350D01*
X13528D01*
X1534Y6382D02*
X1551D01*
X1543D01*
Y6341D01*
X1551Y6332D01*
X1559D01*
X1567Y6341D01*
X1518Y6332D02*
X1501D01*
X1509D01*
Y6382D01*
X1518Y6374D01*
X1443Y6332D02*
X1476D01*
X1443Y6366D01*
Y6374D01*
X1451Y6382D01*
X1468D01*
X1476Y6374D01*
X13542Y3100D02*
X13558D01*
X13550D01*
Y3058D01*
X13558Y3050D01*
X13567D01*
X13575Y3058D01*
X13525Y3050D02*
X13508D01*
X13517D01*
Y3100D01*
X13525Y3092D01*
X13483Y3050D02*
X13467D01*
X13475D01*
Y3100D01*
X13483Y3092D01*
X10665Y70D02*
Y53D01*
Y62D01*
X10615D01*
X10623Y70D01*
X14290Y665D02*
X14307D01*
X14298D01*
Y615D01*
X14290Y623D01*
X683Y6330D02*
X667D01*
X675D01*
Y6380D01*
X683Y6372D01*
X14860Y4720D02*
X14877D01*
X14868D01*
Y4670D01*
X14860Y4678D01*
X130Y2280D02*
X113D01*
X122D01*
Y2330D01*
X130Y2322D01*
D91*
X8030Y1315D02*
X8070D01*
X7080Y1320D02*
X7160D01*
X8020D02*
X8080D01*
X6640Y1325D02*
X6715D01*
X7055D02*
X7180D01*
X7425D02*
X7495D01*
X8015D02*
X8090D01*
X6610Y1330D02*
X6740D01*
X7040D02*
X7200D01*
X7395D02*
X7525D01*
X8010D02*
X8100D01*
X6590Y1335D02*
X6760D01*
X7020D02*
X7215D01*
X7375D02*
X7545D01*
X8005D02*
X8110D01*
X6575Y1340D02*
X6780D01*
X7010D02*
X7230D01*
X7360D02*
X7560D01*
X7810D02*
X7850D01*
X8005D02*
X8115D01*
X6440Y1345D02*
X6465D01*
X6565D02*
X6790D01*
X7000D02*
X7240D01*
X7350D02*
X7570D01*
X7800D02*
X7860D01*
X8000D02*
X8125D01*
X6430Y1350D02*
X6470D01*
X6555D02*
X6800D01*
X6990D02*
X7250D01*
X7340D02*
X7580D01*
X7795D02*
X7865D01*
X8000D02*
X8130D01*
X6425Y1355D02*
X6445D01*
X6460D02*
X6475D01*
X6545D02*
X6810D01*
X6980D02*
X7255D01*
X7330D02*
X7590D01*
X7785D02*
X7870D01*
X8000D02*
X8135D01*
X6425Y1360D02*
X6435D01*
X6440D02*
X6475D01*
X6540D02*
X6820D01*
X6975D02*
X7265D01*
X7320D02*
X7595D01*
X7780D02*
X7875D01*
X7995D02*
X8145D01*
X6425Y1365D02*
X6435D01*
X6440D02*
X6465D01*
X6470D02*
X6480D01*
X6530D02*
X6825D01*
X6965D02*
X7275D01*
X7315D02*
X7605D01*
X7775D02*
X7880D01*
X7995D02*
X8045D01*
X8065D02*
X8150D01*
X6425Y1370D02*
X6430D01*
X6440D02*
X6465D01*
X6470D02*
X6480D01*
X6520D02*
X6835D01*
X6960D02*
X7080D01*
X7160D02*
X7280D01*
X7305D02*
X7615D01*
X7770D02*
X7885D01*
X7990D02*
X8045D01*
X8070D02*
X8155D01*
X6425Y1375D02*
X6435D01*
X6440D02*
X6465D01*
X6470D02*
X6480D01*
X6515D02*
X6635D01*
X6720D02*
X6840D01*
X6955D02*
X7055D01*
X7180D02*
X7285D01*
X7300D02*
X7420D01*
X7500D02*
X7620D01*
X7765D02*
X7890D01*
X7990D02*
X8040D01*
X8080D02*
X8160D01*
X6425Y1380D02*
X6475D01*
X6510D02*
X6610D01*
X6745D02*
X6845D01*
X6945D02*
X7040D01*
X7200D02*
X7395D01*
X7525D02*
X7625D01*
X7760D02*
X7895D01*
X7985D02*
X8040D01*
X8090D02*
X8165D01*
X6430Y1385D02*
X6475D01*
X6505D02*
X6595D01*
X6760D02*
X6855D01*
X6940D02*
X7030D01*
X7210D02*
X7380D01*
X7540D02*
X7630D01*
X7755D02*
X7900D01*
X7985D02*
X8040D01*
X8095D02*
X8170D01*
X6435Y1390D02*
X6470D01*
X6495D02*
X6585D01*
X6770D02*
X6860D01*
X6935D02*
X7015D01*
X7225D02*
X7370D01*
X7550D02*
X7635D01*
X7750D02*
X7820D01*
X7835D02*
X7905D01*
X7985D02*
X8035D01*
X8105D02*
X8175D01*
X6440Y1395D02*
X6465D01*
X6490D02*
X6575D01*
X6780D02*
X6865D01*
X6930D02*
X7010D01*
X7230D02*
X7360D01*
X7560D02*
X7640D01*
X7745D02*
X7815D01*
X7840D02*
X7910D01*
X7980D02*
X8035D01*
X8110D02*
X8180D01*
X6485Y1400D02*
X6565D01*
X6790D02*
X6870D01*
X6925D02*
X7000D01*
X7240D02*
X7350D01*
X7570D02*
X7645D01*
X7740D02*
X7810D01*
X7845D02*
X7915D01*
X7980D02*
X8030D01*
X8115D02*
X8185D01*
X6480Y1405D02*
X6555D01*
X6800D02*
X6875D01*
X6920D02*
X6995D01*
X7245D02*
X7340D01*
X7580D02*
X7650D01*
X7735D02*
X7800D01*
X7850D02*
X7920D01*
X7975D02*
X8030D01*
X8120D02*
X8190D01*
X6475Y1410D02*
X6550D01*
X6805D02*
X6880D01*
X6915D02*
X6985D01*
X7255D02*
X7335D01*
X7585D02*
X7655D01*
X7735D02*
X7795D01*
X7855D02*
X7925D01*
X7975D02*
X8030D01*
X8130D02*
X8190D01*
X6470Y1415D02*
X6540D01*
X6815D02*
X6885D01*
X6910D02*
X6980D01*
X7260D02*
X7335D01*
X7590D02*
X7660D01*
X7730D02*
X7790D01*
X7860D02*
X7930D01*
X7975D02*
X8025D01*
X8130D02*
X8195D01*
X6465Y1420D02*
X6535D01*
X6820D02*
X6890D01*
X6905D02*
X6975D01*
X7265D02*
X7335D01*
X7600D02*
X7665D01*
X7725D02*
X7785D01*
X7865D02*
X7935D01*
X7970D02*
X8025D01*
X8135D02*
X8200D01*
X6460Y1425D02*
X6530D01*
X6825D02*
X6890D01*
X6905D02*
X6970D01*
X7270D02*
X7340D01*
X7605D02*
X7670D01*
X7720D02*
X7785D01*
X7870D02*
X7940D01*
X7970D02*
X8020D01*
X8140D02*
X8205D01*
X6460Y1430D02*
X6525D01*
X6830D02*
X6895D01*
X6900D02*
X6965D01*
X7275D02*
X7345D01*
X7610D02*
X7675D01*
X7720D02*
X7780D01*
X7875D02*
X7945D01*
X7965D02*
X8020D01*
X8145D02*
X8205D01*
X6455Y1435D02*
X6520D01*
X6835D02*
X6960D01*
X7280D02*
X7345D01*
X7615D02*
X7680D01*
X7715D02*
X7775D01*
X7880D02*
X7950D01*
X7965D02*
X8020D01*
X8150D02*
X8210D01*
X6450Y1440D02*
X6515D01*
X6840D02*
X6955D01*
X7285D02*
X7350D01*
X7620D02*
X7680D01*
X7710D02*
X7770D01*
X7885D02*
X7955D01*
X7965D02*
X8015D01*
X8155D02*
X8210D01*
X6445Y1445D02*
X6510D01*
X6845D02*
X6950D01*
X7290D02*
X7355D01*
X7625D02*
X7685D01*
X7710D02*
X7765D01*
X7890D02*
X8015D01*
X8160D02*
X8215D01*
X6445Y1450D02*
X6505D01*
X6850D02*
X6945D01*
X7295D02*
X7355D01*
X7630D02*
X7690D01*
X7705D02*
X7765D01*
X7895D02*
X8010D01*
X8160D02*
X8220D01*
X6440Y1455D02*
X6500D01*
X6855D02*
X6940D01*
X7300D02*
X7360D01*
X7630D02*
X7690D01*
X7705D02*
X7760D01*
X7900D02*
X8010D01*
X8165D02*
X8220D01*
X6440Y1460D02*
X6495D01*
X6860D02*
X6940D01*
X7300D02*
X7365D01*
X7635D02*
X7695D01*
X7700D02*
X7755D01*
X7905D02*
X8020D01*
X8170D02*
X8225D01*
X6435Y1465D02*
X6490D01*
X6860D02*
X6935D01*
X7305D02*
X7365D01*
X7430D02*
X7485D01*
X7640D02*
X7755D01*
X7910D02*
X8030D01*
X8170D02*
X8225D01*
X6430Y1470D02*
X6490D01*
X6865D02*
X6930D01*
X7085D02*
X7150D01*
X7310D02*
X7370D01*
X7415D02*
X7500D01*
X7645D02*
X7750D01*
X7915D02*
X8040D01*
X8175D02*
X8230D01*
X6430Y1475D02*
X6485D01*
X6650D02*
X6705D01*
X6870D02*
X6930D01*
X7070D02*
X7165D01*
X7310D02*
X7370D01*
X7405D02*
X7510D01*
X7645D02*
X7750D01*
X7920D02*
X8045D01*
X8175D02*
X8230D01*
X6425Y1480D02*
X6480D01*
X6635D02*
X6725D01*
X6870D02*
X6925D01*
X7060D02*
X7175D01*
X7315D02*
X7375D01*
X7395D02*
X7520D01*
X7650D02*
X7745D01*
X7925D02*
X8050D01*
X8180D02*
X8230D01*
X6425Y1485D02*
X6480D01*
X6620D02*
X6735D01*
X6875D02*
X6920D01*
X7055D02*
X7185D01*
X7320D02*
X7375D01*
X7385D02*
X7530D01*
X7655D02*
X7745D01*
X7930D02*
X8055D01*
X8180D02*
X8235D01*
X6420Y1490D02*
X6475D01*
X6610D02*
X6745D01*
X6875D02*
X6920D01*
X7045D02*
X7190D01*
X7320D02*
X7535D01*
X7655D02*
X7740D01*
X7935D02*
X8060D01*
X8185D02*
X8235D01*
X6420Y1495D02*
X6475D01*
X6610D02*
X6750D01*
X6870D02*
X6915D01*
X7040D02*
X7200D01*
X7325D02*
X7545D01*
X7660D02*
X7740D01*
X7940D02*
X8065D01*
X8185D02*
X8235D01*
X6420Y1500D02*
X6470D01*
X6610D02*
X6760D01*
X6865D02*
X6915D01*
X7035D02*
X7205D01*
X7325D02*
X7545D01*
X7660D02*
X7735D01*
X7945D02*
X8070D01*
X8185D02*
X8240D01*
X6415Y1505D02*
X6470D01*
X6620D02*
X6765D01*
X6855D02*
X6915D01*
X7030D02*
X7210D01*
X7330D02*
X7550D01*
X7665D02*
X7735D01*
X7950D02*
X8075D01*
X8190D02*
X8240D01*
X6415Y1510D02*
X6465D01*
X6625D02*
X6770D01*
X6850D02*
X6910D01*
X7025D02*
X7215D01*
X7330D02*
X7560D01*
X7665D02*
X7735D01*
X7955D02*
X8080D01*
X8190D02*
X8245D01*
X6415Y1515D02*
X6465D01*
X6630D02*
X6775D01*
X6840D02*
X6910D01*
X7020D02*
X7220D01*
X7330D02*
X7560D01*
X7670D02*
X7730D01*
X7960D02*
X8080D01*
X8195D02*
X8245D01*
X6415Y1520D02*
X6465D01*
X6640D02*
X6775D01*
X6835D02*
X6905D01*
X7015D02*
X7220D01*
X7335D02*
X7565D01*
X7670D02*
X7730D01*
X7965D02*
X8085D01*
X8195D02*
X8245D01*
X6415Y1525D02*
X6470D01*
X6645D02*
X6780D01*
X6825D02*
X6905D01*
X7015D02*
X7225D01*
X7335D02*
X7570D01*
X7670D02*
X7730D01*
X7970D02*
X8085D01*
X8195D02*
X8245D01*
X6415Y1530D02*
X6480D01*
X6655D02*
X6785D01*
X6820D02*
X6905D01*
X7010D02*
X7230D01*
X7335D02*
X7575D01*
X7675D02*
X7730D01*
X7975D02*
X8090D01*
X8195D02*
X8245D01*
X6415Y1535D02*
X6485D01*
X6660D02*
X6790D01*
X6810D02*
X6900D01*
X7005D02*
X7230D01*
X7340D02*
X7575D01*
X7675D02*
X7725D01*
X7980D02*
X8095D01*
X8200D02*
X8250D01*
X6420Y1540D02*
X6495D01*
X6670D02*
X6790D01*
X6805D02*
X6900D01*
X7005D02*
X7235D01*
X7340D02*
X7580D01*
X7675D02*
X7725D01*
X7830D02*
X7835D01*
X7985D02*
X8095D01*
X8200D02*
X8250D01*
X6420Y1545D02*
X6500D01*
X6675D02*
X6900D01*
X7000D02*
X7235D01*
X7340D02*
X7580D01*
X7675D02*
X7725D01*
X7825D02*
X7840D01*
X7990D02*
X8095D01*
X8200D02*
X8250D01*
X6425Y1550D02*
X6510D01*
X6685D02*
X6900D01*
X7000D02*
X7240D01*
X7340D02*
X7580D01*
X7680D02*
X7725D01*
X7825D02*
X7845D01*
X7995D02*
X8100D01*
X8200D02*
X8250D01*
X6430Y1555D02*
X6515D01*
X6690D02*
X6895D01*
X6995D02*
X7240D01*
X7345D02*
X7580D01*
X7680D02*
X7725D01*
X7825D02*
X7850D01*
X8000D02*
X8100D01*
X8200D02*
X8250D01*
X6440Y1560D02*
X6525D01*
X6700D02*
X6895D01*
X6995D02*
X7245D01*
X7345D02*
X7395D01*
X7680D02*
X7725D01*
X7825D02*
X7855D01*
X8005D02*
X8100D01*
X8205D02*
X8250D01*
X6445Y1565D02*
X6530D01*
X6705D02*
X6895D01*
X6995D02*
X7245D01*
X7345D02*
X7395D01*
X7680D02*
X7720D01*
X7820D02*
X7860D01*
X8010D02*
X8100D01*
X8205D02*
X8250D01*
X6450Y1570D02*
X6540D01*
X6715D02*
X6895D01*
X6995D02*
X7245D01*
X7345D02*
X7395D01*
X7680D02*
X7720D01*
X7820D02*
X7865D01*
X8015D02*
X8100D01*
X8205D02*
X8250D01*
X6460Y1575D02*
X6545D01*
X6720D02*
X6895D01*
X6995D02*
X7245D01*
X7345D02*
X7400D01*
X7680D02*
X7720D01*
X7820D02*
X7870D01*
X8020D02*
X8105D01*
X8205D02*
X8255D01*
X6465Y1580D02*
X6555D01*
X6730D02*
X6895D01*
X6990D02*
X7245D01*
X7345D02*
X7400D01*
X7680D02*
X7720D01*
X7820D02*
X7875D01*
X8025D02*
X8105D01*
X8205D02*
X8255D01*
X6475Y1585D02*
X6560D01*
X6735D02*
X6895D01*
X6990D02*
X7245D01*
X7345D02*
X7400D01*
X7680D02*
X7720D01*
X7820D02*
X7880D01*
X8030D02*
X8105D01*
X8205D02*
X8255D01*
X6485Y1590D02*
X6570D01*
X6745D02*
X6895D01*
X6990D02*
X7245D01*
X7345D02*
X7400D01*
X7680D02*
X7720D01*
X7820D02*
X7885D01*
X8035D02*
X8105D01*
X8205D02*
X8255D01*
X6490Y1595D02*
X6575D01*
X6750D02*
X6895D01*
X6990D02*
X7250D01*
X7345D02*
X7400D01*
X7680D02*
X7720D01*
X7820D02*
X7890D01*
X8040D02*
X8105D01*
X8205D02*
X8255D01*
X6495Y1600D02*
X6585D01*
X6760D02*
X6895D01*
X6990D02*
X7250D01*
X7345D02*
X7400D01*
X7680D02*
X7720D01*
X7820D02*
X7895D01*
X8045D02*
X8105D01*
X8205D02*
X8255D01*
X6505Y1605D02*
X6590D01*
X6765D02*
X6895D01*
X6990D02*
X7250D01*
X7345D02*
X7400D01*
X7680D02*
X7720D01*
X7820D02*
X7900D01*
X8050D02*
X8105D01*
X8205D02*
X8255D01*
X6515Y1610D02*
X6600D01*
X6775D02*
X6895D01*
X6990D02*
X7245D01*
X7345D02*
X7400D01*
X7680D02*
X7720D01*
X7820D02*
X7905D01*
X8055D02*
X8105D01*
X8205D02*
X8255D01*
X6520Y1615D02*
X6605D01*
X6780D02*
X6895D01*
X6990D02*
X7245D01*
X7345D02*
X7400D01*
X7680D02*
X7720D01*
X7820D02*
X7910D01*
X8060D02*
X8100D01*
X8205D02*
X8250D01*
X6520Y1620D02*
X6615D01*
X6790D02*
X6895D01*
X6990D02*
X7245D01*
X7345D02*
X7400D01*
X7680D02*
X7720D01*
X7820D02*
X7915D01*
X8065D02*
X8100D01*
X8205D02*
X8250D01*
X6515Y1625D02*
X6620D01*
X6795D02*
X6895D01*
X6995D02*
X7245D01*
X7345D02*
X7395D01*
X7680D02*
X7725D01*
X7825D02*
X7920D01*
X8070D02*
X8100D01*
X8205D02*
X8250D01*
X6505Y1630D02*
X6630D01*
X6805D02*
X6895D01*
X6995D02*
X7245D01*
X7345D02*
X7395D01*
X7680D02*
X7725D01*
X7825D02*
X7925D01*
X8075D02*
X8100D01*
X8200D02*
X8250D01*
X6500Y1635D02*
X6635D01*
X6810D02*
X6895D01*
X6995D02*
X7245D01*
X7345D02*
X7395D01*
X7680D02*
X7725D01*
X7825D02*
X7930D01*
X8080D02*
X8100D01*
X8200D02*
X8250D01*
X6490Y1640D02*
X6645D01*
X6820D02*
X6895D01*
X6995D02*
X7240D01*
X7345D02*
X7395D01*
X7680D02*
X7725D01*
X7825D02*
X7935D01*
X8085D02*
X8095D01*
X8200D02*
X8250D01*
X6485Y1645D02*
X6650D01*
X6825D02*
X6900D01*
X7000D02*
X7240D01*
X7345D02*
X7580D01*
X7680D02*
X7725D01*
X7830D02*
X7940D01*
X8200D02*
X8250D01*
X6480Y1650D02*
X6660D01*
X6835D02*
X6900D01*
X7000D02*
X7240D01*
X7340D02*
X7580D01*
X7675D02*
X7725D01*
X7830D02*
X7945D01*
X8200D02*
X8250D01*
X6470Y1655D02*
X6665D01*
X6840D02*
X6900D01*
X7000D02*
X7235D01*
X7340D02*
X7580D01*
X7675D02*
X7730D01*
X7830D02*
X7950D01*
X8200D02*
X8245D01*
X6465Y1660D02*
X6675D01*
X6850D02*
X6900D01*
X7005D02*
X7235D01*
X7340D02*
X7580D01*
X7675D02*
X7730D01*
X7835D02*
X7955D01*
X8195D02*
X8245D01*
X6455Y1665D02*
X6540D01*
X6550D02*
X6680D01*
X6855D02*
X6905D01*
X7005D02*
X7230D01*
X7340D02*
X7575D01*
X7675D02*
X7730D01*
X7835D02*
X7960D01*
X8195D02*
X8245D01*
X6450Y1670D02*
X6535D01*
X6555D02*
X6690D01*
X6865D02*
X6905D01*
X7010D02*
X7230D01*
X7335D02*
X7575D01*
X7675D02*
X7730D01*
X7840D02*
X7965D01*
X8195D02*
X8245D01*
X6440Y1675D02*
X6525D01*
X6555D02*
X6695D01*
X6870D02*
X6905D01*
X7015D02*
X7225D01*
X7335D02*
X7570D01*
X7670D02*
X7735D01*
X7845D02*
X7970D01*
X8190D02*
X8240D01*
X6435Y1680D02*
X6520D01*
X6560D02*
X6705D01*
X6875D02*
X6905D01*
X7015D02*
X7220D01*
X7335D02*
X7565D01*
X7670D02*
X7735D01*
X7845D02*
X7975D01*
X8190D02*
X8240D01*
X6430Y1685D02*
X6510D01*
X6565D02*
X6710D01*
X6880D02*
X6910D01*
X7020D02*
X7215D01*
X7330D02*
X7565D01*
X7670D02*
X7735D01*
X7850D02*
X7980D01*
X8190D02*
X8240D01*
X6425Y1690D02*
X6505D01*
X6570D02*
X6720D01*
X6875D02*
X6910D01*
X7025D02*
X7215D01*
X7330D02*
X7560D01*
X7665D02*
X7740D01*
X7855D02*
X7985D01*
X8185D02*
X8235D01*
X6425Y1695D02*
X6500D01*
X6575D02*
X6725D01*
X6875D02*
X6915D01*
X7030D02*
X7210D01*
X7325D02*
X7555D01*
X7665D02*
X7740D01*
X7860D02*
X7990D01*
X8185D02*
X8235D01*
X6420Y1700D02*
X6490D01*
X6580D02*
X6735D01*
X6870D02*
X6915D01*
X7035D02*
X7205D01*
X7325D02*
X7550D01*
X7660D02*
X7745D01*
X7865D02*
X7995D01*
X8180D02*
X8235D01*
X6420Y1705D02*
X6485D01*
X6585D02*
X6735D01*
X6870D02*
X6920D01*
X7040D02*
X7200D01*
X7325D02*
X7545D01*
X7660D02*
X7745D01*
X7870D02*
X8000D01*
X8180D02*
X8230D01*
X6420Y1710D02*
X6475D01*
X6590D02*
X6735D01*
X6865D02*
X6920D01*
X7045D02*
X7190D01*
X7320D02*
X7540D01*
X7655D02*
X7750D01*
X7875D02*
X8005D01*
X8175D02*
X8230D01*
X6415Y1715D02*
X6470D01*
X6600D02*
X6725D01*
X6865D02*
X6920D01*
X7055D02*
X7185D01*
X7320D02*
X7375D01*
X7385D02*
X7530D01*
X7655D02*
X7750D01*
X7880D02*
X8010D01*
X8175D02*
X8230D01*
X6415Y1720D02*
X6465D01*
X6605D02*
X6720D01*
X6860D02*
X6925D01*
X7065D02*
X7175D01*
X7315D02*
X7375D01*
X7395D02*
X7525D01*
X7650D02*
X7755D01*
X7890D02*
X8015D01*
X8170D02*
X8225D01*
X6415Y1725D02*
X6470D01*
X6620D02*
X6705D01*
X6860D02*
X6930D01*
X7075D02*
X7165D01*
X7310D02*
X7370D01*
X7400D02*
X7515D01*
X7650D02*
X7755D01*
X7895D02*
X8020D01*
X8170D02*
X8225D01*
X6420Y1730D02*
X6475D01*
X6640D02*
X6690D01*
X6855D02*
X6930D01*
X7090D02*
X7150D01*
X7310D02*
X7370D01*
X7415D02*
X7505D01*
X7645D02*
X7700D01*
X7705D02*
X7760D01*
X7905D02*
X8025D01*
X8165D02*
X8220D01*
X6420Y1735D02*
X6475D01*
X6850D02*
X6935D01*
X7305D02*
X7365D01*
X7435D02*
X7485D01*
X7640D02*
X7695D01*
X7705D02*
X7765D01*
X7905D02*
X8030D01*
X8160D02*
X8220D01*
X6420Y1740D02*
X6480D01*
X6850D02*
X6940D01*
X7300D02*
X7365D01*
X7635D02*
X7695D01*
X7710D02*
X7765D01*
X7905D02*
X7955D01*
X7965D02*
X8035D01*
X8160D02*
X8215D01*
X6425Y1745D02*
X6485D01*
X6845D02*
X6940D01*
X7300D02*
X7360D01*
X7635D02*
X7690D01*
X7710D02*
X7770D01*
X7905D02*
X7955D01*
X7970D02*
X8040D01*
X8155D02*
X8210D01*
X6430Y1750D02*
X6485D01*
X6840D02*
X6945D01*
X7295D02*
X7355D01*
X7630D02*
X7690D01*
X7715D02*
X7775D01*
X7900D02*
X7955D01*
X7975D02*
X8045D01*
X8150D02*
X8210D01*
X6430Y1755D02*
X6490D01*
X6835D02*
X6950D01*
X7290D02*
X7355D01*
X7625D02*
X7685D01*
X7720D02*
X7780D01*
X7900D02*
X7950D01*
X7980D02*
X8050D01*
X8145D02*
X8205D01*
X6435Y1760D02*
X6495D01*
X6830D02*
X6955D01*
X7285D02*
X7350D01*
X7620D02*
X7680D01*
X7720D02*
X7780D01*
X7900D02*
X7950D01*
X7985D02*
X8055D01*
X8145D02*
X8205D01*
X6440Y1765D02*
X6500D01*
X6825D02*
X6890D01*
X6895D02*
X6960D01*
X7280D02*
X7345D01*
X7615D02*
X7680D01*
X7725D02*
X7785D01*
X7895D02*
X7950D01*
X7990D02*
X8060D01*
X8140D02*
X8200D01*
X6440Y1770D02*
X6505D01*
X6820D02*
X6885D01*
X6900D02*
X6965D01*
X7275D02*
X7345D01*
X7610D02*
X7675D01*
X7730D02*
X7790D01*
X7895D02*
X7945D01*
X7995D02*
X8065D01*
X8135D02*
X8195D01*
X6445Y1775D02*
X6510D01*
X6815D02*
X6880D01*
X6905D02*
X6970D01*
X7270D02*
X7340D01*
X7605D02*
X7670D01*
X7730D02*
X7795D01*
X7890D02*
X7945D01*
X8000D02*
X8070D01*
X8130D02*
X8190D01*
X6450Y1780D02*
X6515D01*
X6810D02*
X6880D01*
X6910D02*
X6975D01*
X7265D02*
X7335D01*
X7600D02*
X7665D01*
X7735D02*
X7800D01*
X7890D02*
X7940D01*
X8005D02*
X8075D01*
X8125D02*
X8190D01*
X6455Y1785D02*
X6525D01*
X6805D02*
X6875D01*
X6915D02*
X6980D01*
X7260D02*
X7330D01*
X7590D02*
X7660D01*
X7740D02*
X7805D01*
X7885D02*
X7940D01*
X8010D02*
X8080D01*
X8115D02*
X8185D01*
X6460Y1790D02*
X6530D01*
X6795D02*
X6870D01*
X6915D02*
X6990D01*
X7250D02*
X7335D01*
X7585D02*
X7655D01*
X7745D02*
X7815D01*
X7885D02*
X7940D01*
X8015D02*
X8085D01*
X8110D02*
X8180D01*
X6465Y1795D02*
X6535D01*
X6790D02*
X6865D01*
X6920D02*
X6995D01*
X7245D02*
X7340D01*
X7580D02*
X7655D01*
X7750D02*
X7820D01*
X7885D02*
X7935D01*
X8020D02*
X8090D01*
X8105D02*
X8175D01*
X6470Y1800D02*
X6545D01*
X6780D02*
X6860D01*
X6925D02*
X7000D01*
X7235D02*
X7350D01*
X7570D02*
X7650D01*
X7755D02*
X7825D01*
X7880D02*
X7935D01*
X8025D02*
X8095D01*
X8100D02*
X8170D01*
X6475Y1805D02*
X6550D01*
X6775D02*
X6855D01*
X6930D02*
X7010D01*
X7230D02*
X7355D01*
X7560D02*
X7645D01*
X7760D02*
X7835D01*
X7880D02*
X7930D01*
X8030D02*
X8165D01*
X6480Y1810D02*
X6560D01*
X6765D02*
X6845D01*
X6935D02*
X7020D01*
X7220D02*
X7370D01*
X7550D02*
X7635D01*
X7765D02*
X7840D01*
X7880D02*
X7930D01*
X8035D02*
X8160D01*
X6485Y1815D02*
X6575D01*
X6755D02*
X6845D01*
X6945D02*
X7035D01*
X7205D02*
X7380D01*
X7540D02*
X7630D01*
X7770D02*
X7850D01*
X7875D02*
X7925D01*
X8040D02*
X8155D01*
X6490Y1820D02*
X6585D01*
X6740D02*
X6835D01*
X6950D02*
X7045D01*
X7195D02*
X7395D01*
X7525D02*
X7625D01*
X7775D02*
X7860D01*
X7875D02*
X7925D01*
X8045D02*
X8150D01*
X6495Y1825D02*
X6600D01*
X6730D02*
X6830D01*
X6955D02*
X7060D01*
X7180D02*
X7285D01*
X7300D02*
X7415D01*
X7505D02*
X7620D01*
X7780D02*
X7925D01*
X8050D02*
X8145D01*
X6500Y1830D02*
X6625D01*
X6705D02*
X6825D01*
X6960D02*
X7085D01*
X7155D02*
X7280D01*
X7305D02*
X7455D01*
X7465D02*
X7610D01*
X7785D02*
X7920D01*
X8055D02*
X8140D01*
X6510Y1835D02*
X6815D01*
X6970D02*
X7270D01*
X7315D02*
X7605D01*
X7795D02*
X7920D01*
X8060D02*
X8130D01*
X6515Y1840D02*
X6810D01*
X6975D02*
X7265D01*
X7320D02*
X7595D01*
X7800D02*
X7920D01*
X8065D02*
X8125D01*
X6525Y1845D02*
X6800D01*
X6985D02*
X7255D01*
X7330D02*
X7590D01*
X7805D02*
X7915D01*
X8075D02*
X8120D01*
X6535Y1850D02*
X6795D01*
X6990D02*
X7250D01*
X7340D02*
X7580D01*
X7815D02*
X7910D01*
X6545Y1855D02*
X6780D01*
X7000D02*
X7235D01*
X7350D02*
X7570D01*
X7825D02*
X7910D01*
X6555Y1860D02*
X6770D01*
X7015D02*
X7225D01*
X7365D02*
X7555D01*
X7835D02*
X7905D01*
X6570Y1865D02*
X6760D01*
X7025D02*
X7210D01*
X7380D02*
X7540D01*
X7845D02*
X7900D01*
X6580Y1870D02*
X6745D01*
X7040D02*
X7200D01*
X7390D02*
X7530D01*
X7855D02*
X7890D01*
X6600Y1875D02*
X6730D01*
X7060D02*
X7180D01*
X7420D02*
X7500D01*
X6630Y1880D02*
X6695D01*
X7090D02*
X7150D01*
X7010Y2035D02*
X7055D01*
X7000Y2040D02*
X7060D01*
X6995Y2045D02*
X7065D01*
X6985Y2050D02*
X7070D01*
X6980Y2055D02*
X7075D01*
X6970Y2060D02*
X7080D01*
X6965Y2065D02*
X7085D01*
X6955Y2070D02*
X7085D01*
X6950Y2075D02*
X7090D01*
X6945Y2080D02*
X7030D01*
X7035D02*
X7095D01*
X6940Y2085D02*
X7020D01*
X7035D02*
X7100D01*
X6935Y2090D02*
X7015D01*
X7040D02*
X7105D01*
X6935Y2095D02*
X7010D01*
X7045D02*
X7110D01*
X6930Y2100D02*
X7000D01*
X7050D02*
X7110D01*
X6930Y2105D02*
X6995D01*
X7055D02*
X7115D01*
X6930Y2110D02*
X6985D01*
X7055D02*
X7120D01*
X6930Y2115D02*
X6980D01*
X7060D02*
X7125D01*
X6930Y2120D02*
X6985D01*
X7065D02*
X7130D01*
X6930Y2125D02*
X6985D01*
X7070D02*
X7130D01*
X6935Y2130D02*
X6990D01*
X7075D02*
X7135D01*
X6935Y2135D02*
X6990D01*
X7080D02*
X7140D01*
X6940Y2140D02*
X6995D01*
X7080D02*
X7145D01*
X6940Y2145D02*
X7000D01*
X7085D02*
X7150D01*
X6945Y2150D02*
X7000D01*
X7090D02*
X7155D01*
X6945Y2155D02*
X7005D01*
X7095D02*
X7155D01*
X6950Y2160D02*
X7005D01*
X7095D02*
X7160D01*
X6950Y2165D02*
X7010D01*
X7100D02*
X7165D01*
X6955Y2170D02*
X7010D01*
X7105D02*
X7170D01*
X7665D02*
X7710D01*
X6960Y2175D02*
X7015D01*
X7110D02*
X7175D01*
X7660D02*
X7715D01*
X6960Y2180D02*
X7015D01*
X7115D02*
X7175D01*
X7655D02*
X7725D01*
X6965Y2185D02*
X7020D01*
X7120D02*
X7180D01*
X7650D02*
X7730D01*
X6965Y2190D02*
X7020D01*
X7120D02*
X7185D01*
X7645D02*
X7740D01*
X6970Y2195D02*
X7025D01*
X7125D02*
X7190D01*
X7640D02*
X7745D01*
X6970Y2200D02*
X7030D01*
X7130D02*
X7195D01*
X7640D02*
X7750D01*
X6975Y2205D02*
X7030D01*
X7135D02*
X7195D01*
X7635D02*
X7755D01*
X6975Y2210D02*
X7035D01*
X7140D02*
X7200D01*
X7630D02*
X7765D01*
X6980Y2215D02*
X7035D01*
X7140D02*
X7205D01*
X7625D02*
X7685D01*
X7695D02*
X7770D01*
X6975Y2220D02*
X7040D01*
X7145D02*
X7210D01*
X7625D02*
X7680D01*
X7700D02*
X7775D01*
X6970Y2225D02*
X7040D01*
X7150D02*
X7215D01*
X7620D02*
X7675D01*
X7705D02*
X7780D01*
X6960Y2230D02*
X7045D01*
X7155D02*
X7220D01*
X7615D02*
X7675D01*
X7715D02*
X7785D01*
X6955Y2235D02*
X7045D01*
X7160D02*
X7220D01*
X7610D02*
X7670D01*
X7720D02*
X7795D01*
X6950Y2240D02*
X7050D01*
X7165D02*
X7225D01*
X7610D02*
X7665D01*
X7730D02*
X7800D01*
X6945Y2245D02*
X7050D01*
X7165D02*
X7230D01*
X7605D02*
X7660D01*
X7735D02*
X7805D01*
X6940Y2250D02*
X7055D01*
X7170D02*
X7235D01*
X7600D02*
X7660D01*
X7740D02*
X7810D01*
X6935Y2255D02*
X7055D01*
X7175D02*
X7240D01*
X7600D02*
X7655D01*
X7745D02*
X7815D01*
X6930Y2260D02*
X7060D01*
X7180D02*
X7245D01*
X7595D02*
X7650D01*
X7750D02*
X7820D01*
X6925Y2265D02*
X6990D01*
X7000D02*
X7060D01*
X7185D02*
X7245D01*
X7590D02*
X7645D01*
X7760D02*
X7825D01*
X6920Y2270D02*
X6985D01*
X7005D02*
X7065D01*
X7190D02*
X7250D01*
X7585D02*
X7645D01*
X7765D02*
X7830D01*
X6915Y2275D02*
X6980D01*
X7005D02*
X7065D01*
X7195D02*
X7255D01*
X7585D02*
X7640D01*
X7770D02*
X7835D01*
X6910Y2280D02*
X6975D01*
X7010D02*
X7070D01*
X7195D02*
X7260D01*
X7580D02*
X7635D01*
X7775D02*
X7840D01*
X6905Y2285D02*
X6970D01*
X7010D02*
X7075D01*
X7200D02*
X7265D01*
X7575D02*
X7630D01*
X7780D02*
X7845D01*
X6900Y2290D02*
X6965D01*
X7015D02*
X7075D01*
X7205D02*
X7265D01*
X7570D02*
X7630D01*
X7785D02*
X7850D01*
X6895Y2295D02*
X6960D01*
X7015D02*
X7080D01*
X7210D02*
X7270D01*
X7570D02*
X7625D01*
X7790D02*
X7855D01*
X6890Y2300D02*
X6955D01*
X7020D02*
X7080D01*
X7210D02*
X7275D01*
X7565D02*
X7620D01*
X7795D02*
X7860D01*
X6885Y2305D02*
X6950D01*
X7020D02*
X7085D01*
X7215D02*
X7280D01*
X7560D02*
X7620D01*
X7800D02*
X7865D01*
X6880Y2310D02*
X6945D01*
X7025D02*
X7085D01*
X7220D02*
X7285D01*
X7555D02*
X7615D01*
X7805D02*
X7865D01*
X6880Y2315D02*
X6940D01*
X7025D02*
X7090D01*
X7225D02*
X7285D01*
X7555D02*
X7610D01*
X7810D02*
X7870D01*
X6875Y2320D02*
X6935D01*
X7030D02*
X7090D01*
X7230D02*
X7290D01*
X7550D02*
X7605D01*
X7815D02*
X7875D01*
X6870Y2325D02*
X6930D01*
X7035D02*
X7095D01*
X7235D02*
X7295D01*
X7545D02*
X7605D01*
X7820D02*
X7880D01*
X6865Y2330D02*
X6925D01*
X7035D02*
X7095D01*
X7235D02*
X7300D01*
X7545D02*
X7600D01*
X7825D02*
X7880D01*
X6865Y2335D02*
X6920D01*
X7040D02*
X7100D01*
X7240D02*
X7305D01*
X7545D02*
X7595D01*
X7830D02*
X7885D01*
X6860Y2340D02*
X6915D01*
X7040D02*
X7105D01*
X7245D02*
X7305D01*
X7540D02*
X7590D01*
X7830D02*
X7890D01*
X6855Y2345D02*
X6915D01*
X7045D02*
X7105D01*
X7250D02*
X7310D01*
X7540D02*
X7590D01*
X7835D02*
X7895D01*
X6850Y2350D02*
X6910D01*
X7045D02*
X7110D01*
X7255D02*
X7315D01*
X7540D02*
X7590D01*
X7840D02*
X7895D01*
X6850Y2355D02*
X6905D01*
X7050D02*
X7110D01*
X7255D02*
X7320D01*
X7540D02*
X7595D01*
X7845D02*
X7900D01*
X6845Y2360D02*
X6900D01*
X7050D02*
X7115D01*
X7260D02*
X7325D01*
X7540D02*
X7605D01*
X7850D02*
X7905D01*
X6840Y2365D02*
X6895D01*
X7055D02*
X7115D01*
X7265D02*
X7330D01*
X7545D02*
X7610D01*
X7850D02*
X7905D01*
X6840Y2370D02*
X6895D01*
X7055D02*
X7120D01*
X7270D02*
X7330D01*
X7545D02*
X7620D01*
X7855D02*
X7910D01*
X6835Y2375D02*
X6890D01*
X7060D02*
X7120D01*
X7275D02*
X7335D01*
X7550D02*
X7625D01*
X7860D02*
X7915D01*
X6830Y2380D02*
X6885D01*
X7065D02*
X7125D01*
X7280D02*
X7340D01*
X7555D02*
X7630D01*
X7860D02*
X7915D01*
X6830Y2385D02*
X6885D01*
X7065D02*
X7130D01*
X7280D02*
X7345D01*
X7560D02*
X7640D01*
X7865D02*
X7920D01*
X6825Y2390D02*
X6880D01*
X7070D02*
X7130D01*
X7285D02*
X7350D01*
X7565D02*
X7645D01*
X7870D02*
X7925D01*
X6825Y2395D02*
X6875D01*
X7070D02*
X7135D01*
X7290D02*
X7355D01*
X7575D02*
X7650D01*
X7870D02*
X7925D01*
X6820Y2400D02*
X6875D01*
X7075D02*
X7135D01*
X7295D02*
X7355D01*
X7580D02*
X7655D01*
X7875D02*
X7930D01*
X6815Y2405D02*
X6870D01*
X7075D02*
X7140D01*
X7300D02*
X7360D01*
X7590D02*
X7660D01*
X7880D02*
X7930D01*
X6815Y2410D02*
X6865D01*
X7080D02*
X7140D01*
X7305D02*
X7365D01*
X7595D02*
X7665D01*
X7880D02*
X7935D01*
X6810Y2415D02*
X6865D01*
X7075D02*
X7145D01*
X7305D02*
X7370D01*
X7605D02*
X7670D01*
X7885D02*
X7935D01*
X6810Y2420D02*
X6860D01*
X7070D02*
X7145D01*
X7310D02*
X7375D01*
X7610D02*
X7680D01*
X7885D02*
X7940D01*
X6805Y2425D02*
X6860D01*
X7065D02*
X7150D01*
X7315D02*
X7375D01*
X7615D02*
X7685D01*
X7890D02*
X7945D01*
X6805Y2430D02*
X6855D01*
X7060D02*
X7155D01*
X7320D02*
X7380D01*
X7620D02*
X7685D01*
X7895D02*
X7945D01*
X6800Y2435D02*
X6855D01*
X7055D02*
X7155D01*
X7325D02*
X7385D01*
X7625D02*
X7690D01*
X7895D02*
X7950D01*
X6800Y2440D02*
X6850D01*
X7050D02*
X7160D01*
X7325D02*
X7390D01*
X7630D02*
X7695D01*
X7900D02*
X7950D01*
X6795Y2445D02*
X6845D01*
X7050D02*
X7160D01*
X7330D02*
X7395D01*
X7635D02*
X7700D01*
X7900D02*
X7950D01*
X6795Y2450D02*
X6845D01*
X7045D02*
X7165D01*
X7335D02*
X7395D01*
X7640D02*
X7705D01*
X7905D02*
X7955D01*
X6790Y2455D02*
X6845D01*
X7040D02*
X7100D01*
X7110D02*
X7165D01*
X7340D02*
X7400D01*
X7645D02*
X7710D01*
X7905D02*
X7955D01*
X6790Y2460D02*
X6840D01*
X7035D02*
X7095D01*
X7115D02*
X7170D01*
X7345D02*
X7405D01*
X7655D02*
X7715D01*
X7910D02*
X7960D01*
X6790Y2465D02*
X6840D01*
X7030D02*
X7090D01*
X7115D02*
X7170D01*
X7345D02*
X7410D01*
X7655D02*
X7720D01*
X7910D02*
X7960D01*
X6785Y2470D02*
X6835D01*
X7025D02*
X7085D01*
X7120D02*
X7175D01*
X7350D02*
X7415D01*
X7660D02*
X7720D01*
X7915D02*
X7965D01*
X6785Y2475D02*
X6835D01*
X7025D02*
X7080D01*
X7120D02*
X7175D01*
X7355D02*
X7420D01*
X7665D02*
X7725D01*
X7915D02*
X7965D01*
X6780Y2480D02*
X6830D01*
X7020D02*
X7080D01*
X7125D02*
X7180D01*
X7360D02*
X7420D01*
X7670D02*
X7730D01*
X7920D02*
X7970D01*
X6780Y2485D02*
X6830D01*
X7015D02*
X7075D01*
X7125D02*
X7185D01*
X7365D02*
X7425D01*
X7675D02*
X7730D01*
X7920D02*
X7970D01*
X6775Y2490D02*
X6825D01*
X7015D02*
X7070D01*
X7130D02*
X7185D01*
X7370D02*
X7430D01*
X7680D02*
X7735D01*
X7920D02*
X7970D01*
X6775Y2495D02*
X6825D01*
X7010D02*
X7065D01*
X7130D02*
X7190D01*
X7370D02*
X7435D01*
X7685D02*
X7740D01*
X7925D02*
X7975D01*
X6775Y2500D02*
X6820D01*
X7005D02*
X7060D01*
X7135D02*
X7190D01*
X7375D02*
X7440D01*
X7685D02*
X7740D01*
X7925D02*
X7975D01*
X6770Y2505D02*
X6820D01*
X7005D02*
X7060D01*
X7140D02*
X7195D01*
X7380D02*
X7445D01*
X7690D02*
X7745D01*
X7930D02*
X7975D01*
X6770Y2510D02*
X6820D01*
X7000D02*
X7055D01*
X7140D02*
X7195D01*
X7385D02*
X7445D01*
X7695D02*
X7750D01*
X7930D02*
X7980D01*
X6770Y2515D02*
X6815D01*
X7000D02*
X7050D01*
X7145D02*
X7200D01*
X7385D02*
X7450D01*
X7695D02*
X7750D01*
X7930D02*
X7980D01*
X6765Y2520D02*
X6815D01*
X6995D02*
X7050D01*
X7145D02*
X7200D01*
X7390D02*
X7455D01*
X7700D02*
X7755D01*
X7935D02*
X7980D01*
X6765Y2525D02*
X6815D01*
X6995D02*
X7045D01*
X7150D02*
X7205D01*
X7395D02*
X7460D01*
X7705D02*
X7755D01*
X7935D02*
X7985D01*
X6765Y2530D02*
X6810D01*
X6990D02*
X7040D01*
X7150D02*
X7210D01*
X7400D02*
X7465D01*
X7705D02*
X7760D01*
X7935D02*
X7985D01*
X6760Y2535D02*
X6810D01*
X6990D02*
X7040D01*
X7155D02*
X7210D01*
X7405D02*
X7465D01*
X7710D02*
X7760D01*
X7940D02*
X7985D01*
X6760Y2540D02*
X6810D01*
X6985D02*
X7035D01*
X7155D02*
X7215D01*
X7410D02*
X7470D01*
X7710D02*
X7765D01*
X7940D02*
X7990D01*
X6760Y2545D02*
X6805D01*
X6980D02*
X7035D01*
X7160D02*
X7215D01*
X7410D02*
X7475D01*
X7715D02*
X7765D01*
X7940D02*
X7990D01*
X6760Y2550D02*
X6805D01*
X6980D02*
X7030D01*
X7165D02*
X7220D01*
X7415D02*
X7480D01*
X7720D02*
X7770D01*
X7945D02*
X7990D01*
X6755Y2555D02*
X6805D01*
X6980D02*
X7030D01*
X7165D02*
X7220D01*
X7420D02*
X7485D01*
X7720D02*
X7770D01*
X7945D02*
X7995D01*
X6755Y2560D02*
X6800D01*
X6975D02*
X7025D01*
X7170D02*
X7225D01*
X7425D02*
X7490D01*
X7725D02*
X7775D01*
X7945D02*
X7995D01*
X6755Y2565D02*
X6800D01*
X6975D02*
X7025D01*
X7170D02*
X7225D01*
X7430D02*
X7490D01*
X7725D02*
X7775D01*
X7950D02*
X7995D01*
X6750Y2570D02*
X6800D01*
X6970D02*
X7020D01*
X7175D02*
X7230D01*
X7435D02*
X7495D01*
X7725D02*
X7775D01*
X7950D02*
X7995D01*
X6750Y2575D02*
X6800D01*
X6970D02*
X7020D01*
X7175D02*
X7230D01*
X7435D02*
X7500D01*
X7730D02*
X7780D01*
X7950D02*
X8000D01*
X6750Y2580D02*
X6795D01*
X6970D02*
X7015D01*
X7180D02*
X7235D01*
X7440D02*
X7505D01*
X7730D02*
X7780D01*
X7950D02*
X8000D01*
X6750Y2585D02*
X6795D01*
X6965D02*
X7015D01*
X7180D02*
X7235D01*
X7445D02*
X7510D01*
X7735D02*
X7780D01*
X7955D02*
X8000D01*
X6745Y2590D02*
X6795D01*
X6965D02*
X7015D01*
X7185D02*
X7240D01*
X7450D02*
X7510D01*
X7735D02*
X7785D01*
X7955D02*
X8000D01*
X6745Y2595D02*
X6795D01*
X6965D02*
X7010D01*
X7185D02*
X7240D01*
X7455D02*
X7515D01*
X7735D02*
X7785D01*
X7955D02*
X8000D01*
X6745Y2600D02*
X6790D01*
X6960D02*
X7010D01*
X7190D02*
X7245D01*
X7455D02*
X7520D01*
X7740D02*
X7785D01*
X7955D02*
X8005D01*
X6745Y2605D02*
X6790D01*
X6960D02*
X7010D01*
X7195D02*
X7250D01*
X7460D02*
X7525D01*
X7740D02*
X7790D01*
X7955D02*
X8005D01*
X6745Y2610D02*
X6790D01*
X6960D02*
X7005D01*
X7195D02*
X7250D01*
X7465D02*
X7530D01*
X7745D02*
X7790D01*
X7960D02*
X8005D01*
X6745Y2615D02*
X6790D01*
X6955D02*
X7005D01*
X7190D02*
X7255D01*
X7470D02*
X7530D01*
X7745D02*
X7790D01*
X7960D02*
X8005D01*
X6740Y2620D02*
X6790D01*
X6955D02*
X7005D01*
X7165D02*
X7255D01*
X7475D02*
X7535D01*
X7745D02*
X7795D01*
X7960D02*
X8005D01*
X6740Y2625D02*
X6790D01*
X6955D02*
X7000D01*
X7150D02*
X7260D01*
X7480D02*
X7540D01*
X7745D02*
X7795D01*
X7960D02*
X8010D01*
X6740Y2630D02*
X6785D01*
X6955D02*
X7000D01*
X7125D02*
X7260D01*
X7480D02*
X7545D01*
X7750D02*
X7795D01*
X7960D02*
X8010D01*
X6740Y2635D02*
X6785D01*
X6950D02*
X7000D01*
X7105D02*
X7270D01*
X7485D02*
X7550D01*
X7750D02*
X7795D01*
X7965D02*
X8010D01*
X6740Y2640D02*
X6785D01*
X6950D02*
X7000D01*
X7095D02*
X7270D01*
X7490D02*
X7555D01*
X7750D02*
X7800D01*
X7965D02*
X8010D01*
X6740Y2645D02*
X6785D01*
X6950D02*
X6995D01*
X7085D02*
X7265D01*
X7495D02*
X7555D01*
X7750D02*
X7800D01*
X7965D02*
X8010D01*
X6735Y2650D02*
X6785D01*
X6950D02*
X6995D01*
X7080D02*
X7260D01*
X7500D02*
X7560D01*
X7755D02*
X7800D01*
X7965D02*
X8010D01*
X6735Y2655D02*
X6785D01*
X6950D02*
X6995D01*
X7080D02*
X7230D01*
X7505D02*
X7565D01*
X7755D02*
X7800D01*
X7965D02*
X8010D01*
X6735Y2660D02*
X6780D01*
X6945D02*
X6995D01*
X7075D02*
X7215D01*
X7505D02*
X7570D01*
X7755D02*
X7800D01*
X7965D02*
X8015D01*
X6735Y2665D02*
X6780D01*
X6945D02*
X6995D01*
X7075D02*
X7195D01*
X7510D02*
X7575D01*
X7755D02*
X7800D01*
X7970D02*
X8015D01*
X6735Y2670D02*
X6780D01*
X6945D02*
X6990D01*
X7070D02*
X7170D01*
X7515D02*
X7575D01*
X7755D02*
X7805D01*
X7970D02*
X8015D01*
X6735Y2675D02*
X6780D01*
X6945D02*
X6990D01*
X7070D02*
X7145D01*
X7520D02*
X7580D01*
X7755D02*
X7805D01*
X7970D02*
X8015D01*
X6735Y2680D02*
X6780D01*
X6945D02*
X6990D01*
X7070D02*
X7125D01*
X7520D02*
X7585D01*
X7760D02*
X7805D01*
X7970D02*
X8015D01*
X6735Y2685D02*
X6780D01*
X6945D02*
X6990D01*
X7070D02*
X7125D01*
X7525D02*
X7590D01*
X7760D02*
X7805D01*
X7970D02*
X8015D01*
X6730Y2690D02*
X6780D01*
X6945D02*
X6990D01*
X7075D02*
X7130D01*
X7530D02*
X7595D01*
X7760D02*
X7805D01*
X7970D02*
X8015D01*
X6730Y2695D02*
X6780D01*
X6940D02*
X6990D01*
X7075D02*
X7135D01*
X7535D02*
X7600D01*
X7760D02*
X7805D01*
X7970D02*
X8015D01*
X6735Y2700D02*
X6780D01*
X6940D02*
X6990D01*
X7075D02*
X7140D01*
X7540D02*
X7600D01*
X7760D02*
X7805D01*
X7970D02*
X8020D01*
X6730Y2705D02*
X6775D01*
X6940D02*
X6990D01*
X7080D02*
X7145D01*
X7545D02*
X7605D01*
X7760D02*
X7805D01*
X7970D02*
X8020D01*
X6730Y2710D02*
X6775D01*
X6940D02*
X6985D01*
X7085D02*
X7150D01*
X7545D02*
X7610D01*
X7760D02*
X7810D01*
X7970D02*
X8020D01*
X6730Y2715D02*
X6775D01*
X6940D02*
X6985D01*
X7090D02*
X7155D01*
X7550D02*
X7615D01*
X7760D02*
X7810D01*
X7970D02*
X8020D01*
X6730Y2720D02*
X6775D01*
X6940D02*
X6985D01*
X7090D02*
X7155D01*
X7555D02*
X7620D01*
X7760D02*
X7810D01*
X7970D02*
X8015D01*
X6730Y2725D02*
X6775D01*
X6940D02*
X6985D01*
X7095D02*
X7160D01*
X7560D02*
X7620D01*
X7760D02*
X7810D01*
X7970D02*
X8020D01*
X6730Y2730D02*
X6775D01*
X6940D02*
X6985D01*
X7100D02*
X7165D01*
X7565D02*
X7625D01*
X7765D02*
X7810D01*
X7970D02*
X8020D01*
X6730Y2735D02*
X6775D01*
X6940D02*
X6985D01*
X7105D02*
X7170D01*
X7565D02*
X7630D01*
X7765D02*
X7810D01*
X7970D02*
X8020D01*
X6730Y2740D02*
X6775D01*
X6940D02*
X6985D01*
X7110D02*
X7170D01*
X7570D02*
X7635D01*
X7765D02*
X7810D01*
X7970D02*
X8020D01*
X6730Y2745D02*
X6775D01*
X6940D02*
X6985D01*
X7115D02*
X7175D01*
X7575D02*
X7640D01*
X7760D02*
X7810D01*
X7970D02*
X8020D01*
X6730Y2750D02*
X6775D01*
X6940D02*
X6985D01*
X7120D02*
X7180D01*
X7580D02*
X7640D01*
X7760D02*
X7810D01*
X7970D02*
X8020D01*
X6730Y2755D02*
X6775D01*
X6940D02*
X6985D01*
X7120D02*
X7185D01*
X7585D02*
X7640D01*
X7765D02*
X7810D01*
X7970D02*
X8020D01*
X6730Y2760D02*
X6775D01*
X6940D02*
X6985D01*
X7125D02*
X7190D01*
X7590D02*
X7645D01*
X7765D02*
X7810D01*
X7970D02*
X8020D01*
X6730Y2765D02*
X6775D01*
X6940D02*
X6985D01*
X7130D02*
X7195D01*
X7590D02*
X7645D01*
X7765D02*
X7810D01*
X7970D02*
X8020D01*
X6730Y2770D02*
X6775D01*
X6940D02*
X6985D01*
X7135D02*
X7200D01*
X7575D02*
X7645D01*
X7760D02*
X7810D01*
X7970D02*
X8020D01*
X6730Y2775D02*
X6775D01*
X6940D02*
X6985D01*
X7140D02*
X7205D01*
X7555D02*
X7645D01*
X7760D02*
X7810D01*
X7970D02*
X8020D01*
X6730Y2780D02*
X6775D01*
X6940D02*
X6985D01*
X7145D02*
X7205D01*
X7535D02*
X7645D01*
X7760D02*
X7805D01*
X7970D02*
X8020D01*
X6730Y2785D02*
X6775D01*
X6940D02*
X6990D01*
X7145D02*
X7210D01*
X7515D02*
X7640D01*
X7760D02*
X7805D01*
X7970D02*
X8020D01*
X6730Y2790D02*
X6780D01*
X6940D02*
X6990D01*
X7150D02*
X7215D01*
X7490D02*
X7640D01*
X7760D02*
X7805D01*
X7970D02*
X8015D01*
X6730Y2795D02*
X6780D01*
X6945D02*
X6990D01*
X7155D02*
X7220D01*
X7465D02*
X7635D01*
X7760D02*
X7805D01*
X7970D02*
X8015D01*
X6730Y2800D02*
X6780D01*
X6945D02*
X6990D01*
X7160D02*
X7225D01*
X7450D02*
X7630D01*
X7760D02*
X7805D01*
X7970D02*
X8015D01*
X6735Y2805D02*
X6780D01*
X6945D02*
X6990D01*
X7165D02*
X7230D01*
X7445D02*
X7625D01*
X7760D02*
X7805D01*
X7970D02*
X8015D01*
X6735Y2810D02*
X6780D01*
X6945D02*
X6990D01*
X7170D02*
X7230D01*
X7445D02*
X7615D01*
X7760D02*
X7805D01*
X7970D02*
X8015D01*
X6735Y2815D02*
X6780D01*
X6945D02*
X6990D01*
X7175D02*
X7235D01*
X7450D02*
X7600D01*
X7755D02*
X7805D01*
X7970D02*
X8015D01*
X6735Y2820D02*
X6780D01*
X6945D02*
X6990D01*
X7175D02*
X7240D01*
X7455D02*
X7580D01*
X7755D02*
X7805D01*
X7970D02*
X8015D01*
X6735Y2825D02*
X6780D01*
X6945D02*
X6995D01*
X7180D02*
X7245D01*
X7460D02*
X7560D01*
X7755D02*
X7800D01*
X7970D02*
X8015D01*
X6735Y2830D02*
X6780D01*
X6945D02*
X6995D01*
X7185D02*
X7250D01*
X7460D02*
X7535D01*
X7755D02*
X7800D01*
X7965D02*
X8015D01*
X6735Y2835D02*
X6785D01*
X6950D02*
X6995D01*
X7190D02*
X7255D01*
X7465D02*
X7520D01*
X7755D02*
X7800D01*
X7965D02*
X8010D01*
X6735Y2840D02*
X6785D01*
X6950D02*
X6995D01*
X7195D02*
X7260D01*
X7465D02*
X7525D01*
X7755D02*
X7800D01*
X7965D02*
X8010D01*
X6740Y2845D02*
X6785D01*
X6950D02*
X6995D01*
X7200D02*
X7260D01*
X7470D02*
X7525D01*
X7750D02*
X7800D01*
X7965D02*
X8010D01*
X6740Y2850D02*
X6785D01*
X6950D02*
X7000D01*
X7200D02*
X7270D01*
X7470D02*
X7530D01*
X7750D02*
X7795D01*
X7965D02*
X8010D01*
X6740Y2855D02*
X6785D01*
X6950D02*
X7000D01*
X7205D02*
X7270D01*
X7475D02*
X7530D01*
X7750D02*
X7795D01*
X7965D02*
X8010D01*
X6740Y2860D02*
X6785D01*
X6955D02*
X7000D01*
X7210D02*
X7275D01*
X7480D02*
X7535D01*
X7750D02*
X7795D01*
X7960D02*
X8010D01*
X6740Y2865D02*
X6785D01*
X6955D02*
X7000D01*
X7215D02*
X7280D01*
X7480D02*
X7540D01*
X7745D02*
X7795D01*
X7960D02*
X8010D01*
X6740Y2870D02*
X6790D01*
X6955D02*
X7005D01*
X7220D02*
X7280D01*
X7485D02*
X7540D01*
X7745D02*
X7795D01*
X7960D02*
X8005D01*
X6740Y2875D02*
X6790D01*
X6960D02*
X7005D01*
X7225D02*
X7285D01*
X7485D02*
X7545D01*
X7745D02*
X7790D01*
X7960D02*
X8005D01*
X6745Y2880D02*
X6790D01*
X6960D02*
X7010D01*
X7225D02*
X7290D01*
X7490D02*
X7545D01*
X7740D02*
X7790D01*
X7960D02*
X8005D01*
X6745Y2885D02*
X6790D01*
X6960D02*
X7010D01*
X7230D02*
X7295D01*
X7495D02*
X7550D01*
X7740D02*
X7790D01*
X7960D02*
X8005D01*
X6745Y2890D02*
X6790D01*
X6965D02*
X7010D01*
X7235D02*
X7300D01*
X7495D02*
X7555D01*
X7735D02*
X7785D01*
X7955D02*
X8005D01*
X6745Y2895D02*
X6795D01*
X6965D02*
X7015D01*
X7240D02*
X7305D01*
X7500D02*
X7555D01*
X7735D02*
X7785D01*
X7955D02*
X8005D01*
X6745Y2900D02*
X6795D01*
X6965D02*
X7015D01*
X7245D02*
X7310D01*
X7505D02*
X7560D01*
X7735D02*
X7780D01*
X7955D02*
X8000D01*
X6750Y2905D02*
X6795D01*
X6970D02*
X7015D01*
X7250D02*
X7310D01*
X7505D02*
X7565D01*
X7730D02*
X7780D01*
X7955D02*
X8000D01*
X6750Y2910D02*
X6795D01*
X6970D02*
X7020D01*
X7255D02*
X7315D01*
X7510D02*
X7565D01*
X7730D02*
X7780D01*
X7950D02*
X8000D01*
X6750Y2915D02*
X6800D01*
X6970D02*
X7020D01*
X7255D02*
X7320D01*
X7510D02*
X7570D01*
X7725D02*
X7775D01*
X7950D02*
X8000D01*
X6750Y2920D02*
X6800D01*
X6975D02*
X7025D01*
X7260D02*
X7325D01*
X7515D02*
X7570D01*
X7725D02*
X7775D01*
X7950D02*
X7995D01*
X6755Y2925D02*
X6800D01*
X6975D02*
X7025D01*
X7265D02*
X7330D01*
X7515D02*
X7575D01*
X7720D02*
X7775D01*
X7950D02*
X7995D01*
X6755Y2930D02*
X6800D01*
X6980D02*
X7030D01*
X7270D02*
X7335D01*
X7520D02*
X7575D01*
X7720D02*
X7770D01*
X7945D02*
X7995D01*
X6755Y2935D02*
X6805D01*
X6980D02*
X7030D01*
X7275D02*
X7335D01*
X7525D02*
X7580D01*
X7715D02*
X7770D01*
X7945D02*
X7995D01*
X6760Y2940D02*
X6805D01*
X6985D02*
X7035D01*
X7280D02*
X7340D01*
X7525D02*
X7585D01*
X7715D02*
X7765D01*
X7945D02*
X7990D01*
X6760Y2945D02*
X6810D01*
X6985D02*
X7040D01*
X7280D02*
X7345D01*
X7530D02*
X7585D01*
X7710D02*
X7765D01*
X7940D02*
X7990D01*
X6760Y2950D02*
X6810D01*
X6990D02*
X7040D01*
X7285D02*
X7350D01*
X7535D02*
X7590D01*
X7710D02*
X7760D01*
X7940D02*
X7990D01*
X6760Y2955D02*
X6810D01*
X6990D02*
X7045D01*
X7290D02*
X7355D01*
X7535D02*
X7595D01*
X7705D02*
X7760D01*
X7940D02*
X7985D01*
X6765Y2960D02*
X6810D01*
X6995D02*
X7045D01*
X7295D02*
X7360D01*
X7365D02*
X7370D01*
X7540D02*
X7595D01*
X7700D02*
X7755D01*
X7935D02*
X7985D01*
X6765Y2965D02*
X6815D01*
X6995D02*
X7050D01*
X7300D02*
X7365D01*
X7540D02*
X7600D01*
X7700D02*
X7750D01*
X7935D02*
X7985D01*
X6765Y2970D02*
X6815D01*
X7000D02*
X7055D01*
X7305D02*
X7365D01*
X7545D02*
X7600D01*
X7695D02*
X7750D01*
X7935D02*
X7980D01*
X6770Y2975D02*
X6815D01*
X7000D02*
X7055D01*
X7310D02*
X7370D01*
X7545D02*
X7605D01*
X7690D02*
X7745D01*
X7930D02*
X7980D01*
X6770Y2980D02*
X6820D01*
X7005D02*
X7060D01*
X7310D02*
X7375D01*
X7550D02*
X7605D01*
X7690D02*
X7745D01*
X7930D02*
X7980D01*
X6770Y2985D02*
X6820D01*
X7010D02*
X7065D01*
X7315D02*
X7380D01*
X7555D02*
X7610D01*
X7685D02*
X7740D01*
X7925D02*
X7975D01*
X6775Y2990D02*
X6825D01*
X7010D02*
X7070D01*
X7320D02*
X7385D01*
X7555D02*
X7615D01*
X7680D02*
X7740D01*
X7925D02*
X7975D01*
X6775Y2995D02*
X6825D01*
X7015D02*
X7070D01*
X7325D02*
X7390D01*
X7560D02*
X7615D01*
X7675D02*
X7735D01*
X7925D02*
X7975D01*
X6780Y3000D02*
X6825D01*
X7020D02*
X7075D01*
X7330D02*
X7395D01*
X7560D02*
X7620D01*
X7675D02*
X7730D01*
X7920D02*
X7970D01*
X6780Y3005D02*
X6830D01*
X7020D02*
X7080D01*
X7335D02*
X7395D01*
X7565D02*
X7625D01*
X7670D02*
X7725D01*
X7920D02*
X7970D01*
X6780Y3010D02*
X6835D01*
X7025D02*
X7085D01*
X7335D02*
X7400D01*
X7570D02*
X7625D01*
X7665D02*
X7725D01*
X7915D02*
X7965D01*
X6785Y3015D02*
X6835D01*
X7030D02*
X7090D01*
X7340D02*
X7405D01*
X7570D02*
X7630D01*
X7660D02*
X7720D01*
X7915D02*
X7965D01*
X6785Y3020D02*
X6835D01*
X7035D02*
X7090D01*
X7345D02*
X7410D01*
X7575D02*
X7630D01*
X7655D02*
X7715D01*
X7910D02*
X7960D01*
X6790Y3025D02*
X6840D01*
X7035D02*
X7095D01*
X7350D02*
X7415D01*
X7580D02*
X7635D01*
X7650D02*
X7710D01*
X7910D02*
X7960D01*
X6790Y3030D02*
X6840D01*
X7040D02*
X7100D01*
X7355D02*
X7415D01*
X7580D02*
X7640D01*
X7645D02*
X7710D01*
X7905D02*
X7955D01*
X6795Y3035D02*
X6845D01*
X7045D02*
X7105D01*
X7360D02*
X7420D01*
X7585D02*
X7705D01*
X7905D02*
X7955D01*
X6795Y3040D02*
X6845D01*
X7050D02*
X7110D01*
X7365D02*
X7425D01*
X7585D02*
X7700D01*
X7900D02*
X7955D01*
X6800Y3045D02*
X6850D01*
X7055D02*
X7115D01*
X7365D02*
X7430D01*
X7590D02*
X7695D01*
X7900D02*
X7950D01*
X6800Y3050D02*
X6855D01*
X7060D02*
X7125D01*
X7370D02*
X7435D01*
X7595D02*
X7690D01*
X7895D02*
X7950D01*
X6805Y3055D02*
X6855D01*
X7060D02*
X7130D01*
X7375D02*
X7440D01*
X7595D02*
X7685D01*
X7895D02*
X7945D01*
X6805Y3060D02*
X6860D01*
X7065D02*
X7135D01*
X7380D02*
X7445D01*
X7600D02*
X7680D01*
X7890D02*
X7945D01*
X6810Y3065D02*
X6860D01*
X7075D02*
X7140D01*
X7385D02*
X7450D01*
X7600D02*
X7675D01*
X7885D02*
X7940D01*
X6810Y3070D02*
X6865D01*
X7080D02*
X7150D01*
X7390D02*
X7450D01*
X7605D02*
X7675D01*
X7885D02*
X7935D01*
X6815Y3075D02*
X6870D01*
X7085D02*
X7155D01*
X7395D02*
X7455D01*
X7610D02*
X7670D01*
X7880D02*
X7935D01*
X6815Y3080D02*
X6870D01*
X7090D02*
X7160D01*
X7395D02*
X7460D01*
X7610D02*
X7675D01*
X7880D02*
X7930D01*
X6820Y3085D02*
X6875D01*
X7095D02*
X7170D01*
X7400D02*
X7465D01*
X7615D02*
X7680D01*
X7875D02*
X7930D01*
X6825Y3090D02*
X6875D01*
X7100D02*
X7175D01*
X7405D02*
X7470D01*
X7620D02*
X7680D01*
X7870D02*
X7925D01*
X6825Y3095D02*
X6880D01*
X7105D02*
X7180D01*
X7410D02*
X7475D01*
X7620D02*
X7685D01*
X7870D02*
X7925D01*
X6830Y3100D02*
X6885D01*
X7110D02*
X7185D01*
X7415D02*
X7480D01*
X7625D02*
X7685D01*
X7865D02*
X7920D01*
X6830Y3105D02*
X6890D01*
X7115D02*
X7190D01*
X7420D02*
X7480D01*
X7625D02*
X7690D01*
X7860D02*
X7915D01*
X6835Y3110D02*
X6890D01*
X7125D02*
X7190D01*
X7420D02*
X7485D01*
X7630D02*
X7695D01*
X7855D02*
X7915D01*
X6840Y3115D02*
X6895D01*
X7130D02*
X7195D01*
X7425D02*
X7490D01*
X7630D02*
X7695D01*
X7855D02*
X7910D01*
X6840Y3120D02*
X6900D01*
X7140D02*
X7195D01*
X7430D02*
X7495D01*
X7635D02*
X7700D01*
X7850D02*
X7905D01*
X6845Y3125D02*
X6900D01*
X7145D02*
X7195D01*
X7435D02*
X7495D01*
X7640D02*
X7700D01*
X7845D02*
X7905D01*
X6850Y3130D02*
X6905D01*
X7150D02*
X7195D01*
X7440D02*
X7505D01*
X7640D02*
X7705D01*
X7845D02*
X7900D01*
X6855Y3135D02*
X6910D01*
X7145D02*
X7195D01*
X7445D02*
X7505D01*
X7645D02*
X7710D01*
X7840D02*
X7895D01*
X6855Y3140D02*
X6915D01*
X7145D02*
X7195D01*
X7445D02*
X7510D01*
X7645D02*
X7710D01*
X7835D02*
X7895D01*
X6860Y3145D02*
X6920D01*
X7140D02*
X7190D01*
X7450D02*
X7520D01*
X7650D02*
X7715D01*
X7830D02*
X7890D01*
X6865Y3150D02*
X6925D01*
X7140D02*
X7190D01*
X7455D02*
X7520D01*
X7655D02*
X7715D01*
X7825D02*
X7885D01*
X6870Y3155D02*
X6925D01*
X7140D02*
X7190D01*
X7460D02*
X7525D01*
X7655D02*
X7720D01*
X7820D02*
X7880D01*
X6870Y3160D02*
X6930D01*
X7135D02*
X7185D01*
X7465D02*
X7530D01*
X7660D02*
X7725D01*
X7820D02*
X7875D01*
X6875Y3165D02*
X6935D01*
X7135D02*
X7185D01*
X7470D02*
X7530D01*
X7660D02*
X7725D01*
X7815D02*
X7875D01*
X6880Y3170D02*
X6940D01*
X7130D02*
X7180D01*
X7475D02*
X7535D01*
X7665D02*
X7730D01*
X7810D02*
X7870D01*
X6885Y3175D02*
X6945D01*
X7130D02*
X7180D01*
X7475D02*
X7540D01*
X7670D02*
X7730D01*
X7805D02*
X7865D01*
X6890Y3180D02*
X6950D01*
X7125D02*
X7175D01*
X7480D02*
X7545D01*
X7670D02*
X7735D01*
X7800D02*
X7860D01*
X6890Y3185D02*
X6955D01*
X7125D02*
X7175D01*
X7485D02*
X7550D01*
X7675D02*
X7740D01*
X7795D02*
X7855D01*
X6895Y3190D02*
X6960D01*
X7120D02*
X7170D01*
X7490D02*
X7555D01*
X7680D02*
X7740D01*
X7790D02*
X7850D01*
X6900Y3195D02*
X6965D01*
X7120D02*
X7170D01*
X7495D02*
X7560D01*
X7680D02*
X7745D01*
X7785D02*
X7850D01*
X6905Y3200D02*
X6970D01*
X7120D02*
X7170D01*
X7500D02*
X7560D01*
X7685D02*
X7745D01*
X7780D02*
X7845D01*
X6910Y3205D02*
X6975D01*
X7115D02*
X7165D01*
X7500D02*
X7565D01*
X7685D02*
X7750D01*
X7775D02*
X7840D01*
X6915Y3210D02*
X6980D01*
X7115D02*
X7165D01*
X7505D02*
X7570D01*
X7690D02*
X7755D01*
X7770D02*
X7835D01*
X6920Y3215D02*
X6985D01*
X7110D02*
X7160D01*
X7510D02*
X7575D01*
X7690D02*
X7755D01*
X7765D02*
X7830D01*
X6925Y3220D02*
X6990D01*
X7110D02*
X7160D01*
X7515D02*
X7580D01*
X7695D02*
X7825D01*
X6930Y3225D02*
X6995D01*
X7105D02*
X7155D01*
X7520D02*
X7580D01*
X7695D02*
X7820D01*
X6935Y3230D02*
X7000D01*
X7105D02*
X7155D01*
X7525D02*
X7585D01*
X7700D02*
X7815D01*
X6940Y3235D02*
X7010D01*
X7100D02*
X7150D01*
X7530D02*
X7590D01*
X7705D02*
X7810D01*
X6945Y3240D02*
X7015D01*
X7100D02*
X7150D01*
X7530D02*
X7595D01*
X7705D02*
X7805D01*
X6950Y3245D02*
X7020D01*
X7100D02*
X7145D01*
X7535D02*
X7600D01*
X7710D02*
X7800D01*
X6955Y3250D02*
X7030D01*
X7095D02*
X7145D01*
X7540D02*
X7605D01*
X7715D02*
X7790D01*
X6960Y3255D02*
X7035D01*
X7095D02*
X7145D01*
X7545D02*
X7610D01*
X7715D02*
X7785D01*
X6965Y3260D02*
X7040D01*
X7090D02*
X7140D01*
X7550D02*
X7610D01*
X7720D02*
X7780D01*
X6975Y3265D02*
X7050D01*
X7090D02*
X7140D01*
X7555D02*
X7615D01*
X7720D02*
X7780D01*
X6980Y3270D02*
X7055D01*
X7085D02*
X7135D01*
X7555D02*
X7620D01*
X7725D02*
X7780D01*
X6985Y3275D02*
X7065D01*
X7085D02*
X7135D01*
X7560D02*
X7625D01*
X7730D02*
X7785D01*
X6990Y3280D02*
X7075D01*
X7080D02*
X7130D01*
X7565D02*
X7630D01*
X7730D02*
X7790D01*
X7000Y3285D02*
X7130D01*
X7570D02*
X7630D01*
X7735D02*
X7790D01*
X7005Y3290D02*
X7125D01*
X7575D02*
X7635D01*
X7740D02*
X7795D01*
X7010Y3295D02*
X7125D01*
X7580D02*
X7640D01*
X7740D02*
X7795D01*
X7020Y3300D02*
X7125D01*
X7580D02*
X7645D01*
X7745D02*
X7800D01*
X7025Y3305D02*
X7120D01*
X7585D02*
X7650D01*
X7745D02*
X7805D01*
X7035Y3310D02*
X7120D01*
X7590D02*
X7655D01*
X7750D02*
X7805D01*
X7045Y3315D02*
X7115D01*
X7595D02*
X7660D01*
X7755D02*
X7810D01*
X7050Y3320D02*
X7110D01*
X7600D02*
X7665D01*
X7755D02*
X7810D01*
X7060Y3325D02*
X7100D01*
X7605D02*
X7670D01*
X7760D02*
X7815D01*
X7605Y3330D02*
X7670D01*
X7760D02*
X7820D01*
X7610Y3335D02*
X7675D01*
X7765D02*
X7820D01*
X7615Y3340D02*
X7680D01*
X7770D02*
X7825D01*
X7620Y3345D02*
X7685D01*
X7770D02*
X7825D01*
X7625Y3350D02*
X7690D01*
X7775D02*
X7830D01*
X7630Y3355D02*
X7690D01*
X7775D02*
X7830D01*
X7635Y3360D02*
X7695D01*
X7780D02*
X7830D01*
X7635Y3365D02*
X7700D01*
X7785D02*
X7835D01*
X7640Y3370D02*
X7705D01*
X7780D02*
X7835D01*
X7645Y3375D02*
X7710D01*
X7775D02*
X7830D01*
X7650Y3380D02*
X7715D01*
X7765D02*
X7830D01*
X7655Y3385D02*
X7715D01*
X7760D02*
X7830D01*
X7660Y3390D02*
X7720D01*
X7750D02*
X7825D01*
X7665Y3395D02*
X7725D01*
X7745D02*
X7825D01*
X7665Y3400D02*
X7730D01*
X7740D02*
X7820D01*
X7670Y3405D02*
X7815D01*
X7675Y3410D02*
X7805D01*
X7680Y3415D02*
X7800D01*
X7685Y3420D02*
X7795D01*
X7690Y3425D02*
X7785D01*
X7690Y3430D02*
X7780D01*
X7695Y3435D02*
X7775D01*
X7700Y3440D02*
X7765D01*
X7705Y3445D02*
X7760D01*
X7715Y3450D02*
X7750D01*
D152*
X7287Y852D02*
X7308D01*
X7279Y854D02*
X7315D01*
X7457D02*
X7490D01*
X7030Y855D02*
X7057D01*
X7274D02*
X7320D01*
X7449D02*
X7495D01*
X7931D02*
X8027D01*
X7017Y857D02*
X7070D01*
X7270D02*
X7323D01*
X7445D02*
X7499D01*
X7627D02*
X7720D01*
X7743D02*
X7837D01*
X7931D02*
X8026D01*
X8039D02*
X8197D01*
X8385D02*
X8479D01*
X6585Y859D02*
X6586D01*
X7008D02*
X7009D01*
X7012D02*
X7079D01*
X7268D02*
X7327D01*
X7440D02*
X7502D01*
X7627D02*
X7720D01*
X7743D02*
X7839D01*
X7930D02*
X8026D01*
X8039D02*
X8201D01*
X8385D02*
X8479D01*
X6332Y860D02*
X6332D01*
X6434D02*
X6434D01*
X6437D02*
X6438D01*
X6441D02*
X6456D01*
X6459D02*
X6465D01*
X6468D02*
X6577D01*
X6582D02*
X6586D01*
X6588D02*
X6589D01*
X7003D02*
X7004D01*
X7007D02*
X7087D01*
X7265D02*
X7329D01*
X7438D02*
X7504D01*
X7627D02*
X7720D01*
X7743D02*
X7839D01*
X7930D02*
X8026D01*
X8039D02*
X8204D01*
X8385D02*
X8479D01*
X6180Y797D02*
X6183D01*
X6206D02*
X6206D01*
X6223D02*
X6225D01*
X6281Y862D02*
X6392D01*
X6434D02*
X6584D01*
X6587D02*
X6594D01*
X6624D02*
X6628D01*
X6636D02*
X6638D01*
X6646D02*
X6647D01*
X6650D02*
X6652D01*
X6655D02*
X6655D01*
X6682D02*
X6684D01*
X6781D02*
X6785D01*
X6787D02*
X6788D01*
X6791D02*
X6791D01*
X6821D02*
X6822D01*
X6828D02*
X6832D01*
X6840D02*
X6842D01*
X6998D02*
X7092D01*
X7263D02*
X7332D01*
X7435D02*
X7507D01*
X7627D02*
X7720D01*
X7744D02*
X7839D01*
X7930D02*
X8024D01*
X8039D02*
X8206D01*
X8385D02*
X8479D01*
X6180Y799D02*
X6184D01*
X6204D02*
X6208D01*
X6223D02*
X6227D01*
X6250D02*
X6251D01*
X6272Y864D02*
X6394D01*
X6434D02*
X6596D01*
X6621D02*
X6645D01*
X6648D02*
X6654D01*
X6658D02*
X6671D01*
X6675D02*
X6720D01*
X6782D02*
X6783D01*
X6786D02*
X6875D01*
X7000D02*
X7002D01*
X7005D02*
X7097D01*
X7262D02*
X7334D01*
X7433D02*
X7509D01*
X7627D02*
X7720D01*
X7744D02*
X7839D01*
X7928D02*
X8024D01*
X8039D02*
X8207D01*
X8385D02*
X8479D01*
X6180Y800D02*
X6186D01*
X6201D02*
X6208D01*
X6223D02*
X6227D01*
X6248D02*
X6252D01*
X6257Y865D02*
X6402D01*
X6434D02*
X6601D01*
X6621D02*
X6723D01*
X6777D02*
X6873D01*
X6986D02*
X7102D01*
X7260D02*
X7335D01*
X7432D02*
X7510D01*
X7627D02*
X7720D01*
X7744D02*
X7840D01*
X7928D02*
X8024D01*
X8039D02*
X8209D01*
X8385D02*
X8479D01*
X6182Y802D02*
X6186D01*
X6201D02*
X6208D01*
X6223D02*
X6227D01*
X6248D02*
X6252D01*
X6250Y867D02*
X6404D01*
X6434D02*
X6603D01*
X6621D02*
X6725D01*
X6777D02*
X6873D01*
X6981D02*
X7106D01*
X7258D02*
X7335D01*
X7430D02*
X7512D01*
X7627D02*
X7720D01*
X7744D02*
X7840D01*
X7928D02*
X8024D01*
X8039D02*
X8211D01*
X8385D02*
X8479D01*
X6182Y804D02*
X6186D01*
X6199D02*
X6210D01*
X6223D02*
X6227D01*
X6248D02*
X6252D01*
X6245Y869D02*
X6405D01*
X6434D02*
X6604D01*
X6622D02*
X6725D01*
X6777D02*
X6873D01*
X6978D02*
X7109D01*
X7257D02*
X7337D01*
X7428D02*
X7514D01*
X7627D02*
X7720D01*
X7746D02*
X7840D01*
X7928D02*
X8022D01*
X8039D02*
X8213D01*
X8385D02*
X8479D01*
X6182Y806D02*
X6186D01*
X6199D02*
X6203D01*
X6206D02*
X6210D01*
X6223D02*
X6227D01*
X6248D02*
X6252D01*
X6240Y871D02*
X6407D01*
X6434D02*
X6606D01*
X6622D02*
X6727D01*
X6777D02*
X6873D01*
X6974D02*
X7114D01*
X7255D02*
X7339D01*
X7427D02*
X7516D01*
X7627D02*
X7720D01*
X7746D02*
X7842D01*
X7926D02*
X8022D01*
X8039D02*
X8213D01*
X8385D02*
X8479D01*
X6182Y807D02*
X6186D01*
X6199D02*
X6201D01*
X6206D02*
X6210D01*
X6223D02*
X6227D01*
X6248D02*
X6252D01*
X6237Y872D02*
X6409D01*
X6434D02*
X6606D01*
X6624D02*
X6727D01*
X6777D02*
X6873D01*
X6971D02*
X7118D01*
X7253D02*
X7339D01*
X7425D02*
X7516D01*
X7627D02*
X7720D01*
X7746D02*
X7842D01*
X7926D02*
X8022D01*
X8039D02*
X8214D01*
X8385D02*
X8479D01*
X6182Y809D02*
X6186D01*
X6197D02*
X6201D01*
X6207D02*
X6211D01*
X6223D02*
X6227D01*
X6248D02*
X6252D01*
X6231Y874D02*
X6411D01*
X6434D02*
X6608D01*
X6626D02*
X6728D01*
X6777D02*
X6873D01*
X6968D02*
X7121D01*
X7253D02*
X7340D01*
X7425D02*
X7517D01*
X7627D02*
X7720D01*
X7748D02*
X7842D01*
X7926D02*
X8020D01*
X8039D02*
X8214D01*
X8385D02*
X8479D01*
X6182Y811D02*
X6186D01*
X6197D02*
X6201D01*
X6207D02*
X6211D01*
X6223D02*
X6227D01*
X6248D02*
X6252D01*
X6228Y876D02*
X6411D01*
X6434D02*
X6609D01*
X6626D02*
X6728D01*
X6777D02*
X6873D01*
X6964D02*
X7038D01*
X7042D02*
X7123D01*
X7251D02*
X7342D01*
X7423D02*
X7519D01*
X7627D02*
X7720D01*
X7748D02*
X7844D01*
X7925D02*
X8020D01*
X8039D02*
X8216D01*
X8385D02*
X8479D01*
X6182Y812D02*
X6186D01*
X6197D02*
X6201D01*
X6207D02*
X6211D01*
X6223D02*
X6227D01*
X6248D02*
X6252D01*
X6226Y877D02*
X6412D01*
X6434D02*
X6609D01*
X6628D02*
X6730D01*
X6777D02*
X6873D01*
X6962D02*
X7034D01*
X7047D02*
X7126D01*
X7250D02*
X7342D01*
X7421D02*
X7519D01*
X7627D02*
X7720D01*
X7748D02*
X7844D01*
X7925D02*
X8020D01*
X8039D02*
X8216D01*
X8385D02*
X8479D01*
X6182Y814D02*
X6186D01*
X6196D02*
X6200D01*
X6207D02*
X6213D01*
X6223D02*
X6227D01*
X6248D02*
X6252D01*
X6223Y879D02*
X6414D01*
X6434D02*
X6609D01*
X6628D02*
X6730D01*
X6777D02*
X6875D01*
X6959D02*
X7033D01*
X7049D02*
X7130D01*
X7250D02*
X7344D01*
X7421D02*
X7521D01*
X7627D02*
X7720D01*
X7750D02*
X7844D01*
X7925D02*
X8019D01*
X8039D02*
X8216D01*
X8385D02*
X8479D01*
X6182Y816D02*
X6186D01*
X6196D02*
X6200D01*
X6209D02*
X6213D01*
X6223D02*
X6227D01*
X6248D02*
X6252D01*
X6221Y881D02*
X6414D01*
X6434D02*
X6611D01*
X6629D02*
X6732D01*
X6777D02*
X6875D01*
X6956D02*
X7031D01*
X7051D02*
X7131D01*
X7248D02*
X7344D01*
X7420D02*
X7521D01*
X7627D02*
X7720D01*
X7750D02*
X7845D01*
X7923D02*
X8019D01*
X8039D02*
X8218D01*
X8385D02*
X8479D01*
X6182Y817D02*
X6186D01*
X6196D02*
X6200D01*
X6209D02*
X6213D01*
X6223D02*
X6225D01*
X6248D02*
X6252D01*
X6218Y882D02*
X6414D01*
X6434D02*
X6611D01*
X6629D02*
X6732D01*
X6777D02*
X6875D01*
X6954D02*
X7031D01*
X7053D02*
X7135D01*
X7248D02*
X7346D01*
X7420D02*
X7522D01*
X7627D02*
X7720D01*
X7750D02*
X7845D01*
X7923D02*
X8019D01*
X8039D02*
X8218D01*
X8385D02*
X8479D01*
X6182Y819D02*
X6186D01*
X6194D02*
X6198D01*
X6209D02*
X6215D01*
X6223D02*
X6225D01*
X6248D02*
X6252D01*
X6216Y884D02*
X6416D01*
X6434D02*
X6611D01*
X6631D02*
X6734D01*
X6777D02*
X6875D01*
X6951D02*
X7029D01*
X7053D02*
X7136D01*
X7246D02*
X7346D01*
X7420D02*
X7522D01*
X7627D02*
X7720D01*
X7750D02*
X7845D01*
X7923D02*
X8019D01*
X8039D02*
X8218D01*
X8385D02*
X8479D01*
X6182Y821D02*
X6186D01*
X6194D02*
X6198D01*
X6211D02*
X6215D01*
X6221D02*
X6225D01*
X6248D02*
X6252D01*
X6213Y886D02*
X6416D01*
X6434D02*
X6611D01*
X6631D02*
X6734D01*
X6777D02*
X6875D01*
X6949D02*
X7029D01*
X7053D02*
X7140D01*
X7246D02*
X7347D01*
X7418D02*
X7524D01*
X7627D02*
X7720D01*
X7751D02*
X7847D01*
X7921D02*
X8017D01*
X8039D02*
X8218D01*
X8385D02*
X8479D01*
X6182Y823D02*
X6186D01*
X6194D02*
X6196D01*
X6211D02*
X6215D01*
X6221D02*
X6225D01*
X6248D02*
X6252D01*
X6211Y888D02*
X6416D01*
X6434D02*
X6611D01*
X6633D02*
X6735D01*
X6777D02*
X6875D01*
X6947D02*
X7028D01*
X7053D02*
X7142D01*
X7246D02*
X7347D01*
X7418D02*
X7524D01*
X7627D02*
X7720D01*
X7751D02*
X7847D01*
X7921D02*
X8017D01*
X8039D02*
X8218D01*
X8385D02*
X8479D01*
X6182Y824D02*
X6186D01*
X6192D02*
X6196D01*
X6213D02*
X6217D01*
X6221D02*
X6225D01*
X6248D02*
X6252D01*
X6209Y889D02*
X6416D01*
X6434D02*
X6611D01*
X6633D02*
X6735D01*
X6777D02*
X6875D01*
X6944D02*
X7028D01*
X7053D02*
X7143D01*
X7245D02*
X7349D01*
X7418D02*
X7524D01*
X7627D02*
X7720D01*
X7751D02*
X7847D01*
X7921D02*
X8017D01*
X8039D02*
X8218D01*
X8385D02*
X8479D01*
X6182Y826D02*
X6186D01*
X6192D02*
X6196D01*
X6213D02*
X6217D01*
X6221D02*
X6225D01*
X6248D02*
X6252D01*
X6208Y891D02*
X6416D01*
X6434D02*
X6611D01*
X6634D02*
X6737D01*
X6777D02*
X6875D01*
X6942D02*
X7026D01*
X7053D02*
X7145D01*
X7245D02*
X7349D01*
X7416D02*
X7526D01*
X7627D02*
X7720D01*
X7753D02*
X7849D01*
X7920D02*
X8015D01*
X8039D02*
X8218D01*
X8385D02*
X8479D01*
X6182Y828D02*
X6186D01*
X6192D02*
X6194D01*
X6213D02*
X6217D01*
X6221D02*
X6225D01*
X6248D02*
X6252D01*
X6204Y893D02*
X6417D01*
X6434D02*
X6611D01*
X6636D02*
X6739D01*
X6777D02*
X6875D01*
X6940D02*
X7026D01*
X7053D02*
X7148D01*
X7245D02*
X7351D01*
X7416D02*
X7526D01*
X7627D02*
X7720D01*
X7753D02*
X7849D01*
X7920D02*
X8015D01*
X8039D02*
X8218D01*
X8385D02*
X8479D01*
X6184Y829D02*
X6186D01*
X6190D02*
X6194D01*
X6214D02*
X6218D01*
X6221D02*
X6225D01*
X6248D02*
X6252D01*
X6203Y894D02*
X6417D01*
X6434D02*
X6611D01*
X6636D02*
X6739D01*
X6777D02*
X6875D01*
X6939D02*
X7024D01*
X7051D02*
X7150D01*
X7245D02*
X7351D01*
X7416D02*
X7526D01*
X7627D02*
X7720D01*
X7753D02*
X7849D01*
X7920D02*
X8015D01*
X8039D02*
X8218D01*
X8385D02*
X8479D01*
X6184Y831D02*
X6186D01*
X6190D02*
X6194D01*
X6214D02*
X6218D01*
X6221D02*
X6225D01*
X6248D02*
X6252D01*
X6201Y896D02*
X6417D01*
X6434D02*
X6611D01*
X6638D02*
X6740D01*
X6777D02*
X6875D01*
X6937D02*
X7024D01*
X7051D02*
X7152D01*
X7243D02*
X7351D01*
X7416D02*
X7527D01*
X7627D02*
X7720D01*
X7755D02*
X7850D01*
X7918D02*
X8014D01*
X8039D02*
X8218D01*
X8385D02*
X8479D01*
X6184Y833D02*
X6186D01*
X6190D02*
X6193D01*
X6214D02*
X6218D01*
X6221D02*
X6225D01*
X6248D02*
X6252D01*
X6199Y898D02*
X6417D01*
X6434D02*
X6611D01*
X6638D02*
X6740D01*
X6777D02*
X6875D01*
X6935D02*
X7023D01*
X7051D02*
X7153D01*
X7243D02*
X7352D01*
X7415D02*
X7527D01*
X7627D02*
X7720D01*
X7755D02*
X7850D01*
X7918D02*
X8014D01*
X8039D02*
X8218D01*
X8385D02*
X8479D01*
X6184Y835D02*
X6193D01*
X6216D02*
X6225D01*
X6248D02*
X6252D01*
X6197Y900D02*
X6417D01*
X6434D02*
X6611D01*
X6639D02*
X6742D01*
X6777D02*
X6875D01*
X6934D02*
X7023D01*
X7051D02*
X7155D01*
X7243D02*
X7352D01*
X7415D02*
X7529D01*
X7627D02*
X7720D01*
X7755D02*
X7850D01*
X7918D02*
X8014D01*
X8039D02*
X8218D01*
X8385D02*
X8479D01*
X6184Y836D02*
X6193D01*
X6216D02*
X6225D01*
X6248D02*
X6252D01*
X6196Y901D02*
X6417D01*
X6434D02*
X6611D01*
X6639D02*
X6742D01*
X6777D02*
X6875D01*
X6932D02*
X7021D01*
X7051D02*
X7157D01*
X7243D02*
X7352D01*
X7415D02*
X7529D01*
X7627D02*
X7720D01*
X7755D02*
X7852D01*
X7916D02*
X8014D01*
X8039D02*
X8218D01*
X8385D02*
X8479D01*
X6184Y838D02*
X6191D01*
X6216D02*
X6225D01*
X6233D02*
X6266D01*
X6194Y903D02*
X6417D01*
X6434D02*
X6611D01*
X6641D02*
X6744D01*
X6777D02*
X6875D01*
X6930D02*
X7021D01*
X7049D02*
X7159D01*
X7241D02*
X7354D01*
X7415D02*
X7529D01*
X7627D02*
X7720D01*
X7756D02*
X8012D01*
X8039D02*
X8218D01*
X8385D02*
X8479D01*
X6184Y840D02*
X6191D01*
X6218D02*
X6225D01*
X6233D02*
X6266D01*
X6192Y905D02*
X6417D01*
X6434D02*
X6611D01*
X6641D02*
X6744D01*
X6777D02*
X6875D01*
X6928D02*
X7019D01*
X7049D02*
X7160D01*
X7241D02*
X7354D01*
X7413D02*
X7529D01*
X7627D02*
X7720D01*
X7756D02*
X8012D01*
X8039D02*
X8218D01*
X8385D02*
X8479D01*
X6184Y841D02*
X6189D01*
X6218D02*
X6225D01*
X6233D02*
X6266D01*
X6191Y906D02*
X6417D01*
X6434D02*
X6611D01*
X6643D02*
X6745D01*
X6777D02*
X6875D01*
X6927D02*
X7019D01*
X7049D02*
X7162D01*
X7241D02*
X7354D01*
X7413D02*
X7531D01*
X7627D02*
X7720D01*
X7756D02*
X8012D01*
X8039D02*
X8218D01*
X8385D02*
X8479D01*
X6189Y908D02*
X6417D01*
X6434D02*
X6611D01*
X6645D02*
X6745D01*
X6777D02*
X6875D01*
X6925D02*
X7019D01*
X7049D02*
X7164D01*
X7241D02*
X7356D01*
X7413D02*
X7531D01*
X7627D02*
X7720D01*
X7758D02*
X8010D01*
X8039D02*
X8218D01*
X8385D02*
X8479D01*
X6187Y910D02*
X6417D01*
X6434D02*
X6611D01*
X6645D02*
X6747D01*
X6777D02*
X6875D01*
X6923D02*
X7017D01*
X7049D02*
X7165D01*
X7241D02*
X7356D01*
X7413D02*
X7531D01*
X7627D02*
X7720D01*
X7758D02*
X8010D01*
X8039D02*
X8218D01*
X8385D02*
X8479D01*
X6186Y911D02*
X6417D01*
X6434D02*
X6611D01*
X6646D02*
X6747D01*
X6777D02*
X6875D01*
X6922D02*
X7017D01*
X7049D02*
X7167D01*
X7240D02*
X7356D01*
X7411D02*
X7533D01*
X7627D02*
X7720D01*
X7758D02*
X8010D01*
X8039D02*
X8218D01*
X8385D02*
X8479D01*
X6186Y913D02*
X6417D01*
X6434D02*
X6611D01*
X6646D02*
X6749D01*
X6777D02*
X6875D01*
X6920D02*
X7017D01*
X7047D02*
X7167D01*
X7240D02*
X7357D01*
X7411D02*
X7533D01*
X7627D02*
X7720D01*
X7760D02*
X8010D01*
X8039D02*
X8218D01*
X8385D02*
X8479D01*
X6184Y915D02*
X6417D01*
X6434D02*
X6611D01*
X6648D02*
X6749D01*
X6777D02*
X6875D01*
X6918D02*
X7016D01*
X7047D02*
X7169D01*
X7240D02*
X7357D01*
X7411D02*
X7533D01*
X7627D02*
X7720D01*
X7760D02*
X8009D01*
X8039D02*
X8218D01*
X8385D02*
X8479D01*
X6182Y916D02*
X6417D01*
X6434D02*
X6611D01*
X6648D02*
X6751D01*
X6777D02*
X6875D01*
X6917D02*
X7016D01*
X7047D02*
X7170D01*
X7240D02*
X7357D01*
X7411D02*
X7533D01*
X7627D02*
X7720D01*
X7760D02*
X8009D01*
X8039D02*
X8218D01*
X8385D02*
X8479D01*
X6180Y918D02*
X6417D01*
X6434D02*
X6611D01*
X6650D02*
X6751D01*
X6777D02*
X6875D01*
X6917D02*
X7016D01*
X7047D02*
X7172D01*
X7238D02*
X7359D01*
X7410D02*
X7534D01*
X7627D02*
X7720D01*
X7760D02*
X8009D01*
X8039D02*
X8218D01*
X8385D02*
X8479D01*
X6180Y920D02*
X6417D01*
X6434D02*
X6611D01*
X6650D02*
X6752D01*
X6777D02*
X6875D01*
X6915D02*
X7016D01*
X7047D02*
X7174D01*
X7238D02*
X7359D01*
X7410D02*
X7534D01*
X7627D02*
X7720D01*
X7761D02*
X8007D01*
X8039D02*
X8218D01*
X8385D02*
X8479D01*
X6179Y922D02*
X6417D01*
X6434D02*
X6611D01*
X6651D02*
X6752D01*
X6777D02*
X6875D01*
X6913D02*
X7014D01*
X7047D02*
X7174D01*
X7238D02*
X7359D01*
X7410D02*
X7534D01*
X7627D02*
X7720D01*
X7761D02*
X8007D01*
X8039D02*
X8218D01*
X8385D02*
X8479D01*
X6179Y923D02*
X6417D01*
X6434D02*
X6611D01*
X6653D02*
X6754D01*
X6777D02*
X6875D01*
X6913D02*
X7014D01*
X7047D02*
X7176D01*
X7238D02*
X7359D01*
X7410D02*
X7534D01*
X7627D02*
X7720D01*
X7761D02*
X8007D01*
X8039D02*
X8218D01*
X8385D02*
X8479D01*
X6177Y925D02*
X6417D01*
X6434D02*
X6611D01*
X6653D02*
X6754D01*
X6777D02*
X6875D01*
X6911D02*
X7014D01*
X7047D02*
X7177D01*
X7236D02*
X7361D01*
X7408D02*
X7536D01*
X7627D02*
X7720D01*
X7763D02*
X8005D01*
X8039D02*
X8218D01*
X8385D02*
X8479D01*
X6175Y927D02*
X6417D01*
X6434D02*
X6611D01*
X6655D02*
X6756D01*
X6777D02*
X6875D01*
X6910D02*
X7014D01*
X7047D02*
X7177D01*
X7236D02*
X7361D01*
X7408D02*
X7536D01*
X7627D02*
X7720D01*
X7763D02*
X8005D01*
X8039D02*
X8218D01*
X8385D02*
X8479D01*
X6175Y928D02*
X6417D01*
X6434D02*
X6611D01*
X6655D02*
X6756D01*
X6777D02*
X6875D01*
X6908D02*
X7012D01*
X7047D02*
X7179D01*
X7236D02*
X7361D01*
X7408D02*
X7536D01*
X7627D02*
X7720D01*
X7763D02*
X8005D01*
X8039D02*
X8218D01*
X8385D02*
X8479D01*
X6174Y930D02*
X6417D01*
X6434D02*
X6611D01*
X6656D02*
X6757D01*
X6777D02*
X6875D01*
X6908D02*
X7012D01*
X7047D02*
X7181D01*
X7236D02*
X7363D01*
X7408D02*
X7536D01*
X7627D02*
X7720D01*
X7765D02*
X8005D01*
X8039D02*
X8218D01*
X8385D02*
X8479D01*
X6174Y932D02*
X6417D01*
X6434D02*
X6611D01*
X6656D02*
X6757D01*
X6777D02*
X6875D01*
X6906D02*
X7012D01*
X7046D02*
X7113D01*
X7126D02*
X7181D01*
X7236D02*
X7363D01*
X7408D02*
X7538D01*
X7627D02*
X7720D01*
X7765D02*
X8003D01*
X8039D02*
X8218D01*
X8385D02*
X8479D01*
X6172Y933D02*
X6417D01*
X6434D02*
X6611D01*
X6658D02*
X6759D01*
X6777D02*
X6875D01*
X6906D02*
X7012D01*
X7047D02*
X7109D01*
X7131D02*
X7182D01*
X7234D02*
X7363D01*
X7406D02*
X7538D01*
X7627D02*
X7720D01*
X7765D02*
X8003D01*
X8039D02*
X8218D01*
X8385D02*
X8479D01*
X6172Y935D02*
X6417D01*
X6434D02*
X6611D01*
X6660D02*
X6759D01*
X6777D02*
X6875D01*
X6905D02*
X7012D01*
X7047D02*
X7106D01*
X7134D02*
X7184D01*
X7234D02*
X7363D01*
X7406D02*
X7538D01*
X7627D02*
X7720D01*
X7765D02*
X8003D01*
X8039D02*
X8218D01*
X8385D02*
X8479D01*
X6172Y937D02*
X6417D01*
X6434D02*
X6611D01*
X6660D02*
X6761D01*
X6777D02*
X6875D01*
X6903D02*
X7011D01*
X7047D02*
X7102D01*
X7136D02*
X7184D01*
X7234D02*
X7364D01*
X7406D02*
X7538D01*
X7627D02*
X7720D01*
X7767D02*
X8002D01*
X8039D02*
X8218D01*
X8385D02*
X8479D01*
X6170Y939D02*
X6417D01*
X6434D02*
X6611D01*
X6662D02*
X6761D01*
X6777D02*
X6875D01*
X6903D02*
X7011D01*
X7047D02*
X7101D01*
X7139D02*
X7186D01*
X7234D02*
X7364D01*
X7406D02*
X7538D01*
X7627D02*
X7720D01*
X7767D02*
X8002D01*
X8039D02*
X8218D01*
X8385D02*
X8479D01*
X6170Y940D02*
X6417D01*
X6434D02*
X6611D01*
X6662D02*
X6762D01*
X6777D02*
X6875D01*
X6901D02*
X7011D01*
X7047D02*
X7097D01*
X7141D02*
X7186D01*
X7233D02*
X7364D01*
X7406D02*
X7539D01*
X7627D02*
X7720D01*
X7767D02*
X8002D01*
X8039D02*
X8218D01*
X8385D02*
X8479D01*
X6169Y942D02*
X6417D01*
X6434D02*
X6611D01*
X6663D02*
X6762D01*
X6777D02*
X6875D01*
X6901D02*
X7011D01*
X7047D02*
X7096D01*
X7144D02*
X7187D01*
X7233D02*
X7364D01*
X7404D02*
X7539D01*
X7627D02*
X7720D01*
X7768D02*
X8000D01*
X8039D02*
X8218D01*
X8385D02*
X8479D01*
X6169Y944D02*
X6417D01*
X6434D02*
X6611D01*
X6663D02*
X6764D01*
X6777D02*
X6875D01*
X6900D02*
X7011D01*
X7047D02*
X7092D01*
X7146D02*
X7187D01*
X7233D02*
X7364D01*
X7404D02*
X7539D01*
X7627D02*
X7720D01*
X7768D02*
X8000D01*
X8039D02*
X8218D01*
X8385D02*
X8479D01*
X6169Y945D02*
X6417D01*
X6434D02*
X6611D01*
X6665D02*
X6764D01*
X6777D02*
X6875D01*
X6900D02*
X7011D01*
X7047D02*
X7091D01*
X7148D02*
X7189D01*
X7233D02*
X7366D01*
X7404D02*
X7539D01*
X7627D02*
X7720D01*
X7768D02*
X8000D01*
X8129D02*
X8218D01*
X8379D02*
X8479D01*
X6169Y947D02*
X6417D01*
X6520D02*
X6611D01*
X6665D02*
X6766D01*
X6777D02*
X6875D01*
X6898D02*
X7011D01*
X7047D02*
X7089D01*
X7149D02*
X7189D01*
X7233D02*
X7366D01*
X7404D02*
X7541D01*
X7627D02*
X7720D01*
X7770D02*
X8000D01*
X8129D02*
X8218D01*
X8324D02*
X8479D01*
X6167Y949D02*
X6295D01*
X6316D02*
X6417D01*
X6522D02*
X6611D01*
X6667D02*
X6766D01*
X6777D02*
X6875D01*
X6898D02*
X7012D01*
X7049D02*
X7087D01*
X7151D02*
X7191D01*
X7231D02*
X7366D01*
X7404D02*
X7541D01*
X7627D02*
X7720D01*
X7770D02*
X7998D01*
X8129D02*
X8218D01*
X8311D02*
X8479D01*
X6167Y951D02*
X6290D01*
X6318D02*
X6417D01*
X6522D02*
X6611D01*
X6668D02*
X6768D01*
X6777D02*
X6875D01*
X6896D02*
X7012D01*
X7049D02*
X7085D01*
X7153D02*
X7191D01*
X7231D02*
X7366D01*
X7403D02*
X7541D01*
X7627D02*
X7720D01*
X7770D02*
X7998D01*
X8129D02*
X8218D01*
X8302D02*
X8479D01*
X6167Y952D02*
X6286D01*
X6318D02*
X6417D01*
X6522D02*
X6611D01*
X6668D02*
X6768D01*
X6777D02*
X6875D01*
X6896D02*
X7012D01*
X7049D02*
X7084D01*
X7155D02*
X7193D01*
X7231D02*
X7368D01*
X7403D02*
X7541D01*
X7627D02*
X7720D01*
X7770D02*
X7998D01*
X8129D02*
X8218D01*
X8297D02*
X8479D01*
X6165Y954D02*
X6283D01*
X6320D02*
X6417D01*
X6522D02*
X6611D01*
X6670D02*
X6769D01*
X6777D02*
X6875D01*
X6896D02*
X7012D01*
X7051D02*
X7082D01*
X7156D02*
X7193D01*
X7231D02*
X7368D01*
X7403D02*
X7541D01*
X7627D02*
X7720D01*
X7772D02*
X7997D01*
X8129D02*
X8218D01*
X8292D02*
X8479D01*
X6165Y956D02*
X6280D01*
X6320D02*
X6417D01*
X6522D02*
X6611D01*
X6670D02*
X6769D01*
X6777D02*
X6875D01*
X6894D02*
X7012D01*
X7051D02*
X7080D01*
X7158D02*
X7193D01*
X7229D02*
X7368D01*
X7403D02*
X7543D01*
X7627D02*
X7720D01*
X7772D02*
X7997D01*
X8129D02*
X8218D01*
X8288D02*
X8479D01*
X6165Y957D02*
X6278D01*
X6320D02*
X6417D01*
X6522D02*
X6611D01*
X6672D02*
X6771D01*
X6777D02*
X6875D01*
X6894D02*
X7014D01*
X7051D02*
X7079D01*
X7158D02*
X7194D01*
X7229D02*
X7368D01*
X7403D02*
X7543D01*
X7627D02*
X7720D01*
X7772D02*
X7997D01*
X8129D02*
X8218D01*
X8285D02*
X8479D01*
X6165Y959D02*
X6276D01*
X6320D02*
X6417D01*
X6522D02*
X6611D01*
X6672D02*
X6771D01*
X6777D02*
X6875D01*
X6893D02*
X7014D01*
X7053D02*
X7077D01*
X7160D02*
X7194D01*
X7229D02*
X7369D01*
X7401D02*
X7543D01*
X7627D02*
X7720D01*
X7773D02*
X7997D01*
X8129D02*
X8218D01*
X8282D02*
X8479D01*
X6165Y961D02*
X6273D01*
X6320D02*
X6417D01*
X6522D02*
X6611D01*
X6673D02*
X6773D01*
X6777D02*
X6875D01*
X6893D02*
X7014D01*
X7054D02*
X7075D01*
X7161D02*
X7196D01*
X7229D02*
X7369D01*
X7401D02*
X7543D01*
X7627D02*
X7720D01*
X7773D02*
X7995D01*
X8129D02*
X8218D01*
X8278D02*
X8479D01*
X6163Y962D02*
X6271D01*
X6320D02*
X6417D01*
X6522D02*
X6611D01*
X6675D02*
X6773D01*
X6777D02*
X6875D01*
X6893D02*
X7016D01*
X7054D02*
X7074D01*
X7161D02*
X7196D01*
X7229D02*
X7369D01*
X7401D02*
X7543D01*
X7627D02*
X7720D01*
X7773D02*
X7995D01*
X8129D02*
X8218D01*
X8277D02*
X8479D01*
X6163Y964D02*
X6269D01*
X6320D02*
X6417D01*
X6522D02*
X6611D01*
X6675D02*
X6774D01*
X6777D02*
X6875D01*
X6891D02*
X7016D01*
X7056D02*
X7072D01*
X7121D02*
X7125D01*
X7163D02*
X7196D01*
X7228D02*
X7369D01*
X7401D02*
X7544D01*
X7627D02*
X7720D01*
X7775D02*
X7995D01*
X8129D02*
X8218D01*
X8275D02*
X8479D01*
X6163Y966D02*
X6268D01*
X6320D02*
X6417D01*
X6522D02*
X6611D01*
X6677D02*
X6875D01*
X6891D02*
X7016D01*
X7058D02*
X7070D01*
X7117D02*
X7128D01*
X7163D02*
X7198D01*
X7228D02*
X7371D01*
X7401D02*
X7544D01*
X7627D02*
X7720D01*
X7775D02*
X7993D01*
X8129D02*
X8218D01*
X8273D02*
X8479D01*
X6163Y967D02*
X6268D01*
X6320D02*
X6417D01*
X6522D02*
X6611D01*
X6679D02*
X6875D01*
X6891D02*
X7017D01*
X7059D02*
X7067D01*
X7115D02*
X7131D01*
X7163D02*
X7198D01*
X7228D02*
X7371D01*
X7399D02*
X7544D01*
X7627D02*
X7720D01*
X7775D02*
X7867D01*
X7904D02*
X7993D01*
X8129D02*
X8218D01*
X8270D02*
X8479D01*
X6163Y969D02*
X6266D01*
X6320D02*
X6417D01*
X6522D02*
X6611D01*
X6679D02*
X6875D01*
X6889D02*
X7017D01*
X7061D02*
X7065D01*
X7114D02*
X7133D01*
X7163D02*
X7198D01*
X7228D02*
X7371D01*
X7399D02*
X7544D01*
X7627D02*
X7720D01*
X7775D02*
X7867D01*
X7904D02*
X7993D01*
X8129D02*
X8218D01*
X8268D02*
X8479D01*
X6163Y971D02*
X6264D01*
X6320D02*
X6417D01*
X6522D02*
X6611D01*
X6680D02*
X6875D01*
X6889D02*
X7019D01*
X7114D02*
X7135D01*
X7163D02*
X7198D01*
X7228D02*
X7371D01*
X7399D02*
X7544D01*
X7627D02*
X7720D01*
X7777D02*
X7869D01*
X7904D02*
X7993D01*
X8129D02*
X8218D01*
X8266D02*
X8479D01*
X6162Y973D02*
X6263D01*
X6320D02*
X6417D01*
X6522D02*
X6611D01*
X6680D02*
X6875D01*
X6889D02*
X7019D01*
X7112D02*
X7136D01*
X7163D02*
X7199D01*
X7226D02*
X7373D01*
X7399D02*
X7546D01*
X7627D02*
X7720D01*
X7777D02*
X7869D01*
X7904D02*
X7992D01*
X8129D02*
X8218D01*
X8265D02*
X8479D01*
X6162Y974D02*
X6263D01*
X6320D02*
X6417D01*
X6522D02*
X6611D01*
X6682D02*
X6875D01*
X6889D02*
X7019D01*
X7112D02*
X7140D01*
X7161D02*
X7199D01*
X7226D02*
X7373D01*
X7399D02*
X7546D01*
X7627D02*
X7720D01*
X7777D02*
X7869D01*
X7904D02*
X7992D01*
X8129D02*
X8218D01*
X8263D02*
X8479D01*
X6162Y976D02*
X6261D01*
X6320D02*
X6417D01*
X6522D02*
X6611D01*
X6682D02*
X6875D01*
X6888D02*
X7021D01*
X7110D02*
X7142D01*
X7161D02*
X7199D01*
X7226D02*
X7373D01*
X7399D02*
X7546D01*
X7627D02*
X7720D01*
X7778D02*
X7869D01*
X7904D02*
X7992D01*
X8129D02*
X8218D01*
X8263D02*
X8479D01*
X6162Y978D02*
X6261D01*
X6320D02*
X6417D01*
X6522D02*
X6611D01*
X6680D02*
X6875D01*
X6888D02*
X7021D01*
X7110D02*
X7145D01*
X7160D02*
X7201D01*
X7226D02*
X7373D01*
X7398D02*
X7546D01*
X7627D02*
X7720D01*
X7778D02*
X7869D01*
X7903D02*
X7990D01*
X8129D02*
X8218D01*
X8261D02*
X8479D01*
X6162Y979D02*
X6261D01*
X6320D02*
X6417D01*
X6522D02*
X6611D01*
X6680D02*
X6875D01*
X6888D02*
X7023D01*
X7109D02*
X7148D01*
X7156D02*
X7201D01*
X7224D02*
X7373D01*
X7398D02*
X7546D01*
X7627D02*
X7720D01*
X7778D02*
X7871D01*
X7903D02*
X7990D01*
X8129D02*
X8218D01*
X8260D02*
X8479D01*
X6162Y981D02*
X6259D01*
X6320D02*
X6417D01*
X6522D02*
X6611D01*
X6679D02*
X6875D01*
X6888D02*
X7023D01*
X7109D02*
X7201D01*
X7224D02*
X7374D01*
X7398D02*
X7548D01*
X7627D02*
X7720D01*
X7780D02*
X7871D01*
X7903D02*
X7990D01*
X8129D02*
X8218D01*
X8258D02*
X8479D01*
X6162Y983D02*
X6259D01*
X6320D02*
X6417D01*
X6522D02*
X6611D01*
X6677D02*
X6875D01*
X6886D02*
X7024D01*
X7107D02*
X7201D01*
X7224D02*
X7374D01*
X7398D02*
X7548D01*
X7627D02*
X7720D01*
X7780D02*
X7871D01*
X7903D02*
X7990D01*
X8129D02*
X8218D01*
X8256D02*
X8479D01*
X6162Y984D02*
X6259D01*
X6320D02*
X6417D01*
X6522D02*
X6611D01*
X6675D02*
X6875D01*
X6886D02*
X7024D01*
X7107D02*
X7201D01*
X7224D02*
X7374D01*
X7398D02*
X7548D01*
X7625D02*
X7721D01*
X7780D02*
X7871D01*
X7903D02*
X7988D01*
X8129D02*
X8218D01*
X8256D02*
X8479D01*
X6162Y986D02*
X6258D01*
X6320D02*
X6417D01*
X6522D02*
X6611D01*
X6672D02*
X6875D01*
X6886D02*
X7026D01*
X7107D02*
X7203D01*
X7224D02*
X7376D01*
X7398D02*
X7548D01*
X7625D02*
X7721D01*
X7780D02*
X7873D01*
X7901D02*
X7988D01*
X8129D02*
X8218D01*
X8254D02*
X8479D01*
X6162Y988D02*
X6258D01*
X6320D02*
X6417D01*
X6522D02*
X6611D01*
X6670D02*
X6875D01*
X6886D02*
X7026D01*
X7105D02*
X7203D01*
X7223D02*
X7376D01*
X7396D02*
X7548D01*
X7624D02*
X7723D01*
X7782D02*
X7873D01*
X7901D02*
X7988D01*
X8129D02*
X8218D01*
X8253D02*
X8479D01*
X6162Y990D02*
X6258D01*
X6320D02*
X6417D01*
X6522D02*
X6611D01*
X6667D02*
X6875D01*
X6886D02*
X7028D01*
X7105D02*
X7203D01*
X7223D02*
X7376D01*
X7396D02*
X7550D01*
X7624D02*
X7723D01*
X7782D02*
X7873D01*
X7901D02*
X7986D01*
X8129D02*
X8218D01*
X8253D02*
X8479D01*
X6162Y991D02*
X6258D01*
X6320D02*
X6417D01*
X6522D02*
X6611D01*
X6665D02*
X6875D01*
X6884D02*
X7028D01*
X7104D02*
X7203D01*
X7223D02*
X7376D01*
X7396D02*
X7550D01*
X7622D02*
X7725D01*
X7782D02*
X7873D01*
X7901D02*
X7986D01*
X8129D02*
X8218D01*
X8251D02*
X8479D01*
X6160Y993D02*
X6258D01*
X6320D02*
X6417D01*
X6522D02*
X6611D01*
X6663D02*
X6875D01*
X6884D02*
X7028D01*
X7104D02*
X7203D01*
X7223D02*
X7378D01*
X7396D02*
X7550D01*
X7622D02*
X7725D01*
X7784D02*
X7873D01*
X7901D02*
X7986D01*
X8129D02*
X8218D01*
X8251D02*
X8479D01*
X6160Y995D02*
X6258D01*
X6320D02*
X6417D01*
X6522D02*
X6611D01*
X6662D02*
X6875D01*
X6884D02*
X7028D01*
X7104D02*
X7203D01*
X7223D02*
X7378D01*
X7396D02*
X7550D01*
X7620D02*
X7726D01*
X7784D02*
X7874D01*
X7899D02*
X7986D01*
X8129D02*
X8218D01*
X8249D02*
X8479D01*
X6160Y996D02*
X6258D01*
X6320D02*
X6417D01*
X6522D02*
X6611D01*
X6660D02*
X6875D01*
X6884D02*
X7029D01*
X7102D02*
X7203D01*
X7221D02*
X7378D01*
X7396D02*
X7463D01*
X7466D02*
X7550D01*
X7620D02*
X7726D01*
X7784D02*
X7874D01*
X7899D02*
X7985D01*
X8129D02*
X8218D01*
X8249D02*
X8479D01*
X6160Y998D02*
X6256D01*
X6320D02*
X6417D01*
X6522D02*
X6611D01*
X6658D02*
X6875D01*
X6884D02*
X7029D01*
X7102D02*
X7204D01*
X7221D02*
X7305D01*
X7308D02*
X7378D01*
X7394D02*
X7463D01*
X7467D02*
X7551D01*
X7619D02*
X7728D01*
X7785D02*
X7874D01*
X7899D02*
X7985D01*
X8129D02*
X8218D01*
X8248D02*
X8479D01*
X6160Y1000D02*
X6256D01*
X6320D02*
X6417D01*
X6522D02*
X6611D01*
X6656D02*
X6875D01*
X6884D02*
X7029D01*
X7100D02*
X7204D01*
X7221D02*
X7305D01*
X7308D02*
X7380D01*
X7394D02*
X7463D01*
X7467D02*
X7551D01*
X7619D02*
X7728D01*
X7785D02*
X7874D01*
X7899D02*
X7985D01*
X8129D02*
X8218D01*
X8248D02*
X8479D01*
X6160Y1002D02*
X6256D01*
X6320D02*
X6417D01*
X6522D02*
X6611D01*
X6655D02*
X6875D01*
X6884D02*
X7029D01*
X7073D02*
X7074D01*
X7100D02*
X7204D01*
X7221D02*
X7305D01*
X7309D02*
X7380D01*
X7394D02*
X7463D01*
X7467D02*
X7551D01*
X7617D02*
X7730D01*
X7785D02*
X7874D01*
X7899D02*
X7983D01*
X8129D02*
X8218D01*
X8246D02*
X8479D01*
X6160Y1003D02*
X6256D01*
X6320D02*
X6417D01*
X6522D02*
X6611D01*
X6653D02*
X6774D01*
X6777D02*
X6875D01*
X6884D02*
X7029D01*
X7064D02*
X7082D01*
X7098D02*
X7204D01*
X7221D02*
X7305D01*
X7309D02*
X7380D01*
X7394D02*
X7463D01*
X7467D02*
X7551D01*
X7617D02*
X7730D01*
X7785D02*
X7876D01*
X7897D02*
X7983D01*
X8129D02*
X8218D01*
X8246D02*
X8479D01*
X6160Y1005D02*
X6256D01*
X6320D02*
X6417D01*
X6522D02*
X6611D01*
X6653D02*
X6773D01*
X6777D02*
X6875D01*
X6884D02*
X7029D01*
X7061D02*
X7067D01*
X7075D02*
X7087D01*
X7097D02*
X7204D01*
X7219D02*
X7305D01*
X7309D02*
X7380D01*
X7394D02*
X7461D01*
X7467D02*
X7553D01*
X7615D02*
X7731D01*
X7787D02*
X7876D01*
X7897D02*
X7983D01*
X8129D02*
X8218D01*
X8246D02*
X8479D01*
X6160Y1007D02*
X6256D01*
X6320D02*
X6417D01*
X6522D02*
X6611D01*
X6651D02*
X6773D01*
X6777D02*
X6875D01*
X6884D02*
X7029D01*
X7059D02*
X7063D01*
X7081D02*
X7091D01*
X7097D02*
X7204D01*
X7219D02*
X7303D01*
X7311D02*
X7380D01*
X7393D02*
X7461D01*
X7469D02*
X7553D01*
X7615D02*
X7731D01*
X7787D02*
X7876D01*
X7897D02*
X7983D01*
X8129D02*
X8218D01*
X8244D02*
X8479D01*
X6160Y1008D02*
X6256D01*
X6320D02*
X6417D01*
X6522D02*
X6611D01*
X6650D02*
X6773D01*
X6777D02*
X6875D01*
X6884D02*
X7028D01*
X7059D02*
X7062D01*
X7085D02*
X7204D01*
X7219D02*
X7303D01*
X7311D02*
X7381D01*
X7393D02*
X7461D01*
X7469D02*
X7553D01*
X7614D02*
X7733D01*
X7787D02*
X7876D01*
X7897D02*
X7981D01*
X8129D02*
X8218D01*
X8244D02*
X8479D01*
X6160Y1010D02*
X6256D01*
X6320D02*
X6417D01*
X6522D02*
X6611D01*
X6650D02*
X6771D01*
X6777D02*
X6875D01*
X6883D02*
X7028D01*
X7058D02*
X7060D01*
X7088D02*
X7204D01*
X7219D02*
X7303D01*
X7311D02*
X7381D01*
X7393D02*
X7461D01*
X7469D02*
X7553D01*
X7612D02*
X7735D01*
X7789D02*
X7876D01*
X7897D02*
X7981D01*
X8129D02*
X8218D01*
X8244D02*
X8479D01*
X6160Y1012D02*
X6258D01*
X6320D02*
X6417D01*
X6522D02*
X6611D01*
X6648D02*
X6771D01*
X6777D02*
X6875D01*
X6883D02*
X7028D01*
X7058D02*
X7060D01*
X7092D02*
X7204D01*
X7219D02*
X7303D01*
X7311D02*
X7381D01*
X7393D02*
X7461D01*
X7469D02*
X7555D01*
X7612D02*
X7735D01*
X7789D02*
X7878D01*
X7896D02*
X7981D01*
X8129D02*
X8218D01*
X8244D02*
X8479D01*
X6160Y1013D02*
X6258D01*
X6320D02*
X6417D01*
X6522D02*
X6611D01*
X6648D02*
X6769D01*
X6777D02*
X6875D01*
X6883D02*
X7028D01*
X7058D02*
X7060D01*
X7095D02*
X7204D01*
X7217D02*
X7303D01*
X7311D02*
X7381D01*
X7393D02*
X7459D01*
X7469D02*
X7555D01*
X7610D02*
X7737D01*
X7790D02*
X7878D01*
X7896D02*
X7980D01*
X8129D02*
X8218D01*
X8243D02*
X8479D01*
X6160Y1015D02*
X6258D01*
X6320D02*
X6417D01*
X6522D02*
X6611D01*
X6646D02*
X6768D01*
X6777D02*
X6875D01*
X6883D02*
X7026D01*
X7058D02*
X7058D01*
X7097D02*
X7204D01*
X7217D02*
X7303D01*
X7313D02*
X7381D01*
X7393D02*
X7459D01*
X7471D02*
X7555D01*
X7610D02*
X7737D01*
X7790D02*
X7878D01*
X7896D02*
X7980D01*
X8129D02*
X8218D01*
X8243D02*
X8479D01*
X6160Y1017D02*
X6258D01*
X6320D02*
X6417D01*
X6522D02*
X6611D01*
X6646D02*
X6768D01*
X6777D02*
X6875D01*
X6883D02*
X7026D01*
X7058D02*
X7058D01*
X7100D02*
X7204D01*
X7217D02*
X7301D01*
X7313D02*
X7383D01*
X7391D02*
X7459D01*
X7471D02*
X7555D01*
X7608D02*
X7738D01*
X7790D02*
X7878D01*
X7896D02*
X7980D01*
X8129D02*
X8218D01*
X8243D02*
X8350D01*
X8370D02*
X8479D01*
X6160Y1018D02*
X6258D01*
X6320D02*
X6417D01*
X6522D02*
X6611D01*
X6645D02*
X6766D01*
X6777D02*
X6875D01*
X6883D02*
X7026D01*
X7058D02*
X7060D01*
X7102D02*
X7204D01*
X7217D02*
X7301D01*
X7313D02*
X7383D01*
X7391D02*
X7459D01*
X7471D02*
X7556D01*
X7608D02*
X7738D01*
X7790D02*
X7879D01*
X7896D02*
X7980D01*
X8129D02*
X8218D01*
X8243D02*
X8342D01*
X8377D02*
X8479D01*
X6160Y1020D02*
X6258D01*
X6320D02*
X6417D01*
X6522D02*
X6611D01*
X6645D02*
X6764D01*
X6777D02*
X6875D01*
X6883D02*
X7024D01*
X7058D02*
X7060D01*
X7104D02*
X7204D01*
X7217D02*
X7301D01*
X7314D02*
X7383D01*
X7391D02*
X7458D01*
X7471D02*
X7556D01*
X7607D02*
X7740D01*
X7792D02*
X7879D01*
X7894D02*
X7978D01*
X8129D02*
X8218D01*
X8241D02*
X8338D01*
X8380D02*
X8479D01*
X6160Y1022D02*
X6258D01*
X6320D02*
X6417D01*
X6522D02*
X6611D01*
X6643D02*
X6762D01*
X6777D02*
X6875D01*
X6883D02*
X7024D01*
X7059D02*
X7062D01*
X7107D02*
X7204D01*
X7216D02*
X7301D01*
X7314D02*
X7383D01*
X7391D02*
X7458D01*
X7471D02*
X7556D01*
X7607D02*
X7740D01*
X7792D02*
X7879D01*
X7894D02*
X7978D01*
X8129D02*
X8218D01*
X8241D02*
X8335D01*
X8384D02*
X8479D01*
X6160Y1024D02*
X6258D01*
X6320D02*
X6417D01*
X6522D02*
X6611D01*
X6643D02*
X6761D01*
X6777D02*
X6875D01*
X6884D02*
X6987D01*
X6996D02*
X7023D01*
X7059D02*
X7062D01*
X7109D02*
X7204D01*
X7216D02*
X7301D01*
X7314D02*
X7385D01*
X7391D02*
X7458D01*
X7472D02*
X7556D01*
X7605D02*
X7742D01*
X7792D02*
X7879D01*
X7894D02*
X7978D01*
X8129D02*
X8218D01*
X8241D02*
X8333D01*
X8384D02*
X8479D01*
X6162Y1025D02*
X6259D01*
X6320D02*
X6417D01*
X6522D02*
X6611D01*
X6641D02*
X6757D01*
X6777D02*
X6875D01*
X6884D02*
X6983D01*
X7000D02*
X7023D01*
X7061D02*
X7063D01*
X7110D02*
X7204D01*
X7216D02*
X7301D01*
X7314D02*
X7385D01*
X7391D02*
X7458D01*
X7472D02*
X7558D01*
X7605D02*
X7742D01*
X7794D02*
X7879D01*
X7894D02*
X7976D01*
X8129D02*
X8218D01*
X8241D02*
X8332D01*
X8385D02*
X8479D01*
X6162Y1027D02*
X6259D01*
X6320D02*
X6417D01*
X6522D02*
X6611D01*
X6641D02*
X6756D01*
X6777D02*
X6875D01*
X6884D02*
X6980D01*
X7003D02*
X7021D01*
X7063D02*
X7065D01*
X7112D02*
X7204D01*
X7216D02*
X7300D01*
X7316D02*
X7385D01*
X7389D02*
X7458D01*
X7472D02*
X7558D01*
X7603D02*
X7743D01*
X7794D02*
X7881D01*
X7894D02*
X7976D01*
X8129D02*
X8218D01*
X8241D02*
X8330D01*
X8385D02*
X8479D01*
X6162Y1029D02*
X6259D01*
X6320D02*
X6417D01*
X6522D02*
X6611D01*
X6641D02*
X6752D01*
X6777D02*
X6875D01*
X6884D02*
X6978D01*
X7005D02*
X7021D01*
X7064D02*
X7065D01*
X7112D02*
X7204D01*
X7216D02*
X7300D01*
X7316D02*
X7385D01*
X7389D02*
X7456D01*
X7472D02*
X7558D01*
X7603D02*
X7743D01*
X7794D02*
X7881D01*
X7892D02*
X7976D01*
X8129D02*
X8218D01*
X8241D02*
X8330D01*
X8385D02*
X8479D01*
X6162Y1030D02*
X6259D01*
X6320D02*
X6417D01*
X6522D02*
X6611D01*
X6639D02*
X6749D01*
X6777D02*
X6875D01*
X6884D02*
X6977D01*
X7008D02*
X7019D01*
X7064D02*
X7067D01*
X7114D02*
X7204D01*
X7214D02*
X7300D01*
X7316D02*
X7386D01*
X7389D02*
X7456D01*
X7472D02*
X7558D01*
X7602D02*
X7745D01*
X7795D02*
X7881D01*
X7892D02*
X7976D01*
X8129D02*
X8218D01*
X8241D02*
X8328D01*
X8385D02*
X8479D01*
X6162Y1032D02*
X6261D01*
X6320D02*
X6417D01*
X6522D02*
X6611D01*
X6639D02*
X6747D01*
X6777D02*
X6875D01*
X6884D02*
X6975D01*
X7010D02*
X7019D01*
X7066D02*
X7068D01*
X7115D02*
X7204D01*
X7214D02*
X7300D01*
X7316D02*
X7386D01*
X7389D02*
X7456D01*
X7474D02*
X7558D01*
X7602D02*
X7745D01*
X7795D02*
X7881D01*
X7892D02*
X7975D01*
X8129D02*
X8218D01*
X8239D02*
X8328D01*
X8385D02*
X8479D01*
X6162Y1034D02*
X6261D01*
X6320D02*
X6417D01*
X6522D02*
X6611D01*
X6639D02*
X6744D01*
X6777D02*
X6875D01*
X6884D02*
X6973D01*
X7013D02*
X7017D01*
X7070D02*
X7070D01*
X7115D02*
X7204D01*
X7214D02*
X7300D01*
X7318D02*
X7456D01*
X7474D02*
X7560D01*
X7600D02*
X7747D01*
X7795D02*
X7881D01*
X7892D02*
X7975D01*
X8129D02*
X8218D01*
X8239D02*
X8326D01*
X8385D02*
X8479D01*
X6162Y1036D02*
X6263D01*
X6320D02*
X6417D01*
X6522D02*
X6611D01*
X6639D02*
X6740D01*
X6777D02*
X6875D01*
X6884D02*
X6970D01*
X7015D02*
X7017D01*
X7071D02*
X7074D01*
X7115D02*
X7203D01*
X7214D02*
X7300D01*
X7318D02*
X7456D01*
X7474D02*
X7560D01*
X7600D02*
X7747D01*
X7795D02*
X7883D01*
X7891D02*
X7975D01*
X8129D02*
X8218D01*
X8239D02*
X8326D01*
X8385D02*
X8479D01*
X6162Y1037D02*
X6263D01*
X6320D02*
X6417D01*
X6522D02*
X6611D01*
X6638D02*
X6739D01*
X6777D02*
X6875D01*
X6884D02*
X6968D01*
X7073D02*
X7075D01*
X7117D02*
X7203D01*
X7214D02*
X7300D01*
X7318D02*
X7454D01*
X7474D02*
X7560D01*
X7598D02*
X7748D01*
X7797D02*
X7883D01*
X7891D02*
X7973D01*
X8129D02*
X8218D01*
X8239D02*
X8325D01*
X8385D02*
X8479D01*
X6162Y1039D02*
X6264D01*
X6320D02*
X6417D01*
X6522D02*
X6611D01*
X6638D02*
X6737D01*
X6777D02*
X6875D01*
X6884D02*
X6966D01*
X7075D02*
X7077D01*
X7117D02*
X7203D01*
X7212D02*
X7298D01*
X7318D02*
X7454D01*
X7474D02*
X7560D01*
X7598D02*
X7750D01*
X7797D02*
X7883D01*
X7891D02*
X7973D01*
X8129D02*
X8218D01*
X8239D02*
X8325D01*
X8385D02*
X8479D01*
X6163Y1041D02*
X6264D01*
X6320D02*
X6417D01*
X6522D02*
X6611D01*
X6638D02*
X6735D01*
X6777D02*
X6875D01*
X6884D02*
X6965D01*
X7078D02*
X7079D01*
X7117D02*
X7203D01*
X7212D02*
X7298D01*
X7319D02*
X7454D01*
X7476D02*
X7561D01*
X7597D02*
X7750D01*
X7797D02*
X7883D01*
X7891D02*
X7973D01*
X8129D02*
X8218D01*
X8239D02*
X8325D01*
X8385D02*
X8479D01*
X6163Y1042D02*
X6266D01*
X6320D02*
X6417D01*
X6522D02*
X6611D01*
X6638D02*
X6734D01*
X6777D02*
X6875D01*
X6886D02*
X6961D01*
X7080D02*
X7080D01*
X7117D02*
X7203D01*
X7212D02*
X7298D01*
X7319D02*
X7454D01*
X7476D02*
X7561D01*
X7597D02*
X7752D01*
X7797D02*
X7883D01*
X7891D02*
X7971D01*
X8129D02*
X8218D01*
X8239D02*
X8325D01*
X8385D02*
X8479D01*
X6163Y1044D02*
X6266D01*
X6320D02*
X6417D01*
X6522D02*
X6611D01*
X6636D02*
X6734D01*
X6777D02*
X6875D01*
X6886D02*
X6960D01*
X7083D02*
X7084D01*
X7117D02*
X7203D01*
X7212D02*
X7298D01*
X7319D02*
X7453D01*
X7476D02*
X7561D01*
X7595D02*
X7752D01*
X7799D02*
X7884D01*
X7889D02*
X7971D01*
X8129D02*
X8218D01*
X8239D02*
X8325D01*
X8385D02*
X8479D01*
X6163Y1046D02*
X6268D01*
X6320D02*
X6417D01*
X6522D02*
X6611D01*
X6636D02*
X6732D01*
X6777D02*
X6875D01*
X6886D02*
X6958D01*
X7085D02*
X7085D01*
X7117D02*
X7203D01*
X7212D02*
X7298D01*
X7319D02*
X7453D01*
X7476D02*
X7561D01*
X7595D02*
X7754D01*
X7799D02*
X7884D01*
X7889D02*
X7971D01*
X8129D02*
X8218D01*
X8239D02*
X8325D01*
X8385D02*
X8479D01*
X6163Y1047D02*
X6268D01*
X6320D02*
X6417D01*
X6522D02*
X6611D01*
X6636D02*
X6732D01*
X6777D02*
X6875D01*
X6886D02*
X6955D01*
X7117D02*
X7201D01*
X7211D02*
X7298D01*
X7321D02*
X7453D01*
X7476D02*
X7563D01*
X7593D02*
X7754D01*
X7799D02*
X7884D01*
X7889D02*
X7971D01*
X8129D02*
X8218D01*
X8239D02*
X8323D01*
X8385D02*
X8479D01*
X6165Y1049D02*
X6269D01*
X6320D02*
X6417D01*
X6522D02*
X6611D01*
X6636D02*
X6732D01*
X6777D02*
X6875D01*
X6886D02*
X6953D01*
X7115D02*
X7201D01*
X7211D02*
X7296D01*
X7321D02*
X7453D01*
X7476D02*
X7563D01*
X7593D02*
X7755D01*
X7801D02*
X7884D01*
X7889D02*
X7969D01*
X8129D02*
X8218D01*
X8239D02*
X8323D01*
X8385D02*
X8479D01*
X6165Y1051D02*
X6271D01*
X6320D02*
X6417D01*
X6522D02*
X6611D01*
X6636D02*
X6732D01*
X6777D02*
X6875D01*
X6888D02*
X6951D01*
X7115D02*
X7201D01*
X7211D02*
X7296D01*
X7321D02*
X7453D01*
X7478D02*
X7563D01*
X7591D02*
X7755D01*
X7801D02*
X7886D01*
X7889D02*
X7969D01*
X8129D02*
X8218D01*
X8239D02*
X8325D01*
X8385D02*
X8479D01*
X6165Y1053D02*
X6273D01*
X6320D02*
X6417D01*
X6522D02*
X6611D01*
X6634D02*
X6732D01*
X6775D02*
X6875D01*
X6888D02*
X6949D01*
X7115D02*
X7201D01*
X7211D02*
X7296D01*
X7323D02*
X7451D01*
X7478D02*
X7563D01*
X7591D02*
X7757D01*
X7801D02*
X7969D01*
X8129D02*
X8218D01*
X8239D02*
X8325D01*
X8385D02*
X8479D01*
X6165Y1054D02*
X6275D01*
X6320D02*
X6417D01*
X6522D02*
X6611D01*
X6634D02*
X6732D01*
X6775D02*
X6875D01*
X6888D02*
X6948D01*
X7114D02*
X7201D01*
X7211D02*
X7296D01*
X7323D02*
X7451D01*
X7478D02*
X7565D01*
X7590D02*
X7757D01*
X7801D02*
X7968D01*
X8129D02*
X8218D01*
X8239D02*
X8325D01*
X8385D02*
X8479D01*
X6167Y1056D02*
X6276D01*
X6320D02*
X6417D01*
X6522D02*
X6611D01*
X6634D02*
X6732D01*
X6775D02*
X6875D01*
X6888D02*
X6946D01*
X7114D02*
X7199D01*
X7209D02*
X7296D01*
X7323D02*
X7451D01*
X7478D02*
X7565D01*
X7590D02*
X7759D01*
X7802D02*
X7968D01*
X8129D02*
X8218D01*
X8239D02*
X8325D01*
X8385D02*
X8479D01*
X6167Y1058D02*
X6278D01*
X6320D02*
X6417D01*
X6522D02*
X6611D01*
X6634D02*
X6732D01*
X6775D02*
X6875D01*
X6889D02*
X6946D01*
X6991D02*
X6992D01*
X7114D02*
X7199D01*
X7209D02*
X7296D01*
X7323D02*
X7451D01*
X7478D02*
X7565D01*
X7588D02*
X7759D01*
X7802D02*
X7968D01*
X8129D02*
X8218D01*
X8239D02*
X8325D01*
X8385D02*
X8479D01*
X6167Y1059D02*
X6281D01*
X6320D02*
X6417D01*
X6522D02*
X6611D01*
X6634D02*
X6732D01*
X6775D02*
X6875D01*
X6889D02*
X6944D01*
X6988D02*
X6994D01*
X7112D02*
X7199D01*
X7209D02*
X7295D01*
X7325D02*
X7451D01*
X7479D02*
X7565D01*
X7588D02*
X7760D01*
X7802D02*
X7966D01*
X8129D02*
X8218D01*
X8239D02*
X8326D01*
X8385D02*
X8479D01*
X6169Y1061D02*
X6285D01*
X6318D02*
X6417D01*
X6522D02*
X6611D01*
X6634D02*
X6732D01*
X6775D02*
X6875D01*
X6889D02*
X6943D01*
X6986D02*
X6995D01*
X7110D02*
X7198D01*
X7209D02*
X7295D01*
X7325D02*
X7449D01*
X7479D02*
X7567D01*
X7586D02*
X7762D01*
X7802D02*
X7966D01*
X8129D02*
X8218D01*
X8239D02*
X8326D01*
X8385D02*
X8479D01*
X6169Y1063D02*
X6288D01*
X6318D02*
X6417D01*
X6522D02*
X6611D01*
X6634D02*
X6732D01*
X6775D02*
X6875D01*
X6889D02*
X6943D01*
X6983D02*
X6997D01*
X7110D02*
X7198D01*
X7209D02*
X7295D01*
X7325D02*
X7449D01*
X7479D02*
X7567D01*
X7585D02*
X7762D01*
X7804D02*
X7966D01*
X8129D02*
X8218D01*
X8239D02*
X8328D01*
X8385D02*
X8479D01*
X6169Y1064D02*
X6292D01*
X6316D02*
X6417D01*
X6522D02*
X6611D01*
X6634D02*
X6734D01*
X6775D02*
X6875D01*
X6891D02*
X6943D01*
X6981D02*
X6997D01*
X7109D02*
X7198D01*
X7207D02*
X7295D01*
X7325D02*
X7449D01*
X7479D02*
X7567D01*
X7585D02*
X7764D01*
X7804D02*
X7966D01*
X8129D02*
X8218D01*
X8239D02*
X8328D01*
X8385D02*
X8479D01*
X6170Y1066D02*
X6298D01*
X6311D02*
X6417D01*
X6522D02*
X6611D01*
X6634D02*
X6734D01*
X6775D02*
X6875D01*
X6891D02*
X6941D01*
X6979D02*
X6997D01*
X7107D02*
X7198D01*
X7207D02*
X7295D01*
X7326D02*
X7449D01*
X7479D02*
X7565D01*
X7583D02*
X7764D01*
X7804D02*
X7964D01*
X8129D02*
X8218D01*
X8239D02*
X8330D01*
X8385D02*
X8479D01*
X6170Y1068D02*
X6417D01*
X6522D02*
X6611D01*
X6634D02*
X6735D01*
X6775D02*
X6875D01*
X6891D02*
X6941D01*
X6976D02*
X6999D01*
X7105D02*
X7196D01*
X7207D02*
X7295D01*
X7326D02*
X7448D01*
X7481D02*
X7565D01*
X7583D02*
X7765D01*
X7804D02*
X7964D01*
X8129D02*
X8218D01*
X8239D02*
X8332D01*
X8385D02*
X8479D01*
X6170Y1069D02*
X6417D01*
X6522D02*
X6611D01*
X6634D02*
X6735D01*
X6775D02*
X6875D01*
X6893D02*
X6941D01*
X6974D02*
X6999D01*
X7105D02*
X7196D01*
X7207D02*
X7295D01*
X7326D02*
X7448D01*
X7481D02*
X7563D01*
X7581D02*
X7765D01*
X7806D02*
X7964D01*
X8129D02*
X8218D01*
X8241D02*
X8332D01*
X8385D02*
X8479D01*
X6172Y1071D02*
X6417D01*
X6522D02*
X6611D01*
X6634D02*
X6737D01*
X6775D02*
X6875D01*
X6893D02*
X6941D01*
X6971D02*
X6999D01*
X7102D02*
X7196D01*
X7207D02*
X7293D01*
X7326D02*
X7448D01*
X7481D02*
X7563D01*
X7581D02*
X7767D01*
X7806D02*
X7963D01*
X8129D02*
X8218D01*
X8241D02*
X8333D01*
X8385D02*
X8479D01*
X6172Y1073D02*
X6417D01*
X6522D02*
X6611D01*
X6634D02*
X6739D01*
X6775D02*
X6875D01*
X6893D02*
X6943D01*
X6968D02*
X6999D01*
X7100D02*
X7194D01*
X7206D02*
X7293D01*
X7328D02*
X7448D01*
X7481D02*
X7561D01*
X7580D02*
X7767D01*
X7806D02*
X7963D01*
X8129D02*
X8218D01*
X8241D02*
X8335D01*
X8385D02*
X8479D01*
X6174Y1075D02*
X6417D01*
X6522D02*
X6611D01*
X6634D02*
X6740D01*
X6775D02*
X6875D01*
X6894D02*
X6943D01*
X6964D02*
X7000D01*
X7098D02*
X7194D01*
X7206D02*
X7293D01*
X7328D02*
X7448D01*
X7481D02*
X7561D01*
X7580D02*
X7769D01*
X7806D02*
X7963D01*
X8129D02*
X8218D01*
X8241D02*
X8338D01*
X8384D02*
X8479D01*
X6174Y1076D02*
X6417D01*
X6522D02*
X6611D01*
X6634D02*
X6742D01*
X6775D02*
X6875D01*
X6894D02*
X6946D01*
X6961D02*
X7000D01*
X7097D02*
X7193D01*
X7206D02*
X7293D01*
X7328D02*
X7446D01*
X7481D02*
X7560D01*
X7578D02*
X7771D01*
X7807D02*
X7961D01*
X8129D02*
X8218D01*
X8241D02*
X8343D01*
X8380D02*
X8479D01*
X6175Y1078D02*
X6417D01*
X6522D02*
X6611D01*
X6634D02*
X6745D01*
X6775D02*
X6875D01*
X6896D02*
X7002D01*
X7095D02*
X7193D01*
X7206D02*
X7293D01*
X7328D02*
X7446D01*
X7483D02*
X7560D01*
X7578D02*
X7771D01*
X7807D02*
X7961D01*
X8129D02*
X8218D01*
X8241D02*
X8350D01*
X8375D02*
X8479D01*
X6175Y1080D02*
X6417D01*
X6522D02*
X6611D01*
X6634D02*
X6749D01*
X6775D02*
X6875D01*
X6896D02*
X7002D01*
X7092D02*
X7193D01*
X7206D02*
X7293D01*
X7330D02*
X7446D01*
X7483D02*
X7558D01*
X7576D02*
X7772D01*
X7807D02*
X7961D01*
X8129D02*
X8218D01*
X8241D02*
X8479D01*
X6177Y1081D02*
X6417D01*
X6522D02*
X6611D01*
X6634D02*
X6756D01*
X6772D02*
X6875D01*
X6896D02*
X7004D01*
X7090D02*
X7191D01*
X7206D02*
X7291D01*
X7330D02*
X7446D01*
X7483D02*
X7556D01*
X7576D02*
X7772D01*
X7807D02*
X7961D01*
X8129D02*
X8218D01*
X8241D02*
X8479D01*
X6177Y1083D02*
X6417D01*
X6522D02*
X6611D01*
X6634D02*
X6875D01*
X6898D02*
X7006D01*
X7034D02*
X7040D01*
X7087D02*
X7191D01*
X7204D02*
X7291D01*
X7330D02*
X7446D01*
X7483D02*
X7556D01*
X7574D02*
X7672D01*
X7675D02*
X7774D01*
X7809D02*
X7959D01*
X8129D02*
X8218D01*
X8241D02*
X8479D01*
X6179Y1085D02*
X6417D01*
X6522D02*
X6611D01*
X6634D02*
X6875D01*
X6898D02*
X7007D01*
X7025D02*
X7048D01*
X7085D02*
X7189D01*
X7204D02*
X7291D01*
X7330D02*
X7444D01*
X7483D02*
X7555D01*
X7574D02*
X7672D01*
X7676D02*
X7774D01*
X7809D02*
X7959D01*
X8129D02*
X8218D01*
X8243D02*
X8479D01*
X6179Y1087D02*
X6417D01*
X6522D02*
X6611D01*
X6636D02*
X6875D01*
X6900D02*
X7009D01*
X7022D02*
X7050D01*
X7081D02*
X7189D01*
X7204D02*
X7291D01*
X7331D02*
X7444D01*
X7484D02*
X7555D01*
X7573D02*
X7670D01*
X7676D02*
X7776D01*
X7809D02*
X7959D01*
X8129D02*
X8218D01*
X8243D02*
X8479D01*
X6180Y1088D02*
X6417D01*
X6522D02*
X6611D01*
X6636D02*
X6875D01*
X6900D02*
X7053D01*
X7078D02*
X7187D01*
X7204D02*
X7291D01*
X7331D02*
X7444D01*
X7484D02*
X7553D01*
X7573D02*
X7670D01*
X7676D02*
X7776D01*
X7809D02*
X7958D01*
X8129D02*
X8218D01*
X8243D02*
X8479D01*
X6180Y1090D02*
X6417D01*
X6522D02*
X6611D01*
X6636D02*
X6875D01*
X6901D02*
X7055D01*
X7076D02*
X7187D01*
X7204D02*
X7291D01*
X7331D02*
X7444D01*
X7484D02*
X7553D01*
X7571D02*
X7669D01*
X7678D02*
X7777D01*
X7811D02*
X7958D01*
X8129D02*
X8218D01*
X8243D02*
X8479D01*
X6182Y1092D02*
X6417D01*
X6522D02*
X6611D01*
X6636D02*
X6875D01*
X6901D02*
X7029D01*
X7046D02*
X7057D01*
X7073D02*
X7186D01*
X7202D02*
X7289D01*
X7333D02*
X7442D01*
X7484D02*
X7551D01*
X7571D02*
X7669D01*
X7678D02*
X7777D01*
X7811D02*
X7958D01*
X8129D02*
X8218D01*
X8243D02*
X8479D01*
X6184Y1093D02*
X6417D01*
X6522D02*
X6611D01*
X6636D02*
X6875D01*
X6903D02*
X7024D01*
X7051D02*
X7062D01*
X7070D02*
X7186D01*
X7202D02*
X7289D01*
X7333D02*
X7442D01*
X7484D02*
X7551D01*
X7569D02*
X7667D01*
X7680D02*
X7779D01*
X7811D02*
X7956D01*
X8129D02*
X8218D01*
X8244D02*
X8479D01*
X6184Y1095D02*
X6417D01*
X6522D02*
X6611D01*
X6638D02*
X6875D01*
X6903D02*
X7021D01*
X7054D02*
X7184D01*
X7202D02*
X7289D01*
X7333D02*
X7442D01*
X7486D02*
X7550D01*
X7569D02*
X7667D01*
X7680D02*
X7781D01*
X7812D02*
X7956D01*
X8129D02*
X8218D01*
X8244D02*
X8479D01*
X6186Y1097D02*
X6417D01*
X6522D02*
X6611D01*
X6638D02*
X6875D01*
X6905D02*
X7019D01*
X7058D02*
X7184D01*
X7202D02*
X7289D01*
X7333D02*
X7442D01*
X7486D02*
X7550D01*
X7568D02*
X7665D01*
X7682D02*
X7781D01*
X7812D02*
X7956D01*
X8129D02*
X8218D01*
X8244D02*
X8479D01*
X6187Y1098D02*
X6417D01*
X6522D02*
X6611D01*
X6638D02*
X6875D01*
X6906D02*
X7017D01*
X7059D02*
X7182D01*
X7202D02*
X7289D01*
X7335D02*
X7442D01*
X7486D02*
X7548D01*
X7568D02*
X7665D01*
X7682D02*
X7782D01*
X7812D02*
X7954D01*
X8129D02*
X8218D01*
X8244D02*
X8479D01*
X6187Y1100D02*
X6417D01*
X6522D02*
X6611D01*
X6638D02*
X6875D01*
X6906D02*
X7016D01*
X7061D02*
X7181D01*
X7200D02*
X7289D01*
X7335D02*
X7441D01*
X7486D02*
X7548D01*
X7566D02*
X7665D01*
X7683D02*
X7782D01*
X7814D02*
X7954D01*
X8129D02*
X8218D01*
X8246D02*
X8479D01*
X6189Y1102D02*
X6417D01*
X6522D02*
X6611D01*
X6639D02*
X6875D01*
X6908D02*
X7014D01*
X7063D02*
X7181D01*
X7200D02*
X7288D01*
X7335D02*
X7441D01*
X7486D02*
X7546D01*
X7566D02*
X7663D01*
X7683D02*
X7784D01*
X7814D02*
X7954D01*
X8129D02*
X8218D01*
X8246D02*
X8479D01*
X6191Y1104D02*
X6417D01*
X6522D02*
X6611D01*
X6639D02*
X6875D01*
X6910D02*
X7012D01*
X7064D02*
X7179D01*
X7200D02*
X7288D01*
X7335D02*
X7441D01*
X7486D02*
X7546D01*
X7564D02*
X7663D01*
X7685D02*
X7784D01*
X7814D02*
X7954D01*
X8129D02*
X8218D01*
X8246D02*
X8479D01*
X6192Y1105D02*
X6417D01*
X6522D02*
X6611D01*
X6639D02*
X6875D01*
X6910D02*
X7011D01*
X7064D02*
X7177D01*
X7200D02*
X7288D01*
X7336D02*
X7441D01*
X7488D02*
X7544D01*
X7564D02*
X7662D01*
X7685D02*
X7786D01*
X7816D02*
X7952D01*
X8129D02*
X8218D01*
X8246D02*
X8479D01*
X6192Y1107D02*
X6417D01*
X6522D02*
X6611D01*
X6641D02*
X6875D01*
X6911D02*
X7011D01*
X7066D02*
X7177D01*
X7200D02*
X7288D01*
X7336D02*
X7441D01*
X7488D02*
X7544D01*
X7563D02*
X7662D01*
X7687D02*
X7786D01*
X7816D02*
X7952D01*
X8129D02*
X8218D01*
X8248D02*
X8479D01*
X6194Y1109D02*
X6417D01*
X6522D02*
X6611D01*
X6641D02*
X6875D01*
X6913D02*
X7009D01*
X7066D02*
X7176D01*
X7199D02*
X7288D01*
X7336D02*
X7439D01*
X7488D02*
X7543D01*
X7563D02*
X7660D01*
X7687D02*
X7788D01*
X7816D02*
X7952D01*
X8129D02*
X8218D01*
X8248D02*
X8479D01*
X6196Y1110D02*
X6417D01*
X6522D02*
X6611D01*
X6643D02*
X6875D01*
X6913D02*
X7009D01*
X7068D02*
X7174D01*
X7199D02*
X7288D01*
X7336D02*
X7439D01*
X7488D02*
X7543D01*
X7561D02*
X7660D01*
X7688D02*
X7789D01*
X7818D02*
X7951D01*
X8129D02*
X8218D01*
X8248D02*
X8479D01*
X6197Y1112D02*
X6417D01*
X6522D02*
X6611D01*
X6643D02*
X6875D01*
X6915D02*
X7007D01*
X7068D02*
X7174D01*
X7199D02*
X7286D01*
X7338D02*
X7439D01*
X7488D02*
X7541D01*
X7561D02*
X7658D01*
X7688D02*
X7789D01*
X7818D02*
X7951D01*
X8129D02*
X8218D01*
X8249D02*
X8479D01*
X6199Y1114D02*
X6417D01*
X6522D02*
X6611D01*
X6645D02*
X6875D01*
X6917D02*
X7007D01*
X7070D02*
X7172D01*
X7199D02*
X7286D01*
X7338D02*
X7439D01*
X7489D02*
X7541D01*
X7559D02*
X7658D01*
X7690D02*
X7791D01*
X7819D02*
X7951D01*
X8129D02*
X8218D01*
X8249D02*
X8479D01*
X6201Y1115D02*
X6417D01*
X6522D02*
X6611D01*
X6645D02*
X6875D01*
X6918D02*
X7007D01*
X7070D02*
X7170D01*
X7199D02*
X7286D01*
X7338D02*
X7439D01*
X7489D02*
X7539D01*
X7557D02*
X7657D01*
X7690D02*
X7791D01*
X7819D02*
X7949D01*
X8129D02*
X8218D01*
X8251D02*
X8479D01*
X6203Y1117D02*
X6417D01*
X6522D02*
X6611D01*
X6646D02*
X6875D01*
X6918D02*
X7007D01*
X7070D02*
X7169D01*
X7197D02*
X7286D01*
X7338D02*
X7437D01*
X7489D02*
X7539D01*
X7557D02*
X7657D01*
X7690D02*
X7793D01*
X7819D02*
X7949D01*
X8129D02*
X8218D01*
X8251D02*
X8479D01*
X6204Y1119D02*
X6417D01*
X6520D02*
X6611D01*
X6646D02*
X6875D01*
X6920D02*
X7006D01*
X7070D02*
X7167D01*
X7197D02*
X7286D01*
X7340D02*
X7437D01*
X7489D02*
X7538D01*
X7556D02*
X7657D01*
X7692D02*
X7793D01*
X7821D02*
X7949D01*
X8129D02*
X8218D01*
X8253D02*
X8479D01*
X6206Y1120D02*
X6417D01*
X6520D02*
X6611D01*
X6648D02*
X6875D01*
X6922D02*
X7006D01*
X7070D02*
X7167D01*
X7197D02*
X7286D01*
X7340D02*
X7437D01*
X7489D02*
X7538D01*
X7556D02*
X7655D01*
X7692D02*
X7794D01*
X7821D02*
X7947D01*
X8129D02*
X8218D01*
X8253D02*
X8479D01*
X6208Y1122D02*
X6417D01*
X6520D02*
X6611D01*
X6648D02*
X6875D01*
X6923D02*
X7006D01*
X7070D02*
X7165D01*
X7197D02*
X7284D01*
X7340D02*
X7437D01*
X7491D02*
X7536D01*
X7554D02*
X7655D01*
X7693D02*
X7794D01*
X7823D02*
X7947D01*
X8129D02*
X8218D01*
X8254D02*
X8479D01*
X6209Y1124D02*
X6417D01*
X6520D02*
X6611D01*
X6650D02*
X6875D01*
X6925D02*
X7006D01*
X7070D02*
X7164D01*
X7197D02*
X7284D01*
X7340D02*
X7436D01*
X7491D02*
X7536D01*
X7554D02*
X7653D01*
X7693D02*
X7796D01*
X7823D02*
X7947D01*
X8129D02*
X8218D01*
X8254D02*
X8478D01*
X6213Y1126D02*
X6416D01*
X6520D02*
X6611D01*
X6651D02*
X6875D01*
X6927D02*
X7006D01*
X7070D02*
X7162D01*
X7197D02*
X7284D01*
X7342D02*
X7436D01*
X7491D02*
X7534D01*
X7552D02*
X7653D01*
X7695D02*
X7798D01*
X7824D02*
X7946D01*
X8129D02*
X8218D01*
X8256D02*
X8478D01*
X6214Y1127D02*
X6416D01*
X6520D02*
X6611D01*
X6653D02*
X6875D01*
X6928D02*
X7007D01*
X7070D02*
X7160D01*
X7195D02*
X7284D01*
X7342D02*
X7436D01*
X7491D02*
X7534D01*
X7552D02*
X7652D01*
X7695D02*
X7798D01*
X7824D02*
X7946D01*
X8129D02*
X8218D01*
X8256D02*
X8478D01*
X6216Y1129D02*
X6416D01*
X6520D02*
X6611D01*
X6653D02*
X6875D01*
X6930D02*
X7007D01*
X7070D02*
X7159D01*
X7195D02*
X7284D01*
X7342D02*
X7436D01*
X7491D02*
X7533D01*
X7551D02*
X7652D01*
X7697D02*
X7799D01*
X7826D02*
X7944D01*
X8129D02*
X8218D01*
X8258D02*
X8478D01*
X6218Y1131D02*
X6416D01*
X6520D02*
X6611D01*
X6655D02*
X6873D01*
X6932D02*
X7007D01*
X7070D02*
X7157D01*
X7195D02*
X7284D01*
X7343D02*
X7436D01*
X7493D02*
X7533D01*
X7551D02*
X7650D01*
X7697D02*
X7799D01*
X7828D02*
X7944D01*
X8129D02*
X8218D01*
X8260D02*
X8478D01*
X6221Y1132D02*
X6416D01*
X6520D02*
X6611D01*
X6656D02*
X6873D01*
X6934D02*
X7007D01*
X7068D02*
X7155D01*
X7195D02*
X7283D01*
X7343D02*
X7434D01*
X7493D02*
X7531D01*
X7549D02*
X7650D01*
X7699D02*
X7801D01*
X7828D02*
X7942D01*
X8129D02*
X8218D01*
X8260D02*
X8478D01*
X6223Y1134D02*
X6416D01*
X6520D02*
X6611D01*
X6658D02*
X6873D01*
X6935D02*
X7009D01*
X7068D02*
X7153D01*
X7195D02*
X7283D01*
X7343D02*
X7434D01*
X7493D02*
X7529D01*
X7549D02*
X7648D01*
X7699D02*
X7801D01*
X7829D02*
X7941D01*
X8129D02*
X8218D01*
X8261D02*
X8478D01*
X6225Y1136D02*
X6414D01*
X6520D02*
X6611D01*
X6660D02*
X6873D01*
X6937D02*
X7009D01*
X7066D02*
X7152D01*
X7194D02*
X7283D01*
X7343D02*
X7434D01*
X7493D02*
X7529D01*
X7547D02*
X7648D01*
X7700D02*
X7803D01*
X7831D02*
X7939D01*
X8129D02*
X8218D01*
X8263D02*
X8476D01*
X6228Y1138D02*
X6414D01*
X6520D02*
X6611D01*
X6662D02*
X6873D01*
X6939D02*
X7011D01*
X7066D02*
X7150D01*
X7194D02*
X7283D01*
X7345D02*
X7434D01*
X7493D02*
X7527D01*
X7547D02*
X7648D01*
X7700D02*
X7803D01*
X7833D02*
X7937D01*
X8129D02*
X8218D01*
X8265D02*
X8476D01*
X6230Y1139D02*
X6414D01*
X6520D02*
X6611D01*
X6663D02*
X6873D01*
X6940D02*
X7011D01*
X7064D02*
X7147D01*
X7194D02*
X7283D01*
X7345D02*
X7432D01*
X7495D02*
X7527D01*
X7546D02*
X7646D01*
X7702D02*
X7805D01*
X7833D02*
X7935D01*
X8129D02*
X8218D01*
X8266D02*
X8476D01*
X6233Y1141D02*
X6412D01*
X6520D02*
X6611D01*
X6665D02*
X6873D01*
X6942D02*
X7012D01*
X7064D02*
X7145D01*
X7194D02*
X7283D01*
X7345D02*
X7432D01*
X7495D02*
X7526D01*
X7546D02*
X7646D01*
X7702D02*
X7806D01*
X7835D02*
X7934D01*
X8129D02*
X8218D01*
X8268D02*
X8476D01*
X6235Y1143D02*
X6412D01*
X6520D02*
X6611D01*
X6667D02*
X6871D01*
X6945D02*
X7014D01*
X7063D02*
X7143D01*
X7194D02*
X7281D01*
X7345D02*
X7432D01*
X7495D02*
X7526D01*
X7544D02*
X7645D01*
X7704D02*
X7806D01*
X7836D02*
X7932D01*
X8129D02*
X8218D01*
X8270D02*
X8474D01*
X6238Y1144D02*
X6411D01*
X6520D02*
X6611D01*
X6668D02*
X6871D01*
X6947D02*
X7016D01*
X7061D02*
X7142D01*
X7192D02*
X7281D01*
X7347D02*
X7431D01*
X7495D02*
X7524D01*
X7544D02*
X7645D01*
X7704D02*
X7808D01*
X7838D02*
X7930D01*
X8129D02*
X8218D01*
X8273D02*
X8474D01*
X6242Y1146D02*
X6409D01*
X6520D02*
X6611D01*
X6670D02*
X6871D01*
X6949D02*
X7017D01*
X7059D02*
X7138D01*
X7192D02*
X7281D01*
X7347D02*
X7431D01*
X7495D02*
X7524D01*
X7542D02*
X7643D01*
X7704D02*
X7808D01*
X7840D02*
X7929D01*
X8129D02*
X8218D01*
X8275D02*
X8473D01*
X6245Y1148D02*
X6409D01*
X6520D02*
X6611D01*
X6672D02*
X6871D01*
X6952D02*
X7019D01*
X7056D02*
X7136D01*
X7192D02*
X7281D01*
X7348D02*
X7431D01*
X7496D02*
X7522D01*
X7542D02*
X7643D01*
X7705D02*
X7810D01*
X7843D02*
X7925D01*
X8129D02*
X8218D01*
X8278D02*
X8473D01*
X6250Y1149D02*
X6407D01*
X6520D02*
X6611D01*
X6675D02*
X6870D01*
X6954D02*
X7023D01*
X7054D02*
X7135D01*
X7192D02*
X7281D01*
X7348D02*
X7429D01*
X7496D02*
X7522D01*
X7540D02*
X7641D01*
X7705D02*
X7810D01*
X7845D02*
X7924D01*
X8129D02*
X8218D01*
X8280D02*
X8471D01*
X6255Y1151D02*
X6405D01*
X6520D02*
X6611D01*
X6677D02*
X6870D01*
X6956D02*
X7026D01*
X7051D02*
X7131D01*
X7192D02*
X7281D01*
X7350D02*
X7429D01*
X7496D02*
X7521D01*
X7540D02*
X7641D01*
X7707D02*
X7811D01*
X7846D02*
X7920D01*
X8129D02*
X8218D01*
X8283D02*
X8469D01*
X6260Y1153D02*
X6402D01*
X6520D02*
X6611D01*
X6680D02*
X6868D01*
X6959D02*
X7033D01*
X7044D02*
X7130D01*
X7190D02*
X7279D01*
X7352D02*
X7427D01*
X7496D02*
X7521D01*
X7539D02*
X7640D01*
X7707D02*
X7813D01*
X7850D02*
X7917D01*
X8129D02*
X8218D01*
X8288D02*
X8469D01*
X6269Y1155D02*
X6399D01*
X6520D02*
X6611D01*
X6684D02*
X6868D01*
X6962D02*
X7126D01*
X7190D02*
X7279D01*
X7352D02*
X7425D01*
X7496D02*
X7519D01*
X7539D02*
X7640D01*
X7709D02*
X7813D01*
X7853D02*
X7912D01*
X8129D02*
X8218D01*
X8294D02*
X8466D01*
X6286Y1156D02*
X6392D01*
X6520D02*
X6611D01*
X6687D02*
X6866D01*
X6964D02*
X7123D01*
X7190D02*
X7279D01*
X7353D02*
X7425D01*
X7498D02*
X7519D01*
X7537D02*
X7638D01*
X7709D02*
X7815D01*
X7858D02*
X7907D01*
X8129D02*
X8218D01*
X8299D02*
X8464D01*
X6520Y1158D02*
X6611D01*
X6692D02*
X6864D01*
X6968D02*
X7119D01*
X7190D02*
X7279D01*
X7355D02*
X7424D01*
X7498D02*
X7517D01*
X7537D02*
X7638D01*
X7710D02*
X7815D01*
X7865D02*
X7900D01*
X8305D02*
X8462D01*
X6699Y1160D02*
X6863D01*
X6971D02*
X7118D01*
X7359D02*
X7422D01*
X8317D02*
X8459D01*
X6707Y1161D02*
X6861D01*
X6974D02*
X7114D01*
X7360D02*
X7419D01*
X8338D02*
X8452D01*
X6723Y1163D02*
X6858D01*
X6978D02*
X7109D01*
X7364D02*
X7415D01*
X6983Y1165D02*
X7106D01*
X7369D02*
X7412D01*
X6986Y1166D02*
X7102D01*
X7382D02*
X7398D01*
X6991Y1168D02*
X7097D01*
X6996Y1170D02*
X7092D01*
X7002Y1171D02*
X7085D01*
X7008Y1173D02*
X7079D01*
X7019Y1175D02*
X7070D01*
X7032Y1177D02*
X7055D01*
M02*
