M48
;Layer_Color=9474304
;FILE_FORMAT=2:3
INCH,LZ
;TYPE=PLATED
T1F00S00C0.012
T2F00S00C0.028
T3F00S00C0.032
T4F00S00C0.040
T5F00S00C0.045
T6F00S00C0.047
T7F00S00C0.062
T8F00S00C0.080
T9F00S00C0.090
T10F00S00C0.091
T11F00S00C0.120
;TYPE=NON_PLATED
T12F00S00C0.125
T13F00S00C0.156
T14F00S00C0.390
%
T01
X07825Y002
X14483Y00925
Y01575
X108Y017
X10785Y01455
X1078Y0142
X1074Y01385
X107Y0135
X10509Y01581
X10455Y01655
X10425Y0114
X10375
X10325
X10275
X10225
X10175
X10125
X10075
X09965Y0122
X09775Y0152
X09795Y017
X09725Y00945
X09675Y0097
X09625Y00995
X09575Y0102
X09525Y01045
X09475Y0107
X09425Y01095
X09375Y0112
X09325Y0115
X09275Y00895
X09521Y00879
X09025Y00945
X08975Y0097
X08925Y00995
X08875Y0102
X08825Y01045
X08775Y0107
X08725Y01095
X08675Y0112
X08625Y0115
X09025Y01485
X09075Y0151
X085Y01455
X08275Y0124
X0825Y0119
X0821Y01215
X08225Y0127
X08085Y01295
X0806Y0132
X08035Y0092
X0801Y00895
X07985Y00945
X0796Y0097
X07935Y00995
X0791Y0102
X07885Y01045
X0786Y0107
X07835Y01095
X0781Y0112
X07795Y00835
X08145Y0085
X07275Y0087
X07305Y0118
X0725Y0126
X07437Y0124
X07463Y0119
X07488Y01215
X0754Y0124
X07735Y0151
X0776Y01555
X07785Y01581
X07425Y0165
X0738Y0168
X07345Y0171
X0731Y0174
X07275Y0177
X072Y017
X071Y01855
X0705Y0149
X07475Y01805
X07525
X07575
X06895Y01615
X0678Y0161
X06755Y01635
X06805Y01581
X0687Y01455
X07005
X06975Y01145
X06715Y01225
X0669Y0125
X0667Y0152
X067Y017
X06514Y01581
X06425Y0149
Y00945
X06375Y0097
X06325Y00995
X06275Y0102
X06225Y01045
X06175Y0107
X06125Y01095
X06075Y0112
X06025Y01145
X0595Y01175
X05835Y012
X05725Y00945
X05675Y0097
X05625Y00995
X05575Y0102
X05525Y01045
X05475Y0107
X05573Y00832
X05725Y015
X05809Y01581
X06795Y0092
X0687Y00895
X06728Y00837
X0673Y00763
X05425Y01095
X05375Y0112
X05325Y01145
X0524Y01225
X0516Y0125
X05025Y01475
X05109Y01581
X05025Y00945
X04975Y0097
X04925Y00995
X04875Y0102
X04825Y01045
X04775Y0107
X04725Y01095
X04675Y0112
X04625Y0115
X04893Y00828
X0425Y0184
X04215Y0187
X00517Y018
Y0145
Y008
Y0215
Y028
X013Y0303
Y0307
Y0311
Y0315
Y0319
X01425Y02445
X01465Y0246
X015Y02475
X02559Y028
X04184
X0418Y019
X04145Y0193
X0411Y0196
X05804Y02805
X06805Y0287
X0678Y029
X06755Y02925
X0678Y03035
X06755Y03075
X06805Y0311
X0673Y0265
X0699Y02385
X0705Y025
X07035Y027
X07135Y02715
X07375Y0272
Y02875
X07425Y0289
X07475Y02915
X07525Y0294
X0735Y02935
X073Y02945
X07275Y02925
X07325Y029
X0725Y03075
X07085Y0297
X0705Y032
X07225Y03365
X07275Y034
X07425Y0343
X07475Y034
X07525Y0337
X07575Y03145
X07745Y033
X0777Y0333
X07785Y0294
X0776Y02915
X07735Y0289
X07475Y025
X07425
X07375
X07325
X07275
Y02125
X07225Y0215
X07325Y021
X07375Y02075
X07425Y0205
X07475Y02025
X07525Y02
X07625Y01975
X07985
X0796Y02
X07935Y02025
X0791Y0205
X07885Y02075
X0786Y021
X07835Y02125
X0781Y0215
X082Y0324
X08225Y0327
X09059Y028
X10684
X12304Y02805
X1319Y0221
X132Y02175
X1321Y0214
X1323Y02105
X1325Y0207
X14483Y01925
Y02275
Y02875
X135Y0338
Y0342
Y0346
Y035
Y0405
X14483Y042
X14488Y0485
X1264Y04
X124Y03946
X11015Y04
X10769Y03946
X09385Y04
X09141Y03946
X0825Y0365
X07985Y03675
X0796Y037
X07935Y03725
X0791Y0375
X07885Y03775
X0786Y038
X07835Y03825
X0781Y0385
X07625Y03675
X07525Y037
X07475Y03725
X07425Y0375
X07375Y03775
X07325Y038
X07275Y03825
X07225Y0385
Y0365
X07325Y0349
X07375Y0346
X0705Y0349
Y04
X071Y043
X07225Y042
X07275
X07325
X07375
X07425
X07475
X07525
X07575
X07675Y0483
X07705Y0486
X0735Y0493
X07313Y04902
X07264Y0493
X0722Y04975
X0732Y0499
X07125Y0491
X0706Y0495
X0811Y04902
X06895Y0489
X062Y04925
X0603Y04975
X06Y0495
X057Y04925
X0553Y04975
X055Y0495
X05896Y03946
X06145Y04
X04525
X04264Y03946
X0422Y04855
X04185Y04825
X0415Y0479
X041Y0475
X04255Y0489
X045Y0495
X04531Y04975
X047Y04925
X05Y0495
X05031Y04975
X052Y04925
X0289Y04
X02641Y03946
X016Y03485
Y03445
X00517Y0411
Y04715
Y0507
Y0542
Y0607
X04342Y06037
Y05963
X04613Y06052
X0465Y06025
X0469Y05995
X0451Y062
X0513Y062
Y0617
Y0614
Y0611
Y0608
Y0605
Y0602
Y0599
Y0596
Y0593
X054
Y0596
Y0599
Y0602
Y0605
Y0608
Y0611
Y0614
Y0617
Y062
X0543Y0579
Y0576
X0528Y0531
X052Y05225
X05137Y0515
X05063
X05Y05275
X0478Y0531
X047Y05225
X04637Y0515
X04563
X045Y05275
X044Y05555
X047Y0553
X0546Y0576
Y0579
X0549
X0552
Y0582
X0555
Y0585
Y0588
X0558
Y0585
Y0582
Y0579
X0555
Y0576
X0552
X0549
X0558
X055Y05275
X05563Y0515
X05637
X057Y05225
X0578Y0531
X06Y05275
X06063Y0515
X06137
X062Y05225
X0628Y0531
X0636Y052
X06435Y05172
X0641Y05045
X0651Y0526
X0658Y0523
X06605Y0531
X0659Y0547
X06565Y055
X06725Y05495
X06745Y0552
X0672Y0559
X06745Y0562
X06798Y05437
Y05363
X068Y0531
Y0526
X06845Y05285
X0685Y0523
X06872Y05202
X06848Y05172
X07003Y05133
X06485Y0559
X0646Y0562
X06425Y0561
X063Y0579
Y061
X06136
X06015Y06055
X06387Y06237
X06715
X07067Y05695
X0713Y0572
X07155Y0551
X07225Y055
X07215Y0536
X0728Y05335
X07395Y05325
Y05275
X07397Y05467
X075Y05655
Y058
X074
X073
X0766Y05775
X078Y05205
X0785Y0518
X0791Y05165
X07935Y0519
X0796Y05215
X07985Y0524
X07885Y0511
X0786Y05085
X07835Y0506
X0781Y05035
X07335Y05115
X07285Y05125
X07245Y05145
X0724Y05105
X07205Y05115
X07146Y05114
X07125Y05175
X0702Y0526
Y053
X0709Y05475
X08165Y06075
X0847Y05813
X0855Y065
X0865
X0875
X0885
X0895
X0905
X0915
X0925
X0935
X0945
X0955
X0965
X0975
X0985
X1027Y0593
X1088Y059
X10945Y05745
X1088Y0635
X1015Y05305
X11698Y05052
X14478Y052
X14483Y05555
X14478Y06155
X11775Y067
T02
X07925Y0016
X12Y003
Y01
Y017
X111Y0135
X106Y013
Y015
Y009
X111Y0065
X099Y013
Y015
X092
Y013
Y0085
X0866Y00537
X08295Y007
X066Y0087
Y013
Y015
X059
Y013
X05705Y0087
X0565
X052Y013
Y015
X039Y0155
Y0085
X03Y012
Y005
Y019
X0635Y024
X06393Y02443
X06435Y02485
X07025Y02575
X084Y0253
X0846Y0247
X084Y023
X1355Y0365
X1373Y036
X1055Y048
X104
X10252Y04802
X097Y048
X096
X095
X094
X093
X092
X091
X09
X089
X088
X0845Y0395
X08415Y0373
X0702Y0356
X0725Y0475
X0665Y0375
X03Y053
Y06
X039Y0635
Y0565
X05065Y058
X05065Y05859
X05065Y05924
X07119Y0597
X0712Y0583
X093Y0505
X094
X095
X096
X097
X10252Y05182
X104Y0525
Y051
X1055
Y0525
Y05525
X104
X111Y0545
Y0615
X12Y058
Y051
Y065
X1095Y0673
X10945Y0687
X03Y067
T03
X101Y0635
Y0645
Y0655
T04
X05546Y06547
X05644
X1015Y06765
X1005
X0995
X0985
X0975
X0965
X0955
X0945
X0935
X0925
X0915
X0905
X0895
X0885
X0875
X0865
X0855
X0845
X0835
X0825
X05644Y06673
X05546
T05
X02016Y02414
X02116
X02261
X01967Y02627
X01867
X0191Y02868
X0201
X02052Y0311
X01952
X01995Y03351
X02095
X03092Y03287
X03192
X03149Y03046
X03049
X03007Y02805
X03106
X03064Y02563
X02964
X02851Y02414
X02751
X02606
X02506
X02361
X03641
X03741
X03886
X03592Y02627
X03492
X03534Y02868
X03635
X03677Y0311
X03577
X0362Y03351
X0372
X04717Y03287
X04817
X04774Y03046
X04674
X04631Y02805
X04732
X04689Y02563
X04589
X04476Y02414
X04376
X04231
X04131
X03986
X05266
X05366
X05217Y02627
X05117
X0516Y02868
X0526
X05302Y0311
X05202
X05245Y03351
X05345
X06342Y03287
X06442
X06399Y03046
X06299
X06256Y02805
X06357
X06314Y02563
X06214
X06101Y02414
X06001
X05856
X05756
X05611
X05511
X08516
X08467Y02627
X08367
X0841Y02868
X08509
X08552Y0311
X08452
X08495Y03351
X08595
X08616Y02414
X08761
X08861
X09006
X09106
X09251
X09351
X09464Y02563
X09564
X09606Y02805
X09507
X09549Y03046
X09649
X09692Y03287
X09592
X1012Y03351
X10077Y0311
X10035Y02868
X10134
X10092Y02627
X09992
X10141Y02414
X10241
X10386
X10486
X10631
X10731
X10876
X10976
X11089Y02563
X11189
X11231Y02805
X11132
X11174Y03046
X11274
X11317Y03287
X11217
X1166Y02868
X11617Y02627
X10177Y0311
X1022Y03351
X11745
X11845
X11802Y0311
X11702
X11759Y02868
X11717Y02627
X11766Y02414
X11866
X12011
X12111
X12256
X12356
X12501
X12601
X12714Y02563
X12814
X12856Y02805
X12757
X12799Y03046
X12899
X12942Y03287
X12842
X12792Y035
X12693
X12547
X12448
X12302
X12203
X12057
X11958
X11908Y03713
X11808
X11851Y03954
X11951
X11993Y04195
X11894
X11936Y04437
X12036
X12149Y04586
X12249
X12394
X12494
X12639
X12739
X12884
X12984
X13033Y04373
X13133
X1309Y04132
X12991
X12948Y0389
X13048
X13005Y03649
X12905
X1138
X1128
X11167Y035
X11068
X10922
X10823
X10677
X10578
X10432
X10333
X10283Y03713
X10183
X10226Y03954
X10326
X10368Y04195
X10269
X10311Y04437
X10411
X10524Y04586
X10624
X10769
X10869
X11014
X11114
X11259
X11359
X11408Y04373
X11508
X11465Y04132
X11366
X11323Y0389
X11423
X09798
X09698
X09655Y03649
X09755
X09542Y035
X09443
X09297
X09198
X09052
X08953
X08807
X08708
X08658Y03713
X08701Y03954
X08601
X08644Y04195
X08743
X08786Y04437
X08686
X08899Y04586
X08999
X09144
X09244
X09389
X09489
X09634
X09734
X09783Y04373
X09883
X0984Y04132
X09741
X08558Y03713
X06505Y03649
X06405
X06293Y035
X06193
X06048
X05948
X05802
X05702
X05557
X05457
X05451Y03954
X05494Y04195
X05536Y04437
X05649Y04586
X05749
X05894
X05994
X06139
X06239
X06384
X06484
X06533Y04373
X06633
X0659Y04132
X0649
X06448Y0389
X06548
X05351Y03954
X05393Y04195
X05436Y04437
X05008Y04373
X04908
X04859Y04586
X04759
X04614
X04514
X04369
X04269
X04124
X04024
X03911Y04437
X03932Y035
X04077
X04177
X04323
X04423
X04568
X04668
X0478Y03649
X0488
X04923Y0389
X04823
X04865Y04132
X04965
X05308Y03713
X05408
X03783
X03683
X03726Y03954
X03826
X03868Y04195
X03769
X03811Y04437
X03383Y04373
X03283
X03234Y04586
X03134
X02989
X02889
X02744
X02644
X02499
X02399
X02453Y035
X02553
X02695
X02795
X02943
X03043
X03155Y03649
X03255
X03298Y0389
X03198
X0324Y04132
X03341
X03832Y035
X02307
X02207
X02158Y03713
X02058
X02101Y03954
X02201
X02243Y04195
X02144
X02186Y04437
X02286
X04362Y06544
X04471
X0458
X04689
X04798
X04744Y06656
X04635
X04525
X04417
T06
X08398Y063
X09602
T07
X0712Y0677
X0692
X0672
X0652
X0632
X0612
T08
X13941Y01425
Y016
Y01775
X143
Y016
Y01425
X1015Y00879
Y0052
X09975
X098
Y00879
X09975
X01059Y01425
Y016
Y01775
X007
Y016
Y01425
Y0195
Y02125
Y023
X01059
Y02125
Y0195
X13941
Y02125
Y023
X143
Y02125
Y0195
X143Y047
Y04875
X13941
Y047
X01059Y04695
Y0487
X007
Y04695
Y05045
Y0522
Y05395
Y0557
X01059
Y05395
Y0522
Y05045
X13941Y0505
Y05225
Y054
Y05575
X143
Y054
Y05225
Y0505
T09
X063Y0025
X065
X067
X069
X071
Y00555
X069Y0055
X067
X065
X063
T10
X05832Y06567
X05358
T11
X04088Y066
X05072
T12
X09547Y0028
X10403
X1454Y01172
X013
X0046
Y02553
X013
X137
X1454
X1454Y04447
X137
X013Y04442
X0046
Y05823
X013
X137Y05828
X1454
T13
X137Y01172
T14
X075Y003
X146Y004
X004
X146Y066
X075Y067
X004Y066
M30
