%FSLAX23Y23*%
%MOIN*%
G70*
G01*
G75*
G04 Layer_Color=32768*
%ADD10R,0.012X0.063*%
%ADD11R,0.050X0.055*%
%ADD12R,0.063X0.012*%
%ADD13R,0.055X0.050*%
%ADD14R,0.012X0.024*%
%ADD15R,0.024X0.012*%
%ADD16R,0.132X0.132*%
%ADD17R,0.024X0.081*%
%ADD18R,0.024X0.087*%
%ADD19R,0.075X0.051*%
%ADD20R,0.089X0.024*%
%ADD21R,0.055X0.065*%
%ADD22R,0.065X0.055*%
%ADD23R,0.035X0.037*%
%ADD24R,0.035X0.037*%
%ADD25R,0.100X0.100*%
%ADD26R,0.050X0.110*%
%ADD27R,0.110X0.115*%
%ADD28R,0.080X0.160*%
%ADD29R,0.450X0.450*%
%ADD30R,0.036X0.085*%
%ADD31R,0.425X0.410*%
%ADD32R,0.016X0.085*%
%ADD33R,0.016X0.085*%
%ADD34R,0.200X0.100*%
%ADD35R,0.063X0.031*%
%ADD36R,0.039X0.063*%
%ADD37R,0.160X0.080*%
%ADD38R,0.450X0.450*%
%ADD39R,0.217X0.280*%
%ADD40R,0.081X0.024*%
%ADD41R,0.012X0.063*%
%ADD42C,0.050*%
%ADD43R,0.102X0.094*%
%ADD44R,0.079X0.126*%
%ADD45R,0.079X0.126*%
%ADD46C,0.010*%
%ADD47C,0.020*%
%ADD48C,0.050*%
%ADD49C,0.030*%
%ADD50C,0.100*%
%ADD51C,0.150*%
%ADD52C,0.035*%
%ADD53C,0.040*%
%ADD54C,0.005*%
%ADD55C,0.100*%
%ADD56R,0.100X0.100*%
%ADD57C,0.125*%
%ADD58O,0.125X0.160*%
%ADD59R,0.125X0.160*%
%ADD60C,0.065*%
%ADD61R,0.065X0.065*%
%ADD62C,0.079*%
%ADD63R,0.160X0.125*%
%ADD64O,0.160X0.125*%
%ADD65C,0.070*%
%ADD66R,0.070X0.070*%
%ADD67C,0.060*%
%ADD68C,0.150*%
%ADD69R,0.070X0.070*%
%ADD70C,0.150*%
%ADD71C,0.140*%
%ADD72C,0.024*%
%ADD73C,0.008*%
%ADD74C,0.102*%
%ADD75C,0.165*%
%ADD76C,0.120*%
%ADD77C,0.080*%
%ADD78C,0.087*%
%ADD79C,0.196*%
%ADD80C,0.590*%
%ADD81C,0.072*%
%ADD82C,0.131*%
%ADD83C,0.085*%
%ADD84C,0.130*%
%ADD85C,0.052*%
%ADD86C,0.068*%
%ADD87C,0.160*%
%ADD88C,0.080*%
%ADD89C,0.010*%
%ADD90C,0.008*%
%ADD91C,0.005*%
%ADD92C,0.031*%
%ADD93C,0.008*%
%ADD94C,0.001*%
%ADD95C,0.002*%
%ADD96C,0.015*%
%ADD97R,0.020X0.071*%
%ADD98R,0.058X0.063*%
%ADD99R,0.071X0.020*%
%ADD100R,0.063X0.058*%
%ADD101R,0.016X0.028*%
%ADD102R,0.028X0.016*%
%ADD103R,0.140X0.140*%
%ADD104R,0.032X0.089*%
%ADD105R,0.032X0.095*%
%ADD106R,0.083X0.059*%
%ADD107R,0.097X0.032*%
%ADD108R,0.063X0.073*%
%ADD109R,0.073X0.063*%
%ADD110R,0.043X0.045*%
%ADD111R,0.043X0.045*%
%ADD112R,0.108X0.108*%
%ADD113R,0.058X0.118*%
%ADD114R,0.118X0.123*%
%ADD115R,0.088X0.168*%
%ADD116R,0.458X0.458*%
%ADD117R,0.044X0.093*%
%ADD118R,0.433X0.418*%
%ADD119R,0.024X0.093*%
%ADD120R,0.024X0.093*%
%ADD121R,0.208X0.108*%
%ADD122R,0.071X0.039*%
%ADD123R,0.047X0.071*%
%ADD124R,0.168X0.088*%
%ADD125R,0.458X0.458*%
%ADD126R,0.225X0.288*%
%ADD127R,0.089X0.032*%
%ADD128R,0.020X0.071*%
%ADD129C,0.090*%
%ADD130C,0.058*%
%ADD131R,0.110X0.102*%
%ADD132R,0.087X0.134*%
%ADD133R,0.087X0.134*%
%ADD134C,0.108*%
%ADD135R,0.108X0.108*%
%ADD136C,0.133*%
%ADD137O,0.133X0.168*%
%ADD138R,0.133X0.168*%
%ADD139C,0.073*%
%ADD140R,0.073X0.073*%
%ADD141C,0.087*%
%ADD142R,0.168X0.133*%
%ADD143O,0.168X0.133*%
%ADD144C,0.008*%
%ADD145C,0.078*%
%ADD146R,0.078X0.078*%
%ADD147C,0.158*%
%ADD148R,0.078X0.078*%
%ADD149C,0.158*%
%ADD150C,0.148*%
%ADD151C,0.032*%
%ADD152C,0.002*%
%ADD153C,0.006*%
D46*
X6005Y6420D02*
Y6550D01*
Y6420D02*
X6600D01*
Y6550D01*
X6005D02*
X6600D01*
D54*
X15063Y4815D02*
X15055Y4807D01*
Y4792D01*
X15063Y4785D01*
X15093D01*
X15100Y4792D01*
Y4807D01*
X15093Y4815D01*
X15070Y4830D02*
X15093D01*
X15100Y4837D01*
Y4860D01*
X15070D01*
X15063Y4882D02*
X15070D01*
Y4875D01*
Y4890D01*
Y4882D01*
X15093D01*
X15100Y4890D01*
Y4920D02*
Y4935D01*
X15093Y4942D01*
X15078D01*
X15070Y4935D01*
Y4920D01*
X15078Y4912D01*
X15093D01*
X15100Y4920D01*
X15070Y4957D02*
X15093D01*
X15100Y4965D01*
Y4987D01*
X15070D01*
X15063Y5010D02*
X15070D01*
Y5002D01*
Y5017D01*
Y5010D01*
X15093D01*
X15100Y5017D01*
Y5040D02*
Y5062D01*
X15093Y5070D01*
X15085Y5062D01*
Y5047D01*
X15078Y5040D01*
X15070Y5047D01*
Y5070D01*
D73*
X12150Y4405D02*
Y4440D01*
Y4405D02*
X12225Y4330D01*
Y4270D02*
Y4330D01*
Y4270D02*
X12300D01*
Y4440D01*
X12150D02*
X12300D01*
X13125Y3580D02*
X13280D01*
Y3665D01*
X13190Y3755D02*
X13280Y3665D01*
X13125Y3755D02*
X13190D01*
X13125Y3580D02*
Y3755D01*
X13235Y4350D02*
X13320D01*
X13435Y4235D01*
Y4170D02*
Y4235D01*
X13235Y4170D02*
X13435D01*
X13235D02*
Y4350D01*
X10535Y4445D02*
X10670D01*
Y4300D02*
Y4445D01*
X10620Y4300D02*
X10670D01*
X10535Y4385D02*
X10620Y4300D01*
X10535Y4385D02*
Y4445D01*
X8900Y4455D02*
X9045D01*
Y4300D02*
Y4455D01*
X8985Y4300D02*
X9045D01*
X8900Y4385D02*
X8985Y4300D01*
X8900Y4385D02*
Y4455D01*
X8755Y3775D02*
X8870D01*
Y3685D02*
Y3775D01*
X8755Y3685D02*
X8870D01*
X8755D02*
Y3775D01*
X8360Y4750D02*
X8440D01*
Y4475D02*
Y4750D01*
X8360Y4475D02*
X8440D01*
X8360D02*
Y4750D01*
X9875Y4600D02*
X10195D01*
Y4355D02*
Y4600D01*
X9985Y4355D02*
X10195D01*
X9985D02*
Y4445D01*
X9875Y4555D02*
X9985Y4445D01*
X9875Y4555D02*
Y4605D01*
X12830Y1350D02*
X13125D01*
X12975Y1200D02*
X13125Y1350D01*
X12830Y1200D02*
X12975D01*
X12830D02*
Y1350D01*
X12835Y1700D02*
X13185D01*
X13035Y1550D02*
X13185Y1700D01*
X12835Y1550D02*
X13035D01*
X12835D02*
Y1700D01*
X12830Y2020D02*
X13160D01*
Y1900D02*
Y2020D01*
X12830Y1900D02*
X13160D01*
X12830D02*
Y2020D01*
X10580Y1565D02*
Y1650D01*
Y1565D02*
X10640D01*
X10695Y1510D01*
X10765D01*
X10855Y1600D01*
Y1650D01*
X10580D02*
X10855D01*
X10860Y1440D02*
X11020D01*
Y1245D02*
Y1440D01*
X10860Y1245D02*
X11020D01*
X10860D02*
Y1440D01*
X8290Y2065D02*
X8415D01*
Y1835D02*
Y2065D01*
X8290Y1835D02*
X8415D01*
X8290D02*
Y2065D01*
X10500Y1130D02*
X10645D01*
Y970D02*
Y1130D01*
X10500Y970D02*
X10645D01*
X10500D02*
Y1130D01*
X5000Y4700D02*
X5500D01*
Y4600D02*
Y4700D01*
X5000Y4600D02*
X5500D01*
X5000D02*
Y4700D01*
X2060Y2685D02*
X2210D01*
Y2555D02*
Y2685D01*
X2060Y2555D02*
X2210D01*
X2060D02*
Y2685D01*
X2300Y3700D02*
X2400D01*
Y3585D02*
Y3700D01*
X2350Y3585D02*
X2400D01*
X2300Y3635D02*
X2350Y3585D01*
X2300Y3635D02*
Y3700D01*
X1650Y6350D02*
X2000D01*
X1650Y6000D02*
X2000Y6350D01*
X1650Y6000D02*
Y6350D01*
X2340Y3100D02*
X2440D01*
Y3265D01*
X2340D02*
X2440D01*
X2340Y3100D02*
Y3265D01*
X3450Y3640D02*
X3600D01*
Y3580D02*
Y3640D01*
X3450Y3580D02*
X3600D01*
X3450D02*
Y3640D01*
X3955Y3100D02*
X4050D01*
Y3245D01*
X3955D02*
X4050D01*
X3955Y3100D02*
Y3245D01*
X3700Y2665D02*
X3835D01*
Y2565D02*
Y2665D01*
X3700Y2565D02*
X3835D01*
X3700D02*
Y2665D01*
X7000Y4450D02*
X7060Y4390D01*
X7600D01*
Y4450D01*
X7000D02*
X7600D01*
X12085Y3200D02*
X12155D01*
Y3000D02*
Y3200D01*
X12085Y3000D02*
X12155D01*
X12085D02*
Y3200D01*
X11600Y4550D02*
X11800Y4750D01*
X12030D01*
X11830Y4550D02*
X12030Y4750D01*
X11600Y4550D02*
X11830D01*
X11135Y6070D02*
X11280D01*
Y5945D02*
Y6070D01*
X11135Y5945D02*
X11280D01*
X11135D02*
Y6070D01*
X10600Y5950D02*
X10905Y6255D01*
X11015D01*
Y6115D02*
Y6255D01*
X10850Y5950D02*
X11015Y6115D01*
X10600Y5950D02*
X10850D01*
X11150Y6550D02*
X11335Y6735D01*
X11615D01*
X11800Y6550D01*
X11150D02*
X11800D01*
X6450Y6150D02*
X6600D01*
Y5800D02*
Y6150D01*
X6450Y5800D02*
X6600D01*
X6450D02*
Y6150D01*
X6815Y6450D02*
X7700D01*
Y6250D02*
Y6450D01*
X6815Y6250D02*
X7700D01*
X6815D02*
Y6450D01*
X2250Y4650D02*
Y4950D01*
X2150Y5050D02*
X2250Y4950D01*
X1850Y5050D02*
X2150D01*
X1650Y4850D02*
X1850Y5050D01*
X1650Y4650D02*
Y4850D01*
Y4650D02*
X2250D01*
X1250Y3900D02*
X1700D01*
Y3550D02*
Y3900D01*
X1250Y3550D02*
X1700D01*
X1250D02*
Y3900D01*
X1950Y2180D02*
X2000D01*
X1950D02*
X2195Y1935D01*
Y2180D01*
X2000D02*
X2195D01*
X1900Y1000D02*
Y1200D01*
X2100Y1000D01*
X2200D01*
Y860D02*
Y1000D01*
X2040Y860D02*
X2200D01*
X1900Y1000D02*
X2040Y860D01*
X2500Y2170D02*
X2990D01*
X3260Y1900D01*
X3130D02*
X3260D01*
X2940Y2090D02*
X3130Y1900D01*
X2500Y2090D02*
X2940D01*
X2500D02*
Y2170D01*
X4300Y1600D02*
X4550D01*
Y1160D02*
Y1600D01*
Y1160D02*
X4800Y910D01*
Y850D02*
Y910D01*
X4300Y850D02*
X4800D01*
X4300D02*
Y1595D01*
X5500Y3780D02*
X5620D01*
Y3675D02*
Y3780D01*
X5600Y3655D02*
X5620Y3675D01*
X5500Y3655D02*
X5600D01*
X5500D02*
Y3780D01*
X5600Y3300D02*
X5860D01*
Y3250D02*
Y3300D01*
X5720Y3250D02*
X5860D01*
X5660Y3190D02*
X5720Y3250D01*
X5660Y3100D02*
Y3190D01*
X5600Y3100D02*
X5660D01*
X5600D02*
Y3300D01*
X5325Y2660D02*
X5460D01*
Y2555D02*
Y2660D01*
X5325Y2555D02*
X5460D01*
X5325D02*
Y2660D01*
X8555Y2685D02*
X8700D01*
Y2565D02*
Y2685D01*
X8555Y2565D02*
X8700D01*
X8555D02*
Y2685D01*
X8850Y3200D02*
X8925D01*
Y3000D02*
Y3200D01*
X8850Y3000D02*
X8925D01*
X8850D02*
Y3200D01*
X9150Y3130D02*
X9300D01*
Y3000D02*
Y3130D01*
X9150Y3000D02*
X9300D01*
X9150D02*
Y3130D01*
X11100Y2420D02*
X11270D01*
X11200Y2350D02*
X11270Y2420D01*
X11100Y2350D02*
X11200D01*
X11100D02*
Y2420D01*
X10200Y2650D02*
X10350D01*
Y2550D02*
Y2650D01*
X10200Y2550D02*
X10350D01*
X10200D02*
Y2650D01*
X10450Y3200D02*
X10550D01*
Y3000D02*
Y3200D01*
X10450Y3000D02*
X10550D01*
X10450D02*
Y3200D01*
X10750Y3000D02*
Y3080D01*
X10800Y3130D01*
X10950D01*
Y3000D02*
Y3130D01*
X10750Y3000D02*
X10950D01*
X11050Y4950D02*
Y5345D01*
X11300D01*
Y5250D02*
Y5345D01*
Y5250D02*
X11600D01*
Y4950D02*
Y5250D01*
X11050Y4950D02*
X11600D01*
X11850Y2650D02*
X11950D01*
Y2550D02*
Y2650D01*
X11850Y2550D02*
X11950D01*
X11850D02*
Y2650D01*
X11650Y2350D02*
X11700D01*
X11450Y2150D02*
X11650Y2350D01*
X11700Y2150D02*
Y2350D01*
X11450Y2150D02*
X11700D01*
X12750Y2400D02*
X12950D01*
Y2250D02*
Y2400D01*
X12750Y2250D02*
X12950D01*
X12750D02*
Y2400D01*
X12400Y3150D02*
X12550D01*
Y3000D02*
Y3150D01*
X12400Y3000D02*
X12550D01*
X12400D02*
Y3150D01*
X13200Y2300D02*
Y2350D01*
Y2300D02*
X13400Y2500D01*
Y3100D01*
X13650D01*
Y3300D01*
X13200D02*
X13650D01*
X13200Y2350D02*
Y3300D01*
X3100Y5100D02*
X4000D01*
Y4755D02*
Y5100D01*
X3845Y4600D02*
X4000Y4755D01*
X3500Y4600D02*
X3845D01*
X3300Y4800D02*
X3500Y4600D01*
X3100Y4800D02*
X3300D01*
X3100D02*
Y5100D01*
M02*
