%FSLAX23Y23*%
%MOIN*%
G70*
G01*
G75*
G04 Layer_Physical_Order=3*
G04 Layer_Color=32768*
%ADD10R,0.012X0.063*%
%ADD11R,0.050X0.055*%
%ADD12R,0.063X0.012*%
%ADD13R,0.055X0.050*%
%ADD14R,0.012X0.024*%
%ADD15R,0.024X0.012*%
%ADD16R,0.132X0.132*%
%ADD17R,0.024X0.081*%
%ADD18R,0.024X0.087*%
%ADD19R,0.075X0.051*%
%ADD20R,0.089X0.024*%
%ADD21R,0.055X0.065*%
%ADD22R,0.065X0.055*%
%ADD23R,0.035X0.037*%
%ADD24R,0.035X0.037*%
%ADD25R,0.100X0.100*%
%ADD26R,0.050X0.110*%
%ADD27R,0.110X0.115*%
%ADD28R,0.080X0.160*%
%ADD29R,0.450X0.450*%
%ADD30R,0.036X0.085*%
%ADD31R,0.425X0.410*%
%ADD32R,0.016X0.085*%
%ADD33R,0.016X0.085*%
%ADD34R,0.200X0.100*%
%ADD35R,0.063X0.031*%
%ADD36R,0.039X0.063*%
%ADD37R,0.160X0.080*%
%ADD38R,0.450X0.450*%
%ADD39R,0.217X0.280*%
%ADD40R,0.081X0.024*%
%ADD41R,0.012X0.063*%
%ADD42C,0.050*%
%ADD43R,0.102X0.094*%
%ADD44R,0.079X0.126*%
%ADD45R,0.079X0.126*%
%ADD46C,0.010*%
%ADD47C,0.020*%
%ADD48C,0.050*%
%ADD49C,0.030*%
%ADD50C,0.100*%
%ADD51C,0.150*%
%ADD52C,0.035*%
%ADD53C,0.040*%
%ADD54C,0.005*%
%ADD55C,0.100*%
%ADD56R,0.100X0.100*%
%ADD57C,0.125*%
%ADD58O,0.125X0.160*%
%ADD59R,0.125X0.160*%
%ADD60C,0.065*%
%ADD61R,0.065X0.065*%
%ADD62C,0.079*%
%ADD63R,0.160X0.125*%
%ADD64O,0.160X0.125*%
%ADD65C,0.070*%
%ADD66R,0.070X0.070*%
%ADD67C,0.060*%
%ADD68C,0.150*%
%ADD69R,0.070X0.070*%
%ADD70C,0.150*%
%ADD71C,0.140*%
%ADD72C,0.024*%
%ADD73C,0.008*%
%ADD74C,0.102*%
%ADD75C,0.165*%
%ADD76C,0.120*%
%ADD77C,0.080*%
%ADD78C,0.087*%
%ADD79C,0.196*%
%ADD80C,0.590*%
%ADD81C,0.072*%
%ADD82C,0.131*%
%ADD83C,0.085*%
%ADD84C,0.130*%
%ADD85C,0.052*%
%ADD86C,0.068*%
%ADD87C,0.160*%
D47*
X1800Y2300D02*
Y4700D01*
X13200Y2300D02*
Y4700D01*
X8600D02*
Y4900D01*
X10300D01*
Y4700D02*
Y4900D01*
Y4700D02*
X13200D01*
X8200Y2300D02*
Y4700D01*
X6800Y2300D02*
Y4700D01*
X8200D02*
X8600D01*
X1800D02*
X6800D01*
X1800Y2300D02*
X6800D01*
X8200D02*
X13200D01*
D53*
X0Y450D02*
X450Y0D01*
X0Y450D02*
Y6550D01*
X450Y7000D01*
X1250D01*
Y6400D02*
Y7000D01*
Y6400D02*
X1350D01*
X1650Y6700D01*
X2200D01*
Y7000D01*
X3100D01*
Y6700D02*
Y7000D01*
Y6700D02*
X3925D01*
Y7000D01*
X13000D01*
Y6855D02*
Y7000D01*
Y6855D02*
X13455Y6400D01*
X13700D01*
Y7000D01*
X14550D01*
X15000Y6550D01*
Y450D02*
Y6550D01*
X14550Y0D02*
X15000Y450D01*
X14000Y0D02*
X14550D01*
X14000D02*
Y200D01*
X13000D02*
X14000D01*
X13000Y0D02*
Y200D01*
X11800Y0D02*
X13000D01*
X11800D02*
Y200D01*
X10800D02*
X11800D01*
X10800Y0D02*
Y200D01*
X6000Y0D02*
X10800D01*
X6000D02*
Y200D01*
X3100D02*
X6000D01*
X3100Y0D02*
Y200D01*
X2000Y0D02*
X3100D01*
X2000D02*
Y200D01*
X1000D02*
X2000D01*
X1000Y0D02*
Y200D01*
X450Y0D02*
X1000D01*
D54*
X15100Y4785D02*
X15055D01*
Y4807D01*
X15063Y4815D01*
X15078D01*
X15085Y4807D01*
Y4785D01*
X15100Y4837D02*
Y4852D01*
X15093Y4860D01*
X15078D01*
X15070Y4852D01*
Y4837D01*
X15078Y4830D01*
X15093D01*
X15100Y4837D01*
X15070Y4875D02*
X15093D01*
X15100Y4882D01*
X15093Y4890D01*
X15100Y4897D01*
X15093Y4905D01*
X15070D01*
X15100Y4942D02*
Y4927D01*
X15093Y4920D01*
X15078D01*
X15070Y4927D01*
Y4942D01*
X15078Y4950D01*
X15085D01*
Y4920D01*
X15070Y4965D02*
X15100D01*
X15085D01*
X15078Y4972D01*
X15070Y4980D01*
Y4987D01*
D73*
X12150Y4405D02*
Y4440D01*
Y4405D02*
X12225Y4330D01*
Y4270D02*
Y4330D01*
Y4270D02*
X12300D01*
Y4440D01*
X12150D02*
X12300D01*
X13125Y3580D02*
X13280D01*
Y3665D01*
X13190Y3755D02*
X13280Y3665D01*
X13125Y3755D02*
X13190D01*
X13125Y3580D02*
Y3755D01*
X13235Y4350D02*
X13320D01*
X13435Y4235D01*
Y4170D02*
Y4235D01*
X13235Y4170D02*
X13435D01*
X13235D02*
Y4350D01*
X10535Y4445D02*
X10670D01*
Y4300D02*
Y4445D01*
X10620Y4300D02*
X10670D01*
X10535Y4385D02*
X10620Y4300D01*
X10535Y4385D02*
Y4445D01*
X8900Y4455D02*
X9045D01*
Y4300D02*
Y4455D01*
X8985Y4300D02*
X9045D01*
X8900Y4385D02*
X8985Y4300D01*
X8900Y4385D02*
Y4455D01*
X8755Y3775D02*
X8870D01*
Y3685D02*
Y3775D01*
X8755Y3685D02*
X8870D01*
X8755D02*
Y3775D01*
X8360Y4750D02*
X8440D01*
Y4475D02*
Y4750D01*
X8360Y4475D02*
X8440D01*
X8360D02*
Y4750D01*
X9875Y4600D02*
X10195D01*
Y4355D02*
Y4600D01*
X9985Y4355D02*
X10195D01*
X9985D02*
Y4445D01*
X9875Y4555D02*
X9985Y4445D01*
X9875Y4555D02*
Y4605D01*
X12830Y1350D02*
X13125D01*
X12975Y1200D02*
X13125Y1350D01*
X12830Y1200D02*
X12975D01*
X12830D02*
Y1350D01*
X12835Y1700D02*
X13185D01*
X13035Y1550D02*
X13185Y1700D01*
X12835Y1550D02*
X13035D01*
X12835D02*
Y1700D01*
X12830Y2020D02*
X13160D01*
Y1900D02*
Y2020D01*
X12830Y1900D02*
X13160D01*
X12830D02*
Y2020D01*
X10580Y1565D02*
Y1650D01*
Y1565D02*
X10640D01*
X10695Y1510D01*
X10765D01*
X10855Y1600D01*
Y1650D01*
X10580D02*
X10855D01*
X10860Y1440D02*
X11020D01*
Y1245D02*
Y1440D01*
X10860Y1245D02*
X11020D01*
X10860D02*
Y1440D01*
X8290Y2065D02*
X8415D01*
Y1835D02*
Y2065D01*
X8290Y1835D02*
X8415D01*
X8290D02*
Y2065D01*
X10500Y1130D02*
X10645D01*
Y970D02*
Y1130D01*
X10500Y970D02*
X10645D01*
X10500D02*
Y1130D01*
X5000Y4700D02*
X5500D01*
Y4600D02*
Y4700D01*
X5000Y4600D02*
X5500D01*
X5000D02*
Y4700D01*
X2060Y2685D02*
X2210D01*
Y2555D02*
Y2685D01*
X2060Y2555D02*
X2210D01*
X2060D02*
Y2685D01*
X2300Y3700D02*
X2400D01*
Y3585D02*
Y3700D01*
X2350Y3585D02*
X2400D01*
X2300Y3635D02*
X2350Y3585D01*
X2300Y3635D02*
Y3700D01*
X1650Y6350D02*
X2000D01*
X1650Y6000D02*
X2000Y6350D01*
X1650Y6000D02*
Y6350D01*
X2340Y3100D02*
X2440D01*
Y3265D01*
X2340D02*
X2440D01*
X2340Y3100D02*
Y3265D01*
X3450Y3640D02*
X3600D01*
Y3580D02*
Y3640D01*
X3450Y3580D02*
X3600D01*
X3450D02*
Y3640D01*
X3955Y3100D02*
X4050D01*
Y3245D01*
X3955D02*
X4050D01*
X3955Y3100D02*
Y3245D01*
X3700Y2665D02*
X3835D01*
Y2565D02*
Y2665D01*
X3700Y2565D02*
X3835D01*
X3700D02*
Y2665D01*
X7000Y4450D02*
X7060Y4390D01*
X7600D01*
Y4450D01*
X7000D02*
X7600D01*
X12085Y3200D02*
X12155D01*
Y3000D02*
Y3200D01*
X12085Y3000D02*
X12155D01*
X12085D02*
Y3200D01*
X11600Y4550D02*
X11800Y4750D01*
X12030D01*
X11830Y4550D02*
X12030Y4750D01*
X11600Y4550D02*
X11830D01*
X11135Y6070D02*
X11280D01*
Y5945D02*
Y6070D01*
X11135Y5945D02*
X11280D01*
X11135D02*
Y6070D01*
X10600Y5950D02*
X10905Y6255D01*
X11015D01*
Y6115D02*
Y6255D01*
X10850Y5950D02*
X11015Y6115D01*
X10600Y5950D02*
X10850D01*
X11150Y6550D02*
X11335Y6735D01*
X11615D01*
X11800Y6550D01*
X11150D02*
X11800D01*
X6450Y6150D02*
X6600D01*
Y5800D02*
Y6150D01*
X6450Y5800D02*
X6600D01*
X6450D02*
Y6150D01*
X2250Y4650D02*
Y4950D01*
X2150Y5050D02*
X2250Y4950D01*
X1850Y5050D02*
X2150D01*
X1650Y4850D02*
X1850Y5050D01*
X1650Y4650D02*
Y4850D01*
Y4650D02*
X2250D01*
X1250Y3900D02*
X1700D01*
Y3550D02*
Y3900D01*
X1250Y3550D02*
X1700D01*
X1250D02*
Y3900D01*
X1950Y2180D02*
X2000D01*
X1950D02*
X2195Y1935D01*
Y2180D01*
X2000D02*
X2195D01*
X1900Y1000D02*
Y1200D01*
X2100Y1000D01*
X2200D01*
Y860D02*
Y1000D01*
X2040Y860D02*
X2200D01*
X1900Y1000D02*
X2040Y860D01*
X2500Y2170D02*
X2990D01*
X3260Y1900D01*
X3130D02*
X3260D01*
X2940Y2090D02*
X3130Y1900D01*
X2500Y2090D02*
X2940D01*
X2500D02*
Y2170D01*
X4300Y1600D02*
X4550D01*
Y1160D02*
Y1600D01*
Y1160D02*
X4800Y910D01*
Y850D02*
Y910D01*
X4300Y850D02*
X4800D01*
X4300D02*
Y1595D01*
X5500Y3780D02*
X5620D01*
Y3675D02*
Y3780D01*
X5600Y3655D02*
X5620Y3675D01*
X5500Y3655D02*
X5600D01*
X5500D02*
Y3780D01*
X5600Y3300D02*
X5860D01*
Y3250D02*
Y3300D01*
X5720Y3250D02*
X5860D01*
X5660Y3190D02*
X5720Y3250D01*
X5660Y3100D02*
Y3190D01*
X5600Y3100D02*
X5660D01*
X5600D02*
Y3300D01*
X5325Y2660D02*
X5460D01*
Y2555D02*
Y2660D01*
X5325Y2555D02*
X5460D01*
X5325D02*
Y2660D01*
X8555Y2685D02*
X8700D01*
Y2565D02*
Y2685D01*
X8555Y2565D02*
X8700D01*
X8555D02*
Y2685D01*
X8850Y3200D02*
X8925D01*
Y3000D02*
Y3200D01*
X8850Y3000D02*
X8925D01*
X8850D02*
Y3200D01*
X9150Y3130D02*
X9300D01*
Y3000D02*
Y3130D01*
X9150Y3000D02*
X9300D01*
X9150D02*
Y3130D01*
X11100Y2420D02*
X11270D01*
X11200Y2350D02*
X11270Y2420D01*
X11100Y2350D02*
X11200D01*
X11100D02*
Y2420D01*
X10200Y2650D02*
X10350D01*
Y2550D02*
Y2650D01*
X10200Y2550D02*
X10350D01*
X10200D02*
Y2650D01*
X10450Y3200D02*
X10550D01*
Y3000D02*
Y3200D01*
X10450Y3000D02*
X10550D01*
X10450D02*
Y3200D01*
X10750Y3000D02*
Y3080D01*
X10800Y3130D01*
X10950D01*
Y3000D02*
Y3130D01*
X10750Y3000D02*
X10950D01*
X11050Y4950D02*
Y5345D01*
X11300D01*
Y5250D02*
Y5345D01*
Y5250D02*
X11600D01*
Y4950D02*
Y5250D01*
X11050Y4950D02*
X11600D01*
X11850Y2650D02*
X11950D01*
Y2550D02*
Y2650D01*
X11850Y2550D02*
X11950D01*
X11850D02*
Y2650D01*
X11650Y2350D02*
X11700D01*
X11450Y2150D02*
X11650Y2350D01*
X11700Y2150D02*
Y2350D01*
X11450Y2150D02*
X11700D01*
X12750Y2400D02*
X12950D01*
Y2250D02*
Y2400D01*
X12750Y2250D02*
X12950D01*
X12750D02*
Y2400D01*
X12400Y3150D02*
X12550D01*
Y3000D02*
Y3150D01*
X12400Y3000D02*
X12550D01*
X12400D02*
Y3150D01*
X13200Y2300D02*
Y2350D01*
Y2300D02*
X13400Y2500D01*
Y3100D01*
X13650D01*
Y3300D01*
X13200D02*
X13650D01*
X13200Y2350D02*
Y3300D01*
X3100Y5100D02*
X4000D01*
Y4755D02*
Y5100D01*
X3845Y4600D02*
X4000Y4755D01*
X3500Y4600D02*
X3845D01*
X3300Y4800D02*
X3500Y4600D01*
X3100Y4800D02*
X3300D01*
X3100D02*
Y5100D01*
X6005Y6420D02*
Y6550D01*
Y6420D02*
X6600D01*
Y6550D01*
X6005D02*
X6600D01*
X6815Y6450D02*
X7700D01*
Y6250D02*
Y6450D01*
X6815Y6250D02*
X7700D01*
X6815D02*
Y6450D01*
D74*
X6120Y6770D02*
D03*
X6320D02*
D03*
X6520D02*
D03*
X6720D02*
D03*
X7120D02*
D03*
D75*
X10403Y280D02*
D03*
X9547D02*
D03*
X14540Y1172D02*
D03*
Y2553D02*
D03*
X13700D02*
D03*
X460Y5823D02*
D03*
Y4442D02*
D03*
X1300D02*
D03*
Y5823D02*
D03*
X14540Y4447D02*
D03*
Y5828D02*
D03*
X13700D02*
D03*
Y4447D02*
D03*
X460Y2553D02*
D03*
Y1172D02*
D03*
X1300D02*
D03*
Y2553D02*
D03*
D76*
X10150Y879D02*
D03*
X9975D02*
D03*
X9800D02*
D03*
X10150Y520D02*
D03*
X9975D02*
D03*
X9800D02*
D03*
X14300Y1425D02*
D03*
Y1600D02*
D03*
Y1775D02*
D03*
Y1950D02*
D03*
Y2125D02*
D03*
Y2300D02*
D03*
X13941Y1425D02*
D03*
Y1600D02*
D03*
Y1775D02*
D03*
Y1950D02*
D03*
Y2125D02*
D03*
Y2300D02*
D03*
X700Y5570D02*
D03*
Y5395D02*
D03*
Y5220D02*
D03*
Y5045D02*
D03*
Y4870D02*
D03*
Y4695D02*
D03*
X1059Y5570D02*
D03*
Y5395D02*
D03*
Y5220D02*
D03*
Y5045D02*
D03*
Y4870D02*
D03*
Y4695D02*
D03*
X14300Y4700D02*
D03*
Y4875D02*
D03*
Y5050D02*
D03*
Y5225D02*
D03*
Y5400D02*
D03*
Y5575D02*
D03*
X13941Y4700D02*
D03*
Y4875D02*
D03*
Y5050D02*
D03*
Y5225D02*
D03*
Y5400D02*
D03*
Y5575D02*
D03*
X700Y2300D02*
D03*
Y2125D02*
D03*
Y1950D02*
D03*
Y1775D02*
D03*
Y1600D02*
D03*
Y1425D02*
D03*
X1059Y2300D02*
D03*
Y2125D02*
D03*
Y1950D02*
D03*
Y1775D02*
D03*
Y1600D02*
D03*
Y1425D02*
D03*
D77*
X5546Y6547D02*
D03*
Y6673D02*
D03*
X5644D02*
D03*
X8250Y6765D02*
D03*
X8350D02*
D03*
X8450D02*
D03*
X8750D02*
D03*
X9650D02*
D03*
X9750D02*
D03*
X9850D02*
D03*
X9950D02*
D03*
X10150D02*
D03*
X10050D02*
D03*
X9550D02*
D03*
X9450D02*
D03*
X9350D02*
D03*
X9250D02*
D03*
X9150D02*
D03*
X9050D02*
D03*
X8950D02*
D03*
X8850D02*
D03*
X8650D02*
D03*
X8550D02*
D03*
X5644Y6547D02*
D03*
D78*
X9602Y6300D02*
D03*
X8398D02*
D03*
D79*
X13700Y1172D02*
D03*
D80*
X14600Y400D02*
D03*
X7500Y300D02*
D03*
X400Y400D02*
D03*
X14600Y6600D02*
D03*
X7500Y6700D02*
D03*
X400Y6600D02*
D03*
D81*
X10100Y6550D02*
D03*
Y6450D02*
D03*
Y6350D02*
D03*
D82*
X5832Y6567D02*
D03*
X5358D02*
D03*
D83*
X4798Y6544D02*
D03*
X4744Y6656D02*
D03*
X4689Y6544D02*
D03*
X4635Y6656D02*
D03*
X4580Y6544D02*
D03*
X4525Y6656D02*
D03*
X4471Y6544D02*
D03*
X4417Y6656D02*
D03*
X4362Y6544D02*
D03*
X2795Y3500D02*
D03*
X2307D02*
D03*
X2243Y4195D02*
D03*
X2158Y3713D02*
D03*
X2052Y3110D02*
D03*
X1967Y2627D02*
D03*
X2116Y2414D02*
D03*
X2606D02*
D03*
X3106Y2805D02*
D03*
X3192Y3287D02*
D03*
X3298Y3890D02*
D03*
X3383Y4373D02*
D03*
X2989Y4586D02*
D03*
X2499D02*
D03*
X3043Y3500D02*
D03*
X2943D02*
D03*
X2553D02*
D03*
X2453D02*
D03*
X2286Y4437D02*
D03*
X2186D02*
D03*
X2201Y3954D02*
D03*
X2101D02*
D03*
X2095Y3351D02*
D03*
X1995D02*
D03*
X2010Y2868D02*
D03*
X1910D02*
D03*
X2361Y2414D02*
D03*
X2261D02*
D03*
X2851D02*
D03*
X2751D02*
D03*
X3064Y2563D02*
D03*
X2964D02*
D03*
X3149Y3046D02*
D03*
X3049D02*
D03*
X3255Y3649D02*
D03*
X3155D02*
D03*
X3341Y4132D02*
D03*
X3240D02*
D03*
X3234Y4586D02*
D03*
X3134D02*
D03*
X2744D02*
D03*
X2644D02*
D03*
X4423Y3500D02*
D03*
X3932D02*
D03*
X3868Y4195D02*
D03*
X3783Y3713D02*
D03*
X3677Y3110D02*
D03*
X3592Y2627D02*
D03*
X3741Y2414D02*
D03*
X4231D02*
D03*
X4732Y2805D02*
D03*
X4817Y3287D02*
D03*
X4923Y3890D02*
D03*
X5008Y4373D02*
D03*
X4614Y4586D02*
D03*
X4124D02*
D03*
X4668Y3500D02*
D03*
X4568D02*
D03*
X4177D02*
D03*
X4077D02*
D03*
X3911Y4437D02*
D03*
X3811D02*
D03*
X3826Y3954D02*
D03*
X3726D02*
D03*
X3720Y3351D02*
D03*
X3620D02*
D03*
X3635Y2868D02*
D03*
X3534D02*
D03*
X3986Y2414D02*
D03*
X3886D02*
D03*
X4476D02*
D03*
X4376D02*
D03*
X4689Y2563D02*
D03*
X4589D02*
D03*
X4774Y3046D02*
D03*
X4674D02*
D03*
X4880Y3649D02*
D03*
X4780D02*
D03*
X4965Y4132D02*
D03*
X4865D02*
D03*
X4859Y4586D02*
D03*
X4759D02*
D03*
X4369D02*
D03*
X4269D02*
D03*
X6048Y3500D02*
D03*
X5557D02*
D03*
X5494Y4195D02*
D03*
X5408Y3713D02*
D03*
X5302Y3110D02*
D03*
X5217Y2627D02*
D03*
X5366Y2414D02*
D03*
X5856D02*
D03*
X6357Y2805D02*
D03*
X6442Y3287D02*
D03*
X6548Y3890D02*
D03*
X6633Y4373D02*
D03*
X6239Y4586D02*
D03*
X5749D02*
D03*
X6293Y3500D02*
D03*
X6193D02*
D03*
X5802D02*
D03*
X5702D02*
D03*
X5536Y4437D02*
D03*
X5436D02*
D03*
X5451Y3954D02*
D03*
X5351D02*
D03*
X5345Y3351D02*
D03*
X5245D02*
D03*
X5260Y2868D02*
D03*
X5160D02*
D03*
X5611Y2414D02*
D03*
X5511D02*
D03*
X6101D02*
D03*
X6001D02*
D03*
X6314Y2563D02*
D03*
X6214D02*
D03*
X6399Y3046D02*
D03*
X6299D02*
D03*
X6505Y3649D02*
D03*
X6405D02*
D03*
X6590Y4132D02*
D03*
X6490D02*
D03*
X6484Y4586D02*
D03*
X6384D02*
D03*
X5994D02*
D03*
X5894D02*
D03*
X9297Y3500D02*
D03*
X8807D02*
D03*
X8743Y4195D02*
D03*
X8658Y3713D02*
D03*
X8552Y3110D02*
D03*
X8467Y2627D02*
D03*
X8616Y2414D02*
D03*
X9106D02*
D03*
X9606Y2805D02*
D03*
X9692Y3287D02*
D03*
X9798Y3890D02*
D03*
X9883Y4373D02*
D03*
X9489Y4586D02*
D03*
X8999D02*
D03*
X9542Y3500D02*
D03*
X9443D02*
D03*
X9052D02*
D03*
X8953D02*
D03*
X8786Y4437D02*
D03*
X8686D02*
D03*
X8701Y3954D02*
D03*
X8601D02*
D03*
X8595Y3351D02*
D03*
X8495D02*
D03*
X8509Y2868D02*
D03*
X8410D02*
D03*
X8861Y2414D02*
D03*
X8761D02*
D03*
X9351D02*
D03*
X9251D02*
D03*
X9564Y2563D02*
D03*
X9464D02*
D03*
X9649Y3046D02*
D03*
X9549D02*
D03*
X9755Y3649D02*
D03*
X9655D02*
D03*
X9840Y4132D02*
D03*
X9741D02*
D03*
X9734Y4586D02*
D03*
X9634D02*
D03*
X9244D02*
D03*
X9144D02*
D03*
X10922Y3500D02*
D03*
X10432D02*
D03*
X10368Y4195D02*
D03*
X10283Y3713D02*
D03*
X10177Y3110D02*
D03*
X10092Y2627D02*
D03*
X10241Y2414D02*
D03*
X10731D02*
D03*
X11231Y2805D02*
D03*
X11317Y3287D02*
D03*
X11423Y3890D02*
D03*
X11508Y4373D02*
D03*
X11114Y4586D02*
D03*
X10624D02*
D03*
X11167Y3500D02*
D03*
X11068D02*
D03*
X10677D02*
D03*
X10578D02*
D03*
X10411Y4437D02*
D03*
X10311D02*
D03*
X10326Y3954D02*
D03*
X10226D02*
D03*
X10220Y3351D02*
D03*
X10120D02*
D03*
X10134Y2868D02*
D03*
X10035D02*
D03*
X10486Y2414D02*
D03*
X10386D02*
D03*
X10976D02*
D03*
X10876D02*
D03*
X11189Y2563D02*
D03*
X11089D02*
D03*
X11274Y3046D02*
D03*
X11174D02*
D03*
X11380Y3649D02*
D03*
X11280D02*
D03*
X11465Y4132D02*
D03*
X11366D02*
D03*
X11359Y4586D02*
D03*
X11259D02*
D03*
X10869D02*
D03*
X10769D02*
D03*
X12547Y3500D02*
D03*
X12057D02*
D03*
X11993Y4195D02*
D03*
X11908Y3713D02*
D03*
X11802Y3110D02*
D03*
X11717Y2627D02*
D03*
X11866Y2414D02*
D03*
X12356D02*
D03*
X12856Y2805D02*
D03*
X12942Y3287D02*
D03*
X13048Y3890D02*
D03*
X13133Y4373D02*
D03*
X12739Y4586D02*
D03*
X12249D02*
D03*
X12792Y3500D02*
D03*
X12693D02*
D03*
X12302D02*
D03*
X12203D02*
D03*
X12036Y4437D02*
D03*
X11936D02*
D03*
X11951Y3954D02*
D03*
X11851D02*
D03*
X11845Y3351D02*
D03*
X11745D02*
D03*
X11759Y2868D02*
D03*
X11660D02*
D03*
X12111Y2414D02*
D03*
X12011D02*
D03*
X12601D02*
D03*
X12501D02*
D03*
X12814Y2563D02*
D03*
X12714D02*
D03*
X12899Y3046D02*
D03*
X12799D02*
D03*
X13005Y3649D02*
D03*
X12905D02*
D03*
X13090Y4132D02*
D03*
X12991D02*
D03*
X12984Y4586D02*
D03*
X12884D02*
D03*
X12494D02*
D03*
X12394D02*
D03*
D84*
X6300Y250D02*
D03*
X6500D02*
D03*
X6700D02*
D03*
X6900D02*
D03*
X6300Y550D02*
D03*
X6500D02*
D03*
X6700D02*
D03*
X6900D02*
D03*
X7100Y555D02*
D03*
Y250D02*
D03*
D85*
X7225Y5500D02*
D03*
X7125Y4910D02*
D03*
X7285Y5125D02*
D03*
X7264Y4930D02*
D03*
X7350D02*
D03*
X7125Y5175D02*
D03*
X7300Y5800D02*
D03*
X7135Y2715D02*
D03*
X6800Y5260D02*
D03*
X6510D02*
D03*
X6805Y3110D02*
D03*
X6745Y5620D02*
D03*
X6460D02*
D03*
X6755Y3075D02*
D03*
X6720Y5590D02*
D03*
X6485D02*
D03*
X6780Y3035D02*
D03*
X7350Y2935D02*
D03*
X7300Y2945D02*
D03*
X7250Y3075D02*
D03*
X5109Y1581D02*
D03*
X6755Y1635D02*
D03*
Y2925D02*
D03*
X7275D02*
D03*
X7325Y2900D02*
D03*
X6780D02*
D03*
Y1610D02*
D03*
X5809Y1581D02*
D03*
X7375Y2875D02*
D03*
X6805Y2870D02*
D03*
Y1581D02*
D03*
X6514Y1581D02*
D03*
X7425Y2890D02*
D03*
X7735D02*
D03*
Y1510D02*
D03*
X9075D02*
D03*
X7475Y2915D02*
D03*
X7760D02*
D03*
Y1555D02*
D03*
X9775Y1520D02*
D03*
X7525Y2940D02*
D03*
X7785D02*
D03*
Y1581D02*
D03*
X10509Y1581D02*
D03*
X7050Y1490D02*
D03*
X7575Y1805D02*
D03*
X7525D02*
D03*
X7475D02*
D03*
X7425Y1650D02*
D03*
X7380Y1680D02*
D03*
X7345Y1710D02*
D03*
X7310Y1740D02*
D03*
X7275Y1770D02*
D03*
X7985Y1975D02*
D03*
X7625D02*
D03*
X7985Y3675D02*
D03*
X7625D02*
D03*
X7575Y3145D02*
D03*
X7325Y3490D02*
D03*
X5400Y5930D02*
D03*
X5130D02*
D03*
Y5960D02*
D03*
Y5990D02*
D03*
Y6020D02*
D03*
Y6050D02*
D03*
Y6080D02*
D03*
Y6110D02*
D03*
Y6140D02*
D03*
Y6170D02*
D03*
Y6200D02*
D03*
X5400Y5960D02*
D03*
Y5990D02*
D03*
Y6020D02*
D03*
Y6050D02*
D03*
Y6080D02*
D03*
Y6110D02*
D03*
Y6140D02*
D03*
Y6170D02*
D03*
Y6200D02*
D03*
X4637Y5150D02*
D03*
X5137D02*
D03*
X5637D02*
D03*
X6137D02*
D03*
X6360Y5200D02*
D03*
X4531Y4975D02*
D03*
X5031D02*
D03*
X5530D02*
D03*
X6030D02*
D03*
X5500Y4950D02*
D03*
X5000D02*
D03*
X4500D02*
D03*
X6000D02*
D03*
X5780Y5310D02*
D03*
X5280D02*
D03*
X4780D02*
D03*
X6280Y5310D02*
D03*
X5200Y4925D02*
D03*
X5700D02*
D03*
Y5225D02*
D03*
X5200D02*
D03*
X4700D02*
D03*
X6200D02*
D03*
Y4925D02*
D03*
X4700D02*
D03*
X5000Y5275D02*
D03*
X5500D02*
D03*
X6000D02*
D03*
X4500D02*
D03*
X6136Y6100D02*
D03*
X4700Y5530D02*
D03*
X4400Y5555D02*
D03*
X6015Y6055D02*
D03*
X7200Y1700D02*
D03*
X6700D02*
D03*
X6410Y5045D02*
D03*
X7660Y5775D02*
D03*
X8250Y3650D02*
D03*
X7225D02*
D03*
X11775Y6700D02*
D03*
X7705Y4860D02*
D03*
X8470Y5813D02*
D03*
X7675Y4830D02*
D03*
X6975Y1145D02*
D03*
X9325Y1150D02*
D03*
X8625D02*
D03*
X5325Y1145D02*
D03*
X6990Y2385D02*
D03*
X7050Y4000D02*
D03*
X7280Y5335D02*
D03*
X4690Y5995D02*
D03*
X4650Y6025D02*
D03*
X7130Y5720D02*
D03*
X10455Y1655D02*
D03*
X7575Y4200D02*
D03*
X10880Y6350D02*
D03*
X7525Y4200D02*
D03*
X10880Y5900D02*
D03*
X10270Y5930D02*
D03*
X10945Y5745D02*
D03*
X7475Y4200D02*
D03*
X6798Y5363D02*
D03*
X6728Y837D02*
D03*
X6025Y1145D02*
D03*
X4625Y1150D02*
D03*
X1300Y3030D02*
D03*
Y3070D02*
D03*
Y3110D02*
D03*
Y3150D02*
D03*
Y3190D02*
D03*
X4220Y4855D02*
D03*
X4255Y4890D02*
D03*
X4185Y4825D02*
D03*
X4150Y4790D02*
D03*
X4100Y4750D02*
D03*
X1425Y2445D02*
D03*
X1465Y2460D02*
D03*
X1500Y2475D02*
D03*
X8550Y6500D02*
D03*
X8650D02*
D03*
X8750D02*
D03*
X8850D02*
D03*
X8950D02*
D03*
X9050D02*
D03*
X9150D02*
D03*
X9250D02*
D03*
X9350D02*
D03*
X9450D02*
D03*
X9550D02*
D03*
X9650D02*
D03*
X7985Y5240D02*
D03*
X7960Y5215D02*
D03*
X7935Y5190D02*
D03*
X7910Y5165D02*
D03*
X7885Y5110D02*
D03*
X7860Y5085D02*
D03*
X7835Y5060D02*
D03*
X7810Y5035D02*
D03*
X1600Y3445D02*
D03*
Y3485D02*
D03*
X7225Y3365D02*
D03*
X7275Y3400D02*
D03*
X13190Y2210D02*
D03*
X13200Y2175D02*
D03*
X13210Y2140D02*
D03*
X13230Y2105D02*
D03*
X13250Y2070D02*
D03*
X13500Y3380D02*
D03*
Y3420D02*
D03*
X7525Y3370D02*
D03*
X7475Y3400D02*
D03*
X13500Y3460D02*
D03*
X7425Y3430D02*
D03*
X13500Y3500D02*
D03*
X7375Y3460D02*
D03*
X13500Y4050D02*
D03*
X6895Y4890D02*
D03*
Y1615D02*
D03*
X7375Y4200D02*
D03*
X7325D02*
D03*
X7275D02*
D03*
X7225D02*
D03*
X7475Y2500D02*
D03*
X7425D02*
D03*
X7375D02*
D03*
X7325D02*
D03*
X7275D02*
D03*
X10800Y1700D02*
D03*
X9795D02*
D03*
X6425Y1490D02*
D03*
X10785Y1455D02*
D03*
X9025Y1485D02*
D03*
X10780Y1420D02*
D03*
X10740Y1385D02*
D03*
X5725Y1500D02*
D03*
X10700Y1350D02*
D03*
X5025Y1475D02*
D03*
X12304Y2805D02*
D03*
X10684Y2800D02*
D03*
X9059D02*
D03*
X5804Y2805D02*
D03*
X4184Y2800D02*
D03*
X2559D02*
D03*
X2890Y4000D02*
D03*
X2641Y3946D02*
D03*
X4264D02*
D03*
X4525Y4000D02*
D03*
X5896Y3946D02*
D03*
X6145Y4000D02*
D03*
X9141Y3946D02*
D03*
X9385Y4000D02*
D03*
X12640D02*
D03*
X11015D02*
D03*
X10769Y3946D02*
D03*
X12400D02*
D03*
X4675Y1120D02*
D03*
X4725Y1095D02*
D03*
X4775Y1070D02*
D03*
X4825Y1045D02*
D03*
X4875Y1020D02*
D03*
X4925Y995D02*
D03*
X4975Y970D02*
D03*
X5375Y1120D02*
D03*
X5425Y1095D02*
D03*
X5475Y1070D02*
D03*
X5525Y1045D02*
D03*
X5575Y1020D02*
D03*
X5625Y995D02*
D03*
X5675Y970D02*
D03*
X6075Y1120D02*
D03*
X6125Y1095D02*
D03*
X6175Y1070D02*
D03*
X6225Y1045D02*
D03*
X6275Y1020D02*
D03*
X6325Y995D02*
D03*
X6375Y970D02*
D03*
X8675Y1120D02*
D03*
X8725Y1095D02*
D03*
X8775Y1070D02*
D03*
X8825Y1045D02*
D03*
X8875Y1020D02*
D03*
X8925Y995D02*
D03*
X8975Y970D02*
D03*
X9375Y1120D02*
D03*
X9425Y1095D02*
D03*
X9475Y1070D02*
D03*
X9525Y1045D02*
D03*
X9575Y1020D02*
D03*
X9625Y995D02*
D03*
X9675Y970D02*
D03*
X7910Y1020D02*
D03*
X7885Y1045D02*
D03*
X7935Y995D02*
D03*
X7960Y970D02*
D03*
X7860Y1070D02*
D03*
X7835Y1095D02*
D03*
X7810Y1120D02*
D03*
X7225Y3850D02*
D03*
X7810D02*
D03*
X7275Y3825D02*
D03*
X7835D02*
D03*
X7325Y3800D02*
D03*
X7860D02*
D03*
X7375Y3775D02*
D03*
X7885D02*
D03*
X7425Y3750D02*
D03*
X7910D02*
D03*
X7475Y3725D02*
D03*
X7935D02*
D03*
X7525Y3700D02*
D03*
X7960D02*
D03*
X7225Y2150D02*
D03*
X7810D02*
D03*
X7275Y2125D02*
D03*
X7835D02*
D03*
X7325Y2100D02*
D03*
X7860D02*
D03*
X7375Y2075D02*
D03*
X7885D02*
D03*
X7425Y2050D02*
D03*
X7910D02*
D03*
X7475Y2025D02*
D03*
X7935D02*
D03*
X7525Y2000D02*
D03*
X7960D02*
D03*
X4342Y5963D02*
D03*
X8145Y850D02*
D03*
X14483Y925D02*
D03*
Y1575D02*
D03*
Y1925D02*
D03*
Y2275D02*
D03*
Y2875D02*
D03*
Y4200D02*
D03*
X14488Y4850D02*
D03*
X14478Y5200D02*
D03*
X14483Y5555D02*
D03*
X14478Y6155D02*
D03*
X517Y6070D02*
D03*
Y5420D02*
D03*
Y5070D02*
D03*
Y4715D02*
D03*
Y4110D02*
D03*
Y2800D02*
D03*
Y2150D02*
D03*
Y1800D02*
D03*
Y1450D02*
D03*
Y800D02*
D03*
X10150Y5305D02*
D03*
X7425Y4200D02*
D03*
X11698Y5052D02*
D03*
X6300Y5790D02*
D03*
X7313Y4902D02*
D03*
X8165Y6075D02*
D03*
X7395Y5275D02*
D03*
X7800Y5205D02*
D03*
X8010Y895D02*
D03*
X8110Y4902D02*
D03*
X8035Y920D02*
D03*
X7850Y5180D02*
D03*
X7397Y5467D02*
D03*
X5835Y1200D02*
D03*
X5950Y1175D02*
D03*
X8085Y1295D02*
D03*
X8060Y1320D02*
D03*
X8200Y3240D02*
D03*
X8225Y3270D02*
D03*
X7770Y3330D02*
D03*
X7745Y3300D02*
D03*
X7335Y5115D02*
D03*
X9850Y6500D02*
D03*
X9750D02*
D03*
X7320Y4990D02*
D03*
X7220Y4975D02*
D03*
X7240Y5105D02*
D03*
X7205Y5115D02*
D03*
X7060Y4950D02*
D03*
X7003Y5133D02*
D03*
X6872Y5202D02*
D03*
X7020Y5300D02*
D03*
X7005Y1455D02*
D03*
X6870D02*
D03*
X6580Y5230D02*
D03*
X6850D02*
D03*
X4510Y6200D02*
D03*
X6845Y5285D02*
D03*
X4613Y6052D02*
D03*
X6800Y5310D02*
D03*
X6715Y6237D02*
D03*
X6387D02*
D03*
X5240Y1225D02*
D03*
X6715D02*
D03*
X5160Y1250D02*
D03*
X6690D02*
D03*
X6605Y5310D02*
D03*
X6590Y5470D02*
D03*
X6725Y5495D02*
D03*
X6565Y5500D02*
D03*
X6745Y5520D02*
D03*
X4250Y1840D02*
D03*
X4215Y1870D02*
D03*
X4180Y1900D02*
D03*
X4110Y1960D02*
D03*
X4145Y1930D02*
D03*
X7375Y2720D02*
D03*
X6730Y2650D02*
D03*
X6848Y5172D02*
D03*
X6435Y5172D02*
D03*
X7035Y2700D02*
D03*
X8275Y1240D02*
D03*
X7540D02*
D03*
X8250Y1190D02*
D03*
X7463D02*
D03*
X8225Y1270D02*
D03*
X8210Y1215D02*
D03*
X7488D02*
D03*
X7437Y1240D02*
D03*
X9275Y895D02*
D03*
X7305Y1180D02*
D03*
X7067Y5695D02*
D03*
X6425Y5610D02*
D03*
X8500Y1455D02*
D03*
X6670Y1520D02*
D03*
X7215Y5360D02*
D03*
X7090Y5475D02*
D03*
X7155Y5510D02*
D03*
X7500Y5800D02*
D03*
X7245Y5145D02*
D03*
X7500Y5655D02*
D03*
X7400Y5800D02*
D03*
X7050Y3200D02*
D03*
X9965Y1220D02*
D03*
X10075Y1140D02*
D03*
X10125D02*
D03*
X10175D02*
D03*
X10225D02*
D03*
X10275D02*
D03*
X10325D02*
D03*
X10375D02*
D03*
X9025Y945D02*
D03*
X10425Y1140D02*
D03*
X9725Y945D02*
D03*
X5025D02*
D03*
X6425D02*
D03*
X5725D02*
D03*
X7985D02*
D03*
X6795Y920D02*
D03*
X6870Y895D02*
D03*
X7275Y870D02*
D03*
X7795Y835D02*
D03*
D86*
X8415Y3730D02*
D03*
X7020Y3560D02*
D03*
X8400Y2300D02*
D03*
X7025Y2575D02*
D03*
X5705Y870D02*
D03*
X5650D02*
D03*
X6600D02*
D03*
X10600Y1300D02*
D03*
X9900D02*
D03*
X9200D02*
D03*
X8295Y700D02*
D03*
X7925Y160D02*
D03*
X10945Y6870D02*
D03*
X10950Y6730D02*
D03*
X10252Y5182D02*
D03*
X9300Y5050D02*
D03*
X9400D02*
D03*
X9500D02*
D03*
X9600D02*
D03*
X9700D02*
D03*
X10400Y5100D02*
D03*
Y5250D02*
D03*
X10550D02*
D03*
Y5100D02*
D03*
X10400Y4800D02*
D03*
X10550D02*
D03*
Y5525D02*
D03*
X5200Y1300D02*
D03*
X5900D02*
D03*
X6600D02*
D03*
X3900Y1550D02*
D03*
X3000Y1900D02*
D03*
Y1200D02*
D03*
X3900Y850D02*
D03*
X3000Y500D02*
D03*
X11100Y1350D02*
D03*
Y650D02*
D03*
X12000Y300D02*
D03*
Y1000D02*
D03*
Y1700D02*
D03*
X11100Y6150D02*
D03*
Y5450D02*
D03*
X12000Y5100D02*
D03*
Y5800D02*
D03*
Y6500D02*
D03*
X3900Y6350D02*
D03*
Y5650D02*
D03*
X3000Y5300D02*
D03*
Y6000D02*
D03*
Y6700D02*
D03*
X5065Y5800D02*
D03*
X13730Y3600D02*
D03*
X13550Y3650D02*
D03*
X7250Y4750D02*
D03*
X7120Y5830D02*
D03*
X5065Y5859D02*
D03*
X5065Y5924D02*
D03*
X10600Y900D02*
D03*
X9200Y850D02*
D03*
X10400Y5525D02*
D03*
D87*
X4088Y6600D02*
D03*
X5072D02*
D03*
M02*
